<svg height="288" viewBox="0 0 504 216" width="672" xmlns="http://www.w3.org/2000/svg" xmlns:xlink="http://www.w3.org/1999/xlink"><defs><style>*{stroke-linecap:butt;stroke-linejoin:round}</style></defs><g id="figure_1"><path d="M0 216h504V0H0z" fill="#fff" id="patch_1"/><g id="axes_1"><path d="M126 194.4h403.2v-162H126z" fill="#fff" id="patch_2"/><path clip-path="url(#p1bb9119480)" d="M294.452 187.036h74.733v-31.004h-74.733z" fill="#aaa" id="patch_3"/><path clip-path="url(#p1bb9119480)" d="M416.49 148.28h3.388v-31.004h-3.388z" fill="#aaa" id="patch_4"/><path clip-path="url(#p1bb9119480)" d="M319.19 109.524H471.28V78.52H319.19z" fill="#aaa" id="patch_5"/><path clip-path="url(#p1bb9119480)" d="M495.318 70.768h3.388V39.764h-3.388z" fill="#aaa" id="patch_6"/><g id="matplotlib.axis_1"><g id="xtick_1"><g id="line2d_1"><defs><path d="M0 0v3.5" id="m87d19429e8" stroke="#000" stroke-width=".8"/></defs><use x="126" xlink:href="#m87d19429e8" y="194.4" stroke="#000" stroke-width=".8"/></g><g transform="matrix(.1 0 0 -.1 113.298 208.998)" id="text_1"><defs><path d="M2034 4250q-487 0-733-480-245-479-245-1442 0-959 245-1439 246-480 733-480 491 0 736 480 246 480 246 1439 0 963-246 1442-245 480-736 480zm0 500q785 0 1199-621 414-620 414-1801 0-1178-414-1799Q2819-91 2034-91q-784 0-1198 620-414 621-414 1799 0 1181 414 1801 414 621 1198 621z" id="DejaVuSans-30" transform="scale(.01563)"/><path d="M684 794h660V0H684v794z" id="DejaVuSans-2e" transform="scale(.01563)"/><path d="M4653 2053q-272 0-427-231-154-231-154-644 0-406 154-639 155-233 427-233 266 0 420 233 155 233 155 639 0 410-155 642-154 233-420 233zm0 397q494 0 784-344 291-343 291-928 0-584-292-927-292-342-783-342-500 0-791 342-290 343-290 927 0 588 292 930t789 342zM1428 4353q-269 0-424-233-154-232-154-639 0-412 153-644 153-231 425-231t426 231q155 232 155 644 0 403-156 637-156 235-425 235zm2822 397h500L1831-91h-500l2919 4841zm-2822 0q494 0 787-342 294-342 294-927 0-590-292-931t-789-341q-497 0-786 342-289 343-289 930 0 582 290 925 291 344 785 344z" id="DejaVuSans-25" transform="scale(.01563)"/></defs><use xlink:href="#DejaVuSans-30"/><use x="63.623" xlink:href="#DejaVuSans-2e"/><use x="95.41" xlink:href="#DejaVuSans-30"/><use x="159.033" xlink:href="#DejaVuSans-25"/></g></g><g id="xtick_2"><use x="193.765" xlink:href="#m87d19429e8" y="194.4" stroke="#000" stroke-width=".8" id="line2d_2"/><g transform="matrix(.1 0 0 -.1 181.062 208.998)" id="text_2"><defs><path d="M1228 531h2203V0H469v531q359 372 979 998 621 627 780 809 303 340 423 576 121 236 121 464 0 372-261 606-261 235-680 235-297 0-627-103-329-103-704-313v638q381 153 712 231 332 78 607 78 725 0 1156-363 431-362 431-968 0-288-108-546-107-257-392-607-78-91-497-524-418-433-1181-1211z" id="DejaVuSans-32" transform="scale(.01563)"/></defs><use xlink:href="#DejaVuSans-32"/><use x="63.623" xlink:href="#DejaVuSans-2e"/><use x="95.41" xlink:href="#DejaVuSans-30"/><use x="159.033" xlink:href="#DejaVuSans-25"/></g></g><g id="xtick_3"><use x="261.529" xlink:href="#m87d19429e8" y="194.4" stroke="#000" stroke-width=".8" id="line2d_3"/><g transform="matrix(.1 0 0 -.1 248.827 208.998)" id="text_3"><defs><path d="M2419 4116L825 1625h1594v2491zm-166 550h794V1625h666v-525h-666V0h-628v1100H313v609l1940 2957z" id="DejaVuSans-34" transform="scale(.01563)"/></defs><use xlink:href="#DejaVuSans-34"/><use x="63.623" xlink:href="#DejaVuSans-2e"/><use x="95.41" xlink:href="#DejaVuSans-30"/><use x="159.033" xlink:href="#DejaVuSans-25"/></g></g><g id="xtick_4"><use x="329.294" xlink:href="#m87d19429e8" y="194.4" stroke="#000" stroke-width=".8" id="line2d_4"/><g transform="matrix(.1 0 0 -.1 316.592 208.998)" id="text_4"><defs><path d="M2113 2584q-425 0-674-291-248-290-248-796 0-503 248-796 249-292 674-292t673 292q248 293 248 796 0 506-248 796-248 291-673 291zm1253 1979v-575q-238 112-480 171-242 60-480 60-625 0-955-422-329-422-376-1275 184 272 462 417 279 145 613 145 703 0 1111-427 408-426 408-1160 0-719-425-1154Q2819-91 2113-91q-810 0-1238 620-428 621-428 1799 0 1106 525 1764t1409 658q238 0 480-47t505-140z" id="DejaVuSans-36" transform="scale(.01563)"/></defs><use xlink:href="#DejaVuSans-36"/><use x="63.623" xlink:href="#DejaVuSans-2e"/><use x="95.41" xlink:href="#DejaVuSans-30"/><use x="159.033" xlink:href="#DejaVuSans-25"/></g></g><g id="xtick_5"><use x="397.059" xlink:href="#m87d19429e8" y="194.4" stroke="#000" stroke-width=".8" id="line2d_5"/><g transform="matrix(.1 0 0 -.1 384.356 208.998)" id="text_5"><defs><path d="M2034 2216q-450 0-708-241-257-241-257-662 0-422 257-663 258-241 708-241t709 242q260 243 260 662 0 421-258 662-257 241-711 241zm-631 268q-406 100-633 378-226 279-226 679 0 559 398 884 399 325 1092 325 697 0 1094-325t397-884q0-400-227-679-226-278-629-378 456-106 710-416 255-309 255-755 0-679-414-1042Q2806-91 2034-91q-771 0-1186 362-414 363-414 1042 0 446 256 755 257 310 713 416zm-231 997q0-362 226-565 227-203 636-203 407 0 636 203 230 203 230 565 0 363-230 566-229 203-636 203-409 0-636-203-226-203-226-566z" id="DejaVuSans-38" transform="scale(.01563)"/></defs><use xlink:href="#DejaVuSans-38"/><use x="63.623" xlink:href="#DejaVuSans-2e"/><use x="95.41" xlink:href="#DejaVuSans-30"/><use x="159.033" xlink:href="#DejaVuSans-25"/></g></g><g id="xtick_6"><use x="464.824" xlink:href="#m87d19429e8" y="194.4" stroke="#000" stroke-width=".8" id="line2d_6"/><g transform="matrix(.1 0 0 -.1 448.94 208.998)" id="text_6"><defs><path d="M794 531h1031v3560L703 3866v575l1116 225h631V531h1031V0H794v531z" id="DejaVuSans-31" transform="scale(.01563)"/></defs><use xlink:href="#DejaVuSans-31"/><use x="63.623" xlink:href="#DejaVuSans-30"/><use x="127.246" xlink:href="#DejaVuSans-2e"/><use x="159.033" xlink:href="#DejaVuSans-30"/><use x="222.656" xlink:href="#DejaVuSans-25"/></g></g></g><g id="matplotlib.axis_2"><g id="ytick_1"><g id="line2d_7"><defs><path d="M0 0h-3.5" id="m718070e43d" stroke="#000" stroke-width=".8"/></defs><use x="126" xlink:href="#m718070e43d" y="171.534" stroke="#000" stroke-width=".8"/></g><g id="text_7"><g transform="matrix(.1 0 0 -.1 63.63 170.494)"><defs><path d="M628 4666h941l1190-3175 1197 3175h941V0h-616v4097L3078 897h-634L1241 4097V0H628v4666z" id="DejaVuSans-4d" transform="scale(.01563)"/><path d="M3597 1894v-281H953q38-594 358-905t892-311q331 0 642 81t618 244V178Q3153 47 2828-22t-659-69q-838 0-1327 487-489 488-489 1320 0 859 464 1363 464 505 1252 505 706 0 1117-455 411-454 411-1235zm-575 169q-6 471-264 752-258 282-683 282-481 0-770-272t-333-766l2050 4z" id="DejaVuSans-65" transform="scale(.01563)"/><path d="M603 4863h575V0H603v4863z" id="DejaVuSans-6c" transform="scale(.01563)"/><path d="M1959 3097q-462 0-731-361t-269-989q0-628 267-989 268-361 733-361 460 0 728 362 269 363 269 988 0 622-269 986-268 364-728 364zm0 487q750 0 1178-488 429-487 429-1349 0-859-429-1349Q2709-91 1959-91q-753 0-1180 489-426 490-426 1349 0 862 426 1349 427 488 1180 488z" id="DejaVuSans-6f" transform="scale(.01563)"/><path d="M1172 4494v-994h1184v-447H1172V1153q0-428 117-550t477-122h590V0h-590q-666 0-919 248-253 249-253 905v1900H172v447h422v994h578z" id="DejaVuSans-74" transform="scale(.01563)"/><path d="M2194 1759q-697 0-966-159t-269-544q0-306 202-486 202-179 548-179 479 0 768 339t289 901v128h-572zm1147 238V0h-575v531q-197-318-491-470T1556-91q-537 0-855 302-317 302-317 808 0 590 395 890 396 300 1180 300h807v57q0 397-261 614t-733 217q-300 0-585-72-284-72-546-216v532q315 122 612 182 297 61 578 61 760 0 1135-394 375-393 375-1193z" id="DejaVuSans-61" transform="scale(.01563)"/><path d="M750 794h659V256L897-744H494L750 256v538z" id="DejaVuSans-2c" transform="scale(.01563)"/></defs><use xlink:href="#DejaVuSans-4d"/><use x="86.279" xlink:href="#DejaVuSans-65"/><use x="147.803" xlink:href="#DejaVuSans-6c"/><use x="175.586" xlink:href="#DejaVuSans-6f"/><use x="236.768" xlink:href="#DejaVuSans-20"/><use x="268.555" xlink:href="#DejaVuSans-65"/><use x="330.078" xlink:href="#DejaVuSans-74"/><use x="369.287" xlink:href="#DejaVuSans-20"/><use x="401.074" xlink:href="#DejaVuSans-61"/><use x="462.354" xlink:href="#DejaVuSans-6c"/><use x="490.137" xlink:href="#DejaVuSans-2e"/><use x="521.924" xlink:href="#DejaVuSans-2c"/></g><g transform="matrix(.1 0 0 -.1 105.333 181.692)"><defs><path d="M556 4666h635V1831q0-750 271-1080 272-329 882-329 606 0 878 329 272 330 272 1080v2835h634V1753q0-912-452-1378Q3225-91 2344-91q-885 0-1337 466-451 466-451 1378v2913z" id="DejaVuSans-55" transform="scale(.01563)"/><path d="M3425 4513v-616q-359 172-678 256-319 85-616 85-515 0-795-200t-280-569q0-310 186-468 186-157 705-254l381-78q706-135 1042-474t336-907q0-679-455-1029Q2797-91 1919-91q-331 0-705 75-373 75-773 222v650q384-215 753-325 369-109 725-109 540 0 834 212 294 213 294 607 0 343-211 537t-692 291l-385 75q-706 140-1022 440-315 300-315 835 0 619 436 975t1201 356q329 0 669-60 341-59 697-177z" id="DejaVuSans-53" transform="scale(.01563)"/></defs><use xlink:href="#DejaVuSans-55"/><use x="73.193" xlink:href="#DejaVuSans-53"/></g></g></g><g id="ytick_2"><use x="126" xlink:href="#m718070e43d" y="132.778" stroke="#000" stroke-width=".8" id="line2d_8"/><g id="text_8"><g transform="matrix(.1 0 0 -.1 40.084 131.738)"><defs><path d="M3122 3366v-538q-244 135-489 202t-495 67q-560 0-870-355-309-354-309-995t309-996q310-354 870-354 250 0 495 67t489 202V134Q2881 22 2623-34q-257-57-548-57-791 0-1257 497-465 497-465 1341 0 856 470 1346 471 491 1290 491 265 0 518-55 253-54 491-163z" id="DejaVuSans-63" transform="scale(.01563)"/><path d="M3513 2113V0h-575v2094q0 497-194 743-194 247-581 247-466 0-735-297-269-296-269-809V0H581v4863h578V2956q207 316 486 472 280 156 646 156 603 0 912-373 310-373 310-1098z" id="DejaVuSans-68" transform="scale(.01563)"/><path d="M2194 1759q-697 0-966-159t-269-544q0-306 202-486 202-179 548-179 479 0 768 339t289 901v128h-572zm1147 238V0h-575v531q-197-318-491-470T1556-91q-537 0-855 302-317 302-317 808 0 590 395 890 396 300 1180 300h807v57q0 397-261 614t-733 217q-300 0-585-72-284-72-546-216v532q315 122 612 182 297 61 578 61 760 0 1135-394 375-393 375-1193zM2150 4850h634v-631h-634v631zm-1222 0h634v-631H928v631z" id="DejaVuSans-e4" transform="scale(.01563)"/><path d="M1159 525v-1856H581v4831h578v-531q182 312 458 463 277 152 661 152 638 0 1036-506 399-506 399-1331T3314 415Q2916-91 2278-91q-384 0-661 152-276 152-458 464zm1957 1222q0 634-261 995t-717 361q-457 0-718-361t-261-995q0-634 261-995t718-361q456 0 717 361t261 995z" id="DejaVuSans-70" transform="scale(.01563)"/><path d="M2375 4863v-479h-550q-309 0-430-125-120-125-120-450v-309h947v-447h-947V0H697v3053H147v447h550v244q0 584 272 851 272 268 862 268h544z" id="DejaVuSans-66" transform="scale(.01563)"/><path d="M2631 2963q-97 56-211 82-114 27-251 27-488 0-749-317t-261-911V0H581v3500h578v-544q182 319 472 473 291 155 707 155 59 0 131-8 72-7 159-23l3-590z" id="DejaVuSans-72" transform="scale(.01563)"/></defs><use xlink:href="#DejaVuSans-53"/><use x="63.477" xlink:href="#DejaVuSans-63"/><use x="118.457" xlink:href="#DejaVuSans-68"/><use x="181.836" xlink:href="#DejaVuSans-6c"/><use x="209.619" xlink:href="#DejaVuSans-e4"/><use x="270.898" xlink:href="#DejaVuSans-70"/><use x="334.375" xlink:href="#DejaVuSans-66"/><use x="369.58" xlink:href="#DejaVuSans-65"/><use x="431.104" xlink:href="#DejaVuSans-72"/><use x="472.217" xlink:href="#DejaVuSans-20"/><use x="504.004" xlink:href="#DejaVuSans-65"/><use x="565.527" xlink:href="#DejaVuSans-74"/><use x="604.736" xlink:href="#DejaVuSans-20"/><use x="636.523" xlink:href="#DejaVuSans-61"/><use x="697.803" xlink:href="#DejaVuSans-6c"/><use x="725.586" xlink:href="#DejaVuSans-2e"/><use x="757.373" xlink:href="#DejaVuSans-2c"/></g><g transform="matrix(.1 0 0 -.1 77.59 142.936)"><defs><path d="M1259 4147V2394h794q441 0 681 228 241 228 241 650 0 419-241 647-240 228-681 228h-794zm-631 519h1425q785 0 1186-355 402-355 402-1039 0-691-402-1044-401-353-1186-353h-794V0H628v4666z" id="DejaVuSans-50" transform="scale(.01563)"/><path d="M544 1381v2119h575V1403q0-497 193-746 194-248 582-248 465 0 735 297 271 297 271 810v1984h575V0h-575v538q-209-319-486-474-276-155-642-155-603 0-916 375-312 375-312 1097zm1447 2203z" id="DejaVuSans-75" transform="scale(.01563)"/><path d="M2906 1791q0 625-258 968-257 344-723 344-462 0-720-344-258-343-258-968 0-622 258-966t720-344q466 0 723 344 258 344 258 966zm575-1357q0-893-397-1329-396-436-1215-436-303 0-572 45t-522 139v559q253-137 500-202 247-66 503-66 566 0 847 295t281 892v285q-178-310-456-463T1784 0Q1141 0 747 490 353 981 353 1791q0 812 394 1302 394 491 1037 491 388 0 666-153t456-462v531h575V434z" id="DejaVuSans-67" transform="scale(.01563)"/></defs><use xlink:href="#DejaVuSans-50"/><use x="56.678" xlink:href="#DejaVuSans-6f"/><use x="117.859" xlink:href="#DejaVuSans-72"/><use x="158.973" xlink:href="#DejaVuSans-74"/><use x="198.182" xlink:href="#DejaVuSans-75"/><use x="261.561" xlink:href="#DejaVuSans-67"/><use x="325.037" xlink:href="#DejaVuSans-61"/><use x="386.316" xlink:href="#DejaVuSans-6c"/></g></g></g><g id="ytick_3"><use x="126" xlink:href="#m718070e43d" y="94.022" stroke="#000" stroke-width=".8" id="line2d_9"/><g id="text_9"><g transform="matrix(.1 0 0 -.1 40.084 92.982)"><use xlink:href="#DejaVuSans-53"/><use x="63.477" xlink:href="#DejaVuSans-63"/><use x="118.457" xlink:href="#DejaVuSans-68"/><use x="181.836" xlink:href="#DejaVuSans-6c"/><use x="209.619" xlink:href="#DejaVuSans-e4"/><use x="270.898" xlink:href="#DejaVuSans-70"/><use x="334.375" xlink:href="#DejaVuSans-66"/><use x="369.58" xlink:href="#DejaVuSans-65"/><use x="431.104" xlink:href="#DejaVuSans-72"/><use x="472.217" xlink:href="#DejaVuSans-20"/><use x="504.004" xlink:href="#DejaVuSans-65"/><use x="565.527" xlink:href="#DejaVuSans-74"/><use x="604.736" xlink:href="#DejaVuSans-20"/><use x="636.523" xlink:href="#DejaVuSans-61"/><use x="697.803" xlink:href="#DejaVuSans-6c"/><use x="725.586" xlink:href="#DejaVuSans-2e"/><use x="757.373" xlink:href="#DejaVuSans-2c"/></g><g transform="matrix(.1 0 0 -.1 105.123 104.18)"><defs><path d="M628 4666h631V2694l2094 1972h813L1850 2491 4331 0h-831L1259 2247V0H628v4666z" id="DejaVuSans-4b" transform="scale(.01563)"/></defs><use xlink:href="#DejaVuSans-55"/><use x="73.193" xlink:href="#DejaVuSans-4b"/></g></g></g><g id="ytick_4"><use x="126" xlink:href="#m718070e43d" y="55.266" stroke="#000" stroke-width=".8" id="line2d_10"/><g id="text_10"><g transform="matrix(.1 0 0 -.1 66.503 54.226)"><defs><path d="M628 4666h631V531h2272V0H628v4666z" id="DejaVuSans-4c" transform="scale(.01563)"/><path d="M3116 1747q0 634-261 995t-717 361q-457 0-718-361t-261-995q0-634 261-995t718-361q456 0 717 361t261 995zM1159 2969q182 312 458 463 277 152 661 152 638 0 1036-506 399-506 399-1331T3314 415Q2916-91 2278-91q-384 0-661 152-276 152-458 464V0H581v4863h578V2969z" id="DejaVuSans-62" transform="scale(.01563)"/></defs><use xlink:href="#DejaVuSans-4c"/><use x="53.963" xlink:href="#DejaVuSans-6f"/><use x="115.145" xlink:href="#DejaVuSans-62"/><use x="178.621" xlink:href="#DejaVuSans-6f"/><use x="239.803" xlink:href="#DejaVuSans-20"/><use x="271.59" xlink:href="#DejaVuSans-65"/><use x="333.113" xlink:href="#DejaVuSans-74"/><use x="372.322" xlink:href="#DejaVuSans-20"/><use x="404.109" xlink:href="#DejaVuSans-61"/><use x="465.389" xlink:href="#DejaVuSans-6c"/><use x="493.172" xlink:href="#DejaVuSans-2c"/></g><g transform="matrix(.1 0 0 -.1 105.333 65.424)"><use xlink:href="#DejaVuSans-55"/><use x="73.193" xlink:href="#DejaVuSans-53"/></g></g></g></g><path d="M126 194.4h379" fill="none" stroke="#000" stroke-linecap="square" stroke-width=".8" id="patch_7"/><g transform="matrix(.12 0 0 -.12 175.595 26.4)" id="text_11"><defs><path d="M603 3500h575V0H603v3500zm0 1363h575v-729H603v729z" id="DejaVuSans-69" transform="scale(.01563)"/><path d="M3809 666v1253H2778v519h1656V434q-365-259-806-392-440-133-940-133-1094 0-1712 639-617 640-617 1780 0 1144 617 1783 618 639 1712 639 456 0 867-113 411-112 758-331v-672q-350 297-744 447t-828 150q-857 0-1287-478-429-478-429-1425 0-944 429-1422 430-478 1287-478 334 0 596 58 263 58 472 180z" id="DejaVuSans-47" transform="scale(.01563)"/><path d="M1259 4147V519h763q966 0 1414 437 448 438 448 1382 0 937-448 1373t-1414 436h-763zm-631 519h1297q1356 0 1990-564 635-564 635-1764 0-1207-638-1773Q3275 0 1925 0H628v4666z" id="DejaVuSans-44" transform="scale(.01563)"/><path d="M3513 2113V0h-575v2094q0 497-194 743-194 247-581 247-466 0-735-297-269-296-269-809V0H581v3500h578v-544q207 316 486 472 280 156 646 156 603 0 912-373 310-373 310-1098z" id="DejaVuSans-6e" transform="scale(.01563)"/><path d="M2906 2969v1894h575V0h-575v525q-181-312-458-464-276-152-664-152-634 0-1033 506-398 507-398 1332t398 1331q399 506 1033 506 388 0 664-152 277-151 458-463zM947 1747q0-634 261-995t717-361q456 0 718 361 263 361 263 995t-263 995q-262 361-718 361t-717-361q-261-361-261-995z" id="DejaVuSans-64" transform="scale(.01563)"/><path d="M2059-325q-243-625-475-815-231-191-618-191H506v481h338q237 0 368 113 132 112 291 531l103 262L191 3500h609L1894 763l1094 2737h609L2059-325z" id="DejaVuSans-79" transform="scale(.01563)"/></defs><use xlink:href="#DejaVuSans-50"/><use x="56.678" xlink:href="#DejaVuSans-65"/><use x="118.201" xlink:href="#DejaVuSans-72"/><use x="159.314" xlink:href="#DejaVuSans-20"/><use x="191.102" xlink:href="#DejaVuSans-63"/><use x="246.082" xlink:href="#DejaVuSans-61"/><use x="307.361" xlink:href="#DejaVuSans-70"/><use x="370.838" xlink:href="#DejaVuSans-69"/><use x="398.621" xlink:href="#DejaVuSans-74"/><use x="437.83" xlink:href="#DejaVuSans-61"/><use x="499.109" xlink:href="#DejaVuSans-20"/><use x="530.896" xlink:href="#DejaVuSans-47"/><use x="608.387" xlink:href="#DejaVuSans-44"/><use x="685.389" xlink:href="#DejaVuSans-50"/><use x="745.691" xlink:href="#DejaVuSans-20"/><use x="777.479" xlink:href="#DejaVuSans-67"/><use x="840.955" xlink:href="#DejaVuSans-61"/><use x="902.234" xlink:href="#DejaVuSans-69"/><use x="930.018" xlink:href="#DejaVuSans-6e"/><use x="993.396" xlink:href="#DejaVuSans-20"/><use x="1025.184" xlink:href="#DejaVuSans-66"/><use x="1060.389" xlink:href="#DejaVuSans-6f"/><use x="1121.57" xlink:href="#DejaVuSans-72"/><use x="1162.684" xlink:href="#DejaVuSans-20"/><use x="1194.471" xlink:href="#DejaVuSans-64"/><use x="1257.947" xlink:href="#DejaVuSans-6f"/><use x="1319.129" xlink:href="#DejaVuSans-75"/><use x="1382.508" xlink:href="#DejaVuSans-62"/><use x="1445.984" xlink:href="#DejaVuSans-6c"/><use x="1473.768" xlink:href="#DejaVuSans-69"/><use x="1501.551" xlink:href="#DejaVuSans-6e"/><use x="1564.93" xlink:href="#DejaVuSans-67"/><use x="1628.406" xlink:href="#DejaVuSans-20"/><use x="1660.193" xlink:href="#DejaVuSans-6f"/><use x="1721.375" xlink:href="#DejaVuSans-66"/><use x="1756.58" xlink:href="#DejaVuSans-20"/><use x="1788.367" xlink:href="#DejaVuSans-63"/><use x="1843.348" xlink:href="#DejaVuSans-69"/><use x="1871.131" xlink:href="#DejaVuSans-74"/><use x="1910.34" xlink:href="#DejaVuSans-79"/><use x="1969.52" xlink:href="#DejaVuSans-20"/><use x="2001.307" xlink:href="#DejaVuSans-70"/><use x="2064.783" xlink:href="#DejaVuSans-6f"/><use x="2125.965" xlink:href="#DejaVuSans-70"/><use x="2189.441" xlink:href="#DejaVuSans-75"/><use x="2252.82" xlink:href="#DejaVuSans-6c"/><use x="2280.604" xlink:href="#DejaVuSans-61"/><use x="2341.883" xlink:href="#DejaVuSans-74"/><use x="2381.092" xlink:href="#DejaVuSans-69"/><use x="2408.875" xlink:href="#DejaVuSans-6f"/><use x="2470.057" xlink:href="#DejaVuSans-6e"/></g></g></g><defs><clipPath id="p1bb9119480"><path d="M126 32.4h403.2v162H126z"/></clipPath></defs></svg>