<svg height="288" viewBox="0 0 504 216" width="672" xmlns="http://www.w3.org/2000/svg" xmlns:xlink="http://www.w3.org/1999/xlink"><defs><style>*{stroke-linecap:butt;stroke-linejoin:round}</style></defs><g id="figure_1"><path d="M0 216h504V0H0z" fill="#fff" id="patch_1"/><g id="axes_1"><path d="M50.4 194.4h403.2v-162H50.4z" fill="#fff" id="patch_2"/><g id="matplotlib.axis_1"><g id="xtick_1"><g id="line2d_1"><defs><path d="M0 0v3.5" id="m5f680ade07" stroke="#000" stroke-width=".8"/></defs><use x="68.727" xlink:href="#m5f680ade07" y="194.4" stroke="#000" stroke-width=".8"/></g><g transform="matrix(.1 0 0 -.1 56.002 208.998)" id="text_1"><defs><path d="M1228 531h2203V0H469v531q359 372 979 998 621 627 780 809 303 340 423 576 121 236 121 464 0 372-261 606-261 235-680 235-297 0-627-103-329-103-704-313v638q381 153 712 231 332 78 607 78 725 0 1156-363 431-362 431-968 0-288-108-546-107-257-392-607-78-91-497-524-418-433-1181-1211z" id="DejaVuSans-32" transform="scale(.01563)"/><path d="M2034 4250q-487 0-733-480-245-479-245-1442 0-959 245-1439 246-480 733-480 491 0 736 480 246 480 246 1439 0 963-246 1442-245 480-736 480zm0 500q785 0 1199-621 414-620 414-1801 0-1178-414-1799Q2819-91 2034-91q-784 0-1198 620-414 621-414 1799 0 1181 414 1801 414 621 1198 621z" id="DejaVuSans-30" transform="scale(.01563)"/><path d="M794 531h1031v3560L703 3866v575l1116 225h631V531h1031V0H794v531z" id="DejaVuSans-31" transform="scale(.01563)"/></defs><use xlink:href="#DejaVuSans-32"/><use x="63.623" xlink:href="#DejaVuSans-30"/><use x="127.246" xlink:href="#DejaVuSans-31"/><use x="190.869" xlink:href="#DejaVuSans-30"/></g></g><g id="xtick_2"><use x="114.545" xlink:href="#m5f680ade07" y="194.4" stroke="#000" stroke-width=".8" id="line2d_2"/><g transform="matrix(.1 0 0 -.1 101.82 208.998)" id="text_2"><defs><path d="M691 4666h2478v-532H1269V2991q137 47 274 70 138 23 276 23 781 0 1237-428 457-428 457-1159 0-753-469-1171Q2575-91 1722-91q-294 0-599 50Q819 9 494 109v635q281-153 581-228t634-75q541 0 856 284 316 284 316 772 0 487-316 771-315 285-856 285-253 0-505-56-251-56-513-175v2344z" id="DejaVuSans-35" transform="scale(.01563)"/></defs><use xlink:href="#DejaVuSans-32"/><use x="63.623" xlink:href="#DejaVuSans-30"/><use x="127.246" xlink:href="#DejaVuSans-31"/><use x="190.869" xlink:href="#DejaVuSans-35"/></g></g><g id="xtick_3"><use x="160.364" xlink:href="#m5f680ade07" y="194.4" stroke="#000" stroke-width=".8" id="line2d_3"/><g transform="matrix(.1 0 0 -.1 147.639 208.998)" id="text_3"><use xlink:href="#DejaVuSans-32"/><use x="63.623" xlink:href="#DejaVuSans-30"/><use x="127.246" xlink:href="#DejaVuSans-32"/><use x="190.869" xlink:href="#DejaVuSans-30"/></g></g><g id="xtick_4"><use x="206.182" xlink:href="#m5f680ade07" y="194.4" stroke="#000" stroke-width=".8" id="line2d_4"/><g transform="matrix(.1 0 0 -.1 193.457 208.998)" id="text_4"><use xlink:href="#DejaVuSans-32"/><use x="63.623" xlink:href="#DejaVuSans-30"/><use x="127.246" xlink:href="#DejaVuSans-32"/><use x="190.869" xlink:href="#DejaVuSans-35"/></g></g><g id="xtick_5"><use x="252" xlink:href="#m5f680ade07" y="194.4" stroke="#000" stroke-width=".8" id="line2d_5"/><g transform="matrix(.1 0 0 -.1 239.275 208.998)" id="text_5"><defs><path d="M2597 2516q453-97 707-404 255-306 255-756 0-690-475-1069Q2609-91 1734-91q-293 0-604 58T488 141v609q262-153 574-231 313-78 654-78 593 0 904 234t311 681q0 413-289 645-289 233-804 233h-544v519h569q465 0 712 186t247 536q0 359-255 551-254 193-729 193-260 0-557-57-297-56-653-174v562q360 100 674 150t592 50q719 0 1137-327 419-326 419-882 0-388-222-655t-631-370z" id="DejaVuSans-33" transform="scale(.01563)"/></defs><use xlink:href="#DejaVuSans-32"/><use x="63.623" xlink:href="#DejaVuSans-30"/><use x="127.246" xlink:href="#DejaVuSans-33"/><use x="190.869" xlink:href="#DejaVuSans-30"/></g></g><g id="xtick_6"><use x="297.818" xlink:href="#m5f680ade07" y="194.4" stroke="#000" stroke-width=".8" id="line2d_6"/><g transform="matrix(.1 0 0 -.1 285.093 208.998)" id="text_6"><use xlink:href="#DejaVuSans-32"/><use x="63.623" xlink:href="#DejaVuSans-30"/><use x="127.246" xlink:href="#DejaVuSans-33"/><use x="190.869" xlink:href="#DejaVuSans-35"/></g></g><g id="xtick_7"><use x="343.636" xlink:href="#m5f680ade07" y="194.4" stroke="#000" stroke-width=".8" id="line2d_7"/><g transform="matrix(.1 0 0 -.1 330.911 208.998)" id="text_7"><defs><path d="M2419 4116L825 1625h1594v2491zm-166 550h794V1625h666v-525h-666V0h-628v1100H313v609l1940 2957z" id="DejaVuSans-34" transform="scale(.01563)"/></defs><use xlink:href="#DejaVuSans-32"/><use x="63.623" xlink:href="#DejaVuSans-30"/><use x="127.246" xlink:href="#DejaVuSans-34"/><use x="190.869" xlink:href="#DejaVuSans-30"/></g></g><g id="xtick_8"><use x="389.455" xlink:href="#m5f680ade07" y="194.4" stroke="#000" stroke-width=".8" id="line2d_8"/><g transform="matrix(.1 0 0 -.1 376.73 208.998)" id="text_8"><use xlink:href="#DejaVuSans-32"/><use x="63.623" xlink:href="#DejaVuSans-30"/><use x="127.246" xlink:href="#DejaVuSans-34"/><use x="190.869" xlink:href="#DejaVuSans-35"/></g></g><g id="xtick_9"><use x="435.273" xlink:href="#m5f680ade07" y="194.4" stroke="#000" stroke-width=".8" id="line2d_9"/><g transform="matrix(.1 0 0 -.1 422.548 208.998)" id="text_9"><use xlink:href="#DejaVuSans-32"/><use x="63.623" xlink:href="#DejaVuSans-30"/><use x="127.246" xlink:href="#DejaVuSans-35"/><use x="190.869" xlink:href="#DejaVuSans-30"/></g></g></g><g id="matplotlib.axis_2"><g id="ytick_1"><g id="line2d_10"><defs><path d="M0 0h-3.5" id="m456b1cac61" stroke="#000" stroke-width=".8"/></defs><use x="50.4" xlink:href="#m456b1cac61" y="194.4" stroke="#000" stroke-width=".8"/></g><g transform="matrix(.1 0 0 -.1 24.59 198.2)" id="text_10"><defs><path d="M628 4666h2950v-532H1259V2753h2222v-531H1259V531h2375V0H628v4666z" id="DejaVuSans-45" transform="scale(.01563)"/><path d="M628 4666h631V325q0-844-320-1225T-91-1281h-240v531h197q418 0 590 235 172 234 172 840v4341z" id="DejaVuSans-4a" transform="scale(.01563)"/></defs><use xlink:href="#DejaVuSans-30"/><use x="63.623" xlink:href="#DejaVuSans-20"/><use x="95.41" xlink:href="#DejaVuSans-45"/><use x="158.594" xlink:href="#DejaVuSans-4a"/></g></g><g id="ytick_2"><use x="50.4" xlink:href="#m456b1cac61" y="160.295" stroke="#000" stroke-width=".8" id="line2d_11"/><g transform="matrix(.1 0 0 -.1 11.866 164.094)" id="text_11"><use xlink:href="#DejaVuSans-32"/><use x="63.623" xlink:href="#DejaVuSans-30"/><use x="127.246" xlink:href="#DejaVuSans-30"/><use x="190.869" xlink:href="#DejaVuSans-20"/><use x="222.656" xlink:href="#DejaVuSans-45"/><use x="285.84" xlink:href="#DejaVuSans-4a"/></g></g><g id="ytick_3"><use x="50.4" xlink:href="#m456b1cac61" y="126.189" stroke="#000" stroke-width=".8" id="line2d_12"/><g transform="matrix(.1 0 0 -.1 11.866 129.989)" id="text_12"><use xlink:href="#DejaVuSans-34"/><use x="63.623" xlink:href="#DejaVuSans-30"/><use x="127.246" xlink:href="#DejaVuSans-30"/><use x="190.869" xlink:href="#DejaVuSans-20"/><use x="222.656" xlink:href="#DejaVuSans-45"/><use x="285.84" xlink:href="#DejaVuSans-4a"/></g></g><g id="ytick_4"><use x="50.4" xlink:href="#m456b1cac61" y="92.084" stroke="#000" stroke-width=".8" id="line2d_13"/><g transform="matrix(.1 0 0 -.1 11.866 95.883)" id="text_13"><defs><path d="M2113 2584q-425 0-674-291-248-290-248-796 0-503 248-796 249-292 674-292t673 292q248 293 248 796 0 506-248 796-248 291-673 291zm1253 1979v-575q-238 112-480 171-242 60-480 60-625 0-955-422-329-422-376-1275 184 272 462 417 279 145 613 145 703 0 1111-427 408-426 408-1160 0-719-425-1154Q2819-91 2113-91q-810 0-1238 620-428 621-428 1799 0 1106 525 1764t1409 658q238 0 480-47t505-140z" id="DejaVuSans-36" transform="scale(.01563)"/></defs><use xlink:href="#DejaVuSans-36"/><use x="63.623" xlink:href="#DejaVuSans-30"/><use x="127.246" xlink:href="#DejaVuSans-30"/><use x="190.869" xlink:href="#DejaVuSans-20"/><use x="222.656" xlink:href="#DejaVuSans-45"/><use x="285.84" xlink:href="#DejaVuSans-4a"/></g></g><g id="ytick_5"><use x="50.4" xlink:href="#m456b1cac61" y="57.979" stroke="#000" stroke-width=".8" id="line2d_14"/><g transform="matrix(.1 0 0 -.1 11.866 61.778)" id="text_14"><defs><path d="M2034 2216q-450 0-708-241-257-241-257-662 0-422 257-663 258-241 708-241t709 242q260 243 260 662 0 421-258 662-257 241-711 241zm-631 268q-406 100-633 378-226 279-226 679 0 559 398 884 399 325 1092 325 697 0 1094-325t397-884q0-400-227-679-226-278-629-378 456-106 710-416 255-309 255-755 0-679-414-1042Q2806-91 2034-91q-771 0-1186 362-414 363-414 1042 0 446 256 755 257 310 713 416zm-231 997q0-362 226-565 227-203 636-203 407 0 636 203 230 203 230 565 0 363-230 566-229 203-636 203-409 0-636-203-226-203-226-566z" id="DejaVuSans-38" transform="scale(.01563)"/></defs><use xlink:href="#DejaVuSans-38"/><use x="63.623" xlink:href="#DejaVuSans-30"/><use x="127.246" xlink:href="#DejaVuSans-30"/><use x="190.869" xlink:href="#DejaVuSans-20"/><use x="222.656" xlink:href="#DejaVuSans-45"/><use x="285.84" xlink:href="#DejaVuSans-4a"/></g></g></g><path clip-path="url(#p2a759ce303)" d="M68.727 102.742l91.637-16.626L252 74.145l91.636-15.296 91.637-19.747" fill="none" stroke="#333" stroke-linecap="square" stroke-width="1.5" id="line2d_15"/><path d="M50.4 194.4v-162" fill="none" stroke="#000" stroke-linecap="square" stroke-width=".8" id="patch_3"/><path d="M50.4 194.4h403.2" fill="none" stroke="#000" stroke-linecap="square" stroke-width=".8" id="patch_4"/><g transform="matrix(.12 0 0 -.12 142.742 26.4)" id="text_15"><defs><path d="M3513 3500L2247 1797 3578 0h-678L1881 1375 863 0H184l1360 1831L300 3500h678l928-1247 928 1247h679z" id="DejaVuSans-78" transform="scale(.01563)"/><path d="M1159 525v-1856H581v4831h578v-531q182 312 458 463 277 152 661 152 638 0 1036-506 399-506 399-1331T3314 415Q2916-91 2278-91q-384 0-661 152-276 152-458 464zm1957 1222q0 634-261 995t-717 361q-457 0-718-361t-261-995q0-634 261-995t718-361q456 0 717 361t261 995z" id="DejaVuSans-70" transform="scale(.01563)"/><path d="M3597 1894v-281H953q38-594 358-905t892-311q331 0 642 81t618 244V178Q3153 47 2828-22t-659-69q-838 0-1327 487-489 488-489 1320 0 859 464 1363 464 505 1252 505 706 0 1117-455 411-454 411-1235zm-575 169q-6 471-264 752-258 282-683 282-481 0-770-272t-333-766l2050 4z" id="DejaVuSans-65" transform="scale(.01563)"/><path d="M3122 3366v-538q-244 135-489 202t-495 67q-560 0-870-355-309-354-309-995t309-996q310-354 870-354 250 0 495 67t489 202V134Q2881 22 2623-34q-257-57-548-57-791 0-1257 497-465 497-465 1341 0 856 470 1346 471 491 1290 491 265 0 518-55 253-54 491-163z" id="DejaVuSans-63" transform="scale(.01563)"/><path d="M1172 4494v-994h1184v-447H1172V1153q0-428 117-550t477-122h590V0h-590q-666 0-919 248-253 249-253 905v1900H172v447h422v994h578z" id="DejaVuSans-74" transform="scale(.01563)"/><path d="M2906 2969v1894h575V0h-575v525q-181-312-458-464-276-152-664-152-634 0-1033 506-398 507-398 1332t398 1331q399 506 1033 506 388 0 664-152 277-151 458-463zM947 1747q0-634 261-995t717-361q456 0 718 361 263 361 263 995t-263 995q-262 361-718 361t-717-361q-261-361-261-995z" id="DejaVuSans-64" transform="scale(.01563)"/><path d="M3809 666v1253H2778v519h1656V434q-365-259-806-392-440-133-940-133-1094 0-1712 639-617 640-617 1780 0 1144 617 1783 618 639 1712 639 456 0 867-113 411-112 758-331v-672q-350 297-744 447t-828 150q-857 0-1287-478-429-478-429-1425 0-944 429-1422 430-478 1287-478 334 0 596 58 263 58 472 180z" id="DejaVuSans-47" transform="scale(.01563)"/><path d="M2631 2963q-97 56-211 82-114 27-251 27-488 0-749-317t-261-911V0H581v3500h578v-544q182 319 472 473 291 155 707 155 59 0 131-8 72-7 159-23l3-590z" id="DejaVuSans-72" transform="scale(.01563)"/><path d="M1959 3097q-462 0-731-361t-269-989q0-628 267-989 268-361 733-361 460 0 728 362 269 363 269 988 0 622-269 986-268 364-728 364zm0 487q750 0 1178-488 429-487 429-1349 0-859-429-1349Q2709-91 1959-91q-753 0-1180 489-426 490-426 1349 0 862 426 1349 427 488 1180 488z" id="DejaVuSans-6f" transform="scale(.01563)"/><path d="M269 3500h575l719-2731 715 2731h678l719-2731 716 2731h575L4050 0h-678l-753 2869L1863 0h-679L269 3500z" id="DejaVuSans-77" transform="scale(.01563)"/><path d="M3513 2113V0h-575v2094q0 497-194 743-194 247-581 247-466 0-735-297-269-296-269-809V0H581v4863h578V2956q207 316 486 472 280 156 646 156 603 0 912-373 310-373 310-1098z" id="DejaVuSans-68" transform="scale(.01563)"/><path d="M603 3500h575V0H603v3500zm0 1363h575v-729H603v729z" id="DejaVuSans-69" transform="scale(.01563)"/><path d="M3513 2113V0h-575v2094q0 497-194 743-194 247-581 247-466 0-735-297-269-296-269-809V0H581v3500h578v-544q207 316 486 472 280 156 646 156 603 0 912-373 310-373 310-1098z" id="DejaVuSans-6e" transform="scale(.01563)"/><path d="M2906 1791q0 625-258 968-257 344-723 344-462 0-720-344-258-343-258-968 0-622 258-966t720-344q466 0 723 344 258 344 258 966zm575-1357q0-893-397-1329-396-436-1215-436-303 0-572 45t-522 139v559q253-137 500-202 247-66 503-66 566 0 847 295t281 892v285q-178-310-456-463T1784 0Q1141 0 747 490 353 981 353 1791q0 812 394 1302 394 491 1037 491 388 0 666-153t456-462v531h575V434z" id="DejaVuSans-67" transform="scale(.01563)"/><path d="M2059-325q-243-625-475-815-231-191-618-191H506v481h338q237 0 368 113 132 112 291 531l103 262L191 3500h609L1894 763l1094 2737h609L2059-325z" id="DejaVuSans-79" transform="scale(.01563)"/><path d="M1259 4147V519h763q966 0 1414 437 448 438 448 1382 0 937-448 1373t-1414 436h-763zm-631 519h1297q1356 0 1990-564 635-564 635-1764 0-1207-638-1773Q3275 0 1925 0H628v4666z" id="DejaVuSans-44" transform="scale(.01563)"/><path d="M3328 2828q216 388 516 572t706 184q547 0 844-383 297-382 297-1088V0h-578v2094q0 503-179 746-178 244-543 244-447 0-707-297-259-296-259-809V0h-578v2094q0 506-178 748t-550 242q-441 0-701-298-259-298-259-808V0H581v3500h578v-544q197 322 472 475t653 153q382 0 649-194 267-193 395-562z" id="DejaVuSans-6d" transform="scale(.01563)"/><path d="M2194 1759q-697 0-966-159t-269-544q0-306 202-486 202-179 548-179 479 0 768 339t289 901v128h-572zm1147 238V0h-575v531q-197-318-491-470T1556-91q-537 0-855 302-317 302-317 808 0 590 395 890 396 300 1180 300h807v57q0 397-261 614t-733 217q-300 0-585-72-284-72-546-216v532q315 122 612 182 297 61 578 61 760 0 1135-394 375-393 375-1193z" id="DejaVuSans-61" transform="scale(.01563)"/></defs><use xlink:href="#DejaVuSans-45"/><use x="63.184" xlink:href="#DejaVuSans-78"/><use x="122.363" xlink:href="#DejaVuSans-70"/><use x="185.84" xlink:href="#DejaVuSans-65"/><use x="247.363" xlink:href="#DejaVuSans-63"/><use x="302.344" xlink:href="#DejaVuSans-74"/><use x="341.553" xlink:href="#DejaVuSans-65"/><use x="403.076" xlink:href="#DejaVuSans-64"/><use x="466.553" xlink:href="#DejaVuSans-20"/><use x="498.34" xlink:href="#DejaVuSans-47"/><use x="575.83" xlink:href="#DejaVuSans-72"/><use x="614.693" xlink:href="#DejaVuSans-6f"/><use x="675.875" xlink:href="#DejaVuSans-77"/><use x="757.662" xlink:href="#DejaVuSans-74"/><use x="796.871" xlink:href="#DejaVuSans-68"/><use x="860.25" xlink:href="#DejaVuSans-20"/><use x="892.037" xlink:href="#DejaVuSans-69"/><use x="919.82" xlink:href="#DejaVuSans-6e"/><use x="983.199" xlink:href="#DejaVuSans-20"/><use x="1014.986" xlink:href="#DejaVuSans-45"/><use x="1078.17" xlink:href="#DejaVuSans-6e"/><use x="1141.549" xlink:href="#DejaVuSans-65"/><use x="1203.072" xlink:href="#DejaVuSans-72"/><use x="1242.436" xlink:href="#DejaVuSans-67"/><use x="1305.912" xlink:href="#DejaVuSans-79"/><use x="1365.092" xlink:href="#DejaVuSans-20"/><use x="1396.879" xlink:href="#DejaVuSans-44"/><use x="1473.881" xlink:href="#DejaVuSans-65"/><use x="1535.404" xlink:href="#DejaVuSans-6d"/><use x="1632.816" xlink:href="#DejaVuSans-61"/><use x="1694.096" xlink:href="#DejaVuSans-6e"/><use x="1757.475" xlink:href="#DejaVuSans-64"/></g></g></g><defs><clipPath id="p2a759ce303"><path d="M50.4 32.4h403.2v162H50.4z"/></clipPath></defs></svg>