<svg width="255mm" height="138mm" viewBox="0 0 255 138" xmlns:xlink="http://www.w3.org/1999/xlink" xmlns="http://www.w3.org/2000/svg"><defs><marker style="overflow:visible" id="d" refX="0" refY="0" orient="auto"><path transform="matrix(-.3 0 0 -.3 .69 0)" d="M8.719 4.034-2.207.016 8.719-4.002c-1.746 2.372-1.736 5.618 0 8.036z" style="fill:#636363;fill-opacity:1;fill-rule:evenodd;stroke:#636363;stroke-width:.625;stroke-linejoin:round;stroke-opacity:1"/></marker><marker style="overflow:visible" id="e" refX="0" refY="0" orient="auto"><path transform="matrix(-.3 0 0 -.3 .69 0)" d="M8.719 4.034-2.207.016 8.719-4.002c-1.746 2.372-1.736 5.618 0 8.036z" style="fill:#636363;fill-opacity:1;fill-rule:evenodd;stroke:#636363;stroke-width:.625;stroke-linejoin:round;stroke-opacity:1"/></marker><marker style="overflow:visible" id="f" refX="0" refY="0" orient="auto"><path transform="matrix(-.3 0 0 -.3 .69 0)" d="M8.719 4.034-2.207.016 8.719-4.002c-1.746 2.372-1.736 5.618 0 8.036z" style="fill:#636363;fill-opacity:1;fill-rule:evenodd;stroke:#636363;stroke-width:.625;stroke-linejoin:round;stroke-opacity:1"/></marker><marker style="overflow:visible" id="g" refX="0" refY="0" orient="auto"><path transform="matrix(-.3 0 0 -.3 .69 0)" d="M8.719 4.034-2.207.016 8.719-4.002c-1.746 2.372-1.736 5.618 0 8.036z" style="fill:#000;fill-opacity:1;fill-rule:evenodd;stroke:#000;stroke-width:.625;stroke-linejoin:round;stroke-opacity:1"/></marker><marker style="overflow:visible" id="h" refX="0" refY="0" orient="auto"><path transform="matrix(-.3 0 0 -.3 .69 0)" d="M8.719 4.034-2.207.016 8.719-4.002c-1.746 2.372-1.736 5.618 0 8.036z" style="fill:#000;fill-opacity:1;fill-rule:evenodd;stroke:#000;stroke-width:.625;stroke-linejoin:round;stroke-opacity:1"/></marker><linearGradient id="a"><stop style="stop-color:#262626;stop-opacity:1" offset="0"/><stop style="stop-color:#262626;stop-opacity:0" offset="1"/></linearGradient><linearGradient xlink:href="#a" id="c" gradientUnits="userSpaceOnUse" gradientTransform="translate(-299.044 -31.658)" x1="542.559" y1="126.52" x2="550.637" y2="126.52"/><path id="b" d="M307.975 28.31h88.371v110.86h-88.371z"/></defs><path style="fill:none;stroke:#000;stroke-width:.5;stroke-linecap:round;stroke-linejoin:round;stroke-miterlimit:4;stroke-dasharray:none;stroke-opacity:1" d="M222.39 113.481V46.246"/><text xml:space="preserve" style="font-style:normal;font-variant:normal;font-weight:700;font-stretch:normal;font-size:3.83142px;line-height:1.1;font-family:Arial;-inkscape-font-specification:'Arial, Bold';font-variant-ligatures:normal;font-variant-caps:normal;font-variant-numeric:normal;font-variant-east-asian:normal;text-align:end;letter-spacing:0;word-spacing:0;writing-mode:lr-tb;text-anchor:end;fill:#000;fill-opacity:1;stroke:none;stroke-width:1.00522" x="129.111" y="190.379" transform="rotate(-45) scale(.9948 1.00523)"><tspan x="129.111" y="190.379" style="font-style:normal;font-variant:normal;font-weight:700;font-stretch:normal;font-size:3.83142px;font-family:Arial;-inkscape-font-specification:'Arial, Bold';font-variant-ligatures:normal;font-variant-caps:normal;font-variant-numeric:normal;font-variant-east-asian:normal;stroke-width:1.00522"><tspan x="129.111" y="190.379" style="font-style:normal;font-variant:normal;font-weight:700;font-stretch:normal;font-size:3.83142px;font-family:Arial;-inkscape-font-specification:'Arial, Bold';font-variant-ligatures:normal;font-variant-caps:normal;font-variant-numeric:normal;font-variant-east-asian:normal;text-align:start;text-anchor:start;stroke-width:1.00522">loan fully repaid</tspan></tspan></text><circle style="fill:#000;fill-opacity:1;stroke:none;stroke-width:.500001;stroke-linecap:round;stroke-linejoin:round;stroke-miterlimit:4;stroke-dasharray:none;paint-order:fill markers stroke" cx="222.39" cy="45.996" r=".882"/><path style="fill:url(#c);fill-opacity:1;stroke:none;stroke-width:.499998;stroke-linecap:round;stroke-linejoin:round;stroke-miterlimit:4;stroke-dasharray:none;paint-order:fill markers stroke" d="M134.919 89.53h118.958v10.664H134.919z"/><text xml:space="preserve" style="font-style:normal;font-variant:normal;font-weight:700;font-stretch:normal;font-size:3.83142px;line-height:1.1;font-family:Arial;-inkscape-font-specification:'Arial, Bold';font-variant-ligatures:normal;font-variant-caps:normal;font-variant-numeric:normal;text-align:end;letter-spacing:0;word-spacing:0;writing-mode:lr-tb;text-anchor:end;fill:#fff;fill-opacity:1;stroke:none;stroke-width:1.00522;font-variant-east-asian:normal" x="34.078" y="93.531" transform="scale(.9948 1.00522)"><tspan x="137.156" y="93.531" style="text-align:start;text-anchor:start;stroke-width:1.00522;-inkscape-font-specification:'Arial, Bold';font-family:Arial;font-weight:700;font-style:normal;font-stretch:normal;font-variant:normal;font-size:3.83142006px;font-variant-ligatures:normal;font-variant-caps:normal;font-variant-numeric:normal;font-variant-east-asian:normal"><tspan x="137.156" y="93.531" style="font-style:normal;font-weight:700;font-size:3.83142006px;font-family:Arial;-inkscape-font-specification:'Arial, Bold';text-align:start;text-anchor:start;stroke-width:1.00522;font-stretch:normal;font-variant:normal;font-variant-ligatures:normal;font-variant-caps:normal;font-variant-numeric:normal;font-variant-east-asian:normal">construction complete, company is now recycling industrial </tspan></tspan><tspan x="145.065" y="97.746" style="text-align:start;text-anchor:start;stroke-width:1.00522;-inkscape-font-specification:'Arial, Bold';font-family:Arial;font-weight:700;font-style:normal;font-stretch:normal;font-variant:normal;font-size:3.83142006px;font-variant-ligatures:normal;font-variant-caps:normal;font-variant-numeric:normal;font-variant-east-asian:normal"><tspan x="145.065" y="97.746" style="font-style:normal;font-weight:700;font-size:3.83142006px;font-family:Arial;-inkscape-font-specification:'Arial, Bold';text-align:start;text-anchor:start;stroke-width:1.00522;font-stretch:normal;font-variant:normal;font-variant-ligatures:normal;font-variant-caps:normal;font-variant-numeric:normal;font-variant-east-asian:normal">waste heat which allows it to consume less energy</tspan></tspan></text><path style="fill:none;stroke:#636363;stroke-width:1.37748;stroke-linecap:butt;stroke-linejoin:miter;stroke-miterlimit:4;stroke-dasharray:none;stroke-opacity:1;marker-end:url(#d)" d="M83.027 80.633c0-21.307-19.84-30.004-49.542-24.01"/><path style="fill:none;stroke:#636363;stroke-width:1.37748;stroke-linecap:butt;stroke-linejoin:miter;stroke-miterlimit:4;stroke-dasharray:none;stroke-opacity:1;marker-end:url(#e)" d="M118.013 70.701c0-35.058-34.902-35.335-84.622-21.11"/><path style="fill:none;stroke:#636363;stroke-width:1.37748;stroke-linecap:butt;stroke-linejoin:miter;stroke-miterlimit:4;stroke-dasharray:none;stroke-opacity:1;marker-end:url(#f)" d="M47.294 92.25c0-11.83-2.91-22.52-14.09-27.658"/><path style="fill:#262626;fill-opacity:1;stroke:none;stroke-width:.499999;stroke-linecap:round;stroke-linejoin:round;stroke-miterlimit:4;stroke-dasharray:none;paint-order:fill markers stroke" d="M99.964 56.376h34.955V67.04H99.964zM65.009 67.04h34.955v10.664H65.009z"/><path style="fill:none;stroke:#000;stroke-width:.5;stroke-linecap:round;stroke-linejoin:round;stroke-miterlimit:4;stroke-dasharray:none;stroke-opacity:1" d="M30.304 113.481V46.246"/><path style="fill:#262626;fill-opacity:1;stroke:none;stroke-width:.499999;stroke-linecap:round;stroke-linejoin:round;stroke-miterlimit:4;stroke-dasharray:none;paint-order:fill markers stroke" d="M30.054 77.704h34.955v10.664H30.054z"/><text xml:space="preserve" style="font-style:normal;font-variant:normal;font-weight:700;font-stretch:normal;font-size:3.83142006px;line-height:1.1;font-family:Arial;-inkscape-font-specification:'Arial, Bold';font-variant-ligatures:normal;font-variant-caps:normal;font-variant-numeric:normal;text-align:end;letter-spacing:0;word-spacing:0;writing-mode:lr-tb;text-anchor:end;fill:#fff;fill-opacity:1;stroke:none;stroke-width:1.00522;font-variant-east-asian:normal" x="12.514" y="81.767" transform="scale(.9948 1.00522)"><tspan x="35.861" y="81.767" style="text-align:start;text-anchor:start;stroke-width:1.00522;-inkscape-font-specification:'Arial, Bold';font-family:Arial;font-weight:700;font-style:normal;font-stretch:normal;font-variant:normal;font-size:3.83142006px;font-variant-ligatures:normal;font-variant-caps:normal;font-variant-numeric:normal;font-variant-east-asian:normal"><tspan x="35.861" y="81.767" style="font-style:normal;font-weight:700;font-size:3.83142006px;font-family:Arial;-inkscape-font-specification:'Arial, Bold';text-align:start;text-anchor:start;stroke-width:1.00522;font-stretch:normal;font-variant:normal;font-variant-ligatures:normal;font-variant-caps:normal;font-variant-numeric:normal;font-variant-east-asian:normal" dx="0 0 0 0 0 0 0 0 0 0 0 0 0">pre-shutdown</tspan></tspan><tspan x="36.862" y="85.981" style="text-align:start;text-anchor:start;stroke-width:1.00522;-inkscape-font-specification:'Arial, Bold';font-family:Arial;font-weight:700;font-style:normal;font-stretch:normal;font-variant:normal;font-size:3.83142006px;font-variant-ligatures:normal;font-variant-caps:normal;font-variant-numeric:normal;font-variant-east-asian:normal"><tspan x="36.862" y="85.981" style="font-style:normal;font-weight:700;font-size:3.83142006px;font-family:Arial;-inkscape-font-specification:'Arial, Bold';text-align:start;text-anchor:start;stroke-width:1.00522;font-stretch:normal;font-variant:normal;font-variant-ligatures:normal;font-variant-caps:normal;font-variant-numeric:normal;font-variant-east-asian:normal">construction</tspan></tspan></text><path style="display:inline;fill:#737373;fill-opacity:1;stroke:none;stroke-width:1.90905" d="m64.88 106.86-3.063-2.975v.932H8.813v4.086h53.004v.932z"/><text xml:space="preserve" style="font-style:italic;font-variant:normal;font-weight:400;font-stretch:normal;font-size:3.9468px;line-height:1.1;font-family:'MV Boli';-inkscape-font-specification:'MV Boli Italic';font-variant-ligatures:normal;font-variant-caps:normal;font-variant-numeric:normal;font-feature-settings:normal;text-align:end;letter-spacing:.444132px;word-spacing:0;writing-mode:lr-tb;text-anchor:end;fill:#fff;fill-opacity:1;stroke:none;stroke-width:.975832" x="10.805" y="107.634" transform="scale(.9948 1.00522)"><tspan x="10.805" y="107.634" style="stroke-width:.975832"><tspan x="10.805" y="107.634" style="font-style:normal;font-weight:700;font-size:3.71431px;font-family:Arial;-inkscape-font-specification:'Arial Bold';text-align:start;text-anchor:start;stroke-width:.975832">COMPANY PRODUCTION</tspan></tspan></text><path style="fill:none;stroke:#000;stroke-width:1.37748;stroke-linecap:butt;stroke-linejoin:miter;stroke-miterlimit:4;stroke-dasharray:none;stroke-opacity:1;marker-end:url(#g)" d="M8.249 113.209H228.85"/><path style="fill:none;stroke:#000;stroke-width:1.37748;stroke-linecap:butt;stroke-linejoin:miter;stroke-miterlimit:4;stroke-dasharray:none;stroke-opacity:1;marker-end:url(#h)" d="M8.307 113.358V47.047"/><text xml:space="preserve" style="font-style:normal;font-variant:normal;font-weight:700;font-stretch:normal;font-size:3.83142px;line-height:1.1;font-family:Arial;-inkscape-font-specification:'Arial, Bold';font-variant-ligatures:normal;font-variant-caps:normal;font-variant-numeric:normal;text-align:end;letter-spacing:0;word-spacing:0;writing-mode:lr-tb;text-anchor:end;fill:#000;fill-opacity:1;stroke:none;stroke-width:1.00522;font-variant-east-asian:normal" x="-42.95" y="9.176" transform="matrix(0 -.9948 1.00522 0 0 0)"><tspan x="-42.95" y="9.176" style="stroke-width:1.00522;-inkscape-font-specification:'Arial, Bold';font-family:Arial;font-weight:700;font-style:normal;font-stretch:normal;font-variant:normal;font-size:3.83142006px;font-variant-ligatures:normal;font-variant-caps:normal;font-variant-numeric:normal;font-variant-east-asian:normal"><tspan x="-42.95" y="9.176" style="font-style:normal;font-weight:700;font-size:3.83142006px;font-family:Arial;-inkscape-font-specification:'Arial, Bold';text-align:start;text-anchor:start;stroke-width:1.00522;font-stretch:normal;font-variant:normal;font-variant-ligatures:normal;font-variant-caps:normal;font-variant-numeric:normal;font-variant-east-asian:normal">money axis</tspan></tspan></text><circle style="fill:#000;fill-opacity:1;stroke:none;stroke-width:.499999;stroke-linecap:round;stroke-linejoin:round;stroke-miterlimit:4;stroke-dasharray:none;paint-order:fill markers stroke" cx="8.307" cy="113.209" r="1.907"/><text xml:space="preserve" style="font-style:italic;font-variant:normal;font-weight:400;font-stretch:normal;font-size:3.83142px;line-height:1.1;font-family:'MV Boli';-inkscape-font-specification:'MV Boli Italic';font-variant-ligatures:normal;font-variant-caps:normal;font-variant-numeric:normal;font-feature-settings:normal;text-align:end;letter-spacing:0;word-spacing:0;writing-mode:lr-tb;text-anchor:end;fill:#000;fill-opacity:1;stroke:none;stroke-width:1.00522" x="233.226" y="113.644" transform="scale(.9948 1.00522)"><tspan x="233.226" y="113.644" style="stroke-width:1.00522"><tspan x="233.226" y="113.644" style="font-style:normal;font-weight:700;font-size:3.60572px;font-family:Arial;-inkscape-font-specification:'Arial Bold';text-align:start;text-anchor:start;stroke-width:1.00522">time axis</tspan></tspan></text><text xml:space="preserve" style="font-style:normal;font-variant:normal;font-weight:700;font-stretch:normal;font-size:3.83142006px;line-height:1.1;font-family:Arial;-inkscape-font-specification:'Arial, Bold';font-variant-ligatures:normal;font-variant-caps:normal;font-variant-numeric:normal;text-align:end;letter-spacing:0;word-spacing:0;writing-mode:lr-tb;text-anchor:end;fill:#fff;fill-opacity:1;stroke:none;stroke-width:1.00522;font-variant-east-asian:normal" x="43.198" y="70.8" transform="scale(.9948 1.00522)"><tspan x="72.047" y="70.8" style="text-align:start;text-anchor:start;stroke-width:1.00522;-inkscape-font-specification:'Arial, Bold';font-family:Arial;font-weight:700;font-style:normal;font-stretch:normal;font-variant:normal;font-size:3.83142006px;font-variant-ligatures:normal;font-variant-caps:normal;font-variant-numeric:normal;font-variant-east-asian:normal"><tspan x="72.047" y="70.8" style="font-style:normal;font-weight:700;font-size:3.83142006px;font-family:Arial;-inkscape-font-specification:'Arial, Bold';text-align:start;text-anchor:start;stroke-width:1.00522;font-stretch:normal;font-variant:normal;font-variant-ligatures:normal;font-variant-caps:normal;font-variant-numeric:normal;font-variant-east-asian:normal" dx="0 0 0 0 0 0 0 0 0 0 0 0 0">construction</tspan></tspan><tspan x="68.345" y="75.015" style="text-align:start;text-anchor:start;stroke-width:1.00522;-inkscape-font-specification:'Arial, Bold';font-family:Arial;font-weight:700;font-style:normal;font-stretch:normal;font-variant:normal;font-size:3.83142006px;font-variant-ligatures:normal;font-variant-caps:normal;font-variant-numeric:normal;font-variant-east-asian:normal"><tspan x="68.345" y="75.015" style="font-style:normal;font-weight:700;font-size:3.83142006px;font-family:Arial;-inkscape-font-specification:'Arial, Bold';text-align:start;text-anchor:start;stroke-width:1.00522;font-stretch:normal;font-variant:normal;font-variant-ligatures:normal;font-variant-caps:normal;font-variant-numeric:normal;font-variant-east-asian:normal">during shutdown</tspan></tspan></text><text xml:space="preserve" style="font-style:normal;font-variant:normal;font-weight:700;font-stretch:normal;font-size:3.83142006px;line-height:1.1;font-family:Arial;-inkscape-font-specification:'Arial, Bold';font-variant-ligatures:normal;font-variant-caps:normal;font-variant-numeric:normal;text-align:end;letter-spacing:0;word-spacing:0;writing-mode:lr-tb;text-anchor:end;fill:#fff;fill-opacity:1;stroke:none;stroke-width:1.00522;font-variant-east-asian:normal" x="79.789" y="60.55" transform="scale(.9948 1.00522)"><tspan x="105.136" y="60.55" style="text-align:start;text-anchor:start;stroke-width:1.00522;-inkscape-font-specification:'Arial, Bold';font-family:Arial;font-weight:700;font-style:normal;font-stretch:normal;font-variant:normal;font-size:3.83142006px;font-variant-ligatures:normal;font-variant-caps:normal;font-variant-numeric:normal;font-variant-east-asian:normal"><tspan x="105.136" y="60.55" style="font-style:normal;font-weight:700;font-size:3.83142006px;font-family:Arial;-inkscape-font-specification:'Arial, Bold';text-align:start;text-anchor:start;stroke-width:1.00522;font-stretch:normal;font-variant:normal;font-variant-ligatures:normal;font-variant-caps:normal;font-variant-numeric:normal;font-variant-east-asian:normal" dx="0 0 0 0 0 0 0 0 0 0 0 0 0 0">post-shutdown</tspan></tspan><tspan x="107.136" y="64.764" style="text-align:start;text-anchor:start;stroke-width:1.00522;-inkscape-font-specification:'Arial, Bold';font-family:Arial;font-weight:700;font-style:normal;font-stretch:normal;font-variant:normal;font-size:3.83142006px;font-variant-ligatures:normal;font-variant-caps:normal;font-variant-numeric:normal;font-variant-east-asian:normal"><tspan x="107.136" y="64.764" style="font-style:normal;font-weight:700;font-size:3.83142006px;font-family:Arial;-inkscape-font-specification:'Arial, Bold';text-align:start;text-anchor:start;stroke-width:1.00522;font-stretch:normal;font-variant:normal;font-variant-ligatures:normal;font-variant-caps:normal;font-variant-numeric:normal;font-variant-east-asian:normal">construction</tspan></tspan></text><path style="fill:none;stroke:#000;stroke-width:.5;stroke-linecap:round;stroke-linejoin:round;stroke-miterlimit:4;stroke-dasharray:none;stroke-opacity:1" d="M65.009 113.481V46.246M134.977 113.481V46.246"/><text xml:space="preserve" style="font-style:normal;font-variant:normal;font-weight:700;font-stretch:normal;font-size:3.83141989px;line-height:1.1;font-family:Arial;-inkscape-font-specification:'Arial, Bold';font-variant-ligatures:normal;font-variant-caps:normal;font-variant-numeric:normal;text-align:end;letter-spacing:0;word-spacing:0;writing-mode:lr-tb;text-anchor:end;fill:#000;fill-opacity:1;stroke:none;stroke-width:1.00522;font-variant-east-asian:normal" x="-8.084" y="54.606" transform="rotate(-45) scale(.9948 1.00523)"><tspan x="-8.084" y="54.606" style="stroke-width:1.00522;-inkscape-font-specification:'Arial, Bold';font-family:Arial;font-weight:700;font-style:normal;font-stretch:normal;font-variant:normal;font-size:3.83141989px;font-variant-ligatures:normal;font-variant-caps:normal;font-variant-numeric:normal;font-variant-east-asian:normal"><tspan x="-8.084" y="54.606" style="font-style:normal;font-weight:700;font-size:3.83141989px;font-family:Arial;-inkscape-font-specification:'Arial, Bold';text-align:start;text-anchor:start;stroke-width:1.00522;font-stretch:normal;font-variant:normal;font-variant-ligatures:normal;font-variant-caps:normal;font-variant-numeric:normal;font-variant-east-asian:normal">construction start date</tspan></tspan></text><text xml:space="preserve" style="font-style:normal;font-variant:normal;font-weight:700;font-stretch:normal;font-size:3.83141989px;line-height:1.1;font-family:Arial;-inkscape-font-specification:'Arial, Bold';font-variant-ligatures:normal;font-variant-caps:normal;font-variant-numeric:normal;text-align:end;letter-spacing:0;word-spacing:0;writing-mode:lr-tb;text-anchor:end;fill:#000;fill-opacity:1;stroke:none;stroke-width:1.00522;font-variant-east-asian:normal" x="66.978" y="128.89" transform="rotate(-45) scale(.9948 1.00523)"><tspan x="66.978" y="128.89" style="stroke-width:1.00522;-inkscape-font-specification:'Arial, Bold';font-family:Arial;font-weight:700;font-style:normal;font-stretch:normal;font-variant:normal;font-size:3.83141989px;font-variant-ligatures:normal;font-variant-caps:normal;font-variant-numeric:normal;font-variant-east-asian:normal"><tspan x="66.978" y="128.89" style="font-style:normal;font-weight:700;font-size:3.83141989px;font-family:Arial;-inkscape-font-specification:'Arial, Bold';text-align:start;text-anchor:start;stroke-width:1.00522;font-stretch:normal;font-variant:normal;font-variant-ligatures:normal;font-variant-caps:normal;font-variant-numeric:normal;font-variant-east-asian:normal">construction finish date</tspan></tspan></text><circle style="fill:#000;fill-opacity:1;stroke:none;stroke-width:.500001;stroke-linecap:round;stroke-linejoin:round;stroke-miterlimit:4;stroke-dasharray:none;paint-order:fill markers stroke" cx="30.304" cy="45.996" r=".882"/><circle style="fill:#000;fill-opacity:1;stroke:none;stroke-width:.500001;stroke-linecap:round;stroke-linejoin:round;stroke-miterlimit:4;stroke-dasharray:none;paint-order:fill markers stroke" cx="134.977" cy="45.996" r=".882"/><path style="display:inline;fill:#636363;fill-opacity:1;stroke:none;stroke-width:1.90905" d="m47.294 91.034-13.725 8.177h4.3v2.189H56.72V99.21h4.299z"/><text xml:space="preserve" style="font-style:italic;font-variant:normal;font-weight:400;font-stretch:normal;font-size:3.83142px;line-height:1.1;font-family:'MV Boli';-inkscape-font-specification:'MV Boli Italic';font-variant-ligatures:normal;font-variant-caps:normal;font-variant-numeric:normal;font-feature-settings:normal;text-align:end;letter-spacing:0;word-spacing:0;writing-mode:lr-tb;text-anchor:end;fill:#fff;fill-opacity:1;stroke:none;stroke-width:1.00522" x="32.724" y="98.229" transform="scale(.9948 1.00522)"><tspan x="42.496" y="98.229" style="text-align:start;text-anchor:start;stroke-width:1.00522"><tspan x="42.496" y="98.229" style="font-style:normal;font-weight:700;font-size:3.60572px;font-family:Arial;-inkscape-font-specification:'Arial Bold';text-align:start;text-anchor:start;stroke-width:1.00522">COST</tspan></tspan></text><path style="display:inline;fill:#636363;fill-opacity:1;stroke:none;stroke-width:1.90905" d="m83.137 80.103-13.725 8.178h4.3v12.771h18.852V88.281h4.298z"/><text xml:space="preserve" style="font-style:italic;font-variant:normal;font-weight:400;font-stretch:normal;font-size:3.83142px;line-height:1.1;font-family:'MV Boli';-inkscape-font-specification:'MV Boli Italic';font-variant-ligatures:normal;font-variant-caps:normal;font-variant-numeric:normal;font-feature-settings:normal;text-align:end;letter-spacing:0;word-spacing:0;writing-mode:lr-tb;text-anchor:end;fill:#fff;fill-opacity:1;stroke:none;stroke-width:1.00522" x="68.755" y="93.672" transform="scale(.9948 1.00522)"><tspan x="78.526" y="93.672" style="text-align:start;text-anchor:start;stroke-width:1.00522"><tspan x="78.526" y="93.672" style="font-style:normal;font-weight:700;font-size:3.60572px;font-family:Arial;-inkscape-font-specification:'Arial Bold';text-align:start;text-anchor:start;stroke-width:1.00522">COST</tspan></tspan></text><path style="display:inline;fill:#636363;fill-opacity:1;stroke:none;stroke-width:1.90905" d="m117.93 69.652-13.725 8.177h4.3v22.959h18.851V77.829h4.299z"/><text xml:space="preserve" style="font-style:italic;font-variant:normal;font-weight:400;font-stretch:normal;font-size:3.83142px;line-height:1.1;font-family:'MV Boli';-inkscape-font-specification:'MV Boli Italic';font-variant-ligatures:normal;font-variant-caps:normal;font-variant-numeric:normal;font-feature-settings:normal;text-align:end;letter-spacing:0;word-spacing:0;writing-mode:lr-tb;text-anchor:end;fill:#fff;fill-opacity:1;stroke:none;stroke-width:1.00522" x="103.729" y="88.408" transform="scale(.9948 1.00522)"><tspan x="113.5" y="88.408" style="text-align:start;text-anchor:start;stroke-width:1.00522"><tspan x="113.5" y="88.408" style="font-style:normal;font-weight:700;font-size:3.60572px;font-family:Arial;-inkscape-font-specification:'Arial Bold';text-align:start;text-anchor:start;stroke-width:1.00522">COST</tspan></tspan></text><text xml:space="preserve" style="font-style:italic;font-variant:normal;font-weight:400;font-stretch:normal;font-size:3.83142px;line-height:1.1;font-family:'MV Boli';-inkscape-font-specification:'MV Boli Italic';font-variant-ligatures:normal;font-variant-caps:normal;font-variant-numeric:normal;font-feature-settings:normal;text-align:end;letter-spacing:0;word-spacing:0;writing-mode:lr-tb;text-anchor:end;fill:#000;fill-opacity:1;stroke:none;stroke-width:1.00522" x="46.328" y="105.223" transform="scale(.9948 1.00522)"><tspan x="72.064" y="105.223" style="text-align:start;text-anchor:start;stroke-width:1.00522"><tspan x="72.064" y="105.223" style="font-style:normal;font-weight:700;font-size:3.60572px;font-family:Arial;-inkscape-font-specification:'Arial Bold';text-align:start;text-anchor:start;stroke-width:1.00522">loan pays for </tspan></tspan><tspan x="70.166" y="109.437" style="text-align:start;text-anchor:start;stroke-width:1.00522"><tspan x="70.166" y="109.437" style="font-style:normal;font-weight:700;font-size:3.60572px;font-family:Arial;-inkscape-font-specification:'Arial Bold';text-align:start;text-anchor:start;stroke-width:1.00522">lost production</tspan></tspan></text><text xml:space="preserve" style="font-style:normal;font-variant:normal;font-weight:700;font-stretch:normal;font-size:3.83142px;line-height:1.1;font-family:Arial;-inkscape-font-specification:'Arial, Bold';font-variant-ligatures:normal;font-variant-caps:normal;font-variant-numeric:normal;font-variant-east-asian:normal;text-align:end;letter-spacing:0;word-spacing:0;writing-mode:lr-tb;text-anchor:end;fill:#000;fill-opacity:1;stroke:none;stroke-width:1.00522" x="6.391" y="119.857" transform="scale(.9948 1.00522)"><tspan x="6.391" y="119.857" style="font-style:normal;font-variant:normal;font-weight:700;font-stretch:normal;font-size:3.83141986px;font-family:Arial;-inkscape-font-specification:'Arial, Bold';font-variant-ligatures:normal;font-variant-caps:normal;font-variant-numeric:normal;font-variant-east-asian:normal;stroke-width:1.00522"><tspan x="6.391" y="119.857" style="font-style:normal;font-variant:normal;font-weight:700;font-stretch:normal;font-size:3.83141986px;font-family:Arial;-inkscape-font-specification:'Arial, Bold';font-variant-ligatures:normal;font-variant-caps:normal;font-variant-numeric:normal;font-variant-east-asian:normal;text-align:start;text-anchor:start;stroke-width:1.00522">The loan pays for all construction costs as well as production-losses up </tspan></tspan><tspan x="6.391" y="124.071" style="font-style:normal;font-variant:normal;font-weight:700;font-stretch:normal;font-size:3.83141986px;font-family:Arial;-inkscape-font-specification:'Arial, Bold';font-variant-ligatures:normal;font-variant-caps:normal;font-variant-numeric:normal;font-variant-east-asian:normal;stroke-width:1.00522"><tspan x="6.391" y="124.071" style="font-style:normal;font-variant:normal;font-weight:700;font-stretch:normal;font-size:3.83141986px;font-family:Arial;-inkscape-font-specification:'Arial, Bold';font-variant-ligatures:normal;font-variant-caps:normal;font-variant-numeric:normal;font-variant-east-asian:normal;text-align:start;text-anchor:start;stroke-width:1.00522">front (prior to the start of construction) and is not due until the company </tspan></tspan><tspan x="6.391" y="128.286" style="font-style:normal;font-variant:normal;font-weight:700;font-stretch:normal;font-size:3.83141986px;font-family:Arial;-inkscape-font-specification:'Arial, Bold';font-variant-ligatures:normal;font-variant-caps:normal;font-variant-numeric:normal;font-variant-east-asian:normal;stroke-width:1.00522"><tspan x="6.391" y="128.286" style="font-style:normal;font-variant:normal;font-weight:700;font-stretch:normal;font-size:3.83141986px;font-family:Arial;-inkscape-font-specification:'Arial, Bold';font-variant-ligatures:normal;font-variant-caps:normal;font-variant-numeric:normal;font-variant-east-asian:normal;text-align:start;text-anchor:start;stroke-width:1.00522">starts saving money from the waste heat recycling equipment that was </tspan></tspan><tspan x="6.391" y="132.501" style="font-style:normal;font-variant:normal;font-weight:700;font-stretch:normal;font-size:3.83141986px;font-family:Arial;-inkscape-font-specification:'Arial, Bold';font-variant-ligatures:normal;font-variant-caps:normal;font-variant-numeric:normal;font-variant-east-asian:normal;stroke-width:1.00522"><tspan x="6.391" y="132.501" style="font-style:normal;font-variant:normal;font-weight:700;font-stretch:normal;font-size:3.83141986px;font-family:Arial;-inkscape-font-specification:'Arial, Bold';font-variant-ligatures:normal;font-variant-caps:normal;font-variant-numeric:normal;font-variant-east-asian:normal;text-align:start;text-anchor:start;stroke-width:1.00522">installed during construction.</tspan></tspan></text><text x="48.763" y="9.19" font-family="Calibri" font-size="10.583" font-weight="bold" stroke-width=".265" style="font-style:normal;font-variant:normal;font-weight:700;font-stretch:normal;font-size:10.583px;line-height:1.25;font-family:Calibri;-inkscape-font-specification:'Calibri, Bold';font-variant-ligatures:normal;font-variant-caps:normal;font-variant-numeric:normal;font-variant-east-asian:normal;fill:#000;fill-opacity:1;stroke-width:.26458" xml:space="preserve"><tspan x="48.763" y="9.19" style="font-style:normal;font-variant:normal;font-weight:700;font-stretch:normal;font-size:10.583px;font-family:Calibri;-inkscape-font-specification:'Calibri, Bold';font-variant-ligatures:normal;font-variant-caps:normal;font-variant-numeric:normal;font-variant-east-asian:normal;fill:#000;fill-opacity:1">Industrial Heat Loan Recovery Program</tspan></text><path style="display:inline;fill:#737373;fill-opacity:1;stroke:none;stroke-width:1.90905" d="m246.194 106.86-3.063-2.975v.932H100.07v4.086H243.13v.931z"/><text xml:space="preserve" style="font-style:italic;font-variant:normal;font-weight:400;font-stretch:normal;font-size:3.9468px;line-height:1.1;font-family:'MV Boli';-inkscape-font-specification:'MV Boli Italic';font-variant-ligatures:normal;font-variant-caps:normal;font-variant-numeric:normal;font-feature-settings:normal;text-align:end;letter-spacing:.444132px;word-spacing:0;writing-mode:lr-tb;text-anchor:end;fill:#fff;fill-opacity:1;stroke:none;stroke-width:.975832" x="147.411" y="107.634" transform="scale(.9948 1.00522)"><tspan x="147.411" y="107.634" style="stroke-width:.975832"><tspan x="147.411" y="107.634" style="font-style:normal;font-weight:700;font-size:3.71431px;font-family:Arial;-inkscape-font-specification:'Arial Bold';text-align:start;text-anchor:start;stroke-width:.975832">COMPANY PRODUCTION</tspan></tspan></text><path style="fill:none;stroke:#000;stroke-width:1.65547;stroke-linecap:round;stroke-linejoin:round;stroke-miterlimit:4;stroke-dasharray:none;stroke-opacity:1" d="M30.273 63.163V50.715"/><path style="display:inline;fill:#636363;fill-opacity:1;stroke:none;stroke-width:1.90905" d="m177.84 65.954 13.724-8.177h-4.299v-6.224h-18.852v6.224h-4.298z"/><path style="fill:none;stroke:#000;stroke-width:.5;stroke-linecap:round;stroke-linejoin:round;stroke-miterlimit:4;stroke-dasharray:none;stroke-opacity:1" d="M99.962 113.481V46.246"/><text xml:space="preserve" style="font-style:italic;font-variant:normal;font-weight:400;font-stretch:normal;font-size:3.83142px;line-height:1.1;font-family:'MV Boli';-inkscape-font-specification:'MV Boli Italic';font-variant-ligatures:normal;font-variant-caps:normal;font-variant-numeric:normal;font-feature-settings:normal;text-align:end;letter-spacing:0;word-spacing:0;writing-mode:lr-tb;text-anchor:end;fill:#fff;fill-opacity:1;stroke:none;stroke-width:1.00522" x="160.788" y="56.303" transform="scale(.9948 1.00522)"><tspan x="172.495" y="56.303" style="text-align:start;text-anchor:start;stroke-width:1.00522"><tspan x="172.495" y="56.303" style="font-style:normal;font-weight:700;font-size:3.60572px;font-family:Arial;-inkscape-font-specification:'Arial Bold';text-align:start;text-anchor:start;stroke-width:1.00522">REPAY </tspan></tspan><tspan x="173.267" y="60.517" style="text-align:start;text-anchor:start;stroke-width:1.00522"><tspan x="173.267" y="60.517" style="font-style:normal;font-weight:700;font-size:3.60572px;font-family:Arial;-inkscape-font-specification:'Arial Bold';text-align:start;text-anchor:start;stroke-width:1.00522">LOAN</tspan></tspan></text><path style="fill:#000;fill-opacity:1;stroke-width:.0467217" d="M144.094 135.655c-.263-.029-.106-.15.566-.439.368-.158.778-.343.91-.412.22-.115.285-.125.84-.133.477-.007.623-.024.716-.086.148-.099.308-.104.27-.01-.023.057.031.068.324.068.426 0 .66.04.64.109-.01.028-.195.137-.414.242a23.25 22.126 0 0 0-.836.428l-.437.237-1.222.005a35.45 35.45 0 0 1-1.357-.01zm1.252-.168c.013-.012-.184-.023-.439-.023-.269 0-.463.019-.463.045 0 .044.854.024.902-.022zm1.345.004c-.04-.036-.741-.055-.882-.024-.087.019.064.034.38.037.287.003.513-.003.502-.013zm-1.023-.168c.036-.056-.748-.053-.84.004-.05.03.07.043.37.041.243-.002.455-.021.47-.044zm1.327-.005c.033-.02-.178-.035-.467-.035-.369 0-.505.013-.456.045.083.052.833.044.923-.01zm-.949-.18c.054-.047-.156-.05-.608-.01-.178.017-.323.047-.323.068 0 .05.87-.004.931-.057zm1.272.007c.049-.03-.085-.045-.42-.045-.295 0-.49.017-.49.045 0 .06.814.06.91 0zm-.91-.18c0-.05-.792-.04-.845.011-.018.018.164.032.406.032.246 0 .439-.02.439-.043zm1.269-.002c.019-.03-.135-.046-.428-.046-.273 0-.458.018-.458.046 0 .026.175.045.428.045.236 0 .442-.02.458-.045zm-1.054-.137c.063-.025-.051-.038-.324-.036-.23 0-.432.02-.446.042-.033.05.644.046.77-.006zm1.042-.033a2.746 2.613 0 0 0-.407 0c-.112.01-.02.017.203.017.224 0 .316-.008.204-.017zm.156.83a2.598 2.473 0 0 0-.18-.042c-.167-.035-.166-.078.005-.175.108-.06.204-.07.449-.049.184.017.41.005.553-.028l.242-.055-.116-.162c-.144-.202-.15-.46-.016-.741l.098-.205-.11-.084a2.292 2.292 0 0 0-.858-.392c-.21-.051-.306-.09-.235-.096.111-.01.11-.012-.024-.04-.08-.017-.155-.018-.168-.003a.317.317 0 0 1-.107.057c-.143.05-.264.3-.3.615-.022.2-.047.278-.074.233-.055-.094.016-.555.106-.686a.484.484 0 0 0 .077-.147c.002-.023.031-.06.067-.083.043-.029.027-.033-.048-.012-.175.047-.78-.024-.74-.086.018-.029-.02-.02-.085.02-.144.091-.253.38-.215.572a.98.98 0 0 0 .145.308l.117.164h-.144c-.129 0-.158-.027-.26-.239-.098-.208-.107-.269-.068-.464.056-.283.14-.405.382-.557.19-.12.203-.121 1.04-.122.752 0 .884.011 1.152.1.557.185.732.34 1.134 1.004.18.296.232.426.232.58 0 .264-.092.35-.51.478-.19.057-.377.14-.416.183-.114.124-.887.23-1.126.154zm1.421-.567c.124-.032.234-.081.245-.11.012-.028-.057-.168-.152-.31-.318-.476-.532-.459-.57.046-.023.29.088.552.2.47.029-.021.154-.065.277-.096zm-.397-1.05c-.244-.2-1-.51-1-.412 0 .02.073.05.162.066.212.037.709.275.82.391.048.05.097.082.11.07.012-.012-.029-.064-.092-.116zm11.325 1.423c-.037-.022-.053-.173-.046-.444.012-.447-.04-2.253-.086-3.053a141.655 134.81 0 0 1-.078-1.733 79.963 79.963 0 0 0-.073-1.572 65.596 65.596 0 0 0-.188-2.097 7.361 7.005 0 0 1-.049-.364 28.133 28.133 0 0 0-.626-3.327c-.323-1.216-.81-2.02-1.398-2.313-.404-.202-.726-.263-1.352-.258-2.544-.003-5.61 1.393-6.31 2.792-.486.974.426 2.329 1.252 3.346.672.789.769.906.787.951.034.083.109.035.08-.052-.017-.052-.009-.09.02-.09.029 0 .052-.032.052-.07 0-.037-.043-.067-.096-.067-.053 0-.096-.021-.096-.046 0-.066.107-.056.223.021.055.037.113.054.13.038.052-.05.033-.187-.03-.212-.032-.013.014-.011.103.003.125.02.157.012.14-.037-.012-.035-.07-.07-.126-.079-.122-.017-.133-.065-.033-.144.092-.073.307-.023.346.08.016.044.07.128.118.189.05.062.077.145.06.193-.02.063-.003.084.069.084.053 0 .11.022.128.049.05.078.413-.002.567-.125.124-.1.145-.103.219-.04.123.107.153.033.038-.092-.09-.099-.109-.103-.18-.042-.09.078-.191.09-.191.023 0-.026.018-.046.04-.046.022 0 .065-.051.095-.114s.088-.114.13-.114c.086 0 .357-.265.357-.349 0-.03-.043-.068-.095-.084-.053-.016-.096-.058-.096-.093 0-.047-.039-.057-.144-.037-.111.021-.144.011-.144-.045 0-.076-.18-.193-.227-.148-.015.015-.025.099-.021.188.004.106-.024.186-.082.233-.07.057-.08.103-.05.23.027.117.02.163-.03.181-.116.042-.212-.022-.212-.142 0-.085-.032-.122-.121-.144-.131-.03-.246-.199-.262-.383-.018-.19-.005-.214.146-.274.122-.048.285-.243.285-.34 0-.027-.216-.004-.437.047-.093.021-.18-.005-.328-.098-.167-.105-.272-.132-.598-.152-.237-.016-.428-.052-.477-.091-.073-.058-.104-.055-.25.02-.144.074-.174.077-.212.02-.078-.118-.049-.155.257-.32.846-.458 1.716-.684 2.62-.684.746 0 1.37.117 2.107.394.397.149 1.255.723 1.598 1.07.318.32.732.878.928 1.252.488.929.673 2.368.442 3.446-.222 1.038-.677 1.836-1.48 2.594a4.913 4.913 0 0 1-1.8 1.084c-.963.324-2.216.368-3.184.114-.328-.087-.958-.331-.958-.372 0-.017.042-.056.095-.087.08-.047.153-.034.46.082.202.076.376.13.388.119.012-.012 0-.058-.024-.105-.089-.165-.153-.414-.182-.703a11.89 11.315 0 0 0-.05-.43 3.53 3.53 0 0 1 .029-1.039c.06-.3.058-.313-.047-.42a.606.606 0 0 0-.21-.14c-.169-.049-.316-.208-.316-.344 0-.07-.043-.23-.095-.358-.116-.279-.123-.49-.02-.597.1-.105.048-.195-.076-.132a.436.436 0 0 1-.158.045c-.08 0-.273-.151-.273-.214 0-.024-.053-.067-.117-.095-.105-.046-.113-.066-.072-.2.042-.14.032-.158-.183-.338-.153-.13-.232-.17-.242-.128-.03.124-.1.06-.252-.232-.127-.247-.149-.332-.13-.522.014-.137.004-.234-.026-.243-.03-.01-.005-.077.054-.157a.568.568 0 0 0 .106-.19c0-.026.064-.118.144-.203a.825.825 0 0 0 .143-.186c0-.016.036-.106.079-.199a1.74 1.74 0 0 0 .092-.23c.024-.11.05-.1.225.084.105.111.145.182.104.182-.038 0-.069.017-.069.038 0 .02-.064.038-.144.038-.078 0-.149.009-.156.019-.007.01-.062.105-.121.21-.109.191-.11.191-.011.241.134.069.121.177-.029.23-.088.033-.145.03-.191-.006-.052-.04-.066-.036-.066.022 0 .04.027.074.06.075.04 0 .036.015-.012.045-.064.04-.064.05 0 .09.061.039.06.045-.012.045-.07.001-.083.04-.076.218.006.166.012.182.027.068.023-.182.084-.189.176-.02.038.071.104.156.146.189.058.046.063.074.02.124-.046.052-.02.1.128.244.102.1.208.18.235.18.028 0-.004-.041-.07-.09-.11-.083-.113-.09-.022-.09.063-.001.1-.034.105-.093.004-.05-.013-.09-.038-.09-.024 0-.045-.034-.045-.075 0-.154.131.03.159.221.015.106.06.215.102.244.107.075.092.122-.028.085-.09-.026-.1-.017-.074.075.016.058.009.129-.016.157-.031.035-.01.07.063.108.06.03.13.1.155.155.026.055.09.107.142.117.092.016.093.013.011-.073-.047-.05-.072-.122-.057-.16.016-.04.005-.084-.022-.101-.083-.048-.059-.128.028-.096.044.016.098.003.12-.03.06-.09.047-.139-.03-.11-.04.014-.084.005-.1-.018-.015-.024-.002-.044.028-.044.032 0 .043-.032.027-.073-.021-.052-.01-.066.038-.049a.074.07 0 0 0 .095-.04.11.11 0 0 1 .093-.066c.036 0 .105-.041.152-.091.084-.088.084-.091-.004-.09a.39.39 0 0 0-.184.069c-.126.09-.302.084-.353-.013-.077-.15-.016-.42.123-.542.088-.077.112-.122.071-.138-.069-.027-.081-.152-.015-.152.025 0 .058.041.075.091.032.096.096.12.14.05.015-.021-.005-.065-.044-.096-.04-.03-.058-.074-.043-.098.036-.055.163.043.163.127 0 .115.302.046.317-.073.003-.025.009-.059.012-.073.004-.015.072.026.153.09.175.14.337.168.23.04-.062-.075-.06-.076.054-.006.068.042.113.109.104.153-.01.048.008.07.048.057.035-.012.058-.067.051-.122-.007-.055.008-.088.033-.074.024.014.058.005.075-.02.016-.026-.004-.047-.045-.047-.04 0-.074-.02-.074-.045 0-.025.021-.046.047-.046.027 0 .048-.02.048-.046 0-.027-.05-.035-.12-.018-.102.024-.116.016-.088-.056.018-.047.014-.07-.007-.051-.022.018-.065.013-.097-.012-.043-.034-.054-.016-.045.069.007.062-.008.126-.033.141-.052.03-1.447-1.31-1.913-1.855-2.215-2.592-1.124-3.907 1.537-5.33 1.053-.564 2.528-.97 4.23-1.27 1.847-.327 3.047-.393 3.537-.193.213.087.51.37.644.61.038.07.078.275.089.457.055.903.158 13.305.126 15.086-.005.26-.045.31-.18.227zm-5.573-1.428c.745-.137 1.032-.248 1.373-.53.798-.66 1.219-1.57 1.291-2.787l.032-.538-.168-.179a1.907 1.907 0 0 1-.219-.272c-.084-.153-.06-.485.042-.59a.383.383 0 0 0 .098-.183c.017-.172-.007-.3-.05-.274-.025.014-.059.005-.076-.02-.016-.026.001-.059.04-.073.06-.021.06-.054.003-.239-.095-.303-.528-1.1-.86-1.578-.26-.377-.386-.509-.906-.954-.217-.185-.305-.159-.223.066.072.197.07.213-.045.272-.081.041-.127.029-.265-.07-.237-.173-.358-.306-.35-.386a.3.3 0 0 0-.005-.104.865.824 0 0 1-.041-.196c-.007-.076-.515-.311-.864-.4-.124-.032-.22-.085-.232-.13-.012-.042-.047-.087-.08-.098-.103-.038-.322.025-.352.1a.357.357 0 0 1-.104.13c-.046.034-.052.056-.017.057a.11.104 0 0 0 .086-.044c.047-.072.408-.057.408.017 0 .036.073.073.179.09.233.035.63.218.633.291 0 .034-.058.057-.142.057-.2 0-.18.075.03.112.122.022.159.046.124.08a.12.113 0 0 0-.026.11c.016.038-.006.063-.051.063-.043 0-.077-.02-.077-.045 0-.025-.089-.046-.197-.046-.177 0-.195-.01-.171-.096.04-.149-.042-.3-.178-.324-.171-.031-.19.007-.051.11.119.089.171.356.07.356a.048.046 0 0 1-.048-.046c0-.025-.032-.046-.071-.046-.04 0-.072.019-.072.042 0 .022-.076.083-.167.134-.122.068-.16.116-.14.176.086.253.133.325.24.371.064.028.139.098.165.154.042.09.044.087.02-.03-.023-.107-.006-.152.082-.215.095-.07.103-.094.052-.172-.037-.057-.041-.1-.012-.118.026-.015.047-.068.047-.116 0-.103.026-.107.232-.039.083.028.151.079.151.114s.022.064.048.064c.026 0 .048-.02.048-.046 0-.081.152-.047.176.04.013.047.088.13.166.186.12.084.133.112.082.17-.05.057-.041.082.053.15l.113.08-.128.08c-.1.064-.142.069-.197.025-.09-.07-.194-.017-.124.064.027.031.035.07.018.087-.017.016.004.03.049.03.144 0 .084.244-.081.328-.056.028-.209.059-.34.07-.132.01-.25.034-.265.055-.013.02-.068.046-.12.055a.144.144 0 0 0-.112.119c-.008.056-.043.102-.077.102-.036 0-.063.052-.063.122 0 .123-.119.243-.24.243a.666.666 0 0 0-.206.07c-.154.075-.192.246-.076.348.07.062.049.236-.023.194-.024-.014-.033-.042-.021-.06.012-.02-.024-.033-.08-.031-.08.003-.11-.032-.138-.154-.042-.193-.166-.287-.333-.253-.082.017-.147.002-.187-.044-.105-.121-.326-.086-.483.077-.14.145-.19.366-.094.422.025.015.11-.004.189-.043.172-.085.435-.093.435-.014 0 .03-.087.131-.194.224-.157.137-.188.19-.164.28.023.085.004.13-.074.182-.067.045-.098.106-.087.176.014.093.038.105.183.091a.54.54 0 0 0 .277-.12c.114-.11.428-.175.517-.11.03.022.076.016.107-.014.03-.029.072-.038.09-.02.02.02.005.053-.033.075-.038.023-.059.047-.046.055.187.115.249.13.317.076.057-.045.08-.044.111.005a.166.158 0 0 1 .016.123c-.016.038.01.06.07.06.052 0 .122.032.156.07.042.048.107.06.217.041.227-.04.328.006.422.193.083.164.082.166-.04.287-.129.129-.151.185-.073.185.026 0 .048-.031.048-.069 0-.037.033-.068.073-.068.133 0 .464.187.488.277.02.07.068.087.234.087.142 0 .24.028.3.086.05.047.152.105.228.129.112.035.14.073.152.203.013.143-.007.173-.192.293-.275.177-.322.24-.324.432-.002.26-.232.453-.539.453-.253 0-.585.278-.547.458.032.15-.042.225-.218.225-.142 0-.169.04-.081.124.064.061-.079.268-.21.302-.045.012-.083.063-.083.113s-.025.1-.056.11c-.04.013-.042.054-.007.152a.37.37 0 0 1 .012.225c-.032.077-.038.079-.041.011-.002-.044-.027-.08-.055-.08-.03 0-.038-.038-.02-.093.017-.051.008-.12-.021-.153-.039-.045-.034-.075.02-.118.06-.047.062-.07.013-.129-.051-.06-.048-.066.023-.04.07.025.084.002.084-.146 0-.133.022-.181.09-.198.073-.018.088-.06.078-.22-.014-.237.07-.344.211-.272.123.063.148.06.148-.015 0-.035.043-.074.097-.088.054-.013.091-.05.084-.082-.007-.033.019-.06.058-.062.092-.003.12-.147.045-.233-.032-.037-.042-.082-.02-.1.02-.018.046-.007.058.024.025.067.3.077.3.011 0-.025.022-.045.048-.045.027 0 .049.03.049.068 0 .038.023.068.052.068.03 0 .041-.03.026-.068-.017-.041 0-.068.041-.068.044 0 .058.027.04.073-.022.053-.005.068.06.056.052-.01.107-.078.135-.17.039-.13.032-.164-.047-.22-.087-.064-.086-.066.028-.035.097.026.108.022.06-.028-.08-.08-.077-.135.006-.105.037.014.08.005.096-.02.016-.023-.004-.055-.043-.07-.04-.014-.071-.052-.071-.084 0-.036.014-.04.036-.013.056.074.155.075.155.002 0-.04.028-.057.072-.04.052.019.064.005.042-.05-.017-.042-.06-.065-.097-.052-.036.013-.065.004-.065-.02 0-.068.102-.053.197.028.046.04.107.06.135.043.079-.046.06-.115-.033-.119-.071-.003-.07-.009.012-.041.085-.035.078-.043-.058-.07-.09-.02-.167-.07-.183-.119-.017-.05-.073-.085-.133-.085-.084 0-.09.01-.034.043.038.024.057.056.04.072-.04.037-.23-.06-.23-.116 0-.023-.033-.03-.072-.016-.04.014-.072.055-.072.09 0 .073-.076.085-.12.018-.016-.025-.007-.046.021-.046a.05.048 0 0 0 .05-.048c0-.027-.02-.036-.047-.02-.026.015-.048-.004-.048-.043 0-.075-.124-.1-.152-.03-.009.023-.043.012-.077-.023-.052-.054-.038-.064.087-.064.086 0 .143-.02.133-.049-.02-.058-.032-.059-.28-.019-.128.02-.218.012-.266-.026-.054-.043-.085-.044-.127-.004-.088.084-.132.062-.121-.061.009-.107.085-.167.085-.068 0 .097.081.038.157-.114.06-.117.065-.16.021-.163-.046-.003-.046-.01.001-.027a.103.103 0 0 0 .06-.09c0-.037-.02-.056-.043-.042-.023.014-.055-.005-.07-.043-.015-.037-.055-.067-.09-.065-.048.003-.048.008.001.028.05.018.05.037.003.09-.037.043-.041.08-.011.099.06.04.074.236.015.236-.025 0-.045-.052-.045-.114 0-.063-.023-.114-.05-.114-.03 0-.039-.04-.022-.092.037-.11-.013-.115-.159-.018-.11.073-.248.06-.248-.024 0-.025.033-.034.072-.02.098.036.09-.028-.012-.102-.111-.08-.159-.079-.125.005.02.05.006.061-.05.04-.041-.015-.076-.058-.076-.096 0-.044-.027-.058-.077-.04-.056.02-.07.01-.05-.04.031-.077-.042-.096-.089-.024a.111.106 0 0 1-.086.045c-.036 0-.04-.013-.01-.034.084-.059.069-.128-.027-.128-.05 0-.092.017-.092.038 0 .022-.022.026-.048.01-.027-.015-.063.01-.081.055a.365.347 0 0 1-.103.133c-.038.027-.055.073-.036.102.02.031.004.053-.04.053-.113 0-.09-.125.046-.264.097-.1.106-.127.045-.139-.06-.012-.063-.029-.02-.08.068-.077.046-.08-.126-.018-.071.026-.116.06-.099.076s-.013.058-.066.093c-.053.036-.083.085-.067.11.016.025-.005.082-.048.127-.082.086-.135.414-.067.414.022 0 .04.041.04.092s.028.103.062.116c.042.015.058.086.048.206-.012.15.008.203.113.295.08.072.16.103.215.086.057-.017.088-.004.088.038 0 .035.055.124.122.197.08.088.111.162.091.223-.145.452-.167.767-.052.742.032-.007.058.008.058.033s-.025.04-.056.034c-.072-.016-.119.216-.063.315.024.043.032.106.018.142-.015.035.008.091.05.124.058.046.062.069.017.095-.046.028-.046.05.001.105.04.045.046.095.017.143-.044.076.048.515.12.566.02.014.036.066.036.115 0 .114.28.198.838.251.482.046.716.03 1.39-.094zm-1.98-.93c.015-.038.035-.068.046-.068.01 0 .019.03.019.068 0 .038-.021.068-.047.068-.025 0-.034-.03-.019-.068zm-.438-.342c-.016-.025-.008-.045.018-.045s.062.02.078.045c.016.025.008.046-.019.046a.106.106 0 0 1-.077-.046zm.862-.41a.106.106 0 0 1 .077-.046c.027 0 .035.021.019.046a.106.106 0 0 1-.078.046c-.026 0-.034-.021-.018-.046zm.407-.227c0-.061.085-.1.116-.052.015.023-.005.053-.044.068-.04.014-.072.007-.072-.016zm-1.223-.095c-.018-.027-.022-.058-.01-.07.013-.012.036.01.052.048.033.08.005.095-.042.022zm2.013-.225c-.016-.025-.008-.046.019-.046.026 0 .06.021.077.046.016.025.008.046-.018.046a.107.107 0 0 1-.078-.046zm-.407-.068c-.049-.056-.045-.069.018-.069.043 0 .078.031.078.069 0 .037-.008.068-.018.068-.01 0-.045-.03-.078-.068zm-1.508-.069a.106.106 0 0 1 .077-.045c.026 0 .035.02.018.045a.106.106 0 0 1-.077.046c-.027 0-.035-.02-.018-.046zm1.748-.068c0-.038.02-.068.046-.068s.034.03.019.068c-.015.038-.036.068-.047.068-.01 0-.018-.03-.018-.068zm-1.772-.068c0-.025.022-.046.05-.046.028 0 .038.02.021.046-.016.025-.039.045-.05.045-.012 0-.021-.02-.021-.045zm-.02-.176c-.021-.032-.025-.07-.01-.086.043-.04.09.02.067.086-.016.046-.028.046-.058 0zm1.016-.038c.035-.013.076-.011.092.004s-.012.026-.063.024c-.055-.002-.067-.013-.029-.028zm.824-.009c0-.04.144-.111.172-.084.008.008-.027.039-.079.07-.051.03-.093.037-.093.014zm-.647-.096c-.016-.025-.008-.046.018-.046.027 0 .062.02.078.046.016.025.008.045-.018.045a.107.107 0 0 1-.078-.045zm-.703-.123c.034-.013.075-.011.091.003.016.016-.012.026-.063.024-.055-.002-.067-.013-.028-.027zm1.424-.046c-.025-.065-.02-.07.028-.026.032.031.047.068.032.082-.015.014-.041-.012-.06-.056zm.117-.06c0-.024.022-.045.048-.045a.048.046 0 0 1 0 .091.048.046 0 0 1-.048-.045zm-2.299-.09a.048.046 0 0 1 .096 0 .047.047 0 0 1-.048.045.048.046 0 0 1-.048-.046zm1.629-.046c0-.025.02-.046.045-.046.024 0 .058.021.075.046.016.025-.004.045-.046.045-.04 0-.074-.02-.074-.045zm-1.964-.113c0-.036.044-.049.12-.035.066.012.12.037.12.056 0 .02-.054.035-.12.035s-.12-.025-.12-.056zm1.676-.07c-.079-.048-.066-.054.138-.062.092-.004.13.013.114.051-.027.068-.151.073-.252.012zm-.646-.182c.016-.025.039-.045.05-.045.012 0 .022.02.022.045 0 .025-.023.046-.051.046-.028 0-.038-.02-.021-.046zm-1.072-.307c.014-.087-.011-.12-.05-.062-.033.05-.052.043-.096-.034-.049-.087-.043-.096.055-.087.06.006.125.032.144.057.051.066.045.16-.01.16-.027 0-.046-.016-.043-.034zm1.122-.054c-.016-.023-.005-.055.02-.071.027-.016.05.003.05.042 0 .08-.03.092-.07.029zm-.314-.231c0-.025.023-.046.051-.046.028 0 .037.02.021.046-.016.025-.04.045-.05.045-.012 0-.022-.02-.022-.045zm1.293-.27c0-.025.022-.056.048-.072.027-.015.048.004.048.043 0 .039-.021.071-.048.071-.026 0-.048-.02-.048-.043zm.103-.22c-.067-.118-.02-.254.075-.22a.455.455 0 0 0 .09.026c.044 0 .016.124-.046.205-.063.082-.067.082-.12-.011zm.089-.103c0-.025-.01-.045-.021-.045-.012 0-.035.02-.051.045-.016.025-.007.046.021.046s.051-.02.051-.046zm2.468.094c-.042-.065.011-.14.1-.14.043 0 .067.033.058.077-.02.091-.114.13-.158.063zm-2.745-.347c-.058-.039-.106-.093-.106-.12 0-.032.021-.031.066.004.036.028.095.044.131.035.037-.009.05-.007.028.004-.02.011-.013.049.018.084.075.085-.004.081-.137-.007zm.277.026c0-.026.022-.046.048-.046a.048.046 0 0 1 0 .091.048.046 0 0 1-.048-.045zm-1.46-.046c.015-.025.06-.046.098-.046.038 0 .069.021.069.046 0 .025-.045.046-.099.046-.054 0-.085-.021-.069-.046zm.31-.07c0-.078.155-.293.195-.27.026.015.034.046.019.07-.015.023.038.042.119.042.08 0 .147.02.147.046 0 .025.032.045.071.045.04 0 .072.02.072.046 0 .064-.131.057-.154-.007-.014-.04-.057-.04-.179 0-.172.057-.29.068-.29.028zm-.434-.066a.941.941 0 0 1-.304-.167c-.173-.137-.177-.145-.077-.175.074-.022.137-.003.21.061a.7.7 0 0 0 .304.124c.235.035.31.138.119.164a.916.916 0 0 1-.252-.007zm.323-.26c-.05-.047-.038-.197.016-.197.026 0 .048.02.048.042 0 .024.013.075.029.114.029.072-.033.1-.093.042zm4.112-.301c-.02-.045-.024-.095-.008-.11.05-.047.088.019.066.108-.02.08-.023.08-.058.002zm-3.953-3.45c0-.026.034-.046.075-.046.04 0 .061.02.045.045-.016.025-.05.046-.075.046a.046.046 0 0 1-.045-.046zm.103 8.198c-.1-.036-.122-.017-.085.074.024.06.04.062.096.013.058-.05.056-.063-.01-.087zm.318-.368c.113.02.122.014.068-.047-.133-.154-.37-.093-.265.069.023.034.038.035.05.003.01-.026.075-.037.147-.025zm4.534-.435a.815.815 0 0 1 .074-.195c.03-.054.043-.129.027-.167-.027-.068.063-.256.223-.464.065-.084.072-.128.031-.2-.072-.128-.018-.391.106-.517.149-.15.092-.264-.112-.222-.192.038-.287.112-.144.112.057 0 .116-.02.132-.045.017-.026.05-.046.075-.046.077 0 .05.119-.047.202-.118.102-.178.415-.097.507.05.057.032.106-.098.278-.101.134-.157.259-.154.348a.63.63 0 0 1-.066.268c-.039.07-.06.13-.046.13.013 0 .002.055-.025.124-.046.114-.043.12.026.055a.372.372 0 0 0 .095-.168zm-3.877-.194c.038-.058-.073-.058-.168 0-.058.036-.052.044.033.045.058 0 .118-.02.135-.045zm4.095-1.636c0-.07-.14-.153-.215-.126-.109.04-.216-.015-.216-.11 0-.086-.133-.18-.249-.178-.035.001-.007.047.062.103a.59.59 0 0 1 .156.186c.023.06.065.079.15.063.068-.012.143.005.173.04.062.07.139.083.139.023zm-.767-.6c0-.052-.02-.082-.046-.067-.025.015-.033.057-.019.094.038.094.065.083.065-.027zm-.068-.18c.098 0 .084-.08-.022-.134-.068-.035-.106-.029-.152.024-.05.057-.05.067.007.056.046-.01.065.022.059.1-.005.066 0 .08.015.034.014-.044.055-.08.093-.08zm-5.056-.274a.048.046 0 0 0-.048-.045.048.046 0 0 0-.048.045.048.046 0 0 0 .096 0zm5.008-.17c-.085-.076-.087-.076-.058.003a.499.499 0 0 1 .03.135c0 .035.018.034.059-.004.045-.043.038-.073-.031-.135zm.29-.604a1.816 1.729 0 0 1 .094-.258.741.741 0 0 0 .064-.273c-.004-.152-.024-.114-.165.303a2.284 2.284 0 0 1-.173.393.619.619 0 0 0-.088.182c.003.075.24-.232.267-.347zm-7.197-.252c-.041-.101-.108-.081-.079.023.014.05.043.08.065.067.023-.013.029-.054.014-.09zm2.071-.225c-.017-.063-.061-.116-.099-.116-.057 0-.055.023.012.134.094.155.13.148.087-.018zm6.307.021c.027-.099-.038-.127-.079-.034-.016.037-.064.013-.142-.075-.112-.125-.13-.13-.392-.098-.155.018-.256.05-.232.072.024.023.131.018.248-.01.2-.048.21-.045.335.093.149.165.227.18.262.052zm-6.701-.25c.015-.038.009-.07-.013-.07-.023 0-.068.032-.1.07-.049.055-.047.068.012.068.04 0 .085-.031.1-.069zm.952-.01c.02-.01.036-.112.036-.225 0-.169.018-.212.096-.231.053-.013.096-.042.096-.064 0-.061-.157-.046-.256.026-.066.048-.122.051-.227.017-.13-.043-.195-.13-.098-.13.024 0 .056-.035.072-.079.016-.044.042-.105.058-.137.015-.031-.003-.057-.043-.057-.038 0-.082.043-.096.095a.182.182 0 0 1-.118.117c-.067.018-.086.053-.07.134.013.06.036.112.053.115.017.003.106.011.198.018.223.017.232.023.12.069l-.096.039.096.005c.088.004.089.008.012.05-.089.05-.117.18-.039.18.025 0 .067-.036.093-.08.025-.044.062-.065.08-.046.045.042-.068.17-.15.17a.122.116 0 0 0-.094.048c-.028.044.18.019.277-.033zm4.73-.014c0-.025-.033-.045-.072-.045-.04 0-.072-.02-.072-.046a.048.046 0 0 0-.048-.045c-.134 0 .003.137.18.18.007.001.012-.018.012-.044zm.304-.068c.072-.069.091-.114.147-.353.016-.069.054-.125.084-.125.089 0 .231.143.231.232 0 .097.077.153.12.087.015-.025.011-.046-.01-.046-.023 0-.065-.06-.093-.132-.078-.195-.23-.258-.348-.146-.057.055-.083.125-.068.182.018.064-.02.136-.119.231-.082.079-.117.138-.08.138.035 0 .097-.03.136-.068zm.458-.07c-.035-.021-.086-.024-.114-.007-.029.017-.015.036.034.045.046.01.086.04.088.07.002.033.014.03.03-.009.014-.034-.003-.079-.038-.1zm-.14-.092c0-.024-.021-.043-.048-.043-.026 0-.048.032-.048.071 0 .04.022.059.048.043.027-.015.048-.047.048-.071zm-.766-.063c0-.036-.022-.078-.048-.094-.026-.015-.048.014-.048.066 0 .051.022.094.048.094.026 0 .048-.03.048-.066zm-7.088-.089c0-.01-.054-.027-.12-.039s-.12-.004-.12.017c0 .022.054.04.12.04s.12-.008.12-.018zm7.206-.301c.093 0 .137-.16.074-.272-.034-.061-.1-.093-.194-.093-.165 0-.182-.045-.045-.127.08-.047.088-.073.043-.153a.356.356 0 0 1-.03-.21.394.394 0 0 0-.067-.257c-.118-.184-.114-.223.017-.184.095.03.1.024.042-.042-.092-.105-.143-.094-.178.04a.307.292 0 0 0 .04.216c.1.147.147.58.063.58-.088 0-.128.114-.061.177.03.029.104.051.165.051.17 0 .195.134.044.239-.072.05-.126.13-.125.187.002.09.008.088.073-.027.04-.069.102-.125.139-.125zm-4.74.09c.017-.024-.004-.045-.045-.045-.04 0-.075.021-.075.046 0 .025.02.046.046.046.024 0 .058-.021.074-.046zm-.004-.278c-.048-.074-.116-.041-.116.057 0 .08.012.087.071.04.04-.031.06-.074.045-.097zm-.164-.245c-.033-.038-.081-.069-.108-.069-.026 0-.021.03.012.069.033.037.082.068.108.068.026 0 .021-.03-.012-.068zm4.433-.057c.161-.123.218-.294.117-.353-.026-.016-.048-.078-.048-.14 0-.061-.018-.111-.04-.111-.022 0-.066-.054-.098-.121-.094-.195-.15-.07-.17.375-.023.537-.018.544.239.35zm-.192-.091c.02-.07.033-.238.028-.376l-.008-.251.096.114a.42.42 0 0 1 .097.214c0 .055.022.113.049.128.046.027-.195.296-.266.296-.017 0-.016-.056.004-.125zm-6.252.054c0-.036-.02-.065-.045-.065-.025 0-.042.04-.038.087.008.1.083.08.083-.022zm6.054-.184c.116-.042.09-.1-.033-.077-.102.018-.109.007-.091-.166.018-.184.07-.239.123-.129.015.032.022.016.016-.034-.007-.05-.044-.091-.083-.091-.048 0-.081.072-.104.225-.044.292-.014.34.172.271zm-1.815-.668c-.026-.191-.063-.264-.184-.364-.194-.16-1.013-.56-1.22-.598-.234-.041-.144.04.12.11.127.033.37.127.54.21l.312.15.008.217c.007.19.031.237.187.366.1.082.2.149.224.149.026 0 .031-.101.012-.24zm1.117.014c.02-.139-.12-.255-.216-.178-.068.053-.086.23-.03.284.075.07.23.004.246-.106zm-.213-.03c.016-.039.03-.08.03-.09 0-.01.02-.02.047-.02.026 0 .048.042.048.092 0 .053-.032.09-.077.09-.05 0-.067-.024-.048-.071zm1.36-.055c.01-.032-.01-.044-.054-.028-.052.02-.077-.009-.088-.102-.017-.138-.183-.217-.183-.087 0 .04-.017.072-.038.072-.068 0-.154-.107-.154-.192 0-.045-.025-.082-.055-.082-.087 0-.376-.226-.376-.294 0-.033-.03-.072-.068-.086-.153-.056.059.264.231.35.095.046.172.11.172.14 0 .03.062.112.138.18.132.121.138.122.163.032.038-.138.114-.114.148.047.028.135.123.165.163.05zm-3.39-.1c0-.025-.06-.043-.132-.04l-.132.003.12.037.132.041c.007.003.012-.016.012-.041zm1.276-.216a.929.884 0 0 1 .1-.224c.149-.22-.15-.702-.48-.77-.174-.037-.232.01-.063.05.165.04.376.234.455.418.056.13.051.169-.038.345-.11.217-.126.306-.054.306.026 0 .062-.056.08-.125zm-2.21-.002c.136-.037.191-.106.193-.244 0-.095-.02-.118-.105-.113-.101.005-.103.012-.034.112.085.123.09.115-.122.184-.144.046-.177.04-.267-.04-.057-.05-.128-.09-.16-.09s.013.06.099.135c.092.08.186.124.228.108a2.35 2.35 0 0 1 .168-.052zm.79-.12c-.263-.13-.527-.19-.527-.121 0 .027.062.049.136.049.076 0 .175.04.223.091.053.055.146.09.235.09.148-.003.147-.004-.067-.11zm-.862-.025c.104-.063.013-.122-.24-.155-.213-.027-.214-.027-.084.042.073.038.132.089.132.113 0 .056.098.056.192 0zm-.575-.124c0-.058.178-.13.276-.112.052.01.083-.08.065-.188-.004-.02.026-.048.066-.062.04-.015.072-.047.072-.073 0-.027-.127-.038-.326-.028a1.574 1.574 0 0 0-.659.172c-.183.084-.338.158-.345.163-.046.034.063.156.149.168.266.036.702.011.702-.04zm3.784-.288c0-.05-.008-.09-.019-.09-.01 0-.03.04-.043.09-.014.05-.005.091.018.091.024 0 .044-.04.044-.09zm-.183-.1c-.035-.033-.057-.036-.057-.008 0 .061.057.115.089.085.014-.013 0-.048-.032-.078zm-2.46-.168c.022-.142.158-.176.667-.17.46.006.593-.034.24-.073-.3-.032-.731-.006-.846.053-.055.029-.1.088-.1.132a.233.233 0 0 1-.06.14c-.048.05-.046.057.012.04.04-.01.079-.066.087-.122zm-.184-.002c.074-.133.06-.185-.051-.185-.111 0-.379.136-.379.192 0 .057.047.043.199-.06.16-.109.234-.082.146.052-.033.05-.038.09-.012.09s.07-.04.096-.089zm-7.973 9.427c-.275-.2-.9-.586-1.317-.816-1.793-.986-2.421-1.757-2.256-2.772.084-.513.358-.972.853-1.425.708-.648 1.307-.974 1.307-.71 0 .034-.185.204-.411.377-.485.37-.877.81-1.059 1.185-.106.219-.134.351-.15.711-.018.419-.011.46.128.743.081.165.227.392.323.504.441.512 1.607 1.03 2.607 1.158a12.816 12.196 0 0 1 .514.073c.113.023.15.11.047.11a.766.766 0 0 0-.238.115.488.488 0 0 0-.228.295c-.05.173-.028.262.133.56.039.072-.07.026-.253-.108zm4.743-.211c-.263-.016-.409-.068-.409-.145 0-.017.138-.022.306-.012.18.01.343-.003.396-.033.07-.04-.004-.05-.343-.042-.418.009-.438.005-.681-.147-.138-.086-.244-.177-.236-.202.008-.026.135-.101.283-.169.263-.12.288-.123 1.241-.128 1.22-.006 1.142-.01 1.142.057 0 .065-.201.188-.875.537-.256.133-.467.26-.467.28 0 .02-.016.034-.035.03a4.72 4.72 0 0 0-.322-.026zm.577-.343c.02-.018-.13-.033-.334-.033-.204 0-.36.015-.348.034.029.044.636.044.682 0zm-.83-.157a.85.81 0 0 0-.239 0c-.073.01-.025.019.107.02.132 0 .191-.009.132-.02zm.958 0a2.746 2.613 0 0 0-.408 0c-.111.01-.02.017.204.017.224 0 .316-.008.204-.018zm.419-.132c0-.01-.167-.014-.371-.01-.359.007-.363.009-.108.034.25.025.479.014.479-.024zm-1.423-.022c-.038-.037-.078-.037-.141-.001-.078.043-.071.049.053.05.103 0 .127-.012.088-.05zm.358.019a.526.5 0 0 0-.192-.001c-.06.01-.022.02.083.02.106.001.154-.008.109-.02zm.215-.09a.185.176 0 0 0-.12 0c-.033.012-.006.023.06.023.065 0 .093-.01.06-.024zm.719-.002a.852.81 0 0 0-.24 0c-.072.01-.024.018.107.019.132 0 .192-.008.133-.02zm-1.27-.644c-.185-.02-.643-.692-.901-1.32-.299-.727-.394-1.261-.364-2.038a4.848 4.848 0 0 1 .991-2.78c.255-.332.32-.375.418-.282.073.07.07.084-.044.201-.723.74-1.207 2.147-1.118 3.248.08.995.404 1.892.94 2.605.131.176.232.333.224.35-.008.017-.074.024-.146.016zm-2.023-2.065c-.36-.379-1.138-1.049-1.926-1.659-1.46-1.161-4.226-3.048-4.228-4.943-.001-1.265 1.187-2.566 3.499-3.707 4.005-1.976 11.6-3.474 23.775-3.474 2.6 0 3.397-.019 6.73.118 12.38.599 18.558 3.6 18.558 6.377 0 2.395-3.686 5.422-10.896 6.335-.276.027-.573.058-.659.068-.144.018-.155.01-.155-.114 0-.148-.012-.144.575-.228 4.184-.715 9.387-3.307 9.427-5.81.03-1.948-4.27-3.87-6.817-4.638-1.075-.32-1.943-.516-3.425-.767l-1.053-.179a44.592 44.592 0 0 0-1.692-.247 143.166 136.248 0 0 1-2.044-.207c-.484-.056-2.043-.205-2.85-.272-.712-.06-2.917-.139-4.477-.16-1.792-.023-4.718.052-7.017.183-1.759.1-1.872.134-2.49.18-9.412.717-17.176 3.824-17.176 6.379 0 .708.547 1.449 1.183 1.767 1.043.522 2.874.619 4.208.213.39-.119.575-.165.546-.091-.01.022-.13.126-.27.23-.44.33-.953 1.096-1.177 1.758-.2.591-.32 1.76-.228 2.223.028.144.105.39.171.544.066.155.113.288.104.297-.009.008-.097-.071-.196-.176zm2.993.015c0-.047.104-.146.153-.146.021 0 .038.041.038.091 0 .06-.032.091-.096.091-.052 0-.095-.016-.095-.036zm-.168-1.832c-.016-.025-.007-.046.021-.046s.051.02.051.046c0 .025-.01.045-.021.045-.012 0-.035-.02-.051-.045zm.12-.256c0-.036.06-.054.163-.049.194.01.183.058-.019.086-.095.014-.144 0-.144-.037zm-.144-.155c0-.025.023-.045.05-.045.029 0 .038.02.022.045-.016.025-.039.046-.05.046-.012 0-.022-.02-.022-.046zm.452-.095c-.014-.023.018-.041.072-.041.054 0 .099-.022.099-.049 0-.026.023-.034.052-.017.037.022.037.044 0 .08-.068.064-.189.08-.222.027zm.683-.207c-.051-.049.013-.106.088-.078.038.014.058.044.043.066-.03.048-.088.053-.131.012zm.134-.199c.016-.025.04-.045.051-.045.012 0 .021.02.021.045 0 .025-.023.046-.05.046-.028 0-.038-.02-.022-.046zm-.368-.213c.035-.014.076-.012.092.004.016.015-.012.025-.063.024-.056-.002-.067-.013-.029-.028zm-.996-.17a.076.072 0 0 1 .075-.073c.042 0 .068.025.057.055-.03.084-.133.098-.133.018zm.574.021c0-.023.022-.056.048-.071.026-.016.048.004.048.043 0 .04-.022.07-.048.07-.026 0-.048-.018-.048-.042zm.383-.048c0-.025.033-.046.072-.046.04 0 .072.02.072.046 0 .025-.032.045-.072.045-.04 0-.072-.02-.072-.045zm1.895-.079a.127.12 0 0 1 .026-.123c.043-.036.05-.029.028.03-.037.099.03.105.11.012.033-.037.09-.068.126-.068.118 0 .07.072-.097.148-.15.069-.166.069-.193.001zm-2.134-.195a.048.046 0 0 1 .095 0 .047.047 0 0 1-.047.046.048.046 0 0 1-.048-.046zm.718-.14c0-.026.022-.035.048-.02.026.016.048.038.048.05 0 .01-.022.02-.048.02a.048.048 0 0 1-.048-.049zm.312.004c-.017-.025.004-.046.045-.046a.073.07 0 0 0 .074-.068c0-.038.023-.069.05-.069.033 0 .034.028.002.086-.027.046-.034.098-.018.114.017.015-.004.028-.047.028-.042 0-.09-.02-.106-.045zm-.428-.176c-.02-.032-.024-.07-.009-.086.043-.04.09.02.067.086-.016.046-.027.046-.058 0zm.242-.086c.045-.18.066-.185.066-.02 0 .08-.022.145-.05.145-.028 0-.035-.05-.017-.125zm-.39-.057a.105.105 0 0 1 .078-.046c.026 0 .035.02.019.046a.106.106 0 0 1-.078.045c-.026 0-.035-.02-.018-.045zm.813-.003c-.018-.027-.02-.06-.006-.073.034-.033.127.025.127.079 0 .058-.082.054-.121-.006zm.337.003a.09.085 0 0 1 .013-.1c.032-.03.06-.027.083.009a.09.085 0 0 1-.013.1c-.032.03-.06.027-.083-.009zm-1.27-.16c-.033-.039-.052-.075-.042-.08.22-.121.234-.124.234-.06a.101.101 0 0 1-.06.088c-.046.017-.045.023.004.026.034.002.05.024.033.05-.042.064-.099.056-.169-.024zm.336.022c-.062-.04-.06-.055.022-.114.106-.077.188-.028.142.085-.035.087-.064.092-.164.029zm.431-.024c0-.118.12-.43.16-.418.086.027.09.29.006.37-.075.072-.166.098-.166.048zm.266-.016a.053.05 0 0 1 .017-.07.053.05 0 0 1 .074.016.053.05 0 0 1-.017.07.053.05 0 0 1-.074-.016zm-1.176-.186c0-.026.023-.046.051-.046.028 0 .037.02.021.045-.016.025-.039.046-.05.046-.012 0-.022-.02-.022-.046zm.31-.14c-.045-.07.036-.139.112-.094.05.029.048.047-.008.091-.052.041-.079.042-.103.003zm.36-.087c0-.057.17-.144.21-.107.041.04-.064.151-.143.151-.036 0-.066-.02-.066-.044zm.45-.148c-.04-.06.072-.126.215-.126.092 0 .103.011.059.062-.074.084-.237.122-.274.064zm-1.539-.042c-.032-.032-.06-.084-.06-.117s-.021-.06-.048-.06a.048.046 0 0 1-.047-.045c0-.068.123-.055.19.02.03.037.05.11.04.163-.012.077-.027.085-.075.039zm.946.01c0-.057.288-.191.341-.16.073.043.046.094-.08.149-.147.064-.26.068-.26.01zm-.344-.08c.035-.014.076-.012.092.004.016.015-.013.025-.063.023-.056-.002-.067-.012-.03-.027zm-.315-.16c.024-.068.132-.106.132-.046 0 .025-.034.057-.076.073-.046.016-.068.007-.056-.027zm.547-.022c-.06-.057-.032-.116.043-.089.042.016.061.008.045-.018-.016-.025.015-.045.07-.045.11 0 .125.046.04.128-.063.06-.149.07-.198.024zm8.788-5.667a1.133 1.133 0 0 1-.127-.205c-.127-.242-.453-.549-.68-.64-.395-.16-1.506-.132-2.96.075-.342.048-.651.098-.687.11-.036.013-.208.051-.383.087a4.394 4.394 0 0 0-.403.095c-.046.018-.083.011-.083-.015 1.57-.698 8.148-1.722 14.792-1.665 4.502.038 9.044.554 12.04 2.075-.042.01-1.537.06-9.674.059-5.367-.001-10.219.009-10.781.023-.563.013-1.037.014-1.054 0z"/><g aria-label="URBAN" style="font-style:italic;font-size:19.484px;line-height:1.25;font-family:Calibri;-inkscape-font-specification:'Calibri, Italic';font-variant-ligatures:none;text-align:center;letter-spacing:.926042px;word-spacing:0;text-anchor:middle;fill:#000;fill-opacity:1;stroke-width:.264583"><path d="M75.461 329.998v-6.707q0-.857.38-1.285.39-.428 1.019-.428.656 0 1.037.428.39.428.39 1.285v6.859q0 1.17.257 1.96.266.78.932 1.218.666.428 1.865.428 1.655 0 2.34-.876.685-.884.685-2.673v-6.916q0-.866.38-1.285.381-.428 1.019-.428.637 0 1.027.428.4.419.4 1.285v6.707q0 1.636-.324 2.73-.314 1.094-1.199 1.922-.76.704-1.77 1.027-1.008.324-2.359.324-1.607 0-2.768-.343-1.16-.352-1.893-1.075-.733-.732-1.075-1.864-.343-1.142-.343-2.721z" style="font-style:normal;font-family:'Arial Rounded MT Bold';-inkscape-font-specification:'Arial Rounded MT Bold, ';fill:#000;fill-opacity:1" transform="matrix(.27152 0 0 .2584 140.871 37.81)"/><path d="M94.499 329.716h-.99v4.54q0 .897-.39 1.32-.39.425-1.017.425-.676 0-1.047-.444-.371-.443-.371-1.3v-10.874q0-.925.41-1.34.408-.414 1.322-.414h4.595q.951 0 1.626.086.676.077 1.218.328.657.28 1.16.8.505.52.762 1.215.266.684.266 1.455 0 1.581-.884 2.526-.876.944-2.664 1.34.751.404 1.436 1.195.685.79 1.218 1.687.542.887.837 1.61.305.713.305.983 0 .28-.181.559-.171.27-.476.424-.304.164-.704.164-.475 0-.799-.232-.323-.221-.561-.568-.229-.347-.628-1.022l-1.132-1.909q-.61-1.05-1.094-1.6-.476-.55-.97-.752-.495-.202-1.247-.202zm1.617-5.938H93.51v3.885h2.53q1.018 0 1.713-.174.694-.183 1.056-.607.37-.434.37-1.186 0-.588-.294-1.031-.295-.453-.818-.675-.495-.212-1.95-.212zm15.67 11.985h-4.262q-.923 0-1.323-.416-.39-.426-.39-1.345v-10.663q0-.938.4-1.345.409-.416 1.313-.416h4.519q.998 0 1.731.126.733.126 1.313.484.495.3.875.764.38.455.58 1.016.2.552.2 1.17 0 2.13-2.093 3.116 2.75.89 2.75 3.464 0 1.19-.6 2.149-.599.948-1.617 1.403-.637.27-1.465.387-.828.106-1.931.106zm-.21-6.299h-2.94v4.141h3.036q2.863 0 2.863-2.1 0-1.073-.742-1.557t-2.217-.484zm-2.94-5.728v3.667h2.588q1.056 0 1.627-.203.58-.203.885-.774.238-.407.238-.91 0-1.074-.752-1.422-.751-.358-2.293-.358z" style="font-style:normal;font-family:'Arial Rounded MT Bold';-inkscape-font-specification:'Arial Rounded MT Bold, ';fill:#000;fill-opacity:1;stroke-width:.264583" transform="matrix(.27152 0 0 .2584 140.871 37.81)"/><path d="m129.701 334.184-.666-1.75h-5.67l-.666 1.788q-.39 1.046-.666 1.417-.276.362-.904.362-.532 0-.942-.39-.409-.39-.409-.885 0-.285.096-.59.095-.304.313-.847l3.568-9.057.362-.932q.218-.552.456-.913.248-.362.638-.58.4-.229.98-.229.59 0 .98.228.4.22.637.571.247.352.409.761.171.4.428 1.075l3.644 9q.428 1.028.428 1.494 0 .485-.41.894-.399.4-.97.4-.332 0-.57-.124-.238-.114-.4-.314-.162-.21-.352-.628zm-5.594-3.872h4.167l-2.102-5.756zm15.198-7.04 5.432 8.22v-8.297q0-.808.343-1.208.352-.409.942-.409.609 0 .96.41.353.399.353 1.207v10.97q0 1.836-1.523 1.836-.38 0-.685-.114-.304-.105-.57-.343-.267-.238-.495-.552-.228-.323-.457-.656l-5.299-8.125v8.173q0 .799-.37 1.208-.372.409-.952.409-.6 0-.961-.41-.362-.418-.362-1.207v-10.76q0-.685.153-1.075.18-.429.599-.695.419-.276.904-.276.38 0 .647.124.276.123.475.333.21.21.419.542.219.333.447.695z" style="font-style:normal;font-family:'Arial Rounded MT Bold';-inkscape-font-specification:'Arial Rounded MT Bold, ';fill:#000;fill-opacity:1" transform="matrix(.27152 0 0 .2584 140.871 37.81)"/><path style="opacity:1;fill:#000;fill-opacity:1;stroke-width:.799999;stroke-linecap:square;paint-order:fill markers stroke" d="M90.684 321.629h1.731v1.64h-1.731z" transform="matrix(.27152 0 0 .2584 140.871 37.81)"/><path style="font-style:italic;font-size:19.484px;line-height:1.25;font-family:Calibri;-inkscape-font-specification:'Calibri, Italic';font-variant-ligatures:none;text-align:center;letter-spacing:.926042px;word-spacing:0;text-anchor:middle;fill:#000;fill-opacity:1;stroke-width:.799999;stroke-linecap:square;paint-order:fill markers stroke" d="M105.811 321.578h1.731v14.185h-1.731z" transform="matrix(.27152 0 0 .2584 140.871 37.81)"/></g><g aria-label="CRUISE" style="font-style:italic;font-size:19.484px;line-height:1.25;font-family:Calibri;-inkscape-font-specification:'Calibri, Italic';font-variant-ligatures:none;text-align:center;letter-spacing:-.132292px;word-spacing:0;text-anchor:middle;fill:#000;fill-opacity:1;stroke-width:.264583"><path d="M87.59 349.897q0 .666-.333 1.446-.324.771-1.028 1.523-.704.742-1.798 1.208-1.094.466-2.55.466-1.103 0-2.007-.21-.904-.209-1.646-.646-.732-.447-1.35-1.17-.553-.657-.943-1.466-.39-.818-.59-1.74-.19-.923-.19-1.96 0-1.684.486-3.016.494-1.332 1.408-2.274.913-.951 2.14-1.446t2.616-.495q1.694 0 3.016.676 1.323.675 2.027 1.674.704.99.704 1.874 0 .486-.343.857-.342.37-.828.37-.542 0-.818-.256-.266-.257-.6-.885-.55-1.037-1.302-1.55-.743-.514-1.837-.514-1.74 0-2.778 1.322-1.027 1.322-1.027 3.758 0 1.627.457 2.711.456 1.075 1.293 1.608.838.533 1.96.533 1.218 0 2.055-.6.847-.608 1.275-1.779.18-.551.447-.894.267-.352.856-.352.505 0 .866.352.362.352.362.875z" style="font-style:normal;font-family:'Arial Rounded MT Bold';-inkscape-font-specification:'Arial Rounded MT Bold, ';fill:#000;fill-opacity:1" transform="matrix(.27152 0 0 .2584 140.871 37.81)"/><path d="M93.793 348.233h-.989v4.556q0 .9-.39 1.325-.39.426-1.018.426-.675 0-1.046-.445t-.371-1.306v-10.911q0-.929.409-1.345.409-.416 1.322-.416h4.595q.951 0 1.627.087.675.078 1.218.33.656.28 1.16.802.505.522.761 1.219.267.687.267 1.46 0 1.587-.885 2.535-.875.948-2.664 1.344.752.407 1.437 1.2.685.793 1.218 1.693.542.89.837 1.615.304.716.304.987 0 .28-.18.56-.172.272-.476.426-.305.165-.704.165-.476 0-.8-.232-.323-.223-.56-.57-.23-.35-.629-1.026l-1.132-1.916q-.609-1.054-1.094-1.605-.476-.552-.97-.755-.495-.203-1.247-.203zm1.618-5.959h-2.607v3.899h2.53q1.019 0 1.713-.174.695-.184 1.056-.61.371-.435.371-1.19 0-.59-.295-1.035-.295-.454-.818-.677-.495-.213-1.95-.213z" style="font-style:normal;font-family:'Arial Rounded MT Bold';-inkscape-font-specification:'Arial Rounded MT Bold, ';fill:#000;fill-opacity:1;stroke-width:.264583" transform="matrix(.27152 0 0 .2584 140.871 37.81)"/><path style="font-style:italic;font-size:19.484px;line-height:1.25;font-family:Calibri;-inkscape-font-specification:'Calibri, Italic';font-variant-ligatures:none;text-align:center;letter-spacing:.926042px;word-spacing:0;text-anchor:middle;fill:#000;fill-opacity:1;stroke-width:.799999;stroke-linecap:square;paint-order:fill markers stroke" d="M89.978 340.117h1.731v1.64h-1.731z" transform="matrix(.27152 0 0 .2584 140.871 37.81)"/><path d="M104.21 348.537v-6.707q0-.856.366-1.285.376-.428.981-.428.633 0 1 .428.376.429.376 1.285v6.86q0 1.17.248 1.959.257.78.899 1.218.642.428 1.797.428 1.596 0 2.257-.875.66-.885.66-2.674v-6.916q0-.866.367-1.285.367-.428.981-.428.615 0 .99.428.386.419.386 1.285v6.707q0 1.636-.312 2.73-.303 1.094-1.156 1.922-.733.704-1.706 1.028-.972.323-2.274.323-1.55 0-2.67-.343-1.118-.352-1.824-1.075-.706-.732-1.037-1.864-.33-1.142-.33-2.721z" style="font-style:normal;font-family:'Arial Rounded MT Bold';-inkscape-font-specification:'Arial Rounded MT Bold, ';fill:#000;fill-opacity:1;stroke-width:.264583" transform="matrix(.27152 0 0 .2584 140.871 37.81)"/><path d="M118.179 352.818V341.83q0-.857.39-1.285.39-.428 1.008-.428.638 0 1.028.428.4.419.4 1.285v10.988q0 .866-.4 1.294-.39.428-1.028.428-.609 0-1.008-.428-.39-.438-.39-1.294zm16.45-2.702q0 1.265-.657 2.274-.647 1.008-1.902 1.58-1.256.57-2.978.57-2.065 0-3.406-.78-.951-.561-1.55-1.494-.59-.942-.59-1.826 0-.514.351-.876.362-.37.914-.37.447 0 .751.285.314.285.533.846.266.666.57 1.114.315.447.876.742.561.285 1.475.285 1.256 0 2.036-.58.79-.59.79-1.465 0-.695-.429-1.123-.418-.438-1.094-.666-.666-.228-1.788-.485-1.504-.352-2.522-.818-1.008-.476-1.607-1.285-.59-.818-.59-2.026 0-1.151.628-2.046.628-.894 1.817-1.37 1.189-.485 2.797-.485 1.284 0 2.217.324.941.314 1.56.846.618.524.904 1.104.285.58.285 1.132 0 .504-.362.913-.352.4-.884.4-.486 0-.742-.238-.248-.247-.543-.799-.38-.79-.913-1.227-.533-.447-1.712-.447-1.094 0-1.77.485-.666.476-.666 1.151 0 .419.228.723.229.304.628.523.4.22.809.343.41.123 1.35.361 1.18.276 2.132.61.96.332 1.627.808.675.476 1.046 1.208.38.723.38 1.78z" style="font-style:normal;font-family:'Arial Rounded MT Bold';-inkscape-font-specification:'Arial Rounded MT Bold, ';fill:#000;fill-opacity:1" transform="matrix(.27152 0 0 .2584 140.871 37.81)"/><path d="M146.396 342.333h-6.504v3.483h5.989q.66 0 .981.3.33.29.33.774 0 .484-.32.794-.32.3-.991.3h-5.989v4.035h6.727q.68 0 1.021.319.35.31.35.832 0 .503-.35.823-.34.31-1.02.31h-7.846q-.942 0-1.36-.417-.409-.416-.409-1.345v-10.663q0-.619.185-1.006.185-.397.574-.57.398-.185 1.01-.185h7.622q.69 0 1.02.31.34.3.34.793 0 .503-.34.813-.33.3-1.02.3z" style="font-style:normal;font-family:'Arial Rounded MT Bold';-inkscape-font-specification:'Arial Rounded MT Bold, ';fill:#000;fill-opacity:1;stroke-width:.264583" transform="matrix(.27152 0 0 .2584 140.871 37.81)"/><path style="font-style:italic;font-size:19.484px;line-height:1.25;font-family:Calibri;-inkscape-font-specification:'Calibri, Italic';font-variant-ligatures:none;text-align:center;letter-spacing:.926042px;word-spacing:0;text-anchor:middle;fill:#000;fill-opacity:1;stroke-width:.799999;stroke-linecap:square;paint-order:fill markers stroke" d="M137.005 340.117h1.731v14.185h-1.731z" transform="matrix(.27152 0 0 .2584 140.871 37.81)"/></g><g aria-label="SHIP" style="font-style:italic;font-size:19.484px;line-height:1.25;font-family:Calibri;-inkscape-font-specification:'Calibri, Italic';font-variant-ligatures:none;text-align:center;letter-spacing:7.9375px;word-spacing:0;text-anchor:middle;fill:#000;fill-opacity:1;stroke-width:.264583"><path d="M86.426 368.655q0 1.266-.657 2.274-.647 1.009-1.903 1.58-1.255.57-2.977.57-2.065 0-3.406-.78-.952-.561-1.55-1.494-.59-.941-.59-1.826 0-.514.351-.875.362-.372.914-.372.447 0 .751.286.314.285.533.847.266.666.57 1.113.315.447.876.742.561.285 1.475.285 1.255 0 2.035-.58.79-.59.79-1.465 0-.695-.428-1.123-.419-.438-1.094-.666-.666-.228-1.789-.485-1.503-.352-2.52-.818-1.01-.476-1.609-1.285-.59-.818-.59-2.026 0-1.151.628-2.045.628-.895 1.818-1.37 1.189-.486 2.797-.486 1.284 0 2.216.324.942.314 1.56.847.619.523.904 1.103.286.58.286 1.132 0 .505-.362.914-.352.4-.885.4-.485 0-.742-.239-.247-.247-.542-.799-.38-.79-.913-1.227-.533-.447-1.713-.447-1.094 0-1.77.485-.665.476-.665 1.151 0 .419.228.723.229.305.628.523.4.22.809.343.409.124 1.35.361 1.18.276 2.132.61.96.332 1.627.808.675.476 1.046 1.208.38.723.38 1.78zm13.179-8.286v3.996h6.098v-3.996q0-.856.381-1.284.39-.429 1.018-.429.637 0 1.027.429.4.418.4 1.284v10.988q0 .866-.4 1.294-.4.428-1.027.428-.637 0-1.018-.428-.38-.438-.38-1.294v-4.69h-6.099v4.69q0 .866-.4 1.294-.399.428-1.027.428-.637 0-1.018-.428-.38-.438-.38-1.294V360.37q0-.856.37-1.284.381-.429 1.028-.429.638 0 1.028.429.4.418.4 1.284zm21.865 10.988V360.37q0-.856.39-1.284.39-.429 1.01-.429.637 0 1.027.429.4.418.4 1.284v10.988q0 .866-.4 1.294-.39.428-1.028.428-.609 0-1.008-.428-.39-.438-.39-1.294z" style="font-style:normal;font-family:'Arial Rounded MT Bold';-inkscape-font-specification:'Arial Rounded MT Bold, ';fill:#000;fill-opacity:1" transform="matrix(.27152 0 0 .2584 140.871 37.81)"/><path d="M142.628 367.343h-2.588v3.994q0 .857-.4 1.3-.4.442-1.008.442-.638 0-1.028-.433-.39-.443-.39-1.29V360.48q0-.943.428-1.347.429-.404 1.36-.404h3.626q1.607 0 2.473.25.856.24 1.475.799.628.558.951 1.366.324.809.324 1.82 0 2.155-1.313 3.272-1.313 1.107-3.91 1.107zm-.685-6.468h-1.903v4.312h1.903q.999 0 1.664-.212.676-.212 1.028-.693t.352-1.26q0-.934-.542-1.521-.61-.626-2.502-.626z" style="font-style:normal;font-family:'Arial Rounded MT Bold';-inkscape-font-specification:'Arial Rounded MT Bold, ';fill:#000;fill-opacity:1;stroke-width:.264583" transform="matrix(.27152 0 0 .2584 140.871 37.81)"/><path style="font-style:italic;font-size:19.484px;line-height:1.25;font-family:Calibri;-inkscape-font-specification:'Calibri, Italic';font-variant-ligatures:none;text-align:center;letter-spacing:.926042px;word-spacing:0;text-anchor:middle;fill:#000;fill-opacity:1;stroke-width:.799999;stroke-linecap:square;paint-order:fill markers stroke" d="M137.214 358.729h1.731v1.64h-1.731z" transform="matrix(.27152 0 0 .2584 140.871 37.81)"/></g><g aria-label="ANALYSIS" transform="matrix(.57206 0 0 .54442 -82.55 -274.853)" style="font-size:3.83967px;line-height:1.3;font-family:'Arial Rounded MT Bold';-inkscape-font-specification:'Arial Rounded MT Bold, Normal';font-variant-ligatures:none;letter-spacing:0;word-spacing:0;white-space:pre;shape-inside:url(#rect12816-2);fill:#000;fill-opacity:1;stroke-width:.033227"><path d="m464.918 747.645-.131-.345h-1.118l-.13.353q-.078.206-.132.28-.055.07-.178.07-.105 0-.186-.077-.08-.076-.08-.174 0-.056.018-.116.02-.06.062-.167l.703-1.785.072-.184q.043-.108.09-.18.048-.07.125-.114.079-.045.193-.045.117 0 .193.045.08.043.126.113.049.069.08.15.034.078.085.211l.718 1.774q.084.202.084.294 0 .096-.08.177-.079.078-.191.078-.066 0-.113-.024-.047-.023-.079-.062-.031-.041-.069-.124zm-1.102-.763h.82l-.414-1.134zm3.107-1.387 1.07 1.62v-1.635q0-.16.068-.238.07-.08.185-.08.12 0 .19.08.07.078.07.238v2.162q0 .361-.3.361-.076 0-.136-.022-.06-.02-.112-.068-.053-.046-.098-.108l-.09-.13-1.044-1.6v1.61q0 .157-.073.238-.073.08-.188.08-.118 0-.189-.08-.071-.083-.071-.238v-2.12q0-.136.03-.213.035-.084.118-.136.082-.055.178-.055.075 0 .128.025.054.024.093.065.041.041.083.107zm4.176 2.15-.131-.345h-1.118l-.131.353q-.077.206-.131.28-.055.07-.178.07-.105 0-.186-.077-.08-.076-.08-.174 0-.056.018-.116.019-.06.062-.167l.703-1.785.071-.184q.043-.108.09-.18.049-.07.126-.114.079-.045.193-.045.116 0 .193.045.079.043.126.113.048.069.08.15.034.078.085.211l.718 1.774q.084.202.084.294 0 .096-.08.177-.08.078-.192.078-.065 0-.112-.024-.047-.023-.079-.062-.032-.041-.07-.124zm-1.103-.763h.822l-.415-1.134zm2.928-1.383v2h1.128q.135 0 .207.066.073.065.073.165t-.072.165q-.07.062-.208.062h-1.344q-.182 0-.262-.081-.08-.08-.08-.26v-2.117q0-.17.076-.253.077-.085.2-.085.126 0 .203.085.079.082.079.253zm2.179 2.165v-.872l-.671-1.04q-.088-.14-.126-.22-.035-.078-.035-.137 0-.095.073-.164.075-.07.183-.07.115 0 .173.066.06.063.178.257l.514.834.519-.834.079-.13q.032-.052.07-.097.038-.047.085-.071.047-.025.115-.025.105 0 .174.07.071.067.071.157 0 .073-.035.146-.036.073-.122.203l-.688 1.055v.872q0 .17-.079.255-.079.084-.2.084-.124 0-.201-.082-.077-.084-.077-.257zm4.056-.532q0 .249-.13.448-.127.198-.374.31-.248.113-.587.113-.407 0-.671-.153-.188-.11-.306-.295-.116-.185-.116-.36 0-.1.07-.172.07-.073.18-.073.087 0 .147.056.062.056.105.167.053.131.113.22.062.087.172.145.11.057.29.057.248 0 .402-.115.156-.116.156-.288 0-.137-.085-.222-.082-.086-.215-.13-.132-.046-.353-.097-.296-.069-.497-.16-.198-.094-.317-.254-.116-.161-.116-.4 0-.226.124-.402.124-.177.358-.27.234-.096.551-.096.253 0 .437.064.186.062.308.167.121.103.178.217.056.115.056.223 0 .1-.071.18-.07.079-.175.079-.095 0-.146-.047-.049-.049-.107-.157-.075-.156-.18-.242-.105-.088-.337-.088-.216 0-.349.095-.131.094-.131.227 0 .083.045.143.045.06.123.103.08.043.16.067.08.025.266.071.233.055.42.12.19.066.32.16.134.093.207.238.075.142.075.35zm.771.532V745.5q0-.17.077-.253.077-.085.199-.085.125 0 .202.085.079.082.079.253v2.165q0 .17-.079.255-.077.084-.202.084-.12 0-.199-.084-.077-.086-.077-.255zm3.544-.532q0 .249-.13.448-.127.198-.374.31-.248.113-.587.113-.407 0-.671-.153-.188-.11-.306-.295-.116-.185-.116-.36 0-.1.07-.172.07-.073.18-.073.088 0 .148.056.061.056.105.167.052.131.112.22.062.087.173.145.11.057.29.057.248 0 .401-.115.156-.116.156-.288 0-.137-.084-.222-.083-.086-.216-.13-.131-.046-.353-.097-.296-.069-.496-.16-.2-.094-.317-.254-.116-.161-.116-.4 0-.226.123-.402.124-.177.358-.27.235-.096.552-.096.253 0 .436.064.186.062.308.167.122.103.178.217.056.115.056.223 0 .1-.071.18-.07.079-.174.079-.096 0-.147-.047-.048-.049-.106-.157-.075-.156-.18-.242-.105-.088-.338-.088-.216 0-.349.095-.13.094-.13.227 0 .083.044.143.045.06.124.103t.16.067q.08.025.265.071.233.055.42.12.19.066.321.16.133.093.206.238.075.142.075.35z" style="letter-spacing:.276281px;fill:#000;fill-opacity:1"/><path style="opacity:1;fill:#000;fill-opacity:1;stroke-width:.379713;stroke-linecap:square;paint-order:fill markers stroke" d="M472.367 747.687h.386v.27h-.386z"/></g><g aria-label="SOLUTIONS" transform="matrix(.52206 0 0 .54442 -59.372 -271.991)" style="font-size:3.83967px;line-height:1.3;font-family:'Arial Rounded MT Bold';-inkscape-font-specification:'Arial Rounded MT Bold, Normal';font-variant-ligatures:none;letter-spacing:0;word-spacing:0;white-space:pre;shape-inside:url(#rect12816-2-5);fill:#000;fill-opacity:1;stroke-width:.0347816"><path d="M465.248 747.132q0 .249-.13.448-.127.198-.374.31-.248.113-.587.113-.407 0-.671-.153-.188-.11-.306-.295-.116-.185-.116-.36 0-.1.07-.172.07-.073.18-.073.087 0 .147.056.062.056.105.167.053.131.113.22.062.087.172.145.11.057.29.057.248 0 .402-.115.156-.116.156-.288 0-.137-.085-.222-.082-.086-.215-.13-.132-.046-.353-.097-.296-.069-.497-.16-.198-.094-.317-.254-.116-.161-.116-.4 0-.226.124-.402.124-.177.358-.27.234-.096.551-.096.253 0 .437.064.186.062.308.167.121.103.178.217.056.115.056.223 0 .1-.071.18-.07.079-.175.079-.095 0-.146-.047-.049-.049-.107-.157-.075-.156-.18-.242-.105-.088-.337-.088-.216 0-.349.095-.131.094-.131.227 0 .083.045.143.045.06.124.103.078.043.159.067.08.025.266.071.233.055.42.12.19.066.32.16.134.093.207.238.075.142.075.35zm1.682-1.971q.427 0 .733.175.307.172.465.493.157.318.157.75 0 .318-.086.579-.086.26-.259.452-.172.19-.423.292-.252.101-.576.101-.323 0-.578-.103-.254-.105-.425-.294-.17-.19-.259-.456-.086-.266-.086-.575 0-.317.09-.581.092-.265.264-.45.173-.186.42-.283.248-.1.563-.1zm.79 1.414q0-.302-.097-.523-.097-.222-.279-.334-.18-.114-.414-.114-.167 0-.31.063-.14.062-.243.182-.102.12-.162.308-.058.185-.058.418 0 .234.058.423.06.19.167.315.109.124.248.186.14.062.307.062.214 0 .392-.107.18-.107.285-.33.107-.223.107-.55zm1.587-1.076v2h1.129q.135 0 .206.066.073.065.073.165t-.071.165q-.072.062-.208.062h-1.345q-.181 0-.262-.081-.079-.08-.079-.26v-2.117q0-.17.075-.253.077-.085.2-.085.126 0 .203.085.079.082.079.253z" style="fill:#000;fill-opacity:1"/><path style="font-size:3.83967px;line-height:1.3;font-family:'Arial Rounded MT Bold';-inkscape-font-specification:'Arial Rounded MT Bold, Normal';font-variant-ligatures:none;letter-spacing:0;word-spacing:0;white-space:pre;shape-inside:url(#rect12816-2);fill:#000;fill-opacity:1;stroke-width:.397478;stroke-linecap:square;paint-order:fill markers stroke" d="M468.75 747.675h.341v.281h-.341z"/><path d="M470.893 746.82v-1.32q0-.17.075-.253.077-.085.2-.085.13 0 .205.085.077.084.077.253v1.351q0 .231.05.387.053.153.184.24.131.084.368.084.326 0 .46-.173.136-.174.136-.526V745.5q0-.171.075-.253.075-.085.2-.085.126 0 .203.085.079.082.079.253v1.321q0 .323-.064.538-.062.216-.236.38-.15.138-.349.202-.199.063-.465.063-.317 0-.545-.067-.23-.07-.374-.212-.144-.144-.211-.367-.068-.225-.068-.537zm4.698-1.153h-.607v1.997q0 .173-.077.257-.077.082-.199.082-.123 0-.202-.084-.077-.084-.077-.255v-1.997h-.608q-.142 0-.211-.062-.07-.063-.07-.166 0-.107.072-.17.073-.061.21-.061h1.77q.144 0 .213.064.071.063.071.166 0 .104-.07.167-.072.062-.215.062zm.638 1.997V745.5q0-.17.077-.253.077-.085.198-.085.126 0 .203.085.079.082.079.253v2.165q0 .17-.079.255-.077.084-.203.084-.12 0-.198-.084-.077-.086-.077-.255zm2.388-2.503q.428 0 .733.175.308.172.465.493.158.318.158.75 0 .318-.086.579-.086.26-.259.452-.173.19-.424.292-.251.101-.575.101-.323 0-.578-.103-.255-.105-.425-.294-.171-.19-.26-.456-.085-.266-.085-.575 0-.317.09-.581.092-.265.264-.45.173-.186.42-.283.248-.1.562-.1zm.792 1.414q0-.302-.098-.523-.097-.222-.28-.334-.18-.114-.414-.114-.166 0-.309.063-.14.062-.244.182-.1.12-.16.308-.059.185-.059.418 0 .234.058.423.06.19.167.315.109.124.247.186.141.062.308.062.214 0 .392-.107.18-.107.285-.33.107-.223.107-.55zm1.766-1.08 1.07 1.62v-1.635q0-.16.068-.238.07-.08.185-.08.12 0 .19.08.07.078.07.238v2.162q0 .361-.3.361-.076 0-.136-.022-.06-.02-.112-.068-.053-.046-.098-.108l-.09-.13-1.044-1.6v1.61q0 .157-.073.238-.073.08-.188.08-.118 0-.19-.08-.07-.083-.07-.238v-2.12q0-.136.03-.213.035-.084.118-.136.082-.055.178-.055.075 0 .127.025.055.024.094.065.041.041.083.107zm4.28 1.637q0 .249-.13.448-.127.198-.374.31-.248.113-.587.113-.407 0-.671-.153-.188-.11-.306-.295-.116-.185-.116-.36 0-.1.07-.172.07-.073.18-.073.087 0 .147.056.062.056.105.167.053.131.113.22.062.087.172.145.11.057.29.057.248 0 .402-.115.156-.116.156-.288 0-.137-.085-.222-.082-.086-.215-.13-.132-.046-.353-.097-.296-.069-.497-.16-.198-.094-.317-.254-.116-.161-.116-.4 0-.226.124-.402.124-.177.358-.27.234-.096.551-.096.253 0 .437.064.186.062.308.167.121.103.178.217.056.115.056.223 0 .1-.071.18-.07.079-.175.079-.095 0-.146-.047-.049-.049-.107-.157-.075-.156-.18-.242-.105-.088-.337-.088-.216 0-.349.095-.131.094-.131.227 0 .083.045.143.045.06.124.103.078.043.159.067.08.025.266.071.233.055.42.12.19.066.32.16.134.093.207.238.075.142.075.35z" style="fill:#000;fill-opacity:1"/></g><path style="fill:#000;fill-opacity:1;stroke-width:.211903;stroke-linecap:square;paint-order:fill markers stroke" d="M193.547 127.195a.643.612 0 0 0-.643.611.643.612 0 0 0 .643.612.643.612 0 0 0 .642-.612.643.612 0 0 0-.642-.611zm0 .119a.517.492 0 0 1 .517.492.517.492 0 0 1-.517.492.517.492 0 0 1-.518-.492.517.492 0 0 1 .518-.492z"/><g style="font-size:3.34591px;line-height:1.25;font-family:'Arial Rounded MT Bold';-inkscape-font-specification:'Arial Rounded MT Bold, Normal';font-variant-ligatures:none;text-align:center;letter-spacing:0;word-spacing:0;text-anchor:middle;fill:#000;fill-opacity:1;stroke-width:.264583"><path d="M173.096 388.59h-.17v.77c0 .1-.022.175-.067.223a.228.228 0 0 1-.175.072.223.223 0 0 1-.18-.075c-.042-.05-.063-.124-.063-.22v-2.137l1.086-.004c.11 0 .202.005.28.015a.695.695 0 0 1 .408.19.666.666 0 0 1 .176.453c0 .179-.05.321-.152.428-.1.107-.252.183-.457.227a.887.887 0 0 1 .247.203c.078.09.148.185.209.286.062.1.11.19.144.273.035.08.052.136.052.166a.17.17 0 0 1-.031.095.202.202 0 0 1-.082.072.254.254 0 0 1-.12.028.232.232 0 0 1-.138-.04.371.371 0 0 1-.096-.096 4.615 4.615 0 0 1-.108-.173l-.195-.324a1.736 1.736 0 0 0-.187-.27.456.456 0 0 0-.167-.128.575.575 0 0 0-.214-.035zm.278-1.006h-.448v.658h.435c.116 0 .214-.01.294-.03a.33.33 0 0 0 .18-.102.296.296 0 0 0 .065-.201.305.305 0 0 0-.192-.29c-.056-.023-.168-.035-.334-.035z" style="fill:#000;fill-opacity:1" transform="matrix(.27152 0 0 .2584 135.483 20.98)" aria-label="R"/></g><g style="font-size:4.56936px;line-height:1.25;font-family:'Arial Rounded MT Bold';-inkscape-font-specification:'Arial Rounded MT Bold, Normal';font-variant-ligatures:none;text-align:center;letter-spacing:0;word-spacing:0;text-anchor:middle;fill:#000;fill-opacity:1;stroke-width:.264583"><path d="M189.827 411.412q0 .114-.069.243-.067.13-.207.248-.139.116-.35.188-.213.07-.478.07-.565 0-.882-.327-.316-.33-.316-.884 0-.374.145-.662.145-.288.42-.444.274-.159.655-.159.237 0 .433.07.198.069.335.178.138.11.21.234.073.123.073.23 0 .11-.083.185-.08.076-.196.076-.076 0-.127-.038-.05-.04-.112-.127-.111-.17-.234-.254-.12-.085-.308-.085-.27 0-.435.212-.165.21-.165.576 0 .171.042.316.043.143.123.246.08.1.194.154.114.051.25.051.183 0 .312-.085.132-.084.233-.258.055-.103.12-.161.065-.058.158-.058.112 0 .186.085.073.084.073.18z" style="fill:#000;fill-opacity:1" transform="matrix(.27152 0 0 .2584 142.318 21.625)" aria-label="c"/></g><path style="fill:#000;fill-opacity:1;stroke-width:.211903;stroke-linecap:square;paint-order:fill markers stroke" d="M182.575 120.74a.643.612 0 0 0-.643.612.643.612 0 0 0 .643.612.643.612 0 0 0 .642-.612.643.612 0 0 0-.642-.611zm0 .12a.517.492 0 0 1 .517.492.517.492 0 0 1-.517.492.517.492 0 0 1-.517-.492.517.492 0 0 1 .517-.492z"/><text xml:space="preserve" style="font-style:normal;font-weight:400;font-size:4.93889px;line-height:1.25;font-family:Arial;fill:#000;fill-opacity:1;stroke:none;stroke-width:.264583;-inkscape-font-specification:'Arial, Normal';font-stretch:normal;font-variant:normal;font-variant-ligatures:normal;font-variant-caps:normal;font-variant-numeric:normal;font-variant-east-asian:normal" x="196.1" y="122.86"><tspan style="font-size:4.93888973px;stroke-width:.264583;-inkscape-font-specification:'Arial, Normal';font-family:Arial;font-weight:400;font-style:normal;font-stretch:normal;font-variant:normal;font-variant-ligatures:normal;font-variant-caps:normal;font-variant-numeric:normal;font-variant-east-asian:normal" x="196.1" y="122.86">urbancruiseship.org</tspan><tspan style="font-size:4.93888973px;stroke-width:.264583;-inkscape-font-specification:'Arial, Normal';font-family:Arial;font-weight:400;font-style:normal;font-stretch:normal;font-variant:normal;font-variant-ligatures:normal;font-variant-caps:normal;font-variant-numeric:normal;font-variant-east-asian:normal" x="196.1" y="129.033">Exhibit constructed by</tspan><tspan style="font-size:4.93888973px;stroke-width:.264583;-inkscape-font-specification:'Arial, Normal';font-family:Arial;font-weight:400;font-style:normal;font-stretch:normal;font-variant:normal;font-variant-ligatures:normal;font-variant-caps:normal;font-variant-numeric:normal;font-variant-east-asian:normal" x="196.1" y="135.207">Richard Burd 1-3-2023</tspan></text><text xml:space="preserve" style="font-style:normal;font-variant:normal;font-weight:700;font-stretch:normal;font-size:3.83142px;line-height:1.1;font-family:Arial;-inkscape-font-specification:'Arial, Bold';font-variant-ligatures:normal;font-variant-caps:normal;font-variant-numeric:normal;font-variant-east-asian:normal;text-align:end;letter-spacing:0;word-spacing:0;writing-mode:lr-tb;text-anchor:end;fill:#000;fill-opacity:1;stroke:none;stroke-width:1.00522" x="137.872" y="74.041" transform="scale(.9948 1.00522)"><tspan x="137.872" y="74.041" style="font-style:normal;font-variant:normal;font-weight:700;font-stretch:normal;font-size:3.83142px;font-family:Arial;-inkscape-font-specification:'Arial, Bold';font-variant-ligatures:normal;font-variant-caps:normal;font-variant-numeric:normal;font-variant-east-asian:normal;stroke-width:1.00522"><tspan x="137.872" y="74.041" style="font-style:normal;font-variant:normal;font-weight:700;font-stretch:normal;font-size:3.83142px;font-family:Arial;-inkscape-font-specification:'Arial, Bold';font-variant-ligatures:normal;font-variant-caps:normal;font-variant-numeric:normal;font-variant-east-asian:normal;text-align:start;text-anchor:start;stroke-width:1.00522">Monthly loan repayment is structured so as to  </tspan></tspan><tspan x="137.872" y="78.256" style="font-style:normal;font-variant:normal;font-weight:700;font-stretch:normal;font-size:3.83142px;font-family:Arial;-inkscape-font-specification:'Arial, Bold';font-variant-ligatures:normal;font-variant-caps:normal;font-variant-numeric:normal;font-variant-east-asian:normal;stroke-width:1.00522"><tspan x="137.872" y="78.256" style="font-style:normal;font-variant:normal;font-weight:700;font-stretch:normal;font-size:3.83142px;font-family:Arial;-inkscape-font-specification:'Arial, Bold';font-variant-ligatures:normal;font-variant-caps:normal;font-variant-numeric:normal;font-variant-east-asian:normal;text-align:start;text-anchor:start;stroke-width:1.00522">be equivalent to the difference between the </tspan></tspan><tspan x="137.872" y="82.47" style="font-style:normal;font-variant:normal;font-weight:700;font-stretch:normal;font-size:3.83142px;font-family:Arial;-inkscape-font-specification:'Arial, Bold';font-variant-ligatures:normal;font-variant-caps:normal;font-variant-numeric:normal;font-variant-east-asian:normal;stroke-width:1.00522"><tspan x="137.872" y="82.47" style="font-style:normal;font-variant:normal;font-weight:700;font-stretch:normal;font-size:3.83142px;font-family:Arial;-inkscape-font-specification:'Arial, Bold';font-variant-ligatures:normal;font-variant-caps:normal;font-variant-numeric:normal;font-variant-east-asian:normal;text-align:start;text-anchor:start;stroke-width:1.00522">company&apos;s old and new energy consumption </tspan></tspan><tspan x="137.872" y="86.685" style="font-style:normal;font-variant:normal;font-weight:700;font-stretch:normal;font-size:3.83142px;font-family:Arial;-inkscape-font-specification:'Arial, Bold';font-variant-ligatures:normal;font-variant-caps:normal;font-variant-numeric:normal;font-variant-east-asian:normal;stroke-width:1.00522"><tspan x="137.872" y="86.685" style="font-style:normal;font-variant:normal;font-weight:700;font-stretch:normal;font-size:3.83142px;font-family:Arial;-inkscape-font-specification:'Arial, Bold';font-variant-ligatures:normal;font-variant-caps:normal;font-variant-numeric:normal;font-variant-east-asian:normal;text-align:start;text-anchor:start;stroke-width:1.00522">expenses (pre and post construction) </tspan></tspan></text></svg>