<svg width="255mm" height="138mm" viewBox="0 0 255 138" xmlns="http://www.w3.org/2000/svg"><defs><marker id="b" overflow="visible" orient="auto"><path d="M-1.926-1.21 1.352-.005l-3.278 1.206a2.05 2.05 0 0 0 0-2.411z" fill="#636363" fill-rule="evenodd" stroke="#636363" stroke-linejoin="round" stroke-width=".1875"/></marker><marker id="c" overflow="visible" orient="auto"><path d="M-1.926-1.21 1.352-.005l-3.278 1.206a2.05 2.05 0 0 0 0-2.411z" fill="#636363" fill-rule="evenodd" stroke="#636363" stroke-linejoin="round" stroke-width=".1875"/></marker><marker id="d" overflow="visible" orient="auto"><path d="M-1.926-1.21 1.352-.005l-3.278 1.206a2.05 2.05 0 0 0 0-2.411z" fill="#636363" fill-rule="evenodd" stroke="#636363" stroke-linejoin="round" stroke-width=".1875"/></marker><marker id="e" overflow="visible" orient="auto"><path d="M-1.926-1.21 1.352-.005l-3.278 1.206a2.05 2.05 0 0 0 0-2.411z" fill-rule="evenodd" stroke="#000" stroke-linejoin="round" stroke-width=".1875"/></marker><marker id="f" overflow="visible" orient="auto"><path d="M-1.926-1.21 1.352-.005l-3.278 1.206a2.05 2.05 0 0 0 0-2.411z" fill-rule="evenodd" stroke="#000" stroke-linejoin="round" stroke-width=".1875"/></marker><linearGradient id="a" x1="542.56" x2="550.64" y1="126.52" y2="126.52" gradientTransform="translate(-299.04 -31.658)" gradientUnits="userSpaceOnUse"><stop stop-color="#262626" offset="0"/><stop stop-color="#262626" stop-opacity="0" offset="1"/></linearGradient></defs><path fill="#fff" fill-opacity=".519" stroke="#000" stroke-linecap="square" stroke-width=".541" style="paint-order:fill markers stroke" d="M.27.27h254.46v137.46H.27z"/><path d="M222.39 113.48V46.245" fill="none" stroke="#000" stroke-linecap="round" stroke-linejoin="round" stroke-width=".5"/><text transform="rotate(-45) scale(.9948 1.00522)" x="129.111" y="190.379" font-family="Arial" font-size="3.831" font-weight="bold" letter-spacing="0" stroke-width="1.005" text-anchor="end" word-spacing="0" style="font-variant-caps:normal;font-variant-east-asian:normal;font-variant-ligatures:normal;font-variant-numeric:normal;line-height:1.1" xml:space="preserve"><tspan x="129.111" y="190.379" style="font-variant-caps:normal;font-variant-east-asian:normal;font-variant-ligatures:normal;font-variant-numeric:normal"><tspan x="129.111" y="190.379" text-anchor="start" style="font-variant-caps:normal;font-variant-east-asian:normal;font-variant-ligatures:normal;font-variant-numeric:normal">loan fully repaid</tspan></tspan></text><circle cx="222.39" cy="45.996" r=".882" style="paint-order:fill markers stroke"/><path fill="url(#a)" style="paint-order:fill markers stroke" d="M134.92 89.53h118.96v10.664H134.92z"/><text transform="scale(.9948 1.0052)" x="34.078" y="93.531" fill="#fff" font-family="Arial" font-size="3.831" font-weight="bold" letter-spacing="0" stroke-width="1.005" word-spacing="0" style="font-variant-caps:normal;font-variant-east-asian:normal;font-variant-ligatures:normal;font-variant-numeric:normal;line-height:1.1" xml:space="preserve"><tspan x="137.156" y="93.531" style="font-variant-caps:normal;font-variant-east-asian:normal;font-variant-ligatures:normal;font-variant-numeric:normal"><tspan x="137.156" y="93.531" style="font-variant-caps:normal;font-variant-east-asian:normal;font-variant-ligatures:normal;font-variant-numeric:normal">construction complete, company is now recycling industrial </tspan></tspan><tspan x="145.065" y="97.746" style="font-variant-caps:normal;font-variant-east-asian:normal;font-variant-ligatures:normal;font-variant-numeric:normal"><tspan x="145.065" y="97.746" style="font-variant-caps:normal;font-variant-east-asian:normal;font-variant-ligatures:normal;font-variant-numeric:normal">waste heat which allows it to consume less energy</tspan></tspan></text><g fill="none" stroke="#636363" stroke-width="1.377"><path d="M83.027 80.633c0-21.307-19.841-30.003-49.543-24.01" marker-end="url(#b)"/><path d="M118.01 70.701c0-35.058-34.902-35.335-84.622-21.11" marker-end="url(#c)"/><path d="M47.294 92.25c0-11.831-2.91-22.52-14.09-27.658" marker-end="url(#d)"/></g><path fill="#262626" style="paint-order:fill markers stroke" d="M99.964 56.376h34.955V67.04H99.964zM65.009 67.04h34.955v10.664H65.009z"/><path d="M30.304 113.48V46.245" fill="none" stroke="#000" stroke-linecap="round" stroke-linejoin="round" stroke-width=".5"/><path fill="#262626" style="paint-order:fill markers stroke" d="M30.054 77.704h34.955v10.664H30.054z"/><text transform="scale(.9948 1.0052)" x="12.514" y="81.767" fill="#fff" font-family="Arial" font-size="3.831" font-weight="bold" letter-spacing="0" stroke-width="1.005" word-spacing="0" style="font-variant-caps:normal;font-variant-east-asian:normal;font-variant-ligatures:normal;font-variant-numeric:normal;line-height:1.1" xml:space="preserve"><tspan x="35.861" y="81.767" style="font-variant-caps:normal;font-variant-east-asian:normal;font-variant-ligatures:normal;font-variant-numeric:normal"><tspan x="35.861" y="81.767" dx="0 0 0 0 0 0 0 0 0 0 0 0 0" style="font-variant-caps:normal;font-variant-east-asian:normal;font-variant-ligatures:normal;font-variant-numeric:normal">pre-shutdown</tspan></tspan><tspan x="36.862" y="85.981" style="font-variant-caps:normal;font-variant-east-asian:normal;font-variant-ligatures:normal;font-variant-numeric:normal"><tspan x="36.862" y="85.981" style="font-variant-caps:normal;font-variant-east-asian:normal;font-variant-ligatures:normal;font-variant-numeric:normal">construction</tspan></tspan></text><path d="m64.88 106.86-3.063-2.975v.932H8.813v4.086h53.004v.932z" fill="#737373"/><text transform="scale(.9948 1.0052)" x="10.805" y="107.634" fill="#fff" font-family="'MV Boli'" font-size="3.947" font-style="italic" letter-spacing=".444" stroke-width=".976" text-anchor="end" word-spacing="0" style="font-feature-settings:normal;font-variant-caps:normal;font-variant-ligatures:normal;font-variant-numeric:normal;line-height:1.1" xml:space="preserve"><tspan x="10.805" y="107.634"><tspan x="10.805" y="107.634" font-family="Arial" font-size="3.714" font-style="normal" font-weight="bold" text-anchor="start">COMPANY PRODUCTION</tspan></tspan></text><path d="M8.249 113.21h220.6" fill="none" marker-end="url(#e)" stroke="#000" stroke-width="1.377"/><path d="M8.307 113.36V47.049" fill="none" marker-end="url(#f)" stroke="#000" stroke-width="1.377"/><text transform="matrix(0 -.9948 1.0052 0 0 0)" x="-42.95" y="9.176" font-family="Arial" font-size="3.831" font-weight="bold" letter-spacing="0" stroke-width="1.005" text-anchor="end" word-spacing="0" style="font-variant-caps:normal;font-variant-east-asian:normal;font-variant-ligatures:normal;font-variant-numeric:normal;line-height:1.1" xml:space="preserve"><tspan x="-42.95" y="9.176" style="font-variant-caps:normal;font-variant-east-asian:normal;font-variant-ligatures:normal;font-variant-numeric:normal"><tspan x="-42.95" y="9.176" text-anchor="start" style="font-variant-caps:normal;font-variant-east-asian:normal;font-variant-ligatures:normal;font-variant-numeric:normal">money axis</tspan></tspan></text><circle cx="8.307" cy="113.21" r="1.907" style="paint-order:fill markers stroke"/><g letter-spacing="0" stroke-width="1.005" word-spacing="0" font-size="3.831"><text x="233.226" y="113.644" font-family="'MV Boli'" font-style="italic" text-anchor="end" style="font-feature-settings:normal;font-variant-caps:normal;font-variant-ligatures:normal;font-variant-numeric:normal;line-height:1.1" xml:space="preserve" transform="scale(.9948 1.0052)"><tspan x="233.226" y="113.644"><tspan x="233.226" y="113.644" font-family="Arial" font-size="3.606" font-style="normal" font-weight="bold" text-anchor="start">time axis</tspan></tspan></text><text x="43.198" y="70.8" fill="#fff" font-family="Arial" font-weight="bold" style="font-variant-caps:normal;font-variant-east-asian:normal;font-variant-ligatures:normal;font-variant-numeric:normal;line-height:1.1" xml:space="preserve" transform="scale(.9948 1.0052)"><tspan x="72.047" y="70.8" style="font-variant-caps:normal;font-variant-east-asian:normal;font-variant-ligatures:normal;font-variant-numeric:normal"><tspan x="72.047" y="70.8" dx="0 0 0 0 0 0 0 0 0 0 0 0 0" style="font-variant-caps:normal;font-variant-east-asian:normal;font-variant-ligatures:normal;font-variant-numeric:normal">construction</tspan></tspan><tspan x="68.345" y="75.015" style="font-variant-caps:normal;font-variant-east-asian:normal;font-variant-ligatures:normal;font-variant-numeric:normal"><tspan x="68.345" y="75.015" style="font-variant-caps:normal;font-variant-east-asian:normal;font-variant-ligatures:normal;font-variant-numeric:normal">during shutdown</tspan></tspan></text><text x="79.789" y="60.55" fill="#fff" font-family="Arial" font-weight="bold" style="font-variant-caps:normal;font-variant-east-asian:normal;font-variant-ligatures:normal;font-variant-numeric:normal;line-height:1.1" xml:space="preserve" transform="scale(.9948 1.0052)"><tspan x="105.136" y="60.55" style="font-variant-caps:normal;font-variant-east-asian:normal;font-variant-ligatures:normal;font-variant-numeric:normal"><tspan x="105.136" y="60.55" dx="0 0 0 0 0 0 0 0 0 0 0 0 0 0" style="font-variant-caps:normal;font-variant-east-asian:normal;font-variant-ligatures:normal;font-variant-numeric:normal">post-shutdown</tspan></tspan><tspan x="107.136" y="64.764" style="font-variant-caps:normal;font-variant-east-asian:normal;font-variant-ligatures:normal;font-variant-numeric:normal"><tspan x="107.136" y="64.764" style="font-variant-caps:normal;font-variant-east-asian:normal;font-variant-ligatures:normal;font-variant-numeric:normal">construction</tspan></tspan></text></g><path d="M65.009 113.48V46.245M134.98 113.48V46.245" fill="none" stroke="#000" stroke-linecap="round" stroke-linejoin="round" stroke-width=".5"/><text transform="rotate(-45) scale(.9948 1.00522)" x="-8.084" y="54.606" font-family="Arial" font-size="3.831" font-weight="bold" letter-spacing="0" stroke-width="1.005" text-anchor="end" word-spacing="0" style="font-variant-caps:normal;font-variant-east-asian:normal;font-variant-ligatures:normal;font-variant-numeric:normal;line-height:1.1" xml:space="preserve"><tspan x="-8.084" y="54.606" style="font-variant-caps:normal;font-variant-east-asian:normal;font-variant-ligatures:normal;font-variant-numeric:normal"><tspan x="-8.084" y="54.606" text-anchor="start" style="font-variant-caps:normal;font-variant-east-asian:normal;font-variant-ligatures:normal;font-variant-numeric:normal">construction start date</tspan></tspan></text><text transform="rotate(-45) scale(.9948 1.00522)" x="66.978" y="128.89" font-family="Arial" font-size="3.831" font-weight="bold" letter-spacing="0" stroke-width="1.005" text-anchor="end" word-spacing="0" style="font-variant-caps:normal;font-variant-east-asian:normal;font-variant-ligatures:normal;font-variant-numeric:normal;line-height:1.1" xml:space="preserve"><tspan x="66.978" y="128.89" style="font-variant-caps:normal;font-variant-east-asian:normal;font-variant-ligatures:normal;font-variant-numeric:normal"><tspan x="66.978" y="128.89" text-anchor="start" style="font-variant-caps:normal;font-variant-east-asian:normal;font-variant-ligatures:normal;font-variant-numeric:normal">construction finish date</tspan></tspan></text><circle cx="30.304" cy="45.996" r=".882" style="paint-order:fill markers stroke"/><circle cx="134.98" cy="45.996" r=".882" style="paint-order:fill markers stroke"/><path d="M47.294 91.034 33.57 99.211h4.299v2.188h18.852v-2.188h4.298z" fill="#636363"/><text transform="scale(.9948 1.0052)" x="32.724" y="98.229" fill="#fff" font-family="'MV Boli'" font-size="3.831" font-style="italic" letter-spacing="0" stroke-width="1.005" text-anchor="end" word-spacing="0" style="font-feature-settings:normal;font-variant-caps:normal;font-variant-ligatures:normal;font-variant-numeric:normal;line-height:1.1" xml:space="preserve"><tspan x="42.496" y="98.229" text-anchor="start"><tspan x="42.496" y="98.229" font-family="Arial" font-size="3.606" font-style="normal" font-weight="bold">COST</tspan></tspan></text><path d="M83.137 80.103 69.413 88.28h4.299v12.772h18.852V88.28h4.298z" fill="#636363"/><text transform="scale(.9948 1.0052)" x="68.755" y="93.672" fill="#fff" font-family="'MV Boli'" font-size="3.831" font-style="italic" letter-spacing="0" stroke-width="1.005" text-anchor="end" word-spacing="0" style="font-feature-settings:normal;font-variant-caps:normal;font-variant-ligatures:normal;font-variant-numeric:normal;line-height:1.1" xml:space="preserve"><tspan x="78.526" y="93.672" text-anchor="start"><tspan x="78.526" y="93.672" font-family="Arial" font-size="3.606" font-style="normal" font-weight="bold">COST</tspan></tspan></text><path d="m117.93 69.652-13.724 8.177h4.299v22.958h18.852V77.83h4.298z" fill="#636363"/><text transform="scale(.9948 1.0052)" x="103.729" y="88.408" fill="#fff" font-family="'MV Boli'" font-size="3.831" font-style="italic" letter-spacing="0" stroke-width="1.005" text-anchor="end" word-spacing="0" style="font-feature-settings:normal;font-variant-caps:normal;font-variant-ligatures:normal;font-variant-numeric:normal;line-height:1.1" xml:space="preserve"><tspan x="113.5" y="88.408" text-anchor="start"><tspan x="113.5" y="88.408" font-family="Arial" font-size="3.606" font-style="normal" font-weight="bold">COST</tspan></tspan></text><g><text transform="scale(.9948 1.0052)" x="46.328" y="105.223" font-family="'MV Boli'" font-size="3.831" font-style="italic" letter-spacing="0" stroke-width="1.005" word-spacing="0" style="font-feature-settings:normal;font-variant-caps:normal;font-variant-ligatures:normal;font-variant-numeric:normal;line-height:1.1" xml:space="preserve"><tspan x="72.064" y="105.223"><tspan x="72.064" y="105.223" font-family="Arial" font-size="3.606" font-style="normal" font-weight="bold">loan pays for </tspan></tspan><tspan x="70.166" y="109.437"><tspan x="70.166" y="109.437" font-family="Arial" font-size="3.606" font-style="normal" font-weight="bold">lost production</tspan></tspan></text><text transform="scale(.9948 1.0052)" x="6.391" y="119.857" font-family="Arial" font-size="3.831" font-weight="bold" letter-spacing="0" stroke-width="1.005" text-anchor="end" word-spacing="0" style="font-variant-caps:normal;font-variant-east-asian:normal;font-variant-ligatures:normal;font-variant-numeric:normal;line-height:1.1" xml:space="preserve"><tspan x="6.391" y="119.857" style="font-variant-caps:normal;font-variant-east-asian:normal;font-variant-ligatures:normal;font-variant-numeric:normal"><tspan x="6.391" y="119.857" text-anchor="start" style="font-variant-caps:normal;font-variant-east-asian:normal;font-variant-ligatures:normal;font-variant-numeric:normal">The loan pays for all construction costs as well as production-losses up </tspan></tspan><tspan x="6.391" y="124.071" style="font-variant-caps:normal;font-variant-east-asian:normal;font-variant-ligatures:normal;font-variant-numeric:normal"><tspan x="6.391" y="124.071" text-anchor="start" style="font-variant-caps:normal;font-variant-east-asian:normal;font-variant-ligatures:normal;font-variant-numeric:normal">front (prior to the start of construction) and is not due until the company </tspan></tspan><tspan x="6.391" y="128.286" style="font-variant-caps:normal;font-variant-east-asian:normal;font-variant-ligatures:normal;font-variant-numeric:normal"><tspan x="6.391" y="128.286" text-anchor="start" style="font-variant-caps:normal;font-variant-east-asian:normal;font-variant-ligatures:normal;font-variant-numeric:normal">starts saving money from the waste heat recycling equipment that was </tspan></tspan><tspan x="6.391" y="132.501" style="font-variant-caps:normal;font-variant-east-asian:normal;font-variant-ligatures:normal;font-variant-numeric:normal"><tspan x="6.391" y="132.501" text-anchor="start" style="font-variant-caps:normal;font-variant-east-asian:normal;font-variant-ligatures:normal;font-variant-numeric:normal">installed during construction.</tspan></tspan></text><text x="48.763" y="9.19" font-family="Calibri" font-size="10.583" font-weight="bold" stroke-width=".265" style="font-variant-caps:normal;font-variant-east-asian:normal;font-variant-ligatures:normal;font-variant-numeric:normal;line-height:1.25" xml:space="preserve"><tspan x="48.763" y="9.19" style="font-variant-caps:normal;font-variant-east-asian:normal;font-variant-ligatures:normal;font-variant-numeric:normal">Industrial Heat Loan Recovery Program</tspan></text></g><path d="m246.19 106.86-3.063-2.975v.932h-143.06v4.086h143.06v.932z" fill="#737373"/><text transform="scale(.9948 1.0052)" x="147.411" y="107.634" fill="#fff" font-family="'MV Boli'" font-size="3.947" font-style="italic" letter-spacing=".444" stroke-width=".976" text-anchor="end" word-spacing="0" style="font-feature-settings:normal;font-variant-caps:normal;font-variant-ligatures:normal;font-variant-numeric:normal;line-height:1.1" xml:space="preserve"><tspan x="147.411" y="107.634"><tspan x="147.411" y="107.634" font-family="Arial" font-size="3.714" font-style="normal" font-weight="bold" text-anchor="start">COMPANY PRODUCTION</tspan></tspan></text><path d="M30.273 63.163V50.715" fill="none" stroke="#000" stroke-linecap="round" stroke-linejoin="round" stroke-width="1.655"/><path d="m177.84 65.954 13.724-8.177h-4.299v-6.223h-18.852v6.223h-4.298z" fill="#636363"/><path d="M99.962 113.48V46.245" fill="none" stroke="#000" stroke-linecap="round" stroke-linejoin="round" stroke-width=".5"/><text transform="scale(.9948 1.0052)" x="160.788" y="56.303" fill="#fff" font-family="'MV Boli'" font-size="3.831" font-style="italic" letter-spacing="0" stroke-width="1.005" word-spacing="0" style="font-feature-settings:normal;font-variant-caps:normal;font-variant-ligatures:normal;font-variant-numeric:normal;line-height:1.1" xml:space="preserve"><tspan x="172.495" y="56.303"><tspan x="172.495" y="56.303" font-family="Arial" font-size="3.606" font-style="normal" font-weight="bold">REPAY </tspan></tspan><tspan x="173.267" y="60.517"><tspan x="173.267" y="60.517" font-family="Arial" font-size="3.606" font-style="normal" font-weight="bold">LOAN</tspan></tspan></text><g><path d="M144.09 135.65c-.263-.029-.106-.15.566-.438.368-.158.778-.344.91-.412.22-.115.285-.125.84-.133.477-.007.623-.025.716-.087.148-.098.308-.104.27-.01-.023.057.031.069.324.069.425 0 .66.04.639.108-.009.028-.194.137-.413.242a23.25 22.126 0 0 0-.836.428l-.438.237-1.221.005a35.449 35.449 0 0 1-1.357-.01zm1.252-.168c.013-.012-.184-.022-.44-.022-.268 0-.462.018-.462.044 0 .045.854.024.902-.022zm1.345.004c-.04-.036-.741-.055-.882-.024-.087.02.063.034.379.037.288.003.514-.003.503-.012zm-1.023-.167c.036-.056-.749-.053-.84.004-.05.03.07.042.37.04.243-.001.455-.021.47-.044zm1.327-.005c.033-.02-.178-.036-.468-.036-.368 0-.505.014-.455.046.083.052.833.044.923-.01zm-.949-.18c.054-.047-.156-.05-.608-.01-.178.016-.323.046-.323.067 0 .05.87-.004.931-.057zm1.272.006c.048-.03-.085-.044-.42-.045-.295 0-.49.018-.49.045 0 .06.813.06.91 0zm-.91-.18c0-.05-.792-.039-.845.011-.018.018.164.032.406.032.246 0 .439-.019.439-.043zm1.269-.002c.019-.03-.135-.046-.428-.046-.274 0-.458.019-.458.046s.174.045.428.045c.235 0 .441-.02.458-.045zm-1.054-.137c.062-.025-.051-.038-.324-.036-.231.001-.432.02-.446.042-.033.051.643.046.77-.006zm1.042-.033a2.746 2.613 0 0 0-.407 0c-.112.01-.02.017.203.017.224 0 .316-.008.204-.017zm.155.831a2.598 2.473 0 0 0-.179-.043c-.168-.035-.166-.078.005-.174.108-.06.204-.071.449-.05.184.017.41.005.553-.027l.242-.055-.116-.162c-.144-.203-.15-.461-.016-.742l.098-.205-.11-.084a2.292 2.292 0 0 0-.858-.391c-.21-.052-.306-.091-.236-.097.112-.009.11-.011-.023-.04-.08-.017-.155-.018-.168-.003a.317.317 0 0 1-.107.057c-.143.05-.264.3-.3.615-.022.2-.047.278-.074.233-.055-.094.016-.555.106-.685a.484.484 0 0 0 .077-.148c.002-.022.031-.06.066-.083.044-.028.028-.032-.047-.012-.175.047-.78-.023-.74-.086.018-.028-.02-.02-.085.021-.144.09-.253.378-.215.572a.98.98 0 0 0 .145.308l.117.164h-.144c-.129 0-.158-.027-.26-.24-.099-.207-.107-.268-.068-.464.056-.282.14-.404.382-.557.19-.12.203-.121 1.04-.122.752 0 .884.012 1.152.1.557.185.732.34 1.134 1.004.18.297.232.427.232.58 0 .264-.092.35-.51.478-.19.058-.377.14-.416.183-.114.124-.887.23-1.126.155zm1.422-.568c.124-.032.234-.081.245-.11.012-.028-.057-.168-.152-.31-.318-.476-.532-.458-.57.046-.023.29.088.552.2.471.029-.022.154-.065.277-.097zm-.397-1.05c-.244-.2-1-.51-1-.412 0 .02.073.05.162.066.212.038.709.275.82.392.047.05.097.081.11.07.012-.013-.029-.065-.092-.116zm11.324 1.423c-.036-.022-.052-.172-.045-.443.012-.447-.04-2.254-.086-3.054a141.65 134.81 0 0 1-.078-1.732 80.008 80.008 0 0 0-.073-1.573 65.624 65.624 0 0 0-.188-2.096 7.361 7.005 0 0 1-.049-.365 28.135 28.135 0 0 0-.626-3.327c-.323-1.215-.81-2.02-1.398-2.313-.404-.202-.726-.263-1.353-.257-2.543-.003-5.61 1.392-6.308 2.79-.487.975.425 2.33 1.25 3.348.673.788.77.906.788.95.034.083.109.035.08-.051-.018-.053-.01-.092.02-.092.029 0 .052-.03.052-.068 0-.038-.043-.068-.096-.068-.053 0-.096-.021-.096-.046 0-.066.107-.056.223.021.054.037.113.054.13.038.052-.05.033-.187-.03-.212-.032-.013.013-.011.102.003.126.021.158.012.14-.037-.012-.035-.069-.07-.126-.078-.121-.018-.132-.066-.033-.145.092-.073.307-.022.347.08.016.044.07.128.118.189.05.062.077.146.06.194-.02.062-.003.084.068.084.054 0 .111.022.129.048.05.078.412-.002.566-.125.125-.1.146-.103.22-.04.123.107.152.034.037-.092-.09-.099-.108-.103-.18-.042-.09.078-.19.09-.19.023 0-.025.017-.046.04-.046.022 0 .064-.051.094-.114.03-.062.089-.114.13-.114.086 0 .358-.265.358-.349 0-.03-.043-.068-.096-.084-.052-.016-.096-.058-.096-.093 0-.047-.038-.057-.143-.037-.112.021-.144.011-.144-.045 0-.076-.18-.193-.227-.148-.015.015-.025.099-.022.188.004.106-.023.186-.081.233-.07.057-.08.104-.051.23.028.117.02.163-.03.181-.116.042-.211-.022-.211-.142 0-.085-.032-.122-.122-.143-.13-.031-.245-.2-.262-.383-.017-.192-.005-.215.146-.275.122-.048.285-.242.285-.34 0-.026-.215-.003-.437.047-.092.022-.18-.005-.328-.098-.166-.105-.271-.132-.597-.152-.237-.016-.428-.052-.478-.09-.072-.058-.103-.056-.25.02-.143.073-.174.076-.211.02-.078-.119-.049-.155.257-.32.846-.458 1.716-.685 2.62-.685.746.001 1.37.118 2.106.394.398.149 1.256.723 1.6 1.07.317.32.73.879.927 1.252.488.93.673 2.368.442 3.446-.223 1.039-.677 1.836-1.48 2.595a4.913 4.913 0 0 1-1.8 1.084c-.963.323-2.217.368-3.185.113-.327-.086-.958-.33-.958-.372 0-.016.043-.055.095-.086.08-.048.153-.035.462.082.2.076.375.129.387.118.011-.011 0-.058-.025-.105-.088-.164-.153-.413-.181-.702a11.89 11.315 0 0 0-.05-.43 3.53 3.53 0 0 1 .028-1.04c.06-.3.06-.313-.047-.42a.606.606 0 0 0-.21-.14c-.168-.048-.315-.208-.315-.343 0-.07-.043-.232-.096-.359-.115-.279-.122-.489-.019-.597.1-.104.047-.195-.076-.132a.436.436 0 0 1-.158.046c-.08 0-.274-.152-.274-.215 0-.024-.052-.067-.117-.095-.105-.045-.112-.066-.072-.199.042-.14.032-.159-.182-.34-.153-.128-.232-.17-.243-.127-.03.125-.1.06-.25-.231-.128-.247-.15-.333-.13-.523.013-.137.002-.233-.028-.243-.029-.009-.005-.077.055-.157a.568.568 0 0 0 .105-.189c0-.027.065-.118.144-.204a.825.825 0 0 0 .144-.185c0-.017.035-.106.078-.2a1.74 1.74 0 0 0 .093-.23c.024-.11.05-.1.225.084.105.112.145.182.103.182-.037 0-.068.017-.068.038 0 .021-.065.038-.144.038-.079 0-.15.01-.156.02-.007.01-.062.104-.122.21-.108.19-.108.19-.01.24.134.07.121.177-.029.231-.088.032-.145.03-.192-.007-.051-.04-.066-.036-.066.022 0 .04.028.074.06.075.04 0 .036.015-.012.045-.064.04-.064.05 0 .09.062.039.06.045-.012.046-.069 0-.082.039-.076.217.006.166.013.182.028.068.023-.182.084-.189.176-.02.038.071.104.156.145.19.06.046.064.073.02.123-.045.052-.02.1.129.245.101.099.207.18.235.18.027-.001-.004-.042-.07-.091-.111-.083-.113-.09-.022-.09.063-.001.1-.034.105-.092.004-.05-.013-.092-.038-.092s-.045-.033-.045-.073c0-.155.131.029.158.22.015.106.061.215.102.244.108.075.093.122-.028.086-.089-.027-.098-.017-.073.074.016.058.009.13-.017.158-.03.035-.01.07.064.107.06.03.13.1.155.155.025.055.09.108.142.117.092.016.092.013.01-.073-.046-.05-.071-.121-.056-.16.016-.039.005-.084-.023-.1-.082-.05-.058-.129.03-.097.043.016.097.003.118-.03.06-.09.048-.138-.03-.11-.038.014-.083.006-.098-.018-.016-.024-.003-.044.027-.044.032 0 .043-.031.026-.073-.02-.051-.009-.066.04-.049a.074.07 0 0 0 .094-.04.11.11 0 0 1 .092-.066c.037 0 .105-.04.153-.09.084-.089.083-.092-.004-.09a.39.39 0 0 0-.185.068c-.126.09-.301.084-.352-.013-.077-.15-.016-.42.123-.542.088-.076.111-.121.07-.137-.068-.027-.08-.153-.014-.153.024 0 .058.041.075.091.032.096.096.12.14.051.015-.022-.005-.066-.044-.096-.04-.031-.059-.075-.044-.099.036-.055.163.044.163.127 0 .115.303.046.318-.072l.011-.074c.004-.015.073.026.154.09.175.141.337.168.23.04-.062-.075-.06-.075.054-.005.067.042.113.108.104.152-.01.049.008.07.048.057.035-.012.058-.066.051-.122-.007-.055.008-.088.033-.074.024.015.058.005.075-.02.016-.026-.004-.046-.045-.046-.041 0-.075-.02-.075-.046s.022-.045.048-.045.048-.021.048-.047c0-.027-.05-.034-.12-.018-.103.025-.116.016-.088-.056.017-.046.014-.07-.007-.05-.022.018-.066.012-.097-.013-.043-.033-.055-.016-.045.069.007.063-.008.127-.034.142-.051.03-1.446-1.31-1.912-1.856-2.216-2.591-1.124-3.906 1.537-5.33 1.053-.564 2.528-.97 4.23-1.27 1.847-.327 3.047-.392 3.536-.193.214.088.512.37.644.611.038.069.079.274.09.456.055.904.158 13.306.125 15.086-.005.26-.044.31-.18.227zm-5.572-1.428c.745-.137 1.032-.248 1.373-.53.798-.66 1.219-1.569 1.29-2.786l.033-.539-.168-.178a1.907 1.907 0 0 1-.22-.273c-.083-.152-.06-.485.043-.59a.383.383 0 0 0 .098-.183c.017-.172-.007-.3-.05-.274-.025.015-.059.005-.076-.02-.016-.026.001-.058.04-.072.059-.022.06-.054.002-.24-.094-.303-.527-1.1-.859-1.578-.26-.377-.386-.509-.906-.953-.217-.185-.305-.16-.223.065.072.198.07.214-.045.272-.081.041-.127.03-.265-.07-.237-.172-.358-.305-.35-.386a.3.3 0 0 0-.005-.104.865.824 0 0 1-.041-.195c-.007-.076-.515-.312-.864-.4-.124-.032-.22-.086-.232-.13-.012-.043-.048-.087-.08-.099-.103-.037-.322.025-.352.101a.357.357 0 0 1-.104.13c-.046.033-.053.055-.018.056a.11.104 0 0 0 .087-.044c.047-.072.407-.057.407.017 0 .037.074.074.18.09.233.035.63.219.632.292.001.033-.057.057-.141.057-.2 0-.18.074.03.112.121.022.159.045.123.079a.12.113 0 0 0-.025.11c.015.038-.006.063-.051.063-.043 0-.077-.02-.077-.045 0-.025-.09-.046-.197-.046-.177 0-.195-.01-.171-.096.04-.148-.043-.3-.178-.324-.172-.031-.19.007-.051.11.118.09.17.356.07.356a.048.046 0 0 1-.048-.046c0-.025-.032-.045-.072-.045-.04 0-.072.018-.072.04 0 .023-.075.084-.167.136-.121.068-.16.116-.139.175.086.253.133.326.24.372.064.028.139.097.165.154.041.09.044.086.019-.031-.022-.106-.005-.152.083-.215.095-.069.102-.093.052-.171-.037-.058-.042-.102-.012-.12.026-.014.047-.066.047-.115 0-.102.026-.107.232-.038.083.027.15.078.15.113 0 .036.022.064.049.064.026 0 .048-.02.048-.045 0-.082.152-.048.176.04.013.047.088.13.166.185.12.084.133.112.082.17-.05.057-.041.083.053.15l.113.081-.128.08c-.101.063-.142.068-.197.024-.09-.07-.195-.016-.124.064.027.032.035.07.018.087-.017.017.004.03.048.03.145 0 .085.244-.08.328-.056.028-.21.06-.34.07-.132.01-.251.034-.265.055-.014.021-.068.046-.121.055a.144.144 0 0 0-.111.12c-.008.056-.043.101-.078.101-.036 0-.062.053-.062.122 0 .123-.119.243-.24.243a.666.666 0 0 0-.206.07c-.154.076-.192.246-.077.349.07.061.05.235-.022.193-.024-.014-.034-.041-.021-.06.012-.019-.024-.033-.08-.031-.08.003-.111-.032-.138-.154-.042-.193-.167-.287-.333-.252-.082.017-.147.002-.187-.044-.106-.122-.327-.087-.483.076-.14.146-.19.367-.095.422.026.015.111-.004.19-.043.171-.084.434-.093.434-.014 0 .031-.087.132-.193.224-.157.137-.188.19-.164.28.022.085.004.13-.074.183-.068.045-.098.106-.088.176.014.092.039.104.183.09a.54.54 0 0 0 .277-.12c.115-.109.429-.175.518-.109.029.022.075.015.107-.015.03-.029.071-.037.09-.019.02.019.005.052-.033.074-.038.023-.059.047-.047.055.188.115.25.13.318.076.057-.045.08-.044.111.005a.166.158 0 0 1 .015.123c-.015.038.011.061.071.061.052 0 .122.031.155.07.043.048.107.06.218.04.227-.04.328.007.422.193.082.164.082.167-.04.287-.13.13-.151.185-.074.185.027 0 .048-.031.048-.069s.033-.068.074-.068c.133 0 .463.188.488.277.02.07.067.088.234.088.141 0 .24.028.3.085.05.047.152.105.227.13.112.034.14.072.153.202.012.143-.007.173-.192.293-.276.178-.322.24-.324.432-.002.26-.232.453-.54.453-.252 0-.584.278-.546.458.031.15-.043.226-.218.226-.143 0-.169.04-.081.123.064.062-.079.268-.21.302-.046.012-.083.063-.083.114 0 .05-.025.1-.056.109-.04.013-.042.054-.007.152a.37.37 0 0 1 .011.225c-.032.078-.038.08-.04.012-.003-.044-.027-.08-.055-.08-.03 0-.038-.039-.02-.093.017-.052.008-.12-.021-.154-.04-.045-.034-.075.02-.118.06-.047.062-.07.013-.128-.051-.06-.048-.066.023-.041.07.025.084.003.084-.146 0-.133.022-.18.09-.198.073-.018.087-.06.078-.22-.014-.236.069-.344.21-.272.124.063.149.06.149-.015 0-.035.043-.074.097-.087.053-.013.09-.05.083-.083-.007-.033.02-.06.058-.061.093-.003.121-.147.046-.233-.032-.037-.042-.082-.021-.1.02-.019.047-.008.058.023.026.067.301.078.301.012 0-.025.022-.046.048-.046.026 0 .048.031.048.068 0 .038.024.069.053.069.03 0 .04-.031.026-.069-.017-.04 0-.068.04-.068.044 0 .059.027.04.073-.021.054-.005.069.06.057.053-.01.108-.079.135-.17.04-.13.032-.165-.046-.221-.088-.064-.086-.066.027-.035.098.027.11.022.06-.027-.08-.08-.076-.136.007-.106.037.014.08.005.096-.019.015-.024-.004-.055-.044-.07-.04-.014-.07-.052-.07-.085 0-.035.014-.04.036-.012.056.073.154.074.154.002 0-.041.029-.057.073-.04.052.018.064.004.042-.05-.017-.042-.06-.066-.097-.053s-.065.004-.065-.02c0-.067.102-.052.196.029.047.04.108.059.136.043.079-.047.06-.116-.033-.12-.072-.002-.07-.008.012-.041.085-.034.078-.042-.059-.07-.089-.02-.166-.069-.182-.118-.017-.05-.073-.086-.134-.085-.083 0-.09.009-.034.043.04.023.057.055.04.071-.039.037-.23-.059-.23-.115 0-.024-.032-.031-.072-.017-.04.015-.071.055-.071.09 0 .074-.077.085-.12.018-.017-.025-.007-.045.02-.045a.05.048 0 0 0 .051-.049c0-.026-.021-.035-.047-.02-.027.016-.048-.004-.048-.043 0-.075-.125-.1-.152-.03-.009.023-.044.013-.078-.023-.052-.053-.038-.063.088-.063.085 0 .142-.022.133-.05-.021-.058-.032-.058-.281-.018-.128.02-.217.011-.265-.026-.055-.044-.085-.045-.128-.004-.088.084-.131.062-.12-.062.008-.106.084-.167.084-.068 0 .097.082.038.158-.114.059-.117.064-.16.021-.163-.046-.003-.046-.009 0-.026a.103.103 0 0 0 .06-.09c0-.038-.018-.057-.042-.043-.024.014-.055-.005-.07-.043-.016-.037-.055-.066-.09-.064-.049.003-.049.008.001.027s.05.038.003.091c-.037.043-.041.079-.012.098.061.04.074.236.016.236-.025 0-.045-.051-.045-.114s-.023-.114-.051-.114c-.03 0-.038-.039-.02-.091.036-.11-.014-.116-.16-.019-.11.073-.248.06-.248-.024 0-.025.032-.033.072-.02.098.037.09-.028-.012-.102-.112-.08-.159-.078-.125.005.02.05.006.061-.05.041-.042-.015-.076-.059-.076-.096 0-.044-.028-.059-.078-.04-.055.02-.069.009-.049-.041.03-.077-.042-.096-.089-.023a.111.106 0 0 1-.087.044c-.035 0-.039-.013-.009-.034.084-.058.069-.128-.027-.128-.05 0-.092.018-.092.039s-.022.026-.049.01c-.026-.016-.063.009-.08.054a.365.347 0 0 1-.103.133c-.039.027-.055.074-.036.103.02.03.004.052-.041.052-.112 0-.09-.125.046-.264.098-.1.107-.126.046-.138-.06-.013-.064-.03-.02-.08.068-.077.046-.08-.126-.018-.071.026-.116.06-.1.076.017.016-.012.057-.065.093-.053.035-.083.084-.067.11.016.024-.005.081-.049.127-.081.085-.134.413-.066.413.022 0 .04.042.04.093s.028.103.062.115c.042.016.058.086.048.206-.013.15.008.203.112.295.081.072.16.103.216.086.057-.017.088-.004.088.038 0 .035.055.124.121.197.081.088.112.163.092.223-.145.453-.167.768-.052.742.032-.007.058.008.058.033s-.025.04-.056.034c-.073-.016-.119.217-.063.316.024.042.032.106.018.141-.015.036.008.092.05.125.058.046.062.068.017.095-.047.027-.046.049.001.104.04.045.046.095.017.144-.045.076.048.515.12.566.02.013.036.065.036.114 0 .114.28.198.838.251.481.046.715.03 1.389-.094zm-1.98-.93c.014-.037.035-.068.046-.068.01 0 .019.031.019.068s-.021.069-.047.069-.034-.031-.019-.069zm-.438-.341c-.017-.026-.008-.046.018-.046s.061.02.078.046.008.045-.019.045a.106.106 0 0 1-.077-.045zm.862-.41c.016-.026.05-.046.077-.046s.035.02.019.045a.106.106 0 0 1-.078.046c-.026 0-.035-.02-.018-.045zm.407-.227c0-.062.085-.1.116-.053.015.023-.005.054-.044.068-.04.014-.072.007-.072-.015zm-1.223-.096c-.018-.026-.022-.058-.01-.07s.036.01.052.049c.032.08.005.094-.043.021zm2.013-.224c-.016-.026-.008-.046.018-.046.027 0 .061.02.078.046.016.025.008.045-.018.045a.107.107 0 0 1-.078-.045zm-.407-.069c-.049-.056-.046-.068.018-.068.043 0 .078.03.078.068 0 .038-.008.069-.018.069-.01 0-.045-.031-.078-.069zm-1.509-.068c.017-.025.051-.046.078-.046s.034.02.018.046a.106.106 0 0 1-.078.045c-.026 0-.034-.02-.018-.045zm1.748-.069c0-.037.021-.068.047-.068s.034.03.019.068c-.016.038-.036.069-.047.069-.01 0-.019-.031-.019-.069zm-1.772-.068c0-.025.023-.046.051-.046.028 0 .037.021.021.046-.016.025-.039.046-.05.046-.012 0-.022-.021-.022-.046zm-.02-.176c-.02-.032-.024-.07-.009-.085.043-.041.09.019.067.085-.017.046-.028.046-.058 0zm1.017-.038c.035-.013.076-.011.092.004.016.016-.013.026-.063.024-.056-.002-.067-.013-.029-.027zm.823-.009c0-.04.144-.111.172-.084.008.008-.027.04-.078.07-.052.03-.094.037-.094.014zm-.646-.096c-.017-.025-.008-.046.018-.046s.061.021.077.046c.017.025.008.045-.018.045a.107.107 0 0 1-.077-.045zm-.704-.122c.035-.013.076-.012.092.003s-.012.026-.063.024c-.056-.002-.067-.013-.029-.028zm1.425-.047c-.026-.065-.02-.07.027-.026.033.031.047.068.033.082-.015.014-.042-.011-.06-.056zm.117-.059c0-.025.021-.046.048-.046a.048.046 0 0 1 0 .092.048.046 0 0 1-.048-.046zm-2.3-.091a.048.046 0 0 1 .097 0 .047.047 0 0 1-.048.045.048.046 0 0 1-.048-.045zm1.63-.046c0-.025.02-.045.044-.045.025 0 .059.02.075.045.016.025-.004.046-.045.046-.041 0-.075-.02-.075-.046zm-1.964-.113c0-.035.044-.048.12-.035.065.012.12.038.12.057 0 .019-.055.034-.12.034-.066 0-.12-.025-.12-.056zm1.676-.07c-.079-.047-.066-.053.138-.062.092-.004.13.013.114.052-.027.067-.151.073-.252.011zm-.647-.181c.017-.025.04-.046.051-.046s.021.02.021.046c0 .025-.022.045-.05.045s-.038-.02-.022-.045zm-1.072-.308c.015-.087-.01-.12-.049-.062-.033.05-.053.043-.096-.034-.049-.087-.043-.096.054-.086.06.006.125.032.145.057.05.066.044.159-.011.159-.027 0-.046-.015-.043-.034zm1.122-.054c-.015-.023-.005-.055.021-.07.027-.017.05.002.05.042 0 .08-.03.091-.07.028zm-.313-.23c0-.026.023-.046.05-.046.028 0 .038.02.022.045-.017.025-.04.046-.05.046-.013 0-.022-.02-.022-.046zm1.293-.272c0-.023.022-.055.048-.07.026-.016.048.003.048.042 0 .04-.022.071-.048.071-.026 0-.048-.019-.048-.043zm.102-.219c-.066-.118-.02-.254.076-.219a.455.455 0 0 0 .09.026c.043 0 .016.124-.046.204-.063.083-.067.082-.12-.01zm.09-.102c0-.026-.01-.046-.022-.046-.011 0-.034.02-.05.046-.017.025-.007.045.02.045.029 0 .052-.02.052-.045zm2.468.093c-.042-.065.011-.139.1-.139.042 0 .066.032.057.076-.019.092-.114.13-.157.063zm-2.745-.347c-.059-.039-.107-.093-.107-.12 0-.032.022-.03.066.004.036.028.096.045.132.036.036-.01.049-.007.028.004-.02.01-.013.048.018.083.074.085-.004.082-.137-.007zm.277.026c0-.025.021-.046.047-.046a.048.046 0 0 1 0 .091.048.046 0 0 1-.047-.045zm-1.461-.046c.016-.025.06-.045.098-.045s.07.02.07.045c0 .025-.045.046-.1.046s-.085-.02-.068-.046zm.311-.07c0-.078.155-.293.195-.27.025.015.034.047.019.07s.038.042.119.042c.08 0 .146.021.146.046 0 .025.032.046.072.046.04 0 .072.02.072.045 0 .064-.132.057-.155-.007-.014-.04-.056-.04-.178 0-.172.057-.29.069-.29.028zm-.434-.065a.941.941 0 0 1-.304-.168c-.173-.137-.177-.145-.077-.175.073-.022.136-.003.209.061a.7.7 0 0 0 .304.124c.235.036.31.139.12.164a.916.916 0 0 1-.252-.007zm.322-.26c-.05-.047-.037-.197.016-.197.027 0 .048.019.048.042 0 .023.013.074.03.114.028.071-.033.1-.094.041zm4.113-.302c-.02-.045-.024-.094-.008-.11.049-.046.088.019.065.109-.02.08-.022.08-.058.002zm-3.953-3.45c0-.025.033-.046.074-.046s.062.02.045.046c-.016.025-.05.045-.074.045s-.045-.02-.045-.045zm.103 8.198c-.1-.036-.123-.017-.086.075.024.06.041.062.097.013.058-.05.056-.064-.011-.088zm.317-.368c.113.02.122.015.069-.047-.134-.154-.37-.092-.265.07.022.034.038.034.05.002.009-.026.075-.037.146-.024zm4.534-.435a.815.815 0 0 1 .075-.195c.03-.053.042-.128.027-.166-.027-.068.063-.257.223-.465.064-.084.071-.127.03-.2-.071-.128-.018-.39.107-.517.148-.15.092-.263-.112-.222-.192.038-.287.113-.144.113.056 0 .116-.021.132-.046.016-.025.05-.046.075-.046.077 0 .049.12-.048.202-.118.102-.177.415-.096.508.049.056.031.105-.099.277-.1.135-.156.26-.154.348a.63.63 0 0 1-.066.268c-.038.071-.059.13-.046.13.014 0 .002.056-.025.125-.045.113-.043.119.026.054a.372.372 0 0 0 .095-.168zm-3.877-.194c.038-.058-.073-.058-.168 0-.058.036-.052.044.034.045.057 0 .118-.02.134-.045zm4.095-1.635c0-.071-.14-.153-.215-.126-.109.04-.216-.015-.216-.11 0-.087-.133-.182-.248-.178-.035 0-.007.047.061.102a.59.59 0 0 1 .156.186c.023.061.065.079.151.063.067-.012.142.005.173.04.061.07.138.083.138.023zm-.766-.601c0-.052-.02-.082-.046-.067-.025.015-.034.057-.02.094.039.094.066.083.066-.027zm-.069-.18c.098 0 .085-.08-.022-.134-.068-.034-.106-.028-.152.024-.05.057-.049.067.007.056.046-.01.065.023.06.1-.006.066 0 .08.015.034.013-.044.055-.08.092-.08zm-5.056-.273a.048.046 0 0 0-.048-.046.048.046 0 0 0-.048.046.048.046 0 0 0 .096 0zm5.008-.171c-.084-.076-.087-.076-.058.004a.499.499 0 0 1 .031.134c0 .035.018.034.058-.004.045-.043.038-.072-.03-.134zm.29-.604a1.817 1.729 0 0 1 .095-.258.741.741 0 0 0 .064-.273c-.004-.151-.024-.114-.165.303a2.284 2.284 0 0 1-.174.393.619.619 0 0 0-.087.182c.003.075.24-.232.267-.347zm-7.197-.252c-.04-.1-.107-.08-.078.024.013.05.043.08.065.067.022-.013.028-.054.014-.091zm2.072-.224c-.017-.064-.062-.117-.1-.117-.056 0-.055.024.012.134.094.156.131.148.088-.017zm6.307.02c.027-.099-.038-.127-.079-.034-.017.038-.065.013-.143-.074-.112-.126-.13-.13-.391-.099-.155.019-.256.05-.232.072.023.023.13.018.248-.01.2-.048.21-.045.334.093.15.165.227.18.263.052zm-6.702-.25c.015-.038.01-.069-.013-.069-.022 0-.067.031-.1.069-.048.055-.046.068.013.068.04 0 .085-.03.1-.068zm.953-.01c.02-.01.035-.111.035-.225 0-.169.018-.211.096-.23.053-.014.096-.043.096-.065 0-.061-.157-.045-.255.026-.067.048-.122.052-.228.017-.13-.043-.194-.129-.097-.129.023 0 .056-.036.072-.08.016-.043.042-.105.057-.136.016-.032-.003-.057-.042-.057s-.082.042-.096.094a.182.182 0 0 1-.118.118c-.068.017-.086.052-.07.133.012.061.036.113.053.116.016.003.105.01.197.018.223.017.232.022.12.068l-.096.039.096.005c.088.004.09.008.012.051-.088.049-.116.179-.038.179.025 0 .066-.036.092-.08.026-.044.062-.064.081-.046.045.042-.068.171-.15.171a.122.116 0 0 0-.094.048c-.028.044.179.018.277-.034zm4.73-.013c0-.025-.033-.046-.073-.046-.04 0-.072-.02-.072-.045a.048.046 0 0 0-.048-.046c-.133 0 .003.137.18.18.007.002.012-.018.012-.043zm.304-.069c.072-.068.09-.114.146-.353.017-.069.055-.125.085-.125.088 0 .23.143.23.232 0 .097.077.153.12.088.016-.026.012-.047-.01-.047-.023 0-.064-.059-.093-.132-.077-.195-.229-.258-.347-.145-.058.054-.084.124-.068.181.017.064-.02.137-.12.232-.082.078-.117.138-.08.138.036 0 .097-.031.137-.069zm.458-.07c-.035-.02-.086-.024-.114-.007-.03.018-.015.037.034.046.046.009.085.04.087.07.002.032.014.029.03-.01.014-.034-.003-.079-.037-.099zm-.14-.092c0-.023-.022-.043-.048-.043-.027 0-.048.032-.048.071 0 .04.022.059.048.043.026-.015.048-.047.048-.07zm-.767-.063c0-.036-.021-.078-.048-.094s-.047.015-.047.066c0 .052.021.094.047.094.027 0 .048-.03.048-.066zm-7.088-.088c0-.01-.054-.028-.12-.04-.065-.012-.12-.004-.12.018 0 .021.055.04.12.04.066 0 .12-.009.12-.018zm7.206-.302c.094 0 .138-.16.075-.272-.035-.061-.1-.093-.194-.093-.166 0-.182-.045-.045-.126.08-.048.087-.074.043-.153a.356.356 0 0 1-.03-.211.394.394 0 0 0-.068-.257c-.117-.184-.114-.223.017-.183.096.029.1.024.042-.043-.091-.105-.142-.093-.177.04a.307.292 0 0 0 .039.216c.1.147.148.58.063.58-.088 0-.127.115-.06.177.029.029.103.052.164.052.17 0 .196.133.045.238-.072.05-.127.131-.126.187.002.09.008.088.074-.026.04-.07.101-.126.138-.126zm-4.74.091c.017-.025-.003-.045-.044-.045-.041 0-.075.02-.075.045 0 .025.02.046.045.046s.058-.02.075-.046zm-.003-.278c-.048-.075-.116-.042-.116.056 0 .08.012.087.07.04.04-.03.06-.074.046-.096zm-.164-.246c-.033-.038-.082-.068-.108-.068-.027 0-.021.03.012.068.032.038.081.069.107.069.027 0 .022-.03-.011-.069zm4.432-.057c.162-.122.219-.293.117-.353-.026-.016-.047-.078-.047-.14 0-.06-.019-.11-.04-.11-.023 0-.067-.055-.099-.122-.093-.194-.15-.069-.169.375-.023.537-.018.545.238.35zm-.191-.09c.02-.07.032-.24.028-.377l-.008-.25.095.113a.42.42 0 0 1 .097.214c0 .055.023.113.05.128.046.027-.195.296-.266.296-.018 0-.016-.056.004-.125zm-6.253.053c0-.036-.02-.065-.045-.065s-.042.04-.038.088c.008.1.083.08.083-.022zm6.055-.184c.115-.042.09-.1-.034-.077-.102.019-.108.007-.09-.165.018-.184.07-.24.122-.13.015.032.022.017.016-.033-.007-.05-.044-.092-.083-.092-.048 0-.081.072-.104.225-.044.292-.013.34.173.272zm-1.816-.667c-.026-.192-.063-.265-.184-.365-.194-.159-1.013-.56-1.22-.597-.233-.042-.144.04.121.11.126.032.369.127.54.21l.312.149.008.218c.007.19.03.236.187.366.099.081.2.148.224.148.025 0 .03-.101.012-.24zm1.118.013c.02-.138-.12-.254-.217-.178-.068.054-.086.23-.03.284.075.07.23.004.246-.106zm-.214-.029c.016-.04.03-.08.03-.09 0-.011.021-.02.048-.02.026 0 .047.041.047.091 0 .054-.032.091-.077.091-.05 0-.067-.025-.048-.072zm1.36-.056c.01-.032-.01-.043-.054-.028-.052.02-.077-.009-.088-.102-.016-.138-.183-.217-.183-.087 0 .04-.017.072-.038.072-.068 0-.153-.107-.153-.191 0-.046-.025-.083-.056-.083-.087 0-.375-.225-.375-.293 0-.034-.031-.073-.069-.086-.153-.057.059.264.232.349.094.046.172.11.172.14 0 .03.062.112.137.18.132.122.138.123.163.032.038-.138.115-.114.148.047.029.136.123.165.163.05zm-3.39-.1c0-.025-.06-.043-.132-.04l-.131.004.12.036.131.041c.007.003.012-.016.012-.041zm1.276-.216a.929.884 0 0 1 .1-.224c.15-.22-.15-.701-.48-.77-.174-.036-.231.01-.063.051.165.04.377.234.456.417.055.13.05.17-.038.345-.111.217-.127.306-.055.306.026 0 .062-.056.08-.125zm-2.21-.002c.137-.037.192-.106.193-.243.001-.096-.02-.12-.105-.114-.101.005-.103.012-.034.112.085.124.09.115-.122.184-.144.046-.177.041-.267-.039-.056-.05-.128-.092-.16-.092-.031 0 .013.061.1.136.091.08.185.124.227.109a2.35 2.35 0 0 1 .168-.053zm.79-.12c-.263-.13-.526-.19-.526-.12 0 .026.06.048.136.048.075 0 .175.041.222.092.053.055.146.09.236.089.147-.002.146-.003-.068-.109zm-.862-.025c.104-.063.014-.121-.239-.154-.213-.028-.215-.027-.084.04.072.039.132.09.132.114 0 .056.098.056.19 0zm-.574-.123c0-.058.177-.13.275-.113.052.01.084-.08.065-.188-.004-.02.026-.047.066-.062.04-.014.072-.047.072-.072 0-.028-.127-.04-.326-.028a1.574 1.574 0 0 0-.658.17c-.183.086-.338.159-.346.164-.046.034.063.157.15.168.265.037.702.012.702-.04zm3.783-.288c0-.05-.008-.091-.018-.091-.01 0-.03.04-.044.09-.013.05-.005.092.019.092s.043-.041.043-.091zm-.183-.101c-.034-.033-.056-.036-.056-.007 0 .06.056.114.088.084.014-.013 0-.048-.032-.078zm-2.46-.167c.022-.143.158-.177.667-.17.461.005.593-.035.24-.073-.299-.033-.73-.006-.846.053-.055.028-.1.087-.1.131a.233.233 0 0 1-.06.141c-.048.049-.046.056.012.04.04-.012.079-.067.088-.122zm-.184-.002c.074-.133.06-.186-.051-.186-.111 0-.379.136-.379.193 0 .056.047.042.2-.061.16-.109.234-.082.145.052-.032.05-.038.09-.011.09.025 0 .069-.04.096-.088zm-7.973 9.427c-.274-.2-.899-.587-1.317-.816-1.793-.986-2.42-1.758-2.256-2.773.084-.513.359-.971.853-1.424.708-.649 1.307-.975 1.307-.711 0 .034-.185.204-.41.377-.485.37-.878.81-1.06 1.185-.106.22-.133.352-.15.712-.018.418-.01.459.129.742.08.165.226.392.323.504.44.512 1.606 1.03 2.606 1.159a12.816 12.196 0 0 1 .514.073c.114.022.151.11.047.11a.766.766 0 0 0-.238.115.488.488 0 0 0-.228.294c-.049.174-.027.263.133.56.04.072-.069.026-.253-.107zm4.743-.212c-.262-.015-.408-.067-.408-.145 0-.017.137-.022.306-.012.179.011.343-.003.395-.033.07-.04-.004-.05-.342-.042-.418.01-.439.005-.682-.147-.138-.086-.244-.177-.236-.202.008-.025.136-.1.283-.169.263-.12.288-.123 1.242-.128 1.22-.006 1.14-.01 1.14.057 0 .065-.2.188-.873.538-.257.133-.467.259-.467.28 0 .02-.016.033-.036.029a4.72 4.72 0 0 0-.322-.026zm.578-.342c.02-.02-.131-.034-.335-.034s-.36.015-.347.034c.028.044.635.044.682 0zm-.83-.158a.85.81 0 0 0-.24 0c-.072.01-.024.02.108.02.131 0 .19-.008.132-.02zm.957 0a2.746 2.613 0 0 0-.407 0c-.112.01-.02.017.204.017.224 0 .315-.008.203-.018zm.42-.132c0-.01-.168-.014-.372-.01-.358.007-.362.009-.108.034.25.026.48.014.48-.024zm-1.424-.022c-.037-.036-.077-.036-.14-.001-.078.043-.072.05.052.05.103.001.127-.012.089-.049zm.358.019a.526.5 0 0 0-.192-.001c-.06.011-.022.02.084.02.105.001.154-.007.108-.019zm.215-.09a.185.176 0 0 0-.12 0c-.033.013-.006.023.06.023s.093-.01.06-.023zm.72-.002a.852.81 0 0 0-.24 0c-.073.01-.025.019.107.019.131 0 .191-.008.132-.02zm-1.27-.643c-.185-.02-.644-.692-.902-1.32-.298-.727-.394-1.262-.363-2.039a4.848 4.848 0 0 1 .99-2.78c.255-.332.32-.375.418-.282.073.07.07.084-.044.202-.723.739-1.207 2.147-1.117 3.248.08.995.404 1.891.939 2.604.132.176.233.334.225.35-.008.017-.074.025-.147.017zm-2.024-2.065c-.36-.38-1.138-1.05-1.925-1.66-1.461-1.16-4.227-3.048-4.229-4.943 0-1.265 1.187-2.565 3.5-3.706 4.005-1.977 11.598-3.474 23.774-3.474 2.6 0 3.397-.02 6.73.117 12.38.599 18.558 3.6 18.558 6.378 0 2.394-3.686 5.421-10.896 6.334-.276.028-.573.059-.658.069-.144.017-.156.009-.156-.115 0-.148-.011-.143.575-.227 4.185-.715 9.388-3.307 9.427-5.811.031-1.948-4.27-3.87-6.817-4.637-1.074-.321-1.943-.516-3.424-.767l-1.054-.18a44.572 44.572 0 0 0-1.691-.247 143.17 136.25 0 0 1-2.044-.207c-.485-.055-2.043-.204-2.85-.272-.712-.06-2.918-.138-4.478-.16-1.792-.023-4.717.053-7.016.183-1.76.1-1.872.134-2.49.181-9.412.717-17.177 3.824-17.177 6.378 0 .709.547 1.45 1.183 1.768 1.043.522 2.873.618 4.208.213.39-.12.575-.166.546-.091-.01.022-.13.126-.27.23-.44.33-.953 1.095-1.177 1.757-.2.592-.32 1.76-.229 2.223.03.145.106.39.172.545.066.155.112.288.104.296-.009.008-.097-.07-.196-.175zm2.993.014c0-.047.104-.146.153-.146.022 0 .039.041.039.092 0 .06-.032.09-.096.09-.053 0-.096-.016-.096-.036zm-.168-1.832c-.016-.025-.007-.046.022-.046.028 0 .05.021.05.046 0 .025-.01.046-.02.046-.013 0-.035-.021-.052-.046zm.12-.255c0-.036.06-.055.163-.05.194.01.184.059-.018.087-.095.013-.145 0-.145-.037zm-.143-.155c0-.025.022-.046.05-.046s.038.02.022.046c-.017.025-.04.045-.051.045s-.021-.02-.021-.045zm.452-.095c-.015-.023.017-.042.072-.042s.098-.022.098-.048c0-.027.024-.035.052-.018.037.022.037.045 0 .08-.067.065-.188.08-.222.028zm.682-.208c-.05-.048.013-.105.088-.078.039.014.058.044.044.067-.031.047-.088.053-.132.011zm.135-.199c.016-.025.039-.045.05-.045s.022.02.022.045c0 .026-.023.046-.051.046-.028 0-.037-.02-.021-.046zm-.369-.213c.035-.013.076-.012.093.004.015.015-.013.026-.063.024-.056-.002-.068-.013-.03-.028zm-.996-.17a.076.072 0 0 1 .076-.072c.041 0 .067.024.057.054-.03.084-.133.098-.133.018zm.574.021c0-.023.022-.055.048-.07.027-.016.048.003.048.042 0 .04-.021.071-.048.071-.026 0-.048-.019-.048-.043zm.384-.048c0-.025.032-.045.072-.045s.071.02.071.045c0 .025-.032.046-.071.046-.04 0-.072-.02-.072-.046zm1.894-.079a.127.12 0 0 1 .027-.122c.042-.037.049-.03.027.03-.036.098.03.105.111.012.033-.038.09-.069.126-.069.117 0 .07.073-.098.149-.15.068-.166.068-.193 0zm-2.134-.194a.048.046 0 0 1 .096 0 .047.047 0 0 1-.048.045.048.046 0 0 1-.048-.045zm.719-.14c0-.026.021-.035.047-.02.027.016.048.037.048.049 0 .01-.021.02-.048.02a.048.048 0 0 1-.047-.049zm.311.003c-.016-.025.004-.045.045-.045a.073.07 0 0 0 .075-.069c0-.037.022-.068.05-.068.033 0 .033.027.001.085-.026.047-.034.098-.018.114.017.016-.004.029-.046.029-.043 0-.09-.02-.107-.046zm-.427-.176c-.02-.032-.025-.07-.01-.085.044-.041.09.019.067.085-.016.046-.027.046-.057 0zm.241-.086c.045-.179.066-.185.066-.019 0 .08-.022.144-.049.144-.029 0-.036-.05-.017-.125zm-.389-.057c.016-.025.051-.045.078-.045s.034.02.018.045a.106.106 0 0 1-.078.046c-.026 0-.034-.02-.018-.046zm.812-.003c-.017-.027-.02-.06-.006-.073.034-.032.128.025.128.079 0 .058-.083.054-.122-.006zm.337.003a.09.085 0 0 1 .014-.099c.032-.03.06-.028.082.008a.09.085 0 0 1-.013.1c-.032.03-.06.027-.083-.009zm-1.27-.16c-.033-.038-.052-.074-.041-.08.22-.12.234-.124.234-.06a.101.101 0 0 1-.06.088c-.046.018-.045.024.003.027.035.002.05.024.033.049-.042.064-.098.057-.168-.024zm.337.022c-.063-.04-.06-.055.02-.113.107-.078.19-.029.144.084-.036.088-.064.093-.164.029zm.43-.024c0-.118.12-.43.16-.418.086.028.091.29.007.37-.076.072-.166.098-.166.048zm.267-.016a.053.05 0 0 1 .017-.07.053.05 0 0 1 .073.016.053.05 0 0 1-.017.07.053.05 0 0 1-.073-.016zm-1.176-.186c0-.025.022-.046.05-.046.028 0 .038.02.021.046-.016.025-.039.045-.05.045-.012 0-.021-.02-.021-.045zm.31-.139c-.046-.07.035-.14.111-.095.05.03.048.048-.008.092-.051.04-.078.041-.103.003zm.36-.088c0-.057.17-.143.21-.107.04.04-.064.151-.144.151-.036 0-.066-.02-.066-.044zm.449-.147c-.04-.06.072-.126.215-.127.092 0 .104.011.059.063-.073.084-.236.122-.274.064zm-1.539-.043c-.032-.031-.06-.084-.06-.117 0-.032-.02-.059-.047-.059a.048.046 0 0 1-.048-.045c0-.069.124-.055.19.02.03.036.05.11.04.162-.012.078-.026.086-.075.04zm.946.01c0-.057.288-.19.342-.16.073.044.046.095-.08.15-.147.063-.261.068-.261.01zm-.344-.08c.035-.013.076-.012.092.004.016.015-.012.026-.063.024-.056-.002-.067-.013-.029-.028zm-.315-.16c.024-.068.133-.106.133-.045 0 .024-.034.056-.076.072-.047.017-.069.007-.057-.027zm.548-.022c-.06-.057-.032-.116.042-.089.043.016.062.008.045-.018-.016-.024.015-.045.07-.045.11 0 .126.047.04.128-.063.06-.148.071-.197.024zm8.787-5.666a1.133 1.133 0 0 1-.127-.206c-.127-.241-.452-.548-.679-.64-.396-.16-1.507-.131-2.96.076-.343.048-.652.098-.688.11-.035.012-.208.05-.383.086a4.394 4.394 0 0 0-.402.096c-.047.017-.084.01-.084-.015 1.57-.699 8.149-1.723 14.793-1.666 4.502.038 9.044.554 12.04 2.075-.043.01-1.537.06-9.674.06-5.368-.002-10.22.008-10.782.022-.563.013-1.037.014-1.054.001z"/><g stroke-width=".265"><g style="font-variant-ligatures:none" aria-label="URBAN"><path d="M161.36 123.082v-1.733q0-.222.102-.332.106-.11.277-.11.178 0 .282.11.105.11.105.332v1.772q0 .303.07.507.072.201.253.314.181.111.507.111.45 0 .635-.226.186-.229.186-.691v-1.787q0-.224.103-.332.104-.11.277-.11.173 0 .279.11.108.108.108.332v1.733q0 .423-.088.705-.085.283-.325.497-.207.182-.48.265-.274.084-.641.084-.437 0-.752-.088-.315-.091-.514-.278-.199-.19-.292-.482-.093-.295-.093-.703zM166.528 123.01h-.268v1.173q0 .232-.106.34-.106.11-.276.11-.184 0-.285-.114-.1-.115-.1-.336v-2.81q0-.239.11-.346.112-.107.36-.107h1.247q.259 0 .442.022.183.02.33.085.179.072.316.207.137.134.206.314.073.176.073.376 0 .408-.24.652-.238.244-.724.347.204.104.39.308.186.204.331.436.147.23.227.416.083.185.083.254 0 .073-.05.145-.046.07-.128.11-.083.042-.191.042-.13 0-.217-.06-.088-.057-.153-.147-.062-.09-.17-.264l-.308-.493q-.165-.272-.297-.414-.129-.142-.263-.194-.134-.052-.339-.052zm.44-1.535h-.708v1.004h.687q.276 0 .465-.045.188-.047.287-.157.1-.112.1-.306 0-.152-.08-.267-.08-.117-.222-.174-.134-.055-.53-.055zm4.254 3.097h-1.157q-.25 0-.36-.107-.105-.11-.105-.348v-2.755q0-.243.108-.348.111-.107.357-.107h1.227q.27 0 .47.032t.356.125q.135.078.238.198.103.117.157.262.055.143.055.303 0 .55-.569.805.747.23.747.895 0 .307-.163.555-.162.245-.439.363-.173.07-.398.1-.224.027-.524.027zm-.057-1.627h-.798v1.07h.824q.778 0 .778-.543 0-.277-.202-.402t-.602-.125zm-.798-1.48v.947h.703q.286 0 .441-.052.158-.053.24-.2.065-.106.065-.236 0-.277-.204-.367-.204-.093-.623-.093zM176.086 124.162l-.18-.452h-1.54l-.181.462q-.106.27-.18.366-.076.094-.246.094-.145 0-.256-.101-.111-.1-.111-.229 0-.073.026-.152t.085-.22l.969-2.34.098-.24q.06-.143.124-.236.067-.094.173-.15.109-.06.266-.06.16 0 .266.06.109.056.173.147.067.091.111.197.047.103.116.278l.99 2.325q.116.266.116.386 0 .126-.111.231-.109.104-.264.104-.09 0-.154-.032-.065-.03-.109-.082-.044-.054-.096-.162zm-1.519-1h1.132l-.571-1.488zm4.127-1.82 1.475 2.124v-2.143q0-.21.093-.313.095-.105.256-.105.165 0 .26.106.096.103.096.312v2.834q0 .475-.413.475-.104 0-.186-.03-.083-.027-.155-.088-.073-.062-.135-.143l-.124-.17-1.438-2.1v2.113q0 .206-.1.312-.102.106-.26.106-.162 0-.26-.106-.099-.108-.099-.312v-2.78q0-.178.042-.278.049-.111.163-.18.113-.071.245-.071.103 0 .176.032.075.032.129.086.057.054.113.14.06.086.122.18z"/><path transform="matrix(.27152 0 0 .2584 140.87 37.81)" d="M90.684 321.63h1.731v1.64h-1.731z" style="paint-order:fill markers stroke"/><path transform="matrix(.27152 0 0 .2584 140.87 37.81)" d="M105.81 321.58h1.731v14.185h-1.731z" style="font-variant-ligatures:none;paint-order:fill markers stroke"/></g><g style="font-variant-ligatures:none" aria-label="CRUISE"><path d="M164.652 128.224q0 .172-.09.374-.088.199-.28.393-.19.192-.487.312t-.693.12q-.3 0-.545-.053-.245-.054-.447-.167-.198-.116-.366-.303-.15-.17-.256-.378-.106-.212-.16-.45-.052-.239-.052-.507 0-.435.132-.779.134-.344.382-.587.248-.246.581-.374t.71-.128q.46 0 .82.175.359.174.55.432.191.256.191.484 0 .126-.093.222t-.225.096q-.147 0-.222-.067-.072-.066-.163-.228-.15-.268-.353-.4-.202-.134-.5-.134-.472 0-.753.342-.28.342-.28.971 0 .42.125.7.124.278.35.416.228.138.533.138.33 0 .558-.155.23-.157.346-.46.05-.142.122-.23.072-.092.232-.092.137 0 .235.091.098.091.098.226zM166.337 127.793h-.269v1.177q0 .232-.106.342-.106.11-.276.11-.183 0-.284-.115t-.1-.337v-2.82q0-.24.11-.347t.36-.108h1.247q.258 0 .441.023.184.02.331.085.178.073.315.207.137.135.207.315.072.178.072.378 0 .41-.24.655-.238.245-.723.347.204.105.39.31t.33.438q.148.23.228.417.082.185.082.255 0 .072-.049.145-.046.07-.129.11-.083.042-.19.042-.13 0-.218-.06-.088-.057-.152-.147-.063-.09-.171-.265l-.307-.495q-.166-.272-.297-.415-.13-.142-.264-.195-.134-.052-.338-.052zm.439-1.54h-.708v1.007h.687q.277 0 .465-.045.189-.047.287-.157.1-.113.1-.308 0-.152-.08-.267-.08-.118-.222-.175-.134-.055-.529-.055z"/><path transform="matrix(.27152 0 0 .2584 140.87 37.81)" d="M89.978 340.12h1.731v1.64h-1.731z" style="font-variant-ligatures:none;paint-order:fill markers stroke"/><path d="M169.165 127.873v-1.733q0-.222.1-.332.102-.111.266-.111.172 0 .271.11.102.111.102.333v1.772q0 .303.068.506.07.202.244.315.174.11.488.11.433 0 .613-.225.179-.229.179-.691v-1.787q0-.224.1-.332.1-.111.266-.111.167 0 .269.11.104.109.104.333v1.733q0 .422-.084.705-.083.283-.314.497-.2.182-.463.265-.264.084-.618.084-.42 0-.725-.089-.303-.09-.495-.277-.192-.19-.282-.482-.09-.295-.09-.703zM172.958 128.979v-2.84q0-.221.106-.332t.274-.11q.173 0 .279.11.109.109.109.332v2.84q0 .223-.11.334-.105.11-.278.11-.166 0-.274-.11-.106-.113-.106-.334zm4.467-.699q0 .327-.179.588-.175.26-.516.408-.341.148-.809.148-.56 0-.924-.202-.259-.145-.421-.386-.16-.243-.16-.472 0-.133.095-.226.098-.096.248-.096.121 0 .204.074.085.074.145.218.072.173.154.288.086.116.238.192.153.074.4.074.342 0 .554-.15.214-.153.214-.379 0-.18-.116-.29-.114-.113-.298-.172-.18-.059-.485-.125-.408-.091-.685-.212-.273-.123-.436-.332-.16-.211-.16-.523 0-.298.17-.529.17-.23.494-.354.322-.125.759-.125.349 0 .602.083.255.082.424.22.167.134.245.284.077.15.077.293 0 .13-.098.236-.095.103-.24.103-.132 0-.201-.061-.068-.064-.148-.207-.103-.204-.248-.317-.144-.115-.465-.115-.297 0-.48.125-.181.123-.181.297 0 .109.062.187.062.079.17.135.109.057.22.089.111.032.367.093.32.072.579.158.26.086.441.209.184.123.284.312.103.187.103.46zM180.62 126.268h-1.765v.9h1.626q.179 0 .266.078.09.075.09.2t-.087.205q-.087.077-.27.077h-1.625v1.043h1.826q.185 0 .277.082.095.08.095.215 0 .13-.095.213-.092.08-.277.08h-2.13q-.256 0-.37-.108-.11-.107-.11-.347v-2.755q0-.16.05-.26.05-.103.156-.148.108-.048.274-.048h2.07q.187 0 .276.08.093.078.093.205 0 .13-.093.21-.09.078-.276.078z"/><path transform="matrix(.27152 0 0 .2584 140.87 37.81)" d="M137 340.12h1.731v14.185H137z" style="font-variant-ligatures:none;paint-order:fill markers stroke"/></g><g style="font-variant-ligatures:none" aria-label="SHIP"><path d="M164.336 133.072q0 .327-.178.587-.176.261-.517.409-.34.147-.808.147-.56 0-.925-.202-.258-.145-.42-.386-.16-.243-.16-.472 0-.132.094-.226.099-.096.249-.096.121 0 .204.074.085.074.144.219.072.172.155.288.086.115.238.191.152.074.4.074.341 0 .553-.15.214-.152.214-.378 0-.18-.116-.29-.114-.114-.297-.173-.18-.059-.486-.125-.408-.091-.684-.211-.274-.123-.437-.332-.16-.212-.16-.524 0-.297.17-.528.171-.232.494-.354.323-.126.76-.126.348 0 .601.084.256.08.424.219.168.135.245.285.078.15.078.292 0 .13-.098.236-.096.104-.24.104-.132 0-.202-.062-.067-.064-.147-.207-.103-.204-.248-.317-.145-.115-.465-.115-.297 0-.48.125-.181.123-.181.298 0 .108.062.186.062.08.17.136.109.056.22.088.11.032.366.093.32.072.58.158.26.086.44.209.184.123.285.312.103.187.103.46zm3.579-2.141v1.032h1.655v-1.032q0-.222.104-.332.106-.111.276-.111.173 0 .28.11.108.109.108.333v2.839q0 .224-.109.334t-.279.11q-.173 0-.276-.11-.103-.113-.103-.334v-1.212h-1.656v1.212q0 .224-.109.334-.108.11-.279.11-.173 0-.276-.11-.103-.113-.103-.334v-2.84q0-.22.1-.33.104-.112.28-.112.173 0 .278.111.109.108.109.332zm5.937 2.839v-2.84q0-.22.105-.33.106-.112.275-.112.173 0 .279.111.108.108.108.332v2.84q0 .223-.108.334-.106.11-.28.11-.165 0-.273-.11-.106-.114-.106-.335zM179.597 132.73h-.703v1.033q0 .221-.108.336-.109.114-.274.114-.173 0-.28-.112-.105-.115-.105-.333v-2.81q0-.244.116-.349.117-.104.37-.104h.984q.436 0 .671.064.233.062.4.207.171.144.26.353.087.209.087.47 0 .557-.356.846-.357.286-1.062.286zm-.186-1.67h-.517v1.114h.517q.271 0 .452-.055.183-.055.279-.18t.095-.325q0-.241-.147-.393-.165-.162-.68-.162z"/><path transform="matrix(.27152 0 0 .2584 140.87 37.81)" d="M137.21 358.73h1.731v1.64h-1.731z" style="font-variant-ligatures:none;paint-order:fill markers stroke"/></g></g><g transform="matrix(.57206 0 0 .54442 -82.55 -274.85)" stroke-width=".033" style="font-variant-ligatures:none;shape-inside:url(#rect12816-2);white-space:pre" aria-label="ANALYSIS"><path d="m464.92 747.64-.131-.345h-1.118l-.13.353q-.078.206-.132.28-.055.07-.178.07-.105 0-.186-.077-.08-.076-.08-.174 0-.056.018-.116.02-.06.062-.167l.703-1.785.072-.184q.043-.108.09-.18.048-.07.125-.114.079-.045.193-.045.117 0 .193.045.08.043.126.113.049.069.08.15.034.078.085.211l.718 1.774q.084.202.084.294 0 .096-.08.177-.079.078-.191.078-.066 0-.113-.024-.047-.023-.079-.062-.031-.041-.069-.124zm-1.102-.763h.82l-.414-1.134zm3.107-1.387 1.07 1.62v-1.635q0-.16.068-.238.07-.08.185-.08.12 0 .19.08.07.078.07.238v2.162q0 .361-.3.361-.076 0-.136-.022-.06-.02-.112-.068-.053-.046-.098-.108l-.09-.13-1.044-1.6v1.61q0 .157-.073.238-.073.08-.188.08-.118 0-.189-.08-.071-.083-.071-.238v-2.12q0-.136.03-.213.035-.084.118-.136.082-.055.178-.055.075 0 .128.025.054.024.093.065.041.041.083.107zm4.176 2.15-.131-.345h-1.118l-.131.353q-.077.206-.131.28-.055.07-.178.07-.105 0-.186-.077-.08-.076-.08-.174 0-.056.018-.116.019-.06.062-.167l.703-1.785.071-.184q.043-.108.09-.18.049-.07.126-.114.079-.045.193-.045.116 0 .193.045.079.043.126.113.048.069.08.15.034.078.085.211l.718 1.774q.084.202.084.294 0 .096-.08.177-.08.078-.192.078-.065 0-.112-.024-.047-.023-.079-.062-.032-.041-.07-.124zm-1.103-.763h.822l-.415-1.134zm2.928-1.383v2h1.128q.135 0 .207.066.073.065.073.165t-.072.165q-.07.062-.208.062h-1.344q-.182 0-.262-.081-.08-.08-.08-.26v-2.117q0-.17.076-.253.077-.085.2-.085.126 0 .203.085.079.082.079.253zm2.179 2.165v-.872l-.671-1.04q-.088-.14-.126-.22-.035-.078-.035-.137 0-.095.073-.164.075-.07.183-.07.115 0 .173.066.06.063.178.257l.514.834.519-.834.079-.13q.032-.052.07-.097.038-.047.085-.071.047-.025.115-.025.105 0 .174.07.071.067.071.157 0 .073-.035.146-.036.073-.122.203l-.688 1.055v.872q0 .17-.079.255-.079.084-.2.084-.124 0-.201-.082-.077-.084-.077-.257zm4.056-.532q0 .249-.13.448-.127.198-.374.31-.248.113-.587.113-.407 0-.671-.153-.188-.11-.306-.295-.116-.185-.116-.36 0-.1.07-.172.07-.073.18-.073.087 0 .147.056.062.056.105.167.053.131.113.22.062.087.172.145.11.057.29.057.248 0 .402-.115.156-.116.156-.288 0-.137-.085-.222-.082-.086-.215-.13-.132-.046-.353-.097-.296-.069-.497-.16-.198-.094-.317-.254-.116-.161-.116-.4 0-.226.124-.402.124-.177.358-.27.234-.096.551-.096.253 0 .437.064.186.062.308.167.121.103.178.217.056.115.056.223 0 .1-.071.18-.07.079-.175.079-.095 0-.146-.047-.049-.049-.107-.157-.075-.156-.18-.242-.105-.088-.337-.088-.216 0-.349.095-.131.094-.131.227 0 .083.045.143t.123.103q.08.043.16.067.08.025.266.071.233.055.42.12.19.066.32.16.134.093.207.238.075.142.075.35zm.771.532v-2.164q0-.17.077-.253.077-.085.199-.085.125 0 .202.085.079.082.079.253v2.165q0 .17-.079.255-.077.084-.202.084-.12 0-.199-.084-.077-.086-.077-.255zm3.544-.532q0 .249-.13.448-.127.198-.374.31-.248.113-.587.113-.407 0-.671-.153-.188-.11-.306-.295-.116-.185-.116-.36 0-.1.07-.172.07-.073.18-.073.088 0 .148.056.061.056.105.167.052.131.112.22.062.087.173.145.11.057.29.057.248 0 .401-.115.156-.116.156-.288 0-.137-.084-.222-.083-.086-.216-.13-.131-.046-.353-.097-.296-.069-.496-.16-.2-.094-.317-.254-.116-.161-.116-.4 0-.226.123-.402.124-.177.358-.27.235-.096.552-.096.253 0 .436.064.186.062.308.167.122.103.178.217.056.115.056.223 0 .1-.071.18-.07.079-.174.079-.096 0-.147-.047-.048-.049-.106-.157-.075-.156-.18-.242-.105-.088-.338-.088-.216 0-.349.095-.13.094-.13.227 0 .083.044.143.045.06.124.103t.16.067q.08.025.265.071.233.055.42.12.19.066.321.16.133.093.206.238.075.142.075.35z"/><path d="M472.37 747.69h.386v.27h-.386z" style="paint-order:fill markers stroke"/></g><g transform="matrix(.52206 0 0 .54442 -59.372 -271.99)" stroke-width=".035" style="font-variant-ligatures:none;shape-inside:url(#rect12816-2-5);white-space:pre" aria-label="SOLUTIONS"><path d="M465.25 747.13q0 .249-.13.448-.127.198-.374.31-.248.113-.587.113-.407 0-.671-.153-.188-.11-.306-.295-.116-.185-.116-.36 0-.1.07-.172.07-.073.18-.073.087 0 .147.056.062.056.105.167.053.131.113.22.062.087.172.145.11.057.29.057.248 0 .402-.115.156-.116.156-.288 0-.137-.085-.222-.082-.086-.215-.13-.132-.046-.353-.097-.296-.069-.497-.16-.198-.094-.317-.254-.116-.161-.116-.4 0-.226.124-.402.124-.177.358-.27.234-.096.551-.096.253 0 .437.064.186.062.308.167.121.103.178.217.056.115.056.223 0 .1-.071.18-.07.079-.175.079-.095 0-.146-.047-.049-.049-.107-.157-.075-.156-.18-.242-.105-.088-.337-.088-.216 0-.349.095-.131.094-.131.227 0 .083.045.143t.124.103q.078.043.159.067.08.025.266.071.233.055.42.12.19.066.32.16.134.093.207.238.075.142.075.35zm1.682-1.971q.427 0 .733.175.307.172.465.493.157.318.157.75 0 .318-.086.579-.086.26-.259.452-.172.19-.423.292-.252.101-.576.101-.323 0-.578-.103-.254-.105-.425-.294-.17-.19-.259-.456-.086-.266-.086-.575 0-.317.09-.581.092-.265.264-.45.173-.186.42-.283.248-.1.563-.1zm.79 1.414q0-.302-.097-.523-.097-.222-.279-.334-.18-.114-.414-.114-.167 0-.31.063-.14.062-.243.182-.102.12-.162.308-.058.185-.058.418 0 .234.058.423.06.19.167.315.109.124.248.186.14.062.307.062.214 0 .392-.107.18-.107.285-.33.107-.223.107-.55zm1.587-1.076v2h1.129q.135 0 .206.066.073.065.073.165t-.071.165q-.072.062-.208.062h-1.345q-.181 0-.262-.081-.079-.08-.079-.26v-2.117q0-.17.075-.253.077-.085.2-.085.126 0 .203.085.079.082.079.253z"/><path d="M468.75 747.68h.341v.281h-.341z" style="font-variant-ligatures:none;paint-order:fill markers stroke;shape-inside:url(#rect12816-2);white-space:pre"/><path d="M470.89 746.82v-1.32q0-.17.075-.253.077-.085.2-.085.13 0 .205.085.077.084.077.253v1.351q0 .231.05.387.053.153.184.24.131.084.368.084.326 0 .46-.173.136-.174.136-.526V745.5q0-.171.075-.253.075-.085.2-.085.126 0 .203.085.079.082.079.253v1.321q0 .323-.064.538-.062.216-.236.38-.15.138-.349.202-.199.063-.465.063-.317 0-.545-.067-.23-.07-.374-.212-.144-.144-.211-.367-.068-.225-.068-.537zm4.698-1.153h-.607v1.997q0 .173-.077.257-.077.082-.199.082-.123 0-.202-.084-.077-.084-.077-.255v-1.997h-.608q-.142 0-.211-.062-.07-.063-.07-.166 0-.107.072-.17.073-.061.21-.061h1.77q.144 0 .213.064.071.063.071.166 0 .104-.07.167-.072.062-.215.062zm.638 1.997V745.5q0-.17.077-.253.077-.085.198-.085.126 0 .203.085.079.082.079.253v2.165q0 .17-.079.255-.077.084-.203.084-.12 0-.198-.084-.077-.086-.077-.255zm2.388-2.503q.428 0 .733.175.308.172.465.493.158.318.158.75 0 .318-.086.579-.086.26-.259.452-.173.19-.424.292-.251.101-.575.101-.323 0-.578-.103-.255-.105-.425-.294-.171-.19-.26-.456-.085-.266-.085-.575 0-.317.09-.581.092-.265.264-.45.173-.186.42-.283.248-.1.562-.1zm.792 1.414q0-.302-.098-.523-.097-.222-.28-.334-.18-.114-.414-.114-.166 0-.309.063-.14.062-.244.182-.1.12-.16.308-.059.185-.059.418 0 .234.058.423.06.19.167.315.109.124.247.186.141.062.308.062.214 0 .392-.107.18-.107.285-.33.107-.223.107-.55zm1.766-1.08 1.07 1.62v-1.635q0-.16.068-.238.07-.08.185-.08.12 0 .19.08.07.078.07.238v2.162q0 .361-.3.361-.076 0-.136-.022-.06-.02-.112-.068-.053-.046-.098-.108l-.09-.13-1.044-1.6v1.61q0 .157-.073.238-.073.08-.188.08-.118 0-.19-.08-.07-.083-.07-.238v-2.12q0-.136.03-.213.035-.084.118-.136.082-.055.178-.055.075 0 .127.025.055.024.094.065.041.041.083.107zm4.28 1.637q0 .249-.13.448-.127.198-.374.31-.248.113-.587.113-.407 0-.671-.153-.188-.11-.306-.295-.116-.185-.116-.36 0-.1.07-.172.07-.073.18-.073.087 0 .147.056.062.056.105.167.053.131.113.22.062.087.172.145.11.057.29.057.248 0 .402-.115.156-.116.156-.288 0-.137-.085-.222-.082-.086-.215-.13-.132-.046-.353-.097-.296-.069-.497-.16-.198-.094-.317-.254-.116-.161-.116-.4 0-.226.124-.402.124-.177.358-.27.234-.096.551-.096.253 0 .437.064.186.062.308.167.121.103.178.217.056.115.056.223 0 .1-.071.18-.07.079-.175.079-.095 0-.146-.047-.049-.049-.107-.157-.075-.156-.18-.242-.105-.088-.337-.088-.216 0-.349.095-.131.094-.131.227 0 .083.045.143t.124.103q.078.043.159.067.08.025.266.071.233.055.42.12.19.066.32.16.134.093.207.238.075.142.075.35z"/></g><path d="M193.55 127.19a.643.612 0 0 0-.643.612.643.612 0 0 0 .643.611.643.612 0 0 0 .643-.611.643.612 0 0 0-.643-.612zm0 .12a.517.492 0 0 1 .517.492.517.492 0 0 1-.517.492.517.492 0 0 1-.517-.492.517.492 0 0 1 .517-.493z" style="paint-order:fill markers stroke"/><g stroke-width=".265" style="font-variant-ligatures:none"><path d="M182.48 121.393h-.046v.199c0 .025-.006.045-.018.057a.062.059 0 0 1-.048.019.06.058 0 0 1-.049-.02c-.011-.012-.017-.032-.017-.056v-.553h.295c.03 0 .055 0 .076.003a.189.18 0 0 1 .11.05.18.172 0 0 1 .049.116.149.149 0 0 1-.042.111.236.236 0 0 1-.124.059.24.23 0 0 1 .067.052.538.538 0 0 1 .11.187.043.043 0 0 1-.008.025.055.052 0 0 1-.022.019.069.066 0 0 1-.033.007.063.06 0 0 1-.037-.01.1.096 0 0 1-.026-.025 1.253 1.193 0 0 1-.03-.045l-.053-.084a.471.449 0 0 0-.05-.07.124.118 0 0 0-.046-.033.156.149 0 0 0-.058-.009zm.076-.26h-.122v.17h.118c.032 0 .058-.003.08-.008s.038-.014.049-.026a.08.076 0 0 0 .017-.052.083.079 0 0 0-.052-.075.296.296 0 0 0-.09-.01z" aria-label="R"/><path d="M193.863 127.933q0 .03-.02.063-.017.034-.055.064t-.095.049q-.058.018-.13.018-.154 0-.24-.085-.085-.085-.085-.228 0-.097.039-.171t.114-.115q.074-.04.178-.04.064 0 .117.017.054.018.091.046.038.029.057.06.02.032.02.06 0 .028-.022.048t-.054.02q-.02 0-.034-.01-.014-.01-.03-.033-.03-.044-.064-.066-.033-.022-.084-.022-.073 0-.118.055-.044.054-.044.149 0 .044.01.082.013.037.034.063.022.026.053.04.03.013.068.013.05 0 .085-.022t.063-.067q.015-.026.032-.041t.043-.015q.03 0 .05.022.02.022.02.046z" aria-label="c"/></g><path d="M182.57 120.74a.643.612 0 0 0-.643.612.643.612 0 0 0 .643.611.643.612 0 0 0 .643-.611.643.612 0 0 0-.643-.612zm0 .12a.517.492 0 0 1 .517.492.517.492 0 0 1-.517.492.517.492 0 0 1-.517-.492.517.492 0 0 1 .517-.493z" style="paint-order:fill markers stroke"/></g><text x="196.1" y="122.86" font-family="Arial" font-size="4.939" stroke-width=".265" style="font-variant-caps:normal;font-variant-east-asian:normal;font-variant-ligatures:normal;font-variant-numeric:normal;line-height:1.25" xml:space="preserve"><tspan x="196.1" y="122.86" style="font-variant-caps:normal;font-variant-east-asian:normal;font-variant-ligatures:normal;font-variant-numeric:normal">urbancruiseship.org</tspan><tspan x="196.1" y="129.033" style="font-variant-caps:normal;font-variant-east-asian:normal;font-variant-ligatures:normal;font-variant-numeric:normal">Exhibit constructed by</tspan><tspan x="196.1" y="135.207" style="font-variant-caps:normal;font-variant-east-asian:normal;font-variant-ligatures:normal;font-variant-numeric:normal">Richard Burd 1-3-2023</tspan></text><text transform="scale(.9948 1.0052)" x="137.872" y="74.041" font-family="Arial" font-size="3.831" font-weight="bold" letter-spacing="0" stroke-width="1.005" text-anchor="end" word-spacing="0" style="font-variant-caps:normal;font-variant-east-asian:normal;font-variant-ligatures:normal;font-variant-numeric:normal;line-height:1.1" xml:space="preserve"><tspan x="137.872" y="74.041" style="font-variant-caps:normal;font-variant-east-asian:normal;font-variant-ligatures:normal;font-variant-numeric:normal"><tspan x="137.872" y="74.041" text-anchor="start" style="font-variant-caps:normal;font-variant-east-asian:normal;font-variant-ligatures:normal;font-variant-numeric:normal">Monthly loan repayment is structured so as to  </tspan></tspan><tspan x="137.872" y="78.256" style="font-variant-caps:normal;font-variant-east-asian:normal;font-variant-ligatures:normal;font-variant-numeric:normal"><tspan x="137.872" y="78.256" text-anchor="start" style="font-variant-caps:normal;font-variant-east-asian:normal;font-variant-ligatures:normal;font-variant-numeric:normal">be equivalent to the difference between the </tspan></tspan><tspan x="137.872" y="82.47" style="font-variant-caps:normal;font-variant-east-asian:normal;font-variant-ligatures:normal;font-variant-numeric:normal"><tspan x="137.872" y="82.47" text-anchor="start" style="font-variant-caps:normal;font-variant-east-asian:normal;font-variant-ligatures:normal;font-variant-numeric:normal">company&apos;s old and new energy consumption </tspan></tspan><tspan x="137.872" y="86.685" style="font-variant-caps:normal;font-variant-east-asian:normal;font-variant-ligatures:normal;font-variant-numeric:normal"><tspan x="137.872" y="86.685" text-anchor="start" style="font-variant-caps:normal;font-variant-east-asian:normal;font-variant-ligatures:normal;font-variant-numeric:normal">expenses (pre and post construction) </tspan></tspan></text></svg>