<?xml version="1.0" encoding="UTF-8"?>
<svg width="202.29mm" height="95.129mm" version="1.1" viewBox="0 0 202.29 95.129" xmlns="http://www.w3.org/2000/svg" xmlns:cc="http://creativecommons.org/ns#" xmlns:dc="http://purl.org/dc/elements/1.1/" xmlns:rdf="http://www.w3.org/1999/02/22-rdf-syntax-ns#">
 <metadata>
  <rdf:RDF>
   <cc:Work rdf:about="">
    <dc:format>image/svg+xml</dc:format>
    <dc:type rdf:resource="http://purl.org/dc/dcmitype/StillImage"/>
   </cc:Work>
  </rdf:RDF>
 </metadata>
 <rect x="11.343" y=".25" width="190.69" height="84.575" fill="#fff" opacity=".16302" stroke="#000" stroke-linecap="round" stroke-linejoin="round" stroke-width=".5" style="paint-order:fill markers stroke"/>
 <g fill="none" stroke="#858585" stroke-width=".1">
  <path d="m15.941 84.449v-58.651m0-22.802v-2.8765"/>
  <path d="m60.219 84.825 0.0167-59.027m-0.0151-22.802-0.0016-2.8764"/>
  <path d="m104.52 84.825v-84.705"/>
  <path d="m148.8 84.825v-84.705"/>
  <path d="m193.13 84.825v-0.97789m0-24.6v-59.128"/>
 </g>
 <g font-family="Calibri" font-size="3.6822px" letter-spacing="0px" stroke-width=".26458" text-anchor="middle" word-spacing="0px">
  <text x="189.06256" y="88.371674" text-align="center" style="font-variant-ligatures:none;line-height:1.1" xml:space="preserve"><tspan x="189.06256" y="88.371674" font-family="Arial" stroke-width=".26458" text-align="start" text-anchor="start">2000</tspan></text>
  <text x="144.58968" y="88.371674" text-align="center" style="font-variant-ligatures:none;line-height:1.1" xml:space="preserve"><tspan x="144.58968" y="88.371674" font-family="Arial" stroke-width=".26458" text-align="start" text-anchor="start">1950</tspan></text>
  <text x="100.31293" y="88.371674" text-align="center" style="font-variant-ligatures:none;line-height:1.1" xml:space="preserve"><tspan x="100.31293" y="88.371674" font-family="Arial" stroke-width=".26458" text-align="start" text-anchor="start">1900</tspan></text>
  <text x="56.011242" y="88.371674" text-align="center" style="font-variant-ligatures:none;line-height:1.1" xml:space="preserve"><tspan x="56.011242" y="88.371674" font-family="Arial" stroke-width=".26458" text-align="start" text-anchor="start">1850</tspan></text>
  <text x="11.732934" y="88.371674" text-align="center" style="font-variant-ligatures:none;line-height:1.1" xml:space="preserve"><tspan x="11.732934" y="88.371674" font-family="Arial" stroke-width=".26458" text-align="start" text-anchor="start">1800</tspan></text>
 </g>
 <g fill="none" stroke="#000" stroke-width=".26458px">
  <path d="m15.941 84.034v0.79139"/>
  <path d="m60.219 84.034v0.79139"/>
  <path d="m104.52 84.034v0.79139"/>
  <path d="m148.8 84.034v0.79139"/>
  <path d="m193.13 84.034v0.79139"/>
  <path d="m12.134 70.7h-0.79139"/>
  <path d="m12.134 56.456h-0.79139"/>
  <path d="m12.134 42.211h-0.79139"/>
  <path d="m12.134 27.967h-0.79139"/>
  <path d="m12.134 13.722h-0.79139"/>
 </g>
 <g font-family="Calibri" stroke-width=".26458" text-anchor="middle" word-spacing="0px">
  <g font-size="3.6822px" letter-spacing="0px">
   <text x="8.5895796" y="72.023468" text-align="center" style="font-variant-ligatures:none;line-height:1.1" xml:space="preserve"><tspan x="8.5895796" y="72.023468" font-family="Arial" stroke-width=".26458" text-align="start" text-anchor="start">4</tspan></text>
   <text x="8.5895796" y="86.148643" text-align="center" style="font-variant-ligatures:none;line-height:1.1" xml:space="preserve"><tspan x="8.5895796" y="86.148643" font-family="Arial" stroke-width=".26458" text-align="start" text-anchor="start">2</tspan></text>
   <text x="8.5895796" y="57.779037" text-align="center" style="font-variant-ligatures:none;line-height:1.1" xml:space="preserve"><tspan x="8.5895796" y="57.779037" font-family="Arial" stroke-width=".26458" text-align="start" text-anchor="start">6</tspan></text>
   <text x="8.5895796" y="43.534607" text-align="center" style="font-variant-ligatures:none;line-height:1.1" xml:space="preserve"><tspan x="8.5895796" y="43.534607" font-family="Arial" stroke-width=".26458" text-align="start" text-anchor="start">8</tspan></text>
   <text x="6.5237541" y="29.267683" text-align="center" style="font-variant-ligatures:none;line-height:1.1" xml:space="preserve"><tspan x="6.5237541" y="29.267683" font-family="Arial" stroke-width=".26458" text-align="start" text-anchor="start">10</tspan></text>
   <text x="6.5237541" y="15.02326" text-align="center" style="font-variant-ligatures:none;line-height:1.1" xml:space="preserve"><tspan x="6.5237541" y="15.02326" font-family="Arial" stroke-width=".26458" text-align="start" text-anchor="start">12</tspan></text>
  </g>
  <text transform="rotate(-90)" x="-70.264816" y="3.7738538" font-size="5.0734px" letter-spacing=".36455px" text-align="center" style="font-variant-ligatures:none;line-height:1.1" xml:space="preserve"><tspan x="-70.264816" y="3.7738538" font-family="Arial" font-style="italic" stroke-width=".26458" text-align="start" text-anchor="start">kilowatts  per  capita</tspan></text>
  <text x="97.301224" y="93.890274" font-size="5.0734px" letter-spacing=".36455px" text-align="center" style="font-variant-ligatures:none;line-height:1.1" xml:space="preserve"><tspan x="97.301224" y="93.890274" font-family="Arial" font-style="italic" stroke-width=".26458" text-align="start" text-anchor="start">years</tspan></text>
 </g>
 <g>
  <rect x="14.824" y="3.2465" width="66.012" height="22.302" fill="#fff" opacity=".49304" stroke="#000" stroke-linecap="round" stroke-linejoin="round" stroke-width=".5" style="paint-order:fill markers stroke"/>
  <path d="m20.18 18.231h17.996" fill="none" stroke="#7d7d7d" stroke-dasharray="5.6, 2.8" stroke-width=".7"/>
  <path d="m20.18 9.7608h17.996" fill="none" stroke="#000" stroke-width=".6"/>
 </g>
 <text x="42.021881" y="10.915191" font-family="Arial" font-size="3.6822px" letter-spacing="0px" stroke-width=".26458" text-align="center" word-spacing="0px" style="font-variant-ligatures:none;line-height:1.1" xml:space="preserve"><tspan x="42.021881" y="10.915191" text-align="start">Actual energy use</tspan><tspan x="42.021881" y="15.06041" text-align="start"> </tspan><tspan x="42.021881" y="19.205629" text-align="start">Henry Adams curve</tspan></text>
 <g fill="none">
  <path d="m11.485 80.655c44.004-1.4265 79.198-4.8388 107.85-16.561 28.047-11.475 49.821-30.919 67.72-63.806" stroke="#7d7d7d" stroke-dasharray="5.6, 2.8" stroke-width=".7"/>
  <path d="m11.414 79.143 33.409 0.13363 11.008-0.0835 4.4267-2.9567 4.7273-0.61806 8.6863 1.5368 3.9923-1.0858 4.5937 0.90203 9.0537-0.48443s4.126-2.5725 4.5269-2.5224c0.4009 0.0501 4.41 0.21716 4.41 0.21716l4.4434-3.4411 2.3887-4.0258 2.0212-3.107 4.3765-4.8777 4.41-0.0167 4.4935-4.8777 5.6294 1.4366 3.1571 0.48442 4.4601 7.1829 4.8276-7.3833 4.0258-8.4357 3.6248 3.6248s1.7038-5.5792 1.7874-5.5124c0.0835 0.0668 0.86863 0.96885 0.86863 0.96885l0.81851-0.28397 0.91874 1.8709 0.95215-3.7084 0.86862-1.0524 0.7517 0.66817 0.98556 1.2361 0.55124-0.86863 1.2194-1.5034 0.98555-0.18375 0.18375-0.70158s2.4221-4.4434 2.489-4.5102c0.0668-0.0668 1.5368-5.0614 1.5869-5.2118 0.0501-0.15034 0 4.3598 0 4.3598s0.7836-4.7484 0.90171-4.9846c0.11812-0.23624 1.7481-5.9059 1.7481-5.9059l0.99219-1.6064 0.8032-0.63783s0.18899-0.96857 0.30711-1.0158c0.11811-0.0472 0.85044-2.575 0.85044-2.575l0.68508-1.3229s1.7009 5.457 1.7481 5.3153c0.0472-0.14174 0.54334-1.441 0.61421-1.7245 0.0709-0.28348 0.18899-1.5355 0.18899-1.5355l1.8663-2.1734 0.87407-0.0472 0.25986 0.54334 0.18899 1.4174 1.1339 3.6853 0.77958 2.8584 0.16536 1.0158 1.1339 0.99218 0.73233-2.6931 0.94494 0.85045 0.94494 0.37798 0.85045-1.5119 0.75595-2.6931 1.0158-1.2048s0.92132 0.85045 0.96857 0.94494c0.0472 0.0945 0.82682 1.0158 0.82682 1.0158l0.85045-0.23623 1.819-0.99219 1.0158-0.94494 0.23623-0.61421 0.47247-0.66146 0.85045 0.35435 0.94494 0.61421 0.99219-0.37797 0.73233-0.44885 0.37797 1.0394 0.51972 1.7245 1.0158-0.49609 0.75595 0.37797 0.51972-0.42522 0.49609-0.28348 0.8977 0.51972 0.77957 1.1103 0.8032-0.56696 0.96857 1.819 0.94494 4.205 0.47247-1.2048 0.35435-0.56696" stroke="#000" stroke-width=".6"/>
  <rect x="11.343" y=".25" width="190.69" height="84.575" stroke="#000" stroke-linecap="round" stroke-linejoin="round" stroke-width=".5" style="paint-order:fill markers stroke"/>
 </g>
 <text x="164.23274" y="72.627617" font-family="Arial" font-size="3.2118px" letter-spacing="0px" stroke-width=".26458" text-align="center" word-spacing="0px" style="font-variant-ligatures:none;line-height:1.1" xml:space="preserve"><tspan x="164.23274" y="72.627617" text-align="start">urbancruiseship.org</tspan><tspan x="164.23274" y="76.243294" text-align="start">info@urbancruiseship.org</tspan><tspan x="164.23274" y="79.858971" text-align="start">Exhibit constructed by</tspan><tspan x="164.23274" y="83.474648" text-align="start">Richard Burd 12/5/2022</tspan></text>
 <g transform="matrix(1.0569 0 0 1.0569 80.242 25.807)" stroke-width=".94618">
  <path transform="matrix(.14513 0 0 .14548 80.326 -52.334)" d="m7.654 644.93c-0.969-0.111-0.39-0.582 2.083-1.696 1.358-0.612 2.866-1.33 3.351-1.595 0.815-0.445 1.05-0.484 3.093-0.515 1.76-0.026 2.298-0.094 2.64-0.334 0.546-0.382 1.135-0.403 0.994-0.037-0.084 0.22 0.115 0.265 1.194 0.265 1.566 0 2.432 0.155 2.353 0.42-0.032 0.109-0.716 0.53-1.522 0.936a85.628 85.628 0 0 0-3.077 1.656l-1.613 0.917-4.5 0.02c-2.476 0.01-4.724-6e-3 -4.996-0.037zm4.61-0.649c0.05-0.048-0.678-0.088-1.616-0.088-0.99 0-1.705 0.072-1.705 0.172 0 0.173 3.145 0.093 3.322-0.084zm4.955 0.017c-0.145-0.14-2.73-0.214-3.249-0.094-0.32 0.075 0.234 0.132 1.396 0.145 1.06 0.011 1.893-0.012 1.853-0.05zm-3.77-0.649c0.135-0.217-2.755-0.205-3.095 0.014-0.18 0.115 0.258 0.166 1.366 0.159 0.896-6e-3 1.675-0.084 1.73-0.173zm4.889-0.018c0.12-0.076-0.655-0.138-1.722-0.138-1.357 0-1.86 0.053-1.676 0.177 0.303 0.202 3.068 0.171 3.398-0.039zm-3.495-0.695c0.2-0.183-0.574-0.197-2.24-0.04-0.655 0.063-1.19 0.18-1.19 0.262 0 0.19 3.207-0.017 3.43-0.222zm4.683 0.022c0.18-0.116-0.31-0.172-1.543-0.174-1.09-2e-3 -1.808 0.068-1.808 0.174 0 0.23 2.997 0.23 3.351 0zm-3.351-0.697c0-0.191-2.915-0.15-3.11 0.044-0.068 0.068 0.604 0.124 1.493 0.124 0.906 0 1.617-0.074 1.617-0.168zm4.674-8e-3c0.07-0.113-0.498-0.176-1.577-0.176-1.006 0-1.686 0.07-1.686 0.176 0 0.104 0.643 0.176 1.577 0.176 0.867 0 1.626-0.079 1.686-0.176zm-3.88-0.528c0.229-0.098-0.19-0.147-1.195-0.14-0.85 4e-3 -1.59 0.078-1.642 0.162-0.121 0.197 2.37 0.177 2.837-0.022zm3.836-0.13a10.112 10.112 0 0 0-1.5 0c-0.412 0.037-0.074 0.067 0.75 0.067 0.825 0 1.162-0.03 0.75-0.067zm0.573 3.217a9.57 9.57 0 0 0-0.661-0.166c-0.617-0.136-0.612-0.301 0.02-0.675 0.397-0.234 0.75-0.275 1.652-0.191 0.68 0.064 1.51 0.02 2.038-0.107l0.89-0.213-0.426-0.628c-0.53-0.783-0.551-1.784-0.059-2.87l0.36-0.793-0.401-0.325c-0.841-0.68-1.904-1.19-3.164-1.515-0.77-0.199-1.126-0.352-0.866-0.373 0.412-0.034 0.406-0.044-0.088-0.155-0.291-0.065-0.569-0.07-0.618-0.01-0.048 0.06-0.226 0.16-0.395 0.221-0.524 0.193-0.972 1.162-1.103 2.38-0.082 0.773-0.175 1.077-0.273 0.902-0.203-0.364 0.06-2.147 0.392-2.653 0.15-0.228 0.276-0.485 0.281-0.572 6e-3 -0.086 0.116-0.23 0.246-0.32 0.159-0.11 0.102-0.126-0.176-0.047-0.645 0.182-2.875-0.09-2.727-0.332 0.069-0.111-0.07-0.075-0.309 0.081-0.532 0.349-0.932 1.464-0.792 2.212 0.057 0.306 0.297 0.842 0.534 1.191l0.431 0.635h-0.533c-0.473 0-0.582-0.105-0.954-0.926-0.365-0.804-0.398-1.04-0.254-1.796 0.208-1.094 0.517-1.566 1.41-2.157 0.699-0.462 0.747-0.468 3.832-0.47 2.767 0 3.252 0.043 4.24 0.387 2.051 0.714 2.696 1.314 4.176 3.884 0.662 1.148 0.853 1.651 0.853 2.247 0 1.021-0.336 1.352-1.877 1.847-0.698 0.224-1.388 0.543-1.533 0.71-0.42 0.48-3.267 0.89-4.146 0.597zm5.237-2.199c0.454-0.123 0.86-0.313 0.902-0.424 0.042-0.11-0.211-0.652-0.562-1.203-1.17-1.84-1.96-1.772-2.1 0.18-0.082 1.121 0.327 2.136 0.735 1.823 0.109-0.084 0.57-0.253 1.025-0.376zm-1.463-4.064c-0.899-0.77-3.685-1.975-3.685-1.593 0 0.078 0.269 0.193 0.597 0.255 0.782 0.146 2.612 1.065 3.02 1.516 0.176 0.194 0.358 0.315 0.405 0.268 0.046-0.046-0.105-0.247-0.337-0.446zm41.707 5.509c-0.135-0.086-0.192-0.668-0.166-1.717 0.042-1.73-0.147-8.72-0.319-11.818a521.71 521.71 0 0 1-0.285-6.703c-0.098-2.619-0.22-5.357-0.27-6.085-0.177-2.551-0.615-7.677-0.692-8.114a27.111 27.111 0 0 1-0.18-1.411c-0.356-3.41-1.44-9.469-2.305-12.876-1.192-4.703-2.982-7.814-5.15-8.951-1.487-0.78-2.673-1.018-4.981-0.996-9.367-0.011-20.663 5.389-23.235 10.802-1.792 3.772 1.565 9.014 4.606 12.952 2.476 3.052 2.834 3.506 2.901 3.68 0.124 0.321 0.4 0.133 0.294-0.201-0.064-0.203-0.032-0.353 0.076-0.353 0.104 0 0.189-0.12 0.189-0.265 0-0.147-0.157-0.264-0.353-0.264-0.194 0-0.353-0.08-0.353-0.177 0-0.255 0.394-0.216 0.82 0.082 0.202 0.142 0.418 0.209 0.48 0.147 0.192-0.192 0.121-0.724-0.11-0.82-0.12-0.05 0.049-0.044 0.377 0.013 0.463 0.08 0.579 0.047 0.515-0.144-0.044-0.136-0.254-0.273-0.464-0.304-0.448-0.066-0.488-0.254-0.121-0.56 0.338-0.28 1.13-0.086 1.275 0.313 0.06 0.167 0.257 0.494 0.436 0.728 0.186 0.242 0.282 0.564 0.223 0.75-0.077 0.242-0.013 0.325 0.25 0.325 0.196 0 0.408 0.085 0.472 0.188 0.186 0.302 1.52-7e-3 2.087-0.483 0.46-0.387 0.535-0.4 0.808-0.153 0.453 0.41 0.562 0.126 0.139-0.36-0.332-0.382-0.4-0.398-0.662-0.162-0.333 0.302-0.704 0.348-0.704 0.088 0-0.097 0.066-0.177 0.148-0.177 0.081 0 0.238-0.198 0.349-0.44 0.11-0.243 0.326-0.442 0.48-0.442 0.315 0 1.316-1.026 1.316-1.35 0-0.117-0.159-0.264-0.353-0.325-0.194-0.062-0.353-0.224-0.353-0.36 0-0.182-0.141-0.22-0.529-0.143-0.41 0.082-0.529 0.043-0.529-0.175 0-0.294-0.663-0.747-0.837-0.572-0.056 0.056-0.092 0.382-0.079 0.726 0.016 0.41-0.088 0.72-0.3 0.902-0.26 0.222-0.298 0.401-0.188 0.888 0.103 0.457 0.075 0.633-0.111 0.704-0.425 0.163-0.778-0.087-0.778-0.55 0-0.328-0.117-0.473-0.447-0.556-0.481-0.12-0.904-0.77-0.965-1.482-0.064-0.74-0.018-0.831 0.538-1.061 0.45-0.186 1.05-0.94 1.05-1.315 0-0.105-0.794-0.015-1.61 0.181-0.34 0.082-0.662-0.02-1.208-0.38-0.613-0.406-1-0.51-2.199-0.59-0.874-0.059-1.577-0.199-1.76-0.351-0.268-0.222-0.381-0.213-0.922 0.078-0.527 0.285-0.639 0.296-0.777 0.077-0.288-0.456-0.18-0.598 0.945-1.237 3.117-1.772 6.32-2.65 9.653-2.648 2.745 3e-3 5.045 0.454 7.756 1.523 1.463 0.577 4.623 2.798 5.888 4.14 1.17 1.24 2.694 3.402 3.417 4.847 1.797 3.595 2.477 9.165 1.628 13.335-0.82 4.02-2.494 7.105-5.45 10.042-1.9 1.887-4.18 3.329-6.631 4.195-3.546 1.251-8.163 1.424-11.728 0.438-1.207-0.334-3.528-1.28-3.528-1.438 0-0.065 0.157-0.216 0.35-0.336 0.294-0.183 0.563-0.133 1.698 0.318 0.741 0.294 1.383 0.5 1.426 0.457s3e-3 -0.224-0.089-0.404c-0.327-0.638-0.564-1.601-0.67-2.72a43.79 43.79 0 0 0-0.185-1.662c-0.16-1.092-0.113-2.862 0.107-4.023 0.221-1.162 0.216-1.214-0.174-1.628-0.221-0.236-0.568-0.479-0.771-0.54-0.623-0.189-1.163-0.806-1.163-1.33 0-0.27-0.159-0.895-0.353-1.387-0.425-1.08-0.45-1.893-0.07-2.312 0.365-0.404 0.173-0.754-0.282-0.51-0.181 0.096-0.442 0.176-0.58 0.176-0.296 0-1.008-0.586-1.008-0.83 0-0.094-0.194-0.26-0.431-0.368-0.387-0.176-0.414-0.255-0.266-0.77 0.155-0.542 0.118-0.614-0.672-1.313-0.564-0.498-0.854-0.659-0.893-0.493-0.111 0.481-0.37 0.231-0.925-0.897-0.47-0.956-0.549-1.288-0.478-2.023 0.05-0.53 0.011-0.903-0.1-0.94-0.106-0.036-0.019-0.296 0.202-0.607 0.214-0.3 0.388-0.629 0.388-0.732s0.238-0.458 0.53-0.79c0.29-0.331 0.528-0.654 0.528-0.717s0.131-0.41 0.29-0.77c0.16-0.361 0.313-0.763 0.34-0.893 0.089-0.427 0.187-0.389 0.828 0.325 0.388 0.433 0.536 0.706 0.382 0.706-0.139 0-0.252 0.066-0.252 0.147 0 0.08-0.238 0.147-0.53 0.147-0.29 0-0.55 0.033-0.576 0.073-0.027 0.04-0.228 0.407-0.447 0.814-0.399 0.74-0.4 0.74-0.04 0.932 0.496 0.266 0.448 0.683-0.104 0.893-0.324 0.124-0.535 0.116-0.706-0.026-0.19-0.157-0.243-0.138-0.243 0.085 0 0.157 0.1 0.287 0.22 0.289 0.148 2e-3 0.133 0.06-0.044 0.176-0.235 0.154-0.235 0.193 0 0.347 0.227 0.15 0.22 0.174-0.044 0.177-0.254 2e-3 -0.303 0.15-0.28 0.84 0.022 0.644 0.045 0.706 0.1 0.265 0.087-0.705 0.31-0.731 0.65-0.075 0.14 0.273 0.382 0.601 0.535 0.729 0.217 0.18 0.233 0.286 0.072 0.48-0.166 0.2-0.071 0.388 0.474 0.946 0.375 0.384 0.765 0.696 0.866 0.694 0.102-2e-3 -0.013-0.159-0.256-0.349-0.41-0.32-0.416-0.345-0.082-0.349 0.232-3e-3 0.37-0.13 0.386-0.356 0.015-0.194-0.047-0.353-0.138-0.353s-0.166-0.129-0.166-0.286c0-0.597 0.483 0.113 0.583 0.856 0.055 0.407 0.224 0.831 0.376 0.943 0.396 0.29 0.34 0.471-0.103 0.33-0.329-0.104-0.364-0.066-0.272 0.288 0.059 0.225 0.032 0.499-0.06 0.61-0.113 0.135-0.037 0.27 0.234 0.415 0.221 0.118 0.478 0.388 0.571 0.6 0.094 0.213 0.33 0.417 0.523 0.453 0.34 0.063 0.341 0.052 0.04-0.282-0.172-0.192-0.266-0.47-0.208-0.62 0.057-0.15 0.02-0.325-0.084-0.39-0.304-0.187-0.216-0.496 0.106-0.372 0.162 0.062 0.359 0.011 0.438-0.114 0.223-0.351 0.175-0.538-0.11-0.43-0.142 0.056-0.306 0.024-0.363-0.068-0.057-0.093-0.012-0.17 0.101-0.17 0.117 0 0.159-0.122 0.097-0.283-0.076-0.198-0.033-0.255 0.143-0.188a0.272 0.272 0 0 0 0.35-0.157c0.053-0.139 0.206-0.253 0.34-0.253 0.133 0 0.386-0.159 0.561-0.353 0.309-0.34 0.308-0.352-0.016-0.347-0.185 3e-3 -0.49 0.122-0.679 0.265-0.464 0.35-1.111 0.326-1.297-0.05-0.285-0.579-0.059-1.628 0.453-2.097 0.323-0.296 0.409-0.47 0.26-0.532-0.254-0.105-0.3-0.59-0.055-0.59 0.09 0 0.214 0.159 0.276 0.353 0.118 0.37 0.354 0.46 0.517 0.196 0.053-0.086-0.02-0.254-0.164-0.373s-0.215-0.29-0.159-0.381c0.132-0.214 0.6 0.168 0.6 0.491 0 0.445 1.113 0.178 1.168-0.28 0.012-0.1 0.032-0.23 0.044-0.286 0.013-0.058 0.267 0.101 0.565 0.352 0.645 0.543 1.24 0.648 0.846 0.15-0.228-0.289-0.217-0.29 0.199-0.018 0.25 0.163 0.417 0.42 0.385 0.59-0.035 0.188 0.031 0.27 0.176 0.22 0.128-0.046 0.213-0.257 0.189-0.47-0.024-0.214 0.03-0.343 0.12-0.287s0.214 0.02 0.275-0.078c0.06-0.099-0.013-0.18-0.165-0.18-0.15 0-0.274-0.079-0.274-0.176s0.079-0.176 0.176-0.176 0.176-0.08 0.176-0.18c0-0.104-0.187-0.133-0.443-0.068-0.377 0.094-0.425 0.062-0.324-0.217 0.065-0.181 0.053-0.27-0.026-0.198-0.08 0.072-0.24 0.051-0.357-0.046-0.158-0.13-0.2-0.062-0.164 0.266 0.027 0.243-0.03 0.49-0.125 0.548-0.189 0.117-5.328-5.07-7.044-7.181-8.159-10.028-4.139-15.117 5.661-20.627 3.878-2.181 9.312-3.752 15.578-4.916 6.804-1.264 11.223-1.517 13.026-0.744 0.786 0.337 1.883 1.43 2.372 2.363 0.14 0.267 0.288 1.061 0.329 1.764 0.203 3.498 0.583 51.492 0.463 58.384-0.018 1.005-0.163 1.197-0.663 0.88zm-20.522-5.526c2.744-0.531 3.801-0.96 5.057-2.052 2.937-2.556 4.487-6.072 4.753-10.783l0.118-2.085-0.617-0.69c-0.34-0.379-0.703-0.854-0.808-1.055-0.308-0.59-0.222-1.878 0.154-2.286 0.181-0.198 0.345-0.516 0.363-0.706 0.062-0.666-0.025-1.16-0.188-1.06-0.09 0.056-0.214 0.021-0.276-0.078-0.061-0.1 4e-3 -0.225 0.144-0.279 0.22-0.084 0.222-0.21 0.012-0.925-0.347-1.175-1.942-4.257-3.163-6.109-0.962-1.46-1.424-1.969-3.34-3.69-0.799-0.716-1.123-0.616-0.82 0.254 0.266 0.763 0.257 0.826-0.165 1.052-0.3 0.16-0.47 0.113-0.976-0.272-0.874-0.667-1.319-1.181-1.29-1.492 0.013-0.15 6e-3 -0.33-0.018-0.403a3.187 3.187 0 0 1-0.152-0.757c-0.024-0.294-1.895-1.205-3.181-1.549-0.457-0.122-0.81-0.33-0.855-0.504-0.043-0.163-0.174-0.334-0.292-0.379-0.381-0.146-1.188 0.096-1.298 0.39a1.373 1.373 0 0 1-0.383 0.5c-0.169 0.132-0.194 0.217-0.065 0.22a0.403 0.403 0 0 0 0.319-0.17c0.172-0.279 1.5-0.221 1.5 0.065 0 0.143 0.27 0.285 0.66 0.348 0.86 0.137 2.322 0.847 2.331 1.13 4e-3 0.13-0.213 0.22-0.522 0.22-0.737 0-0.663 0.29 0.111 0.434 0.448 0.085 0.585 0.176 0.455 0.306a0.439 0.439 0 0 0-0.093 0.429c0.056 0.144-0.021 0.243-0.19 0.243-0.156 0-0.283-0.08-0.283-0.176 0-0.097-0.327-0.177-0.726-0.177-0.652 0-0.717-0.038-0.63-0.372 0.151-0.574-0.155-1.16-0.655-1.255-0.631-0.12-0.697 0.029-0.188 0.429 0.437 0.343 0.63 1.375 0.258 1.375a0.177 0.177 0 0 1-0.176-0.177c0-0.097-0.119-0.176-0.264-0.176-0.146 0-0.265 0.071-0.265 0.159 0 0.087-0.277 0.322-0.615 0.521-0.447 0.264-0.587 0.45-0.512 0.68 0.316 0.978 0.487 1.259 0.88 1.438 0.238 0.108 0.513 0.377 0.609 0.596 0.154 0.35 0.162 0.334 0.071-0.121-0.082-0.41-0.018-0.585 0.305-0.83 0.35-0.267 0.378-0.361 0.192-0.663-0.137-0.222-0.153-0.392-0.045-0.46 0.096-0.058 0.173-0.26 0.173-0.449 0-0.396 0.098-0.413 0.856-0.148 0.305 0.106 0.555 0.304 0.555 0.44 0 0.137 0.08 0.248 0.177 0.248s0.176-0.08 0.176-0.177c0-0.317 0.56-0.184 0.649 0.155 0.047 0.181 0.323 0.505 0.611 0.718 0.44 0.325 0.49 0.432 0.303 0.657-0.185 0.222-0.152 0.32 0.194 0.581l0.416 0.314-0.47 0.308c-0.372 0.244-0.523 0.264-0.726 0.095-0.33-0.273-0.717-0.065-0.458 0.247 0.101 0.122 0.131 0.273 0.068 0.337-0.064 0.064 0.016 0.116 0.178 0.116 0.531 0 0.31 0.943-0.297 1.268-0.206 0.11-0.77 0.23-1.254 0.269-0.484 0.038-0.922 0.135-0.973 0.216-0.051 0.08-0.252 0.177-0.446 0.213-0.204 0.038-0.376 0.233-0.409 0.461-0.03 0.218-0.16 0.395-0.286 0.395-0.132 0-0.23 0.202-0.23 0.472 0 0.474-0.437 0.94-0.881 0.94-0.132 0-0.474 0.12-0.76 0.269-0.569 0.294-0.707 0.953-0.283 1.35 0.256 0.239 0.18 0.911-0.084 0.748-0.088-0.054-0.122-0.159-0.077-0.232s-0.088-0.127-0.295-0.12c-0.293 0.01-0.407-0.124-0.506-0.596-0.156-0.747-0.614-1.11-1.228-0.976-0.301 0.066-0.54 7e-3 -0.687-0.171-0.39-0.47-1.204-0.334-1.78 0.296-0.515 0.563-0.697 1.418-0.348 1.633 0.094 0.058 0.408-0.016 0.697-0.166 0.632-0.327 1.601-0.36 1.601-0.055 0 0.12-0.32 0.51-0.712 0.868-0.579 0.529-0.692 0.733-0.604 1.086 0.082 0.325 0.013 0.503-0.272 0.703-0.25 0.174-0.361 0.41-0.323 0.681 0.051 0.359 0.141 0.406 0.674 0.352 0.34-0.034 0.796-0.242 1.02-0.466 0.421-0.422 1.578-0.677 1.906-0.422 0.107 0.084 0.278 0.059 0.394-0.057 0.112-0.112 0.263-0.146 0.334-0.074 0.072 0.072 0.016 0.2-0.124 0.287s-0.217 0.182-0.171 0.211c0.69 0.446 0.918 0.504 1.169 0.296 0.211-0.176 0.293-0.172 0.41 0.018a0.61 0.61 0 0 1 0.056 0.474c-0.057 0.148 0.04 0.236 0.26 0.236 0.192 0 0.45 0.12 0.572 0.268 0.156 0.188 0.394 0.236 0.8 0.16 0.837-0.157 1.21 0.022 1.556 0.745 0.303 0.636 0.301 0.645-0.145 1.11-0.478 0.5-0.56 0.716-0.274 0.716 0.097 0 0.177-0.12 0.177-0.265s0.122-0.264 0.271-0.264c0.49 0 1.707 0.725 1.798 1.072 0.07 0.269 0.248 0.339 0.862 0.339 0.52 0 0.881 0.108 1.104 0.33 0.182 0.182 0.559 0.407 0.838 0.5 0.412 0.136 0.517 0.282 0.56 0.785 0.047 0.554-0.025 0.67-0.706 1.133-1.014 0.688-1.187 0.931-1.194 1.672-9e-3 1.008-0.853 1.753-1.984 1.753-0.931 0-2.154 1.076-2.015 1.773 0.116 0.578-0.156 0.873-0.804 0.873-0.523 0-0.62 0.156-0.298 0.479 0.238 0.237-0.289 1.037-0.77 1.168-0.17 0.046-0.308 0.244-0.308 0.439s-0.093 0.385-0.206 0.423c-0.15 0.05-0.156 0.21-0.025 0.588 0.1 0.285 0.118 0.678 0.042 0.872-0.118 0.299-0.14 0.305-0.151 0.044-7e-3 -0.17-0.097-0.309-0.201-0.309-0.11 0-0.14-0.15-0.074-0.36 0.063-0.2 0.028-0.467-0.078-0.595-0.143-0.173-0.124-0.29 0.076-0.456 0.219-0.182 0.227-0.274 0.046-0.497-0.188-0.232-0.175-0.256 0.086-0.159 0.26 0.098 0.309 0.01 0.309-0.563 0-0.516 0.08-0.7 0.33-0.766 0.269-0.07 0.323-0.231 0.288-0.85-0.052-0.917 0.255-1.333 0.777-1.054 0.454 0.243 0.545 0.234 0.545-0.059 0-0.134 0.16-0.286 0.358-0.338 0.197-0.051 0.335-0.196 0.308-0.32-0.027-0.126 0.07-0.232 0.213-0.237 0.341-0.01 0.445-0.569 0.169-0.902-0.12-0.143-0.155-0.318-0.079-0.389 0.076-0.07 0.173-0.028 0.216 0.093 0.093 0.26 1.108 0.3 1.108 0.044 0-0.097 0.08-0.176 0.176-0.176 0.097 0 0.177 0.119 0.177 0.264 0 0.146 0.088 0.265 0.195 0.265s0.15-0.12 0.094-0.265c-0.062-0.16-1e-3 -0.264 0.152-0.264 0.16 0 0.213 0.104 0.145 0.282-0.08 0.207-0.02 0.266 0.22 0.22 0.195-0.038 0.397-0.304 0.498-0.659 0.145-0.503 0.118-0.635-0.17-0.855-0.323-0.246-0.318-0.253 0.1-0.133 0.36 0.103 0.401 0.084 0.22-0.106-0.293-0.308-0.28-0.525 0.027-0.408 0.136 0.053 0.294 0.019 0.352-0.075 0.058-0.093-0.014-0.215-0.159-0.27-0.145-0.056-0.262-0.204-0.26-0.328 1e-3 -0.139 0.052-0.158 0.132-0.05 0.208 0.284 0.57 0.288 0.57 6e-3 0-0.158 0.104-0.22 0.267-0.156 0.193 0.074 0.236 0.021 0.154-0.192-0.063-0.162-0.222-0.253-0.355-0.202s-0.242 0.016-0.242-0.078c0-0.261 0.377-0.204 0.725 0.11 0.171 0.156 0.395 0.23 0.499 0.167 0.29-0.18 0.22-0.447-0.122-0.46-0.263-0.011-0.257-0.035 0.045-0.162 0.312-0.132 0.288-0.163-0.216-0.273-0.327-0.072-0.612-0.265-0.673-0.456-0.061-0.193-0.267-0.33-0.49-0.329-0.307 2e-3 -0.332 0.036-0.126 0.167 0.143 0.09 0.21 0.214 0.148 0.276-0.144 0.143-0.848-0.228-0.848-0.446 0-0.091-0.12-0.12-0.265-0.063-0.145 0.055-0.264 0.212-0.264 0.347 0 0.284-0.281 0.328-0.441 0.07-0.06-0.098-0.025-0.177 0.077-0.177a0.187 0.187 0 0 0 0.187-0.187c0-0.103-0.08-0.138-0.176-0.078-0.097 0.06-0.177-0.015-0.177-0.166 0-0.291-0.458-0.386-0.558-0.116-0.033 0.088-0.161 0.048-0.286-0.088-0.192-0.208-0.14-0.247 0.323-0.247 0.314 0 0.524-0.082 0.488-0.19-0.076-0.225-0.118-0.228-1.034-0.073-0.469 0.079-0.799 0.045-0.975-0.101-0.201-0.168-0.315-0.172-0.47-0.017-0.325 0.325-0.485 0.24-0.446-0.237 0.034-0.413 0.313-0.648 0.313-0.264 0 0.376 0.3 0.148 0.581-0.441 0.216-0.452 0.236-0.621 0.077-0.631-0.17-0.011-0.169-0.034 3e-3 -0.103 0.121-0.05 0.22-0.206 0.22-0.35 0-0.143-0.07-0.216-0.157-0.162-0.087 0.053-0.204-0.021-0.26-0.166-0.055-0.145-0.202-0.258-0.327-0.25-0.181 0.011-0.181 0.032 2e-3 0.105 0.181 0.073 0.183 0.146 0.012 0.353-0.138 0.165-0.153 0.304-0.043 0.38 0.225 0.154 0.273 0.912 0.057 0.912-0.091 0-0.165-0.198-0.165-0.441 0-0.242-0.085-0.44-0.189-0.44-0.108 0-0.14-0.151-0.076-0.354 0.135-0.425-0.05-0.448-0.586-0.072-0.405 0.283-0.913 0.231-0.913-0.093 0-0.097 0.119-0.13 0.264-0.075 0.362 0.139 0.334-0.11-0.044-0.396-0.411-0.313-0.585-0.305-0.46 0.02 0.073 0.192 0.022 0.236-0.182 0.158-0.156-0.06-0.284-0.228-0.284-0.373 0-0.171-0.1-0.226-0.284-0.156-0.204 0.078-0.255 0.033-0.182-0.157 0.113-0.296-0.155-0.37-0.328-0.09a0.41 0.41 0 0 1-0.319 0.173c-0.132-2e-3 -0.144-0.05-0.033-0.132 0.307-0.226 0.252-0.495-0.101-0.495-0.187 0-0.34 0.067-0.34 0.149s-0.08 0.1-0.178 0.039c-0.098-0.06-0.232 0.034-0.298 0.21a1.344 1.344 0 0 1-0.378 0.514c-0.142 0.106-0.202 0.285-0.133 0.397 0.074 0.12 0.013 0.203-0.15 0.203-0.412 0-0.331-0.484 0.17-1.022 0.36-0.388 0.392-0.489 0.167-0.536-0.218-0.047-0.233-0.112-0.07-0.31 0.247-0.297 0.167-0.308-0.466-0.068-0.263 0.1-0.427 0.232-0.366 0.293 0.062 0.062-0.048 0.224-0.243 0.36-0.195 0.137-0.306 0.327-0.246 0.424 0.06 0.096-0.02 0.318-0.179 0.493-0.3 0.332-0.494 1.6-0.244 1.6 0.08 0 0.144 0.162 0.144 0.359s0.105 0.398 0.232 0.447c0.153 0.059 0.213 0.332 0.176 0.796-0.046 0.58 0.029 0.786 0.414 1.143 0.298 0.277 0.589 0.398 0.794 0.333 0.21-0.067 0.324-0.015 0.324 0.146 0 0.137 0.201 0.48 0.447 0.762 0.298 0.342 0.41 0.63 0.338 0.865-0.535 1.75-0.617 2.969-0.193 2.871 0.117-0.027 0.213 0.03 0.213 0.128 0 0.097-0.092 0.155-0.205 0.13-0.267-0.062-0.437 0.838-0.231 1.222 0.088 0.164 0.116 0.41 0.064 0.547-0.053 0.137 0.03 0.354 0.185 0.482 0.214 0.178 0.229 0.266 0.064 0.368-0.172 0.106-0.171 0.19 5e-3 0.403 0.147 0.176 0.168 0.368 0.062 0.556-0.164 0.295 0.177 1.994 0.44 2.19 0.074 0.054 0.134 0.254 0.134 0.444 0 0.442 1.03 0.766 3.087 0.972 1.773 0.177 2.635 0.115 5.115-0.364zm-7.295-3.6c0.055-0.145 0.132-0.264 0.17-0.264 0.039 0 0.07 0.12 0.07 0.265s-0.077 0.264-0.171 0.264-0.125-0.119-0.07-0.264zm-1.612-1.322c-0.06-0.097-0.03-0.176 0.067-0.176s0.226 0.079 0.286 0.176 0.03 0.176-0.068 0.176c-0.097 0-0.225-0.079-0.285-0.176zm3.175-1.587c0.06-0.097 0.188-0.177 0.285-0.177s0.127 0.08 0.068 0.177c-0.06 0.097-0.189 0.176-0.286 0.176s-0.127-0.08-0.067-0.176zm1.5-0.878c0-0.239 0.313-0.387 0.427-0.202 0.054 0.088-0.02 0.206-0.164 0.262-0.145 0.055-0.264 0.029-0.264-0.06zm-4.506-0.369c-0.064-0.103-0.079-0.226-0.032-0.272 0.046-0.046 0.13 0.038 0.188 0.188 0.12 0.31 0.018 0.365-0.156 0.084zm7.415-0.87c-0.06-0.097-0.03-0.177 0.068-0.177 0.097 0 0.225 0.08 0.285 0.177s0.03 0.176-0.067 0.176-0.226-0.08-0.286-0.176zm-1.499-0.265c-0.18-0.216-0.168-0.264 0.067-0.264 0.157 0 0.286 0.119 0.286 0.264 0 0.146-0.03 0.265-0.067 0.265-0.036 0-0.165-0.12-0.286-0.265zm-5.556-0.264c0.06-0.097 0.188-0.177 0.285-0.177s0.128 0.08 0.068 0.177-0.189 0.176-0.286 0.176-0.127-0.08-0.067-0.176zm6.438-0.265c0-0.145 0.077-0.264 0.171-0.264s0.125 0.119 0.07 0.264c-0.057 0.146-0.133 0.265-0.172 0.265-0.038 0-0.069-0.12-0.069-0.265zm-6.526-0.264c0-0.097 0.084-0.177 0.187-0.177 0.102 0 0.137 0.08 0.077 0.176-0.06 0.097-0.144 0.177-0.186 0.177-0.043 0-0.078-0.08-0.078-0.177zm-0.074-0.682c-0.076-0.123-0.09-0.272-0.032-0.33 0.158-0.158 0.33 0.075 0.245 0.33-0.06 0.18-0.102 0.18-0.213 0zm3.745-0.145c0.127-0.05 0.28-0.044 0.338 0.014 0.059 0.059-0.046 0.1-0.232 0.093-0.205-8e-3 -0.247-0.05-0.106-0.107zm3.032-0.035c0-0.158 0.53-0.431 0.634-0.327 0.03 0.03-0.1 0.152-0.29 0.27-0.19 0.12-0.344 0.144-0.344 0.057zm-2.382-0.373c-0.06-0.097-0.03-0.177 0.068-0.177 0.097 0 0.225 0.08 0.285 0.177s0.03 0.176-0.067 0.176-0.226-0.08-0.286-0.176zm-2.59-0.473c0.127-0.051 0.279-0.045 0.338 0.013 0.058 0.059-0.046 0.1-0.232 0.093-0.205-8e-3 -0.247-0.05-0.106-0.107zm5.247-0.181c-0.095-0.251-0.075-0.272 0.1-0.099 0.12 0.12 0.174 0.262 0.12 0.317-0.055 0.054-0.153-0.044-0.22-0.218zm0.43-0.228c0-0.097 0.08-0.177 0.176-0.177a0.177 0.177 0 0 1 0 0.353 0.177 0.177 0 0 1-0.176-0.176zm-8.467-0.353a0.177 0.177 0 0 1 0.353 0c0 0.097-0.08 0.176-0.176 0.176a0.177 0.177 0 0 1-0.177-0.176zm5.998-0.176c0-0.097 0.074-0.177 0.166-0.177 0.09 0 0.215 0.08 0.275 0.177s-0.015 0.176-0.166 0.176c-0.152 0-0.275-0.08-0.275-0.176zm-7.232-0.439c0-0.137 0.163-0.187 0.44-0.134 0.243 0.047 0.442 0.145 0.442 0.218 0 0.074-0.199 0.134-0.441 0.134-0.243 0-0.441-0.098-0.441-0.218zm6.173-0.267c-0.29-0.187-0.243-0.21 0.507-0.242 0.339-0.015 0.479 0.05 0.422 0.198-0.1 0.262-0.558 0.283-0.929 0.044zm-2.381-0.705c0.06-0.097 0.144-0.177 0.187-0.177s0.078 0.08 0.078 0.177-0.084 0.176-0.187 0.176-0.138-0.08-0.078-0.176zm-3.948-1.191c0.053-0.337-0.04-0.462-0.18-0.24-0.125 0.194-0.196 0.168-0.357-0.132-0.179-0.335-0.157-0.37 0.202-0.333 0.221 0.024 0.46 0.123 0.532 0.22 0.188 0.256 0.164 0.617-0.041 0.617-0.097 0-0.167-0.06-0.156-0.132zm4.132-0.208c-0.056-0.09-0.02-0.214 0.078-0.275s0.179 0.013 0.179 0.164c0 0.31-0.106 0.355-0.257 0.11zm-1.154-0.894c0-0.097 0.084-0.177 0.187-0.177 0.102 0 0.137 0.08 0.077 0.177s-0.144 0.176-0.186 0.176c-0.043 0-0.078-0.08-0.078-0.176zm4.762-1.048c0-0.092 0.08-0.215 0.177-0.275s0.176 0.014 0.176 0.166c0 0.15-0.08 0.275-0.176 0.275-0.097 0-0.177-0.075-0.177-0.166zm0.377-0.848c-0.245-0.457-0.072-0.983 0.278-0.849 0.14 0.054 0.29 0.099 0.33 0.099 0.162 0 0.06 0.48-0.168 0.791-0.233 0.32-0.247 0.319-0.44-0.041zm0.329-0.398c0-0.097-0.035-0.176-0.078-0.176s-0.127 0.08-0.187 0.176c-0.06 0.097-0.025 0.177 0.078 0.177s0.187-0.08 0.187-0.177zm9.09 0.363c-0.155-0.251 0.042-0.539 0.37-0.539 0.155 0 0.243 0.124 0.21 0.294-0.069 0.354-0.42 0.503-0.58 0.245zm-10.11-1.343c-0.215-0.15-0.391-0.359-0.391-0.462 0-0.127 0.079-0.123 0.242 0.013 0.133 0.11 0.352 0.173 0.485 0.138 0.134-0.034 0.18-0.027 0.103 0.015-0.076 0.042-0.047 0.187 0.066 0.323 0.274 0.33-0.016 0.315-0.504-0.027zm1.02 0.099c0-0.097 0.08-0.177 0.176-0.177a0.177 0.177 0 0 1 0 0.353 0.177 0.177 0 0 1-0.176-0.176zm-5.38-0.177c0.06-0.097 0.223-0.176 0.363-0.176s0.254 0.08 0.254 0.176c0 0.097-0.163 0.177-0.363 0.177s-0.314-0.08-0.254-0.177zm1.147-0.273c0-0.3 0.57-1.133 0.716-1.043 0.094 0.058 0.126 0.18 0.07 0.27s0.141 0.164 0.438 0.164 0.54 0.08 0.54 0.177 0.119 0.176 0.264 0.176c0.146 0 0.265 0.08 0.265 0.176 0 0.247-0.485 0.222-0.569-0.029-0.052-0.156-0.209-0.156-0.658 0-0.634 0.221-1.066 0.265-1.066 0.109zm-1.599-0.252c-0.248-0.05-0.753-0.342-1.12-0.648-0.638-0.529-0.652-0.561-0.284-0.678 0.27-0.085 0.503-0.013 0.77 0.238 0.212 0.199 0.716 0.414 1.121 0.479 0.866 0.138 1.14 0.536 0.438 0.635a3.25 3.25 0 0 1-0.925-0.026zm1.187-1.004c-0.183-0.183-0.138-0.764 0.059-0.764 0.097 0 0.176 0.073 0.176 0.162 0 0.09 0.048 0.288 0.107 0.441 0.107 0.278-0.119 0.385-0.342 0.161zm15.146-1.168c-0.076-0.174-0.088-0.366-0.028-0.427 0.18-0.179 0.324 0.073 0.241 0.42-0.073 0.309-0.082 0.309-0.213 6e-3zm-14.559-13.354c0-0.097 0.124-0.177 0.275-0.177s0.226 0.08 0.166 0.177-0.184 0.176-0.275 0.176-0.166-0.08-0.166-0.176zm0.379 31.728c-0.37-0.14-0.45-0.066-0.315 0.288 0.09 0.232 0.151 0.24 0.357 0.051 0.212-0.196 0.206-0.245-0.042-0.34zm1.17-1.423c0.417 0.079 0.45 0.055 0.253-0.183-0.493-0.597-1.364-0.358-0.977 0.268 0.083 0.133 0.141 0.136 0.184 0.01 0.034-0.102 0.277-0.145 0.54-0.095zm16.698-1.685c0.04-0.206 0.164-0.545 0.275-0.753s0.156-0.498 0.1-0.645c-0.101-0.264 0.232-0.994 0.821-1.797 0.238-0.325 0.263-0.494 0.113-0.774-0.265-0.496-0.067-1.514 0.391-2.002 0.547-0.582 0.338-1.019-0.412-0.86-0.708 0.149-1.057 0.436-0.53 0.436 0.207 0 0.426-0.08 0.486-0.177s0.184-0.176 0.275-0.176c0.284 0 0.182 0.46-0.174 0.782-0.435 0.394-0.655 1.604-0.356 1.963 0.18 0.218 0.116 0.408-0.363 1.074-0.372 0.52-0.576 1.003-0.566 1.347 9e-3 0.296-0.1 0.763-0.243 1.038-0.142 0.274-0.218 0.499-0.17 0.499 0.05 0 7e-3 0.218-0.093 0.485-0.166 0.44-0.157 0.46 0.096 0.21 0.153-0.15 0.31-0.443 0.35-0.65zm-14.278-0.75c0.139-0.225-0.27-0.225-0.618 0-0.215 0.138-0.192 0.17 0.122 0.173 0.213 0 0.436-0.077 0.496-0.174zm15.081-6.33c0-0.274-0.517-0.592-0.792-0.487-0.4 0.154-0.795-0.059-0.795-0.428 0-0.332-0.489-0.699-0.915-0.687-0.128 3e-3 -0.026 0.182 0.226 0.397 0.251 0.215 0.51 0.538 0.575 0.72 0.085 0.236 0.24 0.305 0.556 0.244 0.248-0.047 0.523 0.02 0.636 0.157 0.225 0.27 0.509 0.318 0.509 0.085zm-2.822-2.324c0-0.2-0.076-0.317-0.169-0.26-0.093 0.058-0.124 0.222-0.07 0.364 0.14 0.365 0.239 0.322 0.239-0.104zm-0.252-0.695c0.36 0 0.31-0.31-0.082-0.52-0.25-0.133-0.391-0.11-0.56 0.092-0.184 0.223-0.18 0.261 0.026 0.217 0.17-0.037 0.24 0.088 0.218 0.387-0.02 0.255 5e-3 0.31 0.057 0.132 0.05-0.17 0.203-0.308 0.341-0.308zm-18.622-1.059a0.177 0.177 0 0 0-0.176-0.176 0.177 0.177 0 0 0-0.177 0.176 0.177 0.177 0 0 0 0.353 0zm18.444-0.662c-0.31-0.293-0.32-0.292-0.213 0.015 0.063 0.178 0.114 0.412 0.114 0.52 0 0.137 0.065 0.133 0.213-0.015 0.166-0.166 0.141-0.28-0.114-0.52zm1.067-2.336a6.69 6.69 0 0 1 0.35-0.997c0.136-0.306 0.242-0.782 0.236-1.058-0.014-0.586-0.09-0.44-0.608 1.173-0.17 0.533-0.459 1.217-0.64 1.52-0.18 0.302-0.325 0.62-0.322 0.705 0.012 0.29 0.883-0.899 0.984-1.343zm-26.505-0.976c-0.15-0.39-0.395-0.312-0.29 0.092 0.051 0.193 0.16 0.31 0.241 0.259 0.082-0.05 0.104-0.209 0.05-0.351zm7.63-0.868c-0.063-0.247-0.227-0.45-0.366-0.45-0.21 0-0.203 0.09 0.044 0.518 0.345 0.602 0.482 0.573 0.321-0.068zm23.228 0.08c0.1-0.383-0.14-0.492-0.29-0.133-0.061 0.146-0.239 0.05-0.525-0.287-0.413-0.485-0.478-0.502-1.442-0.381-0.572 0.071-0.943 0.192-0.856 0.279s0.483 0.07 0.914-0.04c0.735-0.186 0.776-0.174 1.233 0.36 0.549 0.638 0.836 0.699 0.966 0.202zm-24.682-0.97c0.056-0.146 0.034-0.265-0.048-0.265s-0.248 0.12-0.369 0.265c-0.178 0.215-0.17 0.264 0.048 0.264a0.434 0.434 0 0 0 0.369-0.264zm3.508-0.035c0.073-0.04 0.132-0.434 0.132-0.874 0-0.652 0.066-0.817 0.353-0.892 0.194-0.051 0.353-0.163 0.353-0.248 0-0.237-0.577-0.176-0.94 0.1-0.245 0.185-0.449 0.2-0.838 0.065-0.477-0.166-0.716-0.498-0.36-0.498 0.086 0 0.206-0.139 0.265-0.308 0.06-0.17 0.156-0.408 0.212-0.53 0.057-0.122-0.012-0.22-0.156-0.22-0.142 0-0.302 0.165-0.354 0.366-0.053 0.201-0.248 0.406-0.435 0.454-0.249 0.066-0.317 0.202-0.257 0.516 0.045 0.236 0.132 0.436 0.194 0.447 0.061 0.01 0.39 0.042 0.729 0.07 0.82 0.066 0.854 0.086 0.44 0.264l-0.352 0.151 0.353 0.018c0.325 0.017 0.328 0.032 0.044 0.198-0.325 0.189-0.428 0.691-0.141 0.691 0.092 0 0.245-0.138 0.34-0.307 0.094-0.17 0.228-0.25 0.298-0.18 0.164 0.164-0.251 0.663-0.553 0.663a0.449 0.449 0 0 0-0.346 0.184c-0.104 0.17 0.659 0.072 1.02-0.13zm17.419-0.054c0-0.097-0.12-0.176-0.265-0.176-0.146 0-0.265-0.08-0.265-0.176a0.177 0.177 0 0 0-0.176-0.177c-0.493 0 0.01 0.53 0.661 0.695 0.025 6e-3 0.045-0.069 0.045-0.166zm1.122-0.265c0.264-0.265 0.335-0.442 0.54-1.366 0.06-0.267 0.2-0.485 0.311-0.485 0.325 0 0.849 0.555 0.849 0.899 0 0.375 0.282 0.592 0.439 0.338 0.06-0.098 0.044-0.179-0.037-0.179-0.082 0-0.235-0.23-0.341-0.511-0.285-0.754-0.843-1-1.279-0.564-0.211 0.211-0.307 0.482-0.25 0.704 0.065 0.247-0.072 0.527-0.44 0.895-0.303 0.303-0.431 0.534-0.296 0.534 0.131 0 0.358-0.12 0.504-0.265zm1.686-0.272c-0.129-0.08-0.317-0.092-0.419-0.028-0.108 0.068-0.056 0.142 0.124 0.177 0.17 0.034 0.315 0.155 0.323 0.27 8e-3 0.126 0.051 0.113 0.11-0.034a0.332 0.332 0 0 0-0.138-0.385zm-0.515-0.355c0-0.091-0.08-0.166-0.177-0.166s-0.176 0.124-0.176 0.275 0.08 0.226 0.176 0.166c0.097-0.06 0.177-0.184 0.177-0.275zm-2.823-0.244c0-0.14-0.079-0.303-0.176-0.363s-0.176 0.055-0.176 0.254c0 0.2 0.079 0.364 0.176 0.364s0.176-0.115 0.176-0.255zm-26.105-0.342c0-0.037-0.199-0.106-0.441-0.152-0.243-0.047-0.441-0.016-0.441 0.067 0 0.084 0.198 0.152 0.44 0.152 0.243 0 0.442-0.03 0.442-0.067zm26.54-1.167c0.344 0 0.506-0.62 0.274-1.052-0.127-0.238-0.37-0.36-0.715-0.36-0.61 0-0.67-0.176-0.166-0.49 0.296-0.185 0.323-0.286 0.16-0.592-0.109-0.202-0.159-0.57-0.112-0.817 0.05-0.264-0.051-0.673-0.247-0.994-0.434-0.711-0.42-0.862 0.061-0.709 0.352 0.112 0.369 0.093 0.155-0.164-0.337-0.406-0.525-0.362-0.654 0.152a1.13 1.13 0 0 0 0.145 0.838c0.37 0.57 0.544 2.247 0.234 2.247-0.324 0-0.47 0.441-0.226 0.684 0.109 0.11 0.383 0.198 0.609 0.198 0.627 0 0.72 0.518 0.164 0.922-0.266 0.194-0.466 0.508-0.462 0.725 6e-3 0.348 0.03 0.339 0.27-0.103 0.145-0.267 0.374-0.485 0.51-0.485zm-17.456 0.352c0.06-0.097-0.015-0.176-0.166-0.176s-0.275 0.08-0.275 0.176c0 0.097 0.075 0.177 0.166 0.177s0.215-0.08 0.275-0.177zm-0.013-1.078c-0.177-0.288-0.428-0.16-0.428 0.218 0 0.312 0.044 0.338 0.262 0.156 0.145-0.12 0.22-0.288 0.166-0.374zm-0.605-0.95c-0.12-0.146-0.299-0.265-0.396-0.265-0.098 0-0.079 0.117 0.044 0.265 0.12 0.145 0.299 0.265 0.396 0.265 0.098 0 0.079-0.117-0.044-0.265zm16.326-0.22c0.595-0.475 0.804-1.137 0.431-1.368-0.097-0.06-0.176-0.302-0.176-0.54 0-0.236-0.067-0.43-0.148-0.43-0.082 0-0.244-0.21-0.361-0.468-0.344-0.753-0.552-0.268-0.623 1.451-0.086 2.078-0.067 2.107 0.877 1.354zm-0.706-0.353c0.074-0.267 0.12-0.922 0.103-1.456l-0.031-0.97 0.352 0.441c0.194 0.243 0.355 0.615 0.357 0.828 2e-3 0.212 0.084 0.436 0.182 0.496 0.17 0.105-0.718 1.146-0.978 1.146-0.066 0-0.06-0.219 0.015-0.485zm-23.028 0.21c0-0.14-0.074-0.254-0.165-0.254s-0.154 0.153-0.14 0.34c0.029 0.385 0.305 0.307 0.305-0.086zm22.299-0.714c0.425-0.163 0.333-0.384-0.124-0.296-0.374 0.071-0.398 0.026-0.334-0.642 0.068-0.712 0.262-0.925 0.454-0.499 0.055 0.122 0.08 0.062 0.057-0.132-0.024-0.194-0.16-0.353-0.304-0.353-0.177 0-0.3 0.278-0.384 0.871-0.162 1.13-0.05 1.314 0.635 1.05zm-6.686-2.583c-0.096-0.74-0.232-1.023-0.678-1.41-0.714-0.616-3.73-2.169-4.493-2.312-0.86-0.162-0.53 0.153 0.446 0.423 0.463 0.128 1.358 0.494 1.989 0.813l1.146 0.579 0.031 0.843c0.027 0.737 0.115 0.916 0.69 1.417 0.364 0.315 0.734 0.573 0.824 0.573 0.095 0 0.114-0.39 0.045-0.926zm4.115 0.054c0.076-0.537-0.44-0.986-0.796-0.691-0.25 0.208-0.318 0.892-0.11 1.1 0.274 0.273 0.846 0.015 0.906-0.41zm-0.785-0.113c0.059-0.153 0.107-0.312 0.107-0.352 0-0.041 0.08-0.074 0.177-0.074s0.176 0.159 0.176 0.353c0 0.206-0.118 0.352-0.284 0.352-0.186 0-0.246-0.096-0.176-0.279zm5.006-0.217c0.041-0.125-0.037-0.168-0.197-0.107-0.192 0.074-0.282-0.036-0.323-0.396-0.062-0.534-0.675-0.84-0.675-0.336 0 0.152-0.063 0.277-0.14 0.277-0.25 0-0.565-0.414-0.565-0.74 0-0.175-0.092-0.318-0.204-0.318-0.32 0-1.384-0.874-1.384-1.137 0-0.13-0.113-0.28-0.251-0.333-0.565-0.217 0.216 1.022 0.852 1.352 0.349 0.18 0.634 0.425 0.634 0.543s0.228 0.432 0.506 0.699c0.487 0.467 0.509 0.471 0.6 0.121 0.14-0.535 0.422-0.442 0.546 0.181 0.105 0.525 0.453 0.638 0.6 0.194zm-12.484-0.386c0-0.097-0.218-0.168-0.485-0.158l-0.485 0.017 0.441 0.141c0.243 0.078 0.461 0.15 0.485 0.16 0.025 0.01 0.044-0.063 0.044-0.16zm4.7-0.837a3.42 3.42 0 0 1 0.366-0.868c0.552-0.853-0.552-2.714-1.768-2.98-0.638-0.14-0.85 0.043-0.23 0.199 0.609 0.152 1.388 0.903 1.678 1.614 0.205 0.502 0.189 0.654-0.14 1.334-0.407 0.84-0.465 1.186-0.2 1.186 0.096 0 0.228-0.219 0.293-0.485zm-8.14-8e-3c0.504-0.143 0.706-0.41 0.712-0.942 4e-3 -0.37-0.074-0.46-0.388-0.44-0.372 0.021-0.379 0.046-0.124 0.435 0.313 0.477 0.333 0.444-0.45 0.71-0.53 0.178-0.652 0.16-0.982-0.15-0.208-0.196-0.473-0.355-0.59-0.355-0.116 0 0.048 0.236 0.365 0.524 0.338 0.308 0.685 0.482 0.84 0.421 0.146-0.057 0.424-0.148 0.618-0.203zm2.911-0.464c-0.97-0.503-1.94-0.737-1.94-0.469 0 0.105 0.226 0.19 0.502 0.19 0.278 0 0.644 0.158 0.82 0.354 0.194 0.213 0.536 0.349 0.866 0.344 0.543-8e-3 0.54-0.01-0.248-0.42zm-3.176-0.097c0.384-0.243 0.05-0.47-0.88-0.598-0.786-0.107-0.79-0.105-0.31 0.16 0.267 0.147 0.486 0.345 0.486 0.439 0 0.216 0.361 0.215 0.704-1e-3zm-2.115-0.478c0-0.225 0.653-0.505 1.014-0.436 0.193 0.037 0.308-0.312 0.24-0.727-0.013-0.076 0.097-0.184 0.243-0.24 0.147-0.056 0.266-0.182 0.266-0.28 0-0.108-0.468-0.15-1.202-0.109-0.913 0.052-1.497 0.211-2.425 0.663-0.673 0.328-1.245 0.612-1.271 0.633-0.17 0.13 0.232 0.605 0.548 0.65 0.98 0.14 2.587 0.044 2.587-0.154zm13.934-1.114c0-0.194-0.03-0.353-0.067-0.353-0.038 0-0.11 0.159-0.16 0.353-0.051 0.194-0.02 0.352 0.067 0.352 0.088 0 0.16-0.158 0.16-0.352zm-0.673-0.391c-0.127-0.127-0.209-0.137-0.209-0.027 0 0.236 0.209 0.444 0.327 0.326 0.05-0.05-3e-3 -0.185-0.118-0.3zm-9.059-0.647c0.08-0.55 0.58-0.683 2.456-0.659 1.697 0.022 2.182-0.133 0.882-0.281-1.101-0.126-2.691-0.022-3.114 0.205-0.203 0.109-0.37 0.338-0.37 0.509a0.924 0.924 0 0 1-0.22 0.545c-0.178 0.188-0.17 0.218 0.044 0.154 0.146-0.044 0.29-0.257 0.322-0.473zm-0.68-9e-3c0.274-0.514 0.221-0.717-0.188-0.717s-1.394 0.526-1.394 0.744c0 0.22 0.173 0.164 0.732-0.234 0.589-0.42 0.863-0.316 0.538 0.203-0.12 0.194-0.14 0.345-0.043 0.345 0.094 0 0.254-0.153 0.354-0.34zm-29.363 36.482c-1.012-0.772-3.312-2.27-4.851-3.158-6.603-3.815-8.916-6.802-8.308-10.728 0.308-1.987 1.319-3.761 3.141-5.514 2.608-2.51 4.814-3.77 4.814-2.75 0 0.133-0.682 0.79-1.515 1.46-1.784 1.434-3.229 3.133-3.898 4.585-0.392 0.848-0.494 1.361-0.553 2.754-0.068 1.619-0.042 1.776 0.472 2.874 0.299 0.639 0.834 1.516 1.189 1.95 1.624 1.982 5.917 3.986 9.601 4.483a47.2 47.2 0 0 1 1.892 0.283c0.418 0.086 0.556 0.428 0.173 0.428-0.123 0-0.517 0.2-0.876 0.443-0.46 0.313-0.707 0.648-0.84 1.14-0.18 0.67-0.102 1.015 0.49 2.165 0.143 0.279-0.254 0.102-0.931-0.415zm17.468-0.819c-0.967-0.059-1.505-0.26-1.505-0.56 0-0.065 0.507-0.086 1.127-0.047 0.66 0.042 1.264-0.01 1.456-0.127 0.257-0.157-0.015-0.192-1.26-0.163-1.54 0.035-1.616 0.018-2.51-0.57-0.508-0.333-0.899-0.685-0.869-0.782s0.499-0.39 1.042-0.652c0.968-0.467 1.06-0.477 4.572-0.495 4.494-0.024 4.203-0.04 4.203 0.22 0 0.25-0.74 0.728-3.22 2.08-0.945 0.515-1.719 1.002-1.719 1.082s-0.06 0.13-0.132 0.113c-0.073-0.019-0.606-0.063-1.185-0.099zm2.127-1.325c0.072-0.072-0.482-0.13-1.232-0.13s-1.326 0.059-1.28 0.132c0.105 0.171 2.34 0.17 2.512-1e-3zm-3.057-0.608a3.133 3.133 0 0 0-0.881-2e-3c-0.269 0.041-0.091 0.075 0.394 0.077 0.485 0 0.704-0.032 0.487-0.074zm3.526-5e-3a10.112 10.112 0 0 0-1.5 0c-0.412 0.038-0.074 0.068 0.75 0.068 0.825 0 1.162-0.03 0.75-0.068zm1.543-0.508c0-0.037-0.615-0.055-1.367-0.04-1.32 0.029-1.334 0.033-0.397 0.133 0.921 0.098 1.764 0.054 1.764-0.093zm-5.24-0.086c-0.139-0.14-0.286-0.141-0.52-5e-3 -0.285 0.166-0.261 0.19 0.195 0.194 0.38 4e-3 0.468-0.047 0.326-0.189zm1.318 0.073a1.936 1.936 0 0 0-0.706-4e-3c-0.22 0.043-0.081 0.079 0.307 0.08 0.388 3e-3 0.567-0.032 0.399-0.076zm0.791-0.348a0.681 0.681 0 0 0-0.44 0c-0.122 0.049-0.023 0.089 0.22 0.089 0.242 0 0.342-0.04 0.22-0.09zm2.649-7e-3a3.137 3.137 0 0 0-0.882-2e-3c-0.268 0.04-0.091 0.075 0.394 0.076s0.705-0.032 0.488-0.074zm-4.677-2.49c-0.68-0.078-2.368-2.677-3.318-5.108-1.1-2.813-1.451-4.881-1.339-7.888 0.15-3.978 1.41-7.693 3.65-10.76 0.937-1.283 1.175-1.451 1.536-1.09 0.27 0.27 0.26 0.326-0.162 0.779-2.661 2.86-4.445 8.309-4.115 12.57 0.297 3.85 1.488 7.32 3.458 10.08 0.486 0.681 0.859 1.29 0.829 1.356-0.03 0.064-0.272 0.092-0.539 0.062zm-7.451-7.991c-1.325-1.466-4.19-4.06-7.092-6.42-5.38-4.495-15.566-11.797-15.573-19.131-4e-3 -4.895 4.372-9.929 12.887-14.344 14.752-7.65 42.72-13.445 87.564-13.445 9.573 0 12.51-0.074 24.783 0.454 45.595 2.318 68.351 13.932 68.351 24.682 0 9.267-13.576 20.98-40.13 24.513-1.018 0.107-2.11 0.227-2.425 0.266-0.532 0.068-0.573 0.036-0.573-0.442 0-0.574-0.043-0.556 2.117-0.882 15.412-2.767 34.574-12.798 34.72-22.487 0.114-7.538-15.727-14.973-25.107-17.946-3.957-1.243-7.157-1.996-12.612-2.968l-3.88-0.693c-1.63-0.293-5.448-0.88-6.23-0.958a527.28 527.28 0 0 1-7.529-0.801c-1.783-0.215-7.523-0.791-10.495-1.053-2.624-0.232-10.746-0.535-16.492-0.616-6.6-0.092-17.373 0.201-25.841 0.705-6.478 0.385-6.894 0.52-9.172 0.701-34.663 2.772-63.257 14.796-63.257 24.683 0 2.741 2.013 5.607 4.357 6.84 3.839 2.019 10.582 2.394 15.498 0.823 1.438-0.46 2.116-0.639 2.009-0.352-0.032 0.086-0.48 0.488-0.994 0.893-1.621 1.276-3.509 4.238-4.333 6.799-0.737 2.29-1.18 6.814-0.843 8.603 0.106 0.56 0.39 1.51 0.632 2.108 0.242 0.6 0.414 1.115 0.383 1.147-0.032 0.031-0.357-0.274-0.723-0.68zm11.023 0.057c0-0.183 0.382-0.565 0.564-0.565 0.078 0 0.141 0.159 0.141 0.353 0 0.235-0.117 0.353-0.353 0.353-0.194 0-0.352-0.064-0.352-0.141zm-0.618-7.091c-0.06-0.097-0.025-0.177 0.078-0.177s0.187 0.08 0.187 0.177-0.035 0.176-0.078 0.176-0.127-0.08-0.187-0.176zm0.441-0.988c0-0.14 0.22-0.21 0.6-0.19 0.715 0.037 0.676 0.224-0.068 0.333-0.35 0.052-0.532 2e-3 -0.532-0.143zm-0.529-0.6c0-0.097 0.084-0.176 0.187-0.176s0.138 0.08 0.078 0.176c-0.06 0.097-0.144 0.177-0.187 0.177s-0.078-0.08-0.078-0.177zm1.666-0.368c-0.054-0.089 0.064-0.16 0.264-0.16s0.363-0.085 0.363-0.188c0-0.102 0.087-0.133 0.192-0.068 0.137 0.085 0.137 0.173 2e-3 0.309-0.25 0.25-0.696 0.308-0.82 0.107zm2.513-0.803c-0.187-0.188 0.048-0.408 0.324-0.302 0.142 0.055 0.214 0.17 0.16 0.257-0.114 0.185-0.324 0.205-0.484 0.045zm0.495-0.769c0.06-0.097 0.144-0.176 0.187-0.176s0.078 0.08 0.078 0.176c0 0.097-0.084 0.176-0.187 0.176-0.102 0-0.137-0.079-0.078-0.176zm-1.356-0.826c0.128-0.051 0.28-0.045 0.339 0.014 0.058 0.059-0.046 0.1-0.232 0.093-0.205-8e-3 -0.247-0.05-0.107-0.107zm-3.67-0.659a0.28 0.28 0 0 1 0.279-0.279c0.153 0 0.248 0.094 0.21 0.21-0.11 0.327-0.49 0.38-0.49 0.07zm2.116 0.084c0-0.091 0.08-0.215 0.176-0.275 0.097-0.06 0.177 0.015 0.177 0.166 0 0.152-0.08 0.275-0.177 0.275s-0.176-0.074-0.176-0.166zm1.411-0.186c0-0.097 0.12-0.177 0.265-0.177s0.264 0.08 0.264 0.177-0.119 0.176-0.264 0.176c-0.146 0-0.265-0.08-0.265-0.176zm6.977-0.305a0.467 0.467 0 0 1 0.099-0.475c0.155-0.142 0.18-0.112 0.1 0.118-0.134 0.378 0.11 0.404 0.409 0.044 0.12-0.145 0.329-0.264 0.462-0.264 0.434 0 0.258 0.28-0.359 0.574-0.553 0.264-0.611 0.264-0.711 3e-3zm-7.859-0.754a0.177 0.177 0 0 1 0.353 0c0 0.097-0.08 0.177-0.176 0.177a0.177 0.177 0 0 1-0.177-0.177zm2.646-0.54c0-0.102 0.08-0.137 0.176-0.077 0.097 0.06 0.177 0.144 0.177 0.187 0 0.042-0.08 0.077-0.177 0.077s-0.176-0.084-0.176-0.186zm1.147 0.011c-0.06-0.097 0.014-0.176 0.166-0.176a0.27 0.27 0 0 0 0.275-0.265c0-0.145 0.082-0.265 0.182-0.265 0.124 0 0.126 0.107 6e-3 0.33-0.097 0.181-0.126 0.38-0.065 0.441 0.062 0.061-0.016 0.111-0.172 0.111s-0.332-0.079-0.392-0.176zm-1.573-0.682c-0.076-0.123-0.09-0.271-0.033-0.33 0.158-0.157 0.33 0.075 0.245 0.33-0.06 0.18-0.101 0.18-0.212 0zm0.888-0.332c0.167-0.693 0.244-0.716 0.244-0.074 0 0.308-0.081 0.559-0.18 0.559-0.107 0-0.133-0.197-0.064-0.485zm-1.432-0.22c0.06-0.098 0.188-0.177 0.285-0.177s0.128 0.08 0.068 0.176c-0.06 0.097-0.189 0.177-0.286 0.177s-0.127-0.08-0.067-0.177zm2.991-0.012c-0.064-0.104-0.074-0.23-0.022-0.283 0.126-0.126 0.47 0.097 0.47 0.305 0 0.225-0.304 0.21-0.448-0.022zm1.242 0.011a0.328 0.328 0 0 1 0.049-0.383c0.117-0.118 0.219-0.108 0.304 0.03a0.328 0.328 0 0 1-0.048 0.384c-0.118 0.118-0.22 0.107-0.305-0.03zm-4.678-0.621c-0.122-0.148-0.192-0.287-0.153-0.309 0.81-0.467 0.862-0.48 0.862-0.232a0.393 0.393 0 0 1-0.22 0.34c-0.17 0.068-0.167 0.092 0.01 0.103 0.127 8e-3 0.182 0.093 0.122 0.19-0.154 0.25-0.362 0.22-0.62-0.092zm1.239 0.086c-0.23-0.153-0.219-0.212 0.078-0.439 0.392-0.299 0.694-0.11 0.526 0.327-0.13 0.339-0.236 0.358-0.604 0.112zm1.587-0.092c0-0.458 0.438-1.667 0.586-1.617 0.318 0.106 0.337 1.12 0.026 1.43-0.279 0.28-0.612 0.381-0.612 0.187zm0.98-0.063a0.197 0.197 0 0 1 0.063-0.27 0.197 0.197 0 0 1 0.27 0.063 0.197 0.197 0 0 1-0.063 0.27 0.197 0.197 0 0 1-0.27-0.063zm-4.331-0.72c0-0.098 0.084-0.177 0.187-0.177 0.102 0 0.137 0.08 0.077 0.176-0.06 0.097-0.144 0.177-0.186 0.177-0.043 0-0.078-0.08-0.078-0.177zm1.142-0.537c-0.169-0.273 0.13-0.54 0.411-0.367 0.182 0.112 0.176 0.183-0.03 0.354-0.19 0.158-0.29 0.161-0.38 0.013zm1.327-0.34c0-0.22 0.626-0.556 0.77-0.413 0.153 0.154-0.234 0.584-0.527 0.584-0.133 0-0.243-0.077-0.243-0.17zm1.653-0.571c-0.144-0.234 0.265-0.487 0.794-0.49 0.338-2e-3 0.38 0.044 0.215 0.242-0.27 0.326-0.87 0.473-1.009 0.248zm-5.666-0.165c-0.12-0.122-0.22-0.325-0.22-0.452 0-0.126-0.08-0.229-0.177-0.229a0.177 0.177 0 0 1-0.176-0.176c0-0.264 0.456-0.213 0.698 0.078 0.116 0.14 0.185 0.423 0.153 0.629-0.046 0.3-0.1 0.33-0.278 0.15zm3.484 0.038c0-0.219 1.06-0.739 1.256-0.617 0.27 0.166 0.17 0.364-0.294 0.575-0.541 0.247-0.962 0.265-0.962 0.042zm-1.268-0.31c0.128-0.051 0.28-0.045 0.338 0.014 0.059 0.058-0.045 0.1-0.231 0.092-0.206-8e-3 -0.247-0.05-0.107-0.106zm-1.161-0.618c0.088-0.264 0.489-0.41 0.489-0.177 0 0.094-0.126 0.22-0.28 0.28-0.171 0.065-0.252 0.026-0.209-0.103zm2.017-0.085c-0.22-0.221-0.117-0.45 0.157-0.344 0.157 0.06 0.227 0.03 0.166-0.07-0.06-0.095 0.055-0.174 0.255-0.174 0.41 0 0.465 0.18 0.152 0.494-0.235 0.234-0.549 0.275-0.73 0.094zm32.365-21.93c-0.063-0.05-0.274-0.406-0.468-0.794-0.469-0.936-1.667-2.123-2.501-2.476-1.458-0.618-5.55-0.51-10.904 0.29-1.261 0.187-2.4 0.38-2.532 0.427-0.131 0.047-0.766 0.197-1.41 0.333-0.646 0.137-1.312 0.303-1.482 0.37-0.172 0.069-0.309 0.043-0.309-0.057 5.782-2.704 30.011-6.667 54.481-6.447 16.581 0.148 33.309 2.145 44.344 8.03-0.157 0.042-5.662 0.234-35.63 0.23-19.769-4e-3 -37.637 0.036-39.709 0.088-2.071 0.051-3.817 0.054-3.88 5e-3z" stroke-width=".1669"/>
  <g stroke-width=".25034">
   <g style="font-variant-ligatures:none" aria-label="URBAN">
    <g stroke-width=".25034">
     <path transform="matrix(.14513 0 0 .14548 79.714 -13.597)" d="m75.461 330v-6.707q0-0.857 0.38-1.285 0.39-0.428 1.019-0.428 0.656 0 1.037 0.428 0.39 0.428 0.39 1.285v6.859q0 1.17 0.257 1.96 0.266 0.78 0.932 1.218 0.666 0.428 1.865 0.428 1.655 0 2.34-0.876 0.685-0.884 0.685-2.673v-6.916q0-0.866 0.38-1.285 0.381-0.428 1.019-0.428 0.637 0 1.027 0.428 0.4 0.419 0.4 1.285v6.707q0 1.636-0.324 2.73-0.314 1.094-1.199 1.922-0.76 0.704-1.77 1.027-1.008 0.324-2.359 0.324-1.607 0-2.768-0.343-1.16-0.352-1.893-1.075-0.733-0.732-1.075-1.864-0.343-1.142-0.343-2.721z"/>
     <path transform="matrix(.14513 0 0 .14548 79.714 -13.597)" d="m94.499 329.72h-0.99v4.54q0 0.897-0.39 1.32-0.39 0.425-1.017 0.425-0.676 0-1.047-0.444-0.371-0.443-0.371-1.3v-10.874q0-0.925 0.41-1.34 0.408-0.414 1.322-0.414h4.595q0.951 0 1.626 0.086 0.676 0.077 1.218 0.328 0.657 0.28 1.16 0.8 0.505 0.52 0.762 1.215 0.266 0.684 0.266 1.455 0 1.581-0.884 2.526-0.876 0.944-2.664 1.34 0.751 0.404 1.436 1.195 0.685 0.79 1.218 1.687 0.542 0.887 0.837 1.61 0.305 0.713 0.305 0.983 0 0.28-0.181 0.559-0.171 0.27-0.476 0.424-0.304 0.164-0.704 0.164-0.475 0-0.799-0.232-0.323-0.221-0.561-0.568-0.229-0.347-0.628-1.022l-1.132-1.909q-0.61-1.05-1.094-1.6-0.476-0.55-0.97-0.752-0.495-0.202-1.247-0.202zm1.617-5.938h-2.606v3.885h2.53q1.018 0 1.713-0.174 0.694-0.183 1.056-0.607 0.37-0.434 0.37-1.186 0-0.588-0.294-1.031-0.295-0.453-0.818-0.675-0.495-0.212-1.95-0.212zm15.67 11.985h-4.262q-0.923 0-1.323-0.416-0.39-0.426-0.39-1.345v-10.663q0-0.938 0.4-1.345 0.409-0.416 1.313-0.416h4.519q0.998 0 1.731 0.126t1.313 0.484q0.495 0.3 0.875 0.764 0.38 0.455 0.58 1.016 0.2 0.552 0.2 1.17 0 2.13-2.093 3.116 2.75 0.89 2.75 3.464 0 1.19-0.6 2.149-0.599 0.948-1.617 1.403-0.637 0.27-1.465 0.387-0.828 0.106-1.931 0.106zm-0.21-6.299h-2.94v4.141h3.036q2.863 0 2.863-2.1 0-1.073-0.742-1.557t-2.217-0.484zm-2.94-5.728v3.667h2.588q1.056 0 1.627-0.203 0.58-0.203 0.885-0.774 0.238-0.407 0.238-0.91 0-1.074-0.752-1.422-0.751-0.358-2.293-0.358z"/>
     <path transform="matrix(.14513 0 0 .14548 79.714 -13.597)" d="m129.7 334.18-0.666-1.75h-5.67l-0.666 1.788q-0.39 1.046-0.666 1.417-0.276 0.362-0.904 0.362-0.532 0-0.942-0.39-0.409-0.39-0.409-0.885 0-0.285 0.096-0.59 0.095-0.304 0.313-0.847l3.568-9.057 0.362-0.932q0.218-0.552 0.456-0.913 0.248-0.362 0.638-0.58 0.4-0.229 0.98-0.229 0.59 0 0.98 0.228 0.4 0.22 0.637 0.571 0.247 0.352 0.409 0.761 0.171 0.4 0.428 1.075l3.644 9q0.428 1.028 0.428 1.494 0 0.485-0.41 0.894-0.399 0.4-0.97 0.4-0.332 0-0.57-0.124-0.238-0.114-0.4-0.314-0.162-0.21-0.352-0.628zm-5.594-3.872h4.167l-2.102-5.756zm15.198-7.04 5.432 8.22v-8.297q0-0.808 0.343-1.208 0.352-0.409 0.942-0.409 0.609 0 0.96 0.41 0.353 0.399 0.353 1.207v10.97q0 1.836-1.523 1.836-0.38 0-0.685-0.114-0.304-0.105-0.57-0.343-0.267-0.238-0.495-0.552-0.228-0.323-0.457-0.656l-5.299-8.125v8.173q0 0.799-0.37 1.208-0.372 0.409-0.952 0.409-0.6 0-0.961-0.41-0.362-0.418-0.362-1.207v-10.76q0-0.685 0.153-1.075 0.18-0.429 0.599-0.695 0.419-0.276 0.904-0.276 0.38 0 0.647 0.124 0.276 0.123 0.475 0.333 0.21 0.21 0.419 0.542 0.219 0.333 0.447 0.695z"/>
    </g>
    <path transform="matrix(.14513 0 0 .14548 79.714 -13.597)" d="m90.684 321.63h1.731v1.64h-1.731z" stroke-linecap="square" stroke-width=".75694" style="paint-order:fill markers stroke"/>
    <path transform="matrix(.14513 0 0 .14548 79.714 -13.597)" d="m105.81 321.58h1.731v14.185h-1.731z" stroke-linecap="square" stroke-width=".75694" style="font-variant-ligatures:none;paint-order:fill markers stroke"/>
   </g>
   <g style="font-variant-ligatures:none" aria-label="CRUISE">
    <path transform="matrix(.14513 0 0 .14548 79.714 -13.597)" d="m87.59 349.9q0 0.666-0.333 1.446-0.324 0.771-1.028 1.523-0.704 0.742-1.798 1.208t-2.55 0.466q-1.103 0-2.007-0.21-0.904-0.209-1.646-0.646-0.732-0.447-1.35-1.17-0.553-0.657-0.943-1.466-0.39-0.818-0.59-1.74-0.19-0.923-0.19-1.96 0-1.684 0.486-3.016 0.494-1.332 1.408-2.274 0.913-0.951 2.14-1.446t2.616-0.495q1.694 0 3.016 0.676 1.323 0.675 2.027 1.674 0.704 0.99 0.704 1.874 0 0.486-0.343 0.857-0.342 0.37-0.828 0.37-0.542 0-0.818-0.256-0.266-0.257-0.6-0.885-0.55-1.037-1.302-1.55-0.743-0.514-1.837-0.514-1.74 0-2.778 1.322-1.027 1.322-1.027 3.758 0 1.627 0.457 2.711 0.456 1.075 1.293 1.608 0.838 0.533 1.96 0.533 1.218 0 2.055-0.6 0.847-0.608 1.275-1.779 0.18-0.551 0.447-0.894 0.267-0.352 0.856-0.352 0.505 0 0.866 0.352 0.362 0.352 0.362 0.875z" stroke-width=".25034"/>
    <path transform="matrix(.14513 0 0 .14548 79.714 -13.597)" d="m93.793 348.23h-0.989v4.556q0 0.9-0.39 1.325-0.39 0.426-1.018 0.426-0.675 0-1.046-0.445t-0.371-1.306v-10.911q0-0.929 0.409-1.345t1.322-0.416h4.595q0.951 0 1.627 0.087 0.675 0.078 1.218 0.33 0.656 0.28 1.16 0.802 0.505 0.522 0.761 1.219 0.267 0.687 0.267 1.46 0 1.587-0.885 2.535-0.875 0.948-2.664 1.344 0.752 0.407 1.437 1.2t1.218 1.693q0.542 0.89 0.837 1.615 0.304 0.716 0.304 0.987 0 0.28-0.18 0.56-0.172 0.272-0.476 0.426-0.305 0.165-0.704 0.165-0.476 0-0.8-0.232-0.323-0.223-0.56-0.57-0.23-0.35-0.629-1.026l-1.132-1.916q-0.609-1.054-1.094-1.605-0.476-0.552-0.97-0.755-0.495-0.203-1.247-0.203zm1.618-5.959h-2.607v3.899h2.53q1.019 0 1.713-0.174 0.695-0.184 1.056-0.61 0.371-0.435 0.371-1.19 0-0.59-0.295-1.035-0.295-0.454-0.818-0.677-0.495-0.213-1.95-0.213z" stroke-width=".25034"/>
    <path transform="matrix(.14513 0 0 .14548 79.714 -13.597)" d="m89.978 340.12h1.731v1.64h-1.731z" stroke-linecap="square" stroke-width=".75694" style="font-variant-ligatures:none;paint-order:fill markers stroke"/>
    <g stroke-width=".25034">
     <path transform="matrix(.14513 0 0 .14548 79.714 -13.597)" d="m104.21 348.54v-6.707q0-0.856 0.366-1.285 0.376-0.428 0.981-0.428 0.633 0 1 0.428 0.376 0.429 0.376 1.285v6.86q0 1.17 0.248 1.959 0.257 0.78 0.899 1.218 0.642 0.428 1.797 0.428 1.596 0 2.257-0.875 0.66-0.885 0.66-2.674v-6.916q0-0.866 0.367-1.285 0.367-0.428 0.981-0.428 0.615 0 0.99 0.428 0.386 0.419 0.386 1.285v6.707q0 1.636-0.312 2.73-0.303 1.094-1.156 1.922-0.733 0.704-1.706 1.028-0.972 0.323-2.274 0.323-1.55 0-2.67-0.343-1.118-0.352-1.824-1.075-0.706-0.732-1.037-1.864-0.33-1.142-0.33-2.721z"/>
     <path transform="matrix(.14513 0 0 .14548 79.714 -13.597)" d="m118.18 352.82v-10.988q0-0.857 0.39-1.285t1.008-0.428q0.638 0 1.028 0.428 0.4 0.419 0.4 1.285v10.988q0 0.866-0.4 1.294-0.39 0.428-1.028 0.428-0.609 0-1.008-0.428-0.39-0.438-0.39-1.294zm16.45-2.702q0 1.265-0.657 2.274-0.647 1.008-1.902 1.58-1.256 0.57-2.978 0.57-2.065 0-3.406-0.78-0.951-0.561-1.55-1.494-0.59-0.942-0.59-1.826 0-0.514 0.351-0.876 0.362-0.37 0.914-0.37 0.447 0 0.751 0.285 0.314 0.285 0.533 0.846 0.266 0.666 0.57 1.114 0.315 0.447 0.876 0.742 0.561 0.285 1.475 0.285 1.256 0 2.036-0.58 0.79-0.59 0.79-1.465 0-0.695-0.429-1.123-0.418-0.438-1.094-0.666-0.666-0.228-1.788-0.485-1.504-0.352-2.522-0.818-1.008-0.476-1.607-1.285-0.59-0.818-0.59-2.026 0-1.151 0.628-2.046 0.628-0.894 1.817-1.37 1.189-0.485 2.797-0.485 1.284 0 2.217 0.324 0.941 0.314 1.56 0.846 0.618 0.524 0.904 1.104 0.285 0.58 0.285 1.132 0 0.504-0.362 0.913-0.352 0.4-0.884 0.4-0.486 0-0.742-0.238-0.248-0.247-0.543-0.799-0.38-0.79-0.913-1.227-0.533-0.447-1.712-0.447-1.094 0-1.77 0.485-0.666 0.476-0.666 1.151 0 0.419 0.228 0.723 0.229 0.304 0.628 0.523 0.4 0.22 0.809 0.343 0.41 0.123 1.35 0.361 1.18 0.276 2.132 0.61 0.96 0.332 1.627 0.808 0.675 0.476 1.046 1.208 0.38 0.723 0.38 1.78z"/>
     <path transform="matrix(.14513 0 0 .14548 79.714 -13.597)" d="m146.4 342.33h-6.504v3.483h5.989q0.66 0 0.981 0.3 0.33 0.29 0.33 0.774t-0.32 0.794q-0.32 0.3-0.991 0.3h-5.989v4.035h6.727q0.68 0 1.021 0.319 0.35 0.31 0.35 0.832 0 0.503-0.35 0.823-0.34 0.31-1.02 0.31h-7.846q-0.942 0-1.36-0.417-0.409-0.416-0.409-1.345v-10.663q0-0.619 0.185-1.006 0.185-0.397 0.574-0.57 0.398-0.185 1.01-0.185h7.622q0.69 0 1.02 0.31 0.34 0.3 0.34 0.793 0 0.503-0.34 0.813-0.33 0.3-1.02 0.3z"/>
    </g>
    <path transform="matrix(.14513 0 0 .14548 79.714 -13.597)" d="m137 340.12h1.731v14.185h-1.731z" stroke-linecap="square" stroke-width=".75694" style="font-variant-ligatures:none;paint-order:fill markers stroke"/>
   </g>
   <g style="font-variant-ligatures:none" aria-label="SHIP">
    <path transform="matrix(.14513 0 0 .14548 79.714 -13.597)" d="m86.426 368.66q0 1.266-0.657 2.274-0.647 1.009-1.903 1.58-1.255 0.57-2.977 0.57-2.065 0-3.406-0.78-0.952-0.561-1.55-1.494-0.59-0.941-0.59-1.826 0-0.514 0.351-0.875 0.362-0.372 0.914-0.372 0.447 0 0.751 0.286 0.314 0.285 0.533 0.847 0.266 0.666 0.57 1.113 0.315 0.447 0.876 0.742 0.561 0.285 1.475 0.285 1.255 0 2.035-0.58 0.79-0.59 0.79-1.465 0-0.695-0.428-1.123-0.419-0.438-1.094-0.666-0.666-0.228-1.789-0.485-1.503-0.352-2.52-0.818-1.01-0.476-1.609-1.285-0.59-0.818-0.59-2.026 0-1.151 0.628-2.045 0.628-0.895 1.818-1.37 1.189-0.486 2.797-0.486 1.284 0 2.216 0.324 0.942 0.314 1.56 0.847 0.619 0.523 0.904 1.103 0.286 0.58 0.286 1.132 0 0.505-0.362 0.914-0.352 0.4-0.885 0.4-0.485 0-0.742-0.239-0.247-0.247-0.542-0.799-0.38-0.79-0.913-1.227-0.533-0.447-1.713-0.447-1.094 0-1.77 0.485-0.665 0.476-0.665 1.151 0 0.419 0.228 0.723 0.229 0.305 0.628 0.523 0.4 0.22 0.809 0.343 0.409 0.124 1.35 0.361 1.18 0.276 2.132 0.61 0.96 0.332 1.627 0.808 0.675 0.476 1.046 1.208 0.38 0.723 0.38 1.78zm13.179-8.286v3.996h6.098v-3.996q0-0.856 0.381-1.284 0.39-0.429 1.018-0.429 0.637 0 1.027 0.429 0.4 0.418 0.4 1.284v10.988q0 0.866-0.4 1.294t-1.027 0.428q-0.637 0-1.018-0.428-0.38-0.438-0.38-1.294v-4.69h-6.099v4.69q0 0.866-0.4 1.294-0.399 0.428-1.027 0.428-0.637 0-1.018-0.428-0.38-0.438-0.38-1.294v-10.987q0-0.856 0.37-1.284 0.381-0.429 1.028-0.429 0.638 0 1.028 0.429 0.4 0.418 0.4 1.284zm21.865 10.988v-10.987q0-0.856 0.39-1.284 0.39-0.429 1.01-0.429 0.637 0 1.027 0.429 0.4 0.418 0.4 1.284v10.988q0 0.866-0.4 1.294-0.39 0.428-1.028 0.428-0.609 0-1.008-0.428-0.39-0.438-0.39-1.294z" stroke-width=".25034"/>
    <path transform="matrix(.14513 0 0 .14548 79.714 -13.597)" d="m142.63 367.34h-2.588v3.994q0 0.857-0.4 1.3-0.4 0.442-1.008 0.442-0.638 0-1.028-0.433-0.39-0.443-0.39-1.29v-10.876q0-0.943 0.428-1.347 0.429-0.404 1.36-0.404h3.626q1.607 0 2.473 0.25 0.856 0.24 1.475 0.799 0.628 0.558 0.951 1.366 0.324 0.809 0.324 1.82 0 2.155-1.313 3.272-1.313 1.107-3.91 1.107zm-0.685-6.468h-1.903v4.312h1.903q0.999 0 1.664-0.212 0.676-0.212 1.028-0.693t0.352-1.26q0-0.934-0.542-1.521-0.61-0.626-2.502-0.626z" stroke-width=".25034"/>
    <path transform="matrix(.14513 0 0 .14548 79.714 -13.597)" d="m137.21 358.73h1.731v1.64h-1.731z" stroke-linecap="square" stroke-width=".75694" style="font-variant-ligatures:none;paint-order:fill markers stroke"/>
   </g>
  </g>
  <g transform="matrix(.30578 0 0 .3065 -39.71 -189.62)" style="font-variant-ligatures:none;shape-inside:url(#rect12816-2);white-space:pre" aria-label="ANALYSIS">
   <path d="m464.92 747.64-0.131-0.345h-1.118l-0.13 0.353q-0.078 0.206-0.132 0.28-0.055 0.07-0.178 0.07-0.105 0-0.186-0.077-0.08-0.076-0.08-0.174 0-0.056 0.018-0.116 0.02-0.06 0.062-0.167l0.703-1.785 0.072-0.184q0.043-0.108 0.09-0.18 0.048-0.07 0.125-0.114 0.079-0.045 0.193-0.045 0.117 0 0.193 0.045 0.08 0.043 0.126 0.113 0.049 0.069 0.08 0.15 0.034 0.078 0.085 0.211l0.718 1.774q0.084 0.202 0.084 0.294 0 0.096-0.08 0.177-0.079 0.078-0.191 0.078-0.066 0-0.113-0.024-0.047-0.023-0.079-0.062-0.031-0.041-0.069-0.124zm-1.102-0.763h0.82l-0.414-1.134zm3.107-1.387 1.07 1.62v-1.635q0-0.16 0.068-0.238 0.07-0.08 0.185-0.08 0.12 0 0.19 0.08 0.07 0.078 0.07 0.238v2.162q0 0.361-0.3 0.361-0.076 0-0.136-0.022-0.06-0.02-0.112-0.068-0.053-0.046-0.098-0.108l-0.09-0.13-1.044-1.6v1.61q0 0.157-0.073 0.238-0.073 0.08-0.188 0.08-0.118 0-0.189-0.08-0.071-0.083-0.071-0.238v-2.12q0-0.136 0.03-0.213 0.035-0.084 0.118-0.136 0.082-0.055 0.178-0.055 0.075 0 0.128 0.025 0.054 0.024 0.093 0.065 0.041 0.041 0.083 0.107zm4.176 2.15-0.131-0.345h-1.118l-0.131 0.353q-0.077 0.206-0.131 0.28-0.055 0.07-0.178 0.07-0.105 0-0.186-0.077-0.08-0.076-0.08-0.174 0-0.056 0.018-0.116 0.019-0.06 0.062-0.167l0.703-1.785 0.071-0.184q0.043-0.108 0.09-0.18 0.049-0.07 0.126-0.114 0.079-0.045 0.193-0.045 0.116 0 0.193 0.045 0.079 0.043 0.126 0.113 0.048 0.069 0.08 0.15 0.034 0.078 0.085 0.211l0.718 1.774q0.084 0.202 0.084 0.294 0 0.096-0.08 0.177-0.08 0.078-0.192 0.078-0.065 0-0.112-0.024-0.047-0.023-0.079-0.062-0.032-0.041-0.07-0.124zm-1.103-0.763h0.822l-0.415-1.134zm2.928-1.383v2h1.128q0.135 0 0.207 0.066 0.073 0.065 0.073 0.165t-0.072 0.165q-0.07 0.062-0.208 0.062h-1.344q-0.182 0-0.262-0.081-0.08-0.08-0.08-0.26v-2.117q0-0.17 0.076-0.253 0.077-0.085 0.2-0.085 0.126 0 0.203 0.085 0.079 0.082 0.079 0.253zm2.179 2.165v-0.872l-0.671-1.04q-0.088-0.14-0.126-0.22-0.035-0.078-0.035-0.137 0-0.095 0.073-0.164 0.075-0.07 0.183-0.07 0.115 0 0.173 0.066 0.06 0.063 0.178 0.257l0.514 0.834 0.519-0.834 0.079-0.13q0.032-0.052 0.07-0.097 0.038-0.047 0.085-0.071 0.047-0.025 0.115-0.025 0.105 0 0.174 0.07 0.071 0.067 0.071 0.157 0 0.073-0.035 0.146-0.036 0.073-0.122 0.203l-0.688 1.055v0.872q0 0.17-0.079 0.255-0.079 0.084-0.2 0.084-0.124 0-0.201-0.082-0.077-0.084-0.077-0.257zm4.056-0.532q0 0.249-0.13 0.448-0.127 0.198-0.374 0.31-0.248 0.113-0.587 0.113-0.407 0-0.671-0.153-0.188-0.11-0.306-0.295-0.116-0.185-0.116-0.36 0-0.1 0.07-0.172 0.07-0.073 0.18-0.073 0.087 0 0.147 0.056 0.062 0.056 0.105 0.167 0.053 0.131 0.113 0.22 0.062 0.087 0.172 0.145 0.11 0.057 0.29 0.057 0.248 0 0.402-0.115 0.156-0.116 0.156-0.288 0-0.137-0.085-0.222-0.082-0.086-0.215-0.13-0.132-0.046-0.353-0.097-0.296-0.069-0.497-0.16-0.198-0.094-0.317-0.254-0.116-0.161-0.116-0.4 0-0.226 0.124-0.402 0.124-0.177 0.358-0.27 0.234-0.096 0.551-0.096 0.253 0 0.437 0.064 0.186 0.062 0.308 0.167 0.121 0.103 0.178 0.217 0.056 0.115 0.056 0.223 0 0.1-0.071 0.18-0.07 0.079-0.175 0.079-0.095 0-0.146-0.047-0.049-0.049-0.107-0.157-0.075-0.156-0.18-0.242-0.105-0.088-0.337-0.088-0.216 0-0.349 0.095-0.131 0.094-0.131 0.227 0 0.083 0.045 0.143t0.123 0.103q0.08 0.043 0.16 0.067 0.08 0.025 0.266 0.071 0.233 0.055 0.42 0.12 0.19 0.066 0.32 0.16 0.134 0.093 0.207 0.238 0.075 0.142 0.075 0.35zm0.771 0.532v-2.164q0-0.17 0.077-0.253 0.077-0.085 0.199-0.085 0.125 0 0.202 0.085 0.079 0.082 0.079 0.253v2.165q0 0.17-0.079 0.255-0.077 0.084-0.202 0.084-0.12 0-0.199-0.084-0.077-0.086-0.077-0.255zm3.544-0.532q0 0.249-0.13 0.448-0.127 0.198-0.374 0.31-0.248 0.113-0.587 0.113-0.407 0-0.671-0.153-0.188-0.11-0.306-0.295-0.116-0.185-0.116-0.36 0-0.1 0.07-0.172 0.07-0.073 0.18-0.073 0.088 0 0.148 0.056 0.061 0.056 0.105 0.167 0.052 0.131 0.112 0.22 0.062 0.087 0.173 0.145 0.11 0.057 0.29 0.057 0.248 0 0.401-0.115 0.156-0.116 0.156-0.288 0-0.137-0.084-0.222-0.083-0.086-0.216-0.13-0.131-0.046-0.353-0.097-0.296-0.069-0.496-0.16-0.2-0.094-0.317-0.254-0.116-0.161-0.116-0.4 0-0.226 0.123-0.402 0.124-0.177 0.358-0.27 0.235-0.096 0.552-0.096 0.253 0 0.436 0.064 0.186 0.062 0.308 0.167 0.122 0.103 0.178 0.217 0.056 0.115 0.056 0.223 0 0.1-0.071 0.18-0.07 0.079-0.174 0.079-0.096 0-0.147-0.047-0.048-0.049-0.106-0.157-0.075-0.156-0.18-0.242-0.105-0.088-0.338-0.088-0.216 0-0.349 0.095-0.13 0.094-0.13 0.227 0 0.083 0.044 0.143 0.045 0.06 0.124 0.103t0.16 0.067q0.08 0.025 0.265 0.071 0.233 0.055 0.42 0.12 0.19 0.066 0.321 0.16 0.133 0.093 0.206 0.238 0.075 0.142 0.075 0.35z" stroke-width=".031439"/>
   <path d="m472.37 747.69h0.386v0.27h-0.386z" stroke-linecap="square" stroke-width=".35928" style="paint-order:fill markers stroke"/>
  </g>
  <g transform="matrix(.27905 0 0 .3065 -27.32 -188.01)" style="font-variant-ligatures:none;shape-inside:url(#rect12816-2-5);white-space:pre" aria-label="SOLUTIONS">
   <path d="m465.25 747.13q0 0.249-0.13 0.448-0.127 0.198-0.374 0.31-0.248 0.113-0.587 0.113-0.407 0-0.671-0.153-0.188-0.11-0.306-0.295-0.116-0.185-0.116-0.36 0-0.1 0.07-0.172 0.07-0.073 0.18-0.073 0.087 0 0.147 0.056 0.062 0.056 0.105 0.167 0.053 0.131 0.113 0.22 0.062 0.087 0.172 0.145 0.11 0.057 0.29 0.057 0.248 0 0.402-0.115 0.156-0.116 0.156-0.288 0-0.137-0.085-0.222-0.082-0.086-0.215-0.13-0.132-0.046-0.353-0.097-0.296-0.069-0.497-0.16-0.198-0.094-0.317-0.254-0.116-0.161-0.116-0.4 0-0.226 0.124-0.402 0.124-0.177 0.358-0.27 0.234-0.096 0.551-0.096 0.253 0 0.437 0.064 0.186 0.062 0.308 0.167 0.121 0.103 0.178 0.217 0.056 0.115 0.056 0.223 0 0.1-0.071 0.18-0.07 0.079-0.175 0.079-0.095 0-0.146-0.047-0.049-0.049-0.107-0.157-0.075-0.156-0.18-0.242-0.105-0.088-0.337-0.088-0.216 0-0.349 0.095-0.131 0.094-0.131 0.227 0 0.083 0.045 0.143t0.124 0.103q0.078 0.043 0.159 0.067 0.08 0.025 0.266 0.071 0.233 0.055 0.42 0.12 0.19 0.066 0.32 0.16 0.134 0.093 0.207 0.238 0.075 0.142 0.075 0.35zm1.682-1.971q0.427 0 0.733 0.175 0.307 0.172 0.465 0.493 0.157 0.318 0.157 0.75 0 0.318-0.086 0.579-0.086 0.26-0.259 0.452-0.172 0.19-0.423 0.292-0.252 0.101-0.576 0.101-0.323 0-0.578-0.103-0.254-0.105-0.425-0.294-0.17-0.19-0.259-0.456-0.086-0.266-0.086-0.575 0-0.317 0.09-0.581 0.092-0.265 0.264-0.45 0.173-0.186 0.42-0.283 0.248-0.1 0.563-0.1zm0.79 1.414q0-0.302-0.097-0.523-0.097-0.222-0.279-0.334-0.18-0.114-0.414-0.114-0.167 0-0.31 0.063-0.14 0.062-0.243 0.182-0.102 0.12-0.162 0.308-0.058 0.185-0.058 0.418 0 0.234 0.058 0.423 0.06 0.19 0.167 0.315 0.109 0.124 0.248 0.186 0.14 0.062 0.307 0.062 0.214 0 0.392-0.107 0.18-0.107 0.285-0.33 0.107-0.223 0.107-0.55zm1.587-1.076v2h1.129q0.135 0 0.206 0.066 0.073 0.065 0.073 0.165t-0.071 0.165q-0.072 0.062-0.208 0.062h-1.345q-0.181 0-0.262-0.081-0.079-0.08-0.079-0.26v-2.117q0-0.17 0.075-0.253 0.077-0.085 0.2-0.085 0.126 0 0.203 0.085 0.079 0.082 0.079 0.253z" stroke-width=".03291"/>
   <path d="m468.75 747.68h0.341v0.281h-0.341z" stroke-linecap="square" stroke-width=".37609" style="font-variant-ligatures:none;paint-order:fill markers stroke;shape-inside:url(#rect12816-2);white-space:pre"/>
   <path d="m470.89 746.82v-1.32q0-0.17 0.075-0.253 0.077-0.085 0.2-0.085 0.13 0 0.205 0.085 0.077 0.084 0.077 0.253v1.351q0 0.231 0.05 0.387 0.053 0.153 0.184 0.24 0.131 0.084 0.368 0.084 0.326 0 0.46-0.173 0.136-0.174 0.136-0.526v-1.363q0-0.171 0.075-0.253 0.075-0.085 0.2-0.085 0.126 0 0.203 0.085 0.079 0.082 0.079 0.253v1.321q0 0.323-0.064 0.538-0.062 0.216-0.236 0.38-0.15 0.138-0.349 0.202-0.199 0.063-0.465 0.063-0.317 0-0.545-0.067-0.23-0.07-0.374-0.212-0.144-0.144-0.211-0.367-0.068-0.225-0.068-0.537zm4.698-1.153h-0.607v1.997q0 0.173-0.077 0.257-0.077 0.082-0.199 0.082-0.123 0-0.202-0.084-0.077-0.084-0.077-0.255v-1.997h-0.608q-0.142 0-0.211-0.062-0.07-0.063-0.07-0.166 0-0.107 0.072-0.17 0.073-0.061 0.21-0.061h1.77q0.144 0 0.213 0.064 0.071 0.063 0.071 0.166 0 0.104-0.07 0.167-0.072 0.062-0.215 0.062zm0.638 1.997v-2.164q0-0.17 0.077-0.253 0.077-0.085 0.198-0.085 0.126 0 0.203 0.085 0.079 0.082 0.079 0.253v2.165q0 0.17-0.079 0.255-0.077 0.084-0.203 0.084-0.12 0-0.198-0.084-0.077-0.086-0.077-0.255zm2.388-2.503q0.428 0 0.733 0.175 0.308 0.172 0.465 0.493 0.158 0.318 0.158 0.75 0 0.318-0.086 0.579-0.086 0.26-0.259 0.452-0.173 0.19-0.424 0.292-0.251 0.101-0.575 0.101-0.323 0-0.578-0.103-0.255-0.105-0.425-0.294-0.171-0.19-0.26-0.456-0.085-0.266-0.085-0.575 0-0.317 0.09-0.581 0.092-0.265 0.264-0.45 0.173-0.186 0.42-0.283 0.248-0.1 0.562-0.1zm0.792 1.414q0-0.302-0.098-0.523-0.097-0.222-0.28-0.334-0.18-0.114-0.414-0.114-0.166 0-0.309 0.063-0.14 0.062-0.244 0.182-0.1 0.12-0.16 0.308-0.059 0.185-0.059 0.418 0 0.234 0.058 0.423 0.06 0.19 0.167 0.315 0.109 0.124 0.247 0.186 0.141 0.062 0.308 0.062 0.214 0 0.392-0.107 0.18-0.107 0.285-0.33 0.107-0.223 0.107-0.55zm1.766-1.08 1.07 1.62v-1.635q0-0.16 0.068-0.238 0.07-0.08 0.185-0.08 0.12 0 0.19 0.08 0.07 0.078 0.07 0.238v2.162q0 0.361-0.3 0.361-0.076 0-0.136-0.022-0.06-0.02-0.112-0.068-0.053-0.046-0.098-0.108l-0.09-0.13-1.044-1.6v1.61q0 0.157-0.073 0.238-0.073 0.08-0.188 0.08-0.118 0-0.19-0.08-0.07-0.083-0.07-0.238v-2.12q0-0.136 0.03-0.213 0.035-0.084 0.118-0.136 0.082-0.055 0.178-0.055 0.075 0 0.127 0.025 0.055 0.024 0.094 0.065 0.041 0.041 0.083 0.107zm4.28 1.637q0 0.249-0.13 0.448-0.127 0.198-0.374 0.31-0.248 0.113-0.587 0.113-0.407 0-0.671-0.153-0.188-0.11-0.306-0.295-0.116-0.185-0.116-0.36 0-0.1 0.07-0.172 0.07-0.073 0.18-0.073 0.087 0 0.147 0.056 0.062 0.056 0.105 0.167 0.053 0.131 0.113 0.22 0.062 0.087 0.172 0.145 0.11 0.057 0.29 0.057 0.248 0 0.402-0.115 0.156-0.116 0.156-0.288 0-0.137-0.085-0.222-0.082-0.086-0.215-0.13-0.132-0.046-0.353-0.097-0.296-0.069-0.497-0.16-0.198-0.094-0.317-0.254-0.116-0.161-0.116-0.4 0-0.226 0.124-0.402 0.124-0.177 0.358-0.27 0.234-0.096 0.551-0.096 0.253 0 0.437 0.064 0.186 0.062 0.308 0.167 0.121 0.103 0.178 0.217 0.056 0.115 0.056 0.223 0 0.1-0.071 0.18-0.07 0.079-0.175 0.079-0.095 0-0.146-0.047-0.049-0.049-0.107-0.157-0.075-0.156-0.18-0.242-0.105-0.088-0.337-0.088-0.216 0-0.349 0.095-0.131 0.094-0.131 0.227 0 0.083 0.045 0.143t0.124 0.103q0.078 0.043 0.159 0.067 0.08 0.025 0.266 0.071 0.233 0.055 0.42 0.12 0.19 0.066 0.32 0.16 0.134 0.093 0.207 0.238 0.075 0.142 0.075 0.35z" stroke-width=".03291"/>
  </g>
  <path transform="matrix(.14513 0 0 .14548 80.326 -52.334)" d="m189.79 612.19a2.367 2.367 0 0 0-2.367 2.367 2.367 2.367 0 0 0 2.367 2.367 2.367 2.367 0 0 0 2.367-2.367 2.367 2.367 0 0 0-2.367-2.367zm0 0.462a1.905 1.905 0 0 1 1.905 1.905 1.905 1.905 0 0 1-1.905 1.904 1.905 1.905 0 0 1-1.905-1.904 1.905 1.905 0 0 1 1.905-1.905z" stroke-linecap="square" stroke-width=".75694" style="paint-order:fill markers stroke"/>
  <g stroke-width=".25034" style="font-variant-ligatures:none">
   <path transform="matrix(.14513 0 0 .14548 76.834 -23.072)" d="m173.1 388.59h-0.17v0.77c0 0.1-0.022 0.175-0.067 0.223a0.228 0.228 0 0 1-0.175 0.072 0.223 0.223 0 0 1-0.18-0.075c-0.042-0.05-0.063-0.124-0.063-0.22v-2.137l1.086-4e-3c0.11 0 0.202 5e-3 0.28 0.015a0.695 0.695 0 0 1 0.408 0.19 0.666 0.666 0 0 1 0.176 0.453c0 0.179-0.05 0.321-0.152 0.428-0.1 0.107-0.252 0.183-0.457 0.227a0.887 0.887 0 0 1 0.247 0.203c0.078 0.09 0.148 0.185 0.209 0.286 0.062 0.1 0.11 0.19 0.144 0.273 0.035 0.08 0.052 0.136 0.052 0.166a0.17 0.17 0 0 1-0.031 0.095 0.202 0.202 0 0 1-0.082 0.072 0.254 0.254 0 0 1-0.12 0.028 0.232 0.232 0 0 1-0.138-0.04 0.371 0.371 0 0 1-0.096-0.096 4.615 4.615 0 0 1-0.108-0.173l-0.195-0.324a1.736 1.736 0 0 0-0.187-0.27 0.456 0.456 0 0 0-0.167-0.128 0.575 0.575 0 0 0-0.214-0.035zm0.278-1.006h-0.448v0.658h0.435c0.116 0 0.214-0.01 0.294-0.03a0.33 0.33 0 0 0 0.18-0.102 0.296 0.296 0 0 0 0.065-0.201 0.305 0.305 0 0 0-0.192-0.29c-0.056-0.023-0.168-0.035-0.334-0.035z" aria-label="R"/>
   <path transform="matrix(.14513 0 0 .14548 80.488 -22.71)" d="m189.83 411.41q0 0.114-0.069 0.243-0.067 0.13-0.207 0.248-0.139 0.116-0.35 0.188-0.213 0.07-0.478 0.07-0.565 0-0.882-0.327-0.316-0.33-0.316-0.884 0-0.374 0.145-0.662t0.42-0.444q0.274-0.159 0.655-0.159 0.237 0 0.433 0.07 0.198 0.069 0.335 0.178 0.138 0.11 0.21 0.234 0.073 0.123 0.073 0.23 0 0.11-0.083 0.185-0.08 0.076-0.196 0.076-0.076 0-0.127-0.038-0.05-0.04-0.112-0.127-0.111-0.17-0.234-0.254-0.12-0.085-0.308-0.085-0.27 0-0.435 0.212-0.165 0.21-0.165 0.576 0 0.171 0.042 0.316 0.043 0.143 0.123 0.246 0.08 0.1 0.194 0.154 0.114 0.051 0.25 0.051 0.183 0 0.312-0.085 0.132-0.084 0.233-0.258 0.055-0.103 0.12-0.161t0.158-0.058q0.112 0 0.186 0.085 0.073 0.084 0.073 0.18z" aria-label="c"/>
  </g>
  <path transform="matrix(.14513 0 0 .14548 80.326 -52.334)" d="m149.38 587.21a2.367 2.367 0 0 0-2.368 2.367 2.367 2.367 0 0 0 2.368 2.367 2.367 2.367 0 0 0 2.367-2.367 2.367 2.367 0 0 0-2.367-2.367zm0 0.462a1.905 1.905 0 0 1 1.904 1.905 1.905 1.905 0 0 1-1.904 1.904 1.905 1.905 0 0 1-1.905-1.904 1.905 1.905 0 0 1 1.905-1.905z" stroke-linecap="square" stroke-width=".75694" style="paint-order:fill markers stroke"/>
 </g>
</svg>
