<svg width="900" height="320" viewBox="0 0 238.125 84.667" xml:space="preserve" xmlns="http://www.w3.org/2000/svg"><text xml:space="preserve" style="font-style:normal;font-variant:normal;font-weight:700;font-stretch:normal;font-size:5.64445px;line-height:1.25;font-family:Roboto;-inkscape-font-specification:'Roboto, Bold';font-variant-ligatures:normal;font-variant-caps:normal;font-variant-numeric:normal;font-variant-east-asian:normal;fill:#000;fill-opacity:1;stroke-width:.264582" x="18.516" y="21.443"><tspan style="font-style:normal;font-variant:normal;font-weight:700;font-stretch:normal;font-size:5.64445px;font-family:Roboto;-inkscape-font-specification:'Roboto, Bold';font-variant-ligatures:normal;font-variant-caps:normal;font-variant-numeric:normal;font-variant-east-asian:normal;fill:#000;fill-opacity:1;stroke-width:.264582" x="18.516" y="21.443">Tax Revenue</tspan></text><text xml:space="preserve" style="font-style:normal;font-variant:normal;font-weight:700;font-stretch:normal;font-size:4.40973px;line-height:1.25;font-family:Roboto;-inkscape-font-specification:'Roboto, Bold';font-variant-ligatures:normal;font-variant-caps:normal;font-variant-numeric:normal;font-variant-east-asian:normal;fill:#000;fill-opacity:1;stroke-width:.264582" x="225.306" y="21.126"><tspan style="font-style:normal;font-variant:normal;font-weight:700;font-stretch:normal;font-size:4.40973px;font-family:Roboto;-inkscape-font-specification:'Roboto, Bold';font-variant-ligatures:normal;font-variant-caps:normal;font-variant-numeric:normal;font-variant-east-asian:normal;fill:#000;fill-opacity:1;stroke-width:.264582" x="225.306" y="21.126">$12.6</tspan></text><text xml:space="preserve" style="font-style:normal;font-variant:normal;font-weight:700;font-stretch:normal;font-size:4.40973px;line-height:1.25;font-family:Roboto;-inkscape-font-specification:'Roboto, Bold';font-variant-ligatures:normal;font-variant-caps:normal;font-variant-numeric:normal;font-variant-east-asian:normal;fill:#000;fill-opacity:1;stroke-width:.264582" x="153.591" y="35.608"><tspan style="font-style:normal;font-variant:normal;font-weight:700;font-stretch:normal;font-size:4.40973px;font-family:Roboto;-inkscape-font-specification:'Roboto, Bold';font-variant-ligatures:normal;font-variant-caps:normal;font-variant-numeric:normal;font-variant-east-asian:normal;fill:#000;fill-opacity:1;stroke-width:.264582" x="153.591" y="35.608">$7.2</tspan></text><text xml:space="preserve" style="font-style:normal;font-variant:normal;font-weight:700;font-stretch:normal;font-size:5.64445px;line-height:1.25;font-family:Roboto;-inkscape-font-specification:'Roboto, Bold';font-variant-ligatures:normal;font-variant-caps:normal;font-variant-numeric:normal;font-variant-east-asian:normal;fill:#000;fill-opacity:1;stroke-width:.264582" x="14.762" y="35.925"><tspan style="font-style:normal;font-variant:normal;font-weight:700;font-stretch:normal;font-size:5.64445px;font-family:Roboto;-inkscape-font-specification:'Roboto, Bold';font-variant-ligatures:normal;font-variant-caps:normal;font-variant-numeric:normal;font-variant-east-asian:normal;fill:#000;fill-opacity:1;stroke-width:.264582" x="14.762" y="35.925">CO  Reduction</tspan></text><path style="fill:#000;fill-opacity:1;stroke:none;stroke-width:.352779;stroke-linecap:square;stroke-dasharray:none;stroke-opacity:1" d="M53.971 17.854h167.921v3.413H53.971zM53.971 32.335h96.207v3.413H53.971z"/><path style="opacity:.675944;fill:#ff9000;fill-opacity:1;stroke-width:2;stroke-linecap:square" d="M6.328 154.15h2.646v2.646H6.328z" transform="rotate(-90 -36.87 122.573)"/><path style="opacity:.675944;fill:#ffcd67;fill-opacity:1;stroke-width:2;stroke-linecap:square" d="M8.974 154.15h2.646v2.646H8.974z" transform="rotate(-90 -36.87 122.573)"/><path style="opacity:.675944;fill:#ff9000;fill-opacity:1;stroke-width:2;stroke-linecap:square" d="M11.62 154.15h2.646v2.646H11.62z" transform="rotate(-90 -36.87 122.573)"/><path style="opacity:.675944;fill:#ffcd67;fill-opacity:1;stroke-width:2;stroke-linecap:square" d="M14.265 154.15h2.646v2.646h-2.646z" transform="rotate(-90 -36.87 122.573)"/><path style="opacity:.675944;fill:#ff9000;fill-opacity:1;stroke-width:2;stroke-linecap:square" d="M16.911 154.15h2.646v2.646h-2.646z" transform="rotate(-90 -36.87 122.573)"/><path style="opacity:.675944;fill:#ffcd67;fill-opacity:1;stroke-width:2;stroke-linecap:square" d="M19.557 154.15h2.646v2.646h-2.646z" transform="rotate(-90 -36.87 122.573)"/><path style="opacity:.675944;fill:#ff9000;fill-opacity:1;stroke-width:2;stroke-linecap:square" d="M22.203 154.15h2.646v2.646h-2.646z" transform="rotate(-90 -36.87 122.573)"/><path style="opacity:.675944;fill:#ffcd67;fill-opacity:1;stroke-width:2;stroke-linecap:square" d="M24.849 154.15h2.646v2.646h-2.646z" transform="rotate(-90 -36.87 122.573)"/><path style="opacity:.675944;fill:#ff9000;fill-opacity:1;stroke-width:2;stroke-linecap:square" d="M27.495 154.15h2.646v2.646h-2.646z" transform="rotate(-90 -36.87 122.573)"/><path style="opacity:.675944;fill:#ffcd67;fill-opacity:1;stroke-width:2;stroke-linecap:square" d="M30.14 154.15h2.646v2.646H30.14z" transform="rotate(-90 -36.87 122.573)"/><path style="opacity:.675944;fill:#c7ff00;stroke-width:2;stroke-linecap:square" d="M6.328 154.15h2.646v2.646H6.328z" transform="rotate(-90 -50.099 109.343)"/><path style="opacity:.675944;fill:#f9ff67;fill-opacity:1;stroke-width:2;stroke-linecap:square" d="M8.974 154.15h2.646v2.646H8.974z" transform="rotate(-90 -50.099 109.343)"/><path style="opacity:.675944;fill:#c7ff00;stroke-width:2;stroke-linecap:square" d="M11.62 154.15h2.646v2.646H11.62z" transform="rotate(-90 -50.099 109.343)"/><path style="opacity:.675944;fill:#f9ff67;fill-opacity:1;stroke-width:2;stroke-linecap:square" d="M14.265 154.15h2.646v2.646h-2.646z" transform="rotate(-90 -50.099 109.343)"/><path style="opacity:.675944;fill:#c7ff00;stroke-width:2;stroke-linecap:square" d="M16.911 154.15h2.646v2.646h-2.646z" transform="rotate(-90 -50.099 109.343)"/><path style="opacity:.675944;fill:#f9ff67;fill-opacity:1;stroke-width:2;stroke-linecap:square" d="M19.557 154.15h2.646v2.646h-2.646z" transform="rotate(-90 -50.099 109.343)"/><path style="opacity:.675944;fill:#c7ff00;stroke-width:2;stroke-linecap:square" d="M22.203 154.15h2.646v2.646h-2.646z" transform="rotate(-90 -50.099 109.343)"/><path style="opacity:.675944;fill:#f9ff67;fill-opacity:1;stroke-width:2;stroke-linecap:square" d="M24.849 154.15h2.646v2.646h-2.646z" transform="rotate(-90 -50.099 109.343)"/><path style="opacity:.675944;fill:#c7ff00;stroke-width:2;stroke-linecap:square" d="M27.495 154.15h2.646v2.646h-2.646z" transform="rotate(-90 -50.099 109.343)"/><path style="opacity:.675944;fill:#f9ff67;fill-opacity:1;stroke-width:2;stroke-linecap:square" d="M30.14 154.15h2.646v2.646H30.14z" transform="rotate(-90 -50.099 109.343)"/><path style="opacity:.675944;fill:#ff9000;fill-opacity:1;stroke-width:2;stroke-linecap:square" d="M6.328 154.15h2.646v2.646H6.328z" transform="rotate(-90 -63.328 96.114)"/><path style="opacity:.675944;fill:#ffcd67;fill-opacity:1;stroke-width:2;stroke-linecap:square" d="M8.974 154.15h2.646v2.646H8.974z" transform="rotate(-90 -63.328 96.114)"/><path style="opacity:.675944;fill:#ff9000;fill-opacity:1;stroke-width:2;stroke-linecap:square" d="M11.62 154.15h2.646v2.646H11.62z" transform="rotate(-90 -63.328 96.114)"/><path style="opacity:.675944;fill:#ffcd67;fill-opacity:1;stroke-width:2;stroke-linecap:square" d="M14.265 154.15h2.646v2.646h-2.646z" transform="rotate(-90 -63.328 96.114)"/><path style="opacity:.675944;fill:#ff9000;fill-opacity:1;stroke-width:2;stroke-linecap:square" d="M16.911 154.15h2.646v2.646h-2.646z" transform="rotate(-90 -63.328 96.114)"/><path style="opacity:.675944;fill:#ffcd67;fill-opacity:1;stroke-width:2;stroke-linecap:square" d="M19.557 154.15h2.646v2.646h-2.646z" transform="rotate(-90 -63.328 96.114)"/><path style="opacity:.675944;fill:#ff9000;fill-opacity:1;stroke-width:2;stroke-linecap:square" d="M22.203 154.15h2.646v2.646h-2.646z" transform="rotate(-90 -63.328 96.114)"/><path style="opacity:.675944;fill:#ffcd67;fill-opacity:1;stroke-width:2;stroke-linecap:square" d="M24.849 154.15h2.646v2.646h-2.646z" transform="rotate(-90 -63.328 96.114)"/><path style="opacity:.675944;fill:#ff9000;fill-opacity:1;stroke-width:2;stroke-linecap:square" d="M27.495 154.15h2.646v2.646h-2.646z" transform="rotate(-90 -63.328 96.114)"/><path style="opacity:.675944;fill:#ffcd67;fill-opacity:1;stroke-width:2;stroke-linecap:square" d="M30.14 154.15h2.646v2.646H30.14z" transform="rotate(-90 -63.328 96.114)"/><path style="opacity:.675944;fill:#3489ff;fill-opacity:1;stroke-width:2;stroke-linecap:square" d="M-57.15 144.198h2.646v2.646h-2.646z" transform="rotate(-90 -60.987 88.503)"/><path style="opacity:.675944;fill:#34ffe4;fill-opacity:1;stroke-width:2;stroke-linecap:square" d="M-54.504 144.198h2.646v2.646h-2.646z" transform="rotate(-90 -60.987 88.503)"/><g><path d="M133.17 83.252c-.263-.03-.106-.15.565-.439.37-.158.778-.343.91-.412.22-.115.285-.125.84-.133.478-.007.624-.024.717-.086.148-.099.308-.104.27-.01-.023.057.03.07.324.07.425 0 .66.04.64.107-.01.028-.196.137-.415.242-.218.105-.594.298-.835.428l-.438.237-1.222.005a36.207 36.207 0 0 1-1.356-.01zm1.25-.168c.015-.013-.183-.023-.437-.023-.27 0-.463.02-.463.045 0 .044.853.024.9-.022zm1.347.004c-.04-.036-.74-.055-.882-.024-.087.02.063.034.38.037.286.003.513-.003.502-.013zm-1.024-.167c.037-.057-.748-.053-.84.003-.05.03.07.043.37.041.244 0 .455-.02.47-.044zm1.327-.005c.033-.02-.177-.036-.467-.036-.37 0-.505.014-.455.046.082.052.833.044.922-.01zm-.948-.18c.054-.047-.156-.05-.61-.01-.176.016-.322.047-.322.068 0 .05.87-.005.932-.058zm1.27.006c.05-.03-.083-.044-.418-.045-.296 0-.49.018-.49.045 0 .06.813.06.91 0zm-.91-.18c0-.05-.79-.039-.843.011-.02.018.164.032.405.032.246 0 .44-.019.44-.043zm1.27-.002c.019-.03-.135-.046-.428-.046-.273 0-.458.02-.458.046 0 .027.175.045.43.045.234 0 .44-.02.456-.045zm-1.053-.137c.062-.025-.052-.038-.325-.036-.23.001-.43.02-.446.042-.032.05.644.046.77-.006zm1.04-.033a2.885 2.885 0 0 0-.406 0c-.112.01-.02.017.204.017.224 0 .315-.008.203-.017zm.157.831a2.707 2.707 0 0 0-.18-.043c-.167-.035-.166-.078.006-.174.108-.06.203-.07.448-.05.185.017.41.006.554-.027l.242-.055-.116-.163c-.144-.202-.15-.46-.016-.74l.097-.206-.108-.084a2.29 2.29 0 0 0-.86-.392c-.21-.05-.305-.09-.235-.096.112-.009.11-.01-.024-.04-.08-.017-.154-.018-.167-.003a.327.327 0 0 1-.108.058c-.142.05-.264.3-.3.615-.021.2-.046.278-.073.233-.055-.094.016-.555.106-.686a.492.492 0 0 0 .077-.148c0-.022.03-.06.066-.082.043-.029.028-.033-.047-.013-.176.048-.78-.023-.74-.085.018-.029-.02-.02-.085.02-.144.09-.253.38-.215.572.016.08.08.218.145.308l.117.164h-.145c-.128 0-.157-.027-.26-.24-.098-.207-.107-.268-.068-.463.057-.283.14-.405.383-.558.19-.12.203-.12 1.04-.12.752 0 .884.01 1.152.1.557.183.732.34 1.134 1.002.18.297.23.427.23.581 0 .264-.09.35-.51.477-.188.058-.375.14-.414.184-.115.124-.887.23-1.126.154zm1.422-.568c.123-.032.233-.08.245-.11.01-.028-.058-.168-.153-.31-.317-.476-.532-.458-.57.046-.022.29.09.552.2.471.03-.022.154-.065.278-.097zm-.397-1.05c-.244-.2-1-.51-1-.412 0 .02.072.05.16.066.213.038.71.275.82.392.049.05.098.081.11.07.014-.013-.027-.065-.09-.116zm11.324 1.423c-.037-.022-.052-.172-.045-.443.01-.448-.04-2.254-.087-3.054-.016-.276-.05-1.055-.077-1.732a78.32 78.32 0 0 0-.073-1.573 65.1 65.1 0 0 0-.188-2.096 6.683 6.683 0 0 1-.05-.365 28.153 28.153 0 0 0-.625-3.327c-.324-1.215-.81-2.019-1.398-2.313-.404-.202-.726-.263-1.353-.257-2.543-.003-5.61 1.392-6.31 2.79-.485.976.426 2.33 1.25 3.348.674.788.77.906.79.95.033.084.108.035.08-.05-.018-.054-.01-.092.02-.092.028 0 .05-.03.05-.069 0-.038-.041-.068-.095-.068-.052 0-.095-.02-.095-.046 0-.066.107-.056.222.021.055.037.114.054.13.038.053-.05.033-.187-.03-.21-.032-.014.014-.013.103.002.126.02.157.012.14-.038-.012-.035-.07-.07-.126-.078-.122-.017-.133-.066-.033-.144.092-.073.307-.023.346.08.017.043.07.128.12.188.05.063.075.146.06.194-.02.063-.004.084.067.084.053 0 .11.022.128.05.05.077.413-.003.567-.126.125-.1.145-.104.22-.04.122.106.152.033.037-.093-.09-.098-.11-.103-.18-.04-.09.076-.19.09-.19.021 0-.025.017-.045.04-.045.02 0 .064-.052.094-.114.03-.063.09-.114.13-.114.086 0 .358-.266.358-.35 0-.03-.043-.067-.096-.083-.053-.016-.096-.058-.096-.093 0-.047-.038-.057-.143-.037-.112.02-.144.01-.144-.045 0-.076-.18-.194-.228-.148-.015.014-.024.1-.02.187.003.106-.025.186-.083.233-.07.058-.08.104-.05.23.028.118.02.163-.03.182-.116.042-.212-.023-.212-.142 0-.085-.032-.123-.12-.144-.13-.03-.247-.199-.263-.383-.018-.19-.005-.215.146-.274.122-.048.285-.243.285-.34 0-.027-.216-.004-.437.047-.093.021-.18-.005-.328-.099-.167-.104-.272-.13-.597-.152-.238-.015-.428-.05-.478-.09-.073-.058-.104-.055-.25.02-.144.073-.174.076-.21.02-.08-.118-.05-.155.255-.32.846-.458 1.716-.685 2.62-.684.746 0 1.37.117 2.107.393.397.15 1.255.723 1.6 1.07.317.32.73.88.926 1.252.49.93.673 2.37.443 3.446-.223 1.04-.678 1.836-1.48 2.595a4.908 4.908 0 0 1-1.8 1.084c-.963.323-2.217.368-3.185.113-.328-.086-.958-.33-.958-.37 0-.018.043-.057.095-.088.08-.048.153-.035.46.082.202.076.377.13.388.118.012-.01 0-.058-.024-.104-.09-.165-.153-.414-.182-.703a10.796 10.796 0 0 0-.05-.43c-.044-.282-.03-.74.03-1.04.06-.3.058-.313-.048-.42a.61.61 0 0 0-.21-.14c-.17-.048-.315-.208-.315-.343 0-.07-.043-.23-.096-.359-.116-.279-.122-.489-.02-.597.1-.104.048-.195-.076-.132a.432.432 0 0 1-.157.046c-.08 0-.274-.152-.274-.215 0-.024-.053-.067-.117-.095-.105-.045-.112-.066-.072-.199.042-.14.032-.159-.183-.339-.153-.129-.232-.17-.242-.127-.03.124-.1.06-.25-.232-.13-.247-.15-.333-.13-.523.013-.137.002-.233-.028-.243-.03-.01-.005-.076.055-.157a.57.57 0 0 0 .105-.189c0-.026.065-.118.144-.204a.823.823 0 0 0 .143-.185c0-.017.036-.106.08-.2.043-.093.084-.196.09-.23.026-.11.052-.1.226.084.106.112.146.182.104.182-.038 0-.07.017-.07.038 0 .021-.063.038-.142.038-.08 0-.15.01-.157.02-.007.01-.062.104-.12.21-.11.19-.11.19-.012.24.135.07.122.177-.028.231-.088.032-.146.03-.192-.006-.05-.04-.066-.036-.066.021 0 .041.027.075.06.075.04 0 .036.016-.012.046-.064.04-.064.05 0 .09.06.038.06.044-.012.045-.07 0-.082.04-.076.217.006.167.012.182.027.068.024-.182.084-.188.176-.019.04.07.104.156.146.188.06.047.063.074.02.124-.046.052-.02.1.128.245.102.1.208.18.235.18.028 0-.003-.042-.07-.09-.11-.084-.112-.09-.02-.09.06 0 .1-.034.103-.093.004-.05-.013-.09-.037-.09-.025 0-.045-.035-.045-.075 0-.154.13.03.158.22.015.106.06.216.102.245.108.074.092.121-.028.085-.09-.027-.1-.017-.074.074.016.058.01.13-.016.158-.03.035-.01.07.064.107.06.03.13.1.155.155a.221.221 0 0 0 .142.117c.092.017.092.014.01-.073-.046-.05-.072-.12-.056-.16.015-.039.005-.084-.023-.1-.083-.049-.06-.129.03-.097.043.016.096.003.118-.029.06-.09.047-.14-.03-.11-.04.013-.083.005-.1-.019-.014-.024-.002-.043.029-.043.032 0 .043-.032.026-.074-.02-.05-.01-.066.04-.048a.075.075 0 0 0 .094-.04.11.11 0 0 1 .092-.066c.036 0 .105-.04.153-.092.084-.088.083-.09-.005-.09a.39.39 0 0 0-.184.07c-.126.09-.302.083-.352-.014-.078-.15-.016-.42.123-.54.088-.078.11-.123.07-.139-.07-.027-.08-.153-.015-.153.025 0 .06.041.075.092.032.095.096.12.14.05.015-.022-.005-.065-.044-.096-.04-.03-.058-.075-.043-.098.036-.056.163.043.163.126 0 .115.302.046.317-.072a.962.962 0 0 1 .012-.074c.003-.015.072.026.153.091.176.14.337.168.23.04-.062-.076-.06-.076.054-.006.068.042.113.11.105.153-.01.048.008.07.048.056.034-.01.057-.066.05-.12-.006-.056.01-.089.033-.075.025.014.058.005.075-.02.017-.026-.004-.047-.045-.047-.04 0-.074-.02-.074-.045 0-.025.02-.046.048-.046.026 0 .048-.02.048-.046 0-.027-.05-.034-.12-.018-.103.025-.116.016-.09-.056.019-.047.016-.07-.006-.05-.02.018-.065.012-.097-.013-.043-.034-.054-.016-.044.07.007.062-.008.125-.034.141-.052.03-1.447-1.31-1.913-1.856-2.215-2.59-1.124-3.906 1.537-5.33 1.053-.564 2.53-.97 4.23-1.27 1.848-.327 3.048-.392 3.537-.193.213.088.51.37.644.611.038.07.078.274.09.456.054.904.158 13.305.125 15.086-.005.26-.044.31-.18.227zm-5.572-1.428c.745-.137 1.032-.248 1.373-.53.797-.66 1.218-1.569 1.29-2.786l.032-.539-.167-.178a1.93 1.93 0 0 1-.22-.273c-.083-.152-.06-.485.042-.59a.379.379 0 0 0 .1-.183c.016-.172-.008-.3-.052-.274-.025.015-.058.005-.075-.02-.017-.026 0-.058.04-.072.06-.022.06-.054.002-.24-.094-.303-.527-1.1-.858-1.578-.262-.377-.387-.508-.907-.953-.217-.185-.305-.16-.223.065.072.198.07.214-.045.272-.082.042-.128.03-.265-.07-.237-.172-.358-.305-.35-.386a.327.327 0 0 0-.005-.104.789.789 0 0 1-.04-.195c-.008-.076-.516-.312-.865-.4-.124-.032-.22-.086-.232-.13-.012-.043-.047-.087-.08-.099-.103-.038-.322.025-.352.101a.358.358 0 0 1-.104.13c-.046.033-.052.055-.017.056a.11.11 0 0 0 .086-.044c.047-.072.407-.057.407.017 0 .037.074.074.18.09.233.035.63.22.633.292 0 .033-.058.057-.142.057-.2 0-.18.074.03.112.122.022.16.045.123.08a.11.11 0 0 0-.025.11c.015.037-.006.062-.05.062-.044 0-.078-.02-.078-.045 0-.025-.09-.046-.197-.046-.177 0-.195-.01-.17-.096.04-.148-.043-.3-.18-.324-.171-.03-.19.007-.05.11.118.09.17.356.07.356a.047.047 0 0 1-.048-.046c0-.025-.032-.045-.072-.045-.04 0-.072.018-.072.04 0 .023-.075.084-.167.136-.12.068-.16.116-.14.175.087.253.134.326.24.372a.37.37 0 0 1 .166.154c.04.09.044.086.02-.032-.023-.105-.006-.15.082-.214.095-.069.102-.093.052-.17-.037-.059-.042-.103-.012-.12.026-.015.047-.067.047-.116 0-.102.026-.107.232-.038.083.027.15.078.15.113 0 .036.022.064.05.064.025 0 .047-.02.047-.045 0-.082.152-.048.176.04.013.047.087.13.166.185.12.084.133.112.082.17-.05.057-.04.083.053.15l.113.081-.128.08c-.1.063-.142.068-.197.025-.09-.07-.195-.017-.124.063.027.032.035.07.018.087-.017.017.004.03.048.03.145 0 .085.244-.08.328-.056.028-.21.06-.34.07-.132.01-.25.034-.265.055-.014.021-.068.046-.12.055a.144.144 0 0 0-.112.12c-.01.056-.044.102-.078.102-.036 0-.062.052-.062.121 0 .123-.12.243-.24.243a.674.674 0 0 0-.206.07c-.154.076-.192.246-.077.35.07.06.05.234-.022.192-.024-.014-.034-.04-.02-.06.01-.019-.025-.033-.08-.03-.08.002-.112-.033-.14-.155-.041-.193-.166-.287-.332-.252-.082.017-.147.002-.187-.044-.106-.122-.327-.087-.483.076-.14.146-.19.367-.095.422.026.015.11-.004.19-.043.17-.084.434-.093.434-.014 0 .03-.087.132-.193.224-.157.137-.188.19-.164.281.022.084.003.13-.074.181-.067.046-.098.107-.087.177.013.092.038.104.182.09a.539.539 0 0 0 .277-.12c.115-.109.43-.175.518-.109.03.022.075.015.107-.015.03-.029.07-.037.09-.019.02.02.005.052-.033.074-.038.023-.06.047-.047.055.188.115.25.13.318.076.057-.045.08-.044.11.005a.15.15 0 0 1 .017.122c-.016.04.01.062.07.062a.23.23 0 0 1 .155.07c.043.047.107.06.218.04.227-.04.328.006.422.193.082.164.082.166-.04.287-.13.13-.152.184-.074.184.027 0 .048-.03.048-.068 0-.038.033-.068.074-.068.133 0 .464.187.488.277.02.07.067.087.234.087.142 0 .24.028.3.086.05.047.152.105.227.13.112.034.14.072.152.202.013.143-.006.173-.19.292-.276.178-.323.241-.325.432-.003.26-.232.454-.54.454-.252 0-.584.278-.546.458.03.15-.043.225-.22.225-.141 0-.167.04-.08.124.065.061-.078.268-.21.302a.122.122 0 0 0-.082.113c0 .05-.025.1-.056.11-.04.012-.042.054-.007.151a.372.372 0 0 1 .01.226c-.03.077-.037.08-.04.011-.001-.044-.026-.08-.054-.08-.03 0-.038-.039-.02-.093.017-.05.008-.12-.02-.153-.04-.045-.035-.075.02-.118.06-.047.06-.07.012-.129-.05-.06-.048-.066.023-.04.07.024.084.002.084-.146 0-.134.022-.18.09-.198.073-.018.087-.06.078-.22-.014-.237.07-.344.21-.272.124.063.15.06.15-.015 0-.035.043-.074.096-.088.053-.013.09-.05.084-.083-.008-.032.02-.06.058-.06.092-.003.12-.148.045-.234-.032-.037-.042-.082-.02-.1.02-.018.046-.008.058.024.025.067.3.077.3.011 0-.025.022-.046.048-.046.027 0 .048.031.048.07 0 .036.024.067.053.067.03 0 .04-.03.026-.068-.017-.04 0-.069.04-.069.044 0 .059.027.04.073-.021.054-.005.07.06.057.053-.01.108-.078.135-.17.04-.13.033-.164-.046-.22-.088-.065-.086-.066.028-.035.097.026.108.021.06-.028-.08-.08-.077-.135.006-.105.037.013.08.005.096-.02.016-.024-.004-.055-.043-.07-.04-.014-.07-.052-.07-.084 0-.036.013-.04.035-.013.057.073.155.074.155.002 0-.04.028-.057.072-.04.053.018.064.005.042-.05-.017-.042-.06-.066-.096-.052-.036.013-.066.004-.066-.02 0-.068.102-.053.197.028.046.04.107.06.135.043.08-.047.06-.115-.033-.119-.07-.003-.07-.009.012-.042.085-.034.08-.042-.058-.07-.09-.019-.166-.069-.183-.118-.017-.05-.072-.086-.133-.085-.083 0-.09.01-.034.043.04.023.057.055.04.071-.04.037-.23-.059-.23-.115 0-.023-.033-.03-.072-.016-.04.014-.072.054-.072.09 0 .073-.076.084-.12.017-.016-.025-.006-.045.02-.045a.05.05 0 0 0 .052-.049c0-.026-.02-.035-.048-.02-.026.016-.048-.003-.048-.043 0-.075-.124-.1-.15-.03-.01.023-.045.013-.08-.022-.051-.054-.037-.064.089-.064.085 0 .142-.02.132-.05-.02-.057-.032-.058-.28-.018-.128.02-.217.011-.265-.026-.055-.043-.086-.045-.128-.005-.088.084-.132.062-.12-.06.008-.107.084-.168.084-.07s.082.04.158-.113c.058-.117.064-.16.02-.163-.045-.003-.045-.009.002-.027a.103.103 0 0 0 .06-.09c0-.037-.02-.056-.043-.042-.024.014-.056-.005-.07-.043-.016-.037-.056-.066-.09-.064-.05.002-.05.008 0 .027.05.02.05.037.004.09-.037.044-.042.08-.012.1.06.04.074.235.016.235-.025 0-.045-.052-.045-.114 0-.063-.023-.114-.05-.114-.03 0-.04-.039-.02-.09.035-.11-.015-.117-.16-.02-.11.073-.25.06-.25-.024 0-.025.033-.034.073-.02.098.036.09-.028-.012-.102-.112-.08-.16-.078-.125.006.02.05.006.06-.05.04-.042-.015-.077-.059-.077-.096 0-.044-.027-.059-.077-.04-.055.02-.07.008-.05-.04.032-.077-.04-.096-.088-.024a.113.113 0 0 1-.087.044c-.036 0-.04-.013-.01-.034.085-.058.07-.128-.026-.128-.05 0-.093.018-.093.04 0 .02-.02.025-.048.01-.026-.017-.063.008-.08.053a.35.35 0 0 1-.103.133c-.04.028-.055.074-.036.103.02.03.003.052-.04.052-.113 0-.09-.125.045-.264.098-.1.106-.126.045-.139-.06-.01-.063-.028-.02-.08.068-.076.047-.08-.125-.017-.072.026-.116.06-.1.076.017.016-.013.057-.066.093-.052.035-.083.084-.066.11.016.024-.006.081-.05.127-.081.085-.133.413-.065.413.02 0 .04.042.04.093 0 .05.027.103.062.115.04.015.058.086.048.206-.013.15.007.203.112.295.08.072.16.103.216.086.057-.017.088-.004.088.038 0 .036.054.124.12.197.082.088.112.163.093.224-.146.452-.168.767-.053.741.032-.006.058.008.058.033s-.025.04-.055.034c-.073-.016-.12.217-.063.316a.189.189 0 0 1 .017.141c-.014.036.008.092.05.125.058.046.063.068.018.095-.047.027-.047.05 0 .104.04.046.047.095.018.144-.045.076.048.515.12.565.02.015.036.066.036.115 0 .114.28.198.838.251.48.046.716.03 1.39-.094zm-1.98-.93c.014-.037.035-.068.045-.068.01 0 .02.03.02.068 0 .038-.022.07-.047.07-.026 0-.034-.032-.02-.07zm-.44-.34c-.015-.027-.007-.047.02-.047.026 0 .06.02.077.046.016.025.008.045-.018.045a.106.106 0 0 1-.078-.045zm.863-.41a.106.106 0 0 1 .078-.047c.026 0 .035.02.018.045a.106.106 0 0 1-.077.046c-.027 0-.035-.02-.02-.046zm.408-.228c0-.062.085-.1.116-.053.015.023-.006.054-.045.068-.04.014-.07.007-.07-.015zm-1.224-.096c-.017-.026-.02-.058-.008-.07.012-.012.035.01.05.05.033.08.006.093-.042.02zm2.014-.225c-.016-.025-.008-.045.018-.045s.06.02.078.045c.016.025.008.046-.02.046a.106.106 0 0 1-.076-.046zm-.407-.068c-.05-.056-.046-.068.018-.068.043 0 .077.03.077.068 0 .038-.008.068-.018.068-.01 0-.045-.03-.077-.068zm-1.51-.068a.106.106 0 0 1 .079-.046c.026 0 .034.02.018.046a.106.106 0 0 1-.078.045c-.026 0-.034-.02-.018-.045zm1.749-.069c0-.037.02-.068.047-.068.025 0 .034.03.018.068-.015.038-.036.07-.046.07-.01 0-.02-.032-.02-.07zm-1.772-.068c0-.025.023-.046.05-.046.03 0 .038.02.022.046-.016.025-.04.045-.05.045-.012 0-.022-.02-.022-.045zm-.02-.176c-.02-.032-.024-.07-.01-.085.044-.04.09.02.068.085-.016.046-.028.046-.058 0zm1.017-.038c.034-.013.076-.01.092.004.016.015-.013.026-.063.024-.056-.002-.067-.013-.03-.028zm.823-.009c0-.04.144-.11.172-.084.01.008-.027.04-.078.07-.052.03-.094.037-.094.014zm-.646-.096c-.017-.025-.01-.046.018-.046.026 0 .06.02.077.046.017.025.008.045-.018.045a.106.106 0 0 1-.077-.045zm-.704-.122c.035-.014.076-.012.092.003s-.012.026-.063.024c-.056-.002-.067-.013-.03-.027zm1.425-.047c-.026-.065-.02-.07.027-.026.033.031.047.068.033.082-.015.014-.042-.01-.06-.056zm.117-.059c0-.025.02-.046.048-.046.026 0 .047.02.047.046a.047.047 0 0 1-.047.046.047.047 0 0 1-.048-.046zm-2.3-.09c0-.026.022-.047.05-.047.025 0 .047.02.047.046a.047.047 0 0 1-.048.045.047.047 0 0 1-.048-.045zm1.63-.047c0-.025.02-.045.044-.045a.1.1 0 0 1 .075.045c.016.025-.004.046-.045.046-.04 0-.075-.02-.075-.046zm-1.964-.113c0-.036.044-.048.12-.035.065.012.12.038.12.057 0 .02-.055.034-.12.034-.067 0-.12-.025-.12-.056zm1.676-.07c-.08-.048-.066-.053.137-.062.092-.004.13.013.115.052-.027.067-.152.073-.252.01zm-.647-.18c.017-.026.04-.047.05-.047.013 0 .022.02.022.046 0 .025-.023.045-.05.045-.03 0-.038-.02-.022-.045zm-1.072-.309c.015-.087-.01-.12-.05-.062-.032.05-.052.043-.095-.034-.05-.087-.043-.096.054-.086.06.006.125.032.145.057.05.066.044.16-.01.16-.028 0-.047-.016-.044-.035zm1.122-.054c-.015-.023-.005-.055.02-.07.028-.017.05.002.05.041 0 .08-.03.092-.07.03zm-.313-.23c0-.026.023-.047.05-.047.028 0 .038.021.022.046-.017.025-.04.046-.05.046-.013 0-.022-.02-.022-.046zm1.293-.272c0-.023.02-.055.048-.07.026-.016.048.003.048.042 0 .04-.022.071-.048.071-.027 0-.048-.02-.048-.043zm.102-.219c-.066-.118-.02-.254.076-.219a.454.454 0 0 0 .09.025c.043 0 .016.125-.046.205-.064.083-.067.082-.12-.01zm.09-.102c0-.026-.01-.046-.022-.046-.01 0-.034.02-.05.046-.017.025-.007.045.02.045.03 0 .052-.02.052-.045zm2.468.093c-.043-.065.01-.139.1-.139.042 0 .066.032.057.076-.018.092-.114.13-.157.063zm-2.745-.347c-.06-.039-.107-.093-.107-.12 0-.032.022-.03.066.004.036.03.096.045.132.036.036-.009.05-.007.028.004-.02.01-.013.048.018.083.074.086-.005.082-.137-.007zm.276.026c0-.025.022-.046.048-.046.027 0 .048.02.048.046a.047.047 0 0 1-.048.045.047.047 0 0 1-.048-.045zm-1.46-.046c.016-.025.06-.045.098-.045.038 0 .07.02.07.045 0 .025-.045.046-.1.046-.053 0-.085-.02-.068-.046zm.31-.07c0-.078.156-.293.195-.27.026.015.035.046.02.07-.016.023.038.042.118.042.08 0 .147.02.147.046 0 .025.032.045.072.045.04 0 .072.02.072.046 0 .064-.132.057-.155-.008-.014-.04-.056-.04-.178 0-.172.057-.29.07-.29.028zm-.433-.066a.95.95 0 0 1-.304-.167c-.173-.137-.177-.145-.077-.175.073-.022.136-.004.21.061a.7.7 0 0 0 .303.124c.235.036.31.14.12.164a.93.93 0 0 1-.252-.006zm.322-.259c-.05-.047-.037-.197.016-.197.027 0 .048.018.048.041a.4.4 0 0 0 .03.114c.028.072-.033.1-.094.042zm4.113-.302c-.02-.045-.024-.094-.008-.11.05-.046.088.02.066.108-.02.08-.023.08-.058.002zm-3.953-3.45c0-.026.034-.046.075-.046.04 0 .06.02.045.045-.017.025-.05.046-.075.046a.045.045 0 0 1-.045-.046zm.103 8.198c-.1-.036-.122-.017-.086.074.025.06.04.063.097.014.058-.05.056-.064-.01-.088zm.318-.368c.113.02.122.014.068-.047-.134-.154-.37-.093-.265.07.022.034.038.034.05.002.01-.027.075-.038.147-.025zm4.534-.435a.808.808 0 0 1 .074-.195c.03-.053.042-.128.027-.166-.027-.069.063-.257.223-.465.065-.084.07-.127.03-.2-.07-.128-.017-.39.107-.517.15-.15.092-.263-.112-.222-.192.038-.287.112-.144.112.056 0 .116-.02.132-.045.016-.025.05-.046.075-.046.077 0 .05.12-.047.202-.12.102-.178.415-.097.508.05.056.03.105-.1.277-.1.134-.155.26-.152.348a.627.627 0 0 1-.066.268c-.04.071-.06.13-.046.13.013 0 0 .056-.026.125-.045.113-.042.118.026.054a.373.373 0 0 0 .096-.168zm-3.878-.194c.038-.058-.073-.058-.167 0-.06.036-.052.044.033.045.058 0 .118-.02.134-.045zm4.095-1.635c0-.07-.14-.154-.215-.126-.108.04-.216-.016-.216-.11 0-.087-.132-.18-.248-.179-.035.001-.007.047.06.103a.59.59 0 0 1 .157.186c.024.061.066.08.15.063.069-.012.143.005.174.04.06.07.138.083.138.023zm-.766-.6c0-.053-.02-.083-.046-.068-.025.015-.033.057-.02.094.039.094.066.083.066-.027zm-.068-.18c.097 0 .084-.08-.023-.135-.068-.035-.106-.029-.152.024-.05.057-.048.067.007.056.047-.01.066.022.06.1-.006.066 0 .08.015.034.013-.044.055-.08.093-.08zm-5.057-.274a.047.047 0 0 0-.047-.046.047.047 0 0 0-.048.046c0 .025.02.045.048.045.026 0 .047-.02.047-.045zm5.008-.172c-.084-.075-.087-.075-.057.004a.54.54 0 0 1 .03.135c0 .035.018.034.058-.004.045-.043.038-.073-.03-.135zm.29-.603c.015-.063.058-.179.095-.258a.735.735 0 0 0 .064-.273c-.004-.15-.024-.114-.165.303a2.306 2.306 0 0 1-.174.393.612.612 0 0 0-.087.182c.003.075.24-.232.267-.347zm-7.197-.252c-.04-.1-.107-.08-.078.023.013.05.043.08.065.067.022-.013.028-.053.013-.09zm2.072-.225c-.017-.063-.062-.116-.1-.116-.056 0-.054.023.013.134.093.156.13.148.087-.018zm6.307.021c.027-.099-.038-.127-.08-.034-.016.038-.064.012-.14-.074-.114-.126-.13-.13-.393-.099-.155.018-.256.05-.232.072.023.023.13.018.248-.01.2-.048.21-.045.335.093.15.165.226.18.262.052zm-6.702-.25c.015-.038.01-.069-.013-.069-.022 0-.067.03-.1.068-.05.056-.046.07.013.07.04 0 .085-.032.1-.07zm.953-.01c.02-.01.036-.112.036-.225 0-.169.017-.212.095-.23.053-.014.096-.043.096-.065 0-.06-.156-.045-.255.026-.067.048-.122.052-.228.017-.13-.043-.194-.129-.097-.129.023 0 .055-.036.072-.08a1.82 1.82 0 0 1 .057-.136c.016-.032-.003-.057-.042-.057-.04 0-.082.042-.096.094a.183.183 0 0 1-.118.118c-.068.016-.087.052-.07.133.012.06.036.113.052.115.017.003.106.011.198.018.223.017.232.023.12.07l-.096.038.096.004c.088.005.09.01.012.051-.088.05-.116.18-.038.18.025 0 .066-.037.092-.08.026-.044.062-.065.08-.047.046.042-.067.172-.15.172a.124.124 0 0 0-.093.047c-.028.044.18.02.277-.034zm4.73-.013c0-.025-.033-.046-.073-.046-.04 0-.072-.02-.072-.046a.047.047 0 0 0-.048-.045c-.134 0 .003.137.18.18.007 0 .012-.018.012-.043zm.304-.07c.07-.067.09-.113.146-.352.017-.069.055-.125.085-.125.088 0 .23.143.23.232 0 .097.077.153.12.087.016-.025.01-.046-.01-.046-.023 0-.064-.06-.093-.132-.077-.195-.23-.258-.347-.146-.058.055-.084.125-.068.182.017.064-.02.136-.12.231-.082.08-.117.14-.08.14.035 0 .097-.032.137-.07zm.457-.07c-.034-.02-.086-.023-.113-.007-.03.018-.015.037.033.046.047.01.086.04.088.07.002.032.014.03.03-.009.014-.034-.003-.079-.038-.1zm-.14-.09c0-.025-.02-.044-.047-.044s-.048.032-.048.071c0 .04.02.06.048.043.026-.015.048-.047.048-.07zm-.766-.064c0-.036-.02-.078-.048-.094-.026-.015-.048.014-.048.066 0 .051.022.094.048.094.027 0 .048-.03.048-.066zm-7.088-.089c0-.01-.054-.027-.12-.039s-.12-.004-.12.018c0 .021.054.04.12.04s.12-.009.12-.019zm7.206-.3c.093 0 .137-.16.075-.273-.035-.06-.1-.093-.195-.093-.165 0-.18-.045-.045-.127.08-.047.088-.073.044-.152a.357.357 0 0 1-.03-.21.394.394 0 0 0-.068-.258c-.117-.184-.114-.223.017-.184.095.03.1.025.042-.042-.092-.105-.143-.094-.178.04a.28.28 0 0 0 .04.216c.1.147.147.58.063.58-.088 0-.127.114-.06.177a.28.28 0 0 0 .164.051c.17 0 .196.134.045.24-.072.05-.127.13-.126.186.002.09.008.087.074-.027.04-.069.1-.125.138-.125zm-4.74.09c.017-.025-.004-.046-.045-.046-.04 0-.074.021-.074.046 0 .025.02.046.045.046.025 0 .058-.02.074-.046zm-.003-.279c-.048-.074-.116-.04-.116.057 0 .08.012.087.07.04.04-.03.06-.074.046-.097zm-.164-.245c-.033-.038-.08-.068-.108-.068-.026 0-.02.03.012.068.033.038.08.068.108.068.026 0 .02-.03-.012-.068zm4.432-.057c.162-.123.22-.294.118-.353-.027-.016-.048-.079-.048-.14 0-.06-.018-.11-.04-.11-.023 0-.067-.055-.1-.12-.092-.197-.15-.07-.168.373-.023.537-.018.544.238.35zm-.19-.09c.02-.07.032-.239.027-.377l-.01-.25.097.113a.42.42 0 0 1 .097.214c0 .055.023.113.05.128.045.027-.196.296-.266.296-.018 0-.017-.056.004-.125zm-6.254.053c0-.036-.02-.066-.045-.066-.025 0-.042.04-.038.088.008.1.083.08.083-.022zm6.055-.184c.115-.043.09-.1-.034-.077-.102.02-.108.007-.09-.166.018-.184.07-.239.123-.129.015.032.022.016.015-.034-.006-.05-.043-.09-.082-.09-.048 0-.082.07-.105.224-.044.292-.013.34.173.272zm-1.816-.668c-.026-.19-.063-.264-.184-.364-.194-.16-1.012-.56-1.22-.598-.233-.04-.143.04.12.11.127.033.37.127.54.21l.313.15.008.217c.007.19.03.237.188.366.098.082.2.148.223.148.026 0 .03-.1.012-.239zm1.118.014c.02-.139-.12-.255-.216-.178-.068.053-.087.23-.03.284.074.07.23.004.246-.106zm-.213-.029a.443.443 0 0 0 .03-.09c0-.01.02-.02.047-.02.026 0 .047.041.047.091 0 .053-.032.091-.077.091-.05 0-.067-.025-.047-.072zm1.36-.056c.01-.033-.01-.044-.055-.028-.052.02-.076-.01-.087-.102-.017-.138-.184-.217-.184-.087 0 .04-.017.072-.038.072-.068 0-.153-.107-.153-.192 0-.045-.025-.082-.056-.082-.086 0-.375-.226-.375-.294 0-.033-.03-.072-.07-.086-.152-.056.06.264.233.35.095.046.172.11.172.14 0 .03.062.112.137.18.133.121.14.122.163.032.038-.138.115-.114.15.047.027.135.122.165.162.05zm-3.39-.1c0-.025-.06-.043-.132-.04l-.132.004.12.036.13.041c.008.003.013-.016.013-.04zm1.275-.216a.861.861 0 0 1 .1-.224c.15-.22-.15-.702-.48-.77-.174-.037-.23.01-.063.05.165.04.377.234.456.418.055.13.05.17-.038.345-.11.217-.127.306-.054.306.026 0 .06-.056.08-.125zm-2.21-.002c.137-.037.192-.106.193-.244.002-.095-.02-.118-.105-.114-.1.006-.103.012-.034.113.085.123.09.115-.122.183-.144.047-.177.042-.266-.038-.057-.05-.13-.092-.16-.092-.032 0 .012.061.098.136.092.08.187.124.23.108.04-.014.114-.038.166-.052zm.79-.12c-.263-.13-.526-.19-.526-.12 0 .026.06.048.136.048a.35.35 0 0 1 .223.091.33.33 0 0 0 .235.09c.147-.003.147-.004-.067-.11zm-.862-.025c.104-.063.014-.122-.24-.155-.212-.027-.213-.027-.083.042.073.038.132.09.132.113 0 .056.098.056.19 0zm-.574-.124c0-.058.177-.13.275-.112.053.01.084-.08.065-.188-.003-.02.027-.048.066-.062.04-.015.073-.047.073-.072 0-.028-.128-.04-.327-.029a1.576 1.576 0 0 0-.658.172 12.41 12.41 0 0 0-.345.163c-.046.034.063.156.148.168.266.036.703.011.703-.04zm3.783-.288c0-.05-.008-.09-.018-.09-.01 0-.03.04-.043.09-.014.05-.006.091.018.091s.043-.04.043-.09zm-.182-.1c-.035-.033-.057-.036-.057-.008 0 .061.057.115.09.085.012-.013-.002-.048-.033-.078zm-2.46-.168c.022-.142.157-.176.667-.17.46.006.592-.034.24-.073-.3-.032-.73-.005-.846.053-.055.028-.1.088-.1.132a.232.232 0 0 1-.06.14c-.05.05-.046.057.01.04.04-.01.08-.066.089-.122zm-.185-.002c.075-.133.06-.185-.05-.185-.112 0-.38.135-.38.192 0 .057.048.042.2-.06.16-.109.234-.082.146.052-.033.05-.038.09-.012.09.025 0 .07-.04.096-.09zm-7.973 9.427c-.274-.2-.9-.586-1.317-.816-1.792-.986-2.42-1.758-2.255-2.772.083-.514.358-.972.852-1.425.71-.648 1.308-.974 1.308-.71 0 .034-.186.204-.412.377-.484.37-.876.81-1.058 1.184-.107.22-.134.352-.15.712-.02.418-.012.46.128.743.08.165.226.391.323.503.44.513 1.606 1.03 2.606 1.16.224.028.455.06.514.072.114.022.15.11.047.11a.76.76 0 0 0-.238.115.486.486 0 0 0-.228.295c-.05.173-.027.262.133.56.04.071-.07.025-.253-.108zm4.744-.212c-.263-.015-.41-.067-.41-.144 0-.017.14-.023.307-.012.18.01.343-.003.395-.033.07-.04-.004-.05-.342-.043-.418.01-.44.005-.682-.147-.137-.086-.243-.177-.235-.202.008-.025.135-.1.283-.168.262-.12.287-.123 1.24-.128 1.22-.007 1.142-.01 1.142.057 0 .064-.2.188-.874.537-.257.133-.467.26-.467.28 0 .02-.016.034-.036.03a4.918 4.918 0 0 0-.32-.027zm.577-.342c.02-.019-.13-.034-.334-.034-.204 0-.36.016-.348.034.03.045.635.044.682 0zm-.83-.157a.893.893 0 0 0-.24 0c-.072.01-.024.02.108.02.13 0 .19-.01.132-.02zm.957 0a2.885 2.885 0 0 0-.407 0c-.112.01-.02.016.204.016.224 0 .315-.008.203-.017zm.42-.133c0-.01-.168-.014-.372-.01-.358.007-.362.008-.108.034.25.026.48.014.48-.024zm-1.423-.022c-.038-.036-.078-.036-.142 0-.077.042-.07.048.053.05.103 0 .127-.013.09-.05zm.357.02a.552.552 0 0 0-.19-.002c-.06.01-.023.02.082.02.105.001.154-.008.108-.02zm.215-.09a.194.194 0 0 0-.12 0c-.032.012-.005.022.06.022.066 0 .093-.01.06-.023zm.72-.003a.894.894 0 0 0-.24 0c-.073.01-.025.02.107.02s.19-.009.132-.02zm-1.27-.643c-.185-.02-.643-.692-.9-1.32-.3-.727-.395-1.26-.365-2.039a4.845 4.845 0 0 1 .99-2.78c.256-.33.32-.375.418-.28.074.07.07.083-.044.2-.722.74-1.207 2.147-1.117 3.248.08.995.404 1.891.94 2.605.13.176.232.333.224.35-.008.017-.074.024-.146.016zm-2.024-2.065c-.36-.379-1.137-1.05-1.925-1.659-1.46-1.162-4.227-3.048-4.228-4.944-.002-1.265 1.187-2.565 3.5-3.706 4.004-1.977 11.598-3.474 23.774-3.474 2.6 0 3.397-.02 6.73.117 12.38.6 18.558 3.6 18.558 6.378 0 2.394-3.686 5.42-10.896 6.334-.276.027-.573.058-.658.07-.145.016-.156.008-.156-.116 0-.148-.012-.143.575-.228 4.185-.715 9.387-3.307 9.427-5.81.03-1.948-4.27-3.87-6.817-4.637-1.074-.322-1.943-.516-3.424-.767l-1.054-.18a44.027 44.027 0 0 0-1.692-.247 150.2 150.2 0 0 1-2.044-.207c-.484-.056-2.043-.204-2.85-.272-.712-.06-2.917-.138-4.477-.16-1.792-.023-4.717.053-7.017.183-1.76.1-1.87.134-2.49.181-9.412.716-17.176 3.823-17.176 6.378 0 .71.547 1.45 1.183 1.767 1.043.522 2.874.62 4.208.213.39-.118.575-.165.546-.09-.01.022-.13.125-.27.23-.44.33-.953 1.095-1.176 1.757-.2.592-.32 1.76-.23 2.223.03.145.107.39.172.545.066.155.113.288.104.296-.008.008-.097-.07-.196-.176zm2.993.015c0-.048.104-.146.154-.146.02 0 .038.04.038.09 0 .062-.032.092-.096.092-.053 0-.096-.016-.096-.036zm-.167-1.833c-.017-.025-.007-.045.02-.045.03 0 .052.02.052.045 0 .025-.01.046-.022.046-.01 0-.034-.02-.05-.046zm.12-.255c0-.036.06-.054.162-.05.194.01.184.06-.018.087-.095.013-.145 0-.145-.037zm-.144-.155c0-.025.023-.046.05-.046.028 0 .038.021.022.046-.017.025-.04.046-.05.046-.013 0-.022-.02-.022-.046zm.452-.095c-.015-.023.018-.042.072-.042.054 0 .098-.02.098-.048 0-.027.024-.034.052-.018.038.022.038.045 0 .08-.067.065-.188.08-.222.028zm.683-.208c-.05-.048.012-.105.087-.078.04.014.058.044.044.067-.03.048-.088.053-.13.011zm.134-.198c.016-.025.04-.046.05-.046.012 0 .022.02.022.046 0 .025-.023.045-.05.045-.03 0-.038-.02-.022-.045zm-.368-.214c.034-.013.076-.01.092.004.015.015-.013.026-.063.024-.056-.002-.067-.013-.03-.028zm-.997-.17c0-.04.034-.072.076-.072.042 0 .067.024.057.054-.03.084-.133.1-.133.018zm.575.022c0-.024.02-.056.048-.07.026-.017.047.002.047.042s-.02.07-.047.07-.048-.019-.048-.042zm.383-.049c0-.025.032-.045.072-.045.04 0 .072.02.072.045 0 .026-.033.046-.072.046-.04 0-.072-.02-.072-.046zm1.894-.078a.116.116 0 0 1 .027-.123c.042-.037.05-.029.027.03-.036.098.03.105.11.012.034-.038.09-.068.127-.068.117 0 .07.072-.098.148-.15.068-.166.068-.193 0zm-2.134-.195c0-.025.022-.046.048-.046.027 0 .048.02.048.046a.047.047 0 0 1-.048.046.047.047 0 0 1-.048-.046zm.72-.14c0-.026.02-.035.047-.02.026.016.048.038.048.05 0 .01-.022.02-.048.02a.048.048 0 0 1-.048-.049zm.31.003c-.016-.025.004-.045.045-.045.04 0 .075-.03.075-.069 0-.037.022-.068.05-.068.033 0 .033.027 0 .085-.025.047-.033.098-.017.114.017.016-.004.03-.046.03-.043 0-.09-.02-.107-.047zm-.427-.176c-.02-.032-.025-.07-.01-.085.044-.04.09.02.068.085-.017.047-.028.046-.058 0zm.24-.086c.046-.179.067-.185.067-.019 0 .08-.022.144-.05.144-.027 0-.034-.05-.016-.125zm-.388-.057a.106.106 0 0 1 .078-.045c.026 0 .034.02.018.045a.106.106 0 0 1-.077.046c-.027 0-.035-.02-.02-.046zm.813-.003c-.018-.027-.02-.06-.006-.073.034-.032.127.025.127.08 0 .057-.082.053-.12-.007zm.337.003a.082.082 0 0 1 .013-.099c.032-.03.06-.028.083.008a.082.082 0 0 1-.014.1c-.032.03-.06.027-.082-.009zm-1.27-.16c-.034-.039-.052-.075-.042-.08.22-.12.234-.124.234-.06a.101.101 0 0 1-.06.088c-.046.017-.045.023.003.026.035.002.05.024.033.05-.042.064-.098.056-.168-.024zm.336.022c-.062-.04-.06-.055.02-.114.108-.077.19-.028.144.085-.035.087-.064.093-.164.03zm.43-.024c0-.118.12-.43.16-.418.086.028.092.29.007.37-.076.072-.166.098-.166.048zm.267-.016a.05.05 0 0 1 .017-.07.055.055 0 0 1 .074.016.05.05 0 0 1-.018.07.055.055 0 0 1-.073-.016zm-1.176-.186c0-.026.023-.046.05-.046.03 0 .038.02.022.046-.016.025-.04.045-.05.045-.013 0-.022-.02-.022-.045zm.31-.139c-.046-.07.035-.14.112-.095.05.03.047.047-.008.092-.052.04-.08.041-.104.003zm.36-.088c0-.057.17-.144.21-.106.04.04-.064.15-.144.15-.036 0-.066-.02-.066-.044zm.45-.147c-.04-.06.07-.126.215-.127.092 0 .103.011.058.063-.073.084-.236.122-.274.064zm-1.54-.043c-.032-.032-.06-.084-.06-.117 0-.032-.021-.059-.047-.059a.047.047 0 0 1-.048-.046c0-.068.124-.054.19.02.03.037.05.11.04.163-.011.078-.026.085-.074.04zm.947.01c0-.057.287-.19.34-.16.074.043.047.094-.08.15-.146.063-.26.067-.26.01zm-.344-.08c.034-.014.075-.012.09.003.017.015-.011.026-.062.024-.055-.002-.067-.013-.028-.027zm-.316-.16c.024-.068.133-.106.133-.046 0 .025-.034.057-.076.072-.047.017-.068.007-.057-.026zm.548-.022c-.06-.057-.032-.116.042-.089.043.016.062.008.045-.018-.016-.025.016-.045.07-.045.11 0 .126.047.04.128-.063.06-.148.07-.197.024zm8.787-5.667a1.12 1.12 0 0 1-.126-.205c-.128-.242-.453-.548-.68-.64-.396-.16-1.507-.13-2.96.075-.343.05-.652.098-.688.11a4.99 4.99 0 0 1-.383.087 4.314 4.314 0 0 0-.402.095c-.047.018-.084.011-.084-.014 1.57-.7 8.15-1.723 14.793-1.666 4.502.038 9.044.554 12.04 2.075-.042.01-1.537.06-9.674.06-5.368 0-10.22.01-10.782.022-.562.013-1.036.014-1.054.001z"/><g stroke-width=".265"><g style="font-variant-ligatures:none" aria-label="URBAN"><path d="M150.436 70.678v-1.733q0-.222.103-.332.106-.11.276-.11.178 0 .282.11.106.11.106.332v1.772q0 .303.07.507.072.201.253.314.18.11.506.11.45 0 .635-.225.186-.229.186-.69v-1.788q0-.224.104-.332.103-.11.276-.11.173 0 .28.11.108.108.108.332v1.733q0 .423-.088.705-.085.283-.326.497-.206.182-.48.266-.274.083-.64.083-.437 0-.752-.088-.316-.09-.515-.278-.198-.19-.29-.482-.094-.295-.094-.703zm5.17-.073h-.27v1.174q0 .231-.106.34-.106.11-.276.11-.184 0-.284-.114-.1-.115-.1-.336v-2.81q0-.24.11-.346.11-.107.36-.107h1.247q.258 0 .44.022.185.02.332.085.178.072.315.207.137.134.207.313.072.177.072.377 0 .408-.24.652-.238.244-.723.346.204.105.39.31.186.203.33.435.148.23.228.416.082.184.082.254 0 .072-.05.145-.045.07-.128.11-.083.042-.19.042-.13 0-.218-.06-.088-.058-.152-.147-.062-.09-.17-.264l-.308-.493q-.166-.272-.297-.414-.13-.142-.264-.194-.134-.052-.338-.052zm.438-1.534h-.708v1.004h.687q.277 0 .465-.045.19-.047.287-.157.1-.112.1-.306 0-.152-.08-.267-.08-.117-.222-.174-.134-.055-.53-.055zm4.256 3.095-1.158.001q-.25 0-.36-.107-.105-.11-.105-.348v-2.755q0-.243.11-.348.11-.107.355-.107h1.227q.272 0 .47.032.2.033.357.125.134.078.238.198.103.117.157.262.054.143.054.303 0 .55-.568.805.747.23.747.895 0 .308-.163.555-.163.245-.44.363-.172.07-.397.1-.225.027-.524.027zm-.057-1.627h-.798v1.07h.824q.777 0 .777-.543 0-.277-.2-.402-.203-.125-.603-.125zm-.798-1.48v.947h.702q.287 0 .442-.052.157-.053.24-.2.065-.106.065-.236 0-.277-.204-.367-.204-.093-.623-.093zm5.717 2.7-.18-.453h-1.54l-.18.462q-.107.27-.182.366-.074.093-.245.093-.145 0-.256-.1-.11-.1-.11-.229 0-.074.025-.152.026-.079.085-.22l.97-2.34.097-.24q.06-.143.124-.236.067-.094.173-.15.11-.06.266-.06.16 0 .266.06.11.056.173.147.068.091.11.197.048.103.118.278l.99 2.325q.115.266.115.386 0 .126-.11.231-.11.103-.264.103-.09 0-.155-.03t-.11-.083q-.043-.054-.094-.162-.05-.11-.086-.194zm-1.518-1h1.13l-.57-1.489zm4.128-1.82 1.475 2.124V68.92q0-.209.093-.312.095-.106.255-.106.166 0 .26.106.097.103.097.312v2.835q0 .474-.413.474-.104 0-.186-.03-.083-.027-.155-.088-.073-.06-.135-.143-.062-.083-.124-.17l-1.438-2.099v2.112q0 .207-.1.312-.1.106-.26.106-.162 0-.26-.106-.1-.108-.1-.312v-2.78q0-.177.043-.278.05-.11.163-.18.113-.07.245-.07.103 0 .176.031.074.032.13.086.056.054.112.14.06.086.122.18z"/><path style="paint-order:fill markers stroke" d="M90.684 321.63h1.732v1.64h-1.732z" transform="matrix(.27152 0 0 .2584 129.946 -14.594)"/><path style="font-variant-ligatures:none;paint-order:fill markers stroke" d="M105.81 321.58h1.732v14.185h-1.732z" transform="matrix(.27152 0 0 .2584 129.946 -14.594)"/></g><g style="font-variant-ligatures:none" aria-label="CRUISE"><path d="M153.728 75.82q0 .172-.09.374-.087.2-.28.393-.19.192-.487.312t-.692.12q-.3 0-.545-.053-.246-.055-.447-.168-.2-.115-.367-.302-.15-.17-.256-.379-.106-.21-.16-.45-.05-.238-.05-.506 0-.435.13-.78.135-.343.383-.587.248-.246.58-.373.334-.128.71-.128.46 0 .82.174.359.175.55.433.19.256.19.484 0 .126-.092.222-.093.095-.224.095-.148 0-.222-.066-.073-.066-.163-.229-.15-.268-.354-.4-.202-.133-.5-.133-.471 0-.753.342-.28.341-.28.97 0 .421.125.701.124.278.35.416.229.137.534.137.33 0 .558-.154.23-.158.346-.46.05-.143.12-.23.073-.092.234-.092.136 0 .235.09.098.092.098.227zm1.685-.432h-.27v1.178q0 .232-.105.342-.105.11-.276.11-.183 0-.284-.115-.1-.115-.1-.337v-2.82q0-.24.11-.347.11-.108.36-.108h1.247q.258 0 .442.023.183.02.33.085.18.072.315.207.137.135.207.315.072.178.072.378 0 .41-.24.655-.237.245-.723.347.204.105.39.31.186.205.33.437.148.23.228.418.083.185.083.255 0 .072-.05.145-.046.07-.13.11-.081.042-.19.042-.13 0-.217-.06-.088-.057-.152-.147-.062-.09-.17-.265l-.308-.495q-.165-.273-.297-.415-.13-.143-.264-.195-.134-.053-.338-.053zm.44-1.54h-.71v1.008h.688q.277 0 .465-.045.19-.047.287-.157.1-.113.1-.308 0-.152-.08-.267-.08-.118-.22-.175-.136-.055-.53-.055z"/><path style="font-variant-ligatures:none;paint-order:fill markers stroke" d="M89.978 340.12h1.732v1.64h-1.732z" transform="matrix(.27152 0 0 .2584 129.946 -14.594)"/><path d="M158.242 75.47v-1.735q0-.22.1-.33.1-.112.266-.112.17 0 .27.11.103.111.103.332v1.773q0 .302.067.506.07.202.244.315.175.11.488.11.434 0 .613-.226.18-.228.18-.69v-1.788q0-.223.1-.33.1-.112.265-.112.167 0 .27.11.104.11.104.332v1.734q0 .422-.085.705-.082.283-.313.497-.2.182-.464.265-.264.084-.617.084-.42 0-.725-.089-.304-.09-.496-.277-.19-.19-.28-.482-.09-.295-.09-.703zm3.793 1.105v-2.84q0-.22.105-.332.106-.11.274-.11.173 0 .28.11.108.11.108.332v2.84q0 .223-.11.334-.105.11-.278.11-.165 0-.274-.11-.105-.113-.105-.334zm4.466-.698q0 .327-.178.587-.176.261-.517.408-.34.148-.808.148-.56 0-.925-.202-.258-.145-.42-.386-.16-.243-.16-.472 0-.132.094-.226.098-.096.248-.096.122 0 .204.074.086.074.145.22.072.171.155.287.085.115.238.191.152.074.4.074.34 0 .553-.15.214-.152.214-.378 0-.18-.116-.29-.114-.114-.297-.173-.18-.059-.486-.125-.408-.09-.684-.21-.274-.124-.437-.333-.16-.212-.16-.524 0-.297.17-.528.17-.232.494-.354.323-.126.76-.126.348 0 .6.084.257.08.425.22.168.134.245.284.078.15.078.292 0 .13-.098.236-.096.104-.24.104-.132 0-.202-.062-.067-.064-.147-.206-.104-.204-.248-.318-.145-.115-.465-.115-.297 0-.48.125-.182.123-.182.298 0 .108.062.187.062.078.17.135.11.056.22.088.112.032.367.094.32.071.58.157.26.086.44.21.184.122.285.311.103.187.103.46zm3.196-2.014h-1.766v.901h1.626q.18 0 .267.077.09.076.09.2 0 .126-.088.206-.087.077-.27.077h-1.625v1.043h1.827q.184 0 .277.082.095.08.095.215 0 .13-.095.213-.093.08-.277.08h-2.13q-.256 0-.37-.108-.11-.107-.11-.347v-2.756q0-.16.05-.26.05-.102.155-.147.108-.048.275-.048h2.07q.186 0 .276.08.092.078.092.205 0 .13-.092.21-.09.078-.277.078z"/><path style="font-variant-ligatures:none;paint-order:fill markers stroke" d="M137.01 340.12h1.732v14.185h-1.732z" transform="matrix(.27152 0 0 .2584 129.946 -14.594)"/></g><g style="font-variant-ligatures:none" aria-label="SHIP"><path d="M153.413 80.668q0 .327-.18.587-.174.26-.515.408-.34.148-.81.148-.56 0-.923-.202-.26-.145-.42-.386-.16-.243-.16-.472 0-.133.094-.226.098-.096.248-.096.12 0 .204.074.085.074.145.22.072.171.155.286.085.116.237.192.153.074.4.074.342 0 .553-.15.215-.153.215-.379 0-.18-.116-.29-.114-.113-.297-.172-.18-.059-.486-.125-.408-.09-.685-.212-.273-.123-.436-.332-.16-.21-.16-.523 0-.298.17-.529.17-.23.494-.354.322-.125.76-.125.348 0 .6.083.257.082.424.22.168.134.246.284.077.15.077.293 0 .13-.098.236-.095.103-.24.103-.132 0-.2-.06-.07-.065-.15-.208-.102-.204-.247-.317-.144-.115-.465-.115-.297 0-.48.125-.18.123-.18.297 0 .11.06.187.063.08.17.135.11.057.22.09.112.031.368.092.32.072.58.158.26.086.44.21.184.122.284.311.104.187.104.46zm3.578-2.143v1.033h1.656v-1.033q0-.22.103-.33.106-.112.277-.112.173 0 .28.11.107.11.107.332v2.84q0 .223-.108.334-.11.11-.28.11-.172 0-.276-.11-.103-.113-.103-.334v-1.212h-1.656v1.212q0 .223-.108.334-.11.11-.28.11-.172 0-.276-.11-.103-.113-.103-.334v-2.84q0-.22.1-.33.104-.112.28-.112.173 0 .28.11.107.11.107.332zm5.937 2.84v-2.839q0-.22.106-.332.106-.11.274-.11.173 0 .28.11.107.108.107.332v2.84q0 .223-.108.334-.106.11-.28.11-.165 0-.273-.11-.106-.113-.106-.335zm5.745-1.039h-.702v1.033q0 .221-.11.335-.107.115-.273.115-.173 0-.28-.112-.105-.115-.105-.333v-2.81q0-.245.117-.349.116-.104.37-.104h.983q.437 0 .672.064.232.062.4.207.17.144.26.353.086.21.086.47 0 .557-.356.845-.357.286-1.062.286zm-.186-1.67h-.516v1.113h.516q.27 0 .452-.054.184-.055.28-.18.095-.124.095-.325 0-.24-.147-.393-.166-.162-.68-.162z"/><path style="font-variant-ligatures:none;paint-order:fill markers stroke" d="M137.21 358.73h1.732v1.64h-1.732z" transform="matrix(.27152 0 0 .2584 129.946 -14.594)"/></g></g><g transform="matrix(.57207 0 0 .54442 -93.475 -327.252)" stroke-width=".033" style="font-variant-ligatures:none;white-space:pre;shape-inside:url(#rect12816-2)" aria-label="ANALYSIS"><path d="m464.92 747.65-.131-.345h-1.118l-.13.353q-.078.206-.132.279-.055.071-.178.071-.105 0-.186-.077-.08-.077-.08-.174 0-.056.018-.116.02-.06.062-.167l.703-1.785.072-.184q.043-.109.09-.18.048-.071.125-.114.079-.045.193-.045.117 0 .193.045.08.043.126.112.049.07.08.15.034.079.085.212l.718 1.774q.085.202.085.294 0 .096-.081.176-.079.079-.191.079-.066 0-.113-.024-.047-.023-.078-.062-.032-.041-.07-.124zm-1.102-.763h.82l-.414-1.134zm3.102-1.397 1.07 1.62v-1.635q0-.16.068-.238.07-.08.186-.08.12 0 .189.08.07.079.07.238v2.162q0 .362-.3.362-.076 0-.136-.023-.06-.02-.112-.067-.053-.047-.098-.11l-.09-.129-1.044-1.6v1.61q0 .157-.073.238-.073.08-.187.08-.119 0-.19-.08-.071-.083-.071-.238v-2.12q0-.136.03-.212.036-.085.118-.137.083-.055.178-.055.075 0 .128.025.054.024.093.065.042.042.083.107zm4.18 2.16-.131-.345h-1.118l-.13.353q-.078.206-.132.279-.055.071-.178.071-.105 0-.186-.077-.08-.077-.08-.174 0-.056.018-.116.02-.06.062-.167l.703-1.785.072-.184q.043-.109.09-.18.048-.071.125-.114.079-.045.193-.045.116 0 .193.045.08.043.126.112.049.07.08.15.034.079.085.212l.718 1.774q.084.202.084.294 0 .096-.08.176-.079.079-.191.079-.066 0-.113-.024-.047-.023-.079-.062-.032-.041-.07-.124zm-1.102-.763h.82l-.414-1.134zm2.922-1.387v2h1.129q.135 0 .206.066.073.066.073.165 0 .101-.071.165-.071.062-.208.062h-1.345q-.182 0-.262-.08-.079-.081-.079-.261V745.5q0-.169.075-.253.077-.085.2-.085.126 0 .203.085.079.082.079.253zm2.18 2.16v-.872l-.671-1.04q-.088-.14-.126-.22-.035-.078-.035-.137 0-.095.073-.164.075-.07.183-.07.115 0 .173.066.06.063.178.257l.514.834.52-.834.078-.13q.032-.052.07-.097.039-.047.085-.072.047-.024.115-.024.105 0 .174.07.071.067.071.157 0 .073-.035.146-.036.073-.122.203l-.688 1.055v.872q0 .17-.079.255-.079.084-.2.084-.124 0-.201-.082-.077-.085-.077-.257zm4.06-.53q0 .25-.13.448-.127.199-.374.311-.248.113-.587.113-.407 0-.671-.154-.188-.11-.306-.294-.116-.186-.116-.36 0-.101.07-.173.07-.073.18-.073.087 0 .147.056.062.057.105.167.053.131.113.22.062.088.172.146.11.056.29.056.248 0 .402-.114.156-.117.156-.29 0-.136-.085-.22-.082-.087-.215-.132-.132-.045-.353-.095-.296-.07-.497-.161-.198-.094-.316-.253-.117-.162-.117-.4 0-.227.124-.403.124-.176.358-.27.234-.096.551-.096.253 0 .437.064.186.062.308.167.122.103.178.218.056.114.056.223 0 .099-.071.18-.07.078-.175.078-.095 0-.146-.047-.049-.048-.107-.157-.075-.156-.18-.242-.105-.088-.337-.088-.216 0-.349.096-.131.093-.131.226 0 .083.045.143.045.06.124.103.078.043.159.068.08.024.266.07.233.055.42.12.19.066.32.16.134.094.207.238.075.143.075.35zm.77.53v-2.165q0-.17.077-.254.077-.084.199-.084.125 0 .202.084.079.083.079.254v2.165q0 .17-.079.255-.077.084-.202.084-.12 0-.2-.084-.076-.086-.076-.255zm3.54-.53q0 .25-.13.448-.127.199-.374.311-.248.113-.587.113-.407 0-.671-.154-.188-.11-.306-.294-.116-.186-.116-.36 0-.101.07-.173.07-.073.18-.073.087 0 .147.056.062.057.105.167.053.131.113.22.062.088.172.146.11.056.29.056.248 0 .402-.114.156-.117.156-.29 0-.136-.085-.22-.082-.087-.215-.132-.132-.045-.353-.095-.296-.07-.497-.161-.198-.094-.316-.253-.117-.162-.117-.4 0-.227.124-.403.124-.176.358-.27.234-.096.551-.096.253 0 .437.064.186.062.308.167.122.103.178.218.056.114.056.223 0 .099-.071.18-.07.078-.175.078-.095 0-.146-.047-.049-.048-.107-.157-.075-.156-.18-.242-.105-.088-.337-.088-.216 0-.349.096-.131.093-.131.226 0 .083.045.143.045.06.124.103.078.043.159.068.08.024.266.07.233.055.42.12.19.066.32.16.134.094.207.238.075.143.075.35z"/><path style="paint-order:fill markers stroke" d="M472.37 747.69h.386v.27h-.386z"/></g><g transform="matrix(.52205 0 0 .54442 -70.295 -324.39)" stroke-width=".035" style="font-variant-ligatures:none;white-space:pre;shape-inside:url(#rect12816-2-5)" aria-label="SOLUTIONS"><path d="M465.25 747.13q0 .25-.13.448-.127.199-.374.311-.248.113-.587.113-.407 0-.671-.154-.188-.11-.306-.294-.116-.186-.116-.36 0-.101.07-.173.07-.073.18-.073.087 0 .147.056.062.057.105.167.053.131.113.22.062.088.172.146.11.056.29.056.248 0 .402-.114.156-.117.156-.29 0-.136-.085-.22-.082-.087-.215-.132-.132-.045-.353-.095-.296-.07-.497-.161-.198-.094-.316-.253-.117-.162-.117-.4 0-.227.124-.403.124-.176.358-.27.234-.096.551-.096.253 0 .437.064.186.062.308.167.122.103.178.218.056.114.056.223 0 .099-.071.18-.07.078-.175.078-.095 0-.146-.047-.049-.048-.107-.157-.075-.156-.18-.242-.105-.088-.337-.088-.216 0-.349.096-.131.093-.131.226 0 .083.045.143.045.06.124.103.078.043.159.068.08.024.266.07.233.055.42.12.19.066.32.16.134.094.207.238.075.143.075.35zm1.68-1.97q.427 0 .733.174.308.173.465.493.158.32.158.75 0 .32-.087.58-.086.26-.258.452-.173.19-.424.292-.251.101-.576.101-.322 0-.577-.103-.255-.105-.426-.294-.17-.19-.258-.456-.087-.266-.087-.575 0-.317.09-.582.092-.264.265-.45.172-.185.42-.283.247-.099.562-.099zm.791 1.414q0-.302-.097-.523-.098-.222-.28-.334-.18-.115-.414-.115-.167 0-.31.064-.14.062-.243.182-.101.12-.161.307-.058.186-.058.419 0 .234.058.423.06.19.167.315.108.124.247.186.14.062.307.062.214 0 .392-.107.18-.107.285-.33.107-.223.107-.55zm1.589-1.074v2h1.129q.135 0 .206.066.073.066.073.165 0 .101-.071.165-.072.062-.208.062h-1.345q-.182 0-.262-.08-.079-.081-.079-.261V745.5q0-.169.075-.253.077-.085.2-.085.126 0 .203.085.079.082.079.253z"/><path style="font-variant-ligatures:none;white-space:pre;shape-inside:url(#rect12816-2);paint-order:fill markers stroke" d="M468.75 747.68h.341v.281h-.341z"/><path d="M470.89 746.82v-1.322q0-.169.075-.253.077-.084.2-.084.13 0 .205.084.077.084.077.253v1.352q0 .23.05.386.053.154.184.24.131.085.368.085.326 0 .46-.173.136-.174.136-.527v-1.363q0-.17.075-.253.075-.084.2-.084.126 0 .203.084.079.083.079.253v1.322q0 .323-.064.538-.062.216-.236.379-.15.139-.349.202-.199.064-.465.064-.317 0-.546-.067-.228-.07-.373-.212-.144-.145-.211-.368-.068-.225-.068-.536zm4.7-1.15h-.607v1.997q0 .172-.077.257-.077.082-.2.082-.123 0-.202-.084-.076-.085-.076-.255v-1.997h-.608q-.142 0-.212-.062-.07-.064-.07-.167 0-.107.072-.169.073-.061.21-.061h1.77q.144 0 .214.063.07.064.07.167 0 .103-.07.167-.072.062-.214.062zm.64 1.99v-2.165q0-.17.077-.254.077-.084.199-.084.125 0 .202.084.079.083.079.254v2.165q0 .17-.079.255-.077.084-.202.084-.12 0-.2-.084-.076-.086-.076-.255zm2.39-2.5q.427 0 .733.174.308.173.465.493.158.32.158.75 0 .32-.087.58-.086.26-.258.452-.173.19-.424.292-.251.101-.576.101-.322 0-.577-.103-.255-.105-.426-.294-.17-.19-.258-.456-.087-.266-.087-.575 0-.317.09-.582.092-.264.265-.45.172-.185.42-.283.247-.099.562-.099zm.791 1.414q0-.302-.097-.523-.098-.222-.28-.334-.18-.115-.414-.115-.167 0-.31.064-.14.062-.243.182-.101.12-.161.307-.058.186-.058.419 0 .234.058.423.06.19.167.315.108.124.247.186.14.062.307.062.214 0 .392-.107.18-.107.285-.33.107-.223.107-.55zm1.759-1.084 1.07 1.62v-1.635q0-.16.068-.238.07-.08.186-.08.12 0 .189.08.07.079.07.238v2.162q0 .362-.3.362-.076 0-.136-.023-.06-.02-.112-.067-.053-.047-.098-.11l-.09-.129-1.044-1.6v1.61q0 .157-.073.238-.073.08-.187.08-.119 0-.19-.08-.071-.083-.071-.238v-2.12q0-.136.03-.212.036-.085.118-.137.083-.055.178-.055.075 0 .128.025.054.024.093.065.042.042.083.107zm4.28 1.64q0 .25-.13.448-.127.199-.374.311-.248.113-.587.113-.407 0-.671-.154-.188-.11-.306-.294-.116-.186-.116-.36 0-.101.07-.173.07-.073.18-.073.087 0 .147.056.062.057.105.167.053.131.113.22.062.088.172.146.11.056.29.056.248 0 .402-.114.156-.117.156-.29 0-.136-.085-.22-.082-.087-.215-.132-.132-.045-.353-.095-.296-.07-.497-.161-.198-.094-.316-.253-.117-.162-.117-.4 0-.227.124-.403.124-.176.358-.27.234-.096.551-.096.253 0 .437.064.186.062.308.167.122.103.178.218.056.114.056.223 0 .099-.071.18-.07.078-.175.078-.095 0-.146-.047-.049-.048-.107-.157-.075-.156-.18-.242-.105-.088-.337-.088-.216 0-.349.096-.131.093-.131.226 0 .083.045.143.045.06.124.103.078.043.159.068.08.024.266.07.233.055.42.12.19.066.32.16.134.094.207.238.075.143.075.35z"/></g><path d="M167.48 46.28a.643.612 0 0 0-.642.613.643.612 0 0 0 .643.612.643.612 0 0 0 .643-.612.643.612 0 0 0-.643-.612zm0 .12a.517.492 0 0 1 .518.493.517.492 0 0 1-.517.492.517.492 0 0 1-.517-.492.517.492 0 0 1 .517-.492z" style="stroke-width:.264879;paint-order:fill markers stroke" transform="translate(15.142 28.511)"/><path d="M156.416 40.477h-.046v.199c0 .026-.006.045-.018.058a.062.059 0 0 1-.048.018.06.058 0 0 1-.049-.02c-.011-.012-.017-.031-.017-.056v-.552l.295-.001a.63.63 0 0 1 .076.004.189.18 0 0 1 .111.049.18.172 0 0 1 .048.117.15.15 0 0 1-.041.11.237.237 0 0 1-.125.059.24.23 0 0 1 .067.052.54.54 0 0 1 .11.188.047.047 0 0 1-.007.024.055.052 0 0 1-.023.019.069.066 0 0 1-.033.007.063.06 0 0 1-.037-.01.1.096 0 0 1-.026-.025 1.253 1.193 0 0 1-.03-.045l-.052-.083a.471.449 0 0 0-.051-.07.124.118 0 0 0-.046-.033.156.149 0 0 0-.058-.01zm.076-.26h-.122v.17h.118a.348.348 0 0 0 .08-.008.093.093 0 0 0 .05-.026.08.076 0 0 0 .016-.052.083.079 0 0 0-.051-.075.301.301 0 0 0-.091-.01z" style="font-variant-ligatures:none" aria-label="R" transform="translate(15.142 28.511)"/><path d="M167.794 47.017q0 .03-.02.063-.017.034-.055.064t-.095.049q-.058.018-.13.018-.153 0-.24-.084-.086-.086-.086-.23 0-.096.04-.17.04-.074.114-.115.074-.04.178-.04.064 0 .118.017.053.018.09.046.038.029.057.06.02.033.02.06 0 .029-.022.048-.022.02-.053.02-.02 0-.035-.01-.013-.01-.03-.033-.03-.044-.064-.065-.032-.022-.083-.022-.074 0-.118.054-.045.055-.045.149 0 .044.011.082.012.037.034.063.021.026.052.04.031.013.068.013.05 0 .085-.022.036-.022.063-.067.015-.026.032-.04.018-.016.044-.016.03 0 .05.022.02.022.02.047z" style="font-variant-ligatures:none" aria-label="c" transform="translate(15.142 28.511)"/><path d="M156.509 39.827a.643.612 0 0 0-.643.61.643.612 0 0 0 .643.613.643.612 0 0 0 .642-.612.643.612 0 0 0-.642-.612zm0 .119a.517.492 0 0 1 .517.492.517.492 0 0 1-.517.492.517.492 0 0 1-.517-.492.517.492 0 0 1 .517-.492z" style="stroke-width:.264879;paint-order:fill markers stroke" transform="translate(15.142 28.511)"/></g><text xml:space="preserve" style="font-style:italic;font-variant:normal;font-weight:700;font-stretch:normal;font-size:20.9351px;line-height:1.25;font-family:Roboto;-inkscape-font-specification:'Roboto, Bold Italic';font-variant-ligatures:normal;font-variant-caps:normal;font-variant-numeric:normal;font-variant-east-asian:normal;fill:#85a21d;fill-opacity:1;stroke:none;stroke-width:.264585" x="-3.331" y="107.57"><tspan x="-3.331" y="107.57" style="font-style:italic;font-variant:normal;font-weight:700;font-stretch:normal;font-size:20.9351px;font-family:Roboto;-inkscape-font-specification:'Roboto, Bold Italic';font-variant-ligatures:normal;font-variant-caps:normal;font-variant-numeric:normal;font-variant-east-asian:normal;fill:#85a21d;fill-opacity:1;stroke-width:.264585">320pixel height</tspan></text><text xml:space="preserve" style="font-style:italic;font-variant:normal;font-weight:700;font-stretch:normal;font-size:8.92346px;line-height:1;font-family:Roboto;-inkscape-font-specification:'Roboto, Bold Italic';font-variant-ligatures:normal;font-variant-caps:normal;font-variant-numeric:normal;font-variant-east-asian:normal;white-space:pre;inline-size:141.059;display:inline;fill:#4f9223;fill-opacity:1;stroke:none;stroke-width:.264585" x="-1.698" y="170.536" transform="translate(0 -49.46)"><tspan x="-1.698" y="170.536">This is dimension is flexible and </tspan><tspan x="-1.698" y="179.46">can change as needed</tspan></text><g><path style="opacity:.675944;fill:#c7ff00;stroke-width:2;stroke-linecap:square" d="M6.328 154.15h2.646v2.646H6.328z" transform="rotate(180 95.768 75.752)"/><path style="opacity:.675944;fill:#f9ff67;fill-opacity:1;stroke-width:2;stroke-linecap:square" d="M8.974 154.15h2.646v2.646H8.974z" transform="rotate(180 95.768 75.752)"/><path style="opacity:.675944;fill:#c7ff00;stroke-width:2;stroke-linecap:square" d="M11.62 154.15h2.646v2.646H11.62z" transform="rotate(180 95.768 75.752)"/><path style="opacity:.675944;fill:#f9ff67;fill-opacity:1;stroke-width:2;stroke-linecap:square" d="M14.265 154.15h2.646v2.646h-2.646z" transform="rotate(180 95.768 75.752)"/><path style="opacity:.675944;fill:#c7ff00;stroke-width:2;stroke-linecap:square" d="M16.911 154.15h2.646v2.646h-2.646z" transform="rotate(180 95.768 75.752)"/><path style="opacity:.675944;fill:#f9ff67;fill-opacity:1;stroke-width:2;stroke-linecap:square" d="M19.557 154.15h2.646v2.646h-2.646z" transform="rotate(180 95.768 75.752)"/><path style="opacity:.675944;fill:#c7ff00;stroke-width:2;stroke-linecap:square" d="M22.203 154.15h2.646v2.646h-2.646z" transform="rotate(180 95.768 75.752)"/><path style="opacity:.675944;fill:#f9ff67;fill-opacity:1;stroke-width:2;stroke-linecap:square" d="M24.849 154.15h2.646v2.646h-2.646z" transform="rotate(180 95.768 75.752)"/><path style="opacity:.675944;fill:#c7ff00;stroke-width:2;stroke-linecap:square" d="M27.495 154.15h2.646v2.646h-2.646z" transform="rotate(180 95.768 75.752)"/><path style="opacity:.675944;fill:#f9ff67;fill-opacity:1;stroke-width:2;stroke-linecap:square" d="M30.14 154.15h2.646v2.646H30.14z" transform="rotate(180 95.768 75.752)"/><g><path style="opacity:.675944;fill:#c7ff00;stroke-width:2;stroke-linecap:square" d="M6.328 154.15h2.646v2.646H6.328z" transform="rotate(180 120.904 75.752)"/><path style="opacity:.675944;fill:#f9ff67;fill-opacity:1;stroke-width:2;stroke-linecap:square" d="M8.974 154.15h2.646v2.646H8.974zM3.682 154.15h2.646v2.646H3.682z" transform="rotate(180 120.904 75.752)"/><path style="opacity:.675944;fill:#c7ff00;stroke-width:2;stroke-linecap:square" d="M11.62 154.15h2.646v2.646H11.62z" transform="rotate(180 120.904 75.752)"/><path style="opacity:.675944;fill:#f9ff67;fill-opacity:1;stroke-width:2;stroke-linecap:square" d="M14.265 154.15h2.646v2.646h-2.646z" transform="rotate(180 120.904 75.752)"/><path style="opacity:.675944;fill:#c7ff00;stroke-width:2;stroke-linecap:square" d="M16.911 154.15h2.646v2.646h-2.646z" transform="rotate(180 120.904 75.752)"/><path style="opacity:.675944;fill:#f9ff67;fill-opacity:1;stroke-width:2;stroke-linecap:square" d="M19.557 154.15h2.646v2.646h-2.646z" transform="rotate(180 120.904 75.752)"/><path style="opacity:.675944;fill:#c7ff00;stroke-width:2;stroke-linecap:square" d="M22.203 154.15h2.646v2.646h-2.646z" transform="rotate(180 120.904 75.752)"/><path style="opacity:.675944;fill:#f9ff67;fill-opacity:1;stroke-width:2;stroke-linecap:square" d="M24.849 154.15h2.646v2.646h-2.646z" transform="rotate(180 120.904 75.752)"/><path style="opacity:.675944;fill:#c7ff00;stroke-width:2;stroke-linecap:square" d="M27.495 154.15h2.646v2.646h-2.646z" transform="rotate(180 120.904 75.752)"/><path style="opacity:.675944;fill:#f9ff67;fill-opacity:1;stroke-width:2;stroke-linecap:square" d="M30.14 154.15h2.646v2.646H30.14z" transform="rotate(180 120.904 75.752)"/></g><g><path style="opacity:.675944;fill:#ff9000;fill-opacity:1;stroke-width:2;stroke-linecap:square" d="M6.328 154.15h2.646v2.646H6.328z" transform="rotate(180 82.539 75.752)"/><path style="opacity:.675944;fill:#ffcd67;fill-opacity:1;stroke-width:2;stroke-linecap:square" d="M8.974 154.15h2.646v2.646H8.974z" transform="rotate(180 82.539 75.752)"/><path style="opacity:.675944;fill:#ff9000;fill-opacity:1;stroke-width:2;stroke-linecap:square" d="M11.62 154.15h2.646v2.646H11.62z" transform="rotate(180 82.539 75.752)"/><path style="opacity:.675944;fill:#ffcd67;fill-opacity:1;stroke-width:2;stroke-linecap:square" d="M14.265 154.15h2.646v2.646h-2.646z" transform="rotate(180 82.539 75.752)"/><path style="opacity:.675944;fill:#ff9000;fill-opacity:1;stroke-width:2;stroke-linecap:square" d="M16.911 154.15h2.646v2.646h-2.646z" transform="rotate(180 82.539 75.752)"/><path style="opacity:.675944;fill:#ffcd67;fill-opacity:1;stroke-width:2;stroke-linecap:square" d="M19.557 154.15h2.646v2.646h-2.646z" transform="rotate(180 82.539 75.752)"/><path style="opacity:.675944;fill:#ff9000;fill-opacity:1;stroke-width:2;stroke-linecap:square" d="M22.203 154.15h2.646v2.646h-2.646z" transform="rotate(180 82.539 75.752)"/><path style="opacity:.675944;fill:#ffcd67;fill-opacity:1;stroke-width:2;stroke-linecap:square" d="M24.849 154.15h2.646v2.646h-2.646z" transform="rotate(180 82.539 75.752)"/><path style="opacity:.675944;fill:#ff9000;fill-opacity:1;stroke-width:2;stroke-linecap:square" d="M27.495 154.15h2.646v2.646h-2.646z" transform="rotate(180 82.539 75.752)"/><path style="opacity:.675944;fill:#ffcd67;fill-opacity:1;stroke-width:2;stroke-linecap:square" d="M30.14 154.15h2.646v2.646H30.14z" transform="rotate(180 82.539 75.752)"/></g><g><path style="opacity:.675944;fill:#ff9000;fill-opacity:1;stroke-width:2;stroke-linecap:square" d="M6.328 154.15h2.646v2.646H6.328z" transform="rotate(180 108.997 75.752)"/><path style="opacity:.675944;fill:#ffcd67;fill-opacity:1;stroke-width:2;stroke-linecap:square" d="M8.974 154.15h2.646v2.646H8.974z" transform="rotate(180 108.997 75.752)"/><path style="opacity:.675944;fill:#ff9000;fill-opacity:1;stroke-width:2;stroke-linecap:square" d="M11.62 154.15h2.646v2.646H11.62z" transform="rotate(180 108.997 75.752)"/><path style="opacity:.675944;fill:#ffcd67;fill-opacity:1;stroke-width:2;stroke-linecap:square" d="M14.265 154.15h2.646v2.646h-2.646z" transform="rotate(180 108.997 75.752)"/><path style="opacity:.675944;fill:#ff9000;fill-opacity:1;stroke-width:2;stroke-linecap:square" d="M16.911 154.15h2.646v2.646h-2.646z" transform="rotate(180 108.997 75.752)"/><path style="opacity:.675944;fill:#ffcd67;fill-opacity:1;stroke-width:2;stroke-linecap:square" d="M19.557 154.15h2.646v2.646h-2.646z" transform="rotate(180 108.997 75.752)"/><path style="opacity:.675944;fill:#ff9000;fill-opacity:1;stroke-width:2;stroke-linecap:square" d="M22.203 154.15h2.646v2.646h-2.646z" transform="rotate(180 108.997 75.752)"/><path style="opacity:.675944;fill:#ffcd67;fill-opacity:1;stroke-width:2;stroke-linecap:square" d="M24.849 154.15h2.646v2.646h-2.646z" transform="rotate(180 108.997 75.752)"/><path style="opacity:.675944;fill:#ff9000;fill-opacity:1;stroke-width:2;stroke-linecap:square" d="M27.495 154.15h2.646v2.646h-2.646z" transform="rotate(180 108.997 75.752)"/><path style="opacity:.675944;fill:#ffcd67;fill-opacity:1;stroke-width:2;stroke-linecap:square" d="M30.14 154.15h2.646v2.646H30.14z" transform="rotate(180 108.997 75.752)"/></g><g><path style="opacity:.675944;fill:#c7ff00;stroke-width:2;stroke-linecap:square" d="M6.328 154.15h2.646v2.646H6.328z" transform="rotate(180 69.31 75.752)"/><path style="opacity:.675944;fill:#f9ff67;fill-opacity:1;stroke-width:2;stroke-linecap:square" d="M8.974 154.15h2.646v2.646H8.974z" transform="rotate(180 69.31 75.752)"/><path style="opacity:.675944;fill:#c7ff00;stroke-width:2;stroke-linecap:square" d="M11.62 154.15h2.646v2.646H11.62z" transform="rotate(180 69.31 75.752)"/><path style="opacity:.675944;fill:#f9ff67;fill-opacity:1;stroke-width:2;stroke-linecap:square" d="M14.265 154.15h2.646v2.646h-2.646z" transform="rotate(180 69.31 75.752)"/><path style="opacity:.675944;fill:#c7ff00;stroke-width:2;stroke-linecap:square" d="M16.911 154.15h2.646v2.646h-2.646z" transform="rotate(180 69.31 75.752)"/><path style="opacity:.675944;fill:#f9ff67;fill-opacity:1;stroke-width:2;stroke-linecap:square" d="M19.557 154.15h2.646v2.646h-2.646z" transform="rotate(180 69.31 75.752)"/><path style="opacity:.675944;fill:#c7ff00;stroke-width:2;stroke-linecap:square" d="M22.203 154.15h2.646v2.646h-2.646z" transform="rotate(180 69.31 75.752)"/><path style="opacity:.675944;fill:#f9ff67;fill-opacity:1;stroke-width:2;stroke-linecap:square" d="M24.849 154.15h2.646v2.646h-2.646z" transform="rotate(180 69.31 75.752)"/><path style="opacity:.675944;fill:#c7ff00;stroke-width:2;stroke-linecap:square" d="M27.495 154.15h2.646v2.646h-2.646z" transform="rotate(180 69.31 75.752)"/><path style="opacity:.675944;fill:#f9ff67;fill-opacity:1;stroke-width:2;stroke-linecap:square" d="M30.14 154.15h2.646v2.646H30.14z" transform="rotate(180 69.31 75.752)"/></g><g><path style="opacity:.675944;fill:#ff9000;fill-opacity:1;stroke-width:2;stroke-linecap:square" d="M6.328 154.15h2.646v2.646H6.328z" transform="rotate(180 56.08 75.752)"/><path style="opacity:.675944;fill:#ffcd67;fill-opacity:1;stroke-width:2;stroke-linecap:square" d="M8.974 154.15h2.646v2.646H8.974z" transform="rotate(180 56.08 75.752)"/><path style="opacity:.675944;fill:#ff9000;fill-opacity:1;stroke-width:2;stroke-linecap:square" d="M11.62 154.15h2.646v2.646H11.62z" transform="rotate(180 56.08 75.752)"/><path style="opacity:.675944;fill:#ffcd67;fill-opacity:1;stroke-width:2;stroke-linecap:square" d="M14.265 154.15h2.646v2.646h-2.646z" transform="rotate(180 56.08 75.752)"/><path style="opacity:.675944;fill:#ff9000;fill-opacity:1;stroke-width:2;stroke-linecap:square" d="M16.911 154.15h2.646v2.646h-2.646z" transform="rotate(180 56.08 75.752)"/><path style="opacity:.675944;fill:#ffcd67;fill-opacity:1;stroke-width:2;stroke-linecap:square" d="M19.557 154.15h2.646v2.646h-2.646z" transform="rotate(180 56.08 75.752)"/><path style="opacity:.675944;fill:#ff9000;fill-opacity:1;stroke-width:2;stroke-linecap:square" d="M22.203 154.15h2.646v2.646h-2.646z" transform="rotate(180 56.08 75.752)"/><path style="opacity:.675944;fill:#ffcd67;fill-opacity:1;stroke-width:2;stroke-linecap:square" d="M24.849 154.15h2.646v2.646h-2.646z" transform="rotate(180 56.08 75.752)"/><path style="opacity:.675944;fill:#ff9000;fill-opacity:1;stroke-width:2;stroke-linecap:square" d="M27.495 154.15h2.646v2.646h-2.646z" transform="rotate(180 56.08 75.752)"/><path style="opacity:.675944;fill:#ffcd67;fill-opacity:1;stroke-width:2;stroke-linecap:square" d="M30.14 154.15h2.646v2.646H30.14z" transform="rotate(180 56.08 75.752)"/></g><g><path style="opacity:.675944;fill:#c7ff00;stroke-width:2;stroke-linecap:square" d="M6.328 154.15h2.646v2.646H6.328z" transform="rotate(180 42.851 75.752)"/><path style="opacity:.675944;fill:#f9ff67;fill-opacity:1;stroke-width:2;stroke-linecap:square" d="M8.974 154.15h2.646v2.646H8.974z" transform="rotate(180 42.851 75.752)"/><path style="opacity:.675944;fill:#c7ff00;stroke-width:2;stroke-linecap:square" d="M11.62 154.15h2.646v2.646H11.62z" transform="rotate(180 42.851 75.752)"/><path style="opacity:.675944;fill:#f9ff67;fill-opacity:1;stroke-width:2;stroke-linecap:square" d="M14.265 154.15h2.646v2.646h-2.646z" transform="rotate(180 42.851 75.752)"/><path style="opacity:.675944;fill:#c7ff00;stroke-width:2;stroke-linecap:square" d="M16.911 154.15h2.646v2.646h-2.646z" transform="rotate(180 42.851 75.752)"/><path style="opacity:.675944;fill:#f9ff67;fill-opacity:1;stroke-width:2;stroke-linecap:square" d="M19.557 154.15h2.646v2.646h-2.646z" transform="rotate(180 42.851 75.752)"/><path style="opacity:.675944;fill:#c7ff00;stroke-width:2;stroke-linecap:square" d="M22.203 154.15h2.646v2.646h-2.646z" transform="rotate(180 42.851 75.752)"/><path style="opacity:.675944;fill:#f9ff67;fill-opacity:1;stroke-width:2;stroke-linecap:square" d="M24.849 154.15h2.646v2.646h-2.646z" transform="rotate(180 42.851 75.752)"/><path style="opacity:.675944;fill:#c7ff00;stroke-width:2;stroke-linecap:square" d="M27.495 154.15h2.646v2.646h-2.646z" transform="rotate(180 42.851 75.752)"/><path style="opacity:.675944;fill:#f9ff67;fill-opacity:1;stroke-width:2;stroke-linecap:square" d="M30.14 154.15h2.646v2.646H30.14z" transform="rotate(180 42.851 75.752)"/></g><g><path style="opacity:.675944;fill:#ff9000;fill-opacity:1;stroke-width:2;stroke-linecap:square" d="M6.328 154.15h2.646v2.646H6.328z" transform="rotate(180 29.622 75.752)"/><path style="opacity:.675944;fill:#ffcd67;fill-opacity:1;stroke-width:2;stroke-linecap:square" d="M8.974 154.15h2.646v2.646H8.974z" transform="rotate(180 29.622 75.752)"/><path style="opacity:.675944;fill:#ff9000;fill-opacity:1;stroke-width:2;stroke-linecap:square" d="M11.62 154.15h2.646v2.646H11.62z" transform="rotate(180 29.622 75.752)"/><path style="opacity:.675944;fill:#ffcd67;fill-opacity:1;stroke-width:2;stroke-linecap:square" d="M14.265 154.15h2.646v2.646h-2.646z" transform="rotate(180 29.622 75.752)"/><path style="opacity:.675944;fill:#ff9000;fill-opacity:1;stroke-width:2;stroke-linecap:square" d="M16.911 154.15h2.646v2.646h-2.646z" transform="rotate(180 29.622 75.752)"/><path style="opacity:.675944;fill:#ffcd67;fill-opacity:1;stroke-width:2;stroke-linecap:square" d="M19.557 154.15h2.646v2.646h-2.646z" transform="rotate(180 29.622 75.752)"/><path style="opacity:.675944;fill:#ff9000;fill-opacity:1;stroke-width:2;stroke-linecap:square" d="M22.203 154.15h2.646v2.646h-2.646z" transform="rotate(180 29.622 75.752)"/><path style="opacity:.675944;fill:#ffcd67;fill-opacity:1;stroke-width:2;stroke-linecap:square" d="M24.849 154.15h2.646v2.646h-2.646z" transform="rotate(180 29.622 75.752)"/><path style="opacity:.675944;fill:#ff9000;fill-opacity:1;stroke-width:2;stroke-linecap:square" d="M27.495 154.15h2.646v2.646h-2.646z" transform="rotate(180 29.622 75.752)"/><path style="opacity:.675944;fill:#ffcd67;fill-opacity:1;stroke-width:2;stroke-linecap:square" d="M30.14 154.15h2.646v2.646H30.14z" transform="rotate(180 29.622 75.752)"/></g><g><path style="opacity:.675944;fill:#c7ff00;stroke-width:2;stroke-linecap:square" d="M6.328 154.15h2.646v2.646H6.328z" transform="rotate(180 16.393 75.752)"/><path style="opacity:.675944;fill:#f9ff67;fill-opacity:1;stroke-width:2;stroke-linecap:square" d="M8.974 154.15h2.646v2.646H8.974z" transform="rotate(180 16.393 75.752)"/><path style="opacity:.675944;fill:#c7ff00;stroke-width:2;stroke-linecap:square" d="M11.62 154.15h2.646v2.646H11.62z" transform="rotate(180 16.393 75.752)"/><path style="opacity:.675944;fill:#f9ff67;fill-opacity:1;stroke-width:2;stroke-linecap:square" d="M14.265 154.15h2.646v2.646h-2.646z" transform="rotate(180 16.393 75.752)"/><path style="opacity:.675944;fill:#c7ff00;stroke-width:2;stroke-linecap:square" d="M16.911 154.15h2.646v2.646h-2.646z" transform="rotate(180 16.393 75.752)"/><path style="opacity:.675944;fill:#f9ff67;fill-opacity:1;stroke-width:2;stroke-linecap:square" d="M19.557 154.15h2.646v2.646h-2.646z" transform="rotate(180 16.393 75.752)"/><path style="opacity:.675944;fill:#c7ff00;stroke-width:2;stroke-linecap:square" d="M22.203 154.15h2.646v2.646h-2.646z" transform="rotate(180 16.393 75.752)"/><path style="opacity:.675944;fill:#f9ff67;fill-opacity:1;stroke-width:2;stroke-linecap:square" d="M24.849 154.15h2.646v2.646h-2.646z" transform="rotate(180 16.393 75.752)"/><path style="opacity:.675944;fill:#c7ff00;stroke-width:2;stroke-linecap:square" d="M27.495 154.15h2.646v2.646h-2.646z" transform="rotate(180 16.393 75.752)"/><path style="opacity:.675944;fill:#f9ff67;fill-opacity:1;stroke-width:2;stroke-linecap:square" d="M30.14 154.15h2.646v2.646H30.14z" transform="rotate(180 16.393 75.752)"/></g></g><text xml:space="preserve" style="font-style:italic;font-weight:700;font-size:20.9351px;line-height:1.25;font-family:Roboto;fill:#85a21d;fill-opacity:1;stroke:none;stroke-width:.264585;-inkscape-font-specification:'Roboto, Bold Italic';font-stretch:normal;font-variant:normal;font-variant-ligatures:normal;font-variant-caps:normal;font-variant-numeric:normal;font-variant-east-asian:normal" x="3.858" y="-23.443"><tspan x="3.858" y="-23.443" style="font-style:italic;font-variant:normal;font-weight:700;font-stretch:normal;font-family:Roboto;-inkscape-font-specification:'Roboto, Bold Italic';fill:#85a21d;fill-opacity:1;stroke-width:.264585;font-size:20.93510102px;font-variant-ligatures:normal;font-variant-caps:normal;font-variant-numeric:normal;font-variant-east-asian:normal">900pixel width (desktop)</tspan></text><text xml:space="preserve" style="font-style:italic;font-weight:700;font-size:8.92348px;line-height:1.25;font-family:Roboto;fill:#4f9223;fill-opacity:1;stroke:none;stroke-width:.264586;-inkscape-font-specification:'Roboto, Bold Italic';font-stretch:normal;font-variant:normal;font-variant-ligatures:normal;font-variant-caps:normal;font-variant-numeric:normal;font-variant-east-asian:normal" x="4.664" y="-9.423"><tspan x="4.664" y="-9.423" style="font-style:italic;font-variant:normal;font-weight:700;font-stretch:normal;font-family:Roboto;-inkscape-font-specification:'Roboto, Bold Italic';fill:#4f9223;fill-opacity:1;stroke-width:.264586;font-size:8.92348001px;font-variant-ligatures:normal;font-variant-caps:normal;font-variant-numeric:normal;font-variant-east-asian:normal">This is the standard desktop width and it does not change</tspan></text><text xml:space="preserve" style="font-style:normal;font-variant:normal;font-weight:400;font-stretch:normal;font-size:4.93889px;line-height:1.25;font-family:Roboto;-inkscape-font-specification:'Roboto, Normal';font-variant-ligatures:normal;font-variant-caps:normal;font-variant-numeric:normal;font-variant-east-asian:normal;white-space:pre;inline-size:52.7643;display:inline;fill:#000;fill-opacity:1;stroke:none;stroke-width:.264583" x="196.1" y="122.86" transform="translate(-8.157 -52.416)"><tspan x="196.1" y="122.86">urbancruiseship.org   
</tspan><tspan x="196.1" y="129.034">Exhibit constructed by
</tspan><tspan x="196.1" y="135.207">Lee Nelson 1-18-2023</tspan></text><text x="7.539" y="-64.773" font-family="Calibri" font-size="8.292" font-weight="bold" stroke-width=".265" style="font-size:8.46668px;line-height:1.25" xml:space="preserve"><tspan x="7.539" y="-64.773" style="font-style:normal;font-variant:normal;font-weight:700;font-stretch:normal;font-size:8.46668px;font-family:'Arial Rounded MT Bold';-inkscape-font-specification:'Arial Rounded MT Bold, Bold';stroke-width:.265">Alternative Font</tspan></text><text x="6.507" y="-55.151" font-family="Calibri" font-size="8.292" font-weight="bold" stroke-width=".265" style="font-size:8.46668px;line-height:1.25" xml:space="preserve"><tspan x="6.507" y="-55.151" style="font-style:normal;font-variant:normal;font-weight:700;font-stretch:normal;font-size:8.46668px;font-family:'Arial Rounded MT Bold';-inkscape-font-specification:'Arial Rounded MT Bold, Bold';stroke-width:.265">5% Methanol Fuel Blending - US</tspan></text><text x="63.723" y="7.6" font-family="Calibri" font-size="10.583" font-weight="bold" stroke-width=".265" style="font-style:normal;font-variant:normal;font-weight:700;font-stretch:normal;font-size:7.90815px;line-height:1.25;font-family:Roboto;-inkscape-font-specification:'Roboto, Bold';font-variant-ligatures:normal;font-variant-caps:normal;font-variant-numeric:normal;font-variant-east-asian:normal;fill:#000;stroke-width:.265" xml:space="preserve"><tspan x="63.723" y="7.6" style="font-style:normal;font-variant:normal;font-weight:700;font-stretch:normal;font-size:7.90815px;font-family:Roboto;-inkscape-font-specification:'Roboto, Bold';font-variant-ligatures:normal;font-variant-caps:normal;font-variant-numeric:normal;font-variant-east-asian:normal;fill:#000;stroke-width:.265">Meat Tax - Benefits Breakdown</tspan></text><text x="62.66" y="-88.174" font-family="Calibri" font-size="10.583" font-weight="bold" stroke-width=".265" style="font-style:normal;font-variant:normal;font-weight:700;font-stretch:normal;font-size:7.90815px;line-height:1.25;font-family:Roboto;-inkscape-font-specification:'Roboto, Bold';font-variant-ligatures:normal;font-variant-caps:normal;font-variant-numeric:normal;font-variant-east-asian:normal;fill:#f0f;stroke-width:.265" xml:space="preserve"><tspan x="62.66" y="-88.174" style="font-style:normal;font-variant:normal;font-weight:700;font-stretch:normal;font-size:7.90815px;font-family:Roboto;-inkscape-font-specification:'Roboto, Bold';font-variant-ligatures:normal;font-variant-caps:normal;font-variant-numeric:normal;font-variant-east-asian:normal;fill:#f0f;stroke-width:.265">bar graph spacers</tspan></text><path style="fill:#e6e6e6;fill-opacity:1;stroke:none;stroke-width:.352779;stroke-linecap:square;stroke-dasharray:none;stroke-opacity:1" d="M12.837-98.781h181.979v3.413H12.837zM12.837-84.299h154.26v3.413H12.837z"/><path style="opacity:.675944;fill:#f0f;fill-opacity:1;stroke-width:1.99999;stroke-linecap:square" transform="rotate(-90)" d="M80.886 9.424h3.413v3.413h-3.413zM95.368 9.424h3.413v3.413h-3.413zM80.886 167.096h3.413v3.413h-3.413zM95.368 194.816h3.413v3.413h-3.413z"/><text xml:space="preserve" style="font-style:normal;font-variant:normal;font-weight:700;font-stretch:normal;font-size:4.40973px;line-height:1.25;font-family:Roboto;-inkscape-font-specification:'Roboto, Bold';font-variant-ligatures:normal;font-variant-caps:normal;font-variant-numeric:normal;font-variant-east-asian:normal;fill:#000;fill-opacity:1;stroke-width:.264582" x="150.848" y="50.089"><tspan style="font-style:normal;font-variant:normal;font-weight:700;font-stretch:normal;font-size:4.40973px;font-family:Roboto;-inkscape-font-specification:'Roboto, Bold';font-variant-ligatures:normal;font-variant-caps:normal;font-variant-numeric:normal;font-variant-east-asian:normal;fill:#000;fill-opacity:1;stroke-width:.264582" x="150.848" y="50.089">$7 Billion USD anually</tspan></text><text xml:space="preserve" style="font-style:normal;font-variant:normal;font-weight:700;font-stretch:normal;font-size:5.64445px;line-height:1.25;font-family:Roboto;-inkscape-font-specification:'Roboto, Bold';font-variant-ligatures:normal;font-variant-caps:normal;font-variant-numeric:normal;font-variant-east-asian:normal;fill:#000;fill-opacity:1;stroke-width:.264582" x="1.616" y="50.406"><tspan style="font-style:normal;font-variant:normal;font-weight:700;font-stretch:normal;font-size:5.64445px;font-family:Roboto;-inkscape-font-specification:'Roboto, Bold';font-variant-ligatures:normal;font-variant-caps:normal;font-variant-numeric:normal;font-variant-east-asian:normal;fill:#000;fill-opacity:1;stroke-width:.264582" x="1.616" y="50.406">Healthcare Savings</tspan></text><path style="fill:#000;fill-opacity:1;stroke:none;stroke-width:.352779;stroke-linecap:square;stroke-dasharray:none;stroke-opacity:1" d="M53.971 46.817h93.464v3.413H53.971z"/><text xml:space="preserve" style="font-style:normal;font-variant:normal;font-weight:700;font-stretch:normal;font-size:5.57389px;line-height:1.25;font-family:Roboto;-inkscape-font-specification:'Roboto, Bold';font-variant-ligatures:normal;font-variant-caps:normal;font-variant-numeric:normal;font-variant-east-asian:normal;text-align:center;text-anchor:middle;white-space:pre;inline-size:36.0271;display:inline;fill:#000;fill-opacity:1;stroke:none;stroke-width:.485213" x="22.371" y="55.411" transform="matrix(.5453 0 0 .5453 10.806 6.86)"><tspan x="22.371" y="55.411">2</tspan></text></svg>