<svg width="900" height="300" viewBox="0 0 238.125 79.375" xml:space="preserve" xmlns="http://www.w3.org/2000/svg"><path style="stroke-width:.585498;stroke-linecap:square" d="M27.562 15.446h192.821v2.646H27.563z"/><path style="stroke-width:.638712;stroke-linecap:square" d="M27.563 25.5H153.52v2.645H27.563z"/><g aria-label="$1,274" style="font-weight:700;font-size:4.40973px;line-height:1.25;font-family:Roboto;-inkscape-font-specification:'Roboto, Bold';stroke-width:.264582"><path d="M225.06 17.267q0-.176-.098-.28-.097-.105-.332-.194-.234-.088-.404-.174-.17-.088-.293-.2-.12-.114-.19-.267-.066-.153-.066-.364 0-.364.232-.597.233-.232.618-.27v-.462h.345v.468q.38.053.596.318.215.263.215.683h-.622q0-.259-.108-.386-.105-.129-.284-.129-.176 0-.273.101-.097.1-.097.276 0 .164.094.263.095.099.351.202.259.104.425.196.165.09.28.207.114.114.174.262.06.147.06.343 0 .366-.228.594-.228.228-.629.27v.428h-.342v-.427q-.441-.047-.685-.312-.24-.267-.24-.708h.621q0 .256.12.394.124.135.352.135.19 0 .3-.099.109-.1.109-.27zM227.615 18.092h-.623v-2.399l-.742.23v-.505l1.298-.466h.067zM228.82 18.878l-.325-.17.078-.14q.144-.263.148-.524v-.482h.526l-.002.43q-.002.24-.12.483-.12.243-.304.403zM231.859 18.092h-2.15v-.427l1.015-1.08q.209-.229.308-.399.1-.17.1-.323 0-.209-.105-.327-.105-.12-.301-.12-.211 0-.334.146-.12.144-.12.38h-.625q0-.285.136-.522.138-.237.387-.37.25-.136.567-.136.484 0 .751.232.27.233.27.657 0 .233-.121.474-.12.24-.414.562l-.712.751h1.348zM234.371 15.306l-1.212 2.786h-.657l1.215-2.631h-1.56v-.504h2.214zM236.61 16.912h.356v.502h-.355v.678h-.623v-.678h-1.285l-.028-.392 1.307-2.065h.629zm-1.315 0h.693v-1.107l-.04.071z"/></g><g aria-label="$835 Billion USD annually" style="font-weight:700;font-size:4.40973px;line-height:1.25;font-family:Roboto;-inkscape-font-specification:'Roboto, Bold';stroke-width:.264582"><path d="M158.198 27.321q0-.176-.099-.28-.097-.105-.331-.193-.235-.089-.405-.175-.17-.088-.293-.2-.12-.114-.19-.267-.066-.153-.066-.364 0-.364.232-.596.233-.233.618-.272v-.46h.345v.467q.38.054.596.318.216.263.216.683h-.623q0-.258-.107-.385-.106-.13-.285-.13-.176 0-.273.102-.097.099-.097.275 0 .164.095.263.094.099.35.202.26.104.425.196.166.09.28.207.114.114.174.263.06.146.06.342 0 .366-.228.594-.228.229-.629.27v.428h-.342v-.426q-.441-.048-.685-.313-.24-.267-.24-.708h.622q0 .256.12.394.123.136.351.136.19 0 .3-.1.11-.1.11-.27zM161.284 25.844q0 .228-.114.405-.114.177-.315.282.229.11.362.304.134.191.134.452 0 .418-.285.66-.284.242-.773.242-.488 0-.775-.243-.286-.244-.286-.66 0-.26.133-.453.134-.194.36-.302-.2-.105-.315-.282-.111-.177-.111-.405 0-.4.267-.637.267-.24.725-.24.457 0 .724.238.269.234.269.64zm-.558 1.398q0-.205-.118-.328-.119-.122-.319-.122-.198 0-.317.122-.118.121-.118.328 0 .2.116.323.117.122.323.122.203 0 .317-.118.116-.118.116-.327zm-.065-1.368q0-.183-.096-.292-.097-.112-.274-.112-.174 0-.271.107-.097.108-.097.297 0 .188.097.302.097.114.273.114.177 0 .272-.114.096-.114.096-.302zM162.403 26.303h.332q.237 0 .351-.119.114-.118.114-.314 0-.19-.114-.295-.112-.105-.31-.105-.179 0-.3.099-.12.097-.12.254h-.622q0-.246.131-.44.134-.195.37-.305.24-.11.526-.11.497 0 .78.239.281.237.281.654 0 .216-.131.397-.131.18-.344.277.264.095.394.285.13.19.13.448 0 .417-.305.67-.303.251-.805.251-.47 0-.769-.248-.297-.247-.297-.654h.622q0 .176.132.288.133.112.327.112.222 0 .347-.116.127-.118.127-.312 0-.47-.517-.47h-.33zM164.393 26.604l.18-1.593h1.758v.519h-1.247l-.077.674q.221-.119.471-.119.448 0 .702.278.254.278.254.777 0 .304-.129.545-.127.24-.366.373-.239.131-.564.131-.284 0-.528-.114-.243-.116-.385-.325-.14-.209-.149-.476h.616q.02.196.136.306.118.107.308.107.21 0 .325-.15.114-.153.114-.431 0-.267-.131-.41-.132-.141-.373-.141-.222 0-.36.116l-.06.056zM167.995 28.146v-3.135h1.098q.571 0 .866.22.295.217.295.64 0 .23-.118.406-.119.174-.33.256.241.06.379.244.14.183.14.447 0 .453-.289.685-.288.233-.822.237zm.646-1.365v.846h.554q.228 0 .355-.108.129-.11.129-.301 0-.43-.446-.437zm0-.457h.478q.489-.008.489-.39 0-.212-.125-.305-.123-.095-.39-.095h-.452zM171.425 28.146h-.624v-2.33h.624zm-.66-2.933q0-.14.092-.23.095-.09.256-.09.16 0 .254.09.095.09.095.23 0 .142-.097.233-.095.09-.252.09t-.254-.09q-.095-.09-.095-.233zM172.594 28.146h-.624v-3.307h.624zM173.764 28.146h-.625v-3.307h.625zM174.933 28.146h-.625v-2.33h.625zm-.661-2.933q0-.14.092-.23.095-.09.257-.09.159 0 .254.09.094.09.094.23 0 .142-.097.233-.094.09-.251.09-.158 0-.255-.09-.094-.09-.094-.233zM175.348 26.96q0-.347.134-.618.133-.272.383-.42.252-.149.584-.149.471 0 .768.289.3.288.334.783l.004.16q0 .536-.3.861-.298.323-.802.323t-.806-.323q-.299-.323-.299-.878zm.623.045q0 .331.125.508.124.174.357.174.226 0 .353-.172.127-.174.127-.555 0-.326-.127-.504-.127-.179-.357-.179-.229 0-.353.179-.125.176-.125.549zM178.511 25.816l.02.27q.25-.313.67-.313.37 0 .55.218.182.217.186.65v1.505h-.622v-1.49q0-.198-.087-.286-.086-.09-.286-.09-.263 0-.394.223v1.643h-.622v-2.33zM183.92 25.011v2.065q0 .514-.323.814-.32.3-.878.3-.55 0-.872-.292-.323-.29-.33-.798V25.01h.646v2.07q0 .307.147.45.148.14.409.14.545 0 .553-.574v-2.086zM186.076 27.323q0-.183-.13-.28-.129-.098-.465-.206-.336-.11-.532-.215-.534-.289-.534-.778 0-.254.143-.452.144-.2.41-.312.27-.112.604-.112.336 0 .598.123.263.12.407.342.147.222.147.504h-.646q0-.215-.136-.334-.136-.12-.381-.12-.237 0-.368.1-.132.1-.132.263 0 .153.153.257.155.103.455.193.55.166.803.412.252.245.252.611 0 .407-.308.64-.308.23-.83.23-.36 0-.658-.131-.297-.134-.454-.364-.155-.23-.155-.534h.648q0 .519.62.519.23 0 .36-.093.129-.095.129-.263zM187.16 28.146v-3.135h.965q.414 0 .739.187.327.185.51.53.183.342.183.78v.144q0 .437-.18.777t-.507.528q-.327.187-.738.189zm.647-2.612v2.093h.312q.379 0 .58-.248.2-.247.204-.708v-.166q0-.478-.198-.723-.198-.248-.58-.248zM192.434 28.146q-.043-.084-.062-.209-.227.252-.588.252-.343 0-.569-.198-.224-.198-.224-.5 0-.37.274-.568.275-.198.794-.2h.287v-.134q0-.161-.084-.258-.082-.097-.26-.097-.158 0-.248.075-.089.076-.089.207h-.622q0-.202.125-.375.125-.172.353-.269.228-.099.512-.099.431 0 .683.218.254.215.254.607v1.01q.002.331.093.501v.037zm-.515-.433q.138 0 .254-.06.117-.063.173-.166v-.4h-.233q-.467 0-.497.323l-.002.036q0 .116.082.192.081.075.223.075zM194.02 25.816l.02.27q.25-.313.67-.313.37 0 .551.218.181.217.185.65v1.505h-.622v-1.49q0-.198-.086-.286-.086-.09-.286-.09-.263 0-.395.223v1.643h-.622v-2.33zM196.49 25.816l.02.27q.25-.313.67-.313.37 0 .55.218.182.217.186.65v1.505h-.622v-1.49q0-.198-.086-.286-.086-.09-.287-.09-.262 0-.394.223v1.643h-.622v-2.33zM199.783 27.91q-.23.28-.638.28-.374 0-.572-.216-.196-.216-.2-.631v-1.527h.622v1.505q0 .364.331.364.317 0 .435-.22v-1.649h.625v2.33h-.586zM202.205 28.146q-.043-.084-.062-.209-.226.252-.588.252-.342 0-.569-.198-.223-.198-.223-.5 0-.37.273-.568.276-.198.794-.2h.287v-.134q0-.161-.084-.258-.082-.097-.26-.097-.158 0-.248.075-.089.076-.089.207h-.622q0-.202.125-.375.125-.172.353-.269.228-.099.513-.099.43 0 .682.218.254.215.254.607v1.01q.002.331.093.501v.037zm-.515-.433q.138 0 .255-.06.116-.063.172-.166v-.4h-.233q-.467 0-.497.323l-.002.036q0 .116.082.192.081.075.224.075zM203.876 28.146h-.624v-3.307h.624zM205.045 28.146h-.624v-3.307h.624zM206.428 27.265l.43-1.449h.668l-.937 2.692-.052.122q-.209.457-.689.457-.135 0-.275-.041v-.472l.094.003q.177 0 .263-.054.088-.054.138-.179l.073-.191-.816-2.337h.67z"/></g><path d="M136.364 59.674c-.263-.03-.106-.15.565-.44.37-.157.778-.342.91-.411.22-.115.285-.125.84-.133.478-.007.624-.024.717-.086.148-.1.308-.104.27-.01-.023.057.03.07.324.07.425 0 .66.04.64.107-.01.028-.196.137-.415.242-.218.105-.594.298-.835.428l-.438.237-1.222.005a36.207 36.207 0 0 1-1.356-.01zm1.25-.168c.015-.013-.183-.023-.437-.023-.27 0-.463.02-.463.045 0 .044.853.024.9-.022zm1.347.004c-.04-.036-.74-.055-.882-.024-.087.02.063.034.38.037.286.003.513-.003.502-.013zm-1.024-.167c.037-.057-.748-.053-.84.003-.05.03.07.043.37.04.244 0 .455-.02.47-.043zm1.327-.005c.033-.02-.177-.036-.467-.036-.37 0-.505.014-.455.046.082.052.833.044.922-.01zm-.948-.18c.054-.047-.156-.05-.61-.01-.176.016-.322.047-.322.068 0 .05.87-.005.932-.058zm1.27.006c.05-.03-.083-.044-.418-.045-.296 0-.49.018-.49.045 0 .06.813.06.91 0zm-.91-.18c0-.05-.79-.04-.843.01-.02.019.164.033.405.033.246 0 .44-.02.44-.043zm1.27-.002c.019-.03-.135-.046-.428-.046-.273 0-.458.02-.458.046 0 .027.175.045.43.045.234 0 .44-.02.456-.045zm-1.053-.137c.062-.025-.052-.038-.325-.036-.23 0-.43.02-.446.042-.032.05.644.046.77-.006zm1.04-.033a2.885 2.885 0 0 0-.406 0c-.112.01-.02.017.204.017.224 0 .315-.008.203-.017zm.157.83a2.707 2.707 0 0 0-.18-.042c-.167-.035-.166-.078.006-.174.108-.06.203-.07.448-.05.185.017.41.006.554-.027l.242-.055-.116-.163c-.144-.202-.15-.46-.016-.74l.097-.206-.108-.084a2.29 2.29 0 0 0-.86-.392c-.21-.05-.305-.09-.235-.096.112-.01.11-.01-.024-.04-.08-.017-.154-.018-.167-.003a.327.327 0 0 1-.108.058c-.142.05-.264.3-.3.615-.021.2-.046.278-.073.233-.055-.094.016-.555.106-.686a.492.492 0 0 0 .077-.148c0-.022.03-.06.066-.082.043-.03.028-.033-.047-.013-.176.048-.78-.023-.74-.085.018-.03-.02-.02-.085.02-.144.09-.253.38-.215.572.016.08.08.218.145.308l.117.164h-.145c-.128 0-.157-.027-.26-.24-.098-.207-.107-.268-.068-.463.057-.283.14-.405.383-.558.19-.12.203-.12 1.04-.12.752 0 .884.01 1.152.1.557.183.732.34 1.134 1.002.18.297.23.427.23.58 0 .265-.09.35-.51.478-.188.058-.375.14-.414.184-.115.124-.887.23-1.126.154zm1.422-.567c.123-.032.233-.08.245-.11.01-.028-.058-.168-.153-.31-.317-.476-.532-.458-.57.046-.022.29.09.552.2.47.03-.021.154-.064.278-.096zm-.397-1.05c-.244-.2-1-.51-1-.412 0 .02.072.05.16.066.213.038.71.275.82.392.049.05.098.08.11.07.014-.013-.027-.065-.09-.116zm11.324 1.423c-.037-.022-.052-.172-.045-.443.01-.448-.04-2.254-.087-3.054-.016-.276-.05-1.055-.077-1.732a78.32 78.32 0 0 0-.073-1.573 65.1 65.1 0 0 0-.188-2.096 6.683 6.683 0 0 1-.05-.365 28.153 28.153 0 0 0-.625-3.327c-.324-1.215-.81-2.02-1.398-2.313-.404-.202-.726-.263-1.353-.257-2.543-.003-5.61 1.392-6.31 2.79-.485.976.426 2.33 1.25 3.348.674.788.77.906.79.95.033.084.108.035.08-.05-.018-.054-.01-.092.02-.092.028 0 .05-.03.05-.07 0-.037-.041-.067-.095-.067-.052 0-.095-.02-.095-.046 0-.066.107-.056.222.02.055.038.114.055.13.039.053-.05.033-.187-.03-.21-.032-.014.014-.013.103.002.126.02.157.012.14-.038-.012-.035-.07-.07-.126-.078-.122-.017-.133-.066-.033-.144.092-.073.307-.023.346.08.017.043.07.128.12.188.05.063.075.146.06.194-.02.063-.004.084.067.084.053 0 .11.022.128.05.05.077.413-.003.567-.126.125-.1.145-.104.22-.04.122.106.152.033.037-.093-.09-.098-.11-.103-.18-.04-.09.076-.19.09-.19.02 0-.024.017-.044.04-.044.02 0 .064-.052.094-.114.03-.063.09-.114.13-.114.086 0 .358-.266.358-.35 0-.03-.043-.067-.096-.083-.053-.016-.096-.058-.096-.093 0-.047-.038-.057-.143-.037-.112.02-.144.01-.144-.045 0-.076-.18-.194-.228-.148-.015.014-.024.1-.02.187.003.106-.025.186-.083.233-.07.058-.08.104-.05.23.028.118.02.163-.03.182-.116.042-.212-.023-.212-.142 0-.085-.032-.123-.12-.144-.13-.03-.247-.2-.263-.383-.018-.19-.005-.215.146-.274.122-.048.285-.243.285-.34 0-.027-.216-.004-.437.047-.093.02-.18-.005-.328-.1-.167-.103-.272-.13-.597-.151-.238-.015-.428-.05-.478-.09-.073-.058-.104-.055-.25.02-.144.073-.174.076-.21.02-.08-.118-.05-.155.255-.32.846-.458 1.716-.685 2.62-.684.746 0 1.37.117 2.107.393.397.15 1.255.723 1.6 1.07.317.32.73.88.926 1.252.49.93.673 2.37.443 3.446-.223 1.04-.678 1.836-1.48 2.595a4.908 4.908 0 0 1-1.8 1.084c-.963.323-2.217.368-3.185.113-.328-.086-.958-.33-.958-.37 0-.018.043-.057.095-.088.08-.048.153-.035.46.082.202.076.377.13.388.118.012-.01 0-.058-.024-.104-.09-.165-.153-.414-.182-.703a10.796 10.796 0 0 0-.05-.43c-.044-.282-.03-.74.03-1.04.06-.3.058-.313-.048-.42a.61.61 0 0 0-.21-.14c-.17-.048-.315-.208-.315-.343 0-.07-.043-.23-.096-.36-.116-.278-.122-.488-.02-.596.1-.104.048-.195-.076-.132a.432.432 0 0 1-.157.046c-.08 0-.274-.152-.274-.215 0-.024-.053-.067-.117-.095-.105-.045-.112-.066-.072-.2.042-.14.032-.158-.183-.338-.153-.13-.232-.17-.242-.127-.03.124-.1.06-.25-.232-.13-.247-.15-.333-.13-.523.013-.137.002-.233-.028-.243-.03-.01-.005-.076.055-.157a.57.57 0 0 0 .105-.19c0-.025.065-.117.144-.203a.823.823 0 0 0 .143-.185c0-.017.036-.106.08-.2.043-.093.084-.196.09-.23.026-.11.052-.1.226.084.106.112.146.182.104.182-.038 0-.07.017-.07.038 0 .02-.063.038-.142.038-.08 0-.15.01-.157.02-.007.01-.062.104-.12.21-.11.19-.11.19-.012.24.135.07.122.177-.028.23-.088.033-.146.03-.192-.005-.05-.04-.066-.036-.066.02 0 .042.027.076.06.076.04 0 .036.016-.012.046-.064.04-.064.05 0 .09.06.038.06.044-.012.045-.07 0-.082.04-.076.217.006.167.012.182.027.068.024-.182.084-.188.176-.02.04.07.104.157.146.189.06.047.063.074.02.124-.046.052-.02.1.128.245.102.1.208.18.235.18.028 0-.003-.042-.07-.09-.11-.084-.112-.09-.02-.09.06 0 .1-.034.103-.093.004-.05-.013-.09-.037-.09-.025 0-.045-.035-.045-.075 0-.154.13.03.158.22.015.106.06.216.102.245.108.074.092.12-.028.085-.09-.027-.1-.017-.074.074.016.058.01.13-.016.158-.03.035-.01.07.064.107.06.03.13.1.155.155a.221.221 0 0 0 .142.117c.092.017.092.014.01-.073-.046-.05-.072-.12-.056-.16.015-.04.005-.084-.023-.1-.083-.05-.06-.13.03-.097.043.016.096.003.118-.03.06-.09.047-.14-.03-.11-.04.014-.083.006-.1-.018-.014-.024-.002-.043.029-.043.032 0 .043-.032.026-.074-.02-.05-.01-.066.04-.048a.075.075 0 0 0 .094-.04.11.11 0 0 1 .092-.066c.036 0 .105-.04.153-.092.084-.088.083-.09-.005-.09a.39.39 0 0 0-.184.07c-.126.09-.302.083-.352-.014-.078-.15-.016-.42.123-.54.088-.078.11-.123.07-.14-.07-.026-.08-.152-.015-.152.025 0 .06.04.075.092.032.095.096.12.14.05.015-.022-.005-.065-.044-.096-.04-.03-.058-.075-.043-.098.036-.056.163.043.163.126 0 .115.302.046.317-.072a.962.962 0 0 1 .012-.074c.003-.015.072.026.153.09.176.14.337.169.23.04-.062-.075-.06-.075.054-.005.068.042.113.11.105.153-.01.048.008.07.048.056.034-.01.057-.066.05-.12-.006-.056.01-.09.033-.075.025.014.058.005.075-.02.017-.026-.004-.047-.045-.047-.04 0-.074-.02-.074-.045 0-.025.02-.046.048-.046.026 0 .048-.02.048-.046 0-.027-.05-.034-.12-.018-.103.025-.116.016-.09-.056.019-.047.016-.07-.006-.05-.02.018-.065.012-.097-.013-.043-.034-.054-.016-.044.07.007.062-.008.125-.034.14-.052.03-1.447-1.31-1.913-1.855-2.215-2.59-1.124-3.906 1.537-5.33 1.053-.564 2.53-.97 4.23-1.27 1.848-.327 3.048-.392 3.537-.193.213.088.51.37.644.61.038.07.078.275.09.457.054.904.158 13.305.125 15.086-.005.26-.044.31-.18.227zm-5.572-1.428c.745-.137 1.032-.248 1.373-.53.797-.66 1.218-1.57 1.29-2.786l.032-.54-.167-.177a1.93 1.93 0 0 1-.22-.273c-.083-.152-.06-.485.042-.59a.379.379 0 0 0 .1-.183c.016-.172-.008-.3-.052-.274-.025.015-.058.005-.075-.02-.017-.026 0-.058.04-.072.06-.022.06-.054.002-.24-.094-.303-.527-1.1-.858-1.578-.262-.377-.387-.508-.907-.953-.217-.185-.305-.16-.223.065.072.198.07.214-.045.272-.082.042-.128.03-.265-.07-.237-.172-.358-.305-.35-.386a.327.327 0 0 0-.005-.104.789.789 0 0 1-.04-.195c-.008-.076-.516-.312-.865-.4-.124-.032-.22-.086-.232-.13-.012-.043-.047-.087-.08-.1-.103-.037-.322.026-.352.102a.358.358 0 0 1-.104.13c-.046.033-.052.055-.017.056a.11.11 0 0 0 .086-.044c.047-.072.407-.057.407.017 0 .037.074.074.18.09.233.035.63.22.633.292 0 .033-.058.057-.142.057-.2 0-.18.074.03.112.122.022.16.045.123.08a.11.11 0 0 0-.025.11c.015.037-.006.062-.05.062-.044 0-.078-.02-.078-.045 0-.025-.09-.046-.197-.046-.177 0-.195-.01-.17-.096.04-.148-.043-.3-.18-.324-.171-.03-.19.007-.05.11.118.09.17.356.07.356a.047.047 0 0 1-.048-.046c0-.025-.032-.045-.072-.045-.04 0-.072.018-.072.04 0 .023-.075.084-.167.136-.12.068-.16.116-.14.175.087.253.134.326.24.372a.37.37 0 0 1 .166.154c.04.09.044.086.02-.032-.023-.105-.006-.15.082-.214.095-.07.102-.093.052-.17-.037-.06-.042-.103-.012-.12.026-.015.047-.067.047-.116 0-.102.026-.107.232-.038.083.027.15.078.15.113 0 .036.022.064.05.064.025 0 .047-.02.047-.045 0-.082.152-.048.176.04.013.047.087.13.166.185.12.084.133.112.082.17-.05.057-.04.083.053.15l.113.08-.128.08c-.1.064-.142.069-.197.026-.09-.07-.195-.017-.124.063.027.032.035.07.018.087-.017.017.004.03.048.03.145 0 .085.244-.08.328-.056.028-.21.06-.34.07-.132.01-.25.034-.265.055-.014.02-.068.046-.12.055a.144.144 0 0 0-.112.12c-.01.056-.044.102-.078.102-.036 0-.062.052-.062.12 0 .124-.12.244-.24.244a.674.674 0 0 0-.206.07c-.154.076-.192.246-.077.35.07.06.05.234-.022.192-.024-.014-.034-.04-.02-.06.01-.02-.025-.033-.08-.03-.08.002-.112-.033-.14-.155-.041-.193-.166-.287-.332-.252-.082.017-.147.002-.187-.044-.106-.122-.327-.087-.483.076-.14.146-.19.367-.095.422.026.015.11-.004.19-.043.17-.084.434-.093.434-.014 0 .03-.087.132-.193.224-.157.137-.188.19-.164.28.022.085.003.13-.074.182-.067.046-.098.107-.087.177.013.092.038.104.182.09a.539.539 0 0 0 .277-.12c.115-.11.43-.175.518-.11.03.023.075.016.107-.014.03-.03.07-.037.09-.02.02.02.005.053-.033.075-.038.023-.06.047-.047.055.188.115.25.13.318.076.057-.045.08-.044.11.005a.15.15 0 0 1 .017.122c-.016.04.01.062.07.062a.23.23 0 0 1 .155.07c.043.047.107.06.218.04.227-.04.328.006.422.193.082.164.082.166-.04.287-.13.13-.152.184-.074.184.027 0 .048-.03.048-.068 0-.038.033-.068.074-.068.133 0 .464.187.488.277.02.07.067.087.234.087.142 0 .24.028.3.086.05.047.152.105.227.13.112.034.14.072.152.202.013.143-.006.173-.19.292-.276.178-.323.24-.325.432-.003.26-.232.454-.54.454-.252 0-.584.278-.546.458.03.15-.043.225-.22.225-.141 0-.167.04-.08.124.065.06-.078.268-.21.302a.122.122 0 0 0-.082.113c0 .05-.025.1-.056.11-.04.012-.042.054-.007.15a.372.372 0 0 1 .01.227c-.03.077-.037.08-.04.01-.001-.043-.026-.08-.054-.08-.03 0-.038-.038-.02-.092.017-.05.008-.12-.02-.153-.04-.045-.035-.075.02-.118.06-.047.06-.07.012-.13-.05-.06-.048-.065.023-.04.07.025.084.003.084-.145 0-.134.022-.18.09-.198.073-.018.087-.06.078-.22-.014-.237.07-.344.21-.272.124.063.15.06.15-.015 0-.035.043-.074.096-.088.053-.013.09-.05.084-.083-.008-.032.02-.06.058-.06.092-.003.12-.148.045-.234-.032-.037-.042-.082-.02-.1.02-.018.046-.008.058.024.025.067.3.077.3.01 0-.024.022-.045.048-.045.027 0 .048.03.048.07 0 .036.024.067.053.067.03 0 .04-.03.026-.068-.017-.04 0-.07.04-.07.044 0 .059.028.04.074-.021.054-.005.07.06.057.053-.01.108-.078.135-.17.04-.13.033-.164-.046-.22-.088-.065-.086-.066.028-.035.097.026.108.02.06-.028-.08-.08-.077-.135.006-.105.037.013.08.005.096-.02.016-.024-.004-.055-.043-.07-.04-.014-.07-.052-.07-.084 0-.036.013-.04.035-.013.057.073.155.074.155.002 0-.04.028-.057.072-.04.053.018.064.005.042-.05-.017-.042-.06-.066-.096-.052-.036.013-.066.004-.066-.02 0-.068.102-.053.197.028.046.04.107.06.135.043.08-.047.06-.115-.033-.12-.07-.002-.07-.008.012-.041.085-.034.08-.042-.058-.07-.09-.02-.166-.07-.183-.118-.017-.05-.072-.086-.133-.085-.083 0-.09.01-.034.043.04.023.057.055.04.07-.04.038-.23-.058-.23-.114 0-.023-.033-.03-.072-.016-.04.014-.072.054-.072.09 0 .073-.076.084-.12.017-.016-.025-.006-.045.02-.045a.05.05 0 0 0 .052-.05c0-.025-.02-.034-.048-.02-.026.017-.048-.002-.048-.042 0-.075-.124-.1-.15-.03-.01.023-.045.013-.08-.022-.051-.054-.037-.064.089-.064.085 0 .142-.02.132-.05-.02-.057-.032-.058-.28-.018-.128.02-.217.01-.265-.026-.055-.043-.086-.045-.128-.005-.088.084-.132.062-.12-.06.008-.107.084-.168.084-.07s.082.04.158-.113c.058-.117.064-.16.02-.163-.045-.003-.045-.01.002-.027a.103.103 0 0 0 .06-.09c0-.037-.02-.056-.043-.042-.024.014-.056-.005-.07-.043-.016-.037-.056-.066-.09-.064-.05.002-.05.008 0 .027.05.02.05.037.004.09-.037.044-.042.08-.012.1.06.04.074.235.016.235-.025 0-.045-.052-.045-.114 0-.063-.023-.114-.05-.114-.03 0-.04-.04-.02-.09.035-.11-.015-.117-.16-.02-.11.073-.25.06-.25-.024 0-.025.033-.034.073-.02.098.036.09-.028-.012-.102-.112-.08-.16-.078-.125.006.02.05.006.06-.05.04-.042-.015-.077-.06-.077-.096 0-.044-.027-.06-.077-.04-.055.02-.07.008-.05-.04.032-.077-.04-.096-.088-.024a.113.113 0 0 1-.087.044c-.036 0-.04-.013-.01-.034.085-.058.07-.128-.026-.128-.05 0-.093.018-.093.04 0 .02-.02.025-.048.01-.026-.017-.063.008-.08.053a.35.35 0 0 1-.103.133c-.04.028-.055.074-.036.103.02.03.003.052-.04.052-.113 0-.09-.125.045-.264.098-.1.106-.126.045-.14-.06-.01-.063-.027-.02-.08.068-.075.047-.08-.125-.016-.072.026-.116.06-.1.076.017.016-.013.057-.066.093-.052.035-.083.084-.066.11.016.024-.006.08-.05.127-.081.085-.133.413-.065.413.02 0 .04.042.04.093 0 .05.027.103.062.115.04.015.058.086.048.206-.013.15.007.203.112.295.08.072.16.103.216.086.057-.017.088-.004.088.038 0 .036.054.124.12.197.082.088.112.163.093.224-.146.452-.168.767-.053.74.032-.005.058.009.058.034s-.025.04-.055.034c-.073-.016-.12.217-.063.316a.189.189 0 0 1 .017.14c-.014.037.008.093.05.126.058.046.063.068.018.095-.047.027-.047.05 0 .104.04.046.047.095.018.144-.045.076.048.515.12.565.02.015.036.066.036.115 0 .114.28.198.838.25.48.047.716.03 1.39-.093zm-1.98-.93c.014-.037.035-.068.045-.068.01 0 .02.03.02.068 0 .038-.022.07-.047.07-.026 0-.034-.032-.02-.07zm-.44-.34c-.015-.027-.007-.047.02-.047.026 0 .06.02.077.046.016.025.008.045-.018.045a.106.106 0 0 1-.078-.045zm.863-.41a.106.106 0 0 1 .078-.047c.026 0 .035.02.018.045a.106.106 0 0 1-.077.046c-.027 0-.035-.02-.02-.046zm.408-.228c0-.062.085-.1.116-.053.015.023-.006.054-.045.068-.04.014-.07.007-.07-.015zm-1.224-.096c-.017-.026-.02-.058-.008-.07.012-.012.035.01.05.05.033.08.006.093-.042.02zm2.014-.225c-.016-.025-.008-.045.018-.045s.06.02.078.045c.016.025.008.046-.02.046a.106.106 0 0 1-.076-.046zm-.407-.068c-.05-.056-.046-.068.018-.068.043 0 .077.03.077.068 0 .038-.008.068-.018.068-.01 0-.045-.03-.077-.068zm-1.51-.068a.106.106 0 0 1 .079-.046c.026 0 .034.02.018.046a.106.106 0 0 1-.078.045c-.026 0-.034-.02-.018-.045zm1.749-.07c0-.036.02-.067.047-.067.025 0 .034.03.018.068-.015.038-.036.07-.046.07-.01 0-.02-.032-.02-.07zm-1.772-.067c0-.025.023-.046.05-.046.03 0 .038.02.022.046-.016.025-.04.045-.05.045-.012 0-.022-.02-.022-.045zm-.02-.176c-.02-.032-.024-.07-.01-.085.044-.04.09.02.068.085-.016.046-.028.046-.058 0zm1.017-.038c.034-.013.076-.01.092.004.016.015-.013.026-.063.024-.056-.002-.067-.013-.03-.028zm.823-.01c0-.04.144-.11.172-.083.01.008-.027.04-.078.07-.052.03-.094.037-.094.014zm-.646-.095c-.017-.025-.01-.046.018-.046.026 0 .06.02.077.046.017.025.008.045-.018.045a.106.106 0 0 1-.077-.045zm-.704-.122c.035-.014.076-.012.092.003s-.012.026-.063.024c-.056-.002-.067-.013-.03-.027zm1.425-.047c-.026-.065-.02-.07.027-.026.033.03.047.068.033.082-.015.014-.042-.01-.06-.056zm.117-.06c0-.024.02-.045.048-.045.026 0 .047.02.047.046a.047.047 0 0 1-.047.046.047.047 0 0 1-.048-.046zm-2.3-.09c0-.025.022-.046.05-.046.025 0 .047.02.047.046a.047.047 0 0 1-.048.045.047.047 0 0 1-.048-.045zm1.63-.046c0-.025.02-.045.044-.045a.1.1 0 0 1 .075.045c.016.025-.004.046-.045.046-.04 0-.075-.02-.075-.046zm-1.964-.113c0-.036.044-.048.12-.035.065.012.12.038.12.057 0 .02-.055.034-.12.034-.067 0-.12-.025-.12-.056zm1.676-.07c-.08-.048-.066-.053.137-.062.092-.004.13.013.115.052-.027.067-.152.073-.252.01zm-.647-.18c.017-.026.04-.047.05-.047.013 0 .022.02.022.046 0 .025-.023.045-.05.045-.03 0-.038-.02-.022-.045zm-1.072-.31c.015-.086-.01-.12-.05-.061-.032.05-.052.043-.095-.034-.05-.087-.043-.096.054-.086.06.006.125.032.145.057.05.066.044.16-.01.16-.028 0-.047-.016-.044-.035zm1.122-.053c-.015-.023-.005-.055.02-.07.028-.017.05.002.05.04 0 .08-.03.093-.07.03zm-.313-.23c0-.026.023-.047.05-.047.028 0 .038.02.022.046-.017.025-.04.046-.05.046-.013 0-.022-.02-.022-.046zm1.293-.272c0-.023.02-.055.048-.07.026-.016.048.003.048.042 0 .04-.022.07-.048.07-.027 0-.048-.02-.048-.042zm.102-.22c-.066-.117-.02-.253.076-.218a.454.454 0 0 0 .09.025c.043 0 .016.125-.046.205-.064.083-.067.082-.12-.01zm.09-.101c0-.026-.01-.046-.022-.046-.01 0-.034.02-.05.046-.017.025-.007.045.02.045.03 0 .052-.02.052-.045zm2.468.093c-.043-.065.01-.14.1-.14.042 0 .066.033.057.077-.018.092-.114.13-.157.063zm-2.745-.347c-.06-.04-.107-.093-.107-.12 0-.032.022-.03.066.004.036.03.096.045.132.036.036-.01.05-.007.028.004-.02.01-.013.048.018.083.074.086-.005.082-.137-.007zm.276.026c0-.025.022-.046.048-.046.027 0 .048.02.048.046a.047.047 0 0 1-.048.045.047.047 0 0 1-.048-.045zm-1.46-.046c.016-.025.06-.045.098-.045.038 0 .07.02.07.045 0 .025-.045.046-.1.046-.053 0-.085-.02-.068-.046zm.31-.07c0-.078.156-.293.195-.27.026.015.035.046.02.07-.016.023.038.042.118.042.08 0 .147.02.147.046 0 .025.032.045.072.045.04 0 .072.02.072.046 0 .064-.132.057-.155-.008-.014-.04-.056-.04-.178 0-.172.057-.29.07-.29.028zm-.433-.066a.95.95 0 0 1-.304-.167c-.173-.137-.177-.145-.077-.175.073-.022.136-.004.21.06a.7.7 0 0 0 .303.125c.235.036.31.14.12.164a.93.93 0 0 1-.252-.006zm.322-.26c-.05-.046-.037-.196.016-.196.027 0 .048.018.048.04a.4.4 0 0 0 .03.115c.028.072-.033.1-.094.042zm4.113-.301c-.02-.045-.024-.094-.008-.11.05-.046.088.02.066.108-.02.08-.023.08-.058.002zm-3.953-3.45c0-.026.034-.046.075-.046.04 0 .06.02.045.045-.017.025-.05.046-.075.046a.045.045 0 0 1-.045-.046zm.103 8.198c-.1-.036-.122-.017-.086.074.025.06.04.063.097.014.058-.05.056-.064-.01-.088zm.318-.368c.113.02.122.014.068-.047-.134-.154-.37-.093-.265.07.022.034.038.034.05.002.01-.027.075-.038.147-.025zm4.534-.435a.808.808 0 0 1 .074-.195c.03-.053.042-.128.027-.166-.027-.07.063-.257.223-.465.065-.084.07-.127.03-.2-.07-.128-.017-.39.107-.517.15-.15.092-.263-.112-.222-.192.038-.287.112-.144.112.056 0 .116-.02.132-.045.016-.025.05-.046.075-.046.077 0 .05.12-.047.202-.12.102-.178.415-.097.508.05.056.03.105-.1.277-.1.134-.155.26-.152.348a.627.627 0 0 1-.066.268c-.04.07-.06.13-.046.13.013 0 0 .056-.026.125-.045.113-.042.118.026.054a.373.373 0 0 0 .096-.168zm-3.878-.194c.038-.058-.073-.058-.167 0-.06.036-.052.044.033.045.058 0 .118-.02.134-.045zm4.095-1.635c0-.07-.14-.154-.215-.126-.108.04-.216-.016-.216-.11 0-.087-.132-.18-.248-.18-.035.002-.007.048.06.104a.59.59 0 0 1 .157.186c.024.06.066.08.15.063.069-.012.143.005.174.04.06.07.138.083.138.023zm-.766-.6c0-.053-.02-.083-.046-.068-.025.015-.033.057-.02.094.039.094.066.083.066-.027zm-.068-.18c.097 0 .084-.08-.023-.135-.068-.035-.106-.03-.152.024-.05.057-.048.067.007.056.047-.01.066.022.06.1-.006.066 0 .08.015.034.013-.044.055-.08.093-.08zm-5.057-.274a.047.047 0 0 0-.047-.046.047.047 0 0 0-.048.046c0 .025.02.045.048.045.026 0 .047-.02.047-.045zm5.008-.172c-.084-.075-.087-.075-.057.004a.54.54 0 0 1 .03.135c0 .035.018.034.058-.004.045-.043.038-.073-.03-.135zm.29-.603c.015-.063.058-.18.095-.258a.735.735 0 0 0 .064-.273c-.004-.15-.024-.114-.165.303a2.306 2.306 0 0 1-.174.393.612.612 0 0 0-.087.182c.003.075.24-.232.267-.347zm-7.197-.252c-.04-.1-.107-.08-.078.023.013.05.043.08.065.067.022-.013.028-.053.013-.09zm2.072-.225c-.017-.063-.062-.116-.1-.116-.056 0-.054.023.013.134.093.156.13.148.087-.018zm6.307.02c.027-.098-.038-.126-.08-.033-.016.038-.064.012-.14-.074-.114-.126-.13-.13-.393-.1-.155.019-.256.05-.232.073.023.023.13.018.248-.01.2-.048.21-.045.335.093.15.165.226.18.262.052zm-6.702-.25c.015-.037.01-.068-.013-.068-.022 0-.067.03-.1.068-.05.056-.046.07.013.07.04 0 .085-.032.1-.07zm.953-.01c.02-.01.036-.111.036-.224 0-.17.017-.212.095-.23.053-.014.096-.043.096-.065 0-.06-.156-.045-.255.026-.067.048-.122.052-.228.017-.13-.043-.194-.13-.097-.13.023 0 .055-.035.072-.08a1.82 1.82 0 0 1 .057-.135c.016-.032-.003-.057-.042-.057-.04 0-.082.042-.096.094a.183.183 0 0 1-.118.118c-.068.016-.087.052-.07.133.012.06.036.113.052.115.017.003.106.01.198.018.223.017.232.023.12.07l-.096.038.096.004c.088.005.09.01.012.05-.088.05-.116.18-.038.18.025 0 .066-.036.092-.08.026-.043.062-.064.08-.046.046.042-.067.172-.15.172a.124.124 0 0 0-.093.047c-.028.044.18.02.277-.034zm4.73-.012c0-.025-.033-.046-.073-.046-.04 0-.072-.02-.072-.046a.047.047 0 0 0-.048-.045c-.134 0 .003.137.18.18.007 0 .012-.018.012-.043zm.304-.07c.07-.067.09-.113.146-.352.017-.07.055-.125.085-.125.088 0 .23.143.23.232 0 .097.077.153.12.087.016-.025.01-.046-.01-.046-.023 0-.064-.06-.093-.132-.077-.195-.23-.258-.347-.146-.058.055-.084.125-.068.182.017.064-.02.136-.12.23-.082.08-.117.14-.08.14.035 0 .097-.031.137-.07zm.457-.07c-.034-.02-.086-.023-.113-.007-.03.018-.015.037.033.046.047.01.086.04.088.07.002.032.014.03.03-.01.014-.033-.003-.078-.038-.1zm-.14-.09c0-.025-.02-.044-.047-.044s-.048.032-.048.07c0 .04.02.06.048.044.026-.015.048-.047.048-.07zm-.766-.064c0-.036-.02-.078-.048-.094-.026-.015-.048.014-.048.066 0 .05.022.094.048.094.027 0 .048-.03.048-.066zm-7.088-.09c0-.01-.054-.026-.12-.038s-.12-.004-.12.018c0 .02.054.04.12.04s.12-.01.12-.02zm7.206-.3c.093 0 .137-.16.075-.272-.035-.06-.1-.093-.195-.093-.165 0-.18-.045-.045-.127.08-.047.088-.073.044-.152a.357.357 0 0 1-.03-.21.394.394 0 0 0-.068-.258c-.117-.184-.114-.223.017-.184.095.03.1.025.042-.042-.092-.105-.143-.094-.178.04a.28.28 0 0 0 .04.216c.1.147.147.58.063.58-.088 0-.127.114-.06.177a.28.28 0 0 0 .164.05c.17 0 .196.135.045.24-.072.05-.127.13-.126.187.002.09.008.087.074-.027.04-.07.1-.125.138-.125zm-4.74.09c.017-.024-.004-.045-.045-.045-.04 0-.074.02-.074.046 0 .025.02.046.045.046.025 0 .058-.02.074-.046zm-.003-.278c-.048-.074-.116-.04-.116.057 0 .08.012.087.07.04.04-.03.06-.074.046-.097zm-.164-.245c-.033-.038-.08-.068-.108-.068-.026 0-.02.03.012.068.033.038.08.068.108.068.026 0 .02-.03-.012-.068zm4.432-.057c.162-.123.22-.294.118-.353-.027-.016-.048-.08-.048-.14 0-.06-.018-.11-.04-.11-.023 0-.067-.055-.1-.12-.092-.197-.15-.07-.168.373-.023.537-.018.544.238.35zm-.19-.09c.02-.07.032-.24.027-.377l-.01-.25.097.113a.42.42 0 0 1 .097.214c0 .055.023.113.05.128.045.027-.196.296-.266.296-.018 0-.017-.056.004-.125zm-6.254.053c0-.036-.02-.066-.045-.066-.025 0-.042.04-.038.088.008.1.083.08.083-.022zm6.055-.184c.115-.043.09-.1-.034-.077-.102.02-.108.007-.09-.166.018-.184.07-.24.123-.13.015.033.022.017.015-.033-.006-.05-.043-.09-.082-.09-.048 0-.082.07-.105.224-.044.292-.013.34.173.272zm-1.816-.668c-.026-.19-.063-.264-.184-.364-.194-.16-1.012-.56-1.22-.598-.233-.04-.143.04.12.11.127.033.37.127.54.21l.313.15.008.217c.007.19.03.237.188.366.098.082.2.148.223.148.026 0 .03-.1.012-.24zm1.118.014c.02-.14-.12-.255-.216-.178-.068.053-.087.23-.03.284.074.07.23.004.246-.106zm-.213-.03a.443.443 0 0 0 .03-.09c0-.01.02-.02.047-.02.026 0 .047.042.047.092 0 .053-.032.09-.077.09-.05 0-.067-.024-.047-.071zm1.36-.055c.01-.033-.01-.044-.055-.028-.052.02-.076-.01-.087-.102-.017-.138-.184-.217-.184-.087 0 .04-.017.072-.038.072-.068 0-.153-.107-.153-.192 0-.045-.025-.082-.056-.082-.086 0-.375-.226-.375-.294 0-.033-.03-.072-.07-.086-.152-.056.06.264.233.35.095.046.172.11.172.14 0 .03.062.112.137.18.133.12.14.122.163.032.038-.138.115-.114.15.047.027.135.122.165.162.05zm-3.39-.1c0-.025-.06-.043-.132-.04l-.132.004.12.036.13.04c.008.004.013-.015.013-.04zm1.275-.216a.861.861 0 0 1 .1-.224c.15-.22-.15-.702-.48-.77-.174-.037-.23.01-.063.05.165.04.377.234.456.418.055.13.05.17-.038.345-.11.217-.127.306-.054.306.026 0 .06-.056.08-.125zm-2.21-.002c.137-.037.192-.106.193-.244.002-.095-.02-.118-.105-.114-.1.006-.103.012-.034.113.085.123.09.115-.122.183-.144.047-.177.042-.266-.038-.057-.05-.13-.092-.16-.092-.032 0 .012.06.098.136.092.08.187.124.23.108.04-.014.114-.038.166-.052zm.79-.12c-.263-.13-.526-.19-.526-.12 0 .026.06.048.136.048a.35.35 0 0 1 .223.09.33.33 0 0 0 .235.09c.147-.002.147-.003-.067-.11zm-.862-.025c.104-.063.014-.122-.24-.155-.212-.027-.213-.027-.083.042.073.038.132.09.132.113 0 .056.098.056.19 0zm-.574-.124c0-.058.177-.13.275-.112.053.01.084-.08.065-.188-.003-.02.027-.048.066-.062.04-.015.073-.047.073-.072 0-.028-.128-.04-.327-.03a1.576 1.576 0 0 0-.658.173 12.41 12.41 0 0 0-.345.163c-.046.034.063.156.148.168.266.036.703.01.703-.04zm3.783-.288c0-.05-.008-.09-.018-.09-.01 0-.03.04-.043.09-.014.05-.006.09.018.09s.043-.04.043-.09zm-.182-.1c-.035-.033-.057-.036-.057-.008 0 .06.057.115.09.085.012-.013-.002-.048-.033-.078zm-2.46-.168c.022-.142.157-.176.667-.17.46.006.592-.034.24-.073-.3-.032-.73-.005-.846.053-.055.028-.1.088-.1.132a.232.232 0 0 1-.06.14c-.05.05-.046.057.01.04.04-.01.08-.066.089-.122zm-.185-.002c.075-.133.06-.185-.05-.185-.112 0-.38.135-.38.192 0 .057.048.042.2-.06.16-.11.234-.082.146.052-.033.05-.038.09-.012.09.025 0 .07-.04.096-.09zm-7.973 9.427c-.274-.2-.9-.586-1.317-.816-1.792-.986-2.42-1.758-2.255-2.772.083-.514.358-.972.852-1.425.71-.648 1.308-.974 1.308-.71 0 .034-.186.204-.412.377-.484.37-.876.81-1.058 1.184-.107.22-.134.352-.15.712-.02.418-.012.46.128.743.08.165.226.39.323.503.44.513 1.606 1.03 2.606 1.16.224.028.455.06.514.072.114.022.15.11.047.11a.76.76 0 0 0-.238.115.486.486 0 0 0-.228.295c-.05.173-.027.262.133.56.04.07-.07.025-.253-.108zm4.744-.212c-.263-.015-.41-.067-.41-.144 0-.017.14-.023.307-.012.18.01.343-.003.395-.033.07-.04-.004-.05-.342-.043-.418.01-.44.005-.682-.147-.137-.086-.243-.177-.235-.202.008-.025.135-.1.283-.168.262-.12.287-.123 1.24-.128 1.22-.007 1.142-.01 1.142.057 0 .064-.2.188-.874.537-.257.133-.467.26-.467.28 0 .02-.016.034-.036.03a4.918 4.918 0 0 0-.32-.027zm.577-.342c.02-.02-.13-.034-.334-.034-.204 0-.36.016-.348.034.03.045.635.044.682 0zm-.83-.157a.893.893 0 0 0-.24 0c-.072.01-.024.02.108.02.13 0 .19-.01.132-.02zm.957 0a2.885 2.885 0 0 0-.407 0c-.112.01-.02.016.204.016.224 0 .315-.008.203-.017zm.42-.133c0-.01-.168-.014-.372-.01-.358.007-.362.008-.108.034.25.026.48.014.48-.024zm-1.423-.022c-.038-.036-.078-.036-.142 0-.077.042-.07.048.053.05.103 0 .127-.013.09-.05zm.357.02a.552.552 0 0 0-.19-.002c-.06.01-.023.02.082.02.105 0 .154-.008.108-.02zm.215-.09a.194.194 0 0 0-.12 0c-.032.012-.005.022.06.022.066 0 .093-.01.06-.023zm.72-.003a.894.894 0 0 0-.24 0c-.073.01-.025.02.107.02s.19-.01.132-.02zm-1.27-.643c-.185-.02-.643-.692-.9-1.32-.3-.727-.395-1.26-.365-2.04a4.845 4.845 0 0 1 .99-2.78c.256-.33.32-.374.418-.28.074.07.07.084-.044.2-.722.74-1.207 2.148-1.117 3.249.08.995.404 1.89.94 2.605.13.176.232.333.224.35-.008.017-.074.024-.146.016zm-2.024-2.065c-.36-.38-1.137-1.05-1.925-1.66-1.46-1.161-4.227-3.047-4.228-4.943-.002-1.265 1.187-2.565 3.5-3.706 4.004-1.977 11.598-3.474 23.774-3.474 2.6 0 3.397-.02 6.73.117 12.38.6 18.558 3.6 18.558 6.378 0 2.394-3.686 5.42-10.896 6.334-.276.027-.573.058-.658.07-.145.016-.156.008-.156-.116 0-.148-.012-.143.575-.228 4.185-.715 9.387-3.307 9.427-5.81.03-1.948-4.27-3.87-6.817-4.637-1.074-.322-1.943-.516-3.424-.767l-1.054-.18a44.027 44.027 0 0 0-1.692-.247 150.2 150.2 0 0 1-2.044-.207c-.484-.056-2.043-.204-2.85-.272-.712-.06-2.917-.138-4.477-.16-1.792-.023-4.717.053-7.017.183-1.76.1-1.87.134-2.49.18-9.412.717-17.176 3.824-17.176 6.379 0 .71.547 1.45 1.183 1.767 1.043.522 2.874.62 4.208.213.39-.118.575-.165.546-.09-.01.022-.13.125-.27.23-.44.33-.953 1.095-1.176 1.757-.2.592-.32 1.76-.23 2.223.03.145.107.39.172.545.066.155.113.288.104.296-.008.008-.097-.07-.196-.176zm2.993.015c0-.048.104-.146.154-.146.02 0 .038.04.038.09 0 .062-.032.092-.096.092-.053 0-.096-.016-.096-.036zm-.167-1.833c-.017-.025-.007-.045.02-.045.03 0 .052.02.052.045 0 .025-.01.046-.022.046-.01 0-.034-.02-.05-.046zm.12-.255c0-.036.06-.054.162-.05.194.01.184.06-.018.087-.095.013-.145 0-.145-.037zm-.144-.155c0-.025.023-.046.05-.046.028 0 .038.02.022.046-.017.025-.04.046-.05.046-.013 0-.022-.02-.022-.046zm.452-.095c-.015-.023.018-.042.072-.042.054 0 .098-.02.098-.048 0-.027.024-.034.052-.018.038.022.038.045 0 .08-.067.065-.188.08-.222.028zm.683-.208c-.05-.048.012-.105.087-.078.04.014.058.044.044.067-.03.048-.088.053-.13.01zm.134-.198c.016-.025.04-.046.05-.046.012 0 .022.02.022.046 0 .025-.023.045-.05.045-.03 0-.038-.02-.022-.045zm-.368-.214c.034-.013.076-.01.092.004.015.015-.013.026-.063.024-.056-.002-.067-.013-.03-.028zm-.997-.17c0-.04.034-.072.076-.072.042 0 .067.024.057.054-.03.084-.133.1-.133.018zm.575.022c0-.024.02-.056.048-.07.026-.017.047.002.047.042s-.02.07-.047.07-.048-.02-.048-.042zm.383-.05c0-.024.032-.044.072-.044.04 0 .072.02.072.045 0 .026-.033.046-.072.046-.04 0-.072-.02-.072-.046zm1.894-.077a.116.116 0 0 1 .027-.123c.042-.037.05-.03.027.03-.036.098.03.105.11.012.034-.038.09-.068.127-.068.117 0 .07.072-.098.148-.15.068-.166.068-.193 0zm-2.134-.195c0-.025.022-.046.048-.046.027 0 .048.02.048.046a.047.047 0 0 1-.048.046.047.047 0 0 1-.048-.046zm.72-.14c0-.026.02-.035.047-.02.026.016.048.038.048.05 0 .01-.022.02-.048.02a.048.048 0 0 1-.048-.05zm.31.003c-.016-.025.004-.045.045-.045.04 0 .075-.03.075-.07 0-.036.022-.067.05-.067.033 0 .033.027 0 .085-.025.047-.033.098-.017.114.017.016-.004.03-.046.03-.043 0-.09-.02-.107-.047zm-.427-.176c-.02-.032-.025-.07-.01-.085.044-.04.09.02.068.085-.017.047-.028.046-.058 0zm.24-.086c.046-.18.067-.185.067-.02 0 .08-.022.145-.05.145-.027 0-.034-.05-.016-.125zm-.388-.057a.106.106 0 0 1 .078-.045c.026 0 .034.02.018.045a.106.106 0 0 1-.077.046c-.027 0-.035-.02-.02-.046zm.813-.003c-.018-.027-.02-.06-.006-.073.034-.032.127.025.127.08 0 .057-.082.053-.12-.007zm.337.003a.082.082 0 0 1 .013-.1c.032-.03.06-.027.083.009a.082.082 0 0 1-.014.1c-.032.03-.06.027-.082-.01zm-1.27-.16c-.034-.04-.052-.075-.042-.08.22-.12.234-.124.234-.06a.101.101 0 0 1-.06.088c-.046.017-.045.023.003.026.035.002.05.024.033.05-.042.064-.098.056-.168-.024zm.336.022c-.062-.04-.06-.055.02-.114.108-.077.19-.028.144.085-.035.087-.064.093-.164.03zm.43-.024c0-.118.12-.43.16-.418.086.028.092.29.007.37-.076.072-.166.098-.166.048zm.267-.016a.05.05 0 0 1 .017-.07.055.055 0 0 1 .074.016.05.05 0 0 1-.018.07.055.055 0 0 1-.073-.016zm-1.176-.186c0-.026.023-.046.05-.046.03 0 .038.02.022.046-.016.025-.04.045-.05.045-.013 0-.022-.02-.022-.045zm.31-.14c-.046-.07.035-.14.112-.094.05.03.047.047-.008.092-.052.04-.08.04-.104.003zm.36-.087c0-.057.17-.144.21-.106.04.04-.064.15-.144.15-.036 0-.066-.02-.066-.044zm.45-.147c-.04-.06.07-.126.215-.127.092 0 .103.01.058.063-.073.084-.236.122-.274.064zm-1.54-.043c-.032-.032-.06-.084-.06-.117 0-.032-.021-.06-.047-.06a.047.047 0 0 1-.048-.045c0-.068.124-.054.19.02.03.037.05.11.04.163-.011.078-.026.085-.074.04zm.947.01c0-.057.287-.19.34-.16.074.043.047.094-.08.15-.146.063-.26.067-.26.01zm-.344-.08c.034-.014.075-.012.09.003.017.015-.011.026-.062.024-.055-.002-.067-.013-.028-.027zm-.316-.16c.024-.068.133-.106.133-.046 0 .025-.034.057-.076.072-.047.017-.068.007-.057-.026zm.548-.022c-.06-.057-.032-.116.042-.09.043.017.062.009.045-.017-.016-.025.016-.045.07-.045.11 0 .126.047.04.128-.063.06-.148.07-.197.024zm8.787-5.667a1.12 1.12 0 0 1-.126-.205c-.128-.242-.453-.548-.68-.64-.396-.16-1.507-.13-2.96.075-.343.05-.652.098-.688.11a4.99 4.99 0 0 1-.383.087 4.314 4.314 0 0 0-.402.095c-.047.018-.084.01-.084-.014 1.57-.7 8.15-1.723 14.793-1.666 4.502.038 9.044.554 12.04 2.075-.042.01-1.537.06-9.674.06-5.368 0-10.22.01-10.782.022-.562.013-1.036.014-1.054 0z"/><g stroke-width=".265"><g style="font-variant-ligatures:none" aria-label="URBAN"><path d="M153.63 47.1v-1.733q0-.222.103-.332.106-.11.276-.11.178 0 .282.11.106.11.106.332v1.772q0 .303.07.507.072.2.253.314.18.11.506.11.45 0 .635-.225.186-.23.186-.69v-1.788q0-.224.104-.332.103-.11.276-.11.173 0 .28.11.108.108.108.332V47.1q0 .423-.088.705-.085.283-.326.497-.206.182-.48.266-.274.083-.64.083-.437 0-.752-.088-.316-.09-.515-.278-.198-.19-.29-.482-.094-.295-.094-.703zm5.17-.073h-.27V48.2q0 .23-.106.34-.106.11-.276.11-.184 0-.284-.114-.1-.115-.1-.336v-2.81q0-.24.11-.346.11-.107.36-.107h1.247q.258 0 .44.022.185.02.332.085.178.072.315.207.137.134.207.313.072.177.072.377 0 .408-.24.652-.238.244-.723.346.204.105.39.31.186.203.33.435.148.23.228.416.082.184.082.254 0 .072-.05.145-.045.07-.128.11-.083.042-.19.042-.13 0-.218-.06-.088-.058-.152-.147-.062-.09-.17-.264l-.308-.493q-.166-.272-.297-.414-.13-.142-.264-.194-.134-.052-.338-.052zm.438-1.534h-.708v1.004h.687q.277 0 .465-.045.19-.047.287-.157.1-.112.1-.306 0-.152-.08-.267-.08-.117-.222-.174-.134-.055-.53-.055zm4.256 3.095h-1.158q-.25 0-.36-.106-.105-.11-.105-.348v-2.755q0-.243.11-.348.11-.107.355-.107h1.227q.272 0 .47.032.2.033.357.125.134.078.238.198.103.117.157.262.054.143.054.303 0 .55-.568.805.747.23.747.895 0 .308-.163.555-.163.245-.44.363-.172.07-.397.1-.225.027-.524.027zm-.057-1.627h-.798v1.07h.824q.777 0 .777-.543 0-.277-.2-.402-.203-.125-.603-.125zm-.798-1.48v.947h.702q.287 0 .442-.052.157-.053.24-.2.065-.106.065-.236 0-.277-.204-.367-.204-.093-.623-.093zm5.717 2.7-.18-.453h-1.54l-.18.462q-.107.27-.182.366-.074.093-.245.093-.145 0-.256-.1-.11-.1-.11-.23 0-.073.025-.151.026-.08.085-.22l.97-2.34.097-.24q.06-.143.124-.236.067-.094.173-.15.11-.06.266-.06.16 0 .266.06.11.056.173.147.068.09.11.197.048.103.118.278l.99 2.325q.115.266.115.386 0 .126-.11.23-.11.104-.264.104-.09 0-.155-.03t-.11-.083q-.043-.054-.094-.162-.05-.11-.086-.194zm-1.518-1h1.13l-.57-1.49zm4.128-1.82 1.475 2.124V45.34q0-.21.093-.312.095-.106.255-.106.166 0 .26.106.097.103.097.312v2.835q0 .474-.413.474-.104 0-.186-.03-.083-.027-.155-.088-.073-.06-.135-.143-.062-.083-.124-.17l-1.438-2.1v2.113q0 .207-.1.312-.1.106-.26.106-.162 0-.26-.106-.1-.108-.1-.312v-2.78q0-.177.043-.278.05-.11.163-.18.113-.07.245-.07.103 0 .176.03.074.033.13.087.056.054.112.14.06.086.122.18z"/><path style="paint-order:fill markers stroke" d="M90.684 321.63h1.732v1.64h-1.732z" transform="matrix(.27152 0 0 .2584 133.14 -38.172)"/><path style="font-variant-ligatures:none;paint-order:fill markers stroke" d="M105.81 321.58h1.732v14.185h-1.732z" transform="matrix(.27152 0 0 .2584 133.14 -38.172)"/></g><g style="font-variant-ligatures:none" aria-label="CRUISE"><path d="M156.922 52.242q0 .172-.09.374-.087.2-.28.393-.19.192-.487.312t-.692.12q-.3 0-.545-.053-.246-.055-.447-.168-.2-.115-.367-.302-.15-.17-.256-.38-.106-.21-.16-.45-.05-.237-.05-.505 0-.435.13-.78.135-.343.383-.587.248-.246.58-.373.334-.128.71-.128.46 0 .82.174.359.175.55.433.19.256.19.484 0 .126-.092.222-.093.095-.224.095-.148 0-.222-.066-.073-.066-.163-.23-.15-.267-.354-.4-.202-.132-.5-.132-.471 0-.753.342-.28.34-.28.97 0 .42.125.7.124.279.35.417.229.137.534.137.33 0 .558-.154.23-.158.346-.46.05-.143.12-.23.073-.092.234-.092.136 0 .235.09.098.092.098.227zm1.685-.432h-.27v1.178q0 .232-.105.342-.105.11-.276.11-.183 0-.284-.115-.1-.115-.1-.337v-2.82q0-.24.11-.347.11-.108.36-.108h1.247q.258 0 .442.023.183.02.33.085.18.072.315.207.137.135.207.315.072.178.072.378 0 .41-.24.655-.237.245-.723.347.204.105.39.31.186.205.33.437.148.23.228.418.083.185.083.255 0 .072-.05.145-.046.07-.13.11-.081.042-.19.042-.13 0-.217-.06-.088-.057-.152-.147-.062-.09-.17-.265l-.308-.495q-.165-.273-.297-.415-.13-.143-.264-.195-.134-.053-.338-.053zm.44-1.54h-.71v1.008h.688q.277 0 .465-.045.19-.047.287-.157.1-.113.1-.308 0-.152-.08-.267-.08-.118-.22-.175-.136-.055-.53-.055z"/><path style="font-variant-ligatures:none;paint-order:fill markers stroke" d="M89.978 340.12h1.732v1.64h-1.732z" transform="matrix(.27152 0 0 .2584 133.14 -38.172)"/><path d="M161.436 51.89v-1.733q0-.22.1-.33.1-.112.266-.112.17 0 .27.11.103.11.103.332v1.773q0 .302.067.506.07.202.244.315.175.11.488.11.434 0 .613-.226.18-.228.18-.69v-1.788q0-.223.1-.33.1-.112.265-.112.167 0 .27.11.104.11.104.332v1.734q0 .422-.085.705-.082.283-.313.497-.2.182-.464.265-.264.084-.617.084-.42 0-.725-.09-.304-.09-.496-.276-.19-.19-.28-.482-.09-.295-.09-.703zm3.793 1.107v-2.84q0-.22.105-.332.106-.11.274-.11.173 0 .28.11.108.11.108.332v2.84q0 .223-.11.334-.105.11-.278.11-.165 0-.274-.11-.105-.113-.105-.334zm4.466-.698q0 .327-.178.587-.176.26-.517.408-.34.148-.808.148-.56 0-.925-.202-.258-.145-.42-.386-.16-.243-.16-.472 0-.132.094-.226.098-.096.248-.096.122 0 .204.074.086.074.145.22.072.17.155.287.085.115.238.19.152.075.4.075.34 0 .553-.15.214-.152.214-.378 0-.18-.116-.29-.114-.114-.297-.173-.18-.06-.486-.125-.408-.09-.684-.21-.274-.124-.437-.333-.16-.212-.16-.524 0-.297.17-.528.17-.232.494-.354.323-.126.76-.126.348 0 .6.084.257.08.425.22.168.134.245.284.078.15.078.292 0 .13-.098.236-.096.104-.24.104-.132 0-.202-.062-.067-.064-.147-.206-.104-.204-.248-.318-.145-.115-.465-.115-.297 0-.48.125-.182.123-.182.298 0 .108.062.187.062.078.17.135.11.056.22.088.112.032.367.094.32.07.58.157.26.086.44.21.184.122.285.31.103.188.103.46zm3.196-2.014h-1.766v.9h1.626q.18 0 .267.078.09.076.09.2 0 .126-.088.206-.087.077-.27.077h-1.625v1.043h1.827q.184 0 .277.082.095.08.095.215 0 .13-.095.213-.093.08-.277.08h-2.13q-.256 0-.37-.108-.11-.107-.11-.347v-2.756q0-.16.05-.26.05-.102.155-.147.108-.048.275-.048h2.07q.186 0 .276.08.092.078.092.205 0 .13-.092.21-.09.078-.277.078z"/><path style="font-variant-ligatures:none;paint-order:fill markers stroke" d="M137.01 340.12h1.732v14.185h-1.732z" transform="matrix(.27152 0 0 .2584 133.14 -38.172)"/></g><g style="font-variant-ligatures:none" aria-label="SHIP"><path d="M156.607 57.09q0 .327-.18.587-.174.26-.515.408-.34.148-.81.148-.56 0-.923-.202-.26-.145-.42-.386-.16-.243-.16-.472 0-.133.094-.226.098-.096.248-.096.12 0 .204.074.085.074.145.22.072.17.155.286.085.116.237.192.153.074.4.074.342 0 .553-.15.215-.153.215-.38 0-.18-.116-.29-.114-.112-.297-.171-.18-.06-.486-.125-.408-.09-.685-.212-.273-.123-.436-.332-.16-.21-.16-.523 0-.298.17-.53.17-.23.494-.353.322-.125.76-.125.348 0 .6.083.257.082.424.22.168.134.246.284.077.15.077.293 0 .13-.098.236-.095.103-.24.103-.132 0-.2-.06-.07-.065-.15-.208-.102-.204-.247-.317-.144-.115-.465-.115-.297 0-.48.125-.18.123-.18.297 0 .11.06.187.063.08.17.135.11.057.22.09.112.03.368.092.32.072.58.158.26.086.44.21.184.122.284.31.104.188.104.46zm3.578-2.143v1.033h1.656v-1.033q0-.22.103-.33.106-.112.277-.112.173 0 .28.11.107.11.107.332v2.84q0 .223-.108.334-.11.11-.28.11-.172 0-.276-.11-.103-.113-.103-.334v-1.212h-1.656v1.212q0 .223-.108.334-.11.11-.28.11-.172 0-.276-.11-.103-.113-.103-.334v-2.84q0-.22.1-.33.104-.112.28-.112.173 0 .28.11.107.11.107.332zm5.937 2.84v-2.84q0-.22.106-.331.106-.11.274-.11.173 0 .28.11.107.108.107.332v2.84q0 .223-.108.334-.106.11-.28.11-.165 0-.273-.11-.106-.113-.106-.335zm5.745-1.04h-.702v1.034q0 .22-.11.335-.107.115-.273.115-.173 0-.28-.112-.105-.115-.105-.333v-2.81q0-.245.117-.35.116-.103.37-.103h.983q.437 0 .672.064.232.062.4.207.17.144.26.353.086.21.086.47 0 .557-.356.845-.357.286-1.062.286zm-.186-1.67h-.516v1.114h.516q.27 0 .452-.054.184-.055.28-.18.095-.124.095-.325 0-.24-.147-.393-.166-.162-.68-.162z"/><path style="font-variant-ligatures:none;paint-order:fill markers stroke" d="M137.21 358.73h1.732v1.64h-1.732z" transform="matrix(.27152 0 0 .2584 133.14 -38.172)"/></g></g><g transform="matrix(.57207 0 0 .54442 -90.281 -350.83)" stroke-width=".033" style="font-variant-ligatures:none;white-space:pre;shape-inside:url(#rect12816-2)" aria-label="ANALYSIS"><path d="m464.92 747.65-.131-.345h-1.118l-.13.353q-.078.206-.132.279-.055.071-.178.071-.105 0-.186-.077-.08-.077-.08-.174 0-.056.018-.116.02-.06.062-.167l.703-1.785.072-.184q.043-.109.09-.18.048-.071.125-.114.079-.045.193-.045.117 0 .193.045.08.043.126.112.049.07.08.15.034.079.085.212l.718 1.774q.085.202.085.294 0 .096-.081.176-.079.079-.191.079-.066 0-.113-.024-.047-.023-.078-.062-.032-.041-.07-.124zm-1.102-.763h.82l-.414-1.134zm3.102-1.397 1.07 1.62v-1.635q0-.16.068-.238.07-.08.186-.08.12 0 .189.08.07.079.07.238v2.162q0 .362-.3.362-.076 0-.136-.023-.06-.02-.112-.067-.053-.047-.098-.11l-.09-.129-1.044-1.6v1.61q0 .157-.073.238-.073.08-.187.08-.119 0-.19-.08-.071-.083-.071-.238v-2.12q0-.136.03-.212.036-.085.118-.137.083-.055.178-.055.075 0 .128.025.054.024.093.065.042.042.083.107zm4.18 2.16-.131-.345h-1.118l-.13.353q-.078.206-.132.279-.055.071-.178.071-.105 0-.186-.077-.08-.077-.08-.174 0-.056.018-.116.02-.06.062-.167l.703-1.785.072-.184q.043-.109.09-.18.048-.071.125-.114.079-.045.193-.045.116 0 .193.045.08.043.126.112.049.07.08.15.034.079.085.212l.718 1.774q.084.202.084.294 0 .096-.08.176-.079.079-.191.079-.066 0-.113-.024-.047-.023-.079-.062-.032-.041-.07-.124zm-1.102-.763h.82l-.414-1.134zm2.922-1.387v2h1.129q.135 0 .206.066.073.066.073.165 0 .101-.071.165-.071.062-.208.062h-1.345q-.182 0-.262-.08-.079-.081-.079-.261V745.5q0-.169.075-.253.077-.085.2-.085.126 0 .203.085.079.082.079.253zm2.18 2.16v-.872l-.671-1.04q-.088-.14-.126-.22-.035-.078-.035-.137 0-.095.073-.164.075-.07.183-.07.115 0 .173.066.06.063.178.257l.514.834.52-.834.078-.13q.032-.052.07-.097.039-.047.085-.072.047-.024.115-.024.105 0 .174.07.071.067.071.157 0 .073-.035.146-.036.073-.122.203l-.688 1.055v.872q0 .17-.079.255-.079.084-.2.084-.124 0-.201-.082-.077-.085-.077-.257zm4.06-.53q0 .25-.13.448-.127.199-.374.311-.248.113-.587.113-.407 0-.671-.154-.188-.11-.306-.294-.116-.186-.116-.36 0-.101.07-.173.07-.073.18-.073.087 0 .147.056.062.057.105.167.053.131.113.22.062.088.172.146.11.056.29.056.248 0 .402-.114.156-.117.156-.29 0-.136-.085-.22-.082-.087-.215-.132-.132-.045-.353-.095-.296-.07-.497-.161-.198-.094-.316-.253-.117-.162-.117-.4 0-.227.124-.403.124-.176.358-.27.234-.096.551-.096.253 0 .437.064.186.062.308.167.122.103.178.218.056.114.056.223 0 .099-.071.18-.07.078-.175.078-.095 0-.146-.047-.049-.048-.107-.157-.075-.156-.18-.242-.105-.088-.337-.088-.216 0-.349.096-.131.093-.131.226 0 .083.045.143.045.06.124.103.078.043.159.068.08.024.266.07.233.055.42.12.19.066.32.16.134.094.207.238.075.143.075.35zm.77.53v-2.165q0-.17.077-.254.077-.084.199-.084.125 0 .202.084.079.083.079.254v2.165q0 .17-.079.255-.077.084-.202.084-.12 0-.2-.084-.076-.086-.076-.255zm3.54-.53q0 .25-.13.448-.127.199-.374.311-.248.113-.587.113-.407 0-.671-.154-.188-.11-.306-.294-.116-.186-.116-.36 0-.101.07-.173.07-.073.18-.073.087 0 .147.056.062.057.105.167.053.131.113.22.062.088.172.146.11.056.29.056.248 0 .402-.114.156-.117.156-.29 0-.136-.085-.22-.082-.087-.215-.132-.132-.045-.353-.095-.296-.07-.497-.161-.198-.094-.316-.253-.117-.162-.117-.4 0-.227.124-.403.124-.176.358-.27.234-.096.551-.096.253 0 .437.064.186.062.308.167.122.103.178.218.056.114.056.223 0 .099-.071.18-.07.078-.175.078-.095 0-.146-.047-.049-.048-.107-.157-.075-.156-.18-.242-.105-.088-.337-.088-.216 0-.349.096-.131.093-.131.226 0 .083.045.143.045.06.124.103.078.043.159.068.08.024.266.07.233.055.42.12.19.066.32.16.134.094.207.238.075.143.075.35z"/><path style="paint-order:fill markers stroke" d="M472.37 747.69h.386v.27h-.386z"/></g><g transform="matrix(.52205 0 0 .54442 -67.101 -347.968)" stroke-width=".035" style="font-variant-ligatures:none;white-space:pre;shape-inside:url(#rect12816-2-5)" aria-label="SOLUTIONS"><path d="M465.25 747.13q0 .25-.13.448-.127.199-.374.311-.248.113-.587.113-.407 0-.671-.154-.188-.11-.306-.294-.116-.186-.116-.36 0-.101.07-.173.07-.073.18-.073.087 0 .147.056.062.057.105.167.053.131.113.22.062.088.172.146.11.056.29.056.248 0 .402-.114.156-.117.156-.29 0-.136-.085-.22-.082-.087-.215-.132-.132-.045-.353-.095-.296-.07-.497-.161-.198-.094-.316-.253-.117-.162-.117-.4 0-.227.124-.403.124-.176.358-.27.234-.096.551-.096.253 0 .437.064.186.062.308.167.122.103.178.218.056.114.056.223 0 .099-.071.18-.07.078-.175.078-.095 0-.146-.047-.049-.048-.107-.157-.075-.156-.18-.242-.105-.088-.337-.088-.216 0-.349.096-.131.093-.131.226 0 .083.045.143.045.06.124.103.078.043.159.068.08.024.266.07.233.055.42.12.19.066.32.16.134.094.207.238.075.143.075.35zm1.68-1.97q.427 0 .733.174.308.173.465.493.158.32.158.75 0 .32-.087.58-.086.26-.258.452-.173.19-.424.292-.251.101-.576.101-.322 0-.577-.103-.255-.105-.426-.294-.17-.19-.258-.456-.087-.266-.087-.575 0-.317.09-.582.092-.264.265-.45.172-.185.42-.283.247-.099.562-.099zm.791 1.414q0-.302-.097-.523-.098-.222-.28-.334-.18-.115-.414-.115-.167 0-.31.064-.14.062-.243.182-.101.12-.161.307-.058.186-.058.419 0 .234.058.423.06.19.167.315.108.124.247.186.14.062.307.062.214 0 .392-.107.18-.107.285-.33.107-.223.107-.55zm1.589-1.074v2h1.129q.135 0 .206.066.073.066.073.165 0 .101-.071.165-.072.062-.208.062h-1.345q-.182 0-.262-.08-.079-.081-.079-.261V745.5q0-.169.075-.253.077-.085.2-.085.126 0 .203.085.079.082.079.253z"/><path style="font-variant-ligatures:none;white-space:pre;shape-inside:url(#rect12816-2);paint-order:fill markers stroke" d="M468.75 747.68h.341v.281h-.341z"/><path d="M470.89 746.82v-1.322q0-.169.075-.253.077-.084.2-.084.13 0 .205.084.077.084.077.253v1.352q0 .23.05.386.053.154.184.24.131.085.368.085.326 0 .46-.173.136-.174.136-.527v-1.363q0-.17.075-.253.075-.084.2-.084.126 0 .203.084.079.083.079.253v1.322q0 .323-.064.538-.062.216-.236.379-.15.139-.349.202-.199.064-.465.064-.317 0-.546-.067-.228-.07-.373-.212-.144-.145-.211-.368-.068-.225-.068-.536zm4.7-1.15h-.607v1.997q0 .172-.077.257-.077.082-.2.082-.123 0-.202-.084-.076-.085-.076-.255v-1.997h-.608q-.142 0-.212-.062-.07-.064-.07-.167 0-.107.072-.169.073-.061.21-.061h1.77q.144 0 .214.063.07.064.07.167 0 .103-.07.167-.072.062-.214.062zm.64 1.99v-2.165q0-.17.077-.254.077-.084.199-.084.125 0 .202.084.079.083.079.254v2.165q0 .17-.079.255-.077.084-.202.084-.12 0-.2-.084-.076-.086-.076-.255zm2.39-2.5q.427 0 .733.174.308.173.465.493.158.32.158.75 0 .32-.087.58-.086.26-.258.452-.173.19-.424.292-.251.101-.576.101-.322 0-.577-.103-.255-.105-.426-.294-.17-.19-.258-.456-.087-.266-.087-.575 0-.317.09-.582.092-.264.265-.45.172-.185.42-.283.247-.099.562-.099zm.791 1.414q0-.302-.097-.523-.098-.222-.28-.334-.18-.115-.414-.115-.167 0-.31.064-.14.062-.243.182-.101.12-.161.307-.058.186-.058.419 0 .234.058.423.06.19.167.315.108.124.247.186.14.062.307.062.214 0 .392-.107.18-.107.285-.33.107-.223.107-.55zm1.759-1.084 1.07 1.62v-1.635q0-.16.068-.238.07-.08.186-.08.12 0 .189.08.07.079.07.238v2.162q0 .362-.3.362-.076 0-.136-.023-.06-.02-.112-.067-.053-.047-.098-.11l-.09-.129-1.044-1.6v1.61q0 .157-.073.238-.073.08-.187.08-.119 0-.19-.08-.071-.083-.071-.238v-2.12q0-.136.03-.212.036-.085.118-.137.083-.055.178-.055.075 0 .128.025.054.024.093.065.042.042.083.107zm4.28 1.64q0 .25-.13.448-.127.199-.374.311-.248.113-.587.113-.407 0-.671-.154-.188-.11-.306-.294-.116-.186-.116-.36 0-.101.07-.173.07-.073.18-.073.087 0 .147.056.062.057.105.167.053.131.113.22.062.088.172.146.11.056.29.056.248 0 .402-.114.156-.117.156-.29 0-.136-.085-.22-.082-.087-.215-.132-.132-.045-.353-.095-.296-.07-.497-.161-.198-.094-.316-.253-.117-.162-.117-.4 0-.227.124-.403.124-.176.358-.27.234-.096.551-.096.253 0 .437.064.186.062.308.167.122.103.178.218.056.114.056.223 0 .099-.071.18-.07.078-.175.078-.095 0-.146-.047-.049-.048-.107-.157-.075-.156-.18-.242-.105-.088-.337-.088-.216 0-.349.096-.131.093-.131.226 0 .083.045.143.045.06.124.103.078.043.159.068.08.024.266.07.233.055.42.12.19.066.32.16.134.094.207.238.075.143.075.35z"/></g><path d="M167.48 46.28a.643.612 0 0 0-.642.613.643.612 0 0 0 .643.612.643.612 0 0 0 .643-.612.643.612 0 0 0-.643-.612zm0 .12a.517.492 0 0 1 .518.493.517.492 0 0 1-.517.492.517.492 0 0 1-.517-.492.517.492 0 0 1 .517-.492z" style="stroke-width:.264879;paint-order:fill markers stroke" transform="translate(18.336 4.933)"/><path d="M156.416 40.477h-.046v.199c0 .026-.006.045-.018.058a.062.059 0 0 1-.048.018.06.058 0 0 1-.049-.02c-.011-.012-.017-.031-.017-.056v-.552l.295-.001a.63.63 0 0 1 .076.004.189.18 0 0 1 .111.049.18.172 0 0 1 .048.117.15.15 0 0 1-.041.11.237.237 0 0 1-.125.059.24.23 0 0 1 .067.052.54.54 0 0 1 .11.188.047.047 0 0 1-.007.024.055.052 0 0 1-.023.019.069.066 0 0 1-.033.007.063.06 0 0 1-.037-.01.1.096 0 0 1-.026-.025 1.253 1.193 0 0 1-.03-.045l-.052-.083a.471.449 0 0 0-.051-.07.124.118 0 0 0-.046-.033.156.149 0 0 0-.058-.01zm.076-.26h-.122v.17h.118a.348.348 0 0 0 .08-.008.093.093 0 0 0 .05-.026.08.076 0 0 0 .016-.052.083.079 0 0 0-.051-.075.301.301 0 0 0-.091-.01z" style="font-variant-ligatures:none" aria-label="R" transform="translate(18.336 4.933)"/><path d="M167.794 47.017q0 .03-.02.063-.017.034-.055.064t-.095.049q-.058.018-.13.018-.153 0-.24-.084-.086-.086-.086-.23 0-.096.04-.17.04-.074.114-.115.074-.04.178-.04.064 0 .118.017.053.018.09.046.038.029.057.06.02.033.02.06 0 .029-.022.048-.022.02-.053.02-.02 0-.035-.01-.013-.01-.03-.033-.03-.044-.064-.065-.032-.022-.083-.022-.074 0-.118.054-.045.055-.045.149 0 .044.011.082.012.037.034.063.021.026.052.04.031.013.068.013.05 0 .085-.022.036-.022.063-.067.015-.026.032-.04.018-.016.044-.016.03 0 .05.022.02.022.02.047z" style="font-variant-ligatures:none" aria-label="c" transform="translate(18.336 4.933)"/><path d="M156.509 39.827a.643.612 0 0 0-.643.61.643.612 0 0 0 .643.613.643.612 0 0 0 .642-.612.643.612 0 0 0-.642-.612zm0 .119a.517.492 0 0 1 .517.492.517.492 0 0 1-.517.492.517.492 0 0 1-.517-.492.517.492 0 0 1 .517-.492z" style="stroke-width:.264879;paint-order:fill markers stroke" transform="translate(18.336 4.933)"/><g aria-label="urbancruiseship.org Exhibit constructed by Richard Burd 2-2-2023" style="font-size:4.93889px;line-height:1.25;font-family:Roboto;-inkscape-font-specification:'Roboto, Normal';white-space:pre;inline-size:52.7643;display:inline;stroke-width:.264583"><path d="M135.635 64.936q-.26.307-.765.307-.417 0-.636-.242-.217-.243-.22-.718v-1.698h.446v1.686q0 .593.483.593.51 0 .68-.381v-1.898h.446v2.61h-.425zM138.008 62.985q-.102-.017-.22-.017-.439 0-.595.374v1.852h-.446v-2.609h.434l.007.301q.219-.35.622-.35.13 0 .198.035zM140.627 63.919q0 .598-.275.962-.275.362-.738.362-.495 0-.765-.35l-.021.301h-.41V61.49h.446v1.382q.27-.335.745-.335t.745.36q.273.358.273.983zm-.446-.051q0-.456-.176-.704-.177-.249-.507-.249-.441 0-.634.41v1.129q.205.41.639.41.32 0 .5-.248.178-.249.178-.748zM142.8 65.194q-.039-.077-.063-.275-.311.324-.743.324-.386 0-.634-.217-.246-.22-.246-.555 0-.408.309-.632.31-.227.873-.227h.434v-.205q0-.234-.14-.371-.14-.14-.413-.14-.238 0-.4.12-.162.121-.162.292h-.448q0-.195.137-.376.14-.183.377-.29.238-.105.523-.105.45 0 .706.226.256.225.266.62v1.201q0 .36.091.572v.038zm-.74-.34q.209 0 .397-.108.188-.109.273-.282v-.536h-.35q-.82 0-.82.48 0 .21.14.328.14.118.36.118zM144.297 62.585l.015.328q.299-.376.781-.376.827 0 .834.933v1.724h-.446v-1.726q-.002-.283-.13-.418-.125-.135-.393-.135-.217 0-.381.116t-.256.304v1.86h-.446v-2.61zM147.647 64.878q.239 0 .417-.144.178-.145.198-.362h.422q-.012.224-.155.427-.142.202-.38.323-.237.12-.502.12-.533 0-.85-.354-.313-.357-.313-.974v-.075q0-.381.14-.678.14-.296.4-.46.263-.164.62-.164.44 0 .729.263.291.262.31.682h-.421q-.02-.253-.193-.415-.171-.164-.425-.164-.34 0-.528.246-.185.244-.185.707v.084q0 .451.185.695.186.243.53.243zM150.447 62.985q-.102-.017-.22-.017-.439 0-.595.374v1.852h-.447v-2.609h.434l.007.301q.22-.35.623-.35.13 0 .197.035zM152.468 64.936q-.26.307-.765.307-.417 0-.637-.242-.217-.243-.219-.718v-1.698h.446v1.686q0 .593.482.593.512 0 .68-.381v-1.898h.447v2.61h-.425zM154.064 65.194h-.446v-2.609h.446zm-.482-3.301q0-.109.065-.183.067-.075.198-.075.13 0 .197.075.068.074.068.183 0 .108-.068.18-.067.073-.197.073t-.198-.072q-.065-.073-.065-.181zM156.297 64.502q0-.18-.137-.28-.135-.1-.475-.173-.338-.072-.538-.174-.198-.101-.294-.241-.095-.14-.095-.333 0-.32.27-.542.273-.222.695-.222.444 0 .719.229.277.229.277.586h-.448q0-.183-.157-.316-.155-.133-.39-.133-.244 0-.382.106-.137.107-.137.278 0 .161.127.243.128.082.461.157.335.075.543.179.207.103.306.25.101.145.101.355 0 .35-.28.562-.28.21-.725.21-.314 0-.555-.111-.241-.111-.379-.31-.135-.2-.135-.43h.446q.013.224.179.356.169.13.444.13.253 0 .405-.1.154-.105.154-.276zM158.407 65.243q-.53 0-.863-.348-.333-.35-.333-.933v-.082q0-.388.147-.692.15-.306.415-.478.268-.173.579-.173.509 0 .79.335.283.335.283.96v.185h-1.768q.01.386.225.625.217.236.55.236.236 0 .4-.096.164-.097.287-.256l.272.212q-.328.505-.984.505zm-.055-2.34q-.27 0-.454.198-.183.195-.226.55h1.307v-.034q-.02-.34-.184-.526-.164-.188-.443-.188zM161.46 64.502q0-.18-.137-.28-.135-.1-.475-.173-.338-.072-.538-.174-.198-.101-.294-.241-.094-.14-.094-.333 0-.32.27-.542.272-.222.694-.222.444 0 .719.229.277.229.277.586h-.448q0-.183-.157-.316-.154-.133-.39-.133-.244 0-.382.106-.137.107-.137.278 0 .161.128.243.127.082.46.157.335.075.543.179.207.103.306.25.101.145.101.355 0 .35-.28.562-.28.21-.725.21-.314 0-.555-.111-.241-.111-.379-.31-.135-.2-.135-.43h.447q.012.224.178.356.169.13.444.13.253 0 .405-.1.154-.105.154-.276zM162.934 62.9q.296-.363.771-.363.828 0 .835.933v1.724h-.446v-1.726q-.002-.283-.13-.418-.126-.135-.394-.135-.217 0-.38.116-.165.116-.256.304v1.86h-.446V61.49h.446zM165.693 65.194h-.447v-2.609h.447zm-.483-3.301q0-.109.065-.183.068-.075.198-.075t.198.075q.067.074.067.183 0 .108-.067.18-.068.073-.198.073t-.198-.072q-.065-.073-.065-.181zM168.61 63.919q0 .595-.272.96-.272.364-.738.364-.475 0-.747-.302v1.257h-.447v-3.613h.408l.022.29q.272-.338.757-.338.47 0 .743.354.275.355.275.987zm-.446-.051q0-.441-.188-.697-.188-.256-.516-.256-.405 0-.607.36v1.247q.2.356.612.356.32 0 .509-.253.19-.255.19-.757zM169.187 64.96q0-.115.067-.193.07-.077.208-.077.137 0 .207.077.073.078.073.193 0 .111-.073.186-.07.075-.207.075-.138 0-.208-.075-.067-.075-.067-.186zM170.359 63.866q0-.384.15-.69.151-.306.42-.473.27-.166.614-.166.533 0 .861.369.33.369.33.981v.032q0 .38-.147.685-.144.301-.417.47-.27.169-.622.169-.53 0-.861-.37-.328-.368-.328-.976zm.449.053q0 .434.2.697.202.262.54.262.34 0 .54-.265.2-.268.2-.747 0-.43-.205-.695-.202-.268-.54-.268-.33 0-.533.263-.202.263-.202.753zM174.555 62.985q-.101-.017-.22-.017-.438 0-.595.374v1.852h-.446v-2.609h.434l.007.301q.22-.35.622-.35.13 0 .198.035zM174.813 63.868q0-.61.282-.97.282-.361.748-.361.477 0 .745.337l.022-.289h.407v2.547q0 .506-.301.798-.3.292-.806.292-.282 0-.552-.12-.27-.122-.412-.331l.231-.268q.287.355.702.355.326 0 .507-.184.183-.183.183-.516v-.224q-.268.309-.73.309-.46 0-.744-.37-.282-.368-.282-1.005zm.449.05q0 .442.18.695.181.25.507.25.422 0 .62-.383v-1.19q-.205-.375-.615-.375-.326 0-.509.254-.183.253-.183.75zM136.079 69.745h-1.522v1.244h1.767v.379h-2.23v-3.511h2.206v.38h-1.743v1.13h1.522zM137.706 69.711l.58-.952h.52l-.854 1.29.88 1.319h-.516l-.602-.977-.603.977h-.519l.88-1.32-.853-1.29h.516zM139.725 69.075q.296-.365.772-.365.827 0 .834.934v1.724h-.446V69.64q-.002-.282-.13-.417-.126-.135-.394-.135-.217 0-.38.116-.165.116-.256.304v1.859h-.446v-3.704h.446zM142.484 71.368h-.446v-2.61h.446zM142 68.067q0-.109.065-.184.068-.075.198-.075t.198.075q.067.075.067.184 0 .108-.067.18-.068.073-.198.073t-.198-.073q-.065-.072-.065-.18zM145.406 70.092q0 .598-.274.962-.275.362-.738.362-.495 0-.765-.35l-.022.302h-.41v-3.704h.447v1.382q.27-.336.745-.336t.745.36q.272.359.272.984zm-.446-.05q0-.456-.176-.705-.176-.248-.506-.248-.441 0-.634.41v1.129q.205.41.639.41.32 0 .499-.249.178-.248.178-.747zM146.453 71.368h-.446v-2.61h.446zm-.482-3.301q0-.109.065-.184.067-.075.198-.075.13 0 .197.075.068.075.068.184 0 .108-.068.18-.067.073-.197.073t-.198-.073q-.065-.072-.065-.18zM147.772 68.127v.632h.487v.344h-.487v1.619q0 .156.065.236.065.077.222.077.077 0 .212-.029v.362q-.176.048-.342.048-.3 0-.451-.18-.152-.182-.152-.514v-1.618h-.475v-.345h.475v-.632zM151.05 71.052q.238 0 .417-.145.178-.144.197-.361h.423q-.013.224-.155.426-.142.203-.38.324-.237.12-.502.12-.533 0-.85-.354-.313-.357-.313-.975v-.074q0-.381.14-.678.14-.297.4-.46.263-.165.62-.165.439 0 .728.263.292.263.312.683h-.423q-.019-.254-.192-.415-.172-.164-.425-.164-.34 0-.528.246-.186.243-.186.706v.085q0 .45.186.694.186.244.53.244zM152.47 70.04q0-.384.15-.69.151-.307.42-.473.27-.167.614-.167.533 0 .861.37.33.368.33.98v.032q0 .381-.147.685-.144.302-.417.47-.27.17-.622.17-.53 0-.861-.37-.328-.369-.328-.976zm.449.052q0 .434.2.697.202.263.54.263.34 0 .54-.265.2-.268.2-.748 0-.429-.205-.694-.202-.268-.54-.268-.33 0-.533.263-.202.263-.202.752zM155.827 68.759l.014.328q.3-.377.782-.377.827 0 .834.934v1.724h-.446V69.64q-.002-.282-.13-.417-.126-.135-.393-.135-.217 0-.381.116t-.256.304v1.859h-.446v-2.61zM159.65 70.676q0-.181-.138-.28-.135-.101-.475-.174-.338-.072-.538-.173-.198-.101-.294-.241-.094-.14-.094-.333 0-.32.27-.543.272-.222.694-.222.444 0 .719.23.277.229.277.586h-.448q0-.184-.157-.316-.154-.133-.39-.133-.244 0-.382.106-.137.106-.137.277 0 .162.128.244.127.082.46.157.335.074.543.178.207.104.306.251.101.145.101.354 0 .35-.28.562-.28.21-.725.21-.314 0-.555-.11-.241-.112-.379-.31-.135-.2-.135-.431h.446q.013.224.179.357.169.13.444.13.253 0 .405-.101.154-.104.154-.275zM161.282 68.127v.632h.487v.344h-.487v1.619q0 .156.065.236.065.077.222.077.077 0 .212-.029v.362q-.176.048-.342.048-.3 0-.451-.18-.152-.182-.152-.514v-1.618h-.475v-.345h.475v-.632zM163.551 69.159q-.101-.017-.22-.017-.438 0-.595.374v1.852h-.446v-2.61h.434l.007.302q.22-.35.622-.35.13 0 .198.034zM165.572 71.11q-.26.306-.764.306-.418 0-.637-.241-.217-.244-.22-.719V68.76h.447v1.685q0 .594.482.594.511 0 .68-.381v-1.898h.446v2.609h-.424zM167.73 71.052q.24 0 .418-.145.178-.144.197-.361h.422q-.012.224-.154.426-.142.203-.381.324-.236.12-.502.12-.533 0-.848-.354-.314-.357-.314-.975v-.074q0-.381.14-.678.14-.297.4-.46.263-.165.62-.165.439 0 .728.263.292.263.311.683h-.422q-.019-.254-.193-.415-.17-.164-.424-.164-.34 0-.528.246-.186.243-.186.706v.085q0 .45.186.694.186.244.53.244zM169.874 68.127v.632h.487v.344h-.487v1.619q0 .156.065.236.065.077.222.077.077 0 .212-.029v.362q-.176.048-.342.048-.299 0-.45-.18-.153-.182-.153-.514v-1.618h-.475v-.345h.475v-.632zM171.965 71.416q-.53 0-.863-.347-.333-.35-.333-.933v-.082q0-.389.147-.692.15-.307.415-.478.268-.174.579-.174.508 0 .79.336.283.335.283.96v.185h-1.768q.01.386.224.625.217.236.55.236.237 0 .4-.096.165-.097.288-.256l.272.212q-.328.504-.984.504zm-.055-2.339q-.27 0-.454.198-.183.195-.226.55h1.307v-.034q-.02-.34-.184-.526-.164-.188-.443-.188zM173.39 70.042q0-.6.285-.965.284-.367.745-.367.458 0 .726.314v-1.36h.446v3.704h-.41l-.022-.28q-.267.328-.745.328-.453 0-.74-.371-.285-.372-.285-.97zm.446.05q0 .444.184.695.183.25.506.25.425 0 .62-.38v-1.199q-.2-.369-.615-.369-.328 0-.511.253-.184.253-.184.75zM179.716 70.092q0 .598-.275.962-.275.362-.738.362-.494 0-.764-.35l-.022.302h-.41v-3.704h.446v1.382q.27-.336.745-.336t.745.36q.273.359.273.984zm-.446-.05q0-.456-.176-.705-.176-.248-.507-.248-.441 0-.634.41v1.129q.205.41.64.41.32 0 .498-.249.179-.248.179-.747zM181.105 70.714l.608-1.955h.477l-1.049 3.012q-.243.65-.774.65l-.084-.006-.167-.032v-.361l.12.01q.227 0 .353-.092.128-.092.21-.335l.099-.265-.931-2.58h.487zM135.382 76.121h-.825v1.42h-.466v-3.51h1.163q.593 0 .911.27.321.27.321.786 0 .328-.178.571-.176.244-.492.364l.824 1.49v.03h-.496zm-.825-.378h.711q.345 0 .548-.179.205-.178.205-.477 0-.326-.196-.5-.193-.173-.56-.176h-.708zM137.55 77.542h-.447v-2.61h.447zm-.483-3.302q0-.108.065-.183.068-.075.198-.075t.198.075q.067.075.067.183 0 .109-.067.181-.068.072-.198.072t-.198-.072q-.065-.072-.065-.18zM139.31 77.226q.239 0 .417-.145.179-.145.198-.362h.422q-.012.225-.154.427-.143.203-.381.323-.237.12-.502.12-.533 0-.849-.354-.313-.357-.313-.974v-.075q0-.38.14-.677.14-.297.4-.461.263-.164.62-.164.439 0 .728.263.292.263.311.682h-.422q-.02-.253-.193-.414-.171-.164-.424-.164-.34 0-.529.246-.185.243-.185.706v.085q0 .45.185.694.186.244.531.244zM141.295 75.248q.296-.364.771-.364.828 0 .835.933v1.725h-.446v-1.727q-.002-.282-.13-.417-.126-.135-.394-.135-.217 0-.38.115-.165.116-.256.304v1.86h-.446v-3.705h.446zM145.18 77.542q-.039-.078-.063-.275-.311.323-.743.323-.386 0-.634-.217-.246-.22-.246-.555 0-.407.309-.632.31-.226.873-.226h.434v-.205q0-.234-.14-.372-.14-.14-.412-.14-.24 0-.4.12-.162.122-.162.293h-.449q0-.196.138-.376.14-.184.376-.29.239-.106.523-.106.451 0 .707.227.255.224.265.62v1.2q0 .36.092.572v.039zm-.74-.34q.21 0 .397-.109.188-.108.273-.282v-.535h-.35q-.82 0-.82.48 0 .21.14.327.14.119.36.119zM147.517 75.333q-.102-.017-.22-.017-.439 0-.596.373v1.853h-.446v-2.61h.434l.007.302q.22-.35.623-.35.13 0 .197.034zM147.772 76.215q0-.6.285-.964.284-.367.745-.367.458 0 .726.314v-1.36h.446v3.704h-.41l-.022-.28q-.267.328-.745.328-.453 0-.74-.372-.285-.371-.285-.969zm.446.05q0 .445.184.695.183.251.506.251.425 0 .62-.38v-1.2q-.2-.368-.615-.368-.328 0-.511.253-.184.253-.184.75zM151.959 77.542V74.03h1.148q.571 0 .858.237.29.236.29.699 0 .246-.14.437-.14.188-.381.291.284.08.448.304.167.222.167.53 0 .473-.307.743-.306.27-.865.27zm.463-1.643v1.264h.764q.323 0 .509-.166.188-.17.188-.463 0-.635-.69-.635zm0-.371h.7q.303 0 .484-.152.183-.152.183-.412 0-.29-.169-.42-.169-.133-.513-.133h-.685zM156.574 77.284q-.26.306-.764.306-.417 0-.637-.241-.217-.244-.22-.719v-1.698h.447v1.686q0 .593.482.593.512 0 .68-.38v-1.899h.447v2.61h-.425zM158.947 75.333q-.1-.017-.219-.017-.439 0-.596.373v1.853h-.446v-2.61h.434l.007.302q.22-.35.622-.35.13 0 .198.034zM159.203 76.215q0-.6.285-.964.284-.367.745-.367.458 0 .726.314v-1.36h.446v3.704h-.41l-.022-.28q-.268.328-.745.328-.453 0-.74-.372-.285-.371-.285-.969zm.446.05q0 .445.183.695.184.251.507.251.424 0 .62-.38v-1.2q-.2-.368-.615-.368-.328 0-.512.253-.183.253-.183.75zM165.574 77.542h-2.3v-.321l1.215-1.35q.27-.307.372-.497.103-.193.103-.398 0-.275-.166-.451t-.444-.176q-.333 0-.518.19-.184.188-.184.526h-.446q0-.485.311-.784.314-.299.837-.299.49 0 .774.258.285.256.285.683 0 .518-.66 1.234l-.941 1.02h1.762zM167.021 76.232h-1.176v-.364h1.176zM169.71 77.542h-2.3v-.321l1.215-1.35q.27-.307.371-.497.104-.193.104-.398 0-.275-.166-.451-.167-.176-.444-.176-.333 0-.518.19-.184.188-.184.526h-.446q0-.485.311-.784.314-.299.837-.299.49 0 .774.258.285.256.285.683 0 .518-.661 1.234l-.94 1.02h1.762zM171.157 76.232h-1.177v-.364h1.177zM173.846 77.542h-2.3v-.321l1.215-1.35q.27-.307.371-.497.104-.193.104-.398 0-.275-.166-.451-.167-.176-.444-.176-.333 0-.519.19-.183.188-.183.526h-.446q0-.485.311-.784.314-.299.837-.299.49 0 .774.258.285.256.285.683 0 .518-.661 1.234l-.94 1.02h1.762zM176.52 76.044q0 .784-.267 1.165-.268.38-.837.38-.562 0-.832-.37-.27-.374-.28-1.115v-.595q0-.774.268-1.15.268-.377.84-.377.566 0 .834.364.267.362.275 1.12zm-.446-.61q0-.567-.159-.825-.159-.26-.504-.26-.342 0-.499.258-.157.258-.162.793v.714q0 .57.164.842.167.27.502.27.33 0 .49-.256.161-.256.168-.805zM179.393 77.542h-2.3v-.321l1.215-1.35q.27-.307.37-.497.105-.193.105-.398 0-.275-.167-.451-.166-.176-.444-.176-.332 0-.518.19-.183.188-.183.526h-.446q0-.485.31-.784.314-.299.837-.299.49 0 .775.258.284.256.284.683 0 .518-.66 1.234l-.941 1.02h1.763zM180.514 75.569h.335q.316-.005.497-.166.181-.162.181-.437 0-.617-.615-.617-.29 0-.463.166-.171.164-.171.437h-.446q0-.418.304-.693.306-.277.776-.277.497 0 .779.263.282.263.282.73 0 .23-.15.444-.146.215-.402.321.29.092.446.304.16.212.16.518 0 .473-.31.75-.308.278-.803.278-.494 0-.805-.268-.309-.268-.309-.706h.449q0 .277.18.443.182.167.485.167.324 0 .495-.17.171-.168.171-.484 0-.306-.188-.47-.188-.164-.543-.169h-.335z"/></g><g aria-label="Benefits" style="font-weight:700;font-size:5.64445px;line-height:1.25;font-family:Roboto;-inkscape-font-specification:'Roboto, Bold';stroke-width:.264582"><path d="M.759 18.467v-4.013h1.405q.73 0 1.108.281.378.279.378.819 0 .295-.152.52-.151.224-.421.329.308.077.485.311.179.234.179.573 0 .58-.37.877-.369.297-1.052.303zm.826-1.747v1.083h.709q.292 0 .455-.138.165-.14.165-.386 0-.551-.57-.56zm0-.585h.612q.626-.01.626-.499 0-.272-.16-.39-.157-.122-.499-.122h-.579zM5.681 18.522q-.656 0-1.07-.402-.41-.403-.41-1.072v-.078q0-.449.174-.802.173-.355.49-.545.32-.193.728-.193.612 0 .962.386.352.385.352 1.094v.325H5.01q.038.292.231.468.196.177.493.177.46 0 .72-.334l.391.439q-.18.253-.485.396-.306.141-.678.141zm-.09-2.447q-.238 0-.387.16-.146.16-.187.457h1.108v-.063q-.006-.265-.144-.408-.137-.146-.39-.146zM8.093 15.485l.024.344q.32-.4.858-.4.474 0 .705.28.232.277.237.831v1.927h-.796V16.56q0-.254-.11-.367-.11-.116-.367-.116-.336 0-.505.287v2.103h-.796v-2.982zM11.893 18.522q-.656 0-1.07-.402-.41-.403-.41-1.072v-.078q0-.449.174-.802.173-.355.49-.545.32-.193.728-.193.612 0 .962.386.353.385.353 1.094v.325h-1.9q.04.292.232.468.196.177.494.177.46 0 .719-.334l.391.439q-.179.253-.485.396-.306.141-.678.141zm-.09-2.447q-.238 0-.387.16-.146.16-.187.457h1.108v-.063q-.006-.265-.143-.408-.138-.146-.392-.146zM13.765 18.467v-2.398h-.444v-.584h.444v-.138q.005-.562.344-.865.342-.306.962-.306.372 0 .904.162l-.116.659q-.27-.08-.419-.102-.149-.025-.32-.025-.556 0-.556.494v.12h.587v.585h-.587v2.398zm2.582 0h-.8v-2.982h.8zM17.96 14.752v.733h.51v.584h-.51v1.488q0 .166.063.237.063.072.242.072.133 0 .235-.02v.604q-.235.072-.483.072-.838 0-.854-.846v-1.607h-.436v-.584h.436v-.733zM20.528 17.643q0-.146-.146-.229-.143-.085-.463-.151-1.064-.224-1.064-.904 0-.397.328-.662.33-.267.863-.267.567 0 .906.267.342.267.342.695h-.796q0-.171-.11-.282-.11-.113-.345-.113-.201 0-.311.091-.11.091-.11.232 0 .132.123.215.127.08.425.14.297.058.501.133.631.231.631.802 0 .408-.35.661-.35.251-.904.251-.374 0-.667-.132-.289-.135-.454-.367-.166-.234-.166-.504h.756q.01.212.157.325.146.113.391.113.229 0 .345-.085.118-.089.118-.23z"/></g><g aria-label="Costs" style="font-weight:700;font-size:5.64445px;line-height:1.25;font-family:Roboto;-inkscape-font-specification:'Roboto, Bold';stroke-width:.264582"><path d="M10.596 26.754q-.047.648-.48 1.02-.43.372-1.135.372-.772 0-1.215-.518-.441-.521-.441-1.428v-.245q0-.579.204-1.02.203-.44.581-.675.38-.237.882-.237.695 0 1.119.372.424.372.49 1.045h-.826q-.03-.39-.218-.563-.185-.176-.565-.176-.413 0-.62.298-.204.294-.21.917v.304q0 .65.196.95.199.3.623.3.383 0 .57-.173.19-.176.218-.543zM10.963 26.572q0-.443.17-.79.171-.348.491-.538.323-.19.747-.19.604 0 .984.369.383.37.427 1.003l.006.204q0 .686-.384 1.103-.383.413-1.028.413-.644 0-1.03-.413-.383-.414-.383-1.125zm.796.058q0 .425.16.65.16.224.457.224.29 0 .452-.22.163-.224.163-.712 0-.416-.163-.645-.162-.228-.457-.228-.292 0-.452.228-.16.226-.16.703zM15.893 27.267q0-.146-.146-.229-.143-.085-.463-.152-1.064-.223-1.064-.904 0-.396.328-.661.331-.267.863-.267.568 0 .907.267.341.267.341.695h-.796q0-.171-.11-.282-.11-.113-.345-.113-.201 0-.311.091-.11.091-.11.232 0 .132.123.215.127.08.425.14.298.058.502.133.63.231.63.802 0 .408-.35.661-.35.251-.903.251-.375 0-.667-.132-.29-.135-.455-.367-.165-.234-.165-.504h.755q.01.212.157.325.146.113.391.113.229 0 .345-.085.118-.089.118-.23zM18.134 24.376v.733h.51v.584h-.51v1.488q0 .166.063.237.064.072.243.072.132 0 .234-.02v.604q-.234.072-.482.072-.838 0-.855-.846v-1.607h-.435v-.584h.435v-.733zM20.703 27.267q0-.146-.147-.229-.143-.085-.463-.152-1.063-.223-1.063-.904 0-.396.328-.661.33-.267.862-.267.568 0 .907.267.342.267.342.695h-.797q0-.171-.11-.282-.11-.113-.345-.113-.2 0-.31.091-.111.091-.111.232 0 .132.124.215.127.08.424.14.298.058.502.133.631.231.631.802 0 .408-.35.661-.35.251-.904.251-.375 0-.667-.132-.29-.135-.455-.367-.165-.234-.165-.504h.755q.011.212.157.325.146.113.392.113.228 0 .344-.085.119-.089.119-.23z"/></g><g aria-label="MPA Expansion from 8% to 30%" style="font-weight:700;font-size:7.76113px;line-height:1.25;font-family:'Open Sans';-inkscape-font-specification:'Open Sans, Bold';stroke-width:.264584"><path d="m61.017 9.096-1.334-4.347h-.034l.023.47q.019.31.034.663.015.353.015.637v2.577h-1.05v-5.54h1.6l1.31 4.236h.023l1.391-4.236h1.6v5.54h-1.096V6.474q0-.262.008-.603.011-.341.026-.648l.023-.466h-.034l-1.429 4.339zM67.759 3.556q1.072 0 1.565.462.493.458.493 1.266 0 .363-.11.697-.11.33-.36.587-.247.258-.66.41-.413.147-1.02.147h-.503v1.971h-1.175v-5.54zm-.06.962h-.535v1.645h.386q.33 0 .573-.087.242-.088.375-.273.132-.186.132-.478 0-.409-.227-.606-.227-.2-.705-.2zM74.254 9.096l-.402-1.319h-2.02l-.401 1.319h-1.266l1.956-5.563h1.436l1.963 5.563zm-.682-2.304-.402-1.289q-.038-.128-.102-.33-.06-.204-.125-.412-.06-.213-.099-.368-.037.155-.106.387-.064.227-.125.432l-.087.291-.398 1.289zM81.424 9.096h-3.19v-5.54h3.19v.962h-2.016v1.217h1.876v.962h-1.876v1.429h2.016zM83.357 6.932 81.993 4.86h1.31l.823 1.35.83-1.35h1.311l-1.38 2.073 1.445 2.164h-1.315l-.89-1.451-.895 1.451H81.92zM89.333 4.78q.716 0 1.156.557.443.557.443 1.633 0 .72-.208 1.213-.209.489-.576.739-.368.25-.845.25-.307 0-.527-.076-.22-.08-.375-.2-.156-.126-.27-.266h-.06q.03.151.046.31.015.16.015.311v1.71h-1.156V4.858h.94l.163.55h.053q.113-.17.276-.315.163-.144.39-.227.232-.087.535-.087zm-.371.924q-.303 0-.482.125-.178.125-.261.376-.08.25-.087.632v.125q0 .41.076.694.08.284.261.432.186.148.508.148.265 0 .436-.148.17-.148.254-.432.087-.288.087-.701 0-.622-.194-.936-.193-.315-.598-.315zM93.623 4.772q.853 0 1.307.371.455.372.455 1.13v2.823h-.807l-.224-.576h-.03q-.182.227-.371.371-.19.144-.436.213-.247.068-.599.068-.375 0-.675-.144-.295-.144-.466-.44-.17-.3-.17-.758 0-.674.474-.993.473-.322 1.42-.356l.736-.023v-.185q0-.334-.174-.49-.175-.155-.486-.155-.307 0-.602.088-.296.087-.591.22L92 5.154q.337-.178.754-.28.42-.103.868-.103zm.614 2.361-.447.015q-.561.015-.781.201-.216.186-.216.489 0 .265.155.379.156.11.406.11.371 0 .625-.22.258-.22.258-.625zM98.981 4.78q.679 0 1.092.371.413.368.413 1.182v2.763H99.33V6.621q0-.454-.167-.686-.163-.23-.515-.23-.53 0-.724.36-.193.36-.193 1.038v1.993h-1.156V4.859h.883l.155.542h.065q.136-.22.337-.356.205-.137.451-.201.25-.064.515-.064zM104.632 7.838q0 .432-.205.731-.2.296-.602.451-.402.152-1 .152-.444 0-.763-.057-.314-.057-.636-.19V7.97q.345.156.739.258.398.099.697.099.337 0 .481-.099.148-.102.148-.265 0-.106-.06-.19-.057-.087-.25-.193-.194-.11-.607-.284-.398-.167-.656-.337-.254-.17-.379-.402-.12-.235-.12-.595 0-.587.454-.883.458-.3 1.224-.3.394 0 .75.08.36.08.74.254l-.35.834q-.314-.137-.594-.224-.277-.087-.565-.087-.254 0-.383.068t-.129.209q0 .102.065.182.068.08.258.178.193.094.564.246.36.148.625.31.266.16.41.399.144.235.144.61zM106.69 4.86v4.236h-1.156V4.859zm-.577-1.66q.258 0 .444.12.186.118.186.444 0 .322-.186.447-.186.121-.444.121-.261 0-.447-.12-.182-.126-.182-.448 0-.326.182-.443.186-.122.447-.122zM111.752 6.97q0 .53-.144.94-.14.41-.413.693-.269.28-.651.425-.38.144-.857.144-.447 0-.822-.144-.372-.144-.648-.425-.273-.284-.425-.693-.148-.41-.148-.94 0-.705.25-1.194t.713-.742q.462-.254 1.103-.254.595 0 1.053.254.463.253.724.742.265.49.265 1.194zm-2.929 0q0 .417.091.701.09.284.284.428.194.144.504.144.307 0 .497-.144.193-.144.28-.428.091-.284.091-.701 0-.42-.09-.697-.088-.28-.281-.42-.194-.141-.504-.141-.459 0-.667.314-.205.315-.205.944zM115.114 4.78q.678 0 1.091.371.413.368.413 1.182v2.763h-1.156V6.621q0-.454-.166-.686-.163-.23-.516-.23-.53 0-.723.36-.194.36-.194 1.038v1.993h-1.156V4.859h.883l.156.542h.064q.137-.22.337-.356.205-.137.451-.201.25-.064.516-.064zM122.166 5.727h-1v3.369h-1.156V5.727h-.637V5.17l.637-.31v-.312q0-.541.182-.84.186-.304.52-.425.336-.125.795-.125.337 0 .614.056.276.054.45.122l-.295.849q-.132-.042-.288-.076-.155-.034-.356-.034-.243 0-.356.148-.11.144-.11.37v.266h1zM125.194 4.78q.087 0 .201.011.118.008.19.023l-.088 1.084q-.056-.02-.163-.027-.102-.011-.178-.011-.223 0-.436.056-.208.057-.375.186-.166.125-.265.334-.095.204-.095.504v2.156h-1.156V4.859h.876l.17.713h.057q.125-.216.31-.394.19-.182.43-.288.242-.11.522-.11zM130.204 6.97q0 .53-.144.94-.14.41-.413.693-.27.28-.652.425-.379.144-.856.144-.447 0-.823-.144-.371-.144-.648-.425-.273-.284-.424-.693-.148-.41-.148-.94 0-.705.25-1.194t.713-.742q.462-.254 1.102-.254.595 0 1.054.254.462.253.724.742.265.49.265 1.194zm-2.93 0q0 .417.092.701.09.284.284.428.193.144.504.144.307 0 .496-.144.194-.144.28-.428.092-.284.092-.701 0-.42-.091-.697-.088-.28-.28-.42-.194-.141-.505-.141-.458 0-.667.314-.204.315-.204.944zM136.135 4.78q.72 0 1.087.371.372.368.372 1.182v2.763h-1.16V6.621q0-.454-.155-.686-.156-.23-.481-.23-.459 0-.652.329-.194.326-.194.936v2.126h-1.155V6.621q0-.303-.069-.507-.068-.205-.208-.307-.14-.103-.36-.103-.322 0-.508.163-.182.16-.261.474-.076.31-.076.762v1.993h-1.156V4.859h.883l.155.542h.065q.129-.22.322-.356.197-.137.432-.201t.477-.064q.467 0 .789.151.326.152.5.47h.102q.19-.326.535-.474.348-.147.716-.147zM142.41 3.484q.478 0 .88.147.405.148.648.448.242.295.242.742 0 .334-.132.584-.13.25-.353.44-.224.185-.508.325.296.156.561.364.265.205.432.481.17.277.17.645 0 .462-.246.803-.246.337-.682.523-.436.186-1.012.186-.621 0-1.057-.178-.436-.178-.663-.508-.227-.334-.227-.796 0-.379.14-.66.144-.28.386-.48.243-.205.535-.35-.247-.155-.451-.352-.201-.197-.322-.45-.118-.255-.118-.584 0-.44.246-.735.25-.296.656-.444.405-.151.875-.151zm-.864 4.138q0 .3.213.496.216.194.636.194.436 0 .652-.186.216-.19.216-.497 0-.212-.125-.371-.121-.16-.307-.284-.186-.13-.375-.239l-.102-.053q-.243.11-.425.246-.178.137-.28.307-.103.17-.103.387zm.857-3.282q-.288 0-.478.148t-.19.417q0 .19.092.333.095.14.246.246.156.107.337.198.175-.084.326-.186.152-.102.247-.246.094-.144.094-.345 0-.27-.193-.417-.19-.148-.481-.148zM146.173 3.476q.652 0 .99.455.337.454.337 1.277 0 .822-.318 1.285-.319.462-1.009.462-.64 0-.973-.462-.334-.463-.334-1.285 0-.823.31-1.277.315-.455.997-.455zm.008.792q-.185 0-.272.235-.088.235-.088.712 0 .478.088.717.087.238.272.238.186 0 .273-.235.091-.238.091-.72 0-.477-.09-.712-.088-.235-.274-.235zm3.927-.712-3.074 5.54h-.91l3.074-5.54zm-.054 2.133q.652 0 .99.455.337.455.337 1.277 0 .819-.319 1.28-.318.463-1.008.463-.64 0-.974-.462-.333-.462-.333-1.281 0-.822.31-1.277.315-.455.997-.455zm.008.792q-.185 0-.272.235-.088.235-.088.713 0 .477.088.716.087.239.272.239.186 0 .273-.235.091-.24.091-.72 0-.478-.09-.713-.088-.235-.274-.235zM156.026 8.25q.19 0 .368-.037.182-.038.36-.095v.86q-.186.084-.462.137-.273.057-.599.057-.379 0-.682-.121-.3-.126-.474-.429-.17-.307-.17-.852V5.727h-.554v-.489l.637-.386.333-.895h.74v.902h1.186v.868h-1.187V7.77q0 .242.137.363.14.118.367.118zM161.46 6.97q0 .53-.143.94-.14.41-.413.693-.27.28-.652.425-.38.144-.857.144-.447 0-.822-.144-.371-.144-.648-.425-.273-.284-.424-.693-.148-.41-.148-.94 0-.705.25-1.194t.712-.742q.463-.254 1.103-.254.595 0 1.054.254.462.253.724.742.265.49.265 1.194zm-2.929 0q0 .417.091.701t.285.428q.193.144.504.144.307 0 .496-.144.193-.144.28-.428.091-.284.091-.701 0-.42-.09-.697-.088-.28-.281-.42-.193-.141-.504-.141-.459 0-.667.314-.205.315-.205.944zM167.793 4.795q0 .383-.159.663-.16.28-.432.458-.269.179-.606.262v.023q.667.083 1.012.409.348.326.348.872 0 .485-.239.867-.235.383-.727.603-.493.22-1.27.22-.458 0-.856-.076-.394-.072-.743-.224v-.996q.356.182.747.276.39.091.727.091.63 0 .88-.216.253-.22.253-.614 0-.23-.117-.39-.118-.16-.41-.242-.287-.084-.807-.084h-.42V5.8h.428q.512 0 .777-.095.269-.098.364-.265.098-.17.098-.387 0-.295-.182-.462-.182-.167-.606-.167-.265 0-.485.069-.216.064-.39.159-.175.09-.307.178l-.542-.807q.326-.235.761-.39.44-.156 1.046-.156.857 0 1.357.345t.5.974zM172.417 6.326q0 .67-.107 1.197-.102.527-.333.895-.227.367-.599.56-.371.194-.902.194-.667 0-1.095-.338-.428-.34-.633-.977-.204-.64-.204-1.531 0-.898.185-1.535.19-.64.614-.982.425-.34 1.133-.34.663 0 1.092.34.432.338.64.978.209.637.209 1.539zm-2.71 0q0 .633.068 1.057.072.42.239.633.167.212.462.212.292 0 .459-.208.17-.212.242-.633.072-.425.072-1.061 0-.633-.072-1.058-.072-.424-.242-.636-.167-.216-.459-.216-.295 0-.462.216-.167.212-.239.636-.068.425-.068 1.058zM174.247 3.476q.652 0 .989.455.337.454.337 1.277 0 .822-.318 1.285-.318.462-1.008.462-.64 0-.974-.462-.333-.463-.333-1.285 0-.823.31-1.277.315-.455.997-.455zm.008.792q-.186 0-.273.235-.087.235-.087.712 0 .478.087.717.087.238.273.238.186 0 .273-.235.09-.238.09-.72 0-.477-.09-.712-.087-.235-.273-.235zm3.926-.712-3.073 5.54h-.91l3.073-5.54zm-.053 2.133q.652 0 .989.455.337.455.337 1.277 0 .819-.318 1.28-.318.463-1.008.463-.64 0-.974-.462-.334-.462-.334-1.281 0-.822.311-1.277.315-.455.997-.455zm.008.792q-.186 0-.273.235-.087.235-.087.713 0 .477.087.716t.273.239q.186 0 .273-.235.09-.24.09-.72 0-.478-.09-.713-.087-.235-.273-.235z"/></g><g style="fill:#fff;stroke-width:1.51612;stroke-dasharray:none"><path d="M32.788 118.293h10.536v-16.354h57.573v16.354h10.537L72.11 140.71z" fill="#e7e6e6" style="fill:#fff;stroke:#000;stroke-width:1.51612;stroke-linecap:square;stroke-dasharray:none;stroke-opacity:1" transform="matrix(.78531 0 0 -.78531 22.223 154.605)" fill-rule="evenodd" color="#000"/></g><g aria-label="98% recovery of overfished stocks" style="font-weight:700;font-size:4.9389px;line-height:1.35;font-family:Roboto;-inkscape-font-specification:'Roboto, Bold';text-align:center;letter-spacing:.132292px;text-anchor:middle;white-space:pre;inline-size:32.969;display:inline;stroke-width:.264583"><path d="M65.027 57.072q-.272.268-.636.268-.466 0-.746-.318-.28-.321-.28-.864 0-.345.15-.632.152-.289.422-.448.27-.162.608-.162.347 0 .617.174.27.173.42.499.15.326.152.745v.258q0 .878-.437 1.38-.436.501-1.237.535l-.171.002v-.58l.154-.003q.91-.041.984-.854zm-.465-.265q.169 0 .29-.087.122-.087.185-.21v-.287q0-.354-.135-.55-.135-.195-.362-.195-.21 0-.345.193-.135.19-.135.48 0 .287.13.473.133.183.372.183zM68.651 55.898q0 .255-.127.453-.128.198-.352.316.255.123.405.34.15.215.15.506 0 .468-.32.74-.317.27-.865.27-.547 0-.868-.272-.32-.272-.32-.738 0-.291.149-.508.15-.217.402-.338-.224-.118-.352-.316-.125-.198-.125-.453 0-.449.299-.714.299-.268.813-.268.511 0 .81.265.301.263.301.717zm-.624 1.565q0-.23-.133-.367-.132-.137-.357-.137-.222 0-.354.137-.133.135-.133.367 0 .224.13.362.13.137.362.137.227 0 .355-.133.13-.132.13-.366zm-.073-1.532q0-.204-.108-.327-.109-.126-.306-.126-.196 0-.304.12-.109.121-.109.333 0 .21.109.338.108.128.306.128t.304-.128q.108-.128.108-.338zM69.32 55.64q0-.323.209-.524.21-.202.55-.202.345 0 .554.2.21.198.21.538v.173q0 .326-.21.524-.21.197-.55.197-.342 0-.554-.197-.21-.2-.21-.538zm.462.185q0 .145.082.234.085.087.22.087t.214-.09q.08-.088.08-.238v-.178q0-.145-.08-.234-.08-.09-.22-.09-.132 0-.214.09-.082.087-.082.243zm1.216 1.79q0-.326.212-.524.212-.2.55-.2.342 0 .552.198.212.195.212.54v.174q0 .323-.207.523-.208.198-.553.198-.347 0-.557-.2-.21-.2-.21-.53zm.463.188q0 .133.086.227.087.094.217.094.295 0 .295-.326v-.183q0-.145-.082-.232-.082-.089-.217-.089t-.217.09q-.082.086-.082.238zm-1.24.41-.34-.183 1.715-2.745.34.183zM75.965 56.52q-.143-.02-.251-.02-.396 0-.519.268v1.708h-.697v-2.61h.659l.02.311q.209-.359.58-.359.116 0 .217.031zM77.587 58.524q-.574 0-.935-.352-.36-.352-.36-.938v-.068q0-.393.152-.702.152-.31.43-.477.28-.169.636-.169.536 0 .842.338.308.337.308.957v.285H77q.034.255.202.41.172.154.432.154.403 0 .63-.292l.342.384q-.157.222-.424.347-.268.123-.594.123zm-.08-2.142q-.207 0-.337.14-.128.14-.164.4h.97v-.055q-.005-.231-.126-.357-.12-.128-.342-.128zM80.273 57.962q.193 0 .314-.106.12-.106.125-.282h.654q-.002.265-.145.487-.142.22-.39.342-.246.12-.545.12-.56 0-.883-.354-.323-.356-.323-.983v-.046q0-.603.32-.963.321-.359.88-.359.49 0 .784.28.297.277.302.74h-.654q-.004-.202-.125-.328-.12-.128-.318-.128-.244 0-.37.179-.122.176-.122.574v.072q0 .403.123.579.123.176.373.176zM81.788 57.147q0-.388.15-.692.149-.304.428-.47.283-.167.654-.167.528 0 .86.323.336.323.375.878l.004.179q0 .6-.335.964-.335.362-.9.362-.564 0-.901-.362-.335-.362-.335-.984zm.697.05q0 .372.14.57.14.195.4.195.253 0 .395-.193.143-.195.143-.622 0-.364-.143-.564-.142-.2-.4-.2-.256 0-.396.2-.14.197-.14.615zM85.762 57.624l.484-1.758h.729l-.88 2.61h-.666l-.88-2.61h.728zM88.583 58.524q-.574 0-.936-.352-.36-.352-.36-.938v-.068q0-.393.153-.702.152-.31.429-.477.28-.169.637-.169.535 0 .841.338.309.337.309.957v.285h-1.662q.034.255.203.41.171.154.432.154.402 0 .629-.292l.342.384q-.156.222-.424.347-.268.123-.593.123zm-.08-2.142q-.207 0-.337.14-.128.14-.164.4h.969v-.055q-.005-.231-.125-.357-.121-.128-.343-.128zM91.65 56.52q-.142-.02-.25-.02-.396 0-.52.268v1.708h-.696v-2.61h.658l.02.311q.21-.359.58-.359.116 0 .218.031zM93.135 57.49l.482-1.624h.748l-1.049 3.015-.058.137q-.234.512-.772.512-.152 0-.308-.046v-.528l.106.002q.198 0 .294-.06.099-.06.154-.2l.082-.215-.914-2.617h.75zM63.508 63.814q0-.388.15-.692.15-.304.429-.47.282-.166.653-.166.529 0 .861.323.336.323.374.878l.005.178q0 .6-.335.965-.335.361-.9.361-.564 0-.902-.361-.335-.362-.335-.984zm.697.051q0 .371.14.57.14.195.4.195.253 0 .396-.193.142-.196.142-.623 0-.364-.142-.564-.143-.2-.4-.2-.256 0-.396.2-.14.198-.14.615zM66.732 65.143v-2.098h-.388v-.511h.388v-.222q0-.439.25-.68.254-.244.707-.244.145 0 .355.049l-.007.54q-.087-.022-.213-.022-.393 0-.393.37v.209h.519v.511h-.519v2.098zM69.698 63.814q0-.388.15-.692.149-.304.428-.47.282-.166.654-.166.528 0 .86.323.336.323.375.878l.004.178q0 .6-.335.965-.335.361-.9.361-.564 0-.901-.361-.335-.362-.335-.984zm.696.051q0 .371.14.57.14.195.4.195.254 0 .396-.193.142-.196.142-.623 0-.364-.142-.564-.142-.2-.4-.2-.256 0-.396.2-.14.198-.14.615zM73.671 64.292l.485-1.758h.728l-.88 2.61h-.665l-.88-2.61h.728zM76.493 65.191q-.574 0-.936-.352-.36-.352-.36-.938v-.067q0-.393.153-.702.152-.311.429-.478.28-.168.636-.168.536 0 .842.337.309.338.309.958v.284h-1.662q.034.256.203.41.171.155.431.155.403 0 .63-.292l.342.383q-.156.222-.424.347-.268.123-.593.123zm-.08-2.141q-.207 0-.338.14-.127.14-.164.4h.97v-.055q-.005-.232-.125-.357-.121-.128-.343-.128zM79.56 63.187q-.142-.019-.251-.019-.395 0-.518.268v1.707h-.697v-2.61h.658l.02.312q.21-.36.58-.36.116 0 .217.032zM80.196 65.143v-2.098h-.388v-.511h.388v-.12q.005-.493.302-.758.299-.268.841-.268.326 0 .791.143l-.101.576q-.236-.07-.367-.09-.13-.02-.28-.02-.486 0-.486.43v.107h.513v.511h-.513v2.098zm2.26 0h-.7v-2.61h.7zM84.71 64.422q0-.128-.128-.2-.125-.075-.405-.133-.93-.195-.93-.79 0-.348.286-.58.29-.233.755-.233.497 0 .793.234.3.234.3.607h-.698q0-.15-.096-.246-.097-.099-.302-.099-.176 0-.272.08-.096.08-.096.203 0 .115.108.188.111.07.371.123.26.05.44.115.552.203.552.702 0 .357-.307.579-.306.22-.79.22-.329 0-.584-.116-.253-.118-.398-.321-.145-.205-.145-.441h.66q.01.185.138.284.128.1.343.1.2 0 .301-.076.104-.077.104-.2zM86.648 62.818q.278-.332.697-.332.85 0 .861.986v1.671h-.697v-1.652q0-.224-.096-.33-.097-.109-.32-.109-.307 0-.445.237v1.854h-.696V61.44h.696zM90.065 65.191q-.574 0-.935-.352-.36-.352-.36-.938v-.067q0-.393.152-.702.152-.311.43-.478.28-.168.636-.168.536 0 .842.337.308.338.308.958v.284h-1.661q.034.256.202.41.172.155.432.155.403 0 .63-.292l.342.383q-.157.222-.424.347-.268.123-.594.123zm-.08-2.141q-.207 0-.337.14-.128.14-.164.4h.97v-.055q-.005-.232-.126-.357-.12-.128-.342-.128zM91.558 63.82q0-.61.272-.973.275-.361.75-.361.381 0 .63.284V61.44h.699v3.704h-.63l-.033-.277q-.26.325-.67.325-.461 0-.74-.361-.278-.364-.278-1.01zm.697.05q0 .366.128.562.127.195.37.195.324 0 .457-.272v-1.03q-.13-.273-.451-.273-.504 0-.504.818zM72.775 71.09q0-.128-.128-.2-.126-.075-.405-.133-.931-.195-.931-.791 0-.347.287-.579.29-.234.755-.234.496 0 .793.234.299.234.299.608h-.697q0-.15-.096-.246-.097-.099-.302-.099-.176 0-.272.08-.097.08-.097.202 0 .116.109.188.11.07.371.123.26.05.439.116.552.203.552.702 0 .357-.306.579-.306.219-.791.219-.328 0-.584-.116-.253-.118-.398-.32-.144-.206-.144-.442h.66q.01.186.138.285.128.099.342.099.2 0 .302-.075.104-.077.104-.2zM74.867 68.56v.641h.447v.512h-.447v1.302q0 .145.056.207.055.063.212.063.116 0 .205-.017v.528q-.205.063-.422.063-.733 0-.748-.74v-1.406h-.38V69.2h.38v-.641zM75.653 70.482q0-.388.15-.692.15-.304.429-.47.282-.167.654-.167.528 0 .86.323.336.323.374.878l.005.179q0 .6-.335.964-.335.362-.9.362-.564 0-.902-.362-.335-.362-.335-.984zm.697.05q0 .372.14.57.14.195.4.195.254 0 .396-.193.142-.195.142-.622 0-.364-.142-.564-.142-.2-.4-.2-.256 0-.396.2-.14.197-.14.615zM79.772 71.297q.193 0 .313-.106.121-.106.126-.282h.653q-.002.265-.144.487-.143.22-.391.342-.246.121-.545.121-.56 0-.883-.355-.323-.356-.323-.983v-.046q0-.603.32-.962.322-.36.881-.36.49 0 .784.28.297.277.301.74h-.653q-.005-.202-.126-.328-.12-.128-.318-.128-.244 0-.369.179-.123.176-.123.574v.072q0 .403.123.579.123.176.374.176zM82.342 70.764l-.25.25v.797h-.697v-3.704h.696v2.052l.136-.174.668-.784h.836l-.943 1.088 1.025 1.522h-.8zM85.578 71.09q0-.128-.128-.2-.125-.075-.405-.133-.93-.195-.93-.791 0-.347.286-.579.29-.234.755-.234.497 0 .794.234.299.234.299.608h-.697q0-.15-.097-.246-.096-.099-.301-.099-.176 0-.273.08-.096.08-.096.202 0 .116.108.188.111.07.372.123.26.05.439.116.552.203.552.702 0 .357-.306.579-.307.219-.791.219-.328 0-.584-.116-.253-.118-.398-.32-.145-.206-.145-.442h.661q.01.186.138.285.127.099.342.099.2 0 .302-.075.103-.077.103-.2z"/></g></svg>