<svg width="340" height="500" viewBox="0 0 89.958 132.292" xml:space="preserve" xmlns="http://www.w3.org/2000/svg"><path style="fill:#000;fill-opacity:1;stroke-width:.0467217" d="M29.216 103.064c-.263-.029-.106-.15.566-.438.368-.158.778-.344.91-.412.22-.115.284-.125.84-.133.477-.007.623-.025.716-.087.148-.098.308-.104.27-.01-.023.057.031.069.324.069.425 0 .66.04.639.108-.009.029-.194.137-.413.242a23.25 22.126 0 0 0-.836.428l-.438.237-1.222.005a35.45 35.45 0 0 1-1.356-.01zm1.252-.168c.013-.012-.184-.022-.44-.022-.268 0-.462.018-.462.044 0 .045.854.024.902-.022zm1.345.004c-.04-.036-.741-.055-.882-.024-.087.02.063.034.379.038.288.003.514-.003.503-.013zm-1.024-.167c.037-.056-.748-.053-.84.004-.049.03.07.043.371.04.243-.001.455-.02.47-.044zm1.328-.005c.032-.02-.178-.036-.468-.036-.368 0-.505.014-.455.046.083.052.833.044.923-.01zm-.95-.18c.055-.047-.155-.05-.607-.01-.178.016-.323.046-.323.068 0 .049.87-.004.93-.058zm1.272.006c.05-.03-.084-.044-.419-.045-.295 0-.49.018-.49.045 0 .06.813.06.91 0zm-.91-.18c0-.05-.79-.039-.844.011-.018.018.164.032.406.032.246 0 .439-.019.439-.043zm1.27-.002c.019-.03-.136-.045-.429-.045-.273 0-.457.018-.457.045s.174.046.428.046c.235 0 .441-.02.458-.046zm-1.054-.136c.062-.026-.051-.038-.324-.037-.231.001-.432.02-.446.042-.033.051.643.046.77-.006zm1.042-.034a2.746 2.613 0 0 0-.408 0c-.111.01-.02.017.204.017.224 0 .316-.008.204-.017zm.155.831a2.598 2.473 0 0 0-.18-.043c-.167-.035-.165-.077.006-.174.108-.06.203-.071.448-.05.185.017.41.006.554-.027l.241-.055-.115-.162c-.144-.203-.15-.461-.016-.742l.097-.205-.108-.084a2.292 2.292 0 0 0-.86-.391c-.209-.052-.305-.091-.235-.097.112-.009.11-.011-.024-.04-.079-.017-.154-.018-.167-.003a.317.317 0 0 1-.108.057c-.142.05-.264.3-.3.615-.021.2-.047.279-.073.233-.055-.094.016-.554.106-.685a.484.484 0 0 0 .077-.148c.002-.022.031-.06.066-.083.044-.028.028-.032-.047-.012-.176.047-.781-.023-.74-.086.018-.028-.02-.019-.085.021-.144.09-.253.379-.215.572a.98.98 0 0 0 .145.308l.117.164h-.145c-.128 0-.158-.027-.259-.24-.099-.207-.108-.268-.069-.464.057-.282.14-.404.383-.557.19-.12.203-.121 1.04-.121.752 0 .884.01 1.152.1.557.184.732.34 1.134 1.003.18.297.231.427.231.58 0 .265-.09.35-.51.478-.189.058-.376.14-.415.183-.114.125-.888.23-1.126.155zm1.422-.568c.124-.032.234-.08.245-.11.012-.028-.057-.168-.152-.31-.318-.476-.533-.458-.57.046-.023.29.088.552.199.471.03-.022.155-.065.278-.097zm-.397-1.05c-.244-.2-1-.51-1-.412 0 .02.072.05.162.066.212.038.709.275.82.392.047.05.097.081.11.07.012-.013-.029-.065-.092-.116zm11.324 1.423c-.036-.022-.052-.172-.045-.443.012-.447-.04-2.254-.086-3.054a141.655 134.81 0 0 1-.078-1.732 79.963 79.963 0 0 0-.073-1.572 65.596 65.596 0 0 0-.188-2.097 7.361 7.005 0 0 1-.049-.365 28.133 28.133 0 0 0-.626-3.327c-.323-1.215-.81-2.019-1.398-2.313-.404-.201-.726-.263-1.353-.257-2.543-.003-5.61 1.392-6.308 2.791-.487.975.425 2.33 1.25 3.347.673.789.77.906.788.95.034.084.109.035.08-.051-.018-.053-.01-.091.02-.091.029 0 .052-.031.052-.069 0-.038-.043-.068-.096-.068-.053 0-.096-.02-.096-.046 0-.066.107-.056.223.021.055.037.113.054.13.038.052-.05.033-.187-.03-.211-.032-.013.014-.012.103.003.125.02.157.012.14-.038-.013-.035-.07-.07-.127-.078-.121-.017-.132-.066-.032-.145.091-.072.306-.022.346.081.016.043.07.128.118.188.05.063.077.146.06.194-.02.062-.003.084.068.084.054 0 .111.022.129.048.05.078.412-.002.566-.124.125-.1.146-.104.22-.04.123.106.152.033.037-.093-.09-.099-.108-.103-.18-.042-.09.078-.19.09-.19.023 0-.025.017-.046.04-.046.022 0 .064-.05.095-.113.03-.063.088-.115.13-.115.085 0 .357-.265.357-.348 0-.03-.043-.069-.096-.084-.052-.016-.096-.058-.096-.093 0-.047-.038-.057-.143-.037-.111.02-.144.01-.144-.046 0-.076-.18-.193-.227-.147-.015.014-.025.098-.021.187.004.106-.024.186-.082.233-.07.058-.08.104-.051.23.028.118.02.163-.03.182-.115.042-.211-.023-.211-.143 0-.084-.032-.122-.122-.143-.13-.031-.245-.2-.262-.383-.017-.191-.005-.215.146-.274.123-.048.285-.243.285-.34 0-.027-.215-.004-.437.047-.092.02-.18-.005-.328-.099-.166-.104-.271-.131-.597-.152-.237-.015-.428-.051-.478-.09-.072-.058-.103-.056-.25.02-.143.073-.173.076-.21.02-.08-.118-.05-.155.256-.32.846-.458 1.716-.685 2.62-.684.746 0 1.37.117 2.107.393.397.15 1.255.723 1.598 1.07.318.32.732.879.928 1.252.488.93.673 2.369.442 3.446-.223 1.039-.677 1.836-1.48 2.595a4.913 4.913 0 0 1-1.8 1.084c-.963.323-2.217.368-3.185.113-.327-.086-.957-.33-.957-.371 0-.017.042-.056.095-.087.08-.048.152-.035.46.082.202.076.376.13.388.118.011-.011 0-.058-.024-.104-.09-.165-.154-.414-.182-.703a11.89 11.315 0 0 0-.05-.43 3.53 3.53 0 0 1 .029-1.04c.06-.3.058-.313-.048-.42a.606.606 0 0 0-.209-.14c-.17-.048-.316-.208-.316-.343 0-.07-.043-.231-.096-.359-.115-.279-.122-.489-.019-.597.1-.104.047-.195-.076-.132a.436.436 0 0 1-.158.046c-.08 0-.273-.152-.273-.215 0-.024-.053-.067-.117-.095-.106-.045-.113-.066-.073-.199.042-.14.032-.158-.182-.339-.153-.129-.232-.17-.243-.127-.03.124-.1.06-.25-.232-.128-.247-.15-.333-.13-.523.013-.137.002-.233-.028-.243-.028-.009-.005-.076.055-.157a.568.568 0 0 0 .105-.189c0-.026.065-.118.144-.204a.825.825 0 0 0 .144-.185c0-.017.035-.106.079-.2a1.74 1.74 0 0 0 .092-.23c.024-.11.05-.1.225.084.105.112.145.182.103.182-.037 0-.068.018-.068.038 0 .021-.065.038-.144.038-.079 0-.15.01-.156.02-.007.01-.062.105-.122.21-.108.19-.108.19-.01.24.134.07.121.177-.029.231-.088.032-.145.03-.191-.007-.052-.04-.066-.035-.066.022 0 .04.027.074.06.075.04 0 .035.015-.013.045-.063.04-.063.05 0 .09.062.039.06.045-.012.046-.069 0-.082.039-.076.217.006.166.013.182.028.068.023-.182.084-.188.176-.019.038.07.104.155.145.188.06.047.064.074.02.124-.045.052-.02.1.129.245.101.1.207.18.235.18.027-.001-.004-.042-.07-.091-.111-.083-.113-.09-.022-.09.063 0 .1-.034.105-.092.004-.05-.013-.091-.038-.091-.024 0-.045-.034-.045-.074 0-.155.131.029.158.22.015.106.061.216.103.245.107.074.092.121-.028.085-.09-.027-.1-.017-.074.074.016.058.009.13-.017.158-.03.035-.01.07.064.107.06.03.13.1.155.155.025.055.09.108.142.117.092.017.092.014.01-.073-.046-.05-.071-.121-.056-.16.016-.039.005-.084-.023-.1-.082-.049-.058-.129.03-.097.043.016.097.003.118-.03.06-.09.048-.138-.03-.11-.038.014-.083.006-.098-.018-.016-.024-.003-.044.027-.044.032 0 .043-.031.026-.073-.02-.051-.009-.066.04-.048a.074.07 0 0 0 .094-.041.11.11 0 0 1 .092-.065c.037 0 .105-.042.153-.092.084-.088.083-.09-.004-.09a.39.39 0 0 0-.185.07c-.126.09-.301.083-.352-.014-.077-.15-.016-.42.123-.542.088-.076.111-.121.07-.137-.068-.027-.08-.153-.014-.153.024 0 .058.042.075.092.032.095.096.119.14.05.015-.022-.005-.065-.044-.096-.04-.03-.059-.075-.043-.099.035-.055.162.044.162.127 0 .115.303.046.318-.072.003-.026.009-.06.012-.074.004-.015.072.026.153.091.175.14.337.167.23.039-.062-.075-.06-.075.054-.005.068.042.113.108.104.152-.01.049.008.07.048.057.035-.012.058-.066.051-.121-.007-.056.008-.089.033-.075.024.015.058.005.075-.02.016-.025-.004-.046-.045-.046-.04 0-.075-.02-.075-.046 0-.025.022-.045.048-.045.026 0 .048-.021.048-.047 0-.027-.05-.034-.12-.017-.103.024-.116.016-.088-.056.017-.047.014-.07-.007-.052-.022.019-.066.014-.097-.012-.043-.033-.055-.016-.045.07.007.062-.008.126-.034.14-.05.03-1.446-1.31-1.912-1.855-2.216-2.591-1.124-3.906 1.537-5.33 1.053-.563 2.528-.97 4.23-1.27 1.847-.327 3.047-.392 3.536-.192.214.087.512.37.644.61.038.07.079.274.09.456.055.904.158 13.306.125 15.086-.005.26-.044.31-.18.228zm-5.572-1.428c.745-.137 1.032-.248 1.373-.53.798-.66 1.219-1.569 1.29-2.786l.033-.539-.168-.178a1.907 1.907 0 0 1-.22-.273c-.083-.152-.06-.485.043-.59a.383.383 0 0 0 .098-.183c.017-.172-.007-.3-.05-.274-.025.015-.059.005-.076-.02-.016-.026.001-.058.04-.072.06-.022.06-.054.002-.24-.094-.303-.527-1.1-.858-1.578-.262-.377-.387-.508-.907-.953-.217-.185-.305-.16-.223.065.072.198.07.214-.045.272-.081.042-.127.03-.265-.07-.237-.172-.358-.305-.35-.386a.3.3 0 0 0-.005-.104.865.824 0 0 1-.041-.195c-.007-.076-.515-.312-.864-.4-.124-.032-.22-.086-.232-.13-.012-.043-.047-.087-.08-.099-.103-.037-.322.025-.352.101a.357.357 0 0 1-.104.13c-.046.033-.053.055-.018.056a.11.104 0 0 0 .087-.044c.047-.072.407-.057.407.017 0 .037.074.074.18.09.233.035.63.219.632.292.001.033-.057.057-.141.057-.2 0-.18.075.03.112.121.022.159.045.123.079a.12.113 0 0 0-.025.11c.015.038-.006.064-.051.064-.043 0-.077-.021-.077-.046 0-.025-.089-.046-.197-.046-.177 0-.195-.01-.171-.096.04-.148-.042-.3-.178-.324-.172-.031-.19.007-.051.11.118.09.17.356.07.356a.048.046 0 0 1-.048-.046c0-.025-.032-.045-.072-.045-.04 0-.072.018-.072.041 0 .023-.075.083-.167.135-.121.068-.159.116-.139.175.086.253.133.326.24.372.064.028.139.097.165.154.041.09.044.086.019-.031-.022-.106-.005-.152.083-.215.095-.069.102-.093.052-.171-.037-.058-.042-.101-.012-.119.026-.015.047-.067.047-.116 0-.102.026-.107.232-.038.083.027.15.078.15.113 0 .036.022.065.049.065.026 0 .048-.021.048-.046 0-.082.152-.048.176.04.013.047.088.13.166.185.12.084.133.112.082.17-.05.058-.041.083.053.15l.113.081-.128.08c-.1.063-.142.068-.197.024-.09-.07-.195-.016-.124.064.027.032.035.07.018.087-.017.017.004.03.048.03.145 0 .085.244-.08.328-.056.028-.21.06-.34.07-.132.01-.251.034-.265.055-.014.021-.068.046-.12.055a.144.144 0 0 0-.112.12c-.008.056-.043.102-.078.102s-.062.052-.062.121c0 .123-.119.243-.24.243a.666.666 0 0 0-.206.07c-.154.076-.192.246-.077.349.07.062.05.235-.022.193-.024-.014-.033-.041-.021-.06.012-.019-.024-.033-.08-.03-.08.002-.11-.033-.138-.155-.042-.193-.166-.287-.333-.252-.082.017-.147.002-.187-.044-.106-.122-.327-.087-.483.076-.14.146-.19.367-.095.422.026.015.111-.004.19-.043.171-.084.434-.093.434-.014 0 .031-.086.132-.193.224-.157.137-.188.19-.164.281.022.084.004.13-.074.182-.068.045-.098.106-.087.176.013.092.038.105.183.09a.54.54 0 0 0 .276-.12c.115-.109.429-.175.518-.109.029.022.075.015.107-.015.03-.028.071-.037.09-.019.02.019.005.052-.033.075-.038.022-.059.047-.046.054.187.115.249.13.317.077.057-.046.08-.045.111.005a.166.158 0 0 1 .015.122c-.015.038.011.061.071.061.052 0 .122.031.155.07.043.048.107.06.218.04.227-.04.328.007.422.193.082.164.082.167-.04.287-.13.13-.151.185-.074.185.027 0 .048-.031.048-.069 0-.037.033-.068.074-.068.133 0 .463.188.488.277.02.07.067.088.234.088.141 0 .24.028.3.085.05.047.152.105.228.13.111.034.14.072.152.202.012.143-.007.173-.192.293-.275.178-.322.24-.324.432-.002.26-.232.453-.539.453-.253 0-.585.278-.547.458.031.15-.043.226-.218.226-.142 0-.169.04-.081.124.064.06-.079.267-.21.301-.046.012-.083.063-.083.114 0 .05-.025.1-.056.11-.04.012-.042.053-.007.151a.37.37 0 0 1 .012.225c-.032.078-.038.08-.041.012-.002-.044-.027-.08-.055-.08-.03 0-.038-.039-.02-.093.017-.052.008-.12-.021-.154-.04-.045-.034-.075.02-.118.06-.047.062-.07.013-.128-.051-.06-.048-.066.023-.041.07.025.084.003.084-.146 0-.133.022-.18.09-.198.073-.018.087-.06.078-.22-.014-.236.069-.344.21-.272.124.063.149.06.149-.015 0-.034.043-.074.097-.087.053-.013.091-.05.084-.083-.007-.032.019-.06.057-.061.093-.003.121-.147.046-.233-.032-.037-.042-.082-.021-.1.02-.019.047-.008.059.023.025.068.3.078.3.012 0-.025.022-.046.048-.046.027 0 .048.031.048.068 0 .038.024.069.053.069.03 0 .04-.031.026-.069-.017-.04 0-.068.041-.068.043 0 .058.027.04.073-.022.054-.006.069.06.057.052-.01.107-.079.134-.17.04-.13.032-.164-.046-.221-.088-.064-.086-.066.027-.035.098.027.11.022.06-.027-.08-.08-.076-.136.007-.106.037.014.08.005.096-.019.015-.024-.004-.055-.044-.07-.039-.014-.07-.052-.07-.085 0-.035.014-.04.036-.012.056.073.154.074.154.002 0-.041.029-.057.073-.04.052.018.064.004.042-.05-.017-.042-.06-.066-.097-.053-.036.014-.065.004-.065-.02 0-.067.102-.052.196.029.047.04.108.06.136.043.079-.047.06-.116-.033-.12-.072-.002-.07-.008.012-.041.085-.034.078-.042-.059-.07-.088-.02-.166-.069-.182-.118-.017-.05-.073-.086-.133-.085-.084 0-.09.009-.035.043.04.023.057.055.04.071-.039.037-.23-.059-.23-.115 0-.024-.032-.031-.072-.016-.04.014-.071.054-.071.09 0 .073-.077.084-.12.017-.016-.025-.007-.045.02-.045a.05.048 0 0 0 .052-.049c0-.026-.022-.035-.048-.02-.027.016-.048-.004-.048-.043 0-.075-.125-.1-.152-.03-.009.023-.044.013-.078-.022-.052-.054-.038-.064.088-.064.085 0 .142-.021.133-.05-.021-.057-.032-.058-.281-.018-.127.02-.217.011-.265-.026-.054-.044-.085-.045-.127-.004-.089.084-.132.062-.122-.062.01-.106.085-.167.085-.068 0 .097.082.038.158-.114.059-.117.064-.16.021-.163-.046-.003-.046-.009 0-.026a.103.103 0 0 0 .06-.09c0-.038-.018-.057-.042-.043-.024.014-.055-.005-.07-.043-.015-.037-.055-.066-.09-.064-.048.003-.048.008.001.027.05.019.05.038.003.091-.037.043-.041.079-.012.098.062.04.075.236.016.236-.025 0-.045-.051-.045-.114 0-.062-.023-.114-.051-.114-.03 0-.038-.039-.02-.091.036-.11-.014-.116-.16-.019-.11.073-.248.06-.248-.024 0-.025.033-.033.072-.02.098.037.09-.028-.012-.101-.112-.081-.159-.08-.125.005.02.05.006.06-.05.04-.042-.015-.076-.059-.076-.096 0-.044-.028-.058-.077-.04-.056.02-.07.009-.05-.041.03-.076-.042-.096-.089-.023a.111.106 0 0 1-.087.044c-.035 0-.039-.012-.009-.034.084-.058.069-.128-.027-.128-.05 0-.092.018-.092.039s-.022.026-.049.01c-.026-.015-.063.009-.08.054a.365.347 0 0 1-.103.133c-.039.028-.055.074-.036.103.02.03.004.052-.04.052-.113 0-.09-.125.045-.264.098-.1.107-.126.046-.138-.06-.012-.064-.03-.02-.08.068-.077.046-.08-.126-.018-.071.026-.116.06-.1.076.018.016-.012.058-.065.093-.053.035-.083.084-.067.11.016.024-.005.081-.049.127-.081.085-.134.413-.066.413.022 0 .04.042.04.093 0 .05.028.103.062.115.042.016.058.086.048.206-.012.15.008.203.112.295.081.072.16.103.216.086.057-.017.088-.004.088.038 0 .036.055.124.121.197.081.088.112.163.092.224-.145.452-.167.767-.052.741.032-.007.058.008.058.034 0 .025-.025.04-.056.033-.073-.016-.119.217-.063.316.024.042.032.106.018.141-.015.036.008.092.05.125.058.046.062.068.017.095-.046.027-.046.049.001.104.04.046.046.095.017.144-.044.076.048.515.12.566.02.013.036.065.036.114 0 .115.28.198.838.251.481.046.716.03 1.389-.094zm-1.98-.93c.014-.037.035-.068.046-.068.01 0 .019.031.019.069 0 .037-.021.068-.047.068-.025 0-.034-.031-.019-.068zm-.438-.341c-.017-.025-.008-.046.018-.046s.061.02.078.046c.016.025.008.045-.019.045a.106.106 0 0 1-.077-.045zm.862-.41a.106.106 0 0 1 .077-.046c.027 0 .035.02.019.046a.106.106 0 0 1-.078.045c-.026 0-.034-.02-.018-.045zm.407-.227c0-.062.085-.1.116-.053.015.023-.005.054-.044.068-.04.014-.072.007-.072-.015zm-1.223-.096c-.018-.026-.022-.058-.01-.07.013-.012.036.01.052.049.032.08.005.094-.043.021zm2.013-.224c-.016-.026-.008-.046.018-.046.027 0 .062.02.078.046.016.025.008.045-.018.045a.107.107 0 0 1-.078-.045zm-.407-.069c-.049-.056-.046-.068.018-.068.043 0 .078.03.078.068 0 .038-.008.069-.018.069-.01 0-.045-.031-.078-.069zm-1.509-.068a.106.106 0 0 1 .078-.046c.026 0 .035.02.018.046a.106.106 0 0 1-.077.045c-.027 0-.035-.02-.019-.045zm1.748-.069c0-.037.021-.068.047-.068.025 0 .034.031.019.068-.016.038-.036.069-.047.069-.01 0-.019-.031-.019-.069zm-1.772-.068c0-.025.023-.046.051-.046.028 0 .037.021.021.046-.016.025-.039.046-.05.046-.012 0-.022-.021-.022-.046zm-.02-.176c-.02-.032-.024-.07-.009-.085.043-.041.09.02.067.085-.016.046-.028.046-.058 0zm1.017-.038c.035-.012.076-.01.092.004.016.016-.012.026-.063.024-.056-.002-.067-.012-.029-.027zm.823-.009c0-.04.144-.11.173-.084.008.008-.027.04-.08.07-.05.03-.092.037-.092.014zm-.646-.096c-.017-.025-.008-.046.018-.046.027 0 .061.021.078.046.016.025.008.046-.019.046a.107.107 0 0 1-.077-.046zm-.704-.122c.035-.013.076-.012.092.003s-.012.026-.063.024c-.055-.002-.067-.013-.029-.028zm1.425-.047c-.026-.065-.02-.07.027-.026.033.031.048.068.033.082-.015.014-.042-.011-.06-.056zm.117-.059c0-.025.022-.046.048-.046a.048.046 0 0 1 0 .092.048.046 0 0 1-.048-.046zm-2.3-.091a.048.046 0 0 1 .097 0 .047.047 0 0 1-.048.045.048.046 0 0 1-.048-.045zm1.63-.046c0-.025.02-.045.045-.045.024 0 .058.02.074.045.017.026-.004.046-.045.046-.041 0-.074-.02-.074-.046zm-1.964-.113c0-.035.044-.048.12-.035.065.013.12.038.12.057 0 .019-.055.034-.12.034-.066 0-.12-.025-.12-.056zm1.676-.069c-.079-.048-.066-.054.138-.063.092-.003.13.013.114.052-.027.067-.151.073-.252.011zm-.647-.182c.017-.025.04-.046.051-.046.012 0 .021.02.021.046 0 .025-.022.045-.05.045-.028 0-.038-.02-.022-.045zm-1.071-.308c.014-.087-.011-.12-.05-.062-.033.05-.053.043-.096-.034-.049-.087-.043-.096.055-.086.06.006.124.032.144.057.051.066.044.16-.011.16-.026 0-.045-.016-.043-.035zm1.121-.054c-.015-.023-.005-.055.022-.07.026-.017.048.002.048.042 0 .08-.029.091-.07.028zm-.313-.23c0-.026.023-.046.05-.046.029 0 .038.02.022.045-.016.025-.04.046-.05.046-.012 0-.022-.02-.022-.046zm1.293-.271c0-.024.022-.056.048-.072.026-.015.048.004.048.043 0 .04-.022.071-.048.071-.026 0-.048-.019-.048-.042zm.102-.22c-.066-.118-.019-.254.076-.219a.455.455 0 0 0 .09.026c.044 0 .016.124-.046.204-.063.083-.067.082-.12-.01zm.09-.102c0-.026-.01-.046-.021-.046-.012 0-.035.02-.051.046-.017.025-.007.045.021.045s.05-.02.05-.045zm2.468.093c-.042-.065.011-.139.1-.139.042 0 .066.032.057.076-.018.092-.114.13-.157.063zm-2.745-.347c-.059-.038-.106-.092-.106-.119 0-.033.021-.032.065.003.036.028.096.045.132.036.036-.01.049-.007.028.004-.02.01-.013.048.018.083.074.085-.004.082-.137-.007zm.277.026c0-.025.021-.046.048-.046a.048.046 0 0 1 0 .091.048.046 0 0 1-.048-.045zm-1.461-.046c.016-.025.06-.045.099-.045.038 0 .069.02.069.045 0 .025-.045.046-.099.046-.054 0-.085-.02-.069-.046zm.311-.07c0-.078.155-.293.195-.27.025.015.034.047.019.07-.015.023.038.042.119.042.08 0 .146.021.146.046 0 .025.033.046.072.046.04 0 .072.02.072.045 0 .064-.132.058-.154-.007-.015-.04-.057-.04-.18 0-.171.057-.289.069-.289.028zm-.434-.065a.941.941 0 0 1-.304-.168c-.173-.136-.177-.145-.077-.175.073-.022.137-.003.21.062a.7.7 0 0 0 .303.123c.236.036.31.139.12.164a.916.916 0 0 1-.252-.007zm.323-.26c-.05-.047-.038-.197.016-.197.026 0 .047.019.047.042 0 .023.013.074.03.114.029.071-.033.1-.093.041zm4.112-.302c-.02-.045-.024-.094-.008-.11.049-.046.088.019.065.109-.02.08-.022.08-.057.002zm-3.953-3.45c0-.025.034-.046.075-.046.04 0 .061.02.045.046-.017.025-.05.045-.075.045a.046.046 0 0 1-.045-.045zm.103 8.198c-.1-.036-.122-.017-.086.075.025.06.041.062.097.013.058-.05.056-.063-.011-.088zm.318-.367c.113.02.122.014.068-.048-.134-.154-.37-.092-.265.07.022.034.038.035.05.002.009-.026.075-.037.147-.024zm4.533-.436a.815.815 0 0 1 .075-.194c.03-.054.042-.13.027-.167-.027-.068.063-.257.223-.464.065-.084.072-.128.03-.2-.071-.129-.017-.392.107-.518.149-.15.092-.263-.112-.222-.192.039-.287.113-.144.113.056 0 .116-.021.132-.046.017-.025.05-.046.075-.046.077 0 .05.12-.047.203-.118.101-.178.414-.097.507.049.056.032.105-.099.277-.1.135-.156.26-.153.348a.63.63 0 0 1-.066.269c-.039.07-.06.129-.046.129.013 0 .002.056-.026.125-.045.114-.042.119.026.054a.372.372 0 0 0 .095-.168zm-3.876-.194c.037-.058-.074-.058-.168 0-.059.036-.052.044.033.045.058 0 .118-.02.135-.045zm4.094-1.635c0-.071-.14-.153-.215-.126-.108.04-.216-.015-.216-.11 0-.087-.132-.181-.248-.178-.035 0-.007.047.061.102a.59.59 0 0 1 .157.186c.023.061.065.08.15.063.068-.012.143.005.173.04.061.07.138.083.138.023zm-.766-.6c0-.053-.02-.083-.046-.068-.025.015-.033.057-.019.094.038.094.065.083.065-.027zm-.068-.18c.097 0 .084-.08-.023-.135-.067-.034-.106-.028-.152.024-.05.058-.048.067.007.056.047-.01.066.023.06.1-.005.066 0 .08.015.034.014-.044.055-.08.093-.08zm-5.056-.274a.048.046 0 0 0-.048-.046.048.046 0 0 0-.048.046.048.046 0 0 0 .096 0zm5.007-.171c-.084-.076-.086-.076-.057.004a.499.499 0 0 1 .03.134c0 .036.018.035.058-.004.046-.043.039-.072-.03-.134zm.29-.604a1.816 1.729 0 0 1 .095-.257.741.741 0 0 0 .064-.274c-.004-.151-.024-.113-.165.303a2.284 2.284 0 0 1-.174.393.619.619 0 0 0-.087.182c.003.075.24-.232.267-.347zm-7.197-.252c-.04-.1-.107-.08-.078.024.014.05.043.08.065.067.022-.013.028-.054.014-.091zm2.072-.224c-.017-.064-.061-.117-.1-.117-.056 0-.054.024.013.134.093.156.13.148.087-.017zm6.307.02c.027-.099-.038-.127-.079-.034-.016.038-.065.013-.142-.074-.112-.125-.13-.13-.392-.099-.155.019-.256.05-.232.072.023.023.13.019.248-.01.2-.048.21-.045.335.093.149.165.227.18.262.052zm-6.702-.25c.016-.038.01-.069-.013-.069-.022 0-.067.031-.1.069-.048.055-.046.068.013.068.04 0 .085-.03.1-.068zm.953-.01c.02-.01.036-.111.036-.225 0-.169.018-.211.096-.23.052-.014.095-.043.095-.065 0-.06-.156-.045-.255.026-.066.048-.122.052-.227.017-.13-.043-.195-.129-.098-.129.023 0 .056-.036.072-.08.016-.043.042-.105.058-.136.015-.032-.003-.057-.043-.057-.038 0-.082.043-.096.095a.182.182 0 0 1-.118.117c-.068.017-.086.052-.07.133.012.061.036.113.053.116.016.003.106.01.198.018.222.017.232.022.12.068l-.096.039.096.005c.088.004.089.008.011.051-.088.049-.116.179-.038.179.025 0 .067-.036.092-.08.026-.043.062-.064.081-.046.045.042-.068.171-.15.171a.122.116 0 0 0-.094.048c-.028.044.18.018.277-.034zm4.73-.013c0-.025-.033-.046-.072-.046-.04 0-.072-.02-.072-.045a.048.046 0 0 0-.048-.046c-.134 0 .003.137.18.18.006.002.011-.018.011-.043zm.304-.069c.072-.068.091-.114.147-.353.016-.069.054-.125.084-.125.088 0 .23.144.23.232 0 .097.077.153.12.088.016-.026.012-.047-.01-.047s-.064-.059-.093-.132c-.077-.194-.229-.258-.347-.145-.057.054-.083.124-.068.182.018.063-.02.136-.12.23-.082.08-.116.139-.08.139.036 0 .098-.031.137-.069zm.458-.07c-.035-.02-.086-.024-.114-.007-.03.018-.015.037.034.046.046.009.085.04.088.07.002.032.013.029.03-.01.014-.034-.004-.079-.038-.099zm-.14-.092c0-.023-.022-.043-.048-.043-.026 0-.048.032-.048.072 0 .039.022.058.048.042.026-.015.048-.047.048-.07zm-.766-.063c0-.036-.022-.078-.048-.094-.027-.015-.048.015-.048.066 0 .052.021.094.048.094.026 0 .048-.03.048-.066zm-7.088-.088c0-.01-.054-.028-.12-.04s-.12-.003-.12.018c0 .022.054.04.12.04s.12-.009.12-.018zm7.206-.302c.093 0 .137-.16.074-.271-.034-.062-.1-.093-.194-.093-.166 0-.182-.046-.045-.127.08-.048.088-.074.043-.153a.356.356 0 0 1-.03-.211.394.394 0 0 0-.067-.257c-.118-.184-.114-.223.016-.183.096.029.1.024.042-.043-.091-.105-.142-.093-.177.04a.307.292 0 0 0 .04.216c.1.147.147.58.063.58-.088 0-.128.115-.062.178.03.028.104.05.166.05.17 0 .195.135.044.239-.072.05-.126.131-.125.187.002.09.008.088.073-.026.04-.07.102-.126.139-.126zm-4.74.091c.016-.025-.004-.045-.045-.045-.041 0-.075.02-.075.045 0 .025.02.046.045.046.025 0 .059-.02.075-.046zm-.004-.278c-.048-.075-.116-.042-.116.056 0 .08.012.087.07.04.04-.03.06-.074.046-.096zm-.164-.246c-.033-.037-.081-.068-.108-.068-.026 0-.021.03.012.068.033.038.081.069.108.069.026 0 .021-.03-.012-.069zm4.433-.056c.161-.123.218-.294.117-.354-.027-.015-.048-.078-.048-.14 0-.06-.018-.11-.04-.11-.023 0-.067-.055-.098-.122-.094-.194-.15-.069-.17.375-.023.537-.018.545.239.35zm-.192-.092c.02-.069.033-.238.028-.376l-.008-.25.096.113a.42.42 0 0 1 .096.214c.001.055.023.113.05.129.046.027-.195.296-.266.296-.018 0-.016-.057.004-.126zm-6.253.055c0-.037-.02-.066-.044-.066-.025 0-.042.04-.038.088.008.1.082.08.082-.022zm6.055-.185c.115-.042.09-.1-.034-.076-.101.018-.108.007-.09-.166.018-.184.07-.24.123-.13.015.032.022.017.015-.033-.007-.05-.043-.092-.082-.092-.048 0-.082.072-.104.226-.044.292-.014.34.172.27zm-1.815-.667c-.026-.192-.063-.265-.184-.365-.194-.159-1.013-.56-1.22-.597-.234-.042-.144.04.12.11.126.032.37.127.54.21l.312.149.008.218c.007.19.031.236.187.366.099.081.2.148.224.148.026 0 .031-.1.012-.24zm1.117.014c.02-.14-.12-.255-.216-.179-.068.054-.087.23-.03.284.074.07.23.004.246-.106zm-.213-.03c.016-.04.029-.08.029-.09 0-.011.022-.02.048-.02.026 0 .048.041.048.091 0 .054-.032.091-.077.091-.05 0-.067-.024-.048-.072zm1.359-.056c.011-.032-.01-.043-.054-.027-.052.019-.076-.01-.087-.103-.017-.138-.183-.217-.183-.087 0 .04-.018.072-.038.072-.068 0-.154-.107-.154-.191 0-.045-.025-.082-.055-.082-.087 0-.376-.226-.376-.294 0-.034-.03-.073-.068-.086-.154-.056.058.264.231.35.095.046.172.109.172.14 0 .03.062.111.138.18.132.12.138.122.163.031.038-.138.114-.114.148.047.028.136.123.165.163.05zm-3.39-.1c0-.025-.059-.043-.131-.04l-.132.004.12.036.131.041c.007.003.012-.016.012-.04zm1.276-.216a.929.884 0 0 1 .1-.224c.15-.22-.15-.701-.48-.77-.173-.036-.231.011-.063.051.166.04.377.234.456.417.056.13.051.17-.038.345-.11.217-.126.307-.054.307.026 0 .062-.057.08-.126zm-2.21-.002c.137-.037.192-.106.194-.243 0-.096-.02-.119-.106-.114-.1.005-.103.012-.033.113.085.123.09.114-.123.183-.144.046-.177.041-.266-.039-.057-.05-.129-.091-.16-.091-.032 0 .013.06.099.135.091.08.186.124.228.109a2.35 2.35 0 0 1 .168-.053zm.79-.12c-.263-.13-.526-.19-.526-.12 0 .026.061.048.136.048.076 0 .175.041.223.092.053.055.145.09.235.089.147-.002.147-.003-.067-.109zm-.862-.025c.105-.063.014-.121-.239-.154-.213-.028-.214-.027-.084.041.073.038.132.09.132.113 0 .056.098.056.191 0zm-.574-.123c0-.058.177-.13.275-.113.053.01.084-.08.066-.188-.004-.02.026-.047.066-.062.04-.014.072-.047.072-.072 0-.028-.127-.039-.327-.028a1.574 1.574 0 0 0-.658.171c-.183.085-.338.158-.345.164-.046.033.063.156.149.167.266.037.702.012.702-.04zm3.783-.288c0-.05-.008-.091-.018-.091-.01 0-.03.04-.043.09-.014.051-.005.092.018.092.024 0 .043-.04.043-.091zm-.182-.101c-.035-.033-.057-.036-.057-.007 0 .06.057.115.089.084.013-.013-.001-.048-.032-.077zm-2.46-.167c.022-.142.158-.177.667-.17.46.005.592-.035.24-.073-.3-.033-.731-.006-.846.053-.055.028-.1.087-.1.131a.233.233 0 0 1-.06.141c-.049.049-.047.056.012.04.04-.011.078-.066.087-.122zm-.185-.002c.075-.133.06-.186-.05-.186-.112 0-.38.136-.38.193 0 .056.048.042.2-.06.16-.11.234-.083.146.052-.033.05-.038.089-.012.089s.069-.04.096-.088zm-7.972 9.427c-.275-.2-.9-.587-1.317-.816-1.793-.986-2.421-1.758-2.256-2.773.083-.513.358-.971.853-1.424.708-.649 1.307-.974 1.307-.71 0 .033-.185.203-.412.376-.484.37-.876.81-1.058 1.185-.106.22-.134.352-.15.712-.019.418-.012.459.128.742.081.166.226.392.323.504.44.512 1.606 1.03 2.607 1.159a12.816 12.196 0 0 1 .513.073c.114.022.151.11.047.11a.766.766 0 0 0-.237.115.488.488 0 0 0-.228.294c-.05.174-.028.263.133.56.038.072-.07.026-.253-.107zm4.743-.212c-.263-.015-.409-.067-.409-.145 0-.017.138-.022.306-.012.18.011.343-.003.395-.033.07-.04-.004-.05-.342-.042-.418.01-.439.005-.681-.147-.138-.086-.244-.177-.236-.202.008-.025.135-.1.283-.169.263-.12.288-.123 1.241-.127 1.22-.006 1.141-.01 1.141.056 0 .065-.2.188-.874.538-.257.133-.467.259-.467.28 0 .02-.016.033-.036.029a4.72 4.72 0 0 0-.321-.026zm.577-.342c.02-.019-.13-.034-.334-.034-.204 0-.36.015-.348.034.029.044.635.044.682 0zm-.83-.157a.85.81 0 0 0-.24-.001c-.072.01-.024.02.108.02s.191-.008.132-.02zm.958-.001a2.746 2.613 0 0 0-.408 0c-.112.01-.02.017.204.017.224 0 .315-.008.204-.017zm.418-.132c0-.01-.167-.014-.37-.01-.36.007-.363.009-.108.034.25.026.478.014.478-.024zm-1.422-.022c-.038-.036-.078-.036-.141-.001-.078.043-.071.05.053.05.103.001.127-.012.088-.049zm.358.019a.526.5 0 0 0-.192-.001c-.06.011-.022.02.083.02.106.001.154-.007.109-.019zm.214-.09a.185.176 0 0 0-.12 0c-.032.013-.005.023.06.023.066 0 .093-.01.06-.023zm.72-.002a.852.81 0 0 0-.24 0c-.073.01-.025.019.107.02.132 0 .192-.009.133-.02zm-1.27-.643c-.185-.02-.643-.692-.901-1.32-.299-.727-.394-1.262-.364-2.039a4.848 4.848 0 0 1 .991-2.78c.255-.331.32-.375.417-.282.074.07.07.085-.044.202-.722.739-1.207 2.147-1.117 3.248.08.995.404 1.891.939 2.604.132.176.233.334.225.35-.008.017-.074.025-.146.017zm-2.023-2.065c-.36-.38-1.138-1.05-1.926-1.66-1.46-1.16-4.226-3.048-4.228-4.943-.001-1.264 1.187-2.565 3.499-3.706 4.005-1.977 11.599-3.474 23.775-3.474 2.6 0 3.397-.02 6.73.117 12.38.599 18.558 3.6 18.558 6.378 0 2.394-3.686 5.421-10.896 6.334l-.659.069c-.144.017-.155.009-.155-.115 0-.148-.012-.143.574-.227 4.185-.715 9.388-3.307 9.428-5.811.03-1.948-4.27-3.87-6.817-4.637-1.075-.321-1.944-.516-3.425-.767l-1.053-.18a44.592 44.592 0 0 0-1.692-.247 143.166 136.248 0 0 1-2.044-.207c-.484-.055-2.043-.204-2.85-.272-.712-.06-2.917-.138-4.478-.16-1.792-.023-4.717.053-7.016.183-1.759.1-1.872.134-2.49.181-9.412.716-17.176 3.823-17.176 6.378 0 .709.547 1.45 1.183 1.768 1.042.521 2.873.618 4.208.212.39-.118.575-.165.546-.09-.01.022-.13.126-.27.23-.44.33-.953 1.095-1.177 1.757-.2.592-.32 1.76-.229 2.223.03.145.106.39.172.545.066.155.112.288.104.296-.01.008-.097-.07-.196-.176zm2.993.014c0-.047.103-.146.153-.146.02 0 .038.042.038.092 0 .06-.032.09-.096.09-.052 0-.095-.016-.095-.036zm-.168-1.832c-.017-.025-.007-.046.021-.046s.05.021.05.046c0 .025-.01.046-.02.046-.012 0-.035-.021-.051-.046zm.12-.255c0-.036.06-.054.162-.05.195.01.184.059-.018.087-.095.013-.145 0-.145-.037zm-.144-.155c0-.025.023-.046.05-.046.029 0 .038.021.022.046-.016.025-.04.045-.05.045-.013 0-.022-.02-.022-.045zm.452-.095c-.014-.023.018-.042.072-.042.054 0 .099-.022.099-.048 0-.027.023-.035.052-.018.037.022.037.045 0 .08-.068.065-.189.08-.222.028zm.683-.208c-.051-.048.013-.105.088-.078.038.014.058.044.043.067-.03.047-.088.053-.131.011zm.134-.199c.016-.025.04-.045.05-.045.012 0 .022.02.022.045 0 .026-.023.046-.05.046-.029 0-.038-.02-.022-.046zm-.368-.213c.035-.013.076-.012.092.004.016.015-.013.026-.063.024-.056-.002-.067-.013-.03-.028zm-.997-.17a.076.072 0 0 1 .076-.072c.042 0 .067.024.057.054-.03.084-.133.098-.133.018zm.575.021c0-.023.022-.055.048-.07.026-.016.048.003.048.042 0 .04-.022.071-.048.071-.027 0-.048-.019-.048-.043zm.383-.048c0-.025.033-.045.072-.045.04 0 .072.02.072.045 0 .025-.033.046-.072.046-.04 0-.072-.02-.072-.046zm1.894-.078a.127.12 0 0 1 .027-.123c.042-.037.05-.03.027.03-.036.098.03.105.112.012.032-.038.089-.068.125-.068.118 0 .07.072-.098.148-.15.068-.165.068-.193 0zm-2.134-.195a.048.046 0 0 1 .096 0 .047.047 0 0 1-.048.045.048.046 0 0 1-.048-.045zm.719-.14c0-.026.022-.035.048-.02.026.016.048.037.048.049 0 .01-.022.02-.048.02a.048.048 0 0 1-.048-.049zm.311.003c-.016-.025.004-.045.045-.045a.073.07 0 0 0 .075-.069c0-.037.022-.068.05-.068.033 0 .034.027.002.085-.027.047-.035.098-.018.114.017.016-.004.029-.047.029-.042 0-.09-.02-.106-.046zm-.427-.176c-.02-.032-.024-.07-.009-.085.043-.04.09.02.067.085-.017.046-.028.046-.058 0zm.241-.086c.046-.179.067-.185.067-.019 0 .08-.022.145-.05.145-.028 0-.035-.051-.017-.126zm-.388-.057a.105.105 0 0 1 .077-.045c.026 0 .035.02.018.045a.106.106 0 0 1-.077.046c-.027 0-.035-.02-.018-.046zm.812-.003c-.018-.027-.02-.059-.006-.073.034-.032.127.025.127.08 0 .057-.082.053-.121-.007zm.337.003a.09.085 0 0 1 .013-.099c.032-.03.06-.028.083.008a.09.085 0 0 1-.013.1c-.032.03-.06.027-.083-.008zm-1.27-.16c-.033-.038-.052-.074-.042-.08.22-.12.234-.124.234-.06a.101.101 0 0 1-.06.088c-.046.018-.045.024.003.027.035.002.05.024.034.049-.042.064-.099.057-.169-.024zm.336.022c-.062-.04-.06-.055.021-.113.107-.078.189-.029.143.084-.035.088-.064.093-.164.03zm.431-.024c0-.118.119-.43.16-.418.085.028.09.29.006.37-.076.072-.166.098-.166.048zm.266-.016a.053.05 0 0 1 .017-.07.053.05 0 0 1 .074.017.053.05 0 0 1-.018.07.053.05 0 0 1-.073-.017zm-1.176-.186c0-.025.023-.046.051-.046.028 0 .037.021.02.046-.015.025-.038.045-.05.045-.011 0-.02-.02-.02-.045zm.31-.139c-.046-.07.036-.14.112-.095.05.03.048.048-.008.092-.052.04-.079.041-.103.003zm.36-.088c0-.057.17-.143.21-.106.041.04-.064.15-.143.15-.037 0-.066-.02-.066-.043zm.45-.147c-.04-.06.071-.126.215-.127.092 0 .103.012.058.063-.073.084-.236.122-.274.064zm-1.54-.043c-.032-.031-.059-.084-.059-.117 0-.032-.021-.059-.048-.059a.048.046 0 0 1-.048-.045c0-.069.124-.055.19.02.031.036.05.11.041.162-.012.078-.027.086-.075.04zm.947.01c0-.056.288-.19.341-.16.073.044.046.095-.08.15-.147.063-.261.068-.261.01zm-.344-.08c.034-.013.076-.012.091.004.016.015-.012.026-.062.024-.056-.002-.067-.013-.03-.028zm-.316-.16c.024-.068.133-.106.133-.045 0 .024-.034.056-.076.072-.046.017-.068.007-.057-.027zm.548-.022c-.06-.057-.032-.116.043-.089.042.016.061.008.045-.018-.017-.024.015-.045.069-.045.111 0 .126.047.041.128-.064.06-.149.071-.198.024zm8.788-5.666a1.133 1.133 0 0 1-.127-.206c-.128-.241-.453-.548-.68-.64-.395-.159-1.506-.131-2.96.076-.342.048-.652.098-.687.11-.036.012-.208.05-.383.086a4.394 4.394 0 0 0-.403.096c-.046.017-.084.01-.084-.015 1.57-.699 8.149-1.723 14.793-1.666 4.502.038 9.044.554 12.04 2.075-.042.01-1.537.06-9.674.06-5.368-.002-10.22.008-10.782.022-.562.013-1.036.014-1.053.001z" transform="translate(-8.584 10.645)"/><g aria-label="URBAN" style="font-style:italic;font-size:19.484px;line-height:1.25;font-family:Calibri;-inkscape-font-specification:'Calibri, Italic';font-variant-ligatures:none;text-align:center;letter-spacing:.926042px;word-spacing:0;text-anchor:middle;fill:#000;fill-opacity:1;stroke-width:.264583"><path d="M75.461 329.998v-6.707q0-.857.38-1.285.39-.428 1.019-.428.656 0 1.037.428.39.428.39 1.285v6.859q0 1.17.257 1.96.266.78.932 1.218.666.428 1.865.428 1.655 0 2.34-.876.685-.884.685-2.673v-6.916q0-.866.38-1.285.381-.428 1.019-.428.637 0 1.027.428.4.419.4 1.285v6.707q0 1.636-.324 2.73-.314 1.094-1.199 1.922-.76.704-1.77 1.027-1.008.324-2.359.324-1.607 0-2.768-.343-1.16-.352-1.893-1.075-.733-.732-1.075-1.864-.343-1.142-.343-2.721z" style="font-style:normal;font-family:'Arial Rounded MT Bold';-inkscape-font-specification:'Arial Rounded MT Bold, ';fill:#000;fill-opacity:1" transform="matrix(.27152 0 0 .2584 17.409 15.864)"/><path d="M94.499 329.716h-.99v4.54q0 .897-.39 1.32-.39.425-1.017.425-.676 0-1.047-.444-.371-.443-.371-1.3v-10.874q0-.925.41-1.34.408-.414 1.322-.414h4.595q.951 0 1.626.086.676.077 1.218.328.657.28 1.16.8.505.52.762 1.215.266.684.266 1.455 0 1.581-.884 2.526-.876.944-2.664 1.34.751.404 1.436 1.195.685.79 1.218 1.687.542.887.837 1.61.305.713.305.983 0 .28-.181.559-.171.27-.476.424-.304.164-.704.164-.475 0-.799-.232-.323-.221-.561-.568-.229-.347-.628-1.022l-1.132-1.909q-.61-1.05-1.094-1.6-.476-.55-.97-.752-.495-.202-1.247-.202zm1.617-5.938H93.51v3.885h2.53q1.018 0 1.713-.174.694-.183 1.056-.607.37-.434.37-1.186 0-.588-.294-1.031-.295-.453-.818-.675-.495-.212-1.95-.212zm15.67 11.985h-4.262q-.923 0-1.323-.416-.39-.426-.39-1.345v-10.663q0-.938.4-1.345.409-.416 1.313-.416h4.519q.998 0 1.731.126.733.126 1.313.484.495.3.875.764.38.455.58 1.016.2.552.2 1.17 0 2.13-2.093 3.116 2.75.89 2.75 3.464 0 1.19-.6 2.149-.599.948-1.617 1.403-.637.27-1.465.387-.828.106-1.931.106zm-.21-6.299h-2.94v4.141h3.036q2.863 0 2.863-2.1 0-1.073-.742-1.557t-2.217-.484zm-2.94-5.728v3.667h2.588q1.056 0 1.627-.203.58-.203.885-.774.238-.407.238-.91 0-1.074-.752-1.422-.751-.358-2.293-.358z" style="font-style:normal;font-family:'Arial Rounded MT Bold';-inkscape-font-specification:'Arial Rounded MT Bold, ';fill:#000;fill-opacity:1;stroke-width:.264583" transform="matrix(.27152 0 0 .2584 17.409 15.864)"/><path d="m129.701 334.184-.666-1.75h-5.67l-.666 1.788q-.39 1.046-.666 1.417-.276.362-.904.362-.532 0-.942-.39-.409-.39-.409-.885 0-.285.096-.59.095-.304.313-.847l3.568-9.057.362-.932q.218-.552.456-.913.248-.362.638-.58.4-.229.98-.229.59 0 .98.228.4.22.637.571.247.352.409.761.171.4.428 1.075l3.644 9q.428 1.028.428 1.494 0 .485-.41.894-.399.4-.97.4-.332 0-.57-.124-.238-.114-.4-.314-.162-.21-.352-.628zm-5.594-3.872h4.167l-2.102-5.756zm15.198-7.04 5.432 8.22v-8.297q0-.808.343-1.208.352-.409.942-.409.609 0 .96.41.353.399.353 1.207v10.97q0 1.836-1.523 1.836-.38 0-.685-.114-.304-.105-.57-.343-.267-.238-.495-.552-.228-.323-.457-.656l-5.299-8.125v8.173q0 .799-.37 1.208-.372.409-.952.409-.6 0-.961-.41-.362-.418-.362-1.207v-10.76q0-.685.153-1.075.18-.429.599-.695.419-.276.904-.276.38 0 .647.124.276.123.475.333.21.21.419.542.219.333.447.695z" style="font-style:normal;font-family:'Arial Rounded MT Bold';-inkscape-font-specification:'Arial Rounded MT Bold, ';fill:#000;fill-opacity:1" transform="matrix(.27152 0 0 .2584 17.409 15.864)"/><path style="opacity:1;fill:#000;fill-opacity:1;stroke-width:.799999;stroke-linecap:square;paint-order:fill markers stroke" d="M90.684 321.629h1.731v1.64h-1.731z" transform="matrix(.27152 0 0 .2584 17.409 15.864)"/><path style="font-style:italic;font-size:19.484px;line-height:1.25;font-family:Calibri;-inkscape-font-specification:'Calibri, Italic';font-variant-ligatures:none;text-align:center;letter-spacing:.926042px;word-spacing:0;text-anchor:middle;fill:#000;fill-opacity:1;stroke-width:.799999;stroke-linecap:square;paint-order:fill markers stroke" d="M105.811 321.578h1.731v14.185h-1.731z" transform="matrix(.27152 0 0 .2584 17.409 15.864)"/></g><g aria-label="CRUISE" style="font-style:italic;font-size:19.484px;line-height:1.25;font-family:Calibri;-inkscape-font-specification:'Calibri, Italic';font-variant-ligatures:none;text-align:center;letter-spacing:-.132292px;word-spacing:0;text-anchor:middle;fill:#000;fill-opacity:1;stroke-width:.264583"><path d="M87.59 349.897q0 .666-.333 1.446-.324.771-1.028 1.523-.704.742-1.798 1.208-1.094.466-2.55.466-1.103 0-2.007-.21-.904-.209-1.646-.646-.732-.447-1.35-1.17-.553-.657-.943-1.466-.39-.818-.59-1.74-.19-.923-.19-1.96 0-1.684.486-3.016.494-1.332 1.408-2.274.913-.951 2.14-1.446t2.616-.495q1.694 0 3.016.676 1.323.675 2.027 1.674.704.99.704 1.874 0 .486-.343.857-.342.37-.828.37-.542 0-.818-.256-.266-.257-.6-.885-.55-1.037-1.302-1.55-.743-.514-1.837-.514-1.74 0-2.778 1.322-1.027 1.322-1.027 3.758 0 1.627.457 2.711.456 1.075 1.293 1.608.838.533 1.96.533 1.218 0 2.055-.6.847-.608 1.275-1.779.18-.551.447-.894.267-.352.856-.352.505 0 .866.352.362.352.362.875z" style="font-style:normal;font-family:'Arial Rounded MT Bold';-inkscape-font-specification:'Arial Rounded MT Bold, ';fill:#000;fill-opacity:1" transform="matrix(.27152 0 0 .2584 17.409 15.864)"/><path d="M93.793 348.233h-.989v4.556q0 .9-.39 1.325-.39.426-1.018.426-.675 0-1.046-.445t-.371-1.306v-10.911q0-.929.409-1.345.409-.416 1.322-.416h4.595q.951 0 1.627.087.675.078 1.218.33.656.28 1.16.802.505.522.761 1.219.267.687.267 1.46 0 1.587-.885 2.535-.875.948-2.664 1.344.752.407 1.437 1.2.685.793 1.218 1.693.542.89.837 1.615.304.716.304.987 0 .28-.18.56-.172.272-.476.426-.305.165-.704.165-.476 0-.8-.232-.323-.223-.56-.57-.23-.35-.629-1.026l-1.132-1.916q-.609-1.054-1.094-1.605-.476-.552-.97-.755-.495-.203-1.247-.203zm1.618-5.959h-2.607v3.899h2.53q1.019 0 1.713-.174.695-.184 1.056-.61.371-.435.371-1.19 0-.59-.295-1.035-.295-.454-.818-.677-.495-.213-1.95-.213z" style="font-style:normal;font-family:'Arial Rounded MT Bold';-inkscape-font-specification:'Arial Rounded MT Bold, ';fill:#000;fill-opacity:1;stroke-width:.264583" transform="matrix(.27152 0 0 .2584 17.409 15.864)"/><path style="font-style:italic;font-size:19.484px;line-height:1.25;font-family:Calibri;-inkscape-font-specification:'Calibri, Italic';font-variant-ligatures:none;text-align:center;letter-spacing:.926042px;word-spacing:0;text-anchor:middle;fill:#000;fill-opacity:1;stroke-width:.799999;stroke-linecap:square;paint-order:fill markers stroke" d="M89.978 340.117h1.731v1.64h-1.731z" transform="matrix(.27152 0 0 .2584 17.409 15.864)"/><path d="M104.21 348.537v-6.707q0-.856.366-1.285.376-.428.981-.428.633 0 1 .428.376.429.376 1.285v6.86q0 1.17.248 1.959.257.78.899 1.218.642.428 1.797.428 1.596 0 2.257-.875.66-.885.66-2.674v-6.916q0-.866.367-1.285.367-.428.981-.428.615 0 .99.428.386.419.386 1.285v6.707q0 1.636-.312 2.73-.303 1.094-1.156 1.922-.733.704-1.706 1.028-.972.323-2.274.323-1.55 0-2.67-.343-1.118-.352-1.824-1.075-.706-.732-1.037-1.864-.33-1.142-.33-2.721z" style="font-style:normal;font-family:'Arial Rounded MT Bold';-inkscape-font-specification:'Arial Rounded MT Bold, ';fill:#000;fill-opacity:1;stroke-width:.264583" transform="matrix(.27152 0 0 .2584 17.409 15.864)"/><path d="M118.179 352.818V341.83q0-.857.39-1.285.39-.428 1.008-.428.638 0 1.028.428.4.419.4 1.285v10.988q0 .866-.4 1.294-.39.428-1.028.428-.609 0-1.008-.428-.39-.438-.39-1.294zm16.45-2.702q0 1.265-.657 2.274-.647 1.008-1.902 1.58-1.256.57-2.978.57-2.065 0-3.406-.78-.951-.561-1.55-1.494-.59-.942-.59-1.826 0-.514.351-.876.362-.37.914-.37.447 0 .751.285.314.285.533.846.266.666.57 1.114.315.447.876.742.561.285 1.475.285 1.256 0 2.036-.58.79-.59.79-1.465 0-.695-.429-1.123-.418-.438-1.094-.666-.666-.228-1.788-.485-1.504-.352-2.522-.818-1.008-.476-1.607-1.285-.59-.818-.59-2.026 0-1.151.628-2.046.628-.894 1.817-1.37 1.189-.485 2.797-.485 1.284 0 2.217.324.941.314 1.56.846.618.524.904 1.104.285.58.285 1.132 0 .504-.362.913-.352.4-.884.4-.486 0-.742-.238-.248-.247-.543-.799-.38-.79-.913-1.227-.533-.447-1.712-.447-1.094 0-1.77.485-.666.476-.666 1.151 0 .419.228.723.229.304.628.523.4.22.809.343.41.123 1.35.361 1.18.276 2.132.61.96.332 1.627.808.675.476 1.046 1.208.38.723.38 1.78z" style="font-style:normal;font-family:'Arial Rounded MT Bold';-inkscape-font-specification:'Arial Rounded MT Bold, ';fill:#000;fill-opacity:1" transform="matrix(.27152 0 0 .2584 17.409 15.864)"/><path d="M146.396 342.333h-6.504v3.483h5.989q.66 0 .981.3.33.29.33.774 0 .484-.32.794-.32.3-.991.3h-5.989v4.035h6.727q.68 0 1.021.319.35.31.35.832 0 .503-.35.823-.34.31-1.02.31h-7.846q-.942 0-1.36-.417-.409-.416-.409-1.345v-10.663q0-.619.185-1.006.185-.397.574-.57.398-.185 1.01-.185h7.622q.69 0 1.02.31.34.3.34.793 0 .503-.34.813-.33.3-1.02.3z" style="font-style:normal;font-family:'Arial Rounded MT Bold';-inkscape-font-specification:'Arial Rounded MT Bold, ';fill:#000;fill-opacity:1;stroke-width:.264583" transform="matrix(.27152 0 0 .2584 17.409 15.864)"/><path style="font-style:italic;font-size:19.484px;line-height:1.25;font-family:Calibri;-inkscape-font-specification:'Calibri, Italic';font-variant-ligatures:none;text-align:center;letter-spacing:.926042px;word-spacing:0;text-anchor:middle;fill:#000;fill-opacity:1;stroke-width:.799999;stroke-linecap:square;paint-order:fill markers stroke" d="M137.005 340.117h1.731v14.185h-1.731z" transform="matrix(.27152 0 0 .2584 17.409 15.864)"/></g><g aria-label="SHIP" style="font-style:italic;font-size:19.484px;line-height:1.25;font-family:Calibri;-inkscape-font-specification:'Calibri, Italic';font-variant-ligatures:none;text-align:center;letter-spacing:7.9375px;word-spacing:0;text-anchor:middle;fill:#000;fill-opacity:1;stroke-width:.264583"><path d="M86.426 368.655q0 1.266-.657 2.274-.647 1.009-1.903 1.58-1.255.57-2.977.57-2.065 0-3.406-.78-.952-.561-1.55-1.494-.59-.941-.59-1.826 0-.514.351-.875.362-.372.914-.372.447 0 .751.286.314.285.533.847.266.666.57 1.113.315.447.876.742.561.285 1.475.285 1.255 0 2.035-.58.79-.59.79-1.465 0-.695-.428-1.123-.419-.438-1.094-.666-.666-.228-1.789-.485-1.503-.352-2.52-.818-1.01-.476-1.609-1.285-.59-.818-.59-2.026 0-1.151.628-2.045.628-.895 1.818-1.37 1.189-.486 2.797-.486 1.284 0 2.216.324.942.314 1.56.847.619.523.904 1.103.286.58.286 1.132 0 .505-.362.914-.352.4-.885.4-.485 0-.742-.239-.247-.247-.542-.799-.38-.79-.913-1.227-.533-.447-1.713-.447-1.094 0-1.77.485-.665.476-.665 1.151 0 .419.228.723.229.305.628.523.4.22.809.343.409.124 1.35.361 1.18.276 2.132.61.96.332 1.627.808.675.476 1.046 1.208.38.723.38 1.78zm13.179-8.286v3.996h6.098v-3.996q0-.856.381-1.284.39-.429 1.018-.429.637 0 1.027.429.4.418.4 1.284v10.988q0 .866-.4 1.294-.4.428-1.027.428-.637 0-1.018-.428-.38-.438-.38-1.294v-4.69h-6.099v4.69q0 .866-.4 1.294-.399.428-1.027.428-.637 0-1.018-.428-.38-.438-.38-1.294V360.37q0-.856.37-1.284.381-.429 1.028-.429.638 0 1.028.429.4.418.4 1.284zm21.865 10.988V360.37q0-.856.39-1.284.39-.429 1.01-.429.637 0 1.027.429.4.418.4 1.284v10.988q0 .866-.4 1.294-.39.428-1.028.428-.609 0-1.008-.428-.39-.438-.39-1.294z" style="font-style:normal;font-family:'Arial Rounded MT Bold';-inkscape-font-specification:'Arial Rounded MT Bold, ';fill:#000;fill-opacity:1" transform="matrix(.27152 0 0 .2584 17.409 15.864)"/><path d="M142.628 367.343h-2.588v3.994q0 .857-.4 1.3-.4.442-1.008.442-.638 0-1.028-.433-.39-.443-.39-1.29V360.48q0-.943.428-1.347.429-.404 1.36-.404h3.626q1.607 0 2.473.25.856.24 1.475.799.628.558.951 1.366.324.809.324 1.82 0 2.155-1.313 3.272-1.313 1.107-3.91 1.107zm-.685-6.468h-1.903v4.312h1.903q.999 0 1.664-.212.676-.212 1.028-.693t.352-1.26q0-.934-.542-1.521-.61-.626-2.502-.626z" style="font-style:normal;font-family:'Arial Rounded MT Bold';-inkscape-font-specification:'Arial Rounded MT Bold, ';fill:#000;fill-opacity:1;stroke-width:.264583" transform="matrix(.27152 0 0 .2584 17.409 15.864)"/><path style="font-style:italic;font-size:19.484px;line-height:1.25;font-family:Calibri;-inkscape-font-specification:'Calibri, Italic';font-variant-ligatures:none;text-align:center;letter-spacing:.926042px;word-spacing:0;text-anchor:middle;fill:#000;fill-opacity:1;stroke-width:.799999;stroke-linecap:square;paint-order:fill markers stroke" d="M137.214 358.729h1.731v1.64h-1.731z" transform="matrix(.27152 0 0 .2584 17.409 15.864)"/></g><g aria-label="ANALYSIS" transform="matrix(.57206 0 0 .54442 -206.012 -296.8)" style="font-size:3.83967px;line-height:1.3;font-family:'Arial Rounded MT Bold';-inkscape-font-specification:'Arial Rounded MT Bold, Normal';font-variant-ligatures:none;letter-spacing:0;word-spacing:0;white-space:pre;shape-inside:url(#rect12816-2);fill:#000;fill-opacity:1;stroke-width:.033227"><path d="m464.918 747.645-.131-.345h-1.118l-.13.353q-.078.206-.132.28-.055.07-.178.07-.105 0-.186-.077-.08-.076-.08-.174 0-.056.018-.116.02-.06.062-.167l.703-1.785.072-.184q.043-.108.09-.18.048-.07.125-.114.079-.045.193-.045.117 0 .193.045.08.043.126.113.049.069.08.15.034.078.085.211l.718 1.774q.084.202.084.294 0 .096-.08.177-.079.078-.191.078-.066 0-.113-.024-.047-.023-.079-.062-.031-.041-.069-.124zm-1.102-.763h.82l-.414-1.134zm3.107-1.387 1.07 1.62v-1.635q0-.16.068-.238.07-.08.185-.08.12 0 .19.08.07.078.07.238v2.162q0 .361-.3.361-.076 0-.136-.022-.06-.02-.112-.068-.053-.046-.098-.108l-.09-.13-1.044-1.6v1.61q0 .157-.073.238-.073.08-.188.08-.118 0-.189-.08-.071-.083-.071-.238v-2.12q0-.136.03-.213.035-.084.118-.136.082-.055.178-.055.075 0 .128.025.054.024.093.065.041.041.083.107zm4.176 2.15-.131-.345h-1.118l-.131.353q-.077.206-.131.28-.055.07-.178.07-.105 0-.186-.077-.08-.076-.08-.174 0-.056.018-.116.019-.06.062-.167l.703-1.785.071-.184q.043-.108.09-.18.049-.07.126-.114.079-.045.193-.045.116 0 .193.045.079.043.126.113.048.069.08.15.034.078.085.211l.718 1.774q.084.202.084.294 0 .096-.08.177-.08.078-.192.078-.065 0-.112-.024-.047-.023-.079-.062-.032-.041-.07-.124zm-1.103-.763h.822l-.415-1.134zm2.928-1.383v2h1.128q.135 0 .207.066.073.065.073.165t-.072.165q-.07.062-.208.062h-1.344q-.182 0-.262-.081-.08-.08-.08-.26v-2.117q0-.17.076-.253.077-.085.2-.085.126 0 .203.085.079.082.079.253zm2.179 2.165v-.872l-.671-1.04q-.088-.14-.126-.22-.035-.078-.035-.137 0-.095.073-.164.075-.07.183-.07.115 0 .173.066.06.063.178.257l.514.834.519-.834.079-.13q.032-.052.07-.097.038-.047.085-.071.047-.025.115-.025.105 0 .174.07.071.067.071.157 0 .073-.035.146-.036.073-.122.203l-.688 1.055v.872q0 .17-.079.255-.079.084-.2.084-.124 0-.201-.082-.077-.084-.077-.257zm4.056-.532q0 .249-.13.448-.127.198-.374.31-.248.113-.587.113-.407 0-.671-.153-.188-.11-.306-.295-.116-.185-.116-.36 0-.1.07-.172.07-.073.18-.073.087 0 .147.056.062.056.105.167.053.131.113.22.062.087.172.145.11.057.29.057.248 0 .402-.115.156-.116.156-.288 0-.137-.085-.222-.082-.086-.215-.13-.132-.046-.353-.097-.296-.069-.497-.16-.198-.094-.317-.254-.116-.161-.116-.4 0-.226.124-.402.124-.177.358-.27.234-.096.551-.096.253 0 .437.064.186.062.308.167.121.103.178.217.056.115.056.223 0 .1-.071.18-.07.079-.175.079-.095 0-.146-.047-.049-.049-.107-.157-.075-.156-.18-.242-.105-.088-.337-.088-.216 0-.349.095-.131.094-.131.227 0 .083.045.143.045.06.123.103.08.043.16.067.08.025.266.071.233.055.42.12.19.066.32.16.134.093.207.238.075.142.075.35zm.771.532V745.5q0-.17.077-.253.077-.085.199-.085.125 0 .202.085.079.082.079.253v2.165q0 .17-.079.255-.077.084-.202.084-.12 0-.199-.084-.077-.086-.077-.255zm3.544-.532q0 .249-.13.448-.127.198-.374.31-.248.113-.587.113-.407 0-.671-.153-.188-.11-.306-.295-.116-.185-.116-.36 0-.1.07-.172.07-.073.18-.073.088 0 .148.056.061.056.105.167.052.131.112.22.062.087.173.145.11.057.29.057.248 0 .401-.115.156-.116.156-.288 0-.137-.084-.222-.083-.086-.216-.13-.131-.046-.353-.097-.296-.069-.496-.16-.2-.094-.317-.254-.116-.161-.116-.4 0-.226.123-.402.124-.177.358-.27.235-.096.552-.096.253 0 .436.064.186.062.308.167.122.103.178.217.056.115.056.223 0 .1-.071.18-.07.079-.174.079-.096 0-.147-.047-.048-.049-.106-.157-.075-.156-.18-.242-.105-.088-.338-.088-.216 0-.349.095-.13.094-.13.227 0 .083.044.143.045.06.124.103t.16.067q.08.025.265.071.233.055.42.12.19.066.321.16.133.093.206.238.075.142.075.35z" style="letter-spacing:.276281px;fill:#000;fill-opacity:1"/><path style="opacity:1;fill:#000;fill-opacity:1;stroke-width:.379713;stroke-linecap:square;paint-order:fill markers stroke" d="M472.367 747.687h.386v.27h-.386z"/></g><g aria-label="SOLUTIONS" transform="matrix(.52206 0 0 .54442 -182.834 -293.937)" style="font-size:3.83967px;line-height:1.3;font-family:'Arial Rounded MT Bold';-inkscape-font-specification:'Arial Rounded MT Bold, Normal';font-variant-ligatures:none;letter-spacing:0;word-spacing:0;white-space:pre;shape-inside:url(#rect12816-2-5);fill:#000;fill-opacity:1;stroke-width:.0347816"><path d="M465.248 747.132q0 .249-.13.448-.127.198-.374.31-.248.113-.587.113-.407 0-.671-.153-.188-.11-.306-.295-.116-.185-.116-.36 0-.1.07-.172.07-.073.18-.073.087 0 .147.056.062.056.105.167.053.131.113.22.062.087.172.145.11.057.29.057.248 0 .402-.115.156-.116.156-.288 0-.137-.085-.222-.082-.086-.215-.13-.132-.046-.353-.097-.296-.069-.497-.16-.198-.094-.317-.254-.116-.161-.116-.4 0-.226.124-.402.124-.177.358-.27.234-.096.551-.096.253 0 .437.064.186.062.308.167.121.103.178.217.056.115.056.223 0 .1-.071.18-.07.079-.175.079-.095 0-.146-.047-.049-.049-.107-.157-.075-.156-.18-.242-.105-.088-.337-.088-.216 0-.349.095-.131.094-.131.227 0 .083.045.143.045.06.124.103.078.043.159.067.08.025.266.071.233.055.42.12.19.066.32.16.134.093.207.238.075.142.075.35zm1.682-1.971q.427 0 .733.175.307.172.465.493.157.318.157.75 0 .318-.086.579-.086.26-.259.452-.172.19-.423.292-.252.101-.576.101-.323 0-.578-.103-.254-.105-.425-.294-.17-.19-.259-.456-.086-.266-.086-.575 0-.317.09-.581.092-.265.264-.45.173-.186.42-.283.248-.1.563-.1zm.79 1.414q0-.302-.097-.523-.097-.222-.279-.334-.18-.114-.414-.114-.167 0-.31.063-.14.062-.243.182-.102.12-.162.308-.058.185-.058.418 0 .234.058.423.06.19.167.315.109.124.248.186.14.062.307.062.214 0 .392-.107.18-.107.285-.33.107-.223.107-.55zm1.587-1.076v2h1.129q.135 0 .206.066.073.065.073.165t-.071.165q-.072.062-.208.062h-1.345q-.181 0-.262-.081-.079-.08-.079-.26v-2.117q0-.17.075-.253.077-.085.2-.085.126 0 .203.085.079.082.079.253z" style="fill:#000;fill-opacity:1"/><path style="font-size:3.83967px;line-height:1.3;font-family:'Arial Rounded MT Bold';-inkscape-font-specification:'Arial Rounded MT Bold, Normal';font-variant-ligatures:none;letter-spacing:0;word-spacing:0;white-space:pre;shape-inside:url(#rect12816-2);fill:#000;fill-opacity:1;stroke-width:.397478;stroke-linecap:square;paint-order:fill markers stroke" d="M468.75 747.675h.341v.281h-.341z"/><path d="M470.893 746.82v-1.32q0-.17.075-.253.077-.085.2-.085.13 0 .205.085.077.084.077.253v1.351q0 .231.05.387.053.153.184.24.131.084.368.084.326 0 .46-.173.136-.174.136-.526V745.5q0-.171.075-.253.075-.085.2-.085.126 0 .203.085.079.082.079.253v1.321q0 .323-.064.538-.062.216-.236.38-.15.138-.349.202-.199.063-.465.063-.317 0-.545-.067-.23-.07-.374-.212-.144-.144-.211-.367-.068-.225-.068-.537zm4.698-1.153h-.607v1.997q0 .173-.077.257-.077.082-.199.082-.123 0-.202-.084-.077-.084-.077-.255v-1.997h-.608q-.142 0-.211-.062-.07-.063-.07-.166 0-.107.072-.17.073-.061.21-.061h1.77q.144 0 .213.064.071.063.071.166 0 .104-.07.167-.072.062-.215.062zm.638 1.997V745.5q0-.17.077-.253.077-.085.198-.085.126 0 .203.085.079.082.079.253v2.165q0 .17-.079.255-.077.084-.203.084-.12 0-.198-.084-.077-.086-.077-.255zm2.388-2.503q.428 0 .733.175.308.172.465.493.158.318.158.75 0 .318-.086.579-.086.26-.259.452-.173.19-.424.292-.251.101-.575.101-.323 0-.578-.103-.255-.105-.425-.294-.171-.19-.26-.456-.085-.266-.085-.575 0-.317.09-.581.092-.265.264-.45.173-.186.42-.283.248-.1.562-.1zm.792 1.414q0-.302-.098-.523-.097-.222-.28-.334-.18-.114-.414-.114-.166 0-.309.063-.14.062-.244.182-.1.12-.16.308-.059.185-.059.418 0 .234.058.423.06.19.167.315.109.124.247.186.141.062.308.062.214 0 .392-.107.18-.107.285-.33.107-.223.107-.55zm1.766-1.08 1.07 1.62v-1.635q0-.16.068-.238.07-.08.185-.08.12 0 .19.08.07.078.07.238v2.162q0 .361-.3.361-.076 0-.136-.022-.06-.02-.112-.068-.053-.046-.098-.108l-.09-.13-1.044-1.6v1.61q0 .157-.073.238-.073.08-.188.08-.118 0-.19-.08-.07-.083-.07-.238v-2.12q0-.136.03-.213.035-.084.118-.136.082-.055.178-.055.075 0 .127.025.055.024.094.065.041.041.083.107zm4.28 1.637q0 .249-.13.448-.127.198-.374.31-.248.113-.587.113-.407 0-.671-.153-.188-.11-.306-.295-.116-.185-.116-.36 0-.1.07-.172.07-.073.18-.073.087 0 .147.056.062.056.105.167.053.131.113.22.062.087.172.145.11.057.29.057.248 0 .402-.115.156-.116.156-.288 0-.137-.085-.222-.082-.086-.215-.13-.132-.046-.353-.097-.296-.069-.497-.16-.198-.094-.317-.254-.116-.161-.116-.4 0-.226.124-.402.124-.177.358-.27.234-.096.551-.096.253 0 .437.064.186.062.308.167.121.103.178.217.056.115.056.223 0 .1-.071.18-.07.079-.175.079-.095 0-.146-.047-.049-.049-.107-.157-.075-.156-.18-.242-.105-.088-.337-.088-.216 0-.349.095-.131.094-.131.227 0 .083.045.143.045.06.124.103.078.043.159.067.08.025.266.071.233.055.42.12.19.066.32.16.134.093.207.238.075.142.075.35z" style="fill:#000;fill-opacity:1"/></g><path style="fill:#000;fill-opacity:1;stroke-width:.211903;stroke-linecap:square;paint-order:fill markers stroke" d="M78.668 94.604a.643.612 0 0 0-.642.612.643.612 0 0 0 .642.611.643.612 0 0 0 .643-.611.643.612 0 0 0-.643-.612zm0 .12a.517.492 0 0 1 .518.492.517.492 0 0 1-.518.492.517.492 0 0 1-.517-.492.517.492 0 0 1 .517-.493z" transform="translate(-8.584 10.645)"/><g style="font-size:3.34591px;line-height:1.25;font-family:'Arial Rounded MT Bold';-inkscape-font-specification:'Arial Rounded MT Bold, Normal';font-variant-ligatures:none;text-align:center;letter-spacing:0;word-spacing:0;text-anchor:middle;fill:#000;fill-opacity:1;stroke-width:.264583"><path d="M173.096 388.59h-.17v.77c0 .1-.022.175-.067.223a.228.228 0 0 1-.175.072.223.223 0 0 1-.18-.075c-.042-.05-.063-.124-.063-.22v-2.137l1.086-.004c.11 0 .202.005.28.015a.695.695 0 0 1 .408.19.666.666 0 0 1 .176.453c0 .179-.05.321-.152.428-.1.107-.252.183-.457.227a.887.887 0 0 1 .247.203c.078.09.148.185.209.286.062.1.11.19.144.273.035.08.052.136.052.166a.17.17 0 0 1-.031.095.202.202 0 0 1-.082.072.254.254 0 0 1-.12.028.232.232 0 0 1-.138-.04.371.371 0 0 1-.096-.096 4.615 4.615 0 0 1-.108-.173l-.195-.324a1.736 1.736 0 0 0-.187-.27.456.456 0 0 0-.167-.128.575.575 0 0 0-.214-.035zm.278-1.006h-.448v.658h.435c.116 0 .214-.01.294-.03a.33.33 0 0 0 .18-.102.296.296 0 0 0 .065-.201.305.305 0 0 0-.192-.29c-.056-.023-.168-.035-.334-.035z" style="fill:#000;fill-opacity:1" transform="matrix(.27152 0 0 .2584 12.02 -.965)" aria-label="R"/></g><g style="font-size:4.56936px;line-height:1.25;font-family:'Arial Rounded MT Bold';-inkscape-font-specification:'Arial Rounded MT Bold, Normal';font-variant-ligatures:none;text-align:center;letter-spacing:0;word-spacing:0;text-anchor:middle;fill:#000;fill-opacity:1;stroke-width:.264583"><path d="M189.827 411.412q0 .114-.069.243-.067.13-.207.248-.139.116-.35.188-.213.07-.478.07-.565 0-.882-.327-.316-.33-.316-.884 0-.374.145-.662.145-.288.42-.444.274-.159.655-.159.237 0 .433.07.198.069.335.178.138.11.21.234.073.123.073.23 0 .11-.083.185-.08.076-.196.076-.076 0-.127-.038-.05-.04-.112-.127-.111-.17-.234-.254-.12-.085-.308-.085-.27 0-.435.212-.165.21-.165.576 0 .171.042.316.043.143.123.246.08.1.194.154.114.051.25.051.183 0 .312-.085.132-.084.233-.258.055-.103.12-.161.065-.058.158-.058.112 0 .186.085.073.084.073.18z" style="fill:#000;fill-opacity:1" transform="matrix(.27152 0 0 .2584 18.856 -.321)" aria-label="c"/></g><path style="fill:#000;fill-opacity:1;stroke-width:.211903;stroke-linecap:square;paint-order:fill markers stroke" d="M67.697 88.15a.643.612 0 0 0-.643.612.643.612 0 0 0 .643.612.643.612 0 0 0 .642-.612.643.612 0 0 0-.642-.612zm0 .12a.517.492 0 0 1 .517.492.517.492 0 0 1-.517.492.517.492 0 0 1-.518-.492.517.492 0 0 1 .518-.492z" transform="translate(-8.584 10.645)"/><g aria-label="Cost Calculations" style="font-weight:700;font-size:7.76111px;line-height:1;font-family:'Open Sans';-inkscape-font-specification:'Open Sans, Bold';text-align:center;text-anchor:middle;white-space:pre;inline-size:88.6378;display:inline;stroke-width:.264583"><path d="M14.36 4.611q-.338 0-.6.133-.257.129-.435.375-.175.247-.266.595-.09.349-.09.785 0 .587.143 1.004.148.413.455.633.307.216.792.216.337 0 .675-.076.34-.076.739-.216v.985q-.368.152-.724.216-.356.068-.8.068-.856 0-1.41-.352-.549-.356-.814-.993-.265-.64-.265-1.493 0-.629.17-1.152.17-.523.5-.906.33-.382.815-.59.485-.21 1.114-.21.413 0 .826.107.417.102.796.284l-.379.955q-.31-.148-.625-.258-.315-.11-.618-.11zM20.71 7.128q0 .53-.143.94-.14.409-.414.693-.269.28-.651.424-.38.144-.857.144-.447 0-.822-.144-.372-.144-.648-.424-.273-.284-.425-.693-.147-.41-.147-.94 0-.705.25-1.194t.712-.743q.463-.254 1.103-.254.595 0 1.053.254.463.254.724.743.266.489.266 1.194zm-2.929 0q0 .417.091.7.091.285.284.429.194.144.504.144.307 0 .497-.144.193-.144.28-.428.091-.284.091-.701 0-.42-.09-.698-.088-.28-.281-.42-.193-.14-.504-.14-.459 0-.667.314-.205.315-.205.944zM24.621 7.996q0 .432-.204.73-.201.297-.603.452-.401.151-1 .151-.444 0-.762-.056-.314-.057-.637-.19v-.955q.345.156.74.258.397.098.697.098.337 0 .481-.098.148-.102.148-.265 0-.106-.06-.19-.058-.087-.251-.193-.193-.11-.606-.284-.398-.167-.656-.338-.254-.17-.379-.401-.121-.235-.121-.595 0-.588.455-.883.458-.3 1.224-.3.394 0 .75.08.36.08.739.254l-.349.834q-.314-.137-.595-.224-.276-.087-.564-.087-.254 0-.383.068t-.129.208q0 .103.065.182.068.08.257.178.193.095.565.247.36.148.625.31.265.16.41.398.143.235.143.61zM27.308 8.409q.19 0 .368-.038.182-.038.36-.095v.86q-.186.084-.462.137-.273.056-.6.056-.378 0-.681-.12-.3-.126-.474-.429-.17-.307-.17-.853V5.885h-.554v-.49l.637-.386.333-.894h.74v.902h1.185v.868h-1.186v2.042q0 .243.137.364.14.118.367.118zM33.353 4.611q-.338 0-.6.133-.257.129-.435.375-.174.247-.265.595-.091.349-.091.785 0 .587.144 1.004.148.413.455.633.307.216.792.216.337 0 .674-.076.341-.076.74-.216v.985q-.368.152-.725.216-.356.068-.8.068-.856 0-1.409-.352-.55-.356-.815-.993-.265-.64-.265-1.493 0-.629.17-1.152.171-.523.5-.906.33-.382.816-.59.485-.21 1.114-.21.413 0 .826.107.417.102.796.284l-.38.955q-.31-.148-.625-.258-.314-.11-.617-.11zM37.59 4.93q.852 0 1.307.371.455.372.455 1.13v2.823h-.808l-.223-.576h-.03q-.182.227-.372.371t-.436.212q-.246.068-.598.068-.376 0-.675-.144-.296-.144-.466-.44-.17-.298-.17-.757 0-.675.473-.993.474-.322 1.421-.356l.735-.023V6.43q0-.333-.174-.488-.174-.156-.485-.156-.307 0-.603.087-.295.088-.59.22l-.384-.78q.338-.179.755-.28.42-.103.867-.103zm.613 2.36-.447.016q-.56.015-.78.2-.216.186-.216.49 0 .265.155.379.155.11.405.11.372 0 .626-.22.257-.22.257-.626zM41.697 9.254h-1.155V3.357h1.155zM44.63 9.33q-.629 0-1.072-.228-.443-.231-.674-.712-.232-.482-.232-1.232 0-.777.262-1.266.265-.492.731-.723.47-.232 1.088-.232.44 0 .758.088.322.083.56.2l-.34.895q-.273-.11-.508-.178-.235-.072-.47-.072-.303 0-.504.144-.201.14-.3.424-.098.284-.098.712 0 .421.106.698.106.276.307.413.2.132.489.132.36 0 .64-.094.28-.099.546-.273v.989q-.265.167-.557.239-.288.075-.731.075zM50.789 5.017v4.237h-.887l-.155-.542h-.061q-.137.216-.341.352-.205.137-.451.201-.246.064-.512.064-.455 0-.792-.159-.337-.163-.527-.504-.185-.34-.185-.886V5.017h1.156v2.475q0 .454.163.685.163.232.519.232.352 0 .553-.16.2-.162.28-.473.084-.315.084-.766V5.017zM53.157 9.254h-1.156V3.357h1.156zM56.105 4.93q.853 0 1.308.371.455.372.455 1.13v2.823h-.808l-.223-.576h-.03q-.182.227-.372.371T56 9.261q-.246.068-.598.068-.376 0-.675-.144-.296-.144-.466-.44-.17-.298-.17-.757 0-.675.473-.993.474-.322 1.421-.356l.735-.023V6.43q0-.333-.174-.488-.174-.156-.485-.156-.307 0-.603.087-.295.088-.59.22l-.383-.78q.337-.179.754-.28.42-.103.867-.103zm.614 2.36-.447.016q-.56.015-.78.2-.216.186-.216.49 0 .265.155.379.155.11.405.11.372 0 .626-.22.257-.22.257-.626zM60.842 8.409q.19 0 .368-.038.182-.038.36-.095v.86q-.186.084-.462.137-.273.056-.599.056-.379 0-.682-.12-.3-.126-.474-.429-.17-.307-.17-.853V5.885h-.554v-.49l.637-.386.333-.894h.74v.902h1.186v.868h-1.187v2.042q0 .243.137.364.14.118.367.118zM63.582 5.017v4.237h-1.155V5.017zm-.576-1.66q.258 0 .444.121.185.118.185.444 0 .322-.185.447-.186.121-.444.121-.261 0-.447-.121-.182-.125-.182-.447 0-.326.182-.444.186-.12.447-.12zM68.645 7.128q0 .53-.144.94-.14.409-.413.693-.269.28-.652.424-.379.144-.856.144-.447 0-.822-.144-.372-.144-.648-.424-.273-.284-.425-.693-.148-.41-.148-.94 0-.705.25-1.194t.713-.743q.462-.254 1.103-.254.595 0 1.053.254.463.254.724.743.265.489.265 1.194zm-2.93 0q0 .417.092.7.09.285.284.429.193.144.504.144.307 0 .497-.144.193-.144.28-.428.09-.284.09-.701 0-.42-.09-.698-.087-.28-.28-.42-.194-.14-.504-.14-.459 0-.667.314-.205.315-.205.944zM72.007 4.937q.678 0 1.091.372.413.367.413 1.182v2.763h-1.156V6.779q0-.455-.166-.686-.163-.231-.516-.231-.53 0-.724.36-.193.36-.193 1.038v1.994H69.6V5.017h.883l.156.542h.064q.136-.22.337-.356.205-.137.451-.201.25-.065.516-.065zM77.657 7.996q0 .432-.205.73-.2.297-.602.452-.402.151-1 .151-.444 0-.762-.056-.315-.057-.637-.19v-.955q.345.156.739.258.398.098.697.098.337 0 .481-.098.148-.102.148-.265 0-.106-.06-.19-.057-.087-.25-.193-.194-.11-.607-.284-.398-.167-.655-.338-.254-.17-.38-.401-.12-.235-.12-.595 0-.588.454-.883.459-.3 1.224-.3.394 0 .75.08.36.08.74.254l-.35.834q-.314-.137-.594-.224-.277-.087-.565-.087-.254 0-.383.068-.128.068-.128.208 0 .103.064.182.068.08.258.178.193.095.564.247.36.148.626.31.265.16.409.398.144.235.144.61z"/></g><g aria-label="$14 Billion USD annually" style="font-weight:700;font-size:4.40972px;line-height:1.25;font-family:Roboto;-inkscape-font-specification:'Roboto, Bold';stroke-width:.264581"><path d="M9.221 24.328q0-.177-.099-.28-.097-.106-.332-.194-.234-.088-.404-.174-.17-.089-.293-.2-.12-.115-.19-.268-.066-.152-.066-.363 0-.364.232-.597.233-.232.618-.271v-.461h.345v.467q.38.054.596.319.215.263.215.682h-.622q0-.258-.108-.385-.105-.13-.284-.13-.176 0-.273.102-.097.1-.097.276 0 .163.095.262.094.1.35.203.259.103.425.196.166.09.28.206.114.115.174.263.06.146.06.342 0 .366-.228.595-.228.228-.629.269v.428h-.342v-.426q-.441-.047-.685-.312-.24-.267-.24-.709h.621q0 .257.121.394.123.136.351.136.19 0 .3-.099.11-.101.11-.271zM11.775 25.152h-.622v-2.398l-.743.23v-.506l1.298-.465h.067zM14.634 23.972h.355v.502h-.355v.678h-.622v-.678h-1.286l-.027-.392 1.306-2.065h.63zm-1.315 0h.693v-1.106l-.041.07zM16.488 25.152v-3.135h1.098q.57 0 .866.22.295.217.295.64 0 .23-.119.406-.118.175-.33.257.242.06.38.243.14.183.14.448 0 .452-.289.685-.288.232-.822.236zm.646-1.365v.846h.553q.229 0 .356-.107.129-.11.129-.302 0-.43-.446-.437zm0-.456h.478q.489-.009.489-.39 0-.213-.125-.306-.123-.094-.39-.094h-.452zM19.918 25.152h-.624v-2.33h.624zm-.66-2.932q0-.14.092-.23.094-.091.256-.091.16 0 .254.09.095.09.095.23 0 .143-.097.233-.095.09-.252.09t-.254-.09q-.095-.09-.095-.232zM21.087 25.152h-.624v-3.307h.624zM22.256 25.152h-.624v-3.307h.624zM23.426 25.152H22.8v-2.33h.625zm-.661-2.932q0-.14.092-.23.095-.091.256-.091.16 0 .255.09.094.09.094.23 0 .143-.097.233-.094.09-.252.09-.157 0-.254-.09-.094-.09-.094-.232zM23.841 23.966q0-.347.134-.618.133-.271.383-.42.252-.148.584-.148.471 0 .768.288.3.289.334.784l.004.16q0 .535-.3.86-.298.323-.802.323t-.805-.323q-.3-.322-.3-.878zm.622.045q0 .332.125.508.125.175.358.175.226 0 .353-.172.127-.175.127-.556 0-.325-.127-.504t-.357-.179q-.229 0-.354.18-.125.176-.125.548zM27.004 22.823l.02.269q.25-.312.67-.312.37 0 .55.217.181.218.186.65v1.505h-.623v-1.49q0-.198-.086-.286-.086-.09-.286-.09-.263 0-.394.224v1.642h-.622v-2.33zM32.413 22.017v2.065q0 .515-.323.814-.32.3-.878.3-.55 0-.872-.291-.323-.29-.33-.799v-2.089h.646v2.07q0 .307.146.45.149.14.41.14.544 0 .553-.573v-2.087zM34.568 24.33q0-.183-.129-.28-.129-.1-.465-.207-.336-.11-.532-.215-.534-.289-.534-.777 0-.254.142-.453.145-.2.412-.312.269-.112.603-.112.335 0 .598.123.263.12.407.342.146.222.146.504h-.645q0-.215-.136-.333-.136-.121-.381-.121-.237 0-.368.101-.132.1-.132.263 0 .153.153.256.155.103.454.194.552.166.804.411.251.246.251.612 0 .407-.307.64-.308.23-.83.23-.361 0-.658-.132-.297-.133-.455-.364-.155-.23-.155-.534h.648q0 .52.62.52.231 0 .36-.093.13-.095.13-.263zM35.654 25.152v-3.135h.964q.414 0 .739.188.327.185.51.53.183.342.183.779v.144q0 .437-.18.777t-.507.528q-.327.187-.738.19zm.646-2.611v2.092h.312q.379 0 .579-.247.2-.248.205-.709v-.165q0-.478-.199-.724-.198-.247-.579-.247zM40.927 25.152q-.043-.084-.063-.208-.226.251-.588.251-.342 0-.568-.198-.224-.198-.224-.5 0-.37.274-.568.275-.198.794-.2h.286v-.133q0-.162-.084-.259-.081-.097-.26-.097-.157 0-.248.076-.088.075-.088.206h-.622q0-.202.125-.374t.353-.27q.228-.098.512-.098.43 0 .683.217.254.215.254.607v1.01q.002.332.092.502v.036zm-.515-.432q.138 0 .254-.06.116-.063.172-.166v-.401h-.232q-.467 0-.497.323l-.003.037q0 .116.082.191.082.076.224.076zM42.514 22.823l.019.269q.25-.312.67-.312.37 0 .55.217.182.218.186.65v1.505h-.622v-1.49q0-.198-.086-.286-.086-.09-.287-.09-.262 0-.394.224v1.642h-.622v-2.33zM44.983 22.823l.02.269q.25-.312.67-.312.37 0 .55.217.181.218.186.65v1.505h-.623v-1.49q0-.198-.086-.286-.086-.09-.286-.09-.263 0-.394.224v1.642h-.622v-2.33zM48.276 24.916q-.23.28-.638.28-.374 0-.573-.216-.195-.215-.2-.63v-1.527h.622v1.505q0 .364.332.364.317 0 .435-.22v-1.65h.624v2.33h-.585zM50.698 25.152q-.043-.084-.063-.208-.226.251-.587.251-.343 0-.569-.198-.224-.198-.224-.5 0-.37.274-.568.275-.198.794-.2h.287v-.133q0-.162-.084-.259-.082-.097-.26-.097-.158 0-.249.076-.088.075-.088.206h-.622q0-.202.125-.374t.353-.27q.228-.098.512-.098.431 0 .683.217.254.215.254.607v1.01q.002.332.093.502v.036zm-.515-.432q.138 0 .254-.06.117-.063.173-.166v-.401h-.233q-.467 0-.497.323l-.003.037q0 .116.082.191.082.076.224.076zM52.369 25.152h-.625v-3.307h.625zM53.538 25.152h-.624v-3.307h.624zM54.92 24.272l.43-1.45h.668l-.936 2.692-.052.123q-.209.456-.689.456-.136 0-.276-.04v-.472l.095.002q.177 0 .263-.054.088-.054.138-.178l.073-.192-.816-2.336h.67z"/></g><g aria-label="Establishment Costs" style="font-weight:700;font-size:5.64444px;line-height:1.25;font-family:Roboto;-inkscape-font-specification:'Roboto, Bold';stroke-width:.264582"><path d="M3.72 17.953H2.134v1.075h1.863v.664h-2.69V15.68h2.685v.67H2.133v.957h1.588zM6.044 18.868q0-.146-.146-.228-.143-.086-.463-.152-1.064-.223-1.064-.904 0-.397.328-.662.33-.267.863-.267.568 0 .907.267.341.268.341.695h-.796q0-.17-.11-.281-.11-.113-.345-.113-.201 0-.311.09-.11.092-.11.232 0 .133.123.215.127.08.425.14.297.059.501.133.632.232.632.802 0 .408-.35.662-.35.25-.904.25-.375 0-.667-.132-.29-.135-.455-.366-.166-.235-.166-.505h.756q.01.212.157.325.146.113.391.113.229 0 .345-.085.118-.088.118-.229zM8.285 15.977v.733h.51v.585h-.51v1.488q0 .165.063.237.064.072.243.072.132 0 .234-.02v.604q-.234.071-.482.071-.838 0-.855-.846v-1.606h-.435v-.585h.435v-.733zM10.966 19.692q-.055-.107-.08-.267-.289.322-.752.322-.438 0-.727-.253-.287-.254-.287-.64 0-.474.35-.727.353-.254 1.017-.256h.366V17.7q0-.207-.107-.331-.105-.124-.334-.124-.2 0-.316.096-.113.097-.113.265h-.797q0-.26.16-.48.16-.22.452-.344.292-.127.656-.127.551 0 .874.279.325.275.325.777v1.292q.003.425.118.642v.047zm-.658-.554q.176 0 .325-.077.149-.08.22-.212v-.513h-.297q-.598 0-.637.414l-.003.047q0 .148.105.245.105.096.287.096zM14.952 18.229q0 .716-.306 1.119-.306.4-.855.4-.485 0-.774-.373l-.036.317h-.716V15.46h.796v1.519q.276-.323.725-.323.546 0 .854.403.312.4.312 1.127zm-.797-.058q0-.452-.143-.659-.143-.21-.427-.21-.38 0-.524.312v1.177q.146.314.53.314.385 0 .506-.38.058-.182.058-.554zM16.283 19.692h-.8V15.46h.8zM17.78 19.692h-.8V16.71h.8zm-.847-3.753q0-.18.119-.295.121-.116.328-.116.204 0 .325.116.121.115.121.295 0 .181-.124.297-.121.116-.322.116t-.325-.116q-.122-.116-.122-.297zM20.05 18.868q0-.146-.146-.228-.143-.086-.463-.152-1.063-.223-1.063-.904 0-.397.328-.662.33-.267.862-.267.568 0 .907.267.342.268.342.695h-.797q0-.17-.11-.281-.11-.113-.345-.113-.2 0-.311.09-.11.092-.11.232 0 .133.124.215.127.08.424.14.298.059.502.133.63.232.63.802 0 .408-.35.662-.35.25-.903.25-.375 0-.667-.132-.29-.135-.455-.366-.165-.235-.165-.505h.755q.011.212.157.325.146.113.391.113.23 0 .345-.085.118-.088.118-.229zM22.115 17.035q.317-.38.796-.38.97 0 .984 1.127v1.91H23.1v-1.888q0-.256-.11-.377-.11-.124-.367-.124-.35 0-.507.27v2.12h-.797v-4.234h.797zM25.243 16.71l.025.334q.317-.389.857-.389.576 0 .79.455.315-.455.897-.455.485 0 .722.284.237.281.237.849v1.904h-.8v-1.901q0-.254-.099-.37-.099-.118-.35-.118-.358 0-.496.342l.003 2.047h-.797v-1.899q0-.259-.102-.374-.102-.116-.347-.116-.339 0-.49.28v2.11h-.797V16.71zM30.755 19.747q-.656 0-1.07-.402-.41-.402-.41-1.072v-.077q0-.45.174-.802.173-.356.49-.546.32-.193.728-.193.612 0 .962.386.353.386.353 1.094v.325h-1.9q.04.293.232.469.196.176.493.176.46 0 .72-.333l.391.438q-.179.254-.485.397-.306.14-.678.14zm-.09-2.447q-.238 0-.387.16-.146.16-.187.457h1.108v-.063q-.006-.265-.144-.408-.137-.146-.39-.146zM33.167 16.71l.024.345q.32-.4.858-.4.474 0 .705.279.232.278.237.832v1.926h-.796v-1.907q0-.253-.11-.366-.11-.116-.367-.116-.336 0-.505.286v2.103h-.796V16.71zM36.548 15.977v.733h.51v.585h-.51v1.488q0 .165.064.237.063.072.242.072.133 0 .235-.02v.604q-.235.071-.483.071-.838 0-.854-.846v-1.606h-.436v-.585h.436v-.733zM42.11 18.356q-.047.647-.48 1.02-.43.371-1.135.371-.772 0-1.215-.518-.441-.52-.441-1.427v-.246q0-.578.204-1.02.204-.44.581-.675.38-.237.882-.237.695 0 1.119.372.424.373.49 1.045h-.826q-.03-.389-.218-.562-.185-.177-.565-.177-.413 0-.62.298-.204.295-.21.918v.303q0 .65.196.95.199.301.623.301.383 0 .57-.173.19-.177.218-.543zM42.477 18.174q0-.444.17-.791.171-.348.491-.538.323-.19.747-.19.604 0 .984.37.383.369.427 1.003l.006.204q0 .686-.383 1.102-.384.413-1.028.413-.645 0-1.031-.413-.383-.413-.383-1.124zm.796.058q0 .424.16.65.16.223.458.223.289 0 .452-.22.162-.223.162-.711 0-.416-.162-.645-.163-.229-.458-.229-.292 0-.452.229-.16.226-.16.703zM47.407 18.868q0-.146-.146-.228-.143-.086-.463-.152-1.064-.223-1.064-.904 0-.397.328-.662.331-.267.863-.267.568 0 .907.267.341.268.341.695h-.796q0-.17-.11-.281-.11-.113-.345-.113-.201 0-.311.09-.11.092-.11.232 0 .133.124.215.126.08.424.14.298.059.502.133.63.232.63.802 0 .408-.35.662-.35.25-.903.25-.375 0-.667-.132-.29-.135-.455-.366-.165-.235-.165-.505h.755q.01.212.157.325.146.113.391.113.229 0 .345-.085.118-.088.118-.229zM49.648 15.977v.733h.51v.585h-.51v1.488q0 .165.063.237.064.072.243.072.132 0 .234-.02v.604q-.234.071-.482.071-.838 0-.855-.846v-1.606h-.435v-.585h.435v-.733zM52.217 18.868q0-.146-.146-.228-.144-.086-.463-.152-1.064-.223-1.064-.904 0-.397.328-.662.33-.267.862-.267.568 0 .907.267.342.268.342.695h-.797q0-.17-.11-.281-.11-.113-.344-.113-.202 0-.312.09-.11.092-.11.232 0 .133.124.215.127.08.424.14.298.059.502.133.631.232.631.802 0 .408-.35.662-.35.25-.904.25-.375 0-.667-.132-.29-.135-.455-.366-.165-.235-.165-.505h.755q.011.212.157.325.146.113.392.113.228 0 .344-.085.119-.088.119-.229z"/></g><g aria-label="Opportunity Costs" style="font-weight:700;font-size:5.64444px;line-height:1.25;font-family:Roboto;-inkscape-font-specification:'Roboto, Bold';stroke-width:.264582"><path d="M4.476 52.669q0 .592-.21 1.039-.209.446-.6.689-.389.242-.893.242-.5 0-.89-.24-.392-.24-.607-.683-.215-.446-.218-1.025v-.199q0-.592.213-1.041.215-.452.603-.692.392-.243.893-.243.502 0 .89.243.392.24.604.692.215.449.215 1.039zm-.838-.182q0-.631-.226-.96-.226-.327-.645-.327-.416 0-.642.325-.226.322-.229.948v.196q0 .614.226.953.226.34.65.34.417 0 .64-.326.223-.328.226-.954zM7.709 53.12q0 .69-.314 1.106-.312.413-.844.413-.452 0-.73-.314v1.406h-.797v-4.129h.739l.028.292q.289-.347.755-.347.55 0 .857.408.306.408.306 1.124zm-.797-.057q0-.416-.149-.642-.146-.226-.427-.226-.375 0-.515.286v1.221q.146.295.52.295.571 0 .571-.934zM10.887 53.12q0 .69-.315 1.106-.311.413-.843.413-.452 0-.73-.314v1.406h-.797v-4.129h.739l.027.292q.29-.347.755-.347.552 0 .858.408.306.408.306 1.124zm-.797-.057q0-.416-.149-.642-.146-.226-.427-.226-.375 0-.515.286v1.221q.146.295.52.295.571 0 .571-.934zM11.256 53.066q0-.444.17-.791.172-.348.491-.538.323-.19.747-.19.604 0 .984.37.383.369.427 1.003l.006.203q0 .687-.383 1.103-.383.413-1.028.413t-1.031-.413q-.383-.414-.383-1.125zm.796.057q0 .425.16.65.16.224.458.224.29 0 .452-.22.162-.224.162-.711 0-.417-.162-.645-.163-.23-.458-.23-.292 0-.452.23-.16.226-.16.702zM16.247 52.349q-.163-.022-.287-.022-.452 0-.592.306v1.951h-.797v-2.982h.753l.022.356q.24-.411.664-.411.132 0 .248.036zM17.722 50.869v.733h.51v.584h-.51v1.489q0 .165.063.237.063.071.242.071.133 0 .235-.019v.604q-.234.071-.483.071-.837 0-.854-.846v-1.607h-.435v-.584h.435v-.733zM20.461 54.281q-.295.358-.816.358-.48 0-.733-.275-.25-.276-.256-.808v-1.954h.796v1.927q0 .465.425.465.405 0 .557-.28v-2.112h.799v2.982h-.75zM22.567 51.602l.025.345q.32-.4.857-.4.474 0 .705.278.232.279.237.833v1.926h-.796v-1.907q0-.254-.11-.367-.11-.115-.367-.115-.336 0-.504.286v2.103h-.797v-2.982zM25.835 54.584h-.799v-2.982h.8zm-.846-3.754q0-.179.119-.295.121-.115.328-.115.204 0 .325.115.121.116.121.295 0 .182-.124.298-.121.116-.322.116t-.325-.116q-.122-.116-.122-.298zM27.445 50.869v.733h.51v.584h-.51v1.489q0 .165.063.237.064.071.243.071.132 0 .234-.019v.604q-.234.071-.482.071-.838 0-.855-.846v-1.607h-.435v-.584h.435v-.733zM29.512 53.457l.551-1.855h.855l-1.2 3.445-.065.157q-.268.585-.882.585-.174 0-.353-.053v-.603l.121.002q.226 0 .336-.068.113-.07.177-.23l.094-.245-1.045-2.99h.857zM35.84 53.247q-.047.648-.48 1.02-.43.372-1.135.372-.772 0-1.215-.518-.441-.52-.441-1.427v-.246q0-.579.203-1.02.204-.44.582-.675.38-.237.882-.237.695 0 1.119.372.424.372.49 1.045h-.826q-.03-.389-.218-.562-.185-.177-.565-.177-.413 0-.62.298-.204.295-.21.918v.303q0 .65.196.95.199.301.623.301.383 0 .57-.174.19-.176.218-.543zM36.207 53.066q0-.444.17-.791.171-.348.491-.538.322-.19.747-.19.604 0 .984.37.383.369.427 1.003l.006.203q0 .687-.384 1.103-.383.413-1.028.413-.644 0-1.03-.413-.383-.414-.383-1.125zm.796.057q0 .425.16.65.16.224.457.224.29 0 .452-.22.163-.224.163-.711 0-.417-.163-.645-.162-.23-.457-.23-.292 0-.452.23-.16.226-.16.702zM41.137 53.76q0-.146-.146-.229-.143-.085-.463-.151-1.064-.223-1.064-.904 0-.397.328-.662.33-.267.863-.267.568 0 .907.267.341.268.341.695h-.796q0-.171-.11-.281-.11-.113-.345-.113-.201 0-.311.09-.11.092-.11.232 0 .132.123.215.127.08.425.14.298.059.501.133.632.232.632.802 0 .408-.35.661-.35.251-.904.251-.375 0-.667-.132-.29-.135-.455-.367-.165-.234-.165-.504h.755q.01.212.157.325.146.113.391.113.229 0 .345-.085.118-.088.118-.229zM43.378 50.869v.733h.51v.584h-.51v1.489q0 .165.063.237.064.071.243.071.132 0 .234-.019v.604q-.234.071-.482.071-.838 0-.855-.846v-1.607h-.435v-.584h.435v-.733zM45.947 53.76q0-.146-.147-.229-.143-.085-.463-.151-1.063-.223-1.063-.904 0-.397.328-.662.33-.267.862-.267.568 0 .907.267.342.268.342.695h-.797q0-.171-.11-.281-.11-.113-.345-.113-.2 0-.311.09-.11.092-.11.232 0 .132.124.215.127.08.424.14.298.059.502.133.631.232.631.802 0 .408-.35.661-.35.251-.904.251-.375 0-.667-.132-.29-.135-.455-.367-.165-.234-.165-.504h.755q.011.212.157.325.146.113.392.113.228 0 .344-.085.119-.088.119-.229z"/></g><g aria-label="Operating Costs" style="font-weight:700;font-size:5.64444px;line-height:1.25;font-family:Roboto;-inkscape-font-specification:'Roboto, Bold';stroke-width:.264582"><path d="M4.355 35.206q0 .593-.21 1.04-.21.446-.6.688-.39.243-.894.243-.498 0-.89-.24-.391-.24-.606-.684-.215-.446-.218-1.025v-.198q0-.593.212-1.042.215-.452.604-.692.391-.242.893-.242.501 0 .89.242.391.24.604.692.215.45.215 1.039zm-.838-.182q0-.63-.226-.959-.226-.328-.645-.328-.416 0-.642.325-.226.323-.229.948v.196q0 .615.226.954.226.339.65.339.417 0 .64-.325.223-.328.226-.954zM7.588 35.658q0 .69-.315 1.105-.311.414-.843.414-.452 0-.73-.314v1.405h-.797V34.14h.739l.027.292q.29-.348.755-.348.552 0 .858.408.306.408.306 1.125zM6.79 35.6q0-.416-.149-.642-.146-.226-.427-.226-.375 0-.515.287v1.22q.146.296.52.296.571 0 .571-.935zM9.453 37.177q-.656 0-1.069-.403-.41-.402-.41-1.072v-.077q0-.45.173-.802.174-.355.49-.546.32-.193.728-.193.612 0 .962.386.353.386.353 1.094v.326h-1.9q.04.292.232.468.196.177.494.177.46 0 .72-.334l.39.438q-.179.254-.485.397-.306.14-.678.14zm-.09-2.448q-.238 0-.386.16-.146.16-.188.458h1.108v-.064q-.005-.264-.143-.408-.138-.146-.392-.146zM12.808 34.886q-.163-.022-.287-.022-.452 0-.593.306v1.952h-.796V34.14h.752l.022.355q.24-.41.664-.41.133 0 .249.035zM14.836 37.122q-.055-.108-.08-.268-.29.323-.752.323-.439 0-.728-.254-.287-.253-.287-.64 0-.473.35-.727.353-.253 1.017-.256h.367v-.171q0-.207-.108-.33-.104-.125-.333-.125-.201 0-.317.097-.113.096-.113.264h-.796q0-.259.16-.48.16-.22.451-.344.293-.127.656-.127.552 0 .874.279.325.275.325.777v1.293q.003.424.119.642v.047zm-.659-.554q.177 0 .326-.078.148-.08.22-.212v-.512h-.298q-.598 0-.636.413l-.003.047q0 .149.105.245.104.097.286.097zM17.088 33.406v.734h.51v.584h-.51v1.488q0 .165.063.237.063.072.243.072.132 0 .234-.02v.604q-.234.072-.482.072-.838 0-.855-.846v-1.607h-.435v-.584h.435v-.734zM18.882 37.122h-.8V34.14h.8zm-.846-3.754q0-.18.118-.295.122-.116.328-.116.204 0 .325.116.122.116.122.295 0 .182-.124.298-.122.115-.323.115-.2 0-.325-.115-.121-.116-.121-.298zM20.271 34.14l.025.344q.32-.4.857-.4.474 0 .705.279.232.278.237.832v1.927H21.3v-1.908q0-.253-.11-.366-.11-.116-.367-.116-.336 0-.504.287v2.103h-.797V34.14zM22.583 35.609q0-.687.326-1.106.328-.419.881-.419.491 0 .764.337l.033-.281h.722v2.882q0 .392-.18.681-.175.29-.498.441-.322.152-.755.152-.328 0-.64-.133-.31-.13-.47-.336l.352-.485q.298.334.722.334.317 0 .493-.171.177-.168.177-.48v-.16q-.276.312-.725.312-.537 0-.871-.42-.33-.42-.33-1.115zm.797.057q0 .406.162.637.163.229.447.229.364 0 .52-.273v-1.254q-.159-.273-.515-.273-.286 0-.452.234-.162.235-.162.7zM30.53 35.785q-.048.648-.48 1.02-.43.372-1.136.372-.772 0-1.215-.518-.441-.521-.441-1.428v-.245q0-.58.204-1.02.204-.441.581-.675.38-.237.882-.237.695 0 1.119.372.424.372.49 1.044h-.826q-.03-.388-.218-.562-.185-.176-.565-.176-.413 0-.62.297-.204.295-.21.918v.303q0 .65.196.951.199.3.623.3.383 0 .57-.173.19-.177.218-.543zM30.896 35.603q0-.444.17-.791.171-.347.491-.537.323-.19.747-.19.604 0 .984.369.383.37.427 1.003l.006.204q0 .686-.383 1.102-.384.414-1.029.414-.644 0-1.03-.414-.383-.413-.383-1.124zm.796.058q0 .424.16.65.16.224.457.224.29 0 .452-.22.163-.224.163-.712 0-.416-.163-.645-.162-.229-.457-.229-.292 0-.452.23-.16.225-.16.702zM35.826 36.298q0-.147-.146-.23-.143-.085-.463-.15-1.064-.224-1.064-.905 0-.397.328-.661.331-.268.863-.268.568 0 .907.268.341.267.341.694h-.796q0-.17-.11-.28-.11-.114-.345-.114-.201 0-.311.091-.11.091-.11.232 0 .132.124.215.126.08.424.14.298.058.502.132.63.232.63.802 0 .408-.35.662-.35.25-.903.25-.375 0-.667-.132-.29-.135-.455-.366-.165-.234-.165-.504h.755q.01.212.157.325.146.113.391.113.229 0 .345-.086.118-.088.118-.228zM38.067 33.406v.734h.51v.584h-.51v1.488q0 .165.063.237.064.072.243.072.132 0 .234-.02v.604q-.234.072-.482.072-.838 0-.855-.846v-1.607h-.435v-.584h.435v-.734zM40.636 36.298q0-.147-.146-.23-.144-.085-.463-.15-1.064-.224-1.064-.905 0-.397.328-.661.33-.268.862-.268.568 0 .907.268.342.267.342.694h-.797q0-.17-.11-.28-.11-.114-.344-.114-.202 0-.312.091-.11.091-.11.232 0 .132.124.215.127.08.424.14.298.058.502.132.631.232.631.802 0 .408-.35.662-.35.25-.904.25-.375 0-.667-.132-.29-.135-.455-.366-.165-.234-.165-.504h.755q.011.212.157.325.146.113.392.113.228 0 .344-.086.119-.088.119-.228z"/></g><g aria-label="Total Costs" style="font-weight:700;font-size:5.64444px;line-height:1.25;font-family:Roboto;-inkscape-font-specification:'Roboto, Bold';stroke-width:.264582"><path d="M4.2 68.704H2.971v3.343h-.827v-3.343H.932v-.67H4.2zM3.922 70.528q0-.444.17-.79.172-.348.491-.538.323-.19.747-.19.604 0 .984.369.383.37.427 1.003l.006.204q0 .686-.383 1.102-.383.414-1.028.414t-1.031-.414q-.383-.413-.383-1.124zm.796.058q0 .424.16.65.16.224.458.224.29 0 .452-.22.162-.224.162-.712 0-.416-.162-.645-.163-.229-.458-.229-.292 0-.452.23-.16.225-.16.702zM8.191 68.331v.734h.51v.584h-.51v1.488q0 .166.063.237.064.072.243.072.132 0 .234-.02v.604q-.234.072-.482.072-.838 0-.854-.846v-1.607h-.436v-.584h.436v-.734zM10.873 72.047q-.055-.108-.08-.268-.29.323-.753.323-.438 0-.727-.254-.287-.253-.287-.64 0-.473.35-.727.353-.253 1.017-.256h.367v-.171q0-.207-.108-.33-.104-.125-.333-.125-.201 0-.317.097-.113.096-.113.264h-.797q0-.259.16-.48.16-.22.452-.344.292-.127.656-.127.551 0 .874.279.325.275.325.777v1.293q.003.424.119.642v.047zm-.659-.554q.176 0 .325-.077.15-.08.22-.213v-.512h-.297q-.598 0-.637.413l-.002.047q0 .149.104.245.105.097.287.097zM13.011 72.047h-.799v-4.234h.8zM18.276 70.71q-.047.648-.48 1.02-.43.372-1.136.372-.771 0-1.215-.518-.44-.521-.44-1.428v-.245q0-.58.203-1.02.204-.441.582-.675.38-.237.882-.237.694 0 1.118.372.425.372.491 1.044h-.827q-.03-.388-.217-.562-.185-.176-.565-.176-.414 0-.62.297-.205.295-.21.918v.303q0 .65.196.951.198.3.622.3.384 0 .571-.173.19-.176.218-.543zM18.642 70.528q0-.444.171-.79.17-.348.49-.538.323-.19.747-.19.604 0 .984.369.383.37.428 1.003l.005.204q0 .686-.383 1.102-.383.414-1.028.414t-1.03-.414q-.384-.413-.384-1.124zm.797.058q0 .424.16.65.16.224.457.224.29 0 .452-.22.163-.224.163-.712 0-.416-.163-.645-.163-.229-.458-.229-.292 0-.452.23-.16.225-.16.702zM23.573 71.223q0-.146-.146-.23-.144-.085-.463-.15-1.064-.224-1.064-.905 0-.397.328-.661.33-.268.862-.268.568 0 .907.268.342.267.342.694h-.797q0-.17-.11-.28-.11-.114-.344-.114-.202 0-.312.091-.11.091-.11.232 0 .132.124.215.127.08.424.14.298.058.502.133.631.231.631.802 0 .407-.35.661-.35.25-.904.25-.375 0-.667-.132-.29-.135-.455-.366-.165-.234-.165-.504h.755q.011.212.157.325.146.113.392.113.228 0 .344-.086.119-.088.119-.228zM25.813 68.331v.734h.51v.584h-.51v1.488q0 .166.064.237.063.072.242.072.133 0 .235-.02v.604q-.235.072-.483.072-.838 0-.854-.846v-1.607h-.436v-.584h.436v-.734zM28.382 71.223q0-.146-.146-.23-.143-.085-.463-.15-1.064-.224-1.064-.905 0-.397.328-.661.33-.268.863-.268.568 0 .907.268.341.267.341.694h-.796q0-.17-.11-.28-.11-.114-.345-.114-.201 0-.311.091-.11.091-.11.232 0 .132.123.215.127.08.425.14.297.058.501.133.632.231.632.802 0 .407-.35.661-.35.25-.904.25-.375 0-.667-.132-.29-.135-.455-.366-.166-.234-.166-.504h.756q.01.212.157.325.146.113.391.113.229 0 .345-.086.118-.088.118-.228z"/></g><g aria-label="$44" style="font-weight:700;font-size:4.40972px;line-height:1.25;font-family:Roboto;-inkscape-font-specification:'Roboto, Bold';stroke-width:.264581"><path d="M11.896 41.758q0-.177-.099-.28-.097-.106-.331-.194-.235-.088-.405-.174-.17-.089-.293-.2-.12-.115-.19-.268-.066-.152-.066-.363 0-.364.232-.597.233-.232.618-.271v-.46h.345v.466q.38.054.596.319.215.263.215.683h-.622q0-.259-.108-.386-.105-.13-.284-.13-.176 0-.273.102-.097.1-.097.276 0 .163.095.262.094.1.35.203.259.103.425.196.166.09.28.206.114.115.174.263.06.147.06.342 0 .367-.228.595-.228.228-.629.269v.428h-.342v-.426q-.441-.047-.685-.312-.24-.267-.24-.709h.621q0 .257.121.395.123.135.351.135.19 0 .3-.099.11-.101.11-.271zM14.78 41.403h.355v.501h-.356v.678h-.622v-.678h-1.285l-.028-.392 1.307-2.065h.628zm-1.316 0h.693v-1.107l-.04.07zM17.31 41.403h.355v.501h-.356v.678h-.622v-.678h-1.285l-.028-.392 1.307-2.065h.628zm-1.316 0h.693v-1.107l-.04.07z"/></g><g aria-label="urbancruiseship.org Exhibit constructed by Richard Burd 2-1-2023" style="font-size:4.93889px;line-height:1.25;font-family:Roboto;-inkscape-font-specification:'Roboto, Normal';white-space:pre;inline-size:52.7643;display:inline;stroke-width:.264583"><path d="M19.22 118.806q-.26.306-.764.306-.418 0-.637-.241-.217-.244-.22-.719v-1.698h.447v1.686q0 .593.482.593.511 0 .68-.38v-1.899h.446v2.61h-.424zM21.593 116.855q-.101-.017-.22-.017-.438 0-.595.374v1.852h-.446v-2.61h.434l.007.302q.22-.35.622-.35.13 0 .198.034zM24.212 117.788q0 .598-.275.962-.275.362-.738.362-.494 0-.764-.35l-.022.302h-.41v-3.705h.446v1.382q.27-.335.745-.335t.746.36q.272.359.272.983zm-.446-.05q0-.456-.176-.705-.176-.248-.507-.248-.44 0-.634.41v1.128q.205.41.64.41.32 0 .498-.248.179-.248.179-.748zM26.385 119.064q-.039-.078-.063-.275-.31.323-.743.323-.385 0-.634-.217-.246-.22-.246-.555 0-.407.309-.632.311-.226.873-.226h.434v-.205q0-.234-.14-.372-.14-.14-.412-.14-.239 0-.4.121-.162.12-.162.292h-.449q0-.196.138-.376.14-.184.376-.29.239-.106.523-.106.451 0 .707.227.255.224.265.62v1.2q0 .36.092.572v.039zm-.74-.34q.21 0 .397-.109.189-.108.273-.282v-.535h-.35q-.82 0-.82.48 0 .21.14.327.14.119.36.119zM27.882 116.454l.015.328q.299-.376.781-.376.827 0 .835.933v1.725h-.446v-1.727q-.002-.282-.13-.417-.126-.135-.394-.135-.217 0-.38.115-.165.116-.256.304v1.86h-.447v-2.61zM31.232 118.748q.239 0 .417-.145.179-.145.198-.362h.422q-.012.225-.154.427-.143.203-.381.323-.237.12-.502.12-.533 0-.849-.354-.313-.357-.313-.974v-.075q0-.38.14-.677.14-.297.4-.461.263-.164.62-.164.439 0 .728.263.292.263.311.682h-.422q-.02-.253-.193-.414-.171-.164-.424-.164-.34 0-.528.246-.186.243-.186.706v.085q0 .45.186.694.185.244.53.244zM34.032 116.855q-.101-.017-.22-.017-.438 0-.595.374v1.852h-.446v-2.61h.434l.007.302q.22-.35.622-.35.13 0 .198.034zM36.053 118.806q-.26.306-.765.306-.417 0-.636-.241-.217-.244-.22-.719v-1.698h.446v1.686q0 .593.483.593.511 0 .68-.38v-1.899h.446v2.61h-.424zM37.65 119.064h-.447v-2.61h.446zm-.483-3.302q0-.108.065-.183.068-.075.198-.075t.198.075q.067.075.067.183 0 .109-.067.181-.068.072-.198.072t-.198-.072q-.065-.072-.065-.18zM39.882 118.372q0-.181-.137-.28-.135-.101-.475-.174-.338-.072-.538-.173-.198-.102-.294-.242-.094-.14-.094-.332 0-.321.27-.543.272-.222.694-.222.444 0 .72.23.276.228.276.585h-.448q0-.183-.157-.316-.154-.132-.39-.132-.244 0-.382.106-.137.106-.137.277 0 .162.128.244.128.082.46.156.336.075.543.179.207.104.306.25.102.145.102.355 0 .35-.28.562-.28.21-.726.21-.314 0-.555-.111-.24-.111-.378-.309-.135-.2-.135-.431h.446q.012.224.178.357.169.13.444.13.253 0 .405-.102.154-.103.154-.274zM41.993 119.112q-.531 0-.864-.347-.333-.35-.333-.934v-.082q0-.388.148-.692.149-.306.414-.477.268-.174.58-.174.508 0 .79.335.282.336.282.96v.186h-1.767q.01.386.224.624.217.237.55.237.236 0 .4-.097.164-.096.287-.255l.272.212q-.328.504-.983.504zm-.056-2.34q-.27 0-.453.198-.184.196-.227.55h1.307v-.034q-.02-.34-.183-.525-.164-.188-.444-.188zM45.046 118.372q0-.181-.138-.28-.135-.101-.475-.174-.338-.072-.538-.173-.197-.102-.294-.242-.094-.14-.094-.332 0-.321.27-.543.273-.222.695-.222.443 0 .718.23.278.228.278.585h-.449q0-.183-.157-.316-.154-.132-.39-.132-.244 0-.381.106-.138.106-.138.277 0 .162.128.244.128.082.46.156.336.075.543.179.208.104.306.25.102.145.102.355 0 .35-.28.562-.28.21-.726.21-.313 0-.555-.111-.24-.111-.378-.309-.135-.2-.135-.431h.446q.012.224.178.357.17.13.444.13.253 0 .405-.102.155-.103.155-.274zM46.52 116.77q.296-.364.77-.364.828 0 .835.933v1.725h-.446v-1.727q-.002-.282-.13-.417-.126-.135-.393-.135-.217 0-.381.115-.164.116-.256.304v1.86h-.446v-3.705h.446zM49.278 119.064h-.446v-2.61h.446zm-.482-3.302q0-.108.065-.183.067-.075.197-.075t.198.075q.068.075.068.183 0 .109-.068.181-.067.072-.198.072-.13 0-.197-.072-.065-.072-.065-.18zM52.196 117.788q0 .596-.273.96-.272.364-.738.364-.475 0-.747-.302v1.257h-.446v-3.613h.407l.022.29q.272-.338.757-.338.47 0 .743.355.275.354.275.986zm-.446-.05q0-.442-.188-.698-.188-.255-.516-.255-.406 0-.608.36v1.246q.2.357.612.357.321 0 .51-.253.19-.256.19-.758zM52.772 118.83q0-.116.068-.193.07-.077.207-.077.138 0 .208.077.072.077.072.193 0 .11-.072.185-.07.075-.208.075-.137 0-.207-.075-.068-.074-.068-.185zM53.944 117.735q0-.384.15-.69.152-.306.42-.472.27-.167.614-.167.533 0 .861.37.33.368.33.98v.032q0 .381-.146.685-.145.301-.418.47-.27.169-.622.169-.53 0-.86-.369-.329-.369-.329-.977zm.449.053q0 .434.2.697.203.263.54.263.34 0 .54-.265.2-.268.2-.748 0-.43-.204-.695-.203-.267-.54-.267-.331 0-.534.263-.202.262-.202.752zM58.14 116.855q-.1-.017-.22-.017-.438 0-.595.374v1.852h-.446v-2.61h.434l.007.302q.22-.35.622-.35.13 0 .198.034zM58.398 117.737q0-.61.283-.97.282-.36.747-.36.478 0 .745.337l.022-.29h.408v2.547q0 .506-.302.798-.299.292-.805.292-.282 0-.553-.12-.27-.121-.412-.331l.232-.268q.287.355.701.355.326 0 .507-.183.183-.184.183-.517v-.224q-.268.309-.73.309-.459 0-.743-.37-.283-.368-.283-1.005zm.449.05q0 .442.18.695.182.251.507.251.422 0 .62-.383v-1.192q-.205-.373-.615-.373-.325 0-.509.253-.183.253-.183.75zM19.664 123.614h-1.522v1.245h1.768v.378h-2.23v-3.511h2.206v.381h-1.744v1.129h1.522zM21.292 123.58l.578-.952h.521l-.853 1.29.88 1.32h-.516l-.603-.977-.603.976h-.518l.88-1.319-.854-1.29h.516zM23.31 122.944q.297-.364.772-.364.827 0 .834.933v1.724h-.446v-1.726q-.002-.283-.13-.418-.126-.135-.393-.135-.217 0-.381.116t-.256.304v1.86h-.446v-3.705h.446zM26.069 125.237h-.446v-2.609h.446zm-.482-3.301q0-.109.065-.183.067-.075.197-.075t.198.075q.068.074.068.183 0 .108-.068.18-.067.073-.198.073-.13 0-.197-.072-.065-.073-.065-.181zM28.992 123.962q0 .598-.275.962-.275.362-.738.362-.494 0-.765-.35l-.021.301h-.41v-3.704h.446v1.382q.27-.335.745-.335t.745.359q.273.36.273.984zm-.446-.051q0-.456-.176-.704-.176-.249-.507-.249-.441 0-.634.41v1.129q.205.41.639.41.32 0 .5-.249.178-.248.178-.747zM30.038 125.237h-.446v-2.609h.446zm-.482-3.301q0-.109.065-.183.068-.075.198-.075t.198.075q.067.074.067.183 0 .108-.067.18-.068.073-.198.073t-.198-.072q-.065-.073-.065-.181zM31.358 121.996v.632h.487v.345h-.487v1.618q0 .157.065.236.065.078.221.078.078 0 .213-.03v.362q-.176.049-.343.049-.299 0-.45-.181-.153-.181-.153-.514v-1.618h-.475v-.345h.475v-.632zM34.635 124.921q.239 0 .417-.144.179-.145.198-.362h.422q-.012.224-.155.427-.142.202-.38.323-.237.12-.502.12-.533 0-.849-.354-.314-.357-.314-.974v-.075q0-.381.14-.678.14-.296.4-.46.264-.164.62-.164.44 0 .729.263.292.262.31.682h-.421q-.02-.253-.193-.415-.171-.164-.425-.164-.34 0-.528.246-.185.244-.185.707v.084q0 .451.185.695.186.243.53.243zM36.055 123.908q0-.383.15-.69.152-.305.42-.472.27-.166.614-.166.533 0 .861.369.33.369.33.981v.032q0 .38-.146.684-.145.302-.418.47-.27.17-.622.17-.53 0-.86-.37-.329-.368-.329-.976zm.449.054q0 .434.2.697.203.262.54.262.34 0 .54-.265.2-.268.2-.747 0-.43-.204-.695-.203-.268-.54-.268-.331 0-.534.263-.202.263-.202.753zM39.412 122.628l.015.328q.299-.376.781-.376.827 0 .834.933v1.724h-.446v-1.726q-.002-.283-.13-.418-.125-.135-.393-.135-.217 0-.381.116t-.256.304v1.86h-.446v-2.61zM43.235 124.545q0-.18-.138-.28-.135-.1-.475-.173-.338-.073-.538-.174-.198-.101-.294-.241-.094-.14-.094-.333 0-.32.27-.542.272-.222.695-.222.443 0 .718.229.277.229.277.586h-.448q0-.183-.157-.316-.154-.133-.39-.133-.244 0-.382.106-.137.106-.137.278 0 .161.128.243.128.082.46.157.336.075.543.178.207.104.306.251.102.145.102.355 0 .35-.28.562-.28.21-.726.21-.314 0-.555-.111-.24-.111-.378-.31-.135-.2-.135-.43h.446q.012.223.178.356.17.13.444.13.253 0 .405-.1.154-.105.154-.276zM44.867 121.996v.632h.487v.345h-.487v1.618q0 .157.065.236.065.078.222.078.077 0 .212-.03v.362q-.176.049-.342.049-.3 0-.451-.181-.152-.181-.152-.514v-1.618h-.475v-.345h.475v-.632zM47.136 123.028q-.1-.017-.219-.017-.439 0-.596.374v1.852h-.446v-2.61h.434l.007.302q.22-.35.622-.35.13 0 .198.035zM49.157 124.98q-.26.306-.764.306-.417 0-.637-.242-.217-.243-.22-.718v-1.698h.447v1.686q0 .593.482.593.511 0 .68-.381v-1.898h.446v2.61h-.424zM51.316 124.921q.238 0 .417-.144.178-.145.198-.362h.422q-.012.224-.155.427-.142.202-.38.323-.237.12-.502.12-.533 0-.85-.354-.313-.357-.313-.974v-.075q0-.381.14-.678.14-.296.4-.46.263-.164.62-.164.44 0 .729.263.291.262.31.682h-.421q-.02-.253-.193-.415-.172-.164-.425-.164-.34 0-.528.246-.186.244-.186.707v.084q0 .451.186.695.186.243.53.243zM53.46 121.996v.632h.487v.345h-.487v1.618q0 .157.065.236.065.078.222.078.077 0 .212-.03v.362q-.176.049-.343.049-.299 0-.45-.181-.153-.181-.153-.514v-1.618h-.475v-.345h.475v-.632zM55.55 125.286q-.53 0-.863-.348-.333-.35-.333-.933v-.082q0-.388.147-.692.15-.306.415-.478.268-.173.579-.173.509 0 .79.335.283.335.283.96v.185H54.8q.01.386.225.625.217.236.55.236.236 0 .4-.096.164-.097.287-.256l.272.212q-.328.504-.984.504zm-.055-2.34q-.27 0-.453.198-.184.195-.227.55h1.307v-.034q-.02-.34-.183-.526-.164-.188-.444-.188zM56.976 123.91q0-.6.284-.964.285-.366.745-.366.459 0 .726.313v-1.36h.446v3.704h-.41l-.021-.28q-.268.329-.745.329-.454 0-.74-.372-.285-.371-.285-.97zm.446.052q0 .443.183.694.183.25.506.25.425 0 .62-.38v-1.199q-.2-.369-.615-.369-.328 0-.511.254-.183.253-.183.75zM63.301 123.962q0 .598-.275.962-.275.362-.738.362-.494 0-.764-.35l-.022.301h-.41v-3.704h.446v1.382q.27-.335.745-.335.476 0 .746.359.272.36.272.984zm-.446-.051q0-.456-.176-.704-.176-.249-.506-.249-.442 0-.635.41v1.129q.205.41.64.41.32 0 .499-.249.178-.248.178-.747zM64.69 124.584l.608-1.956h.477l-1.049 3.012q-.243.651-.774.651l-.084-.007-.167-.031v-.362l.121.01q.227 0 .352-.092.128-.091.21-.335l.099-.265-.931-2.58h.487zM18.967 129.99h-.825v1.42h-.465v-3.51h1.162q.593 0 .912.27.32.27.32.786 0 .328-.178.571-.176.244-.492.365l.825 1.49v.029h-.497zm-.825-.378h.712q.344 0 .547-.179.205-.178.205-.477 0-.326-.195-.5-.193-.173-.56-.175h-.709zM21.135 131.41h-.446v-2.608h.446zm-.482-3.3q0-.11.065-.184.067-.075.197-.075t.198.075q.068.075.068.183 0 .109-.068.181-.067.073-.198.073-.13 0-.197-.073-.065-.072-.065-.18zM22.895 131.095q.24 0 .418-.145.178-.144.197-.361h.422q-.012.224-.154.426-.142.203-.381.324-.236.12-.502.12-.533 0-.849-.354-.313-.357-.313-.975v-.074q0-.381.14-.678.14-.297.4-.46.263-.165.62-.165.439 0 .728.263.292.263.311.683h-.422q-.019-.254-.193-.415-.17-.164-.424-.164-.34 0-.528.246-.186.243-.186.706v.085q0 .45.186.694.185.244.53.244zM24.88 129.117q.297-.364.772-.364.827 0 .834.934v1.724h-.446v-1.727q-.002-.282-.13-.417-.126-.135-.393-.135-.217 0-.381.116-.164.115-.256.304v1.859h-.446v-3.704h.446zM28.765 131.41q-.038-.076-.063-.274-.31.323-.742.323-.386 0-.635-.217-.246-.22-.246-.555 0-.407.31-.631.31-.227.872-.227h.434v-.205q0-.234-.14-.371-.14-.14-.412-.14-.239 0-.4.12-.162.12-.162.292h-.449q0-.195.138-.376.14-.183.376-.29.239-.106.523-.106.451 0 .707.227.256.224.265.62v1.2q0 .36.092.572v.039zm-.74-.34q.21 0 .398-.108.188-.108.272-.282v-.535h-.35q-.82 0-.82.48 0 .21.14.328.14.118.36.118zM31.102 129.202q-.101-.017-.22-.017-.438 0-.595.374v1.852h-.446v-2.61h.434l.007.302q.22-.35.622-.35.13 0 .198.034zM31.358 130.085q0-.601.284-.965.285-.367.745-.367.458 0 .726.314v-1.36h.446v3.704h-.41l-.021-.28q-.268.328-.746.328-.453 0-.74-.371-.284-.372-.284-.97zm.446.05q0 .444.183.695.183.25.506.25.425 0 .62-.38v-1.2q-.2-.368-.615-.368-.328 0-.511.253t-.183.75zM35.544 131.41v-3.51h1.148q.571 0 .858.236.29.236.29.7 0 .245-.14.436-.14.188-.381.292.284.08.448.303.167.222.167.531 0 .473-.306.743-.307.27-.866.27zm.463-1.641v1.263h.765q.323 0 .508-.166.188-.169.188-.463 0-.634-.69-.634zm0-.372h.7q.303 0 .484-.152.183-.152.183-.412 0-.29-.168-.42-.17-.132-.514-.132h-.685zM40.16 131.153q-.26.306-.765.306-.417 0-.636-.241-.217-.244-.22-.719v-1.697h.446v1.685q0 .593.483.593.51 0 .68-.38v-1.898h.446v2.609h-.425zM42.533 129.202q-.102-.017-.22-.017-.439 0-.595.374v1.852h-.447v-2.61h.435l.007.302q.219-.35.622-.35.13 0 .198.034zM42.788 130.085q0-.601.285-.965.284-.367.745-.367.458 0 .726.314v-1.36h.446v3.704h-.41l-.022-.28q-.267.328-.745.328-.453 0-.74-.371-.285-.372-.285-.97zm.447.05q0 .444.183.695.183.25.506.25.425 0 .62-.38v-1.2q-.2-.368-.615-.368-.328 0-.511.253t-.183.75zM49.16 131.41h-2.3v-.32l1.215-1.35q.27-.307.37-.497.105-.193.105-.398 0-.275-.167-.451-.166-.176-.444-.176-.332 0-.518.19-.183.189-.183.526h-.446q0-.485.31-.784.314-.299.837-.299.49 0 .775.258.284.256.284.683 0 .518-.66 1.235l-.941 1.02h1.763zM50.607 130.101H49.43v-.364h1.177zM52.461 131.41h-.448v-2.973l-.9.33v-.404l1.278-.48h.07zM54.743 130.101h-1.177v-.364h1.177zM57.431 131.41h-2.3v-.32l1.215-1.35q.27-.307.372-.497.103-.193.103-.398 0-.275-.166-.451-.167-.176-.444-.176-.333 0-.518.19-.184.189-.184.526h-.446q0-.485.311-.784.314-.299.837-.299.49 0 .774.258.285.256.285.683 0 .518-.66 1.235l-.941 1.02h1.762zM60.106 129.913q0 .784-.268 1.165t-.837.381q-.562 0-.832-.371-.27-.374-.28-1.114v-.596q0-.774.268-1.15.268-.377.84-.377.566 0 .834.365.268.361.275 1.119zm-.446-.61q0-.567-.16-.825-.159-.26-.503-.26-.343 0-.5.258-.156.258-.161.793v.714q0 .57.164.842.166.27.501.27.33 0 .49-.256.161-.255.169-.805zM62.978 131.41h-2.3v-.32l1.215-1.35q.27-.307.371-.497.104-.193.104-.398 0-.275-.167-.451-.166-.176-.443-.176-.333 0-.519.19-.183.189-.183.526h-.446q0-.485.31-.784.314-.299.838-.299.49 0 .774.258.284.256.284.683 0 .518-.66 1.235l-.94 1.02h1.762zM64.1 129.438h.335q.316-.005.496-.166.181-.162.181-.437 0-.617-.615-.617-.29 0-.463.166-.17.164-.17.437h-.447q0-.417.304-.692.306-.278.776-.278.497 0 .78.263.281.263.281.731 0 .23-.15.444-.146.214-.402.32.29.092.446.304.16.213.16.519 0 .472-.31.75-.308.277-.802.277-.495 0-.806-.268-.308-.267-.308-.706h.448q0 .277.181.444.18.166.485.166.323 0 .494-.169.171-.169.171-.485 0-.306-.188-.47-.188-.164-.542-.169h-.336z"/></g><g aria-label="$777" style="font-weight:700;font-size:4.40972px;line-height:1.25;font-family:Roboto;-inkscape-font-specification:'Roboto, Bold';stroke-width:.264581"><path d="M75.738 59.22q0-.176-.1-.28-.096-.105-.331-.193-.235-.089-.405-.175-.17-.088-.293-.2-.12-.114-.19-.267-.066-.153-.066-.364 0-.364.233-.596.232-.233.618-.272v-.46h.344v.467q.381.054.597.318.215.263.215.683h-.622q0-.258-.108-.385-.106-.13-.284-.13-.177 0-.274.102-.097.099-.097.275 0 .164.095.263t.351.202q.258.104.424.196.166.09.28.207.114.114.175.263.06.146.06.342 0 .366-.228.594-.229.229-.63.27v.428h-.341v-.426q-.442-.048-.685-.313-.241-.267-.241-.708h.622q0 .256.12.394.123.136.352.136.189 0 .299-.1.11-.1.11-.27zM78.911 57.259 77.7 60.045h-.657l1.215-2.631h-1.56v-.504h2.214zM81.441 57.259l-1.212 2.786h-.657l1.215-2.631h-1.56v-.504h2.214zM83.971 57.259l-1.212 2.786h-.657l1.215-2.631h-1.56v-.504h2.214z"/></g><g aria-label="$835" style="font-weight:700;font-size:4.40972px;line-height:1.25;font-family:Roboto;-inkscape-font-specification:'Roboto, Bold';stroke-width:.264581"><path d="M80.78 76.683q0-.177-.1-.28-.097-.106-.331-.194-.235-.088-.405-.174-.17-.089-.293-.2-.12-.115-.19-.268-.066-.152-.066-.363 0-.364.232-.597.233-.232.618-.271v-.46h.345v.466q.38.054.596.319.215.263.215.683h-.622q0-.259-.107-.386-.106-.13-.285-.13-.176 0-.273.102-.097.1-.097.276 0 .163.095.262.094.1.35.203.26.103.425.196.166.09.28.206.114.115.174.263.06.147.06.343 0 .366-.228.594-.228.228-.628.269v.428h-.343v-.426q-.441-.047-.685-.312-.24-.267-.24-.709h.622q0 .257.12.395.123.135.351.135.19 0 .3-.099.11-.101.11-.271zM83.865 75.206q0 .228-.114.405-.115.176-.315.282.228.11.362.303.133.192.133.452 0 .418-.284.661-.284.242-.773.242-.489 0-.775-.244-.286-.243-.286-.659 0-.26.133-.454.134-.194.36-.301-.2-.106-.315-.282-.112-.177-.112-.405 0-.4.267-.638.267-.239.726-.239.457 0 .724.237.269.235.269.64zm-.558 1.397q0-.204-.118-.327-.119-.123-.32-.123-.197 0-.316.123-.118.12-.118.327 0 .2.116.323.117.123.323.123.203 0 .317-.119.116-.118.116-.327zm-.065-1.367q0-.183-.096-.293-.097-.112-.274-.112-.174 0-.271.108-.097.107-.097.297 0 .187.097.301.097.114.273.114.177 0 .272-.114.096-.114.096-.301zM84.984 75.664h.332q.237 0 .35-.118.115-.118.115-.314 0-.19-.114-.295-.112-.106-.31-.106-.179 0-.3.1-.12.096-.12.253h-.622q0-.245.131-.439.134-.196.37-.306.24-.11.526-.11.497 0 .78.24.281.236.281.654 0 .215-.131.396-.131.181-.345.278.265.095.394.284.132.19.132.448 0 .418-.306.67-.304.252-.805.252-.47 0-.769-.248-.297-.248-.297-.655h.622q0 .177.132.289.133.112.327.112.222 0 .347-.116.127-.119.127-.313 0-.469-.517-.469h-.33zM86.974 75.966l.18-1.594h1.758v.52h-1.247l-.077.673q.221-.118.471-.118.448 0 .702.278.254.277.254.777 0 .304-.13.545-.126.239-.365.372-.24.132-.564.132-.284 0-.528-.115-.243-.116-.385-.325-.14-.209-.149-.476h.616q.02.196.136.306.118.108.308.108.21 0 .325-.15.114-.154.114-.431 0-.267-.131-.41-.132-.142-.373-.142-.222 0-.36.117l-.06.056z"/></g><path style="stroke-width:.0448217;stroke-linecap:square" d="M3.413 22.507h1.13v2.645h-1.13z"/><path style="stroke-width:.111013;stroke-linecap:square" d="M3.413 39.936h3.805v2.646H3.413z"/><path style="stroke-width:.468074;stroke-linecap:square" d="M3.413 57.398H71.06v2.646H3.413z"/><path style="stroke-width:.359485;stroke-linecap:square" d="M3.413 74.86h72.688v2.647H3.413z"/></svg>