<svg width="900" height="300" viewBox="0 0 238.125 79.375" xml:space="preserve" xmlns="http://www.w3.org/2000/svg"><g aria-label="$1,274" style="font-weight:700;font-size:4.40973px;line-height:1.25;font-family:Roboto;-inkscape-font-specification:'Roboto, Bold';stroke-width:.264582"><path d="M225.528 17.267q0-.176-.1-.28-.096-.105-.33-.194-.236-.088-.406-.174-.17-.088-.293-.2-.12-.114-.19-.267-.066-.153-.066-.364 0-.364.233-.597.232-.232.618-.27v-.462h.344v.468q.381.053.597.318.215.263.215.683h-.622q0-.259-.108-.386-.105-.129-.284-.129-.177 0-.274.101-.096.1-.096.276 0 .164.094.263.095.099.351.202.259.104.424.196.166.09.28.207.114.114.175.262.06.147.06.343 0 .366-.228.594-.228.228-.629.27v.428h-.342v-.427q-.442-.047-.685-.312-.241-.267-.241-.708h.622q0 .256.12.394.123.136.352.136.19 0 .299-.1.11-.1.11-.27zM228.081 18.092h-.622v-2.399l-.743.23v-.505l1.299-.466h.066zM229.287 18.878l-.325-.17.078-.14q.144-.263.148-.524v-.482h.526l-.002.43q-.002.24-.121.483-.118.243-.304.403zM232.325 18.092h-2.149v-.427l1.015-1.08q.208-.229.308-.399t.1-.323q0-.209-.105-.327-.105-.12-.301-.12-.211 0-.334.146-.12.144-.12.38h-.625q0-.285.136-.522.138-.237.387-.37.25-.136.567-.136.484 0 .751.232.27.233.27.657 0 .233-.121.474-.121.24-.414.562l-.713.751h1.348zM234.838 15.306l-1.212 2.786h-.657l1.215-2.631h-1.56v-.504h2.214zM237.077 16.912h.356v.502h-.356v.678h-.622v-.678h-1.285l-.028-.392 1.307-2.065h.628zm-1.315 0h.693v-1.107l-.04.071z"/></g><g aria-label="$580" style="font-weight:700;font-size:4.40973px;line-height:1.25;font-family:Roboto;-inkscape-font-specification:'Roboto, Bold';stroke-width:.264582"><path d="M128.32 27.321q0-.176-.1-.28-.097-.105-.331-.193-.235-.089-.405-.175-.17-.088-.293-.2-.12-.114-.19-.267-.066-.153-.066-.364 0-.364.232-.596.233-.233.618-.272v-.46h.345v.467q.381.054.596.318.216.263.216.683h-.623q0-.258-.107-.385-.106-.13-.285-.13-.176 0-.273.102-.097.099-.097.275 0 .164.095.263.094.099.35.202.26.104.425.196.166.09.28.207.114.114.174.263.06.146.06.342 0 .366-.228.594-.228.229-.628.27v.428h-.343v-.426q-.441-.048-.684-.313-.242-.267-.242-.708h.623q0 .256.12.394.123.136.351.136.19 0 .3-.1.11-.1.11-.27zM129.454 26.604l.18-1.593h1.758v.519h-1.247l-.077.674q.222-.119.471-.119.448 0 .702.278.254.278.254.777 0 .304-.129.545-.127.24-.366.373-.239.131-.564.131-.284 0-.528-.114-.243-.116-.385-.325-.14-.209-.149-.476h.616q.02.196.136.306.118.107.308.107.21 0 .325-.15.114-.153.114-.431 0-.267-.131-.41-.132-.141-.373-.141-.222 0-.36.116l-.06.056zM133.935 25.844q0 .228-.114.405-.114.177-.315.282.229.11.362.304.134.191.134.452 0 .418-.285.66-.284.242-.773.242-.488 0-.775-.243-.286-.244-.286-.66 0-.26.133-.453.134-.194.36-.302-.2-.105-.314-.282-.112-.177-.112-.405 0-.4.267-.637.267-.24.725-.24.457 0 .724.238.269.234.269.64zm-.558 1.398q0-.205-.118-.328-.119-.122-.319-.122-.198 0-.316.122-.119.121-.119.328 0 .2.116.323.117.122.323.122.203 0 .317-.118.116-.118.116-.327zm-.064-1.368q0-.183-.097-.292-.097-.112-.274-.112-.174 0-.271.107-.097.108-.097.297 0 .188.097.302.097.114.273.114.177 0 .272-.114.097-.114.097-.302zM136.532 26.85q0 .65-.27.995-.269.344-.788.344-.512 0-.783-.338-.272-.338-.278-.969v-.577q0-.657.271-.997.274-.34.786-.34.513 0 .784.338.271.336.278.967zm-.623-.633q0-.39-.107-.567-.106-.178-.332-.178-.22 0-.325.17-.103.168-.11.527v.763q0 .383.103.57.106.185.336.185.229 0 .33-.178.101-.179.105-.547z"/></g><path d="M81.523 78.067c-.263-.03-.106-.15.565-.439.37-.158.778-.343.91-.412.221-.115.285-.125.84-.133.478-.007.624-.024.717-.086.148-.099.308-.104.27-.01-.023.057.03.07.324.07.425 0 .66.04.64.107-.01.028-.196.137-.415.242-.218.105-.594.298-.835.428l-.438.237-1.222.005a36.207 36.207 0 0 1-1.356-.01zm1.251-.168c.014-.013-.184-.023-.438-.023-.27 0-.463.02-.463.045 0 .044.853.024.901-.022zm1.346.004c-.04-.036-.74-.055-.882-.024-.087.02.063.034.38.037.286.003.513-.003.502-.013zm-1.024-.167c.037-.057-.748-.053-.84.003-.05.03.07.043.37.041.244 0 .455-.02.47-.044zm1.327-.005c.033-.02-.177-.036-.467-.036-.369 0-.505.014-.455.046.082.052.833.044.922-.01zm-.948-.18c.054-.047-.156-.05-.609-.01-.177.016-.323.047-.323.068 0 .05.871-.005.932-.058zm1.271.006c.05-.03-.084-.044-.419-.045-.296 0-.49.018-.49.045 0 .06.813.06.91 0zm-.91-.18c0-.05-.79-.039-.844.011-.019.018.164.032.405.032.246 0 .44-.019.44-.043zm1.27-.002c.018-.03-.136-.046-.429-.046-.273 0-.458.02-.458.046 0 .027.175.045.43.045.234 0 .44-.02.456-.045zm-1.054-.137c.062-.025-.052-.038-.325-.036-.23.001-.43.02-.446.042-.032.05.644.046.77-.006zm1.041-.033a2.885 2.885 0 0 0-.407 0c-.112.01-.02.017.204.017.224 0 .315-.008.203-.017zm.156.831a2.707 2.707 0 0 0-.18-.043c-.167-.035-.166-.078.006-.174.108-.06.203-.07.448-.05.185.017.41.006.554-.027l.242-.055-.116-.163c-.144-.202-.15-.46-.016-.74l.097-.206-.108-.084a2.29 2.29 0 0 0-.86-.392c-.209-.05-.305-.09-.235-.096.112-.009.11-.01-.024-.04-.079-.017-.154-.018-.167-.003a.327.327 0 0 1-.108.058c-.142.05-.264.3-.299.615-.022.2-.047.278-.074.233-.055-.094.016-.555.106-.686a.492.492 0 0 0 .077-.148c.001-.022.031-.06.066-.082.043-.029.028-.033-.047-.013-.176.048-.78-.023-.74-.085.018-.029-.02-.02-.085.02-.144.09-.253.38-.215.572.016.08.08.218.145.308l.117.164h-.145c-.128 0-.157-.027-.259-.24-.099-.207-.108-.268-.069-.463.057-.283.14-.405.383-.558.19-.12.203-.12 1.04-.12.752 0 .884.01 1.152.1.557.183.732.34 1.134 1.002.18.297.231.427.231.581 0 .264-.09.35-.51.477-.189.058-.376.14-.415.184-.115.124-.887.23-1.126.154zm1.422-.568c.123-.032.233-.08.245-.11.011-.028-.058-.168-.153-.31-.317-.476-.532-.458-.57.046-.022.29.09.552.2.471.03-.022.154-.065.278-.097zm-.397-1.05c-.244-.2-1-.51-1-.412 0 .02.072.05.161.066.212.038.71.275.82.392.048.05.097.081.11.07.013-.013-.028-.065-.09-.116zm11.324 1.423c-.037-.022-.052-.172-.045-.443.011-.448-.04-2.254-.087-3.054-.016-.276-.05-1.055-.077-1.732a78.32 78.32 0 0 0-.073-1.573 65.1 65.1 0 0 0-.188-2.096 6.683 6.683 0 0 1-.05-.365 28.153 28.153 0 0 0-.625-3.327c-.324-1.215-.81-2.019-1.398-2.313-.404-.202-.726-.263-1.353-.257-2.543-.003-5.61 1.392-6.309 2.79-.486.976.425 2.33 1.25 3.348.673.788.77.906.79.95.032.084.107.035.08-.05-.019-.054-.01-.092.02-.092.027 0 .05-.03.05-.069 0-.038-.042-.068-.096-.068-.052 0-.095-.02-.095-.046 0-.066.107-.056.222.021.055.037.114.054.13.038.053-.05.033-.187-.03-.21-.032-.014.014-.013.103.002.126.02.157.012.14-.038-.012-.035-.069-.07-.126-.078-.122-.017-.133-.066-.033-.144.092-.073.307-.023.346.08.017.043.07.128.12.188.05.063.075.146.06.194-.02.063-.004.084.067.084.053 0 .11.022.128.05.05.077.413-.003.567-.126.125-.1.145-.104.22-.04.122.106.152.033.037-.093-.09-.098-.109-.103-.18-.04-.09.076-.19.09-.19.021 0-.025.017-.045.04-.045.021 0 .064-.052.094-.114.03-.063.09-.114.13-.114.086 0 .358-.266.358-.35 0-.03-.043-.067-.096-.083-.053-.016-.096-.058-.096-.093 0-.047-.038-.057-.143-.037-.112.02-.144.01-.144-.045 0-.076-.18-.194-.228-.148-.015.014-.024.1-.02.187.003.106-.025.186-.083.233-.07.058-.08.104-.05.23.028.118.02.163-.03.182-.116.042-.212-.023-.212-.142 0-.085-.032-.123-.12-.144-.13-.03-.247-.199-.263-.383-.018-.19-.005-.215.146-.274.122-.048.285-.243.285-.34 0-.027-.216-.004-.437.047-.093.021-.18-.005-.328-.099-.167-.104-.272-.13-.597-.152-.238-.015-.428-.05-.478-.09-.073-.058-.104-.055-.25.02-.144.073-.174.076-.21.02-.08-.118-.05-.155.255-.32.846-.458 1.716-.685 2.621-.684.745 0 1.37.117 2.106.393.397.15 1.255.723 1.6 1.07.317.32.73.88.926 1.252.49.93.673 2.37.443 3.446-.223 1.04-.678 1.836-1.48 2.595a4.908 4.908 0 0 1-1.8 1.084c-.963.323-2.217.368-3.185.113-.328-.086-.958-.33-.958-.37 0-.018.043-.057.095-.088.08-.048.153-.035.461.082.201.076.376.13.387.118.012-.01.001-.058-.024-.104-.089-.165-.153-.414-.182-.703a10.796 10.796 0 0 0-.05-.43c-.044-.282-.03-.74.03-1.04.06-.3.058-.313-.048-.42a.61.61 0 0 0-.21-.14c-.169-.048-.315-.208-.315-.343 0-.07-.043-.23-.096-.359-.116-.279-.122-.489-.02-.597.1-.104.048-.195-.076-.132a.432.432 0 0 1-.157.046c-.08 0-.274-.152-.274-.215 0-.024-.053-.067-.117-.095-.105-.045-.112-.066-.072-.199.042-.14.032-.159-.183-.339-.153-.129-.232-.17-.242-.127-.03.124-.1.06-.25-.232-.129-.247-.15-.333-.13-.523.013-.137.002-.233-.028-.243-.029-.01-.005-.076.055-.157a.57.57 0 0 0 .105-.189c0-.026.065-.118.144-.204a.823.823 0 0 0 .143-.185c0-.017.036-.106.08-.2.043-.093.084-.196.091-.23.025-.11.051-.1.225.084.106.112.146.182.104.182-.038 0-.069.017-.069.038 0 .021-.064.038-.143.038-.08 0-.15.01-.157.02-.007.01-.062.104-.12.21-.11.19-.11.19-.012.24.135.07.122.177-.028.231-.088.032-.146.03-.192-.006-.05-.04-.066-.036-.066.021 0 .041.027.075.06.075.04 0 .036.016-.012.046-.064.04-.064.05 0 .09.061.038.06.044-.012.045-.07 0-.082.04-.076.217.006.167.012.182.027.068.024-.182.084-.188.176-.019.04.07.104.156.146.188.06.047.063.074.02.124-.046.052-.02.1.128.245.102.1.208.18.235.18.028 0-.003-.042-.07-.09-.11-.084-.112-.09-.02-.09.061 0 .1-.034.103-.093.004-.05-.013-.09-.037-.09-.025 0-.045-.035-.045-.075 0-.154.13.03.158.22.015.106.06.216.102.245.108.074.092.121-.028.085-.09-.027-.099-.017-.074.074.016.058.01.13-.016.158-.03.035-.01.07.064.107.06.03.13.1.155.155a.221.221 0 0 0 .142.117c.092.017.092.014.01-.073-.046-.05-.072-.12-.056-.16.015-.039.005-.084-.023-.1-.083-.049-.059-.129.03-.097.043.016.096.003.118-.029.06-.09.047-.14-.03-.11-.039.013-.083.005-.099-.019-.015-.024-.003-.043.028-.043.032 0 .043-.032.026-.074-.02-.05-.009-.066.04-.048a.075.075 0 0 0 .094-.04.11.11 0 0 1 .092-.066c.036 0 .105-.04.153-.092.084-.088.083-.09-.005-.09a.39.39 0 0 0-.184.07c-.126.09-.302.083-.352-.014-.078-.15-.016-.42.123-.54.088-.078.11-.123.07-.139-.069-.027-.08-.153-.015-.153.025 0 .06.041.075.092.032.095.096.12.14.05.015-.022-.005-.065-.044-.096-.039-.03-.058-.075-.043-.098.036-.056.163.043.163.126 0 .115.302.046.317-.072a.962.962 0 0 1 .012-.074c.003-.015.072.026.153.091.176.14.337.168.23.04-.062-.076-.059-.076.054-.006.068.042.113.11.105.153-.01.048.008.07.048.056.034-.01.057-.066.05-.12-.006-.056.01-.089.033-.075.025.014.058.005.075-.02.017-.026-.004-.047-.045-.047-.04 0-.074-.02-.074-.045 0-.025.021-.046.048-.046.026 0 .048-.02.048-.046 0-.027-.05-.034-.12-.018-.103.025-.116.016-.089-.056.018-.047.015-.07-.007-.05-.02.018-.065.012-.097-.013-.043-.034-.054-.016-.044.07.007.062-.008.125-.034.141-.052.03-1.447-1.31-1.913-1.856-2.215-2.59-1.124-3.906 1.537-5.33 1.053-.564 2.53-.97 4.23-1.27 1.848-.327 3.048-.392 3.537-.193.213.088.511.37.644.611.038.07.078.274.09.456.054.904.158 13.305.125 15.086-.005.26-.044.31-.18.227zm-5.572-1.428c.745-.137 1.032-.248 1.373-.53.797-.66 1.218-1.569 1.29-2.786l.032-.539-.167-.178a1.93 1.93 0 0 1-.22-.273c-.083-.152-.06-.485.042-.59a.379.379 0 0 0 .1-.183c.016-.172-.008-.3-.052-.274-.025.015-.058.005-.075-.02-.017-.026.001-.058.04-.072.06-.022.06-.054.002-.24-.094-.303-.527-1.1-.858-1.578-.262-.377-.387-.508-.907-.953-.217-.185-.305-.16-.223.065.072.198.07.214-.045.272-.082.042-.128.03-.265-.07-.237-.172-.358-.305-.35-.386a.327.327 0 0 0-.005-.104.789.789 0 0 1-.04-.195c-.008-.076-.516-.312-.865-.4-.124-.032-.22-.086-.232-.13-.012-.043-.047-.087-.08-.099-.103-.038-.322.025-.352.101a.358.358 0 0 1-.104.13c-.046.033-.052.055-.017.056a.11.11 0 0 0 .086-.044c.047-.072.407-.057.407.017 0 .037.074.074.18.09.233.035.63.22.633.292 0 .033-.058.057-.142.057-.2 0-.18.074.03.112.122.022.16.045.123.08a.11.11 0 0 0-.025.11c.015.037-.006.062-.05.062-.044 0-.078-.02-.078-.045 0-.025-.089-.046-.197-.046-.177 0-.195-.01-.17-.096.04-.148-.043-.3-.179-.324-.172-.03-.19.007-.05.11.117.09.17.356.07.356a.047.047 0 0 1-.049-.046c0-.025-.032-.045-.072-.045-.04 0-.072.018-.072.04 0 .023-.075.084-.167.136-.12.068-.159.116-.139.175.086.253.133.326.24.372a.37.37 0 0 1 .165.154c.041.09.044.086.02-.032-.023-.105-.006-.15.082-.214.095-.069.102-.093.052-.17-.037-.059-.042-.103-.012-.12.026-.015.047-.067.047-.116 0-.102.026-.107.232-.038.083.027.15.078.15.113 0 .036.022.064.05.064.025 0 .047-.02.047-.045 0-.082.152-.048.176.04.013.047.087.13.166.185.12.084.133.112.082.17-.05.057-.04.083.053.15l.113.081-.128.08c-.1.063-.142.068-.197.025-.09-.07-.195-.017-.124.063.027.032.035.07.018.087-.017.017.004.03.048.03.145 0 .085.244-.08.328-.056.028-.21.06-.34.07-.132.01-.25.034-.265.055-.014.021-.068.046-.12.055a.144.144 0 0 0-.112.12c-.009.056-.044.102-.078.102-.036 0-.062.052-.062.121 0 .123-.119.243-.24.243a.674.674 0 0 0-.206.07c-.154.076-.192.246-.077.35.07.06.05.234-.022.192-.024-.014-.034-.04-.02-.06.011-.019-.025-.033-.08-.03-.08.002-.112-.033-.139-.155-.042-.193-.167-.287-.333-.252-.082.017-.147.002-.187-.044-.106-.122-.327-.087-.483.076-.14.146-.19.367-.095.422.026.015.111-.004.19-.043.171-.084.434-.093.434-.014 0 .03-.087.132-.193.224-.157.137-.188.19-.164.281.022.084.003.13-.074.181-.067.046-.098.107-.087.177.013.092.038.104.182.09a.539.539 0 0 0 .277-.12c.115-.109.43-.175.518-.109.03.022.075.015.107-.015.03-.029.071-.037.09-.019.02.02.005.052-.033.074-.038.023-.059.047-.047.055.188.115.25.13.318.076.057-.045.08-.044.111.005a.15.15 0 0 1 .016.122c-.016.04.01.062.07.062a.23.23 0 0 1 .155.07c.043.047.107.06.218.04.227-.04.328.006.422.193.082.164.082.166-.04.287-.13.13-.152.184-.074.184.027 0 .048-.03.048-.068 0-.038.033-.068.074-.068.133 0 .464.187.488.277.02.07.067.087.234.087.142 0 .24.028.3.086.05.047.152.105.227.13.112.034.14.072.152.202.013.143-.006.173-.19.292-.276.178-.323.241-.325.432-.003.26-.232.454-.54.454-.252 0-.584.278-.546.458.031.15-.043.225-.219.225-.142 0-.168.04-.08.124.064.061-.079.268-.21.302a.122.122 0 0 0-.083.113c0 .05-.025.1-.056.11-.04.012-.042.054-.007.151a.372.372 0 0 1 .011.226c-.03.077-.038.08-.04.011-.002-.044-.027-.08-.055-.08-.03 0-.038-.039-.02-.093.017-.05.008-.12-.02-.153-.04-.045-.035-.075.02-.118.06-.047.061-.07.012-.129-.05-.06-.048-.066.023-.04.071.024.084.002.084-.146 0-.134.022-.18.09-.198.073-.018.087-.06.078-.22-.014-.237.07-.344.21-.272.124.063.15.06.15-.015 0-.035.043-.074.096-.088.053-.013.091-.05.084-.083-.008-.032.02-.06.058-.06.092-.003.12-.148.045-.234-.032-.037-.042-.082-.02-.1.02-.018.046-.008.058.024.025.067.3.077.3.011 0-.025.022-.046.048-.046.027 0 .048.031.048.07 0 .036.024.067.053.067.03 0 .04-.03.026-.068-.017-.04 0-.069.041-.069.043 0 .058.027.04.073-.022.054-.006.07.06.057.052-.01.107-.078.134-.17.04-.13.033-.164-.046-.22-.088-.065-.086-.066.028-.035.097.026.108.021.06-.028-.08-.08-.077-.135.006-.105.037.013.08.005.096-.02.016-.024-.004-.055-.043-.07-.04-.014-.07-.052-.07-.084 0-.036.013-.04.035-.013.057.073.155.074.155.002 0-.04.028-.057.072-.04.053.018.064.005.042-.05-.017-.042-.06-.066-.096-.052-.036.013-.066.004-.066-.02 0-.068.102-.053.197.028.046.04.107.06.135.043.08-.047.06-.115-.033-.119-.07-.003-.07-.009.012-.042.085-.034.08-.042-.058-.07-.089-.019-.166-.069-.183-.118-.017-.05-.072-.086-.133-.085-.083 0-.09.01-.034.043.04.023.057.055.04.071-.039.037-.23-.059-.23-.115 0-.023-.033-.03-.072-.016-.04.014-.072.054-.072.09 0 .073-.076.084-.12.017-.016-.025-.006-.045.021-.045a.05.05 0 0 0 .051-.049c0-.026-.02-.035-.048-.02-.026.016-.048-.003-.048-.043 0-.075-.124-.1-.15-.03-.01.023-.045.013-.079-.022-.052-.054-.038-.064.088-.064.085 0 .142-.02.132-.05-.02-.057-.032-.058-.28-.018-.128.02-.217.011-.265-.026-.055-.043-.086-.045-.128-.005-.088.084-.132.062-.12-.06.008-.107.084-.168.084-.07s.082.04.158-.113c.058-.117.064-.16.02-.163-.045-.003-.045-.009.002-.027a.103.103 0 0 0 .06-.09c0-.037-.02-.056-.043-.042-.024.014-.056-.005-.07-.043-.016-.037-.056-.066-.09-.064-.049.002-.049.008 0 .027.05.02.05.037.004.09-.037.044-.042.08-.012.1.061.04.074.235.016.235-.025 0-.045-.052-.045-.114 0-.063-.023-.114-.05-.114-.03 0-.039-.039-.02-.09.035-.11-.015-.117-.16-.02-.11.073-.249.06-.249-.024 0-.025.032-.034.072-.02.098.036.09-.028-.012-.102-.112-.08-.159-.078-.125.006.02.05.006.06-.05.04-.042-.015-.077-.059-.077-.096 0-.044-.027-.059-.077-.04-.055.02-.069.008-.05-.04.032-.077-.04-.096-.088-.024a.113.113 0 0 1-.087.044c-.036 0-.039-.013-.009-.034.084-.058.07-.128-.027-.128-.05 0-.093.018-.093.04 0 .02-.02.025-.048.01-.026-.017-.063.008-.08.053a.35.35 0 0 1-.103.133c-.039.028-.055.074-.036.103.02.03.003.052-.04.052-.113 0-.09-.125.045-.264.098-.1.106-.126.045-.139-.059-.01-.063-.028-.019-.08.067-.076.046-.08-.126-.017-.072.026-.116.06-.1.076.017.016-.013.057-.066.093-.052.035-.083.084-.066.11.016.024-.006.081-.049.127-.082.085-.134.413-.066.413.021 0 .04.042.04.093 0 .05.027.103.062.115.041.015.058.086.048.206-.013.15.007.203.112.295.081.072.16.103.216.086.057-.017.088-.004.088.038 0 .036.054.124.12.197.082.088.112.163.093.224-.146.452-.168.767-.053.741.032-.006.058.008.058.033s-.025.04-.055.034c-.073-.016-.119.217-.063.316a.189.189 0 0 1 .017.141c-.014.036.008.092.05.125.058.046.063.068.018.095-.047.027-.047.05.001.104.04.046.046.095.017.144-.045.076.048.515.12.565.02.015.036.066.036.115 0 .114.28.198.838.251.481.046.716.03 1.39-.094zm-1.98-.93c.014-.037.035-.068.045-.068.01 0 .02.03.02.068 0 .038-.022.07-.047.07-.026 0-.034-.032-.019-.07zm-.439-.34c-.016-.027-.008-.047.02-.047.025 0 .06.02.076.046.016.025.008.045-.018.045a.106.106 0 0 1-.078-.045zm.862-.41a.106.106 0 0 1 .078-.047c.026 0 .035.02.018.045a.106.106 0 0 1-.077.046c-.027 0-.035-.02-.019-.046zm.408-.228c0-.062.085-.1.116-.053.015.023-.006.054-.045.068-.04.014-.07.007-.07-.015zm-1.224-.096c-.017-.026-.02-.058-.008-.07.012-.012.035.01.05.05.033.08.006.093-.042.02zm2.014-.225c-.016-.025-.008-.045.018-.045s.061.02.078.045c.016.025.008.046-.019.046a.106.106 0 0 1-.077-.046zm-.407-.068c-.05-.056-.046-.068.018-.068.043 0 .077.03.077.068 0 .038-.008.068-.018.068-.01 0-.045-.03-.077-.068zm-1.509-.068a.106.106 0 0 1 .078-.046c.026 0 .034.02.018.046a.106.106 0 0 1-.078.045c-.026 0-.034-.02-.018-.045zm1.748-.069c0-.037.021-.068.047-.068.025 0 .034.03.018.068-.015.038-.036.07-.046.07-.01 0-.019-.032-.019-.07zm-1.772-.068c0-.025.023-.046.05-.046.03 0 .038.02.022.046-.016.025-.04.045-.05.045-.012 0-.022-.02-.022-.045zm-.02-.176c-.02-.032-.024-.07-.009-.085.043-.04.09.02.067.085-.016.046-.028.046-.058 0zm1.017-.038c.034-.013.076-.01.092.004.016.015-.013.026-.063.024-.056-.002-.067-.013-.03-.028zm.823-.009c0-.04.144-.11.172-.084.01.008-.027.04-.078.07-.052.03-.094.037-.094.014zm-.646-.096c-.017-.025-.009-.046.018-.046.026 0 .061.02.077.046.017.025.008.045-.018.045a.106.106 0 0 1-.077-.045zm-.704-.122c.035-.014.076-.012.092.003s-.012.026-.063.024c-.056-.002-.067-.013-.029-.027zm1.425-.047c-.026-.065-.02-.07.027-.026.033.031.047.068.033.082-.015.014-.042-.01-.06-.056zm.117-.059c0-.025.021-.046.048-.046.026 0 .047.02.047.046a.047.047 0 0 1-.047.046.047.047 0 0 1-.048-.046zm-2.3-.09c0-.026.022-.047.05-.047.025 0 .047.02.047.046a.047.047 0 0 1-.048.045.047.047 0 0 1-.048-.045zm1.63-.047c0-.025.02-.045.044-.045a.1.1 0 0 1 .075.045c.016.025-.004.046-.045.046-.04 0-.075-.02-.075-.046zm-1.964-.113c0-.036.044-.048.12-.035.065.012.12.038.12.057 0 .02-.055.034-.12.034-.067 0-.12-.025-.12-.056zm1.676-.07c-.079-.048-.066-.053.137-.062.092-.004.13.013.115.052-.027.067-.152.073-.252.01zm-.647-.18c.017-.026.04-.047.051-.047.012 0 .021.02.021.046 0 .025-.023.045-.05.045-.029 0-.038-.02-.022-.045zm-1.072-.309c.015-.087-.01-.12-.049-.062-.033.05-.053.043-.096-.034-.05-.087-.043-.096.054-.086.06.006.125.032.145.057.05.066.044.16-.01.16-.028 0-.047-.016-.044-.035zm1.122-.054c-.015-.023-.005-.055.021-.07.027-.017.05.002.05.041 0 .08-.03.092-.07.03zm-.313-.23c0-.026.023-.047.05-.047.028 0 .038.021.022.046-.017.025-.04.046-.05.046-.013 0-.022-.02-.022-.046zM91.164 72c0-.023.021-.055.048-.07.026-.016.048.003.048.042 0 .04-.022.071-.048.071-.027 0-.048-.02-.048-.043zm.102-.219c-.066-.118-.02-.254.076-.219a.454.454 0 0 0 .09.025c.043 0 .016.125-.046.205-.064.083-.067.082-.12-.01zm.09-.102c0-.026-.01-.046-.022-.046-.01 0-.034.02-.05.046-.017.025-.007.045.02.045.03 0 .052-.02.052-.045zm2.468.093c-.043-.065.011-.139.1-.139.042 0 .066.032.057.076-.018.092-.114.13-.157.063zm-2.745-.347c-.059-.039-.107-.093-.107-.12 0-.032.022-.03.066.004.036.03.096.045.132.036.036-.009.05-.007.028.004-.02.01-.013.048.018.083.074.086-.005.082-.137-.007zm.276.026c0-.025.022-.046.048-.046.027 0 .048.02.048.046a.047.047 0 0 1-.048.045.047.047 0 0 1-.048-.045zm-1.46-.046c.016-.025.06-.045.098-.045.038 0 .07.02.07.045 0 .025-.045.046-.1.046-.053 0-.085-.02-.068-.046zm.311-.07c0-.078.155-.293.194-.27.026.015.035.046.02.07-.016.023.038.042.118.042.081 0 .147.02.147.046 0 .025.032.045.072.045.04 0 .072.02.072.046 0 .064-.132.057-.155-.008-.014-.04-.056-.04-.178 0-.172.057-.29.07-.29.028zm-.434-.066a.95.95 0 0 1-.304-.167c-.173-.137-.177-.145-.077-.175.073-.022.136-.004.21.061a.7.7 0 0 0 .303.124c.235.036.31.14.12.164a.93.93 0 0 1-.252-.006zm.322-.259c-.05-.047-.037-.197.016-.197.027 0 .048.018.048.041a.4.4 0 0 0 .03.114c.028.072-.033.1-.094.042zm4.113-.302c-.02-.045-.024-.094-.008-.11.05-.046.088.02.066.108-.02.08-.023.08-.058.002zm-3.953-3.45c0-.026.034-.046.075-.046.04 0 .06.02.045.045-.017.025-.05.046-.075.046a.045.045 0 0 1-.045-.046zm.103 8.198c-.1-.036-.122-.017-.086.074.025.06.041.063.097.014.058-.05.056-.064-.01-.088zm.318-.368c.113.02.122.014.068-.047-.134-.154-.37-.093-.265.07.022.034.038.034.05.002.01-.027.075-.038.147-.025zm4.534-.435a.808.808 0 0 1 .074-.195c.03-.053.042-.128.027-.166-.027-.069.063-.257.223-.465.065-.084.071-.127.03-.2-.07-.128-.017-.39.107-.517.15-.15.092-.263-.112-.222-.192.038-.287.112-.144.112.056 0 .116-.02.132-.045.016-.025.05-.046.075-.046.077 0 .05.12-.047.202-.119.102-.178.415-.097.508.05.056.031.105-.099.277-.1.134-.156.26-.153.348a.627.627 0 0 1-.066.268c-.039.071-.06.13-.046.13.013 0 .001.056-.026.125-.045.113-.042.118.026.054a.373.373 0 0 0 .096-.168zm-3.878-.194c.038-.058-.073-.058-.167 0-.059.036-.052.044.033.045.058 0 .118-.02.134-.045zm4.095-1.635c0-.07-.14-.154-.215-.126-.108.04-.216-.016-.216-.11 0-.087-.132-.18-.248-.179-.035.001-.007.047.061.103a.59.59 0 0 1 .156.186c.024.061.066.08.151.063.068-.012.142.005.173.04.061.07.138.083.138.023zm-.766-.6c0-.053-.02-.083-.046-.068-.025.015-.033.057-.019.094.038.094.065.083.065-.027zm-.068-.18c.097 0 .084-.08-.023-.135-.068-.035-.106-.029-.152.024-.05.057-.048.067.007.056.047-.01.066.022.06.1-.006.066 0 .08.015.034.013-.044.055-.08.093-.08zm-5.057-.274a.047.047 0 0 0-.047-.046.047.047 0 0 0-.048.046c0 .025.021.045.048.045.026 0 .047-.02.047-.045zm5.008-.172c-.084-.075-.087-.075-.057.004a.54.54 0 0 1 .03.135c0 .035.018.034.058-.004.045-.043.038-.073-.03-.135zm.29-.603c.015-.063.058-.179.095-.258a.735.735 0 0 0 .064-.273c-.004-.15-.024-.114-.165.303a2.306 2.306 0 0 1-.174.393.612.612 0 0 0-.087.182c.003.075.24-.232.267-.347zm-7.197-.252c-.04-.1-.107-.08-.078.023.013.05.043.08.065.067.022-.013.028-.053.013-.09zm2.072-.225c-.017-.063-.062-.116-.1-.116-.056 0-.054.023.013.134.093.156.13.148.087-.018zm6.307.021c.027-.099-.038-.127-.08-.034-.016.038-.064.012-.14-.074-.114-.126-.13-.13-.393-.099-.155.018-.256.05-.232.072.023.023.13.018.248-.01.2-.048.21-.045.335.093.15.165.226.18.262.052zm-6.702-.25c.015-.038.01-.069-.013-.069-.022 0-.067.03-.1.068-.049.056-.046.07.013.07.04 0 .085-.032.1-.07zm.953-.01c.02-.01.036-.112.036-.225 0-.169.017-.212.095-.23.053-.014.096-.043.096-.065 0-.06-.156-.045-.255.026-.067.048-.122.052-.228.017-.13-.043-.194-.129-.097-.129.023 0 .055-.036.072-.08a1.82 1.82 0 0 1 .057-.136c.016-.032-.003-.057-.042-.057s-.082.042-.096.094a.183.183 0 0 1-.118.118c-.068.016-.087.052-.07.133.012.06.036.113.052.115.017.003.106.011.198.018.223.017.232.023.12.07l-.096.038.096.004c.088.005.09.01.012.051-.088.05-.116.18-.038.18.025 0 .066-.037.092-.08.026-.044.062-.065.08-.047.046.042-.067.172-.149.172a.124.124 0 0 0-.094.047c-.028.044.18.02.277-.034zm4.73-.013c0-.025-.033-.046-.073-.046-.04 0-.072-.02-.072-.046a.047.047 0 0 0-.048-.045c-.134 0 .003.137.18.18.007 0 .012-.018.012-.043zm.304-.07c.071-.067.09-.113.146-.352.017-.069.055-.125.085-.125.088 0 .23.143.23.232 0 .097.077.153.12.087.016-.025.011-.046-.01-.046-.023 0-.064-.06-.093-.132-.077-.195-.23-.258-.347-.146-.058.055-.084.125-.068.182.017.064-.02.136-.12.231-.082.08-.117.14-.08.14.035 0 .097-.032.137-.07zm.457-.07c-.034-.02-.086-.023-.113-.007-.03.018-.015.037.033.046.047.01.086.04.088.07.002.032.014.03.03-.009.014-.034-.003-.079-.038-.1zm-.14-.09c0-.025-.02-.044-.047-.044s-.048.032-.048.071c0 .04.021.06.048.043.026-.015.048-.047.048-.07zm-.766-.064c0-.036-.02-.078-.048-.094-.026-.015-.048.014-.048.066 0 .051.022.094.048.094.027 0 .048-.03.048-.066zm-7.088-.089c0-.01-.054-.027-.12-.039s-.12-.004-.12.018c0 .021.054.04.12.04s.12-.009.12-.019zm7.206-.3c.093 0 .137-.16.075-.273-.035-.06-.1-.093-.195-.093-.165 0-.18-.045-.045-.127.08-.047.088-.073.044-.152a.357.357 0 0 1-.03-.21.394.394 0 0 0-.068-.258c-.117-.184-.114-.223.017-.184.095.03.1.025.042-.042-.092-.105-.143-.094-.178.04a.28.28 0 0 0 .04.216c.1.147.147.58.063.58-.088 0-.127.114-.06.177a.28.28 0 0 0 .164.051c.17 0 .196.134.045.24-.072.05-.127.13-.126.186.002.09.008.087.074-.027.04-.069.101-.125.138-.125zm-4.74.09c.017-.025-.004-.046-.045-.046-.04 0-.074.021-.074.046 0 .025.02.046.045.046.025 0 .058-.02.074-.046zm-.003-.279c-.048-.074-.116-.04-.116.057 0 .08.012.087.071.04.04-.03.06-.074.045-.097zm-.164-.245c-.033-.038-.08-.068-.108-.068-.026 0-.02.03.012.068.033.038.081.068.108.068.026 0 .021-.03-.012-.068zm4.432-.057c.162-.123.22-.294.118-.353-.027-.016-.048-.079-.048-.14 0-.06-.018-.11-.04-.11-.023 0-.067-.055-.099-.12-.093-.197-.15-.07-.169.373-.023.537-.018.544.238.35zm-.19-.09c.02-.07.032-.239.027-.377l-.009-.25.096.113a.42.42 0 0 1 .097.214c0 .055.023.113.05.128.045.027-.196.296-.266.296-.018 0-.017-.056.004-.125zm-6.254.053c0-.036-.02-.066-.045-.066-.025 0-.042.04-.038.088.008.1.083.08.083-.022zm6.055-.184c.115-.043.09-.1-.034-.077-.102.02-.108.007-.09-.166.018-.184.07-.239.123-.129.015.032.022.016.015-.034-.006-.05-.043-.09-.082-.09-.048 0-.082.07-.105.224-.044.292-.013.34.173.272zm-1.816-.668c-.026-.19-.063-.264-.184-.364-.194-.16-1.012-.56-1.22-.598-.233-.04-.143.04.121.11.126.033.37.127.54.21l.312.15.008.217c.007.19.031.237.188.366.098.082.2.148.223.148.026 0 .031-.1.012-.239zm1.118.014c.02-.139-.12-.255-.216-.178-.068.053-.087.23-.03.284.074.07.23.004.246-.106zm-.213-.029a.443.443 0 0 0 .03-.09c0-.01.02-.02.047-.02.026 0 .047.041.047.091 0 .053-.032.091-.077.091-.05 0-.067-.025-.047-.072zm1.36-.056c.01-.033-.01-.044-.055-.028-.052.02-.076-.01-.087-.102-.017-.138-.184-.217-.184-.087 0 .04-.017.072-.038.072-.068 0-.153-.107-.153-.192 0-.045-.025-.082-.056-.082-.086 0-.375-.226-.375-.294 0-.033-.03-.072-.069-.086-.153-.056.06.264.232.35.095.046.172.11.172.14 0 .03.062.112.137.18.133.121.14.122.163.032.038-.138.115-.114.15.047.027.135.122.165.162.05zm-3.39-.1c0-.025-.06-.043-.132-.04l-.132.004.12.036.131.041c.007.003.012-.016.012-.04zm1.275-.216a.861.861 0 0 1 .1-.224c.15-.22-.15-.702-.48-.77-.174-.037-.23.01-.063.05.165.04.377.234.456.418.055.13.051.17-.038.345-.11.217-.127.306-.054.306.026 0 .061-.056.08-.125zm-2.21-.002c.137-.037.192-.106.193-.244.002-.095-.02-.118-.105-.114-.1.006-.103.012-.034.113.085.123.09.115-.122.183-.144.047-.177.042-.266-.038-.057-.05-.129-.092-.16-.092-.032 0 .012.061.098.136.092.08.187.124.23.108.04-.014.114-.038.166-.052zm.79-.12c-.263-.13-.526-.19-.526-.12 0 .026.061.048.136.048a.35.35 0 0 1 .223.091.33.33 0 0 0 .235.09c.147-.003.147-.004-.067-.11zm-.862-.025c.104-.063.014-.122-.239-.155-.213-.027-.214-.027-.084.042.073.038.132.09.132.113 0 .056.098.056.191 0zm-.574-.124c0-.058.177-.13.275-.112.053.01.084-.08.065-.188-.003-.02.027-.048.066-.062.04-.015.073-.047.073-.072 0-.028-.128-.04-.327-.029a1.576 1.576 0 0 0-.658.172 12.41 12.41 0 0 0-.345.163c-.046.034.063.156.148.168.266.036.703.011.703-.04zm3.783-.288c0-.05-.008-.09-.018-.09-.01 0-.03.04-.043.09-.014.05-.006.091.018.091s.043-.04.043-.09zm-.182-.1c-.035-.033-.057-.036-.057-.008 0 .061.057.115.09.085.012-.013-.002-.048-.033-.078zm-2.46-.168c.022-.142.157-.176.667-.17.46.006.592-.034.24-.073-.3-.032-.73-.005-.846.053-.055.028-.1.088-.1.132a.232.232 0 0 1-.06.14c-.049.05-.046.057.011.04.04-.01.08-.066.088-.122zm-.185-.002c.075-.133.06-.185-.05-.185-.112 0-.38.135-.38.192 0 .057.048.042.2-.06.16-.109.234-.082.146.052-.033.05-.038.09-.012.09.025 0 .07-.04.096-.09zm-7.973 9.427c-.274-.2-.899-.586-1.317-.816-1.792-.986-2.42-1.758-2.255-2.772.083-.514.358-.972.852-1.425.71-.648 1.308-.974 1.308-.71 0 .034-.186.204-.412.377-.484.37-.876.81-1.058 1.184-.107.22-.134.352-.15.712-.019.418-.012.46.128.743.08.165.226.391.323.503.44.513 1.606 1.03 2.606 1.16.224.028.455.06.514.072.114.022.151.11.047.11a.76.76 0 0 0-.238.115.486.486 0 0 0-.228.295c-.049.173-.027.262.133.56.04.071-.069.025-.253-.108zm4.744-.212c-.263-.015-.41-.067-.41-.144 0-.017.14-.023.307-.012.18.01.343-.003.395-.033.07-.04-.004-.05-.342-.043-.418.01-.439.005-.682-.147-.137-.086-.243-.177-.235-.202.008-.025.135-.1.283-.168.262-.12.287-.123 1.241-.128 1.22-.007 1.141-.01 1.141.057 0 .064-.2.188-.874.537-.257.133-.467.26-.467.28 0 .02-.016.034-.036.03a4.918 4.918 0 0 0-.32-.027zm.577-.342c.02-.019-.13-.034-.334-.034-.204 0-.36.016-.348.034.03.045.635.044.682 0zm-.83-.157a.893.893 0 0 0-.24 0c-.072.01-.024.02.108.02.131 0 .191-.01.132-.02zm.957 0a2.885 2.885 0 0 0-.407 0c-.112.01-.02.016.204.016.224 0 .315-.008.203-.017zm.42-.133c0-.01-.168-.014-.372-.01-.358.007-.362.008-.108.034.25.026.48.014.48-.024zm-1.423-.022c-.038-.036-.078-.036-.142 0-.077.042-.07.048.053.05.103 0 .127-.013.09-.05zm.357.02a.552.552 0 0 0-.19-.002c-.06.01-.023.02.082.02.105.001.154-.008.108-.02zm.215-.09a.194.194 0 0 0-.12 0c-.032.012-.005.022.06.022.066 0 .093-.01.06-.023zm.72-.003a.894.894 0 0 0-.24 0c-.073.01-.025.02.107.02s.191-.009.132-.02zm-1.27-.643c-.185-.02-.643-.692-.9-1.32-.3-.727-.395-1.26-.365-2.039a4.845 4.845 0 0 1 .991-2.78c.255-.33.32-.375.417-.28.074.07.07.083-.044.2-.722.74-1.207 2.147-1.117 3.248.08.995.404 1.891.94 2.605.131.176.232.333.224.35-.008.017-.074.024-.146.016zm-2.024-2.065c-.36-.379-1.137-1.05-1.925-1.659-1.46-1.162-4.227-3.048-4.228-4.944-.002-1.265 1.187-2.565 3.5-3.706 4.004-1.977 11.598-3.474 23.774-3.474 2.6 0 3.397-.02 6.73.117 12.38.6 18.558 3.6 18.558 6.378 0 2.394-3.686 5.42-10.896 6.334-.276.027-.573.058-.658.07-.145.016-.156.008-.156-.116 0-.148-.012-.143.575-.228 4.185-.715 9.387-3.307 9.427-5.81.03-1.948-4.27-3.87-6.817-4.637-1.074-.322-1.943-.516-3.424-.767l-1.054-.18a44.027 44.027 0 0 0-1.692-.247 150.2 150.2 0 0 1-2.044-.207c-.484-.056-2.043-.204-2.85-.272-.712-.06-2.917-.138-4.477-.16-1.792-.023-4.717.053-7.017.183-1.759.1-1.87.134-2.49.181-9.412.716-17.176 3.823-17.176 6.378 0 .71.547 1.45 1.183 1.767 1.043.522 2.874.62 4.208.213.39-.118.575-.165.546-.09-.009.022-.13.125-.27.23-.44.33-.953 1.095-1.176 1.757-.2.592-.32 1.76-.23 2.223.03.145.107.39.172.545.066.155.113.288.104.296-.008.008-.097-.07-.196-.176zm2.993.015c0-.048.104-.146.154-.146.02 0 .038.04.038.09 0 .062-.032.092-.096.092-.053 0-.096-.016-.096-.036zm-.167-1.833c-.017-.025-.007-.045.02-.045.03 0 .052.02.052.045 0 .025-.01.046-.022.046-.01 0-.034-.02-.05-.046zm.12-.255c0-.036.06-.054.162-.05.194.01.184.06-.018.087-.095.013-.145 0-.145-.037zm-.144-.155c0-.025.023-.046.05-.046.028 0 .038.021.022.046-.017.025-.04.046-.05.046-.013 0-.022-.02-.022-.046zm.452-.095c-.015-.023.018-.042.072-.042.054 0 .098-.02.098-.048 0-.027.024-.034.052-.018.038.022.038.045 0 .08-.067.065-.188.08-.222.028zm.683-.208c-.05-.048.012-.105.087-.078.04.014.058.044.044.067-.03.048-.088.053-.13.011zm.134-.198c.016-.025.04-.046.05-.046.012 0 .022.02.022.046 0 .025-.023.045-.05.045-.029 0-.038-.02-.022-.045zm-.368-.214c.034-.013.076-.01.092.004.015.015-.013.026-.063.024-.056-.002-.067-.013-.03-.028zm-.997-.17c0-.04.034-.072.076-.072.042 0 .067.024.057.054-.03.084-.133.1-.133.018zm.575.022c0-.024.021-.056.048-.07.026-.017.047.002.047.042s-.02.07-.047.07-.048-.019-.048-.042zm.383-.049c0-.025.032-.045.072-.045.04 0 .072.02.072.045 0 .026-.033.046-.072.046-.04 0-.072-.02-.072-.046zm1.894-.078a.116.116 0 0 1 .027-.123c.042-.037.05-.029.027.03-.036.098.03.105.111.012.033-.038.09-.068.126-.068.117 0 .07.072-.098.148-.15.068-.166.068-.193 0zm-2.134-.195c0-.025.022-.046.048-.046.027 0 .048.02.048.046a.047.047 0 0 1-.048.046.047.047 0 0 1-.048-.046zm.72-.14c0-.026.02-.035.047-.02.026.016.048.038.048.05 0 .01-.022.02-.048.02a.048.048 0 0 1-.048-.049zm.31.003c-.016-.025.004-.045.045-.045.041 0 .075-.03.075-.069 0-.037.022-.068.05-.068.033 0 .033.027.001.085-.026.047-.034.098-.018.114.017.016-.004.03-.046.03-.043 0-.09-.02-.107-.047zm-.427-.176c-.02-.032-.025-.07-.009-.085.043-.04.09.02.067.085-.017.047-.028.046-.058 0zm.241-.086c.045-.179.066-.185.066-.019 0 .08-.022.144-.049.144-.028 0-.035-.05-.017-.125zm-.389-.057a.106.106 0 0 1 .078-.045c.026 0 .034.02.018.045a.106.106 0 0 1-.077.046c-.027 0-.035-.02-.019-.046zm.813-.003c-.018-.027-.02-.06-.006-.073.034-.032.127.025.127.08 0 .057-.082.053-.12-.007zm.337.003a.082.082 0 0 1 .013-.099c.032-.03.06-.028.083.008a.082.082 0 0 1-.014.1c-.032.03-.06.027-.082-.009zm-1.27-.16c-.034-.039-.052-.075-.042-.08.22-.12.234-.124.234-.06a.101.101 0 0 1-.06.088c-.046.017-.045.023.003.026.035.002.05.024.033.05-.042.064-.098.056-.168-.024zm.336.022c-.062-.04-.06-.055.021-.114.107-.077.19-.028.143.085-.035.087-.064.093-.164.03zm.43-.024c0-.118.12-.43.16-.418.086.028.092.29.007.37-.076.072-.166.098-.166.048zm.267-.016a.05.05 0 0 1 .017-.07.055.055 0 0 1 .074.016.05.05 0 0 1-.018.07.055.055 0 0 1-.073-.016zm-1.176-.186c0-.026.023-.046.05-.046.03 0 .038.02.022.046-.016.025-.04.045-.05.045-.013 0-.022-.02-.022-.045zm.31-.139c-.046-.07.035-.14.112-.095.05.03.047.047-.008.092-.052.04-.08.041-.104.003zm.36-.088c0-.057.17-.144.21-.106.041.04-.064.15-.144.15-.036 0-.066-.02-.066-.044zm.45-.147c-.04-.06.071-.126.215-.127.092 0 .103.011.058.063-.073.084-.236.122-.274.064zm-1.54-.043c-.032-.032-.059-.084-.059-.117 0-.032-.022-.059-.048-.059a.047.047 0 0 1-.048-.046c0-.068.124-.054.19.02.031.037.05.11.041.163-.012.078-.027.085-.075.04zm.947.01c0-.057.287-.19.34-.16.074.043.047.094-.08.15-.146.063-.26.067-.26.01zm-.344-.08c.034-.014.075-.012.091.003s-.012.026-.063.024c-.055-.002-.067-.013-.028-.027zm-.316-.16c.024-.068.133-.106.133-.046 0 .025-.034.057-.076.072-.047.017-.068.007-.057-.026zm.548-.022c-.06-.057-.032-.116.042-.089.043.016.062.008.045-.018-.016-.025.016-.045.07-.045.111 0 .126.047.041.128-.064.06-.149.07-.198.024zm8.787-5.667a1.12 1.12 0 0 1-.126-.205c-.128-.242-.453-.548-.68-.64-.396-.16-1.507-.13-2.96.075-.343.05-.652.098-.688.11a4.99 4.99 0 0 1-.383.087 4.314 4.314 0 0 0-.402.095c-.047.018-.084.011-.084-.014 1.57-.7 8.15-1.723 14.793-1.666 4.502.038 9.044.554 12.04 2.075-.042.01-1.537.06-9.674.06-5.368 0-10.22.01-10.782.022-.562.013-1.036.014-1.054.001z"/><g stroke-width=".265"><g style="font-variant-ligatures:none" aria-label="URBAN"><path d="M98.789 65.493V63.76q0-.222.103-.332.106-.11.276-.11.178 0 .282.11.106.11.106.332v1.772q0 .303.07.507.072.201.253.314.18.11.506.11.45 0 .635-.225.186-.229.186-.69V63.76q0-.224.104-.332.103-.11.276-.11.173 0 .28.11.108.108.108.332v1.733q0 .423-.088.705-.085.283-.326.497-.206.182-.48.266-.274.083-.64.083-.437 0-.752-.088-.316-.09-.515-.278-.198-.19-.29-.482-.094-.295-.094-.703zm5.17-.073h-.27v1.174q0 .231-.106.34-.106.11-.276.11-.184 0-.284-.114-.1-.115-.1-.336v-2.81q0-.24.11-.346.111-.107.36-.107h1.247q.258 0 .441.022.184.02.331.085.178.072.315.207.137.134.207.313.072.177.072.377 0 .408-.24.652-.238.244-.723.346.204.105.39.31.186.203.33.435.148.23.228.416.082.184.082.254 0 .072-.049.145-.046.07-.129.11-.083.042-.19.042-.13 0-.218-.06-.088-.058-.152-.147-.062-.09-.17-.264l-.308-.493q-.166-.272-.297-.414-.13-.142-.264-.194-.134-.052-.338-.052zm.438-1.534h-.708v1.004h.687q.277 0 .465-.045.19-.047.287-.157.1-.112.1-.306 0-.152-.08-.267-.08-.117-.222-.174-.134-.055-.53-.055zm4.256 3.095-1.158.001q-.25 0-.359-.107-.106-.11-.106-.348v-2.755q0-.243.11-.348.11-.107.355-.107h1.227q.272 0 .47.032.2.033.357.125.134.078.238.198.103.117.157.262.054.143.054.303 0 .55-.568.805.747.23.747.895 0 .308-.163.555-.163.245-.44.363-.172.07-.397.1-.225.027-.524.027zm-.057-1.627h-.798v1.07h.824q.777 0 .777-.543 0-.277-.2-.402-.203-.125-.603-.125zm-.798-1.48v.947h.702q.287 0 .442-.052.157-.053.24-.2.065-.106.065-.236 0-.277-.204-.367-.204-.093-.623-.093zm5.717 2.7-.18-.453h-1.54l-.18.462q-.107.27-.182.366-.074.093-.245.093-.145 0-.256-.1-.11-.1-.11-.229 0-.074.025-.152.026-.079.085-.22l.97-2.34.097-.24q.06-.143.124-.236.067-.094.173-.15.11-.06.266-.06.16 0 .266.06.11.056.173.147.068.091.111.197.047.103.117.278l.99 2.325q.115.266.115.386 0 .126-.11.231-.11.103-.264.103-.09 0-.155-.03t-.109-.083q-.044-.054-.095-.162-.05-.11-.086-.194zm-1.518-1h1.131l-.57-1.489zm4.128-1.82 1.475 2.124v-2.144q0-.209.093-.312.095-.106.255-.106.166 0 .261.106.096.103.096.312v2.835q0 .474-.413.474-.104 0-.186-.03-.083-.027-.155-.088-.073-.06-.135-.143-.062-.083-.124-.17l-1.438-2.099v2.112q0 .207-.1.312-.1.106-.259.106-.163 0-.26-.106-.1-.108-.1-.312v-2.78q0-.177.042-.278.05-.11.163-.18.113-.07.245-.07.103 0 .176.031.074.032.13.086.056.054.112.14.06.086.122.18z"/><path style="paint-order:fill markers stroke" d="M90.684 321.63h1.732v1.64h-1.732z" transform="matrix(.27152 0 0 .2584 78.299 -19.779)"/><path style="font-variant-ligatures:none;paint-order:fill markers stroke" d="M105.81 321.58h1.732v14.185h-1.732z" transform="matrix(.27152 0 0 .2584 78.299 -19.779)"/></g><g style="font-variant-ligatures:none" aria-label="CRUISE"><path d="M102.081 70.635q0 .172-.09.374-.087.2-.279.393-.19.192-.488.312-.297.12-.692.12-.3 0-.545-.053-.246-.055-.447-.168-.199-.115-.367-.302-.15-.17-.256-.379-.106-.21-.16-.45-.05-.238-.05-.506 0-.435.13-.78.135-.343.383-.587.248-.246.58-.373.334-.128.711-.128.46 0 .82.174.358.175.55.433.19.256.19.484 0 .126-.093.222-.093.095-.224.095-.148 0-.222-.066-.073-.066-.163-.229-.15-.268-.354-.4-.202-.133-.499-.133-.472 0-.754.342-.279.341-.279.97 0 .421.124.701.124.278.351.416.228.137.533.137.33 0 .558-.154.23-.158.346-.46.05-.143.121-.23.072-.092.233-.092.136 0 .235.09.098.092.098.227zm1.685-.432h-.269v1.178q0 .232-.106.342-.105.11-.276.11-.183 0-.284-.115-.1-.115-.1-.337v-2.82q0-.24.11-.347.111-.108.36-.108h1.247q.258 0 .442.023.183.02.33.085.18.072.315.207.137.135.207.315.072.178.072.378 0 .41-.24.655-.237.245-.723.347.204.105.39.31.186.205.33.437.148.23.228.418.083.185.083.255 0 .072-.05.145-.046.07-.129.11-.082.042-.19.042-.13 0-.218-.06-.088-.057-.152-.147-.062-.09-.17-.265l-.308-.495q-.165-.273-.297-.415-.13-.143-.264-.195-.134-.053-.338-.053zm.44-1.54h-.709v1.008h.687q.277 0 .465-.045.19-.047.287-.157.1-.113.1-.308 0-.152-.08-.267-.08-.118-.22-.175-.136-.055-.53-.055z"/><path style="font-variant-ligatures:none;paint-order:fill markers stroke" d="M89.978 340.12h1.732v1.64h-1.732z" transform="matrix(.27152 0 0 .2584 78.299 -19.779)"/><path d="M106.595 70.284V68.55q0-.22.1-.33.101-.112.266-.112.171 0 .271.11.102.111.102.332v1.773q0 .302.067.506.07.202.244.315.175.11.488.11.434 0 .613-.226.18-.228.18-.69V68.55q0-.223.1-.33.1-.112.265-.112.167 0 .27.11.104.11.104.332v1.734q0 .422-.085.705-.082.283-.313.497-.2.182-.464.265-.264.084-.617.084-.42 0-.725-.089-.304-.09-.496-.277-.19-.19-.28-.482-.09-.295-.09-.703zm3.793 1.106v-2.84q0-.22.105-.332.106-.11.274-.11.173 0 .28.11.108.11.108.332v2.84q0 .223-.109.334-.106.11-.279.11-.165 0-.274-.11-.105-.113-.105-.334zm4.466-.698q0 .327-.178.587-.176.261-.517.408-.34.148-.808.148-.56 0-.925-.202-.258-.145-.42-.386-.16-.243-.16-.472 0-.132.094-.226.098-.096.248-.096.122 0 .204.074.086.074.145.22.072.171.155.287.085.115.238.191.152.074.4.074.341 0 .553-.15.214-.152.214-.378 0-.18-.116-.29-.114-.114-.297-.173-.18-.059-.486-.125-.408-.09-.684-.21-.274-.124-.437-.333-.16-.212-.16-.524 0-.297.17-.528.171-.232.494-.354.323-.126.76-.126.348 0 .601.084.256.08.424.22.168.134.245.284.078.15.078.292 0 .13-.098.236-.096.104-.24.104-.132 0-.202-.062-.067-.064-.147-.206-.104-.204-.248-.318-.145-.115-.465-.115-.297 0-.48.125-.182.123-.182.298 0 .108.062.187.062.078.17.135.11.056.22.088.112.032.367.094.32.071.58.157.26.086.441.21.183.122.284.311.103.187.103.46zm3.196-2.014h-1.766v.901h1.626q.18 0 .267.077.09.076.09.2 0 .126-.088.206-.087.077-.269.077h-1.626v1.043h1.827q.184 0 .277.082.095.08.095.215 0 .13-.095.213-.093.08-.277.08h-2.13q-.256 0-.37-.108-.11-.107-.11-.347v-2.756q0-.16.05-.26.05-.102.155-.147.108-.048.275-.048h2.07q.186 0 .276.08.092.078.092.205 0 .13-.092.21-.09.078-.277.078z"/><path style="font-variant-ligatures:none;paint-order:fill markers stroke" d="M137.01 340.12h1.732v14.185h-1.732z" transform="matrix(.27152 0 0 .2584 78.299 -19.779)"/></g><g style="font-variant-ligatures:none" aria-label="SHIP"><path d="M101.766 75.483q0 .327-.179.587-.175.26-.516.408-.34.148-.809.148-.56 0-.924-.202-.259-.145-.42-.386-.16-.243-.16-.472 0-.133.094-.226.098-.096.248-.096.121 0 .204.074.085.074.145.22.072.171.155.286.085.116.237.192.153.074.4.074.342 0 .553-.15.215-.153.215-.379 0-.18-.116-.29-.114-.113-.297-.172-.18-.059-.486-.125-.408-.09-.685-.212-.273-.123-.436-.332-.16-.21-.16-.523 0-.298.17-.529.17-.23.494-.354.322-.125.76-.125.348 0 .601.083.256.082.423.22.168.134.246.284.077.15.077.293 0 .13-.098.236-.095.103-.24.103-.132 0-.2-.06-.069-.065-.149-.208-.103-.204-.248-.317-.144-.115-.465-.115-.297 0-.48.125-.18.123-.18.297 0 .11.061.187.062.08.17.135.11.057.22.09.111.031.367.092.32.072.58.158.26.086.44.21.184.122.284.311.104.187.104.46zm3.578-2.143v1.033H107V73.34q0-.22.103-.33.106-.112.277-.112.173 0 .28.11.107.11.107.332v2.84q0 .223-.108.334-.109.11-.28.11-.172 0-.276-.11-.103-.113-.103-.334v-1.212h-1.656v1.212q0 .223-.108.334-.109.11-.28.11-.172 0-.276-.11-.103-.113-.103-.334v-2.84q0-.22.1-.33.104-.112.28-.112.173 0 .28.11.107.11.107.332zm5.937 2.84v-2.839q0-.22.106-.332.106-.11.274-.11.173 0 .28.11.107.108.107.332v2.84q0 .223-.108.334-.106.11-.28.11-.165 0-.273-.11-.106-.113-.106-.335zm5.745-1.039h-.702v1.033q0 .221-.109.335-.108.115-.274.115-.173 0-.279-.112-.106-.115-.106-.333v-2.81q0-.245.117-.349.116-.104.37-.104h.983q.437 0 .672.064.232.062.4.207.17.144.26.353.086.21.086.47 0 .557-.356.845-.357.286-1.062.286zm-.186-1.67h-.516v1.113h.516q.271 0 .452-.054.184-.055.28-.18.095-.124.095-.325 0-.24-.147-.393-.166-.162-.68-.162z"/><path style="font-variant-ligatures:none;paint-order:fill markers stroke" d="M137.21 358.73h1.732v1.64h-1.732z" transform="matrix(.27152 0 0 .2584 78.299 -19.779)"/></g></g><g transform="matrix(.57207 0 0 .54442 -145.122 -332.437)" stroke-width=".033" style="font-variant-ligatures:none;white-space:pre;shape-inside:url(#rect12816-2)" aria-label="ANALYSIS"><path d="m464.92 747.65-.131-.345h-1.118l-.13.353q-.078.206-.132.279-.055.071-.178.071-.105 0-.186-.077-.08-.077-.08-.174 0-.056.018-.116.02-.06.062-.167l.703-1.785.072-.184q.043-.109.09-.18.048-.071.125-.114.079-.045.193-.045.117 0 .193.045.08.043.126.112.049.07.08.15.034.079.085.212l.718 1.774q.085.202.085.294 0 .096-.081.176-.079.079-.191.079-.066 0-.113-.024-.047-.023-.078-.062-.032-.041-.07-.124zm-1.102-.763h.82l-.414-1.134zm3.102-1.397 1.07 1.62v-1.635q0-.16.068-.238.07-.08.186-.08.12 0 .189.08.07.079.07.238v2.162q0 .362-.3.362-.076 0-.136-.023-.06-.02-.112-.067-.053-.047-.098-.11l-.09-.129-1.044-1.6v1.61q0 .157-.073.238-.073.08-.187.08-.119 0-.19-.08-.071-.083-.071-.238v-2.12q0-.136.03-.212.036-.085.118-.137.083-.055.178-.055.075 0 .128.025.054.024.093.065.042.042.083.107zm4.18 2.16-.131-.345h-1.118l-.13.353q-.078.206-.132.279-.055.071-.178.071-.105 0-.186-.077-.08-.077-.08-.174 0-.056.018-.116.02-.06.062-.167l.703-1.785.072-.184q.043-.109.09-.18.048-.071.125-.114.079-.045.193-.045.116 0 .193.045.08.043.126.112.049.07.08.15.034.079.085.212l.718 1.774q.084.202.084.294 0 .096-.08.176-.079.079-.191.079-.066 0-.113-.024-.047-.023-.079-.062-.032-.041-.07-.124zm-1.102-.763h.82l-.414-1.134zm2.922-1.387v2h1.129q.135 0 .206.066.073.066.073.165 0 .101-.071.165-.071.062-.208.062h-1.345q-.182 0-.262-.08-.079-.081-.079-.261V745.5q0-.169.075-.253.077-.085.2-.085.126 0 .203.085.079.082.079.253zm2.18 2.16v-.872l-.671-1.04q-.088-.14-.126-.22-.035-.078-.035-.137 0-.095.073-.164.075-.07.183-.07.115 0 .173.066.06.063.178.257l.514.834.52-.834.078-.13q.032-.052.07-.097.039-.047.085-.072.047-.024.115-.024.105 0 .174.07.071.067.071.157 0 .073-.035.146-.036.073-.122.203l-.688 1.055v.872q0 .17-.079.255-.079.084-.2.084-.124 0-.201-.082-.077-.085-.077-.257zm4.06-.53q0 .25-.13.448-.127.199-.374.311-.248.113-.587.113-.407 0-.671-.154-.188-.11-.306-.294-.116-.186-.116-.36 0-.101.07-.173.07-.073.18-.073.087 0 .147.056.062.057.105.167.053.131.113.22.062.088.172.146.11.056.29.056.248 0 .402-.114.156-.117.156-.29 0-.136-.085-.22-.082-.087-.215-.132-.132-.045-.353-.095-.296-.07-.497-.161-.198-.094-.316-.253-.117-.162-.117-.4 0-.227.124-.403.124-.176.358-.27.234-.096.551-.096.253 0 .437.064.186.062.308.167.122.103.178.218.056.114.056.223 0 .099-.071.18-.07.078-.175.078-.095 0-.146-.047-.049-.048-.107-.157-.075-.156-.18-.242-.105-.088-.337-.088-.216 0-.349.096-.131.093-.131.226 0 .083.045.143.045.06.124.103.078.043.159.068.08.024.266.07.233.055.42.12.19.066.32.16.134.094.207.238.075.143.075.35zm.77.53v-2.165q0-.17.077-.254.077-.084.199-.084.125 0 .202.084.079.083.079.254v2.165q0 .17-.079.255-.077.084-.202.084-.12 0-.2-.084-.076-.086-.076-.255zm3.54-.53q0 .25-.13.448-.127.199-.374.311-.248.113-.587.113-.407 0-.671-.154-.188-.11-.306-.294-.116-.186-.116-.36 0-.101.07-.173.07-.073.18-.073.087 0 .147.056.062.057.105.167.053.131.113.22.062.088.172.146.11.056.29.056.248 0 .402-.114.156-.117.156-.29 0-.136-.085-.22-.082-.087-.215-.132-.132-.045-.353-.095-.296-.07-.497-.161-.198-.094-.316-.253-.117-.162-.117-.4 0-.227.124-.403.124-.176.358-.27.234-.096.551-.096.253 0 .437.064.186.062.308.167.122.103.178.218.056.114.056.223 0 .099-.071.18-.07.078-.175.078-.095 0-.146-.047-.049-.048-.107-.157-.075-.156-.18-.242-.105-.088-.337-.088-.216 0-.349.096-.131.093-.131.226 0 .083.045.143.045.06.124.103.078.043.159.068.08.024.266.07.233.055.42.12.19.066.32.16.134.094.207.238.075.143.075.35z"/><path style="paint-order:fill markers stroke" d="M472.37 747.69h.386v.27h-.386z"/></g><g transform="matrix(.52205 0 0 .54442 -121.942 -329.575)" stroke-width=".035" style="font-variant-ligatures:none;white-space:pre;shape-inside:url(#rect12816-2-5)" aria-label="SOLUTIONS"><path d="M465.25 747.13q0 .25-.13.448-.127.199-.374.311-.248.113-.587.113-.407 0-.671-.154-.188-.11-.306-.294-.116-.186-.116-.36 0-.101.07-.173.07-.073.18-.073.087 0 .147.056.062.057.105.167.053.131.113.22.062.088.172.146.11.056.29.056.248 0 .402-.114.156-.117.156-.29 0-.136-.085-.22-.082-.087-.215-.132-.132-.045-.353-.095-.296-.07-.497-.161-.198-.094-.316-.253-.117-.162-.117-.4 0-.227.124-.403.124-.176.358-.27.234-.096.551-.096.253 0 .437.064.186.062.308.167.122.103.178.218.056.114.056.223 0 .099-.071.18-.07.078-.175.078-.095 0-.146-.047-.049-.048-.107-.157-.075-.156-.18-.242-.105-.088-.337-.088-.216 0-.349.096-.131.093-.131.226 0 .083.045.143.045.06.124.103.078.043.159.068.08.024.266.07.233.055.42.12.19.066.32.16.134.094.207.238.075.143.075.35zm1.68-1.97q.427 0 .733.174.308.173.465.493.158.32.158.75 0 .32-.087.58-.086.26-.258.452-.173.19-.424.292-.251.101-.576.101-.322 0-.577-.103-.255-.105-.426-.294-.17-.19-.258-.456-.087-.266-.087-.575 0-.317.09-.582.092-.264.265-.45.172-.185.42-.283.247-.099.562-.099zm.791 1.414q0-.302-.097-.523-.098-.222-.28-.334-.18-.115-.414-.115-.167 0-.31.064-.14.062-.243.182-.101.12-.161.307-.058.186-.058.419 0 .234.058.423.06.19.167.315.108.124.247.186.14.062.307.062.214 0 .392-.107.18-.107.285-.33.107-.223.107-.55zm1.589-1.074v2h1.129q.135 0 .206.066.073.066.073.165 0 .101-.071.165-.072.062-.208.062h-1.345q-.182 0-.262-.08-.079-.081-.079-.261V745.5q0-.169.075-.253.077-.085.2-.085.126 0 .203.085.079.082.079.253z"/><path style="font-variant-ligatures:none;white-space:pre;shape-inside:url(#rect12816-2);paint-order:fill markers stroke" d="M468.75 747.68h.341v.281h-.341z"/><path d="M470.89 746.82v-1.322q0-.169.075-.253.077-.084.2-.084.13 0 .205.084.077.084.077.253v1.352q0 .23.05.386.053.154.184.24.131.085.368.085.326 0 .46-.173.136-.174.136-.527v-1.363q0-.17.075-.253.075-.084.2-.084.126 0 .203.084.079.083.079.253v1.322q0 .323-.064.538-.062.216-.236.379-.15.139-.349.202-.199.064-.465.064-.317 0-.546-.067-.228-.07-.373-.212-.144-.145-.211-.368-.068-.225-.068-.536zm4.7-1.15h-.607v1.997q0 .172-.077.257-.077.082-.2.082-.123 0-.202-.084-.076-.085-.076-.255v-1.997h-.608q-.142 0-.212-.062-.07-.064-.07-.167 0-.107.072-.169.073-.061.21-.061h1.77q.144 0 .214.063.07.064.07.167 0 .103-.07.167-.072.062-.214.062zm.64 1.99v-2.165q0-.17.077-.254.077-.084.199-.084.125 0 .202.084.079.083.079.254v2.165q0 .17-.079.255-.077.084-.202.084-.12 0-.2-.084-.076-.086-.076-.255zm2.39-2.5q.427 0 .733.174.308.173.465.493.158.32.158.75 0 .32-.087.58-.086.26-.258.452-.173.19-.424.292-.251.101-.576.101-.322 0-.577-.103-.255-.105-.426-.294-.17-.19-.258-.456-.087-.266-.087-.575 0-.317.09-.582.092-.264.265-.45.172-.185.42-.283.247-.099.562-.099zm.791 1.414q0-.302-.097-.523-.098-.222-.28-.334-.18-.115-.414-.115-.167 0-.31.064-.14.062-.243.182-.101.12-.161.307-.058.186-.058.419 0 .234.058.423.06.19.167.315.108.124.247.186.14.062.307.062.214 0 .392-.107.18-.107.285-.33.107-.223.107-.55zm1.759-1.084 1.07 1.62v-1.635q0-.16.068-.238.07-.08.186-.08.12 0 .189.08.07.079.07.238v2.162q0 .362-.3.362-.076 0-.136-.023-.06-.02-.112-.067-.053-.047-.098-.11l-.09-.129-1.044-1.6v1.61q0 .157-.073.238-.073.08-.187.08-.119 0-.19-.08-.071-.083-.071-.238v-2.12q0-.136.03-.212.036-.085.118-.137.083-.055.178-.055.075 0 .128.025.054.024.093.065.042.042.083.107zm4.28 1.64q0 .25-.13.448-.127.199-.374.311-.248.113-.587.113-.407 0-.671-.154-.188-.11-.306-.294-.116-.186-.116-.36 0-.101.07-.173.07-.073.18-.073.087 0 .147.056.062.057.105.167.053.131.113.22.062.088.172.146.11.056.29.056.248 0 .402-.114.156-.117.156-.29 0-.136-.085-.22-.082-.087-.215-.132-.132-.045-.353-.095-.296-.07-.497-.161-.198-.094-.316-.253-.117-.162-.117-.4 0-.227.124-.403.124-.176.358-.27.234-.096.551-.096.253 0 .437.064.186.062.308.167.122.103.178.218.056.114.056.223 0 .099-.071.18-.07.078-.175.078-.095 0-.146-.047-.049-.048-.107-.157-.075-.156-.18-.242-.105-.088-.337-.088-.216 0-.349.096-.131.093-.131.226 0 .083.045.143.045.06.124.103.078.043.159.068.08.024.266.07.233.055.42.12.19.066.32.16.134.094.207.238.075.143.075.35z"/></g><path d="M167.48 46.28a.643.612 0 0 0-.642.613.643.612 0 0 0 .643.612.643.612 0 0 0 .643-.612.643.612 0 0 0-.643-.612zm0 .12a.517.492 0 0 1 .518.493.517.492 0 0 1-.517.492.517.492 0 0 1-.517-.492.517.492 0 0 1 .517-.492z" style="stroke-width:.264879;paint-order:fill markers stroke" transform="translate(-36.505 23.327)"/><path d="M156.416 40.477h-.046v.199c0 .026-.006.045-.018.058a.062.059 0 0 1-.048.018.06.058 0 0 1-.049-.02c-.011-.012-.017-.031-.017-.056v-.552l.295-.001a.63.63 0 0 1 .076.004.189.18 0 0 1 .111.049.18.172 0 0 1 .048.117.15.15 0 0 1-.041.11.237.237 0 0 1-.125.059.24.23 0 0 1 .067.052.54.54 0 0 1 .11.188.047.047 0 0 1-.007.024.055.052 0 0 1-.023.019.069.066 0 0 1-.033.007.063.06 0 0 1-.037-.01.1.096 0 0 1-.026-.025 1.253 1.193 0 0 1-.03-.045l-.052-.083a.471.449 0 0 0-.051-.07.124.118 0 0 0-.046-.033.156.149 0 0 0-.058-.01zm.076-.26h-.122v.17h.118a.348.348 0 0 0 .08-.008.093.093 0 0 0 .05-.026.08.076 0 0 0 .016-.052.083.079 0 0 0-.051-.075.301.301 0 0 0-.091-.01z" style="font-variant-ligatures:none" aria-label="R" transform="translate(-36.505 23.327)"/><path d="M167.794 47.017q0 .03-.02.063-.017.034-.055.064t-.095.049q-.058.018-.13.018-.153 0-.24-.084-.086-.086-.086-.23 0-.096.04-.17.04-.074.114-.115.074-.04.178-.04.064 0 .118.017.053.018.09.046.038.029.057.06.02.033.02.06 0 .029-.022.048-.022.02-.053.02-.02 0-.035-.01-.013-.01-.03-.033-.03-.044-.064-.065-.032-.022-.083-.022-.074 0-.118.054-.045.055-.045.149 0 .044.011.082.012.037.034.063.021.026.052.04.031.013.068.013.05 0 .085-.022.036-.022.063-.067.015-.026.032-.04.018-.016.044-.016.03 0 .05.022.02.022.02.047z" style="font-variant-ligatures:none" aria-label="c" transform="translate(-36.505 23.327)"/><path d="M156.509 39.827a.643.612 0 0 0-.643.61.643.612 0 0 0 .643.613.643.612 0 0 0 .642-.612.643.612 0 0 0-.642-.612zm0 .119a.517.492 0 0 1 .517.492.517.492 0 0 1-.517.492.517.492 0 0 1-.517-.492.517.492 0 0 1 .517-.492z" style="stroke-width:.264879;paint-order:fill markers stroke" transform="translate(-36.505 23.327)"/><g aria-label="urbancruiseship.org Exhibit constructed by Richard Burd 2-1-2023" style="font-size:4.93889px;line-height:1.25;font-family:Roboto;-inkscape-font-specification:'Roboto, Normal';white-space:pre;inline-size:52.7643;display:inline;stroke-width:.264583"><path d="M135.635 64.936q-.26.307-.765.307-.417 0-.636-.242-.217-.243-.22-.718v-1.698h.446v1.686q0 .593.483.593.51 0 .68-.381v-1.898h.446v2.61h-.425zM138.008 62.985q-.102-.017-.22-.017-.439 0-.595.374v1.852h-.446v-2.609h.434l.007.301q.219-.35.622-.35.13 0 .198.035zM140.627 63.919q0 .598-.275.962-.275.362-.738.362-.495 0-.765-.35l-.021.301h-.41V61.49h.446v1.382q.27-.335.745-.335t.745.36q.273.358.273.983zm-.446-.051q0-.456-.176-.704-.177-.249-.507-.249-.441 0-.634.41v1.129q.205.41.639.41.32 0 .5-.248.178-.249.178-.748zM142.8 65.194q-.039-.077-.063-.275-.311.324-.743.324-.386 0-.634-.217-.246-.22-.246-.555 0-.408.309-.632.31-.227.873-.227h.434v-.205q0-.234-.14-.371-.14-.14-.413-.14-.238 0-.4.12-.162.121-.162.292h-.448q0-.195.137-.376.14-.183.377-.29.238-.105.523-.105.45 0 .706.226.256.225.266.62v1.201q0 .36.091.572v.038zm-.74-.34q.209 0 .397-.108.188-.109.273-.282v-.536h-.35q-.82 0-.82.48 0 .21.14.328.14.118.36.118zM144.297 62.585l.015.328q.299-.376.781-.376.827 0 .834.933v1.724h-.446v-1.726q-.002-.283-.13-.418-.125-.135-.393-.135-.217 0-.381.116t-.256.304v1.86h-.446v-2.61zM147.647 64.878q.239 0 .417-.144.178-.145.198-.362h.422q-.012.224-.155.427-.142.202-.38.323-.237.12-.502.12-.533 0-.85-.354-.313-.357-.313-.974v-.075q0-.381.14-.678.14-.296.4-.46.263-.164.62-.164.44 0 .729.263.291.262.31.682h-.421q-.02-.253-.193-.415-.171-.164-.425-.164-.34 0-.528.246-.185.244-.185.707v.084q0 .451.185.695.186.243.53.243zM150.447 62.985q-.102-.017-.22-.017-.439 0-.595.374v1.852h-.447v-2.609h.434l.007.301q.22-.35.623-.35.13 0 .197.035zM152.468 64.936q-.26.307-.765.307-.417 0-.637-.242-.217-.243-.219-.718v-1.698h.446v1.686q0 .593.482.593.512 0 .68-.381v-1.898h.447v2.61h-.425zM154.064 65.194h-.446v-2.609h.446zm-.482-3.301q0-.109.065-.183.067-.075.198-.075.13 0 .197.075.068.074.068.183 0 .108-.068.18-.067.073-.197.073t-.198-.072q-.065-.073-.065-.181zM156.297 64.502q0-.18-.137-.28-.135-.1-.475-.173-.338-.072-.538-.174-.198-.101-.294-.241-.095-.14-.095-.333 0-.32.27-.542.273-.222.695-.222.444 0 .719.229.277.229.277.586h-.448q0-.183-.157-.316-.155-.133-.39-.133-.244 0-.382.106-.137.107-.137.278 0 .161.127.243.128.082.461.157.335.075.543.179.207.103.306.25.101.145.101.355 0 .35-.28.562-.28.21-.725.21-.314 0-.555-.111-.241-.111-.379-.31-.135-.2-.135-.43h.446q.013.224.179.356.169.13.444.13.253 0 .405-.1.154-.105.154-.276zM158.407 65.243q-.53 0-.863-.348-.333-.35-.333-.933v-.082q0-.388.147-.692.15-.306.415-.478.268-.173.579-.173.509 0 .79.335.283.335.283.96v.185h-1.768q.01.386.225.625.217.236.55.236.236 0 .4-.096.164-.097.287-.256l.272.212q-.328.505-.984.505zm-.055-2.34q-.27 0-.454.198-.183.195-.226.55h1.307v-.034q-.02-.34-.184-.526-.164-.188-.443-.188zM161.46 64.502q0-.18-.137-.28-.135-.1-.475-.173-.338-.072-.538-.174-.198-.101-.294-.241-.094-.14-.094-.333 0-.32.27-.542.272-.222.694-.222.444 0 .719.229.277.229.277.586h-.448q0-.183-.157-.316-.154-.133-.39-.133-.244 0-.382.106-.137.107-.137.278 0 .161.128.243.127.082.46.157.335.075.543.179.207.103.306.25.101.145.101.355 0 .35-.28.562-.28.21-.725.21-.314 0-.555-.111-.241-.111-.379-.31-.135-.2-.135-.43h.447q.012.224.178.356.169.13.444.13.253 0 .405-.1.154-.105.154-.276zM162.934 62.9q.296-.363.771-.363.828 0 .835.933v1.724h-.446v-1.726q-.002-.283-.13-.418-.126-.135-.394-.135-.217 0-.38.116-.165.116-.256.304v1.86h-.446V61.49h.446zM165.693 65.194h-.447v-2.609h.447zm-.483-3.301q0-.109.065-.183.068-.075.198-.075t.198.075q.067.074.067.183 0 .108-.067.18-.068.073-.198.073t-.198-.072q-.065-.073-.065-.181zM168.61 63.919q0 .595-.272.96-.272.364-.738.364-.475 0-.747-.302v1.257h-.447v-3.613h.408l.022.29q.272-.338.757-.338.47 0 .743.354.275.355.275.987zm-.446-.051q0-.441-.188-.697-.188-.256-.516-.256-.405 0-.607.36v1.247q.2.356.612.356.32 0 .509-.253.19-.255.19-.757zM169.187 64.96q0-.115.067-.193.07-.077.208-.077.137 0 .207.077.073.078.073.193 0 .111-.073.186-.07.075-.207.075-.138 0-.208-.075-.067-.075-.067-.186zM170.359 63.866q0-.384.15-.69.151-.306.42-.473.27-.166.614-.166.533 0 .861.369.33.369.33.981v.032q0 .38-.147.685-.144.301-.417.47-.27.169-.622.169-.53 0-.861-.37-.328-.368-.328-.976zm.449.053q0 .434.2.697.202.262.54.262.34 0 .54-.265.2-.268.2-.747 0-.43-.205-.695-.202-.268-.54-.268-.33 0-.533.263-.202.263-.202.753zM174.555 62.985q-.101-.017-.22-.017-.438 0-.595.374v1.852h-.446v-2.609h.434l.007.301q.22-.35.622-.35.13 0 .198.035zM174.813 63.868q0-.61.282-.97.282-.361.748-.361.477 0 .745.337l.022-.289h.407v2.547q0 .506-.301.798-.3.292-.806.292-.282 0-.552-.12-.27-.122-.412-.331l.231-.268q.287.355.702.355.326 0 .507-.184.183-.183.183-.516v-.224q-.268.309-.73.309-.46 0-.744-.37-.282-.368-.282-1.005zm.449.05q0 .442.18.695.181.25.507.25.422 0 .62-.383v-1.19q-.205-.375-.615-.375-.326 0-.509.254-.183.253-.183.75zM136.079 69.745h-1.522v1.244h1.767v.379h-2.23v-3.511h2.206v.38h-1.743v1.13h1.522zM137.706 69.711l.58-.952h.52l-.854 1.29.88 1.319h-.516l-.602-.977-.603.977h-.519l.88-1.32-.853-1.29h.516zM139.725 69.075q.296-.365.772-.365.827 0 .834.934v1.724h-.446V69.64q-.002-.282-.13-.417-.126-.135-.394-.135-.217 0-.38.116-.165.116-.256.304v1.859h-.446v-3.704h.446zM142.484 71.368h-.446v-2.61h.446zM142 68.067q0-.109.065-.184.068-.075.198-.075t.198.075q.067.075.067.184 0 .108-.067.18-.068.073-.198.073t-.198-.073q-.065-.072-.065-.18zM145.406 70.092q0 .598-.274.962-.275.362-.738.362-.495 0-.765-.35l-.022.302h-.41v-3.704h.447v1.382q.27-.336.745-.336t.745.36q.272.359.272.984zm-.446-.05q0-.456-.176-.705-.176-.248-.506-.248-.441 0-.634.41v1.129q.205.41.639.41.32 0 .499-.249.178-.248.178-.747zM146.453 71.368h-.446v-2.61h.446zm-.482-3.301q0-.109.065-.184.067-.075.198-.075.13 0 .197.075.068.075.068.184 0 .108-.068.18-.067.073-.197.073t-.198-.073q-.065-.072-.065-.18zM147.772 68.127v.632h.487v.344h-.487v1.619q0 .156.065.236.065.077.222.077.077 0 .212-.029v.362q-.176.048-.342.048-.3 0-.451-.18-.152-.182-.152-.514v-1.618h-.475v-.345h.475v-.632zM151.05 71.052q.238 0 .417-.145.178-.144.197-.361h.423q-.013.224-.155.426-.142.203-.38.324-.237.12-.502.12-.533 0-.85-.354-.313-.357-.313-.975v-.074q0-.381.14-.678.14-.297.4-.46.263-.165.62-.165.439 0 .728.263.292.263.312.683h-.423q-.019-.254-.192-.415-.172-.164-.425-.164-.34 0-.528.246-.186.243-.186.706v.085q0 .45.186.694.186.244.53.244zM152.47 70.04q0-.384.15-.69.151-.307.42-.473.27-.167.614-.167.533 0 .861.37.33.368.33.98v.032q0 .381-.147.685-.144.302-.417.47-.27.17-.622.17-.53 0-.861-.37-.328-.369-.328-.976zm.449.052q0 .434.2.697.202.263.54.263.34 0 .54-.265.2-.268.2-.748 0-.429-.205-.694-.202-.268-.54-.268-.33 0-.533.263-.202.263-.202.752zM155.827 68.759l.014.328q.3-.377.782-.377.827 0 .834.934v1.724h-.446V69.64q-.002-.282-.13-.417-.126-.135-.393-.135-.217 0-.381.116t-.256.304v1.859h-.446v-2.61zM159.65 70.676q0-.181-.138-.28-.135-.101-.475-.174-.338-.072-.538-.173-.198-.101-.294-.241-.094-.14-.094-.333 0-.32.27-.543.272-.222.694-.222.444 0 .719.23.277.229.277.586h-.448q0-.184-.157-.316-.154-.133-.39-.133-.244 0-.382.106-.137.106-.137.277 0 .162.128.244.127.082.46.157.335.074.543.178.207.104.306.251.101.145.101.354 0 .35-.28.562-.28.21-.725.21-.314 0-.555-.11-.241-.112-.379-.31-.135-.2-.135-.431h.446q.013.224.179.357.169.13.444.13.253 0 .405-.101.154-.104.154-.275zM161.282 68.127v.632h.487v.344h-.487v1.619q0 .156.065.236.065.077.222.077.077 0 .212-.029v.362q-.176.048-.342.048-.3 0-.451-.18-.152-.182-.152-.514v-1.618h-.475v-.345h.475v-.632zM163.551 69.159q-.101-.017-.22-.017-.438 0-.595.374v1.852h-.446v-2.61h.434l.007.302q.22-.35.622-.35.13 0 .198.034zM165.572 71.11q-.26.306-.764.306-.418 0-.637-.241-.217-.244-.22-.719V68.76h.447v1.685q0 .594.482.594.511 0 .68-.381v-1.898h.446v2.609h-.424zM167.73 71.052q.24 0 .418-.145.178-.144.197-.361h.422q-.012.224-.154.426-.142.203-.381.324-.236.12-.502.12-.533 0-.848-.354-.314-.357-.314-.975v-.074q0-.381.14-.678.14-.297.4-.46.263-.165.62-.165.439 0 .728.263.292.263.311.683h-.422q-.019-.254-.193-.415-.17-.164-.424-.164-.34 0-.528.246-.186.243-.186.706v.085q0 .45.186.694.186.244.53.244zM169.874 68.127v.632h.487v.344h-.487v1.619q0 .156.065.236.065.077.222.077.077 0 .212-.029v.362q-.176.048-.342.048-.299 0-.45-.18-.153-.182-.153-.514v-1.618h-.475v-.345h.475v-.632zM171.965 71.416q-.53 0-.863-.347-.333-.35-.333-.933v-.082q0-.389.147-.692.15-.307.415-.478.268-.174.579-.174.508 0 .79.336.283.335.283.96v.185h-1.768q.01.386.224.625.217.236.55.236.237 0 .4-.096.165-.097.288-.256l.272.212q-.328.504-.984.504zm-.055-2.339q-.27 0-.454.198-.183.195-.226.55h1.307v-.034q-.02-.34-.184-.526-.164-.188-.443-.188zM173.39 70.042q0-.6.285-.965.284-.367.745-.367.458 0 .726.314v-1.36h.446v3.704h-.41l-.022-.28q-.267.328-.745.328-.453 0-.74-.371-.285-.372-.285-.97zm.446.05q0 .444.184.695.183.25.506.25.425 0 .62-.38v-1.199q-.2-.369-.615-.369-.328 0-.511.253-.184.253-.184.75zM179.716 70.092q0 .598-.275.962-.275.362-.738.362-.494 0-.764-.35l-.022.302h-.41v-3.704h.446v1.382q.27-.336.745-.336t.745.36q.273.359.273.984zm-.446-.05q0-.456-.176-.705-.176-.248-.507-.248-.441 0-.634.41v1.129q.205.41.64.41.32 0 .498-.249.179-.248.179-.747zM181.105 70.714l.608-1.955h.477l-1.049 3.012q-.243.65-.774.65l-.084-.006-.167-.032v-.361l.12.01q.227 0 .353-.092.128-.092.21-.335l.099-.265-.931-2.58h.487zM135.382 76.121h-.825v1.42h-.466v-3.51h1.163q.593 0 .911.27.321.27.321.786 0 .328-.178.571-.176.244-.492.364l.824 1.49v.03h-.496zm-.825-.378h.711q.345 0 .548-.179.205-.178.205-.477 0-.326-.196-.5-.193-.173-.56-.176h-.708zM137.55 77.542h-.447v-2.61h.447zm-.483-3.302q0-.108.065-.183.068-.075.198-.075t.198.075q.067.075.067.183 0 .109-.067.181-.068.072-.198.072t-.198-.072q-.065-.072-.065-.18zM139.31 77.226q.239 0 .417-.145.179-.145.198-.362h.422q-.012.225-.154.427-.143.203-.381.323-.237.12-.502.12-.533 0-.849-.354-.313-.357-.313-.974v-.075q0-.38.14-.677.14-.297.4-.461.263-.164.62-.164.439 0 .728.263.292.263.311.682h-.422q-.02-.253-.193-.414-.171-.164-.424-.164-.34 0-.529.246-.185.243-.185.706v.085q0 .45.185.694.186.244.531.244zM141.295 75.248q.296-.364.771-.364.828 0 .835.933v1.725h-.446v-1.727q-.002-.282-.13-.417-.126-.135-.394-.135-.217 0-.38.115-.165.116-.256.304v1.86h-.446v-3.705h.446zM145.18 77.542q-.039-.078-.063-.275-.311.323-.743.323-.386 0-.634-.217-.246-.22-.246-.555 0-.407.309-.632.31-.226.873-.226h.434v-.205q0-.234-.14-.372-.14-.14-.412-.14-.24 0-.4.12-.162.122-.162.293h-.449q0-.196.138-.376.14-.184.376-.29.239-.106.523-.106.451 0 .707.227.255.224.265.62v1.2q0 .36.092.572v.039zm-.74-.34q.21 0 .397-.109.188-.108.273-.282v-.535h-.35q-.82 0-.82.48 0 .21.14.327.14.119.36.119zM147.517 75.333q-.102-.017-.22-.017-.439 0-.596.373v1.853h-.446v-2.61h.434l.007.302q.22-.35.623-.35.13 0 .197.034zM147.772 76.215q0-.6.285-.964.284-.367.745-.367.458 0 .726.314v-1.36h.446v3.704h-.41l-.022-.28q-.267.328-.745.328-.453 0-.74-.372-.285-.371-.285-.969zm.446.05q0 .445.184.695.183.251.506.251.425 0 .62-.38v-1.2q-.2-.368-.615-.368-.328 0-.511.253-.184.253-.184.75zM151.959 77.542V74.03h1.148q.571 0 .858.237.29.236.29.699 0 .246-.14.437-.14.188-.381.291.284.08.448.304.167.222.167.53 0 .473-.307.743-.306.27-.865.27zm.463-1.643v1.264h.764q.323 0 .509-.166.188-.17.188-.463 0-.635-.69-.635zm0-.371h.7q.303 0 .484-.152.183-.152.183-.412 0-.29-.169-.42-.169-.133-.513-.133h-.685zM156.574 77.284q-.26.306-.764.306-.417 0-.637-.241-.217-.244-.22-.719v-1.698h.447v1.686q0 .593.482.593.512 0 .68-.38v-1.899h.447v2.61h-.425zM158.947 75.333q-.1-.017-.219-.017-.439 0-.596.373v1.853h-.446v-2.61h.434l.007.302q.22-.35.622-.35.13 0 .198.034zM159.203 76.215q0-.6.285-.964.284-.367.745-.367.458 0 .726.314v-1.36h.446v3.704h-.41l-.022-.28q-.268.328-.745.328-.453 0-.74-.372-.285-.371-.285-.969zm.446.05q0 .445.183.695.184.251.507.251.424 0 .62-.38v-1.2q-.2-.368-.615-.368-.328 0-.512.253-.183.253-.183.75zM165.574 77.542h-2.3v-.321l1.215-1.35q.27-.307.372-.497.103-.193.103-.398 0-.275-.166-.451t-.444-.176q-.333 0-.518.19-.184.188-.184.526h-.446q0-.485.311-.784.314-.299.837-.299.49 0 .774.258.285.256.285.683 0 .518-.66 1.234l-.941 1.02h1.762zM167.021 76.232h-1.176v-.364h1.176zM168.876 77.542h-.449v-2.974l-.9.33v-.405l1.279-.48h.07zM171.157 76.232h-1.177v-.364h1.177zM173.846 77.542h-2.3v-.321l1.215-1.35q.27-.307.371-.497.104-.193.104-.398 0-.275-.166-.451-.167-.176-.444-.176-.333 0-.519.19-.183.188-.183.526h-.446q0-.485.311-.784.314-.299.837-.299.49 0 .774.258.285.256.285.683 0 .518-.661 1.234l-.94 1.02h1.762zM176.52 76.044q0 .784-.267 1.165-.268.38-.837.38-.562 0-.832-.37-.27-.374-.28-1.115v-.595q0-.774.268-1.15.268-.377.84-.377.566 0 .834.364.267.362.275 1.12zm-.446-.61q0-.567-.159-.825-.159-.26-.504-.26-.342 0-.499.258-.157.258-.162.793v.714q0 .57.164.842.167.27.502.27.33 0 .49-.256.161-.256.168-.805zM179.393 77.542h-2.3v-.321l1.215-1.35q.27-.307.37-.497.105-.193.105-.398 0-.275-.167-.451-.166-.176-.444-.176-.332 0-.518.19-.183.188-.183.526h-.446q0-.485.31-.784.314-.299.837-.299.49 0 .775.258.284.256.284.683 0 .518-.66 1.234l-.941 1.02h1.763zM180.514 75.569h.335q.316-.005.497-.166.181-.162.181-.437 0-.617-.615-.617-.29 0-.463.166-.171.164-.171.437h-.446q0-.418.304-.693.306-.277.776-.277.497 0 .779.263.282.263.282.73 0 .23-.15.444-.146.215-.402.321.29.092.446.304.16.212.16.518 0 .473-.31.75-.308.278-.803.278-.494 0-.805-.268-.309-.268-.309-.706h.449q0 .277.18.443.182.167.485.167.324 0 .495-.17.171-.168.171-.484 0-.306-.188-.47-.188-.164-.543-.169h-.335z"/></g><g aria-label="Total Benefits" style="font-weight:700;font-size:5.64445px;line-height:1.25;font-family:Roboto;-inkscape-font-specification:'Roboto, Bold';stroke-width:.264582"><path d="M5.102 15.124H3.873v3.343h-.827v-3.343H1.833v-.67h3.27zM4.824 16.948q0-.443.17-.79.172-.348.491-.538.323-.19.747-.19.604 0 .984.369.383.37.427 1.003l.006.204q0 .686-.383 1.103-.383.413-1.028.413t-1.031-.413q-.383-.414-.383-1.125zm.796.058q0 .425.16.65.16.224.458.224.29 0 .452-.22.162-.224.162-.712 0-.416-.162-.645-.163-.228-.458-.228-.292 0-.452.228-.16.226-.16.703zM9.093 14.752v.733h.51v.584h-.51v1.488q0 .166.063.237.064.072.243.072.132 0 .234-.02v.604q-.234.072-.482.072-.838 0-.855-.846v-1.607h-.435v-.584h.435v-.733zM11.775 18.467q-.055-.108-.08-.267-.29.322-.753.322-.438 0-.727-.254-.287-.253-.287-.639 0-.474.35-.728.353-.253 1.017-.256h.367v-.17q0-.207-.108-.331-.105-.124-.333-.124-.202 0-.317.096-.113.096-.113.265h-.797q0-.26.16-.48.16-.22.452-.345.292-.126.656-.126.551 0 .874.278.325.276.325.777v1.293q.003.424.118.642v.047zm-.659-.554q.176 0 .325-.077.149-.08.22-.212v-.513h-.297q-.598 0-.637.413l-.002.047q0 .149.104.245.105.097.287.097zM13.913 18.467h-.799v-4.233h.8zM16.027 18.467v-4.013h1.406q.73 0 1.108.281.377.279.377.819 0 .295-.151.52-.152.224-.422.329.309.077.485.311.18.234.18.573 0 .58-.37.877-.37.297-1.053.303zm.827-1.747v1.083h.708q.293 0 .455-.138.166-.14.166-.386 0-.551-.571-.56zm0-.585h.612q.626-.01.626-.499 0-.272-.16-.39-.157-.122-.5-.122h-.578zM20.95 18.522q-.656 0-1.07-.402-.41-.403-.41-1.072v-.078q0-.449.173-.802.174-.355.49-.545.32-.193.728-.193.612 0 .962.386.353.385.353 1.094v.325h-1.899q.039.292.232.468.195.177.493.177.46 0 .72-.334l.39.439q-.178.253-.484.396-.306.141-.678.141zm-.091-2.447q-.237 0-.386.16-.146.16-.188.457h1.108v-.063q-.005-.265-.143-.408-.138-.146-.391-.146zM23.361 15.485l.025.344q.32-.4.857-.4.474 0 .706.28.231.277.237.831v1.927h-.797V16.56q0-.254-.11-.367-.11-.116-.367-.116-.336 0-.504.287v2.103h-.796v-2.982zM27.162 18.522q-.656 0-1.07-.402-.41-.403-.41-1.072v-.078q0-.449.173-.802.174-.355.491-.545.32-.193.728-.193.612 0 .962.386.352.385.352 1.094v.325H26.49q.039.292.232.468.196.177.493.177.46 0 .72-.334l.39.439q-.178.253-.484.396-.306.141-.678.141zm-.091-2.447q-.237 0-.386.16-.146.16-.187.457h1.108v-.063q-.006-.265-.144-.408-.138-.146-.391-.146zM29.033 18.467v-2.398h-.443v-.584h.443v-.138q.006-.562.345-.865.341-.306.962-.306.372 0 .904.162l-.116.659q-.27-.08-.42-.102-.148-.025-.319-.025-.557 0-.557.494v.12h.588v.585h-.588v2.398zm2.583 0h-.8v-2.982h.8zM33.228 14.752v.733h.51v.584h-.51v1.488q0 .166.063.237.064.072.243.072.132 0 .234-.02v.604q-.234.072-.482.072-.838 0-.855-.846v-1.607h-.435v-.584h.435v-.733zM35.797 17.643q0-.146-.146-.229-.144-.085-.463-.151-1.064-.224-1.064-.904 0-.397.328-.662.33-.267.862-.267.568 0 .907.267.342.267.342.695h-.797q0-.171-.11-.282-.11-.113-.344-.113-.202 0-.312.091-.11.091-.11.232 0 .132.124.215.127.08.424.14.298.058.502.133.631.231.631.802 0 .408-.35.661-.35.251-.904.251-.375 0-.667-.132-.29-.135-.455-.367-.165-.234-.165-.504h.755q.011.212.157.325.146.113.392.113.228 0 .344-.085.119-.089.119-.23z"/></g><g aria-label="Coral ES*" style="font-weight:700;font-size:5.64445px;line-height:1.25;font-family:Roboto;-inkscape-font-specification:'Roboto, Bold';stroke-width:.264582"><path d="M16.124 26.754q-.047.648-.48 1.02-.43.372-1.135.372-.772 0-1.216-.518-.44-.521-.44-1.428v-.245q0-.579.203-1.02.204-.44.582-.675.38-.237.882-.237.694 0 1.119.372.424.372.49 1.045h-.826q-.03-.39-.218-.563-.185-.176-.565-.176-.414 0-.62.298-.204.294-.21.917v.304q0 .65.196.95.198.3.623.3.383 0 .57-.173.19-.176.218-.543zM16.49 26.572q0-.443.171-.79.171-.348.49-.538.323-.19.748-.19.603 0 .984.369.383.37.427 1.003l.005.204q0 .686-.383 1.103-.383.413-1.028.413t-1.03-.413q-.384-.414-.384-1.125zm.797.058q0 .425.16.65.16.224.457.224.29 0 .452-.22.163-.224.163-.712 0-.416-.163-.645-.162-.228-.457-.228-.292 0-.452.228-.16.226-.16.703zM21.482 25.856q-.163-.022-.287-.022-.452 0-.593.306v1.95h-.796V25.11h.752l.022.355q.24-.41.665-.41.132 0 .248.036zM23.51 28.09q-.055-.107-.08-.266-.29.322-.752.322-.438 0-.728-.254-.286-.253-.286-.639 0-.474.35-.728.352-.253 1.017-.256h.366v-.17q0-.207-.107-.331-.105-.125-.334-.125-.201 0-.317.097-.113.096-.113.265h-.796q0-.26.16-.48.16-.22.452-.345.292-.126.656-.126.55 0 .873.278.325.276.325.777v1.293q.003.424.119.642v.047zm-.659-.553q.177 0 .326-.077.148-.08.22-.212v-.513H23.1q-.598 0-.636.413l-.003.047q0 .149.105.245.104.097.286.097zM25.649 28.09h-.8v-4.232h.8zM30.177 26.352H28.59v1.075h1.863v.664h-2.69v-4.013h2.684v.67H28.59v.956h1.587zM33.019 27.038q0-.234-.166-.358-.165-.127-.595-.265-.43-.14-.68-.275-.684-.37-.684-.995 0-.326.182-.58.184-.255.526-.399.345-.143.772-.143.43 0 .766.157.336.154.52.438.188.284.188.645h-.827q0-.275-.173-.427-.174-.154-.488-.154-.303 0-.471.13-.168.126-.168.335 0 .196.195.328.199.133.582.248.705.213 1.028.527.322.314.322.783 0 .52-.394.818-.394.295-1.061.295-.463 0-.843-.168-.38-.171-.582-.466-.198-.295-.198-.683h.83q0 .664.793.664.295 0 .46-.119.166-.121.166-.336zM34.99 25.44l-.866-.246.162-.499.858.345-.056-.962h.54l-.054.981.835-.339.162.505-.882.245.579.733-.438.311-.502-.804-.496.777-.438-.298z"/></g><g aria-label="Wetland ES*" style="font-weight:700;font-size:5.64445px;line-height:1.25;font-family:Roboto;-inkscape-font-specification:'Roboto, Bold';stroke-width:.264582"><path d="m8.81 36.987.54-2.856h.824l-.89 4.013H8.45l-.653-2.684-.653 2.684h-.833l-.89-4.013h.824l.543 2.85.662-2.85h.7zM11.855 38.2q-.656 0-1.07-.403-.41-.402-.41-1.072v-.077q0-.45.173-.802.174-.356.491-.546.32-.193.728-.193.611 0 .961.386.353.386.353 1.094v.325h-1.899q.039.293.232.469.195.176.493.176.46 0 .72-.333l.39.438q-.178.254-.484.397-.306.14-.678.14zm-.091-2.448q-.237 0-.386.16-.146.16-.187.457h1.108v-.063q-.006-.265-.144-.408-.138-.146-.391-.146zM14.487 34.43v.732h.51v.585h-.51v1.488q0 .165.063.237.064.072.243.072.132 0 .234-.02v.604q-.234.071-.482.071-.838 0-.855-.846v-1.606h-.435v-.585h.435v-.733zM16.281 38.144h-.8v-4.233h.8zM18.665 38.144q-.055-.107-.08-.267-.29.322-.752.322-.438 0-.728-.253-.287-.254-.287-.64 0-.474.35-.727.353-.254 1.017-.256h.367v-.171q0-.207-.107-.331-.105-.124-.334-.124-.201 0-.317.096-.113.097-.113.265h-.796q0-.26.16-.48.16-.22.451-.344.293-.127.656-.127.552 0 .874.279.325.275.325.777v1.292q.003.425.119.642v.047zm-.659-.554q.177 0 .326-.077.148-.08.22-.212v-.513h-.298q-.598 0-.636.414l-.003.047q0 .148.105.245.104.096.286.096zM20.696 35.162l.025.345q.32-.4.857-.4.474 0 .706.279.231.278.237.832v1.926h-.797v-1.907q0-.253-.11-.366-.11-.116-.367-.116-.336 0-.504.286v2.103h-.796v-2.982zM23 36.631q0-.697.312-1.11.314-.414.857-.414.435 0 .72.325v-1.521h.799v4.233h-.72l-.038-.317q-.298.372-.767.372-.526 0-.846-.413Q23 37.37 23 36.631zm.797.058q0 .42.146.642.146.224.424.224.37 0 .521-.312v-1.177q-.149-.311-.515-.311-.576 0-.576.934zM30.177 36.405H28.59v1.075h1.863v.664h-2.69v-4.013h2.684v.67H28.59v.957h1.587zM33.019 37.092q0-.235-.166-.359-.165-.127-.595-.264-.43-.14-.68-.276-.684-.37-.684-.995 0-.325.182-.579.184-.256.526-.4.345-.143.772-.143.43 0 .766.157.336.155.52.439.188.284.188.645h-.827q0-.276-.173-.428-.174-.154-.488-.154-.303 0-.471.13-.168.126-.168.336 0 .196.195.328.199.132.582.248.705.212 1.028.526.322.314.322.783 0 .52-.394.819-.394.294-1.06.294-.464 0-.844-.168-.38-.17-.582-.465-.198-.295-.198-.684h.83q0 .664.793.664.295 0 .46-.118.166-.121.166-.336zM34.99 35.493l-.866-.245.163-.5.857.345-.055-.962h.54l-.055.982.835-.34.162.505-.882.245.58.733-.44.312-.5-.805-.497.777-.438-.297z"/></g><g aria-label="Mangrove ES*" style="font-weight:700;font-size:5.64445px;line-height:1.25;font-family:Roboto;-inkscape-font-specification:'Roboto, Bold';stroke-width:.264582"><path d="m2.107 44.185 1.03 2.91 1.026-2.91h1.086v4.013h-.83V47.1l.083-1.894-1.083 2.99H2.85L1.77 45.21l.082 1.89v1.098h-.827v-4.013zM7.646 48.198q-.055-.108-.08-.268-.289.323-.752.323-.438 0-.728-.254-.286-.253-.286-.639 0-.474.35-.728.353-.253 1.017-.256h.366v-.17q0-.208-.107-.332-.105-.124-.334-.124-.2 0-.317.097-.113.096-.113.264h-.796q0-.259.16-.48.16-.22.452-.344.292-.126.656-.126.55 0 .873.278.326.276.326.777v1.293q.002.424.118.642v.047zm-.658-.554q.176 0 .325-.077.149-.08.22-.213v-.512h-.297q-.598 0-.637.413l-.003.047q0 .149.105.245.105.097.287.097zM9.678 45.216l.024.344q.32-.4.858-.4.474 0 .705.279.232.278.237.832v1.927h-.796V46.29q0-.254-.11-.367-.11-.116-.367-.116-.336 0-.505.287v2.103h-.796v-2.982zM11.99 46.685q0-.687.325-1.105.328-.42.882-.42.49 0 .764.337l.033-.281h.722v2.883q0 .391-.18.68-.176.29-.498.441-.323.152-.755.152-.328 0-.64-.132-.311-.13-.471-.337l.353-.485q.297.334.722.334.317 0 .493-.171.176-.168.176-.48v-.16q-.275.312-.724.312-.538 0-.871-.419-.331-.422-.331-1.116zm.796.058q0 .405.163.636.163.229.447.229.363 0 .52-.273v-1.254q-.16-.273-.515-.273-.287 0-.452.235-.163.234-.163.7zM17.003 45.963q-.162-.022-.286-.022-.452 0-.593.306v1.95h-.796v-2.981h.752l.022.355q.24-.41.664-.41.133 0 .248.035zM17.163 46.68q0-.445.171-.792.17-.347.49-.537.323-.19.747-.19.604 0 .984.369.383.37.428 1.003l.005.204q0 .686-.383 1.103-.383.413-1.028.413t-1.03-.413q-.384-.414-.384-1.125zm.797.057q0 .425.16.65.16.224.457.224.29 0 .452-.22.163-.224.163-.712 0-.416-.163-.645-.163-.228-.458-.228-.292 0-.452.228-.16.226-.16.703zM21.554 47.225l.553-2.01h.833l-1.006 2.983h-.76l-1.007-2.982H21zM24.627 48.253q-.656 0-1.07-.402-.41-.403-.41-1.073v-.077q0-.449.173-.802.174-.355.49-.545.32-.193.728-.193.612 0 .962.385.353.386.353 1.095v.325h-1.899q.039.292.232.468.195.177.493.177.46 0 .72-.334l.39.439q-.179.253-.484.396-.306.14-.678.14zm-.091-2.447q-.237 0-.386.16-.146.16-.188.457h1.108v-.063q-.005-.265-.143-.408-.138-.146-.391-.146zM30.177 46.459H28.59v1.075h1.863v.664h-2.69v-4.013h2.684v.67H28.59v.956h1.587zM33.019 47.145q0-.234-.166-.358-.165-.127-.595-.265-.43-.14-.68-.275-.684-.37-.684-.995 0-.326.182-.58.184-.256.526-.399.345-.143.772-.143.43 0 .766.157.336.154.521.438.187.284.187.645h-.826q0-.276-.174-.427-.174-.154-.488-.154-.303 0-.471.13-.168.126-.168.335 0 .196.195.328.199.133.582.248.705.213 1.028.527.322.314.322.782 0 .521-.394.819-.394.295-1.06.295-.464 0-.844-.168-.38-.171-.582-.466-.198-.295-.198-.683h.83q0 .664.793.664.295 0 .46-.119.166-.121.166-.336zM34.99 45.546l-.866-.245.163-.499.857.345-.055-.962h.54l-.055.981.835-.339.162.504-.882.246.58.733-.439.311-.502-.804-.496.777-.438-.298z"/></g><g aria-label="Benefit Calculations" style="font-weight:700;font-size:7.76113px;line-height:1.25;font-family:'Open Sans';-inkscape-font-specification:'Open Sans, Bold';stroke-width:.264584"><path d="M80.613 3.556h1.724q1.107 0 1.675.31.569.311.569 1.092 0 .314-.102.568-.099.254-.288.417-.19.163-.463.212v.038q.277.057.5.197.224.137.357.402.136.261.136.697 0 .504-.246.864-.247.36-.705.553-.455.19-1.084.19h-2.073zm1.175 2.194h.682q.512 0 .709-.16.197-.162.197-.477 0-.318-.235-.455-.231-.14-.735-.14h-.618zm0 .932v1.444h.765q.531 0 .74-.205.208-.204.208-.55 0-.204-.091-.36-.091-.155-.307-.242-.212-.087-.587-.087zM87.484 4.78q.587 0 1.012.227.424.224.655.652.231.428.231 1.046v.56H86.65q.019.49.292.77.276.277.765.277.406 0 .743-.084.337-.083.694-.25v.894q-.315.156-.66.228-.34.072-.83.072-.636 0-1.129-.235-.489-.235-.77-.716-.276-.482-.276-1.213 0-.743.25-1.236.254-.496.705-.742.451-.25 1.05-.25zm.007.822q-.337 0-.56.216-.22.216-.254.678h1.622q-.004-.257-.095-.458-.087-.201-.266-.319-.174-.117-.447-.117zM92.729 4.78q.678 0 1.091.371.413.368.413 1.182v2.763h-1.156V6.621q0-.454-.167-.686-.162-.23-.515-.23-.53 0-.724.36-.193.36-.193 1.038v1.993h-1.156V4.859h.883l.156.542h.064q.136-.22.337-.356.205-.137.451-.201.25-.064.516-.064zM97.17 4.78q.587 0 1.012.227.424.224.655.652.232.428.232 1.046v.56h-2.733q.02.49.292.77.277.277.766.277.405 0 .742-.084.338-.083.694-.25v.894q-.315.156-.66.228-.34.072-.83.072-.636 0-1.129-.235-.489-.235-.77-.716-.276-.482-.276-1.213 0-.743.25-1.236.254-.496.705-.742.451-.25 1.05-.25zm.008.822q-.338 0-.561.216-.22.216-.254.678h1.622q-.004-.257-.095-.458-.087-.201-.265-.319-.175-.117-.447-.117zM102.35 5.727h-1v3.369h-1.156V5.727h-.637V5.17l.637-.31v-.312q0-.541.182-.84.186-.304.52-.425.336-.125.795-.125.337 0 .614.056.277.054.45.122l-.295.849q-.132-.042-.288-.076-.155-.034-.356-.034-.242 0-.356.148-.11.144-.11.37v.266h1zm1.82-.868v4.237h-1.156V4.859zm-.577-1.66q.258 0 .444.122.185.117.185.443 0 .322-.185.447-.186.121-.444.121-.261 0-.447-.12-.182-.126-.182-.448 0-.326.182-.443.186-.122.447-.122zM107.163 8.25q.19 0 .368-.037.182-.038.36-.095v.86q-.186.084-.463.137-.272.057-.598.057-.38 0-.682-.121-.3-.126-.474-.429-.17-.307-.17-.852V5.727h-.554v-.489l.637-.386.333-.895h.74v.902h1.185v.868h-1.186V7.77q0 .242.137.363.14.118.367.118zM113.208 4.454q-.338 0-.6.132-.257.13-.435.376-.174.246-.265.594-.091.35-.091.785 0 .587.144 1.004.148.413.455.633.307.216.792.216.337 0 .674-.076.341-.076.74-.216v.986q-.368.151-.725.216-.356.068-.8.068-.856 0-1.41-.353-.549-.356-.814-.993-.265-.64-.265-1.493 0-.629.17-1.152.171-.523.5-.905.33-.383.815-.592.486-.208 1.115-.208.413 0 .826.106.417.102.796.284l-.38.955q-.31-.148-.625-.257-.314-.11-.617-.11zM117.444 4.772q.853 0 1.308.371.455.372.455 1.13v2.823h-.808l-.223-.576h-.03q-.182.227-.372.371t-.436.213q-.246.068-.598.068-.376 0-.675-.144-.296-.144-.466-.44-.17-.3-.17-.758 0-.674.473-.993.474-.322 1.421-.356l.735-.023v-.185q0-.334-.174-.49-.174-.155-.485-.155-.307 0-.603.088-.295.087-.59.22l-.384-.781q.338-.178.755-.28.42-.103.867-.103zm.614 2.361-.447.015q-.56.015-.78.201-.217.186-.217.489 0 .265.156.379.155.11.405.11.372 0 .626-.22.257-.22.257-.625zM121.552 9.096h-1.155V3.199h1.155zM124.486 9.172q-.63 0-1.073-.228-.443-.23-.674-.712-.232-.481-.232-1.232 0-.777.262-1.265.265-.493.731-.724.47-.231 1.088-.231.44 0 .758.087.322.083.56.2l-.34.895q-.273-.11-.508-.178-.235-.072-.47-.072-.303 0-.504.144-.201.14-.3.424-.098.285-.098.713 0 .42.106.697.106.277.307.413.2.133.489.133.36 0 .64-.095.28-.099.546-.273v.99q-.265.166-.557.238-.288.076-.731.076zM130.644 4.86v4.236h-.887l-.156-.542h-.06q-.137.216-.341.352-.205.137-.451.201-.246.065-.512.065-.454 0-.792-.16-.337-.162-.527-.503-.185-.341-.185-.887V4.859h1.156v2.475q0 .455.163.686.163.23.519.23.352 0 .553-.158.2-.163.28-.474.084-.315.084-.765V4.859zM133.012 9.096h-1.156V3.199h1.156zM135.96 4.772q.853 0 1.308.371.455.372.455 1.13v2.823h-.808l-.223-.576h-.03q-.182.227-.372.371t-.436.213q-.246.068-.598.068-.376 0-.675-.144-.296-.144-.466-.44-.17-.3-.17-.758 0-.674.473-.993.474-.322 1.421-.356l.735-.023v-.185q0-.334-.174-.49-.174-.155-.485-.155-.307 0-.603.088-.295.087-.59.22l-.383-.781q.337-.178.754-.28.42-.103.867-.103zm.614 2.361-.447.015q-.56.015-.78.201-.216.186-.216.489 0 .265.155.379.155.11.405.11.372 0 .626-.22.257-.22.257-.625zM140.697 8.25q.19 0 .368-.037.182-.038.36-.095v.86q-.186.084-.462.137-.273.057-.599.057-.379 0-.682-.121-.3-.126-.474-.429-.17-.307-.17-.852V5.727h-.554v-.489l.637-.386.333-.895h.74v.902h1.186v.868h-1.187V7.77q0 .242.137.363.14.118.367.118zM143.437 4.86v4.236h-1.155V4.859zm-.576-1.66q.258 0 .444.12.185.118.185.444 0 .322-.185.447-.186.121-.444.121-.261 0-.447-.12-.182-.126-.182-.448 0-.326.182-.443.186-.122.447-.122zM148.5 6.97q0 .53-.144.94-.14.41-.413.693-.269.28-.652.425-.379.144-.856.144-.447 0-.822-.144-.372-.144-.648-.425-.273-.284-.425-.693-.148-.41-.148-.94 0-.705.25-1.194t.713-.742q.462-.254 1.103-.254.595 0 1.053.254.463.253.724.742.265.49.265 1.194zm-2.93 0q0 .417.092.701.09.284.284.428.193.144.504.144.307 0 .497-.144.193-.144.28-.428.09-.284.09-.701 0-.42-.09-.697-.087-.28-.28-.42-.194-.141-.504-.141-.459 0-.667.314-.205.315-.205.944zM151.862 4.78q.678 0 1.091.371.413.368.413 1.182v2.763h-1.156V6.621q0-.454-.166-.686-.163-.23-.516-.23-.53 0-.724.36-.193.36-.193 1.038v1.993h-1.156V4.859h.883l.156.542h.064q.136-.22.337-.356.205-.137.451-.201.25-.064.516-.064zM157.512 7.838q0 .432-.205.731-.2.296-.602.451-.402.152-1 .152-.444 0-.762-.057-.315-.057-.637-.19V7.97q.345.156.739.258.398.099.697.099.338 0 .482-.099.147-.102.147-.265 0-.106-.06-.19-.057-.087-.25-.193-.194-.11-.607-.284-.398-.167-.655-.337-.254-.17-.38-.402-.12-.235-.12-.595 0-.587.454-.883.459-.3 1.224-.3.394 0 .75.08.36.08.74.254l-.35.834q-.314-.137-.594-.224-.277-.087-.565-.087-.254 0-.382.068-.13.068-.13.209 0 .102.065.182.068.08.258.178.193.094.564.246.36.148.626.31.265.16.409.399.144.235.144.61z"/></g><g aria-label="$574" style="font-weight:700;font-size:4.40973px;line-height:1.25;font-family:Roboto;-inkscape-font-specification:'Roboto, Bold';stroke-width:.264582"><path d="M127.656 37.375q0-.177-.1-.28-.096-.106-.33-.194-.235-.088-.405-.174-.17-.089-.293-.2-.12-.115-.19-.268-.066-.152-.066-.363 0-.364.232-.597.233-.232.618-.271v-.46h.345v.466q.38.054.596.319.215.263.215.683h-.622q0-.259-.108-.386-.105-.13-.284-.13-.176 0-.273.102-.097.1-.097.276 0 .163.095.262.094.1.35.203.259.103.425.196.165.09.28.206.114.115.174.263.06.147.06.343 0 .366-.228.594-.228.228-.629.269v.428h-.342v-.426q-.441-.047-.685-.312-.24-.267-.24-.709h.621q0 .257.12.395.124.135.352.135.19 0 .3-.099.109-.101.109-.271zM128.79 36.658l.182-1.594h1.757v.52h-1.247l-.078.673q.222-.118.472-.118.448 0 .702.278.254.277.254.777 0 .304-.13.545-.126.239-.365.372-.24.132-.564.132-.285 0-.528-.115-.243-.116-.385-.325-.14-.209-.149-.476h.616q.02.196.136.306.118.108.307.108.211 0 .326-.15.114-.154.114-.432 0-.267-.132-.409-.131-.142-.372-.142-.222 0-.36.117l-.06.056zM133.36 35.413l-1.213 2.786h-.656l1.214-2.63h-1.559v-.505h2.214zM135.6 37.02h.354v.501h-.355v.678h-.622v-.678h-1.286l-.028-.392 1.307-2.065h.63zm-1.317 0h.694v-1.107l-.041.07z"/></g><g aria-label="$121 Billion USD annually" style="font-weight:700;font-size:4.40973px;line-height:1.25;font-family:Roboto;-inkscape-font-specification:'Roboto, Bold';stroke-width:.264582"><path d="M64.102 47.428q0-.176-.099-.28-.097-.105-.332-.193-.234-.089-.404-.175-.17-.088-.293-.2-.12-.114-.19-.267-.066-.153-.066-.364 0-.364.232-.596.233-.233.618-.272v-.46h.345v.467q.38.054.596.318.215.263.215.683h-.622q0-.258-.108-.385-.105-.13-.284-.13-.176 0-.273.102-.097.099-.097.275 0 .164.095.263.094.099.35.202.259.104.425.196.166.09.28.207.114.114.174.263.06.146.06.342 0 .366-.228.594-.228.228-.629.27v.428h-.342v-.426q-.441-.048-.685-.313-.24-.267-.24-.708h.621q0 .256.121.394.123.136.351.136.19 0 .3-.1.11-.1.11-.27zM66.656 48.253h-.622v-2.399l-.743.23v-.505l1.298-.465h.067zM69.823 48.253h-2.149v-.426l1.014-1.081q.21-.229.308-.399.102-.17.102-.323 0-.208-.106-.327-.105-.12-.301-.12-.211 0-.334.146-.12.144-.12.381h-.625q0-.286.135-.523.138-.237.388-.37.25-.136.566-.136.485 0 .752.232.269.233.269.657 0 .233-.12.474-.121.241-.414.562l-.713.751h1.348zM71.716 48.253h-.622v-2.399l-.743.23v-.505l1.298-.465h.067zM73.9 48.253v-3.135h1.097q.57 0 .866.22.295.217.295.639 0 .23-.119.407-.118.174-.329.256.241.06.379.244.14.183.14.447 0 .453-.289.685-.288.233-.822.237zm.645-1.365v.846h.553q.229 0 .356-.108.129-.11.129-.301 0-.43-.446-.437zm0-.457h.478q.489-.008.489-.39 0-.213-.125-.305-.123-.095-.39-.095h-.452zM77.33 48.253h-.625v-2.33h.624zm-.662-2.933q0-.14.093-.23.094-.09.256-.09.16 0 .254.09.095.09.095.23 0 .142-.097.233-.095.09-.252.09t-.254-.09q-.095-.09-.095-.233zM78.498 48.253h-.624v-3.307h.624zM79.668 48.253h-.625v-3.307h.625zM80.837 48.253h-.625v-2.33h.625zm-.661-2.933q0-.14.092-.23.095-.09.257-.09.159 0 .254.09.094.09.094.23 0 .142-.097.233-.094.09-.251.09-.158 0-.255-.09-.094-.09-.094-.233zM81.252 47.067q0-.347.134-.618.133-.272.383-.42.252-.149.584-.149.471 0 .768.289.3.288.334.783l.004.16q0 .536-.299.861-.3.323-.803.323-.504 0-.805-.323-.3-.323-.3-.878zm.623.045q0 .331.124.508.125.174.358.174.226 0 .353-.172.127-.174.127-.555 0-.326-.127-.504-.127-.179-.357-.179-.229 0-.354.179-.124.176-.124.549zM84.415 45.923l.02.27q.25-.313.67-.313.37 0 .55.218.181.217.186.65v1.505h-.623v-1.49q0-.198-.086-.286-.086-.09-.286-.09-.263 0-.394.223v1.643h-.622v-2.33zM89.824 45.118v2.065q0 .514-.323.814-.32.299-.878.299-.55 0-.872-.29-.323-.291-.33-.8v-2.088h.646v2.07q0 .307.147.45.148.14.409.14.544 0 .553-.574v-2.086zM91.98 47.43q0-.183-.13-.28-.129-.099-.465-.206-.336-.11-.532-.216-.534-.288-.534-.777 0-.254.142-.452.145-.2.412-.312.269-.112.603-.112.336 0 .598.123.263.12.407.342.147.222.147.504h-.646q0-.216-.136-.334-.136-.12-.381-.12-.237 0-.368.1-.132.1-.132.263 0 .153.153.257.155.103.455.193.55.166.803.412.252.245.252.611 0 .407-.308.64-.308.23-.83.23-.361 0-.658-.131-.297-.134-.455-.364-.155-.23-.155-.534h.649q0 .519.62.519.23 0 .36-.093.128-.095.128-.263zM93.065 48.253v-3.135h.964q.414 0 .739.187.327.185.51.53.183.342.183.78v.144q0 .437-.18.777t-.507.527q-.327.188-.738.19zm.646-2.612v2.093h.312q.379 0 .579-.248.2-.247.205-.708v-.166q0-.478-.198-.723-.199-.248-.58-.248zM98.338 48.253q-.043-.084-.063-.209-.226.252-.587.252-.343 0-.569-.198-.224-.198-.224-.5 0-.37.274-.568.275-.198.794-.2h.287v-.134q0-.161-.084-.258-.082-.097-.261-.097-.157 0-.248.075-.088.076-.088.207h-.622q0-.202.125-.375.125-.172.353-.269.228-.099.512-.099.431 0 .683.218.254.215.254.607v1.01q.002.331.093.501v.037zm-.515-.433q.138 0 .254-.06.117-.063.173-.166v-.4h-.233q-.467 0-.497.323l-.003.036q0 .116.082.192.082.075.224.075zM99.925 45.923l.02.27q.249-.313.669-.313.37 0 .551.218.18.217.185.65v1.505h-.622v-1.49q0-.198-.086-.286-.086-.09-.287-.09-.262 0-.394.223v1.643h-.622v-2.33zM102.394 45.923l.02.27q.25-.313.67-.313.37 0 .55.218.182.217.186.65v1.505h-.622v-1.49q0-.198-.086-.286-.087-.09-.287-.09-.263 0-.394.223v1.643h-.622v-2.33zM105.687 48.016q-.23.28-.638.28-.374 0-.572-.215-.196-.216-.2-.631v-1.527h.622v1.505q0 .364.331.364.317 0 .435-.22v-1.649h.625v2.33h-.586zM108.109 48.253q-.043-.084-.062-.209-.226.252-.588.252-.343 0-.569-.198-.224-.198-.224-.5 0-.37.274-.568.275-.198.794-.2h.287v-.134q0-.161-.084-.258-.082-.097-.26-.097-.158 0-.248.075-.089.076-.089.207h-.622q0-.202.125-.375.125-.172.353-.269.228-.099.513-.099.43 0 .682.218.254.215.254.607v1.01q.002.331.093.501v.037zm-.515-.433q.138 0 .254-.06.117-.063.173-.166v-.4h-.233q-.467 0-.497.323l-.002.036q0 .116.082.192.081.075.224.075zM109.78 48.253h-.625v-3.307h.625zM110.949 48.253h-.624v-3.307h.624zM112.331 47.372l.431-1.449h.668l-.937 2.692-.052.122q-.209.457-.689.457-.135 0-.275-.041v-.472l.094.003q.177 0 .263-.054.088-.054.138-.179l.073-.192-.816-2.336h.67z"/></g><path style="stroke-width:.562853;stroke-linecap:square" d="M42.657 15.446H220.85v2.646H42.657z"/><path style="stroke-width:.512146;stroke-linecap:square" d="M42.657 25.5h80.984v2.645H42.657z"/><path style="stroke-width:.510044;stroke-linecap:square" d="M42.657 35.553h80.321v2.646H42.657z"/><path style="stroke-width:.172656;stroke-linecap:square" d="M42.657 45.606h16.767v2.646H42.657z"/></svg>