<svg width="145mm" height="450.077" viewBox="0 0 145 119.083" xml:space="preserve" xmlns="http://www.w3.org/2000/svg"><defs><clipPath id="a"><path d="M43 43h720v153H43z"/></clipPath><clipPath id="b"><path d="M43 43h720v153H43z"/></clipPath><clipPath id="c"><path d="M150 114h370v72H150z"/></clipPath></defs><g style="fill:#fff;stroke-width:1.51612;stroke-dasharray:none"><path d="M32.788 128.4h10.536V101.94h57.573V128.4h10.537L72.11 150.82z" fill="#e7e6e6" style="fill:#fff;stroke:#000;stroke-width:1.51612;stroke-linecap:square;stroke-dasharray:none;stroke-opacity:1" transform="translate(13.843 -2.375) scale(.78531)" fill-rule="evenodd" stroke-miterlimit="8" color="#000"/></g><path d="M45.706 52.603c-.263-.03-.106-.15.565-.44.37-.157.778-.342.91-.411.221-.115.285-.125.84-.133.478-.007.624-.024.717-.086.148-.1.308-.104.27-.01-.023.057.03.069.324.069.425 0 .66.04.64.108-.01.028-.196.137-.415.242-.218.105-.594.298-.835.428l-.438.237-1.222.005a36.207 36.207 0 0 1-1.356-.01zm1.251-.168c.014-.013-.184-.023-.438-.023-.27 0-.463.019-.463.045 0 .044.853.024.901-.022zm1.346.004c-.04-.036-.74-.055-.882-.024-.087.02.063.034.38.037.286.003.513-.003.502-.013zm-1.024-.167c.037-.057-.748-.053-.84.003-.05.03.07.043.37.04.244 0 .455-.02.47-.043zm1.327-.005c.033-.02-.177-.036-.467-.036-.369 0-.505.014-.455.046.082.052.833.044.922-.01zm-.948-.18c.054-.047-.156-.05-.609-.01-.177.016-.323.047-.323.068 0 .049.871-.005.932-.058zm1.271.006c.05-.03-.084-.044-.419-.045-.296 0-.49.018-.49.045 0 .06.813.06.91 0zm-.91-.18c0-.05-.79-.04-.844.01-.019.019.164.033.405.033.246 0 .44-.02.44-.043zm1.27-.002c.018-.03-.136-.046-.429-.046-.273 0-.458.019-.458.046s.175.045.43.045c.234 0 .44-.02.456-.045zm-1.054-.137c.062-.025-.052-.038-.325-.036-.23 0-.43.02-.446.042-.032.05.644.046.77-.006zm1.041-.033a2.885 2.885 0 0 0-.407 0c-.112.01-.02.017.204.017.224 0 .315-.008.203-.017zm.156.83a2.707 2.707 0 0 0-.18-.042c-.167-.035-.166-.078.006-.174.108-.06.203-.071.448-.05.185.017.41.006.554-.027l.242-.055-.116-.163c-.144-.202-.15-.46-.016-.741l.097-.205-.108-.084a2.29 2.29 0 0 0-.86-.392c-.209-.05-.305-.09-.235-.096.112-.01.11-.011-.024-.04-.079-.017-.154-.018-.167-.003a.327.327 0 0 1-.108.058c-.142.05-.264.3-.299.615-.022.2-.047.278-.074.233-.055-.094.016-.555.106-.686a.492.492 0 0 0 .077-.148c.001-.022.031-.06.066-.082.043-.03.028-.033-.047-.013-.176.048-.78-.023-.74-.085.018-.03-.02-.02-.085.02-.144.09-.253.38-.215.572.016.08.08.218.145.308l.117.164h-.145c-.128 0-.157-.027-.259-.24-.099-.207-.108-.268-.069-.463.057-.283.14-.405.383-.558.19-.12.203-.12 1.04-.121.752 0 .884.01 1.152.1.557.184.732.34 1.134 1.003.18.297.231.427.231.58 0 .265-.09.35-.51.478-.189.058-.376.14-.415.184-.115.124-.887.23-1.126.154zm1.422-.567c.123-.032.233-.081.245-.11.011-.028-.058-.168-.153-.31-.317-.476-.532-.458-.57.046-.022.29.09.552.2.47.03-.021.154-.064.278-.096zm-.397-1.05c-.244-.2-1-.51-1-.412 0 .02.072.05.161.066.212.038.71.275.82.392.048.05.097.08.11.07.013-.013-.028-.065-.09-.116zm11.324 1.423c-.037-.022-.052-.172-.045-.443.011-.448-.04-2.254-.087-3.054-.016-.276-.05-1.055-.077-1.732a78.32 78.32 0 0 0-.073-1.573 65.1 65.1 0 0 0-.188-2.096 6.683 6.683 0 0 1-.05-.365 28.153 28.153 0 0 0-.625-3.327c-.324-1.215-.81-2.02-1.398-2.313-.404-.202-.726-.263-1.353-.257-2.543-.003-5.61 1.392-6.309 2.79-.486.976.425 2.33 1.25 3.348.673.788.77.906.79.95.032.084.107.035.08-.051-.019-.053-.01-.091.02-.091.027 0 .05-.031.05-.07 0-.037-.042-.067-.096-.067-.052 0-.095-.02-.095-.046 0-.066.107-.056.222.02.055.038.114.055.13.039.053-.05.033-.187-.03-.211-.032-.013.014-.012.103.003.126.02.157.012.14-.038-.012-.035-.069-.07-.126-.078-.122-.017-.133-.066-.033-.144.092-.073.307-.023.346.08.017.043.07.128.12.188.05.063.075.146.06.194-.02.063-.004.084.067.084.053 0 .11.022.128.049.05.078.413-.002.567-.125.125-.1.145-.104.22-.04.122.106.152.033.037-.093-.09-.098-.109-.103-.18-.041-.09.077-.19.09-.19.022 0-.025.017-.045.04-.045.021 0 .064-.052.094-.114.03-.063.09-.114.13-.114.086 0 .358-.266.358-.35 0-.03-.043-.067-.096-.083-.053-.016-.096-.058-.096-.093 0-.047-.038-.057-.143-.037-.112.02-.144.01-.144-.045 0-.076-.18-.194-.228-.148-.015.014-.024.099-.02.187.003.106-.025.186-.083.233-.07.058-.08.104-.05.23.028.118.02.163-.03.182-.116.042-.212-.023-.212-.142 0-.085-.032-.123-.12-.144-.13-.031-.247-.2-.263-.383-.018-.191-.005-.215.146-.274.122-.048.285-.243.285-.34 0-.027-.216-.004-.437.047-.093.02-.18-.005-.328-.1-.167-.103-.272-.13-.597-.151-.238-.015-.428-.051-.478-.09-.073-.058-.104-.055-.25.02-.144.073-.174.076-.21.02-.08-.118-.05-.155.255-.32.846-.458 1.716-.685 2.621-.684.745 0 1.37.117 2.106.393.397.15 1.255.723 1.6 1.07.317.32.73.88.926 1.252.49.93.673 2.369.443 3.446-.223 1.039-.678 1.836-1.48 2.595a4.908 4.908 0 0 1-1.8 1.084c-.963.323-2.217.368-3.185.113-.328-.086-.958-.33-.958-.371 0-.017.043-.056.095-.087.08-.048.153-.035.461.082.201.076.376.13.387.118.012-.011.001-.058-.024-.104-.089-.165-.153-.414-.182-.703a10.796 10.796 0 0 0-.05-.43c-.044-.282-.03-.74.03-1.04.06-.3.058-.313-.048-.42a.61.61 0 0 0-.21-.14c-.169-.048-.315-.208-.315-.343 0-.07-.043-.231-.096-.36-.116-.278-.122-.488-.02-.596.1-.104.048-.195-.076-.132a.432.432 0 0 1-.157.046c-.08 0-.274-.152-.274-.215 0-.024-.053-.067-.117-.095-.105-.045-.112-.066-.072-.2.042-.14.032-.158-.183-.338-.153-.13-.232-.17-.242-.127-.03.124-.1.06-.25-.232-.129-.247-.15-.333-.13-.523.013-.137.002-.233-.028-.243-.029-.01-.005-.076.055-.157a.57.57 0 0 0 .105-.19c0-.025.065-.117.144-.203a.823.823 0 0 0 .143-.185c0-.017.036-.106.08-.2.043-.093.084-.196.091-.23.025-.11.051-.1.225.084.106.112.146.182.104.182-.038 0-.069.017-.069.038 0 .02-.064.038-.143.038-.08 0-.15.009-.157.02-.007.01-.062.104-.12.21-.11.19-.11.19-.012.24.135.07.122.177-.028.23-.088.033-.146.03-.192-.005-.05-.041-.066-.036-.066.02 0 .042.027.076.06.076.04 0 .036.016-.012.046-.064.04-.064.05 0 .09.061.038.06.044-.012.045-.07 0-.082.039-.076.217.006.167.012.182.027.068.024-.182.084-.188.176-.02.04.07.104.157.146.189.06.047.063.074.02.124-.046.052-.02.1.128.245.102.1.208.18.235.18.028-.001-.003-.042-.07-.09-.11-.084-.112-.09-.02-.091.061 0 .1-.033.103-.092.004-.05-.013-.091-.037-.091-.025 0-.045-.034-.045-.074 0-.154.13.029.158.22.015.106.06.216.102.245.108.074.092.12-.028.085-.09-.027-.099-.017-.074.074.016.058.01.13-.016.158-.03.035-.01.07.064.107.06.03.13.1.155.155a.221.221 0 0 0 .142.117c.092.017.092.014.01-.073-.046-.05-.072-.121-.056-.16.015-.04.005-.084-.023-.1-.083-.05-.059-.13.03-.097.043.016.096.003.118-.03.06-.09.047-.14-.03-.11-.039.014-.083.006-.099-.018-.015-.024-.003-.043.028-.043.032 0 .043-.032.026-.074-.02-.051-.009-.066.04-.048a.075.075 0 0 0 .094-.04.11.11 0 0 1 .092-.066c.036 0 .105-.041.153-.092.084-.088.083-.09-.005-.09a.39.39 0 0 0-.184.07c-.126.09-.302.083-.352-.014-.078-.15-.016-.42.123-.541.088-.077.11-.122.07-.138-.069-.027-.08-.153-.015-.153.025 0 .06.04.075.092.032.095.096.119.14.05.015-.022-.005-.065-.044-.096-.039-.03-.058-.075-.043-.098.036-.056.163.043.163.126 0 .115.302.046.317-.072a.962.962 0 0 1 .012-.074c.003-.015.072.026.153.09.176.14.337.169.23.04-.062-.075-.059-.075.054-.005.068.042.113.109.105.153-.01.048.008.07.048.056.034-.011.057-.066.05-.121-.006-.055.01-.088.033-.074.025.014.058.005.075-.02.017-.026-.004-.047-.045-.047-.04 0-.074-.02-.074-.045 0-.025.021-.046.048-.046.026 0 .048-.02.048-.046 0-.027-.05-.034-.12-.018-.103.025-.116.016-.089-.056.018-.047.015-.07-.007-.051-.02.019-.065.013-.097-.012-.043-.034-.054-.016-.044.069.007.063-.008.126-.034.142-.052.03-1.447-1.31-1.913-1.856-2.215-2.591-1.124-3.906 1.537-5.33 1.053-.564 2.53-.97 4.23-1.27 1.848-.327 3.048-.392 3.537-.193.213.088.511.37.644.61.038.07.078.275.09.457.054.904.158 13.305.125 15.086-.005.26-.044.31-.18.227zm-5.572-1.428c.745-.137 1.032-.248 1.373-.53.797-.66 1.218-1.57 1.29-2.786l.032-.54-.167-.177a1.93 1.93 0 0 1-.22-.273c-.083-.152-.06-.485.042-.59a.379.379 0 0 0 .1-.183c.016-.172-.008-.3-.052-.274-.025.015-.058.005-.075-.02-.017-.026.001-.058.04-.072.06-.022.06-.054.002-.24-.094-.303-.527-1.1-.858-1.578-.262-.377-.387-.508-.907-.953-.217-.185-.305-.16-.223.065.072.198.07.214-.045.272-.082.042-.128.03-.265-.07-.237-.172-.358-.305-.35-.386a.327.327 0 0 0-.005-.104.789.789 0 0 1-.04-.195c-.008-.076-.516-.312-.865-.4-.124-.032-.22-.086-.232-.13-.012-.043-.047-.087-.08-.1-.103-.037-.322.026-.352.102a.358.358 0 0 1-.104.13c-.046.033-.052.055-.017.056a.11.11 0 0 0 .086-.044c.047-.072.407-.057.407.017 0 .037.074.074.18.09.233.035.63.219.633.292 0 .033-.058.057-.142.057-.2 0-.18.074.03.112.122.022.16.045.123.079a.11.11 0 0 0-.025.11c.015.038-.006.063-.05.063-.044 0-.078-.02-.078-.045 0-.025-.089-.046-.197-.046-.177 0-.195-.01-.17-.096.04-.148-.043-.3-.179-.324-.172-.031-.19.007-.05.11.117.09.17.356.07.356a.047.047 0 0 1-.049-.046c0-.025-.032-.045-.072-.045-.04 0-.072.018-.072.04 0 .023-.075.084-.167.136-.12.068-.159.116-.139.175.086.253.133.326.24.372a.37.37 0 0 1 .165.154c.041.09.044.086.02-.032-.023-.105-.006-.15.082-.214.095-.07.102-.093.052-.171-.037-.058-.042-.102-.012-.12.026-.014.047-.066.047-.115 0-.102.026-.107.232-.038.083.027.15.078.15.113 0 .036.022.064.05.064.025 0 .047-.02.047-.045 0-.082.152-.048.176.04.013.047.087.13.166.185.12.084.133.112.082.17-.05.057-.04.083.053.15l.113.08-.128.08c-.1.064-.142.069-.197.026-.09-.071-.195-.017-.124.063.027.032.035.07.018.087-.017.017.004.03.048.03.145 0 .085.244-.08.328-.056.028-.21.06-.34.07-.132.01-.25.034-.265.055-.014.02-.068.046-.12.055a.144.144 0 0 0-.112.12c-.009.056-.044.102-.078.102-.036 0-.062.052-.062.12 0 .124-.119.244-.24.244a.674.674 0 0 0-.206.07c-.154.076-.192.246-.077.349.07.06.05.235-.022.193-.024-.014-.034-.041-.02-.06.011-.02-.025-.033-.08-.031-.08.003-.112-.032-.139-.154-.042-.193-.167-.287-.333-.252-.082.017-.147.002-.187-.044-.106-.122-.327-.087-.483.076-.14.146-.19.367-.095.422.026.015.111-.004.19-.043.171-.084.434-.093.434-.014 0 .03-.087.132-.193.224-.157.137-.188.19-.164.28.022.085.003.13-.074.182-.067.046-.098.107-.087.177.013.092.038.104.182.09a.539.539 0 0 0 .277-.12c.115-.11.43-.175.518-.11.03.023.075.016.107-.014.03-.03.071-.037.09-.02.02.02.005.053-.033.075-.038.023-.059.047-.047.055.188.115.25.13.318.076.057-.045.08-.044.111.005a.15.15 0 0 1 .016.122c-.016.039.01.062.07.062a.23.23 0 0 1 .155.069c.043.048.107.06.218.04.227-.04.328.007.422.194.082.164.082.166-.04.287-.13.129-.152.184-.074.184.027 0 .048-.03.048-.068 0-.038.033-.068.074-.068.133 0 .464.187.488.277.02.07.067.087.234.087.142 0 .24.028.3.086.05.047.152.105.227.129.112.035.14.073.152.203.013.143-.006.173-.19.292-.276.178-.323.24-.325.432-.003.26-.232.454-.54.454-.252 0-.584.278-.546.458.031.149-.043.225-.219.225-.142 0-.168.04-.08.124.064.06-.079.268-.21.302a.122.122 0 0 0-.083.113c0 .05-.025.1-.056.11-.04.012-.042.054-.007.15a.372.372 0 0 1 .011.227c-.03.077-.038.079-.04.01-.002-.043-.027-.08-.055-.08-.03 0-.038-.038-.02-.092.017-.051.008-.12-.02-.153-.04-.045-.035-.075.02-.118.06-.047.061-.071.012-.13-.05-.06-.048-.065.023-.04.071.025.084.003.084-.145 0-.134.022-.181.09-.198.073-.018.087-.06.078-.22-.014-.237.07-.344.21-.272.124.063.15.06.15-.015 0-.035.043-.074.096-.088.053-.013.091-.05.084-.083-.008-.032.02-.06.058-.06.092-.003.12-.148.045-.234-.032-.037-.042-.082-.02-.1.02-.018.046-.008.058.024.025.067.3.077.3.01 0-.024.022-.045.048-.045.027 0 .048.03.048.069 0 .037.024.068.053.068.03 0 .04-.03.026-.068-.017-.041 0-.07.041-.07.043 0 .058.028.04.074-.022.054-.006.07.06.057.052-.01.107-.078.134-.17.04-.13.033-.164-.046-.22-.088-.065-.086-.066.028-.035.097.026.108.02.06-.028-.08-.08-.077-.135.006-.105.037.013.08.005.096-.02.016-.024-.004-.055-.043-.07-.04-.014-.07-.052-.07-.084 0-.036.013-.04.035-.013.057.073.155.074.155.002 0-.041.028-.057.072-.04.053.018.064.005.042-.05-.017-.042-.06-.066-.096-.052-.036.013-.066.004-.066-.02 0-.068.102-.053.197.028.046.04.107.06.135.043.08-.047.06-.115-.033-.12-.07-.002-.07-.008.012-.041.085-.034.08-.042-.058-.07-.089-.02-.166-.07-.183-.118-.017-.05-.072-.086-.133-.085-.083 0-.09.01-.034.043.04.023.057.055.04.07-.039.038-.23-.058-.23-.114 0-.023-.033-.03-.072-.016-.04.014-.072.054-.072.09 0 .073-.076.084-.12.017-.016-.025-.006-.045.021-.045a.05.05 0 0 0 .051-.05c0-.025-.02-.034-.048-.02-.026.017-.048-.002-.048-.042 0-.075-.124-.1-.15-.03-.01.023-.045.013-.079-.022-.052-.054-.038-.064.088-.064.085 0 .142-.021.132-.05-.02-.057-.032-.058-.28-.018-.128.02-.217.01-.265-.026-.055-.043-.086-.045-.128-.005-.088.084-.132.062-.12-.06.008-.107.084-.168.084-.07s.082.04.158-.113c.058-.117.064-.16.02-.163-.045-.003-.045-.01.002-.027a.103.103 0 0 0 .06-.09c0-.037-.02-.056-.043-.042-.024.014-.056-.005-.07-.043-.016-.037-.056-.066-.09-.064-.049.002-.049.008 0 .027.05.019.05.037.004.09-.037.044-.042.08-.012.099.061.04.074.236.016.236-.025 0-.045-.052-.045-.114 0-.063-.023-.114-.05-.114-.03 0-.039-.04-.02-.091.035-.11-.015-.116-.16-.02-.11.074-.249.06-.249-.023 0-.025.032-.034.072-.02.098.036.09-.028-.012-.102-.112-.08-.159-.078-.125.006.02.049.006.06-.05.04-.042-.015-.077-.06-.077-.096 0-.044-.027-.06-.077-.04-.055.02-.069.008-.05-.041.032-.076-.04-.095-.088-.023a.113.113 0 0 1-.087.044c-.036 0-.039-.013-.009-.034.084-.058.07-.128-.027-.128-.05 0-.093.018-.093.039 0 .02-.02.026-.048.01-.026-.016-.063.009-.08.054a.35.35 0 0 1-.103.133c-.039.028-.055.074-.036.103.02.03.003.052-.04.052-.113 0-.09-.125.045-.264.098-.1.106-.126.045-.14-.059-.01-.063-.027-.019-.08.067-.075.046-.08-.126-.016-.072.026-.116.06-.1.076.017.016-.013.057-.066.093-.052.035-.083.084-.066.11.016.024-.006.08-.049.127-.082.085-.134.413-.066.413.021 0 .04.042.04.093 0 .05.027.103.062.115.041.015.058.086.048.206-.013.15.007.203.112.295.081.072.16.103.216.086.057-.017.088-.004.088.038 0 .036.054.124.12.197.082.088.112.163.093.224-.146.452-.168.767-.053.74.032-.005.058.009.058.034s-.025.04-.055.034c-.073-.016-.119.217-.063.316a.189.189 0 0 1 .017.14c-.014.037.008.093.05.126.058.046.063.068.018.095-.047.027-.047.05.001.104.04.046.046.095.017.144-.045.076.048.515.12.565.02.015.036.066.036.115 0 .114.28.198.838.25.481.047.716.03 1.39-.093zm-1.98-.93c.014-.037.035-.068.045-.068.01 0 .02.03.02.068 0 .038-.022.069-.047.069-.026 0-.034-.031-.019-.07zm-.439-.341c-.016-.026-.008-.046.02-.046.025 0 .06.02.076.046.016.025.008.045-.018.045a.106.106 0 0 1-.078-.045zm.862-.41a.106.106 0 0 1 .078-.046c.026 0 .035.02.018.045a.106.106 0 0 1-.077.046c-.027 0-.035-.02-.019-.046zm.408-.227c0-.062.085-.1.116-.053.015.023-.006.054-.045.068-.04.014-.07.007-.07-.015zm-1.224-.096c-.017-.026-.02-.058-.008-.07.012-.012.035.01.05.049.033.08.006.094-.042.02zm2.014-.225c-.016-.025-.008-.045.018-.045s.061.02.078.045c.016.025.008.046-.019.046a.106.106 0 0 1-.077-.046zm-.407-.068c-.05-.056-.046-.068.018-.068.043 0 .077.03.077.068 0 .038-.008.068-.018.068-.01 0-.045-.03-.077-.068zm-1.509-.068a.106.106 0 0 1 .078-.046c.026 0 .034.02.018.046a.106.106 0 0 1-.078.045c-.026 0-.034-.02-.018-.045zm1.748-.07c0-.036.021-.067.047-.067.025 0 .034.03.018.068-.015.038-.036.069-.046.069-.01 0-.019-.031-.019-.07zm-1.772-.067c0-.025.023-.046.05-.046.03 0 .038.02.022.046-.016.025-.04.045-.05.045-.012 0-.022-.02-.022-.045zm-.02-.176c-.02-.032-.024-.07-.009-.085.043-.041.09.019.067.085-.016.046-.028.046-.058 0zm1.017-.038c.034-.013.076-.011.092.004s-.013.026-.063.024c-.056-.002-.067-.013-.03-.028zm.823-.01c0-.04.144-.11.172-.083.01.008-.027.04-.078.07-.052.03-.094.037-.094.014zm-.646-.095c-.017-.025-.009-.046.018-.046.026 0 .061.02.077.046.017.025.008.045-.018.045a.106.106 0 0 1-.077-.045zm-.704-.122c.035-.014.076-.012.092.003s-.012.026-.063.024c-.056-.002-.067-.013-.029-.027zm1.425-.047c-.026-.065-.02-.07.027-.026.033.03.047.068.033.082-.015.014-.042-.011-.06-.056zm.117-.06c0-.024.021-.045.048-.045.026 0 .047.02.047.046a.047.047 0 0 1-.047.046.047.047 0 0 1-.048-.046zm-2.3-.09c0-.025.022-.046.05-.046.025 0 .047.02.047.046a.047.047 0 0 1-.048.045.047.047 0 0 1-.048-.045zm1.63-.046c0-.025.02-.045.044-.045.025 0 .06.02.075.045.016.025-.004.046-.045.046-.04 0-.075-.02-.075-.046zm-1.964-.113c0-.036.044-.048.12-.035.065.012.12.038.12.057 0 .019-.055.034-.12.034-.067 0-.12-.025-.12-.056zm1.676-.07c-.079-.048-.066-.053.137-.062.092-.004.13.013.115.052-.027.067-.152.073-.252.01zm-.647-.181c.017-.025.04-.046.051-.046.012 0 .021.02.021.046 0 .025-.023.045-.05.045-.029 0-.038-.02-.022-.045zm-1.072-.308c.015-.087-.01-.12-.049-.062-.033.05-.053.043-.096-.034-.05-.087-.043-.096.054-.086.06.006.125.032.145.057.05.066.044.16-.01.16-.028 0-.047-.016-.044-.035zm1.122-.054c-.015-.023-.005-.055.021-.07.027-.017.05.002.05.04 0 .08-.03.093-.07.03zm-.313-.23c0-.026.023-.047.05-.047.028 0 .038.02.022.046-.017.025-.04.046-.05.046-.013 0-.022-.02-.022-.046zm1.293-.272c0-.023.021-.055.048-.07.026-.016.048.003.048.042 0 .04-.022.07-.048.07-.027 0-.048-.02-.048-.042zm.102-.22c-.066-.117-.02-.253.076-.218a.454.454 0 0 0 .09.025c.043 0 .016.125-.046.205-.064.083-.067.082-.12-.01zm.09-.101c0-.026-.01-.046-.022-.046-.01 0-.034.02-.05.046-.017.025-.007.045.02.045.03 0 .052-.02.052-.045zm2.468.093c-.043-.065.011-.14.1-.14.042 0 .066.033.057.077-.018.092-.114.13-.157.063zm-2.745-.347c-.059-.04-.107-.093-.107-.12 0-.032.022-.03.066.004.036.029.096.045.132.036.036-.01.05-.007.028.004-.02.01-.013.048.018.083.074.086-.005.082-.137-.007zm.276.026c0-.025.022-.046.048-.046.027 0 .048.02.048.046a.047.047 0 0 1-.048.045.047.047 0 0 1-.048-.045zm-1.46-.046c.016-.025.06-.045.098-.045.038 0 .07.02.07.045 0 .025-.045.046-.1.046-.053 0-.085-.02-.068-.046zm.311-.07c0-.078.155-.293.194-.27.026.015.035.046.02.07-.016.023.038.042.118.042.081 0 .147.02.147.046 0 .025.032.045.072.045.04 0 .072.02.072.046 0 .064-.132.057-.155-.008-.014-.04-.056-.04-.178 0-.172.057-.29.069-.29.028zm-.434-.066a.95.95 0 0 1-.304-.167c-.173-.137-.177-.145-.077-.175.073-.022.136-.004.21.06a.7.7 0 0 0 .303.125c.235.036.31.139.12.164a.93.93 0 0 1-.252-.006zm.322-.26c-.05-.046-.037-.196.016-.196.027 0 .048.018.048.04a.4.4 0 0 0 .03.115c.028.072-.033.1-.094.042zm4.113-.301c-.02-.045-.024-.094-.008-.11.05-.046.088.019.066.108-.02.08-.023.08-.058.002zm-3.953-3.45c0-.026.034-.046.075-.046.04 0 .06.02.045.045-.017.025-.05.046-.075.046a.045.045 0 0 1-.045-.046zm.103 8.198c-.1-.036-.122-.017-.086.074.025.06.041.063.097.014.058-.051.056-.064-.01-.088zm.318-.368c.113.02.122.014.068-.047-.134-.154-.37-.093-.265.07.022.034.038.034.05.002.01-.027.075-.038.147-.025zm4.534-.435a.808.808 0 0 1 .074-.195c.03-.053.042-.128.027-.166-.027-.07.063-.257.223-.465.065-.084.071-.127.03-.2-.07-.128-.017-.391.107-.517.15-.15.092-.263-.112-.222-.192.038-.287.112-.144.112.056 0 .116-.02.132-.045.016-.025.05-.046.075-.046.077 0 .05.119-.047.202-.119.102-.178.415-.097.508.05.056.031.105-.099.277-.1.134-.156.26-.153.348a.627.627 0 0 1-.066.268c-.039.07-.06.13-.046.13.013 0 .001.056-.026.125-.045.113-.042.118.026.054a.373.373 0 0 0 .096-.168zm-3.878-.194c.038-.058-.073-.058-.167 0-.059.036-.052.044.033.045.058 0 .118-.02.134-.045zm4.095-1.635c0-.071-.14-.154-.215-.126-.108.04-.216-.016-.216-.111 0-.086-.132-.18-.248-.178-.035 0-.007.047.061.103a.59.59 0 0 1 .156.186c.024.06.066.079.151.063.068-.012.142.005.173.04.061.07.138.083.138.023zm-.766-.601c0-.052-.02-.082-.046-.067-.025.015-.033.057-.019.094.038.094.065.083.065-.027zm-.068-.18c.097 0 .084-.08-.023-.134-.068-.035-.106-.03-.152.024-.05.057-.048.067.007.056.047-.01.066.022.06.1-.006.066 0 .08.015.034.013-.044.055-.08.093-.08zm-5.057-.273a.047.047 0 0 0-.047-.046.047.047 0 0 0-.048.046c0 .025.021.045.048.045.026 0 .047-.02.047-.045zm5.008-.172c-.084-.075-.087-.075-.057.004a.54.54 0 0 1 .03.135c0 .035.018.034.058-.004.045-.043.038-.073-.03-.135zm.29-.603c.015-.063.058-.18.095-.258a.735.735 0 0 0 .064-.273c-.004-.151-.024-.114-.165.303a2.306 2.306 0 0 1-.174.393.612.612 0 0 0-.087.182c.003.075.24-.232.267-.347zm-7.197-.252c-.04-.1-.107-.08-.078.023.013.05.043.08.065.067.022-.013.028-.053.013-.09zm2.072-.225c-.017-.063-.062-.116-.1-.116-.056 0-.054.023.013.134.093.156.13.148.087-.018zm6.307.02c.027-.098-.038-.126-.08-.033-.016.038-.064.012-.14-.074-.114-.126-.13-.13-.393-.1-.155.019-.256.05-.232.073.023.023.13.018.248-.01.2-.048.21-.045.335.093.15.165.226.18.262.052zm-6.702-.25c.015-.037.01-.068-.013-.068-.022 0-.067.03-.1.068-.049.056-.046.069.013.069.04 0 .085-.031.1-.07zm.953-.01c.02-.01.036-.111.036-.224 0-.17.017-.212.095-.231.053-.013.096-.042.096-.064 0-.061-.156-.045-.255.026-.067.048-.122.052-.228.017-.13-.043-.194-.13-.097-.13.023 0 .055-.035.072-.08a1.82 1.82 0 0 1 .057-.135c.016-.032-.003-.057-.042-.057s-.082.042-.096.094a.183.183 0 0 1-.118.118c-.068.016-.087.052-.07.133.012.06.036.113.052.115.017.003.106.01.198.018.223.017.232.023.12.069l-.096.039.096.004c.088.005.09.009.012.05-.088.05-.116.18-.038.18.025 0 .066-.036.092-.08.026-.043.062-.064.08-.046.046.042-.067.172-.149.172a.124.124 0 0 0-.094.047c-.028.044.18.019.277-.034zm4.73-.012c0-.025-.033-.046-.073-.046-.04 0-.072-.02-.072-.046a.047.047 0 0 0-.048-.045c-.134 0 .003.137.18.18.007 0 .012-.018.012-.043zm.304-.07c.071-.067.09-.113.146-.352.017-.07.055-.125.085-.125.088 0 .23.143.23.232 0 .097.077.153.12.087.016-.025.011-.046-.01-.046-.023 0-.064-.06-.093-.132-.077-.195-.23-.258-.347-.146-.058.055-.084.125-.068.182.017.064-.02.136-.12.23-.082.08-.117.14-.08.14.035 0 .097-.031.137-.07zm.457-.07c-.034-.02-.086-.023-.113-.007-.03.018-.015.037.033.046.047.009.086.04.088.07.002.032.014.03.03-.01.014-.033-.003-.078-.038-.1zm-.14-.091c0-.024-.02-.043-.047-.043s-.048.032-.048.07c0 .04.021.06.048.044.026-.015.048-.047.048-.071zm-.766-.063c0-.036-.02-.078-.048-.094-.026-.015-.048.014-.048.066 0 .05.022.094.048.094.027 0 .048-.03.048-.066zm-7.088-.09c0-.01-.054-.026-.12-.038s-.12-.004-.12.018c0 .02.054.039.12.039s.12-.008.12-.018zm7.206-.3c.093 0 .137-.16.075-.272-.035-.061-.1-.093-.195-.093-.165 0-.18-.045-.045-.127.08-.047.088-.073.044-.152a.357.357 0 0 1-.03-.211.394.394 0 0 0-.068-.257c-.117-.184-.114-.223.017-.184.095.03.1.025.042-.042-.092-.105-.143-.094-.178.04a.28.28 0 0 0 .04.216c.1.147.147.58.063.58-.088 0-.127.114-.06.177a.28.28 0 0 0 .164.05c.17 0 .196.135.045.24-.072.05-.127.13-.126.187.002.09.008.087.074-.027.04-.07.101-.125.138-.125zm-4.74.09c.017-.024-.004-.045-.045-.045-.04 0-.074.02-.074.046 0 .025.02.046.045.046.025 0 .058-.02.074-.046zm-.003-.278c-.048-.074-.116-.041-.116.057 0 .08.012.087.071.04.04-.03.06-.074.045-.097zm-.164-.245c-.033-.038-.08-.068-.108-.068-.026 0-.02.03.012.068.033.038.081.068.108.068.026 0 .021-.03-.012-.068zm4.432-.057c.162-.123.22-.294.118-.353-.027-.016-.048-.08-.048-.14 0-.06-.018-.111-.04-.111-.023 0-.067-.054-.099-.12-.093-.196-.15-.07-.169.374-.023.537-.018.544.238.35zm-.19-.091c.02-.07.032-.238.027-.376l-.009-.25.096.113a.42.42 0 0 1 .097.214c0 .055.023.113.05.128.045.027-.196.296-.266.296-.018 0-.017-.056.004-.125zm-6.254.054c0-.036-.02-.066-.045-.066-.025 0-.042.04-.038.088.008.1.083.08.083-.022zm6.055-.184c.115-.043.09-.1-.034-.077-.102.019-.108.007-.09-.166.018-.184.07-.24.123-.13.015.033.022.017.015-.033-.006-.05-.043-.09-.082-.09-.048 0-.082.07-.105.224-.044.292-.013.34.173.272zm-1.816-.668c-.026-.191-.063-.264-.184-.364-.194-.16-1.012-.56-1.22-.598-.233-.041-.143.04.121.11.126.033.37.127.54.21l.312.15.008.217c.007.19.031.237.188.366.098.082.2.148.223.148.026 0 .031-.1.012-.24zm1.118.014c.02-.14-.12-.255-.216-.178-.068.053-.087.23-.03.284.074.07.23.004.246-.106zm-.213-.03a.443.443 0 0 0 .03-.09c0-.01.02-.02.047-.02.026 0 .047.042.047.092 0 .053-.032.09-.077.09-.05 0-.067-.024-.047-.071zm1.36-.055c.01-.033-.01-.044-.055-.028-.052.02-.076-.01-.087-.102-.017-.138-.184-.217-.184-.087 0 .04-.017.072-.038.072-.068 0-.153-.107-.153-.192 0-.045-.025-.082-.056-.082-.086 0-.375-.226-.375-.294 0-.033-.03-.072-.069-.086-.153-.056.06.264.232.35.095.046.172.11.172.14 0 .03.062.112.137.18.133.12.14.122.163.032.038-.138.115-.114.15.047.027.135.122.165.162.05zm-3.39-.1c0-.025-.06-.043-.132-.04l-.132.004.12.036.131.04c.007.004.012-.015.012-.04zm1.275-.216a.861.861 0 0 1 .1-.224c.15-.22-.15-.702-.48-.77-.174-.037-.23.01-.063.05.165.04.377.234.456.418.055.13.051.169-.038.345-.11.217-.127.306-.054.306.026 0 .061-.056.08-.125zm-2.21-.002c.137-.037.192-.106.193-.244.002-.095-.02-.118-.105-.114-.1.006-.103.012-.034.113.085.123.09.115-.122.183-.144.047-.177.042-.266-.038-.057-.05-.129-.092-.16-.092-.032 0 .012.06.098.136.092.08.187.124.23.108.04-.014.114-.038.166-.052zm.79-.12c-.263-.13-.526-.19-.526-.121 0 .027.061.049.136.049a.35.35 0 0 1 .223.09.33.33 0 0 0 .235.09c.147-.002.147-.003-.067-.11zm-.862-.025c.104-.063.014-.122-.239-.155-.213-.027-.214-.027-.084.042.073.038.132.089.132.113 0 .056.098.056.191 0zm-.574-.124c0-.058.177-.13.275-.112.053.01.084-.08.065-.188-.003-.02.027-.048.066-.062.04-.015.073-.047.073-.072 0-.028-.128-.04-.327-.03a1.576 1.576 0 0 0-.658.173 12.41 12.41 0 0 0-.345.163c-.046.034.063.156.148.168.266.036.703.01.703-.04zm3.783-.288c0-.05-.008-.09-.018-.09-.01 0-.03.04-.043.09-.014.05-.006.09.018.09s.043-.04.043-.09zm-.182-.1c-.035-.033-.057-.036-.057-.008 0 .06.057.115.09.085.012-.013-.002-.048-.033-.078zm-2.46-.168c.022-.142.157-.176.667-.17.46.006.592-.034.24-.073-.3-.032-.73-.005-.846.053-.055.028-.1.088-.1.132a.232.232 0 0 1-.06.14c-.049.05-.046.057.011.04.04-.011.08-.066.088-.122zm-.185-.002c.075-.133.06-.185-.05-.185-.112 0-.38.135-.38.192 0 .057.048.042.2-.06.16-.11.234-.082.146.052-.033.05-.038.09-.012.09.025 0 .07-.04.096-.09zm-7.973 9.427c-.274-.2-.899-.586-1.317-.816-1.792-.986-2.42-1.758-2.255-2.772.083-.514.358-.972.852-1.425.71-.648 1.308-.974 1.308-.71 0 .034-.186.204-.412.377-.484.37-.876.81-1.058 1.184-.107.22-.134.352-.15.712-.019.418-.012.459.128.743.08.165.226.39.323.503.44.513 1.606 1.03 2.606 1.159.224.029.455.06.514.073.114.022.151.11.047.11a.76.76 0 0 0-.238.115.486.486 0 0 0-.228.295c-.049.173-.027.262.133.56.04.07-.069.025-.253-.108zm4.744-.212c-.263-.015-.41-.067-.41-.144 0-.017.14-.023.307-.012.18.01.343-.003.395-.033.07-.04-.004-.05-.342-.043-.418.01-.439.005-.682-.147-.137-.086-.243-.177-.235-.202.008-.025.135-.1.283-.168.262-.12.287-.123 1.241-.128 1.22-.007 1.141-.01 1.141.057 0 .064-.2.188-.874.537-.257.133-.467.26-.467.28 0 .02-.016.034-.036.029a4.918 4.918 0 0 0-.32-.026zm.577-.342c.02-.02-.13-.034-.334-.034-.204 0-.36.016-.348.034.03.045.635.044.682 0zm-.83-.157a.893.893 0 0 0-.24 0c-.072.01-.024.019.108.02.131 0 .191-.01.132-.02zm.957-.001a2.885 2.885 0 0 0-.407 0c-.112.01-.02.017.204.017.224 0 .315-.008.203-.017zm.42-.132c0-.01-.168-.014-.372-.01-.358.007-.362.008-.108.034.25.026.48.014.48-.024zm-1.423-.022c-.038-.036-.078-.036-.142-.001-.077.043-.07.049.053.05.103 0 .127-.012.09-.05zm.357.019a.552.552 0 0 0-.19-.001c-.06.01-.023.02.082.02.105 0 .154-.008.108-.02zm.215-.09a.194.194 0 0 0-.12 0c-.032.013-.005.023.06.023.066 0 .093-.01.06-.023zm.72-.002a.894.894 0 0 0-.24 0c-.073.01-.025.019.107.02.132 0 .191-.01.132-.02zm-1.27-.643c-.185-.02-.643-.692-.9-1.32-.3-.727-.395-1.261-.365-2.04a4.845 4.845 0 0 1 .991-2.78c.255-.33.32-.374.417-.28.074.07.07.084-.044.2-.722.74-1.207 2.148-1.117 3.249.08.995.404 1.89.94 2.605.131.176.232.333.224.35-.008.017-.074.024-.146.016zm-2.024-2.065c-.36-.38-1.137-1.05-1.925-1.66-1.46-1.161-4.227-3.047-4.228-4.943-.002-1.265 1.187-2.565 3.5-3.706 4.004-1.977 11.598-3.474 23.774-3.474 2.6 0 3.397-.02 6.73.117 12.38.599 18.558 3.6 18.558 6.378 0 2.394-3.686 5.42-10.896 6.334-.276.027-.573.058-.658.069-.145.017-.156.009-.156-.115 0-.148-.012-.143.575-.228 4.185-.715 9.387-3.307 9.427-5.81.03-1.948-4.27-3.87-6.817-4.637-1.074-.322-1.943-.516-3.424-.767l-1.054-.18a44.027 44.027 0 0 0-1.692-.247 150.2 150.2 0 0 1-2.044-.207c-.484-.056-2.043-.204-2.85-.272-.712-.06-2.917-.138-4.477-.16-1.792-.023-4.717.053-7.017.183-1.759.1-1.87.134-2.49.18-9.412.717-17.176 3.824-17.176 6.379 0 .709.547 1.449 1.183 1.767 1.043.522 2.874.62 4.208.213.39-.118.575-.165.546-.09-.009.022-.13.125-.27.23-.44.33-.953 1.095-1.176 1.757-.2.592-.32 1.76-.23 2.223.03.145.107.39.172.545.066.155.113.288.104.296-.008.008-.097-.07-.196-.176zm2.993.015c0-.048.104-.146.154-.146.02 0 .038.04.038.09 0 .062-.032.092-.096.092-.053 0-.096-.016-.096-.036zm-.167-1.833c-.017-.025-.007-.045.02-.045.03 0 .052.02.052.045 0 .025-.01.046-.022.046-.01 0-.034-.02-.05-.046zm.12-.255c0-.036.06-.054.162-.05.194.01.184.059-.018.087-.095.013-.145 0-.145-.037zm-.144-.155c0-.025.023-.046.05-.046.028 0 .038.02.022.046-.017.025-.04.046-.05.046-.013 0-.022-.02-.022-.046zm.452-.095c-.015-.023.018-.042.072-.042.054 0 .098-.021.098-.048s.024-.034.052-.018c.038.022.038.045 0 .08-.067.065-.188.08-.222.028zm.683-.208c-.05-.048.012-.105.087-.078.04.014.058.044.044.067-.03.048-.088.053-.13.01zm.134-.198c.016-.025.04-.046.05-.046.012 0 .022.02.022.046 0 .025-.023.045-.05.045-.029 0-.038-.02-.022-.045zm-.368-.214c.034-.013.076-.011.092.004.015.015-.013.026-.063.024-.056-.002-.067-.013-.03-.028zm-.997-.17c0-.04.034-.072.076-.072.042 0 .067.024.057.054-.03.084-.133.099-.133.018zm.575.022c0-.024.021-.056.048-.071.026-.016.047.003.047.043 0 .039-.02.07-.047.07s-.048-.02-.048-.042zm.383-.05c0-.024.032-.044.072-.044.04 0 .072.02.072.045 0 .026-.033.046-.072.046-.04 0-.072-.02-.072-.046zm1.894-.077a.116.116 0 0 1 .027-.123c.042-.037.05-.03.027.03-.036.098.03.105.111.012.033-.038.09-.068.126-.068.117 0 .07.072-.098.148-.15.068-.166.068-.193 0zm-2.134-.195c0-.025.022-.046.048-.046.027 0 .048.02.048.046a.047.047 0 0 1-.048.046.047.047 0 0 1-.048-.046zm.72-.14c0-.026.02-.035.047-.02.026.016.048.038.048.049 0 .01-.022.02-.048.02a.048.048 0 0 1-.048-.048zm.31.003c-.016-.025.004-.045.045-.045.041 0 .075-.031.075-.07 0-.036.022-.067.05-.067.033 0 .033.027.001.085-.026.047-.034.098-.018.114.017.016-.004.029-.046.029-.043 0-.09-.02-.107-.046zm-.427-.176c-.02-.032-.025-.07-.009-.085.043-.04.09.02.067.085-.017.047-.028.046-.058 0zm.241-.086c.045-.18.066-.185.066-.02 0 .08-.022.145-.049.145-.028 0-.035-.05-.017-.125zm-.389-.057a.106.106 0 0 1 .078-.045c.026 0 .034.02.018.045a.106.106 0 0 1-.077.046c-.027 0-.035-.02-.019-.046zm.813-.003c-.018-.027-.02-.06-.006-.073.034-.032.127.025.127.079 0 .058-.082.054-.12-.006zm.337.003a.082.082 0 0 1 .013-.1c.032-.03.06-.027.083.009a.082.082 0 0 1-.014.1c-.032.03-.06.027-.082-.01zm-1.27-.16c-.034-.04-.052-.075-.042-.08.22-.12.234-.124.234-.06a.101.101 0 0 1-.06.088c-.046.017-.045.023.003.026.035.002.05.024.033.05-.042.064-.098.056-.168-.024zm.336.022c-.062-.04-.06-.055.021-.114.107-.077.19-.028.143.085-.035.087-.064.093-.164.029zm.43-.024c0-.118.12-.43.16-.418.086.028.092.29.007.37-.076.072-.166.098-.166.048zm.267-.016a.05.05 0 0 1 .017-.07.055.055 0 0 1 .074.016.05.05 0 0 1-.018.07.055.055 0 0 1-.073-.016zm-1.176-.186c0-.026.023-.046.05-.046.03 0 .038.02.022.046-.016.025-.04.045-.05.045-.013 0-.022-.02-.022-.045zm.31-.14c-.046-.07.035-.14.112-.094.05.03.047.047-.008.092-.052.04-.08.04-.104.003zm.36-.087c0-.057.17-.144.21-.106.041.04-.064.15-.144.15-.036 0-.066-.02-.066-.044zm.45-.147c-.04-.061.071-.126.215-.127.092 0 .103.01.058.063-.073.084-.236.122-.274.064zm-1.54-.043c-.032-.032-.059-.084-.059-.117 0-.032-.022-.06-.048-.06a.047.047 0 0 1-.048-.045c0-.068.124-.054.19.02.031.037.05.11.041.163-.012.078-.027.085-.075.04zm.947.01c0-.057.287-.191.34-.16.074.043.047.094-.08.149-.146.064-.26.068-.26.01zm-.344-.08c.034-.014.075-.012.091.003s-.012.026-.063.024c-.055-.002-.067-.013-.028-.027zm-.316-.16c.024-.068.133-.106.133-.046 0 .025-.034.057-.076.072-.047.017-.068.007-.057-.026zm.548-.022c-.06-.057-.032-.116.042-.09.043.017.062.009.045-.017-.016-.025.016-.045.07-.045.111 0 .126.047.041.128-.064.06-.149.07-.198.024zm8.787-5.667a1.12 1.12 0 0 1-.126-.205c-.128-.242-.453-.548-.68-.64-.396-.16-1.507-.131-2.96.075-.343.049-.652.098-.688.11a4.99 4.99 0 0 1-.383.087 4.314 4.314 0 0 0-.402.095c-.047.018-.084.01-.084-.014 1.57-.7 8.15-1.723 14.793-1.666 4.502.038 9.044.554 12.04 2.075-.042.01-1.537.06-9.674.059-5.368 0-10.22.01-10.782.023-.562.013-1.036.014-1.054 0z"/><g stroke-width=".265"><g style="font-variant-ligatures:none" aria-label="URBAN"><path d="M62.972 40.029v-1.733q0-.222.103-.332.106-.11.276-.11.178 0 .282.11.106.11.106.332v1.772q0 .303.07.507.072.2.253.314.18.11.506.11.45 0 .635-.225.186-.23.186-.691v-1.787q0-.224.104-.332.103-.11.276-.11.173 0 .28.11.108.108.108.332v1.733q0 .423-.088.705-.085.283-.326.497-.206.182-.48.266-.274.083-.64.083-.437 0-.752-.088-.316-.091-.515-.278-.198-.19-.29-.482-.094-.295-.094-.703zm5.17-.073h-.27v1.174q0 .23-.106.34-.106.11-.276.11-.184 0-.284-.114-.1-.115-.1-.336v-2.81q0-.24.11-.346.111-.107.36-.107h1.247q.258 0 .441.022.184.02.331.085.178.072.315.207.137.134.207.313.072.177.072.377 0 .408-.24.652-.238.244-.723.346.204.105.39.31.186.203.33.435.148.23.228.416.082.184.082.254 0 .072-.049.145-.046.07-.129.11-.083.042-.19.042-.13 0-.218-.06-.088-.058-.152-.147-.062-.09-.17-.264l-.308-.493q-.166-.272-.297-.414-.13-.142-.264-.194-.134-.052-.338-.052zm.438-1.534h-.708v1.004h.687q.277 0 .465-.045.19-.047.287-.157.1-.112.1-.306 0-.152-.08-.267-.08-.117-.222-.174-.134-.055-.53-.055zm4.256 3.095h-1.158q-.25 0-.359-.107-.106-.11-.106-.348v-2.755q0-.243.11-.348.11-.107.355-.107h1.227q.272 0 .47.032.2.033.357.125.134.078.238.198.103.117.157.262.054.143.054.303 0 .55-.568.805.747.23.747.895 0 .308-.163.555-.163.245-.44.363-.172.07-.397.1-.225.027-.524.027zm-.057-1.627h-.798v1.07h.824q.777 0 .777-.543 0-.277-.2-.402-.203-.125-.603-.125zm-.798-1.48v.947h.702q.287 0 .442-.052.157-.053.24-.2.065-.106.065-.236 0-.277-.204-.367-.204-.093-.623-.093zm5.717 2.699-.18-.452h-1.54l-.18.462q-.107.27-.182.366-.074.093-.245.093-.145 0-.256-.1-.11-.101-.11-.23 0-.073.025-.151.026-.08.085-.22l.97-2.34.097-.24q.06-.143.124-.236.067-.094.173-.15.11-.06.266-.06.16 0 .266.06.11.056.173.147.068.09.111.197.047.103.117.278l.99 2.325q.115.266.115.386 0 .126-.11.23-.11.104-.264.104-.09 0-.155-.031-.065-.03-.109-.082-.044-.054-.095-.162-.05-.11-.086-.194zm-1.518-1h1.131l-.57-1.488zm4.128-1.82 1.475 2.125V38.27q0-.21.093-.312.095-.106.255-.106.166 0 .261.106.096.103.096.312v2.835q0 .474-.413.474-.104 0-.186-.03-.083-.027-.155-.088-.073-.061-.135-.143-.062-.083-.124-.17l-1.438-2.1v2.113q0 .207-.1.312-.1.106-.259.106-.163 0-.26-.106-.1-.108-.1-.312v-2.78q0-.177.042-.278.05-.11.163-.18.113-.07.245-.07.103 0 .176.03.074.033.13.087.056.054.112.14.06.086.122.18z"/><path style="paint-order:fill markers stroke" d="M90.684 321.63h1.732v1.64h-1.732z" transform="matrix(.27152 0 0 .2584 42.482 -45.243)"/><path style="font-variant-ligatures:none;paint-order:fill markers stroke" d="M105.81 321.58h1.732v14.185h-1.732z" transform="matrix(.27152 0 0 .2584 42.482 -45.243)"/></g><g style="font-variant-ligatures:none" aria-label="CRUISE"><path d="M66.264 45.17q0 .173-.09.375-.087.199-.279.393-.19.192-.488.312-.297.12-.692.12-.3 0-.545-.053-.246-.055-.447-.168-.199-.115-.367-.302-.15-.17-.256-.38-.106-.21-.16-.45-.05-.237-.05-.505 0-.435.13-.78.135-.343.383-.587.248-.246.58-.373.334-.128.711-.128.46 0 .82.174.358.175.55.433.19.256.19.484 0 .126-.093.222-.093.095-.224.095-.148 0-.222-.066-.073-.066-.163-.23-.15-.267-.354-.4-.202-.132-.499-.132-.472 0-.754.342-.279.34-.279.97 0 .42.124.7.124.279.351.417.228.137.533.137.33 0 .558-.154.23-.158.346-.46.05-.143.121-.231.072-.091.233-.091.136 0 .235.09.098.092.098.227zm1.685-.431h-.269v1.178q0 .232-.106.342-.105.11-.276.11-.183 0-.284-.115-.1-.115-.1-.337v-2.82q0-.24.11-.347.111-.108.36-.108h1.247q.258 0 .442.023.183.02.33.085.18.072.315.207.137.135.207.315.072.178.072.378 0 .41-.24.655-.237.245-.723.347.204.105.39.31.186.205.33.437.148.23.228.418.083.185.083.255 0 .072-.05.145-.046.07-.129.11-.082.042-.19.042-.13 0-.218-.06-.088-.057-.152-.147-.062-.09-.17-.265l-.308-.495q-.165-.273-.297-.415-.13-.143-.264-.195-.134-.053-.338-.053zm.44-1.54h-.709v1.008h.687q.277 0 .465-.045.19-.047.287-.157.1-.113.1-.308 0-.152-.08-.267-.08-.118-.22-.175-.136-.055-.53-.055z"/><path style="font-variant-ligatures:none;paint-order:fill markers stroke" d="M89.978 340.12h1.732v1.64h-1.732z" transform="matrix(.27152 0 0 .2584 42.482 -45.243)"/><path d="M70.777 44.82v-1.734q0-.22.1-.331.102-.111.267-.111.171 0 .271.11.102.11.102.332v1.773q0 .302.067.506.07.202.244.315.175.11.488.11.434 0 .613-.226.18-.228.18-.69v-1.788q0-.223.1-.331.1-.111.265-.111.167 0 .27.11.104.109.104.332v1.734q0 .422-.085.705-.082.283-.313.497-.2.182-.464.265-.264.084-.617.084-.42 0-.725-.09-.304-.09-.496-.276-.19-.19-.28-.482-.09-.295-.09-.703zm3.794 1.106v-2.84q0-.221.105-.332.106-.11.274-.11.173 0 .28.11.108.109.108.332v2.84q0 .223-.109.334-.106.11-.279.11-.165 0-.274-.11-.105-.113-.105-.334zm4.466-.698q0 .327-.178.587-.176.26-.517.408-.34.148-.808.148-.56 0-.925-.202-.258-.145-.42-.386-.16-.243-.16-.472 0-.132.094-.226.098-.096.248-.096.122 0 .204.074.086.074.145.219.072.172.155.288.085.115.238.19.152.075.4.075.341 0 .553-.15.214-.152.214-.378 0-.18-.116-.29-.114-.114-.297-.173-.18-.06-.486-.125-.408-.091-.684-.211-.274-.123-.437-.332-.16-.212-.16-.524 0-.297.17-.528.171-.232.494-.354.323-.126.76-.126.348 0 .601.084.256.08.424.219.168.135.245.285.078.15.078.292 0 .13-.098.236-.096.104-.24.104-.132 0-.202-.062-.067-.064-.147-.206-.104-.204-.248-.318-.145-.115-.465-.115-.297 0-.48.125-.182.123-.182.298 0 .108.062.187.062.078.17.135.11.056.22.088.112.032.367.094.32.07.58.157.26.086.441.209.183.123.284.312.103.187.103.46zm3.196-2.014h-1.766v.9h1.626q.18 0 .267.078.09.076.09.2 0 .126-.088.206-.087.077-.269.077h-1.626v1.043h1.827q.184 0 .277.082.095.08.095.215 0 .13-.095.213-.093.08-.277.08h-2.13q-.256 0-.37-.108-.11-.107-.11-.347v-2.756q0-.16.05-.26.05-.102.155-.147.108-.048.275-.048h2.07q.186 0 .276.08.092.078.092.205 0 .13-.092.21-.09.078-.277.078z"/><path style="font-variant-ligatures:none;paint-order:fill markers stroke" d="M137.01 340.12h1.732v14.185h-1.732z" transform="matrix(.27152 0 0 .2584 42.482 -45.243)"/></g><g style="font-variant-ligatures:none" aria-label="SHIP"><path d="M65.95 50.019q0 .327-.18.587-.175.26-.516.408-.34.148-.809.148-.56 0-.924-.202-.259-.145-.42-.386-.16-.243-.16-.472 0-.133.094-.226.098-.096.248-.096.121 0 .204.074.085.074.145.219.072.172.155.287.085.116.237.192.153.074.4.074.342 0 .553-.15.215-.153.215-.38 0-.18-.116-.29-.114-.112-.297-.171-.18-.06-.486-.125-.408-.091-.685-.212-.273-.123-.436-.332-.16-.211-.16-.523 0-.298.17-.53.17-.23.494-.353.322-.125.76-.125.348 0 .601.083.256.082.423.22.168.134.246.284.077.15.077.293 0 .13-.098.236-.095.103-.24.103-.132 0-.2-.061-.069-.064-.149-.207-.103-.204-.248-.317-.144-.115-.465-.115-.297 0-.48.125-.18.123-.18.297 0 .109.061.187.062.079.17.135.11.057.22.089.111.032.367.093.32.072.58.158.26.086.44.209.184.123.284.312.104.187.104.46zm3.577-2.143v1.033h1.656v-1.033q0-.22.103-.331.106-.111.277-.111.173 0 .28.11.107.109.107.332v2.84q0 .223-.108.334-.109.11-.28.11-.172 0-.276-.11-.103-.113-.103-.334v-1.212h-1.656v1.212q0 .223-.108.334-.109.11-.28.11-.172 0-.276-.11-.103-.113-.103-.334v-2.84q0-.22.1-.331.104-.111.28-.111.173 0 .28.11.107.109.107.332zm5.937 2.84v-2.84q0-.22.106-.331.106-.11.274-.11.173 0 .28.11.107.108.107.332v2.84q0 .223-.108.334-.106.11-.28.11-.165 0-.273-.11-.106-.113-.106-.335zm5.745-1.04h-.702v1.034q0 .22-.109.335-.108.115-.274.115-.173 0-.279-.112-.106-.115-.106-.333v-2.81q0-.245.117-.35.116-.103.37-.103h.983q.437 0 .672.064.232.062.4.207.17.144.26.353.086.209.086.47 0 .557-.356.845-.357.286-1.062.286zm-.186-1.67h-.516v1.114h.516q.271 0 .452-.054.184-.055.28-.18.095-.124.095-.325 0-.241-.147-.393-.166-.162-.68-.162z"/><path style="font-variant-ligatures:none;paint-order:fill markers stroke" d="M137.21 358.73h1.732v1.64h-1.732z" transform="matrix(.27152 0 0 .2584 42.482 -45.243)"/></g></g><g transform="matrix(.57207 0 0 .54442 -180.939 -357.902)" stroke-width=".033" style="font-variant-ligatures:none;white-space:pre;shape-inside:url(#rect12816-2)" aria-label="ANALYSIS"><path d="m464.92 747.65-.131-.345h-1.118l-.13.353q-.078.206-.132.279-.055.071-.178.071-.105 0-.186-.077-.08-.077-.08-.174 0-.056.018-.116.02-.06.062-.167l.703-1.785.072-.184q.043-.109.09-.18.048-.071.125-.114.079-.045.193-.045.117 0 .193.045.08.043.126.112.049.07.08.15.034.079.085.212l.718 1.774q.085.202.085.294 0 .096-.081.176-.079.079-.191.079-.066 0-.113-.024-.047-.023-.078-.062-.032-.041-.07-.124zm-1.102-.763h.82l-.414-1.134zm3.102-1.397 1.07 1.62v-1.635q0-.16.068-.238.07-.08.186-.08.12 0 .189.08.07.079.07.238v2.162q0 .362-.3.362-.076 0-.136-.023-.06-.02-.112-.067-.053-.047-.098-.11l-.09-.129-1.044-1.6v1.61q0 .157-.073.238-.073.08-.187.08-.119 0-.19-.08-.071-.083-.071-.238v-2.12q0-.136.03-.212.036-.085.118-.137.083-.055.178-.055.075 0 .128.025.054.024.093.065.042.042.083.107zm4.18 2.16-.131-.345h-1.118l-.13.353q-.078.206-.132.279-.055.071-.178.071-.105 0-.186-.077-.08-.077-.08-.174 0-.056.018-.116.02-.06.062-.167l.703-1.785.072-.184q.043-.109.09-.18.048-.071.125-.114.079-.045.193-.045.116 0 .193.045.08.043.126.112.049.07.08.15.034.079.085.212l.718 1.774q.084.202.084.294 0 .096-.08.176-.079.079-.191.079-.066 0-.113-.024-.047-.023-.079-.062-.032-.041-.07-.124zm-1.102-.763h.82l-.414-1.134zm2.922-1.387v2h1.129q.135 0 .206.066.073.066.073.165 0 .101-.071.165-.071.062-.208.062h-1.345q-.182 0-.262-.08-.079-.081-.079-.261V745.5q0-.169.075-.253.077-.085.2-.085.126 0 .203.085.079.082.079.253zm2.18 2.16v-.872l-.671-1.04q-.088-.14-.126-.22-.035-.078-.035-.137 0-.095.073-.164.075-.07.183-.07.115 0 .173.066.06.063.178.257l.514.834.52-.834.078-.13q.032-.052.07-.097.039-.047.085-.072.047-.024.115-.024.105 0 .174.07.071.067.071.157 0 .073-.035.146-.036.073-.122.203l-.688 1.055v.872q0 .17-.079.255-.079.084-.2.084-.124 0-.201-.082-.077-.085-.077-.257zm4.06-.53q0 .25-.13.448-.127.199-.374.311-.248.113-.587.113-.407 0-.671-.154-.188-.11-.306-.294-.116-.186-.116-.36 0-.101.07-.173.07-.073.18-.073.087 0 .147.056.062.057.105.167.053.131.113.22.062.088.172.146.11.056.29.056.248 0 .402-.114.156-.117.156-.29 0-.136-.085-.22-.082-.087-.215-.132-.132-.045-.353-.095-.296-.07-.497-.161-.198-.094-.316-.253-.117-.162-.117-.4 0-.227.124-.403.124-.176.358-.27.234-.096.551-.096.253 0 .437.064.186.062.308.167.122.103.178.218.056.114.056.223 0 .099-.071.18-.07.078-.175.078-.095 0-.146-.047-.049-.048-.107-.157-.075-.156-.18-.242-.105-.088-.337-.088-.216 0-.349.096-.131.093-.131.226 0 .083.045.143.045.06.124.103.078.043.159.068.08.024.266.07.233.055.42.12.19.066.32.16.134.094.207.238.075.143.075.35zm.77.53v-2.165q0-.17.077-.254.077-.084.199-.084.125 0 .202.084.079.083.079.254v2.165q0 .17-.079.255-.077.084-.202.084-.12 0-.2-.084-.076-.086-.076-.255zm3.54-.53q0 .25-.13.448-.127.199-.374.311-.248.113-.587.113-.407 0-.671-.154-.188-.11-.306-.294-.116-.186-.116-.36 0-.101.07-.173.07-.073.18-.073.087 0 .147.056.062.057.105.167.053.131.113.22.062.088.172.146.11.056.29.056.248 0 .402-.114.156-.117.156-.29 0-.136-.085-.22-.082-.087-.215-.132-.132-.045-.353-.095-.296-.07-.497-.161-.198-.094-.316-.253-.117-.162-.117-.4 0-.227.124-.403.124-.176.358-.27.234-.096.551-.096.253 0 .437.064.186.062.308.167.122.103.178.218.056.114.056.223 0 .099-.071.18-.07.078-.175.078-.095 0-.146-.047-.049-.048-.107-.157-.075-.156-.18-.242-.105-.088-.337-.088-.216 0-.349.096-.131.093-.131.226 0 .083.045.143.045.06.124.103.078.043.159.068.08.024.266.07.233.055.42.12.19.066.32.16.134.094.207.238.075.143.075.35z"/><path style="paint-order:fill markers stroke" d="M472.37 747.69h.386v.27h-.386z"/></g><g transform="matrix(.52205 0 0 .54442 -157.759 -355.04)" stroke-width=".035" style="font-variant-ligatures:none;white-space:pre;shape-inside:url(#rect12816-2-5)" aria-label="SOLUTIONS"><path d="M465.25 747.13q0 .25-.13.448-.127.199-.374.311-.248.113-.587.113-.407 0-.671-.154-.188-.11-.306-.294-.116-.186-.116-.36 0-.101.07-.173.07-.073.18-.073.087 0 .147.056.062.057.105.167.053.131.113.22.062.088.172.146.11.056.29.056.248 0 .402-.114.156-.117.156-.29 0-.136-.085-.22-.082-.087-.215-.132-.132-.045-.353-.095-.296-.07-.497-.161-.198-.094-.316-.253-.117-.162-.117-.4 0-.227.124-.403.124-.176.358-.27.234-.096.551-.096.253 0 .437.064.186.062.308.167.122.103.178.218.056.114.056.223 0 .099-.071.18-.07.078-.175.078-.095 0-.146-.047-.049-.048-.107-.157-.075-.156-.18-.242-.105-.088-.337-.088-.216 0-.349.096-.131.093-.131.226 0 .083.045.143.045.06.124.103.078.043.159.068.08.024.266.07.233.055.42.12.19.066.32.16.134.094.207.238.075.143.075.35zm1.68-1.97q.427 0 .733.174.308.173.465.493.158.32.158.75 0 .32-.087.58-.086.26-.258.452-.173.19-.424.292-.251.101-.576.101-.322 0-.577-.103-.255-.105-.426-.294-.17-.19-.258-.456-.087-.266-.087-.575 0-.317.09-.582.092-.264.265-.45.172-.185.42-.283.247-.099.562-.099zm.791 1.414q0-.302-.097-.523-.098-.222-.28-.334-.18-.115-.414-.115-.167 0-.31.064-.14.062-.243.182-.101.12-.161.307-.058.186-.058.419 0 .234.058.423.06.19.167.315.108.124.247.186.14.062.307.062.214 0 .392-.107.18-.107.285-.33.107-.223.107-.55zm1.589-1.074v2h1.129q.135 0 .206.066.073.066.073.165 0 .101-.071.165-.072.062-.208.062h-1.345q-.182 0-.262-.08-.079-.081-.079-.261V745.5q0-.169.075-.253.077-.085.2-.085.126 0 .203.085.079.082.079.253z"/><path style="font-variant-ligatures:none;white-space:pre;shape-inside:url(#rect12816-2);paint-order:fill markers stroke" d="M468.75 747.68h.341v.281h-.341z"/><path d="M470.89 746.82v-1.322q0-.169.075-.253.077-.084.2-.084.13 0 .205.084.077.084.077.253v1.352q0 .23.05.386.053.154.184.24.131.085.368.085.326 0 .46-.173.136-.174.136-.527v-1.363q0-.17.075-.253.075-.084.2-.084.126 0 .203.084.079.083.079.253v1.322q0 .323-.064.538-.062.216-.236.379-.15.139-.349.202-.199.064-.465.064-.317 0-.546-.067-.228-.07-.373-.212-.144-.145-.211-.368-.068-.225-.068-.536zm4.7-1.15h-.607v1.997q0 .172-.077.257-.077.082-.2.082-.123 0-.202-.084-.076-.085-.076-.255v-1.997h-.608q-.142 0-.212-.062-.07-.064-.07-.167 0-.107.072-.169.073-.061.21-.061h1.77q.144 0 .214.063.07.064.07.167 0 .103-.07.167-.072.062-.214.062zm.64 1.99v-2.165q0-.17.077-.254.077-.084.199-.084.125 0 .202.084.079.083.079.254v2.165q0 .17-.079.255-.077.084-.202.084-.12 0-.2-.084-.076-.086-.076-.255zm2.39-2.5q.427 0 .733.174.308.173.465.493.158.32.158.75 0 .32-.087.58-.086.26-.258.452-.173.19-.424.292-.251.101-.576.101-.322 0-.577-.103-.255-.105-.426-.294-.17-.19-.258-.456-.087-.266-.087-.575 0-.317.09-.582.092-.264.265-.45.172-.185.42-.283.247-.099.562-.099zm.791 1.414q0-.302-.097-.523-.098-.222-.28-.334-.18-.115-.414-.115-.167 0-.31.064-.14.062-.243.182-.101.12-.161.307-.058.186-.058.419 0 .234.058.423.06.19.167.315.108.124.247.186.14.062.307.062.214 0 .392-.107.18-.107.285-.33.107-.223.107-.55zm1.759-1.084 1.07 1.62v-1.635q0-.16.068-.238.07-.08.186-.08.12 0 .189.08.07.079.07.238v2.162q0 .362-.3.362-.076 0-.136-.023-.06-.02-.112-.067-.053-.047-.098-.11l-.09-.129-1.044-1.6v1.61q0 .157-.073.238-.073.08-.187.08-.119 0-.19-.08-.071-.083-.071-.238v-2.12q0-.136.03-.212.036-.085.118-.137.083-.055.178-.055.075 0 .128.025.054.024.093.065.042.042.083.107zm4.28 1.64q0 .25-.13.448-.127.199-.374.311-.248.113-.587.113-.407 0-.671-.154-.188-.11-.306-.294-.116-.186-.116-.36 0-.101.07-.173.07-.073.18-.073.087 0 .147.056.062.057.105.167.053.131.113.22.062.088.172.146.11.056.29.056.248 0 .402-.114.156-.117.156-.29 0-.136-.085-.22-.082-.087-.215-.132-.132-.045-.353-.095-.296-.07-.497-.161-.198-.094-.316-.253-.117-.162-.117-.4 0-.227.124-.403.124-.176.358-.27.234-.096.551-.096.253 0 .437.064.186.062.308.167.122.103.178.218.056.114.056.223 0 .099-.071.18-.07.078-.175.078-.095 0-.146-.047-.049-.048-.107-.157-.075-.156-.18-.242-.105-.088-.337-.088-.216 0-.349.096-.131.093-.131.226 0 .083.045.143.045.06.124.103.078.043.159.068.08.024.266.07.233.055.42.12.19.066.32.16.134.094.207.238.075.143.075.35z"/></g><path d="M95.159 44.142a.643.612 0 0 0-.643.612.643.612 0 0 0 .643.612.643.612 0 0 0 .643-.612.643.612 0 0 0-.643-.612zm0 .12a.517.492 0 0 1 .517.492.517.492 0 0 1-.517.492.517.492 0 0 1-.517-.492.517.492 0 0 1 .517-.492z" style="stroke-width:.264879;paint-order:fill markers stroke"/><path d="M84.094 38.338h-.046v.2c0 .025-.006.044-.018.057a.062.059 0 0 1-.048.018.06.058 0 0 1-.048-.019c-.012-.013-.018-.032-.018-.057v-.552l.295-.001c.03 0 .055.001.076.004a.189.18 0 0 1 .111.049.18.172 0 0 1 .048.117.15.15 0 0 1-.041.11.237.237 0 0 1-.124.06.24.23 0 0 1 .067.052.538.538 0 0 1 .11.187.044.044 0 0 1-.008.025.055.052 0 0 1-.023.018.069.066 0 0 1-.033.007.063.06 0 0 1-.037-.01.1.096 0 0 1-.026-.025 1.253 1.193 0 0 1-.03-.044l-.052-.084a.471.449 0 0 0-.051-.07.124.118 0 0 0-.046-.033.156.149 0 0 0-.058-.009zm.076-.26h-.122v.17h.118a.349.349 0 0 0 .08-.008.093.093 0 0 0 .05-.026.08.076 0 0 0 .017-.052.083.079 0 0 0-.052-.075.301.301 0 0 0-.091-.009z" style="font-variant-ligatures:none" aria-label="R"/><path d="M95.472 44.879q0 .03-.02.063-.017.033-.055.064-.038.03-.095.048-.058.019-.13.019-.153 0-.24-.085-.085-.085-.085-.229 0-.096.039-.17.04-.075.114-.115.074-.041.178-.041.064 0 .118.018.053.018.09.046.038.028.057.06.02.032.02.06 0 .028-.022.047-.022.02-.053.02-.021 0-.035-.01-.013-.01-.03-.033-.03-.044-.064-.065-.032-.022-.083-.022-.074 0-.119.055-.044.054-.044.148 0 .045.011.082.012.037.033.064.022.026.053.04.031.012.068.012.05 0 .085-.021.036-.022.063-.067.015-.027.032-.042.018-.015.044-.015.03 0 .05.022.02.022.02.047z" style="font-variant-ligatures:none" aria-label="c"/><path d="M84.187 37.688a.643.612 0 0 0-.643.611.643.612 0 0 0 .643.612.643.612 0 0 0 .643-.612.643.612 0 0 0-.643-.611zm0 .12a.517.492 0 0 1 .517.491.517.492 0 0 1-.517.492.517.492 0 0 1-.517-.492.517.492 0 0 1 .517-.492z" style="stroke-width:.264879;paint-order:fill markers stroke"/><text x="42.532" y="58.227" font-family="sans-serif" font-size="4.939" stroke-width=".265" style="line-height:1.25" xml:space="preserve"><tspan x="42.532" y="58.227">urbancruiseship.org</tspan><tspan x="42.532" y="64.401">Exhibit constructed by</tspan><tspan x="42.532" y="70.574">Richard Burd 1-13-2023</tspan></text><text x="26.84" y="8.77" font-family="Calibri" font-size="10.583" font-weight="bold" stroke-width=".265" style="line-height:1.25" xml:space="preserve"><tspan x="26.84" y="8.77">Heat Pump Mandate</tspan></text><text x="125.148" y="18.429" font-size="5.29" style="font-weight:700;line-height:1.25;font-family:Calibri;fill:#000;stroke-width:.265" xml:space="preserve"><tspan x="125.148" y="18.429" style="fill:#000">$107.76</tspan></text><text x="55.433" y="27.698" font-size="5.29" style="font-weight:700;line-height:1.25;font-family:Calibri;fill:#000;stroke-width:.265" xml:space="preserve"><tspan x="55.433" y="27.698" style="fill:#000">$29.82 Million USD (annually)</tspan></text><text x="1.939" y="18.439" font-size="6.351" style="font-weight:700;line-height:1.25;font-family:Calibri;fill:#000;stroke-width:.265" xml:space="preserve"><tspan x="1.939" y="18.439" style="fill:#000">Benefit</tspan></text><text x="9.536" y="27.704" font-size="6.351" style="font-weight:700;line-height:1.25;font-family:Calibri;fill:#000;stroke-width:.265" xml:space="preserve"><tspan x="9.536" y="27.704" style="fill:#000">Cost</tspan></text><text xml:space="preserve" style="font-style:normal;font-variant:normal;font-weight:700;font-stretch:normal;font-size:5.57389px;line-height:1.25;font-family:Calibri;-inkscape-font-specification:'Calibri, Bold';font-variant-ligatures:normal;font-variant-caps:normal;font-variant-numeric:normal;font-variant-east-asian:normal;text-align:center;text-anchor:middle;white-space:pre;inline-size:40.0032;display:inline;fill:#000;fill-opacity:1;stroke:none;stroke-width:.264583" x="22.371" y="55.411" transform="translate(48.213 29.95)"><tspan x="22.371" y="55.411">44,100 thousand<tspan y="55.411"> </tspan></tspan><tspan x="22.371" y="62.378">metric tons of<tspan y="62.378"> </tspan></tspan><tspan x="22.371" y="69.346">CO   reduction<tspan y="69.346"> </tspan></tspan><tspan x="22.371" y="76.313">annually</tspan></text><text xml:space="preserve" style="font-style:normal;font-variant:normal;font-weight:700;font-stretch:normal;font-size:5.57389px;line-height:1.25;font-family:Calibri;-inkscape-font-specification:'Calibri, Bold';font-variant-ligatures:normal;font-variant-caps:normal;font-variant-numeric:normal;font-variant-east-asian:normal;text-align:center;text-anchor:middle;white-space:pre;inline-size:36.0271;display:inline;fill:#000;fill-opacity:1;stroke:none;stroke-width:.40577" x="22.371" y="55.411" transform="translate(47.17 64.248) scale(.65205)"><tspan x="22.371" y="55.411">2</tspan></text><g transform="matrix(.33612 0 0 .26458 -23.672 -18.341)" clip-path="url(#c)" style="fill:#000;stroke-width:.887217"><path d="M230.028 172H151v-9h79.028zm208.558-35H151v-9h287.586z" style="fill:#000;stroke-width:.887217"/></g></svg>