<svg height="288" viewBox="0 0 504 216" width="672" xmlns="http://www.w3.org/2000/svg" xmlns:xlink="http://www.w3.org/1999/xlink"><defs><style>*{stroke-linecap:butt;stroke-linejoin:round}</style></defs><g id="figure_1"><path d="M0 216h504V0H0z" fill="#fff" id="patch_1"/><g id="axes_1"><path d="M100.8 194.4H504v-162H100.8z" fill="#fff" id="patch_2"/><path clip-path="url(#p475bcd278d)" d="M100.8 181.958h80.64v-40.627H100.8z" fill="#aaa" id="patch_3"/><path clip-path="url(#p475bcd278d)" d="M100.8 131.174h290.304V90.547H100.8z" fill="#aaa" id="patch_4"/><path clip-path="url(#p475bcd278d)" d="M100.8 80.39H504V39.765H100.8z" fill="#aaa" id="patch_5"/><g id="matplotlib.axis_2"><g id="ytick_1"><g id="line2d_1"><defs><path d="M0 0h-3.5" id="meae5f2e3b4" stroke="#000" stroke-width=".8"/></defs><use x="100.8" xlink:href="#meae5f2e3b4" y="161.645" stroke="#000" stroke-width=".8"/></g><g transform="matrix(.1 0 0 -.1 28.07 165.444)" id="text_1"><defs><path d="M4122 4306v-665q-319 297-680 443-361 147-767 147-800 0-1225-489t-425-1414q0-922 425-1411t1225-489q406 0 767 147t680 444V359q-331-225-702-338-370-112-782-112-1060 0-1670 648-609 649-609 1771 0 1125 609 1773 610 649 1670 649 418 0 788-111 371-111 696-333z" id="DejaVuSans-43" transform="scale(.01563)"/><path d="M1959 3097q-462 0-731-361t-269-989q0-628 267-989 268-361 733-361 460 0 728 362 269 363 269 988 0 622-269 986-268 364-728 364zm0 487q750 0 1178-488 429-487 429-1349 0-859-429-1349Q2709-91 1959-91q-753 0-1180 489-426 490-426 1349 0 862 426 1349 427 488 1180 488z" id="DejaVuSans-6f" transform="scale(.01563)"/><path d="M3513 2113V0h-575v2094q0 497-194 743-194 247-581 247-466 0-735-297-269-296-269-809V0H581v3500h578v-544q207 316 486 472 280 156 646 156 603 0 912-373 310-373 310-1098z" id="DejaVuSans-6e" transform="scale(.01563)"/><path d="M2834 3397v-544q-243 125-506 187-262 63-544 63-428 0-642-131t-214-394q0-200 153-314t616-217l197-44q612-131 870-370t258-667q0-488-386-773Q2250-91 1575-91q-281 0-586 55T347 128v594q319-166 628-249 309-82 613-82 406 0 624 139 219 139 219 392 0 234-158 359-157 125-692 241l-200 47q-534 112-772 345-237 233-237 639 0 494 350 762 350 269 994 269 318 0 599-47 282-46 519-140z" id="DejaVuSans-73" transform="scale(.01563)"/><path d="M3597 1894v-281H953q38-594 358-905t892-311q331 0 642 81t618 244V178Q3153 47 2828-22t-659-69q-838 0-1327 487-489 488-489 1320 0 859 464 1363 464 505 1252 505 706 0 1117-455 411-454 411-1235zm-575 169q-6 471-264 752-258 282-683 282-481 0-770-272t-333-766l2050 4z" id="DejaVuSans-65" transform="scale(.01563)"/><path d="M2631 2963q-97 56-211 82-114 27-251 27-488 0-749-317t-261-911V0H581v3500h578v-544q182 319 472 473 291 155 707 155 59 0 131-8 72-7 159-23l3-590z" id="DejaVuSans-72" transform="scale(.01563)"/><path d="M191 3500h609L1894 563l1094 2937h609L2284 0h-781L191 3500z" id="DejaVuSans-76" transform="scale(.01563)"/><path d="M2194 1759q-697 0-966-159t-269-544q0-306 202-486 202-179 548-179 479 0 768 339t289 901v128h-572zm1147 238V0h-575v531q-197-318-491-470T1556-91q-537 0-855 302-317 302-317 808 0 590 395 890 396 300 1180 300h807v57q0 397-261 614t-733 217q-300 0-585-72-284-72-546-216v532q315 122 612 182 297 61 578 61 760 0 1135-394 375-393 375-1193z" id="DejaVuSans-61" transform="scale(.01563)"/><path d="M1172 4494v-994h1184v-447H1172V1153q0-428 117-550t477-122h590V0h-590q-666 0-919 248-253 249-253 905v1900H172v447h422v994h578z" id="DejaVuSans-74" transform="scale(.01563)"/><path d="M603 3500h575V0H603v3500zm0 1363h575v-729H603v729z" id="DejaVuSans-69" transform="scale(.01563)"/></defs><use xlink:href="#DejaVuSans-43"/><use x="69.824" xlink:href="#DejaVuSans-6f"/><use x="131.006" xlink:href="#DejaVuSans-6e"/><use x="194.385" xlink:href="#DejaVuSans-73"/><use x="246.484" xlink:href="#DejaVuSans-65"/><use x="308.008" xlink:href="#DejaVuSans-72"/><use x="349.121" xlink:href="#DejaVuSans-76"/><use x="408.301" xlink:href="#DejaVuSans-61"/><use x="469.58" xlink:href="#DejaVuSans-74"/><use x="508.789" xlink:href="#DejaVuSans-69"/><use x="536.572" xlink:href="#DejaVuSans-76"/><use x="595.752" xlink:href="#DejaVuSans-65"/></g></g><g id="ytick_2"><use x="100.8" xlink:href="#meae5f2e3b4" y="110.861" stroke="#000" stroke-width=".8" id="line2d_2"/><g transform="matrix(.1 0 0 -.1 52.734 114.66)" id="text_2"><defs><path d="M2188 4044l-857-2322h1716l-859 2322zm-357 622h716L4325 0h-656l-425 1197H1141L716 0H50l1781 4666z" id="DejaVuSans-41" transform="scale(.01563)"/><path d="M2906 1791q0 625-258 968-257 344-723 344-462 0-720-344-258-343-258-968 0-622 258-966t720-344q466 0 723 344 258 344 258 966zm575-1357q0-893-397-1329-396-436-1215-436-303 0-572 45t-522 139v559q253-137 500-202 247-66 503-66 566 0 847 295t281 892v285q-178-310-456-463T1784 0Q1141 0 747 490 353 981 353 1791q0 812 394 1302 394 491 1037 491 388 0 666-153t456-462v531h575V434z" id="DejaVuSans-67" transform="scale(.01563)"/></defs><use xlink:href="#DejaVuSans-41"/><use x="62.533" xlink:href="#DejaVuSans-76"/><use x="121.713" xlink:href="#DejaVuSans-65"/><use x="183.236" xlink:href="#DejaVuSans-72"/><use x="224.35" xlink:href="#DejaVuSans-61"/><use x="285.629" xlink:href="#DejaVuSans-67"/><use x="349.105" xlink:href="#DejaVuSans-65"/></g></g><g id="ytick_3"><use x="100.8" xlink:href="#meae5f2e3b4" y="60.077" stroke="#000" stroke-width=".8" id="line2d_3"/><g transform="matrix(.1 0 0 -.1 45.856 63.876)" id="text_3"><defs><path d="M3809 666v1253H2778v519h1656V434q-365-259-806-392-440-133-940-133-1094 0-1712 639-617 640-617 1780 0 1144 617 1783 618 639 1712 639 456 0 867-113 411-112 758-331v-672q-350 297-744 447t-828 150q-857 0-1287-478-429-478-429-1425 0-944 429-1422 430-478 1287-478 334 0 596 58 263 58 472 180z" id="DejaVuSans-47" transform="scale(.01563)"/><path d="M544 1381v2119h575V1403q0-497 193-746 194-248 582-248 465 0 735 297 271 297 271 810v1984h575V0h-575v538q-209-319-486-474-276-155-642-155-603 0-916 375-312 375-312 1097zm1447 2203z" id="DejaVuSans-75" transform="scale(.01563)"/></defs><use xlink:href="#DejaVuSans-47"/><use x="77.49" xlink:href="#DejaVuSans-65"/><use x="139.014" xlink:href="#DejaVuSans-6e"/><use x="202.393" xlink:href="#DejaVuSans-65"/><use x="263.916" xlink:href="#DejaVuSans-72"/><use x="302.779" xlink:href="#DejaVuSans-6f"/><use x="363.961" xlink:href="#DejaVuSans-75"/><use x="427.34" xlink:href="#DejaVuSans-73"/></g></g></g><path clip-path="url(#p475bcd278d)" d="M100.8 187.036V39.764" fill="none" stroke="#000" stroke-linecap="square" stroke-opacity=".2" id="line2d_4"/><path clip-path="url(#p475bcd278d)" d="M201.6 187.036V39.764" fill="none" stroke="#000" stroke-linecap="square" stroke-opacity=".2" id="line2d_5"/><path clip-path="url(#p475bcd278d)" d="M302.4 187.036V39.764" fill="none" stroke="#000" stroke-linecap="square" stroke-opacity=".2" id="line2d_6"/><path clip-path="url(#p475bcd278d)" d="M403.2 187.036V39.764" fill="none" stroke="#000" stroke-linecap="square" stroke-opacity=".2" id="line2d_7"/><path clip-path="url(#p475bcd278d)" d="M504 187.036V39.764" fill="none" stroke="#000" stroke-linecap="square" stroke-opacity=".2" id="line2d_8"/><g transform="matrix(.16 0 0 -.16 151.963 166.723)" id="text_4"><defs><path d="M2419 4116L825 1625h1594v2491zm-166 550h794V1625h666v-525h-666V0h-628v1100H313v609l1940 2957z" id="DejaVuSans-34" transform="scale(.01563)"/><path d="M684 794h660V0H684v794z" id="DejaVuSans-2e" transform="scale(.01563)"/><path d="M2034 4250q-487 0-733-480-245-479-245-1442 0-959 245-1439 246-480 733-480 491 0 736 480 246 480 246 1439 0 963-246 1442-245 480-736 480zm0 500q785 0 1199-621 414-620 414-1801 0-1178-414-1799Q2819-91 2034-91q-784 0-1198 620-414 621-414 1799 0 1181 414 1801 414 621 1198 621z" id="DejaVuSans-30" transform="scale(.01563)"/></defs><use xlink:href="#DejaVuSans-34"/><use x="63.623" xlink:href="#DejaVuSans-2e"/><use x="95.41" xlink:href="#DejaVuSans-30"/></g><g transform="matrix(.16 0 0 -.16 351.447 115.94)" id="text_5"><defs><path d="M794 531h1031v3560L703 3866v575l1116 225h631V531h1031V0H794v531z" id="DejaVuSans-31" transform="scale(.01563)"/></defs><use xlink:href="#DejaVuSans-31"/><use x="63.623" xlink:href="#DejaVuSans-34"/><use x="127.246" xlink:href="#DejaVuSans-2e"/><use x="159.033" xlink:href="#DejaVuSans-34"/></g><g transform="matrix(.16 0 0 -.16 464.343 65.155)" id="text_6"><defs><path d="M1228 531h2203V0H469v531q359 372 979 998 621 627 780 809 303 340 423 576 121 236 121 464 0 372-261 606-261 235-680 235-297 0-627-103-329-103-704-313v638q381 153 712 231 332 78 607 78 725 0 1156-363 431-362 431-968 0-288-108-546-107-257-392-607-78-91-497-524-418-433-1181-1211z" id="DejaVuSans-32" transform="scale(.01563)"/></defs><use xlink:href="#DejaVuSans-32"/><use x="63.623" xlink:href="#DejaVuSans-30"/><use x="127.246" xlink:href="#DejaVuSans-2e"/><use x="159.033" xlink:href="#DejaVuSans-30"/></g><g transform="matrix(.12 0 0 -.12 188.19 26.4)" id="text_7"><defs><path d="M2841 2188q203-69 395-294t386-619L4263 0h-679l-596 1197q-232 469-449 622t-592 153h-688V0H628v4666h1425q800 0 1194-335 394-334 394-1009 0-441-205-732-205-290-595-402zM1259 4147V2491h794q456 0 689 211t233 620q0 409-233 617t-689 208h-794z" id="DejaVuSans-52" transform="scale(.01563)"/><path d="M3122 3366v-538q-244 135-489 202t-495 67q-560 0-870-355-309-354-309-995t309-996q310-354 870-354 250 0 495 67t489 202V134Q2881 22 2623-34q-257-57-548-57-791 0-1257 497-465 497-465 1341 0 856 470 1346 471 491 1290 491 265 0 518-55 253-54 491-163z" id="DejaVuSans-63" transform="scale(.01563)"/><path d="M3513 2113V0h-575v2094q0 497-194 743-194 247-581 247-466 0-735-297-269-296-269-809V0H581v4863h578V2956q207 316 486 472 280 156 646 156 603 0 912-373 310-373 310-1098z" id="DejaVuSans-68" transform="scale(.01563)"/><path d="M2906 2969v1894h575V0h-575v525q-181-312-458-464-276-152-664-152-634 0-1033 506-398 507-398 1332t398 1331q399 506 1033 506 388 0 664-152 277-151 458-463zM947 1747q0-634 261-995t717-361q456 0 718 361 263 361 263 995t-263 995q-262 361-718 361t-717-361q-261-361-261-995z" id="DejaVuSans-64" transform="scale(.01563)"/><path d="M1259 4147V519h763q966 0 1414 437 448 438 448 1382 0 937-448 1373t-1414 436h-763zm-631 519h1297q1356 0 1990-564 635-564 635-1764 0-1207-638-1773Q3275 0 1925 0H628v4666z" id="DejaVuSans-44" transform="scale(.01563)"/><path d="M603 4863h575V0H603v4863z" id="DejaVuSans-6c" transform="scale(.01563)"/><path d="M1159 525v-1856H581v4831h578v-531q182 312 458 463 277 152 661 152 638 0 1036-506 399-506 399-1331T3314 415Q2916-91 2278-91q-384 0-661 152-276 152-458 464zm1957 1222q0 634-261 995t-717 361q-457 0-718-361t-261-995q0-634 261-995t718-361q456 0 717 361t261 995z" id="DejaVuSans-70" transform="scale(.01563)"/><path d="M3328 2828q216 388 516 572t706 184q547 0 844-383 297-382 297-1088V0h-578v2094q0 503-179 746-178 244-543 244-447 0-707-297-259-296-259-809V0h-578v2094q0 506-178 748t-550 242q-441 0-701-298-259-298-259-808V0H581v3500h578v-544q197 322 472 475t653 153q382 0 649-194 267-193 395-562z" id="DejaVuSans-6d" transform="scale(.01563)"/></defs><use xlink:href="#DejaVuSans-52"/><use x="64.982" xlink:href="#DejaVuSans-65"/><use x="126.506" xlink:href="#DejaVuSans-74"/><use x="165.715" xlink:href="#DejaVuSans-75"/><use x="229.094" xlink:href="#DejaVuSans-72"/><use x="268.457" xlink:href="#DejaVuSans-6e"/><use x="331.836" xlink:href="#DejaVuSans-20"/><use x="363.623" xlink:href="#DejaVuSans-6f"/><use x="424.805" xlink:href="#DejaVuSans-6e"/><use x="488.184" xlink:href="#DejaVuSans-20"/><use x="519.971" xlink:href="#DejaVuSans-52"/><use x="584.953" xlink:href="#DejaVuSans-65"/><use x="646.477" xlink:href="#DejaVuSans-73"/><use x="698.576" xlink:href="#DejaVuSans-65"/><use x="760.1" xlink:href="#DejaVuSans-61"/><use x="821.379" xlink:href="#DejaVuSans-72"/><use x="860.242" xlink:href="#DejaVuSans-63"/><use x="915.223" xlink:href="#DejaVuSans-68"/><use x="978.602" xlink:href="#DejaVuSans-20"/><use x="1010.389" xlink:href="#DejaVuSans-61"/><use x="1071.668" xlink:href="#DejaVuSans-6e"/><use x="1135.047" xlink:href="#DejaVuSans-64"/><use x="1198.523" xlink:href="#DejaVuSans-20"/><use x="1230.311" xlink:href="#DejaVuSans-44"/><use x="1307.313" xlink:href="#DejaVuSans-65"/><use x="1368.836" xlink:href="#DejaVuSans-76"/><use x="1428.016" xlink:href="#DejaVuSans-65"/><use x="1489.539" xlink:href="#DejaVuSans-6c"/><use x="1517.322" xlink:href="#DejaVuSans-6f"/><use x="1578.504" xlink:href="#DejaVuSans-70"/><use x="1641.98" xlink:href="#DejaVuSans-6d"/><use x="1739.393" xlink:href="#DejaVuSans-65"/><use x="1800.916" xlink:href="#DejaVuSans-6e"/><use x="1864.295" xlink:href="#DejaVuSans-74"/></g></g></g><defs><clipPath id="p475bcd278d"><path d="M100.8 32.4H504v162H100.8z"/></clipPath></defs></svg>