<svg width="340" height="500" viewBox="0 0 89.958 132.292" xml:space="preserve" xmlns="http://www.w3.org/2000/svg"><path style="opacity:.675944;fill:#ff9000;fill-opacity:1;stroke-width:2;stroke-linecap:square" d="M6.328 154.15h2.646v2.646H6.328z" transform="rotate(-90 -10.411 149.03)"/><path style="opacity:.675944;fill:#ffcd67;fill-opacity:1;stroke-width:2;stroke-linecap:square" d="M8.974 154.15h2.646v2.646H8.974z" transform="rotate(-90 -10.411 149.03)"/><path style="opacity:.675944;fill:#ff9000;fill-opacity:1;stroke-width:2;stroke-linecap:square" d="M11.62 154.15h2.646v2.646H11.62z" transform="rotate(-90 -10.411 149.03)"/><path style="opacity:.675944;fill:#ffcd67;fill-opacity:1;stroke-width:2;stroke-linecap:square" d="M14.265 154.15h2.646v2.646h-2.646z" transform="rotate(-90 -10.411 149.03)"/><path style="opacity:.675944;fill:#ff9000;fill-opacity:1;stroke-width:2;stroke-linecap:square" d="M16.911 154.15h2.646v2.646h-2.646z" transform="rotate(-90 -10.411 149.03)"/><path style="opacity:.675944;fill:#ffcd67;fill-opacity:1;stroke-width:2;stroke-linecap:square" d="M19.557 154.15h2.646v2.646h-2.646z" transform="rotate(-90 -10.411 149.03)"/><path style="opacity:.675944;fill:#ff9000;fill-opacity:1;stroke-width:2;stroke-linecap:square" d="M22.203 154.15h2.646v2.646h-2.646z" transform="rotate(-90 -10.411 149.03)"/><path style="opacity:.675944;fill:#ffcd67;fill-opacity:1;stroke-width:2;stroke-linecap:square" d="M24.849 154.15h2.646v2.646h-2.646z" transform="rotate(-90 -10.411 149.03)"/><path style="opacity:.675944;fill:#ff9000;fill-opacity:1;stroke-width:2;stroke-linecap:square" d="M27.495 154.15h2.646v2.646h-2.646z" transform="rotate(-90 -10.411 149.03)"/><path style="opacity:.675944;fill:#ffcd67;fill-opacity:1;stroke-width:2;stroke-linecap:square" d="M30.14 154.15h2.646v2.646H30.14z" transform="rotate(-90 -10.411 149.03)"/><g><path style="opacity:.675944;fill:#c7ff00;stroke-width:2;stroke-linecap:square" d="M6.328 154.15h2.646v2.646H6.328z" transform="rotate(-90 -23.64 135.802)"/><path style="opacity:.675944;fill:#f9ff67;fill-opacity:1;stroke-width:2;stroke-linecap:square" d="M8.974 154.15h2.646v2.646H8.974z" transform="rotate(-90 -23.64 135.802)"/><path style="opacity:.675944;fill:#c7ff00;stroke-width:2;stroke-linecap:square" d="M11.62 154.15h2.646v2.646H11.62z" transform="rotate(-90 -23.64 135.802)"/><path style="opacity:.675944;fill:#f9ff67;fill-opacity:1;stroke-width:2;stroke-linecap:square" d="M14.265 154.15h2.646v2.646h-2.646z" transform="rotate(-90 -23.64 135.802)"/><path style="opacity:.675944;fill:#c7ff00;stroke-width:2;stroke-linecap:square" d="M16.911 154.15h2.646v2.646h-2.646z" transform="rotate(-90 -23.64 135.802)"/><path style="opacity:.675944;fill:#f9ff67;fill-opacity:1;stroke-width:2;stroke-linecap:square" d="M19.557 154.15h2.646v2.646h-2.646z" transform="rotate(-90 -23.64 135.802)"/><path style="opacity:.675944;fill:#c7ff00;stroke-width:2;stroke-linecap:square" d="M22.203 154.15h2.646v2.646h-2.646z" transform="rotate(-90 -23.64 135.802)"/><path style="opacity:.675944;fill:#f9ff67;fill-opacity:1;stroke-width:2;stroke-linecap:square" d="M24.849 154.15h2.646v2.646h-2.646z" transform="rotate(-90 -23.64 135.802)"/><path style="opacity:.675944;fill:#c7ff00;stroke-width:2;stroke-linecap:square" d="M27.495 154.15h2.646v2.646h-2.646z" transform="rotate(-90 -23.64 135.802)"/><path style="opacity:.675944;fill:#f9ff67;fill-opacity:1;stroke-width:2;stroke-linecap:square" d="M30.14 154.15h2.646v2.646H30.14z" transform="rotate(-90 -23.64 135.802)"/></g><g><path style="opacity:.675944;fill:#ff9000;fill-opacity:1;stroke-width:2;stroke-linecap:square" d="M6.328 154.15h2.646v2.646H6.328z" transform="rotate(-90 -36.87 122.572)"/><path style="opacity:.675944;fill:#ffcd67;fill-opacity:1;stroke-width:2;stroke-linecap:square" d="M8.974 154.15h2.646v2.646H8.974z" transform="rotate(-90 -36.87 122.572)"/><path style="opacity:.675944;fill:#ff9000;fill-opacity:1;stroke-width:2;stroke-linecap:square" d="M11.62 154.15h2.646v2.646H11.62z" transform="rotate(-90 -36.87 122.572)"/><path style="opacity:.675944;fill:#ffcd67;fill-opacity:1;stroke-width:2;stroke-linecap:square" d="M14.265 154.15h2.646v2.646h-2.646z" transform="rotate(-90 -36.87 122.572)"/><path style="opacity:.675944;fill:#ff9000;fill-opacity:1;stroke-width:2;stroke-linecap:square" d="M16.911 154.15h2.646v2.646h-2.646z" transform="rotate(-90 -36.87 122.572)"/><path style="opacity:.675944;fill:#ffcd67;fill-opacity:1;stroke-width:2;stroke-linecap:square" d="M19.557 154.15h2.646v2.646h-2.646z" transform="rotate(-90 -36.87 122.572)"/><path style="opacity:.675944;fill:#ff9000;fill-opacity:1;stroke-width:2;stroke-linecap:square" d="M22.203 154.15h2.646v2.646h-2.646z" transform="rotate(-90 -36.87 122.572)"/><path style="opacity:.675944;fill:#ffcd67;fill-opacity:1;stroke-width:2;stroke-linecap:square" d="M24.849 154.15h2.646v2.646h-2.646z" transform="rotate(-90 -36.87 122.572)"/><path style="opacity:.675944;fill:#ff9000;fill-opacity:1;stroke-width:2;stroke-linecap:square" d="M27.495 154.15h2.646v2.646h-2.646z" transform="rotate(-90 -36.87 122.572)"/><path style="opacity:.675944;fill:#ffcd67;fill-opacity:1;stroke-width:2;stroke-linecap:square" d="M30.14 154.15h2.646v2.646H30.14z" transform="rotate(-90 -36.87 122.572)"/></g><g><path style="opacity:.675944;fill:#c7ff00;stroke-width:2;stroke-linecap:square" d="M6.328 154.15h2.646v2.646H6.328z" transform="rotate(-90 -50.099 109.343)"/><path style="opacity:.675944;fill:#f9ff67;fill-opacity:1;stroke-width:2;stroke-linecap:square" d="M8.974 154.15h2.646v2.646H8.974z" transform="rotate(-90 -50.099 109.343)"/><path style="opacity:.675944;fill:#c7ff00;stroke-width:2;stroke-linecap:square" d="M11.62 154.15h2.646v2.646H11.62z" transform="rotate(-90 -50.099 109.343)"/><path style="opacity:.675944;fill:#f9ff67;fill-opacity:1;stroke-width:2;stroke-linecap:square" d="M14.265 154.15h2.646v2.646h-2.646z" transform="rotate(-90 -50.099 109.343)"/><path style="opacity:.675944;fill:#c7ff00;stroke-width:2;stroke-linecap:square" d="M16.911 154.15h2.646v2.646h-2.646z" transform="rotate(-90 -50.099 109.343)"/><path style="opacity:.675944;fill:#f9ff67;fill-opacity:1;stroke-width:2;stroke-linecap:square" d="M19.557 154.15h2.646v2.646h-2.646z" transform="rotate(-90 -50.099 109.343)"/><path style="opacity:.675944;fill:#c7ff00;stroke-width:2;stroke-linecap:square" d="M22.203 154.15h2.646v2.646h-2.646z" transform="rotate(-90 -50.099 109.343)"/><path style="opacity:.675944;fill:#f9ff67;fill-opacity:1;stroke-width:2;stroke-linecap:square" d="M24.849 154.15h2.646v2.646h-2.646z" transform="rotate(-90 -50.099 109.343)"/><path style="opacity:.675944;fill:#c7ff00;stroke-width:2;stroke-linecap:square" d="M27.495 154.15h2.646v2.646h-2.646z" transform="rotate(-90 -50.099 109.343)"/><path style="opacity:.675944;fill:#f9ff67;fill-opacity:1;stroke-width:2;stroke-linecap:square" d="M30.14 154.15h2.646v2.646H30.14z" transform="rotate(-90 -50.099 109.343)"/></g><g><path style="opacity:.675944;fill:#ff9000;fill-opacity:1;stroke-width:2;stroke-linecap:square" d="M6.328 154.15h2.646v2.646H6.328z" transform="rotate(-90 -63.328 96.114)"/><path style="opacity:.675944;fill:#ffcd67;fill-opacity:1;stroke-width:2;stroke-linecap:square" d="M8.974 154.15h2.646v2.646H8.974z" transform="rotate(-90 -63.328 96.114)"/><path style="opacity:.675944;fill:#ff9000;fill-opacity:1;stroke-width:2;stroke-linecap:square" d="M11.62 154.15h2.646v2.646H11.62z" transform="rotate(-90 -63.328 96.114)"/><path style="opacity:.675944;fill:#ffcd67;fill-opacity:1;stroke-width:2;stroke-linecap:square" d="M14.265 154.15h2.646v2.646h-2.646z" transform="rotate(-90 -63.328 96.114)"/><path style="opacity:.675944;fill:#ff9000;fill-opacity:1;stroke-width:2;stroke-linecap:square" d="M16.911 154.15h2.646v2.646h-2.646z" transform="rotate(-90 -63.328 96.114)"/><path style="opacity:.675944;fill:#ffcd67;fill-opacity:1;stroke-width:2;stroke-linecap:square" d="M19.557 154.15h2.646v2.646h-2.646z" transform="rotate(-90 -63.328 96.114)"/><path style="opacity:.675944;fill:#ff9000;fill-opacity:1;stroke-width:2;stroke-linecap:square" d="M22.203 154.15h2.646v2.646h-2.646z" transform="rotate(-90 -63.328 96.114)"/><path style="opacity:.675944;fill:#ffcd67;fill-opacity:1;stroke-width:2;stroke-linecap:square" d="M24.849 154.15h2.646v2.646h-2.646z" transform="rotate(-90 -63.328 96.114)"/><path style="opacity:.675944;fill:#ff9000;fill-opacity:1;stroke-width:2;stroke-linecap:square" d="M27.495 154.15h2.646v2.646h-2.646z" transform="rotate(-90 -63.328 96.114)"/><path style="opacity:.675944;fill:#ffcd67;fill-opacity:1;stroke-width:2;stroke-linecap:square" d="M30.14 154.15h2.646v2.646H30.14z" transform="rotate(-90 -63.328 96.114)"/></g><text xml:space="preserve" style="font-style:italic;font-weight:700;font-size:20.9351px;line-height:1.25;font-family:Roboto;fill:#85a21d;fill-opacity:1;stroke:none;stroke-width:.264584;-inkscape-font-specification:'Roboto, Bold Italic';font-stretch:normal;font-variant:normal;font-variant-ligatures:normal;font-variant-caps:normal;font-variant-numeric:normal;font-variant-east-asian:normal" x="-4.421" y="-29.11"><tspan x="-4.421" y="-29.11" style="font-style:italic;font-variant:normal;font-weight:700;font-stretch:normal;font-family:Roboto;-inkscape-font-specification:'Roboto, Bold Italic';fill:#85a21d;fill-opacity:1;stroke-width:.264584;font-size:20.9351009px;font-variant-ligatures:normal;font-variant-caps:normal;font-variant-numeric:normal;font-variant-east-asian:normal">340pixel width (desktop)</tspan></text><text xml:space="preserve" style="font-style:italic;font-weight:700;font-size:20.9351px;line-height:1.25;font-family:Roboto;fill:#85a21d;fill-opacity:1;stroke:none;stroke-width:.264584;-inkscape-font-specification:'Roboto, Bold Italic';font-stretch:normal;font-variant:normal;font-variant-ligatures:normal;font-variant-caps:normal;font-variant-numeric:normal;font-variant-east-asian:normal" x="-5.977" y="156.672"><tspan x="-5.977" y="156.672" style="font-style:italic;font-variant:normal;font-weight:700;font-stretch:normal;font-family:Roboto;-inkscape-font-specification:'Roboto, Bold Italic';fill:#85a21d;fill-opacity:1;stroke-width:.264584;font-size:20.9351009px;font-variant-ligatures:normal;font-variant-caps:normal;font-variant-numeric:normal;font-variant-east-asian:normal">500pixel height</tspan></text><text xml:space="preserve" style="font-style:italic;font-weight:700;font-size:8.92346px;line-height:1.25;font-family:Roboto;fill:#4f9223;fill-opacity:1;stroke:none;stroke-width:.264585;-inkscape-font-specification:'Roboto, Bold Italic';font-stretch:normal;font-variant:normal;font-variant-ligatures:normal;font-variant-caps:normal;font-variant-numeric:normal;font-variant-east-asian:normal" x="-3.615" y="-15.09"><tspan x="-3.615" y="-15.09" style="font-style:italic;font-variant:normal;font-weight:700;font-stretch:normal;font-family:Roboto;-inkscape-font-specification:'Roboto, Bold Italic';fill:#4f9223;fill-opacity:1;stroke-width:.264585;font-size:8.92346032px;font-variant-ligatures:normal;font-variant-caps:normal;font-variant-numeric:normal;font-variant-east-asian:normal">This is the standard mobile width and it does not change</tspan></text><text xml:space="preserve" style="font-style:italic;font-variant:normal;font-weight:700;font-stretch:normal;font-size:8.92346px;line-height:1;font-family:Roboto;-inkscape-font-specification:'Roboto, Bold Italic';font-variant-ligatures:normal;font-variant-caps:normal;font-variant-numeric:normal;font-variant-east-asian:normal;white-space:pre;inline-size:141.059;display:inline;fill:#4f9223;fill-opacity:1;stroke:none;stroke-width:.264585" x="-1.698" y="170.536" transform="translate(-3.902 1.1)"><tspan x="-1.698" y="170.536">This dimension is flexible and can </tspan><tspan x="-1.698" y="179.46">change as needed</tspan></text><g><path style="opacity:.675944;fill:#3489ff;fill-opacity:1;stroke-width:2;stroke-linecap:square" d="M35.361 228.054h2.646v2.646h-2.646zM30.069 228.054h2.646v2.646h-2.646z" transform="rotate(180 60.014 112.704)"/><path style="opacity:.675944;fill:#34ffe4;fill-opacity:1;stroke-width:2;stroke-linecap:square" d="M38.007 228.054h2.646v2.646h-2.646zM32.715 228.054h2.646v2.646h-2.646z" transform="rotate(180 60.014 112.704)"/><g><path style="opacity:.675944;fill:#ff9000;fill-opacity:1;stroke-width:2;stroke-linecap:square" d="M6.328 154.15h2.646v2.646H6.328z" transform="rotate(180 42.851 75.752)"/><path style="opacity:.675944;fill:#ffcd67;fill-opacity:1;stroke-width:2;stroke-linecap:square" d="M8.974 154.15h2.646v2.646H8.974z" transform="rotate(180 42.851 75.752)"/><path style="opacity:.675944;fill:#ff9000;fill-opacity:1;stroke-width:2;stroke-linecap:square" d="M11.62 154.15h2.646v2.646H11.62z" transform="rotate(180 42.851 75.752)"/><path style="opacity:.675944;fill:#ffcd67;fill-opacity:1;stroke-width:2;stroke-linecap:square" d="M14.265 154.15h2.646v2.646h-2.646z" transform="rotate(180 42.851 75.752)"/><path style="opacity:.675944;fill:#ff9000;fill-opacity:1;stroke-width:2;stroke-linecap:square" d="M16.911 154.15h2.646v2.646h-2.646z" transform="rotate(180 42.851 75.752)"/><path style="opacity:.675944;fill:#ffcd67;fill-opacity:1;stroke-width:2;stroke-linecap:square" d="M19.557 154.15h2.646v2.646h-2.646z" transform="rotate(180 42.851 75.752)"/><path style="opacity:.675944;fill:#ff9000;fill-opacity:1;stroke-width:2;stroke-linecap:square" d="M22.203 154.15h2.646v2.646h-2.646z" transform="rotate(180 42.851 75.752)"/><path style="opacity:.675944;fill:#ffcd67;fill-opacity:1;stroke-width:2;stroke-linecap:square" d="M24.849 154.15h2.646v2.646h-2.646z" transform="rotate(180 42.851 75.752)"/><path style="opacity:.675944;fill:#ff9000;fill-opacity:1;stroke-width:2;stroke-linecap:square" d="M27.495 154.15h2.646v2.646h-2.646z" transform="rotate(180 42.851 75.752)"/><path style="opacity:.675944;fill:#ffcd67;fill-opacity:1;stroke-width:2;stroke-linecap:square" d="M30.14 154.15h2.646v2.646H30.14z" transform="rotate(180 42.851 75.752)"/></g><g><path style="opacity:.675944;fill:#c7ff00;stroke-width:2;stroke-linecap:square" d="M6.328 154.15h2.646v2.646H6.328z" transform="rotate(180 29.622 75.752)"/><path style="opacity:.675944;fill:#f9ff67;fill-opacity:1;stroke-width:2;stroke-linecap:square" d="M8.974 154.15h2.646v2.646H8.974z" transform="rotate(180 29.622 75.752)"/><path style="opacity:.675944;fill:#c7ff00;stroke-width:2;stroke-linecap:square" d="M11.62 154.15h2.646v2.646H11.62z" transform="rotate(180 29.622 75.752)"/><path style="opacity:.675944;fill:#f9ff67;fill-opacity:1;stroke-width:2;stroke-linecap:square" d="M14.265 154.15h2.646v2.646h-2.646z" transform="rotate(180 29.622 75.752)"/><path style="opacity:.675944;fill:#c7ff00;stroke-width:2;stroke-linecap:square" d="M16.911 154.15h2.646v2.646h-2.646z" transform="rotate(180 29.622 75.752)"/><path style="opacity:.675944;fill:#f9ff67;fill-opacity:1;stroke-width:2;stroke-linecap:square" d="M19.557 154.15h2.646v2.646h-2.646z" transform="rotate(180 29.622 75.752)"/><path style="opacity:.675944;fill:#c7ff00;stroke-width:2;stroke-linecap:square" d="M22.203 154.15h2.646v2.646h-2.646z" transform="rotate(180 29.622 75.752)"/><path style="opacity:.675944;fill:#f9ff67;fill-opacity:1;stroke-width:2;stroke-linecap:square" d="M24.849 154.15h2.646v2.646h-2.646z" transform="rotate(180 29.622 75.752)"/><path style="opacity:.675944;fill:#c7ff00;stroke-width:2;stroke-linecap:square" d="M27.495 154.15h2.646v2.646h-2.646z" transform="rotate(180 29.622 75.752)"/><path style="opacity:.675944;fill:#f9ff67;fill-opacity:1;stroke-width:2;stroke-linecap:square" d="M30.14 154.15h2.646v2.646H30.14z" transform="rotate(180 29.622 75.752)"/></g><g><path style="opacity:.675944;fill:#ff9000;fill-opacity:1;stroke-width:2;stroke-linecap:square" d="M6.328 154.15h2.646v2.646H6.328z" transform="rotate(180 16.393 75.752)"/><path style="opacity:.675944;fill:#ffcd67;fill-opacity:1;stroke-width:2;stroke-linecap:square" d="M8.974 154.15h2.646v2.646H8.974z" transform="rotate(180 16.393 75.752)"/><path style="opacity:.675944;fill:#ff9000;fill-opacity:1;stroke-width:2;stroke-linecap:square" d="M11.62 154.15h2.646v2.646H11.62z" transform="rotate(180 16.393 75.752)"/><path style="opacity:.675944;fill:#ffcd67;fill-opacity:1;stroke-width:2;stroke-linecap:square" d="M14.265 154.15h2.646v2.646h-2.646z" transform="rotate(180 16.393 75.752)"/><path style="opacity:.675944;fill:#ff9000;fill-opacity:1;stroke-width:2;stroke-linecap:square" d="M16.911 154.15h2.646v2.646h-2.646z" transform="rotate(180 16.393 75.752)"/><path style="opacity:.675944;fill:#ffcd67;fill-opacity:1;stroke-width:2;stroke-linecap:square" d="M19.557 154.15h2.646v2.646h-2.646z" transform="rotate(180 16.393 75.752)"/><path style="opacity:.675944;fill:#ff9000;fill-opacity:1;stroke-width:2;stroke-linecap:square" d="M22.203 154.15h2.646v2.646h-2.646z" transform="rotate(180 16.393 75.752)"/><path style="opacity:.675944;fill:#ffcd67;fill-opacity:1;stroke-width:2;stroke-linecap:square" d="M24.849 154.15h2.646v2.646h-2.646z" transform="rotate(180 16.393 75.752)"/><path style="opacity:.675944;fill:#ff9000;fill-opacity:1;stroke-width:2;stroke-linecap:square" d="M27.495 154.15h2.646v2.646h-2.646z" transform="rotate(180 16.393 75.752)"/><path style="opacity:.675944;fill:#ffcd67;fill-opacity:1;stroke-width:2;stroke-linecap:square" d="M30.14 154.15h2.646v2.646H30.14z" transform="rotate(180 16.393 75.752)"/></g></g><text xml:space="preserve" style="font-style:normal;font-variant:normal;font-weight:700;font-stretch:normal;font-size:7.76111px;line-height:1;font-family:'Open Sans';-inkscape-font-specification:'Open Sans, Bold';font-variant-ligatures:normal;font-variant-caps:normal;font-variant-numeric:normal;font-variant-east-asian:normal;text-align:center;text-anchor:middle;white-space:pre;inline-size:88.6378;display:inline;fill:maroon;fill-opacity:1;stroke:none;stroke-width:.264583" x="-39.242" y="36.081" transform="translate(83.873 30.417)"><tspan x="-39.242" y="36.081">mobile image under<tspan y="36.081"> </tspan></tspan><tspan x="-39.242" y="43.842">construction</tspan></text><g><text xml:space="preserve" style="font-style:normal;font-variant:normal;font-weight:700;font-stretch:normal;font-size:7.76113px;line-height:1.25;font-family:'Open Sans';-inkscape-font-specification:'Open Sans, Bold';font-variant-ligatures:normal;font-variant-caps:normal;font-variant-numeric:normal;font-variant-east-asian:normal;fill:#35192d;fill-opacity:.325532;stroke:none;stroke-width:.264584" x="171.418" y="105.252" transform="matrix(1 0 0 1 -31.622 -56.605)"><tspan x="171.418" y="105.252" style="font-style:normal;font-variant:normal;font-weight:700;font-stretch:normal;font-size:7.76113px;font-family:'Open Sans';-inkscape-font-specification:'Open Sans, Bold';font-variant-ligatures:normal;font-variant-caps:normal;font-variant-numeric:normal;font-variant-east-asian:normal;fill:#35192d;fill-opacity:.325532;stroke-width:.264584">Open Sans Title</tspan></text><text xml:space="preserve" style="font-style:normal;font-variant:normal;font-weight:700;font-stretch:normal;font-size:4.40973px;line-height:1.25;font-family:Roboto;-inkscape-font-specification:'Roboto, Bold';font-variant-ligatures:normal;font-variant-caps:normal;font-variant-numeric:normal;font-variant-east-asian:normal;fill:#35192d;fill-opacity:.325532;stroke-width:.264582" x="226.37" y="114.248" transform="matrix(1 0 0 1 -31.622 -56.605)"><tspan style="font-style:normal;font-variant:normal;font-weight:700;font-stretch:normal;font-size:4.40973px;font-family:Roboto;-inkscape-font-specification:'Roboto, Bold';font-variant-ligatures:normal;font-variant-caps:normal;font-variant-numeric:normal;font-variant-east-asian:normal;fill:#35192d;fill-opacity:.325532;stroke-width:.264582" x="226.37" y="114.248">$Entry</tspan></text><text xml:space="preserve" style="font-style:normal;font-variant:normal;font-weight:700;font-stretch:normal;font-size:4.40973px;line-height:1.25;font-family:Roboto;-inkscape-font-specification:'Roboto, Bold';font-variant-ligatures:normal;font-variant-caps:normal;font-variant-numeric:normal;font-variant-east-asian:normal;fill:#35192d;fill-opacity:.325532;stroke-width:.264582" x="208.679" y="124.302" transform="matrix(1 0 0 1 -31.622 -56.605)"><tspan style="font-style:normal;font-variant:normal;font-weight:700;font-stretch:normal;font-size:4.40973px;font-family:Roboto;-inkscape-font-specification:'Roboto, Bold';font-variant-ligatures:normal;font-variant-caps:normal;font-variant-numeric:normal;font-variant-east-asian:normal;fill:#35192d;fill-opacity:.325532;stroke-width:.264582" x="208.679" y="124.302">$Entry</tspan></text><text xml:space="preserve" style="font-style:normal;font-variant:normal;font-weight:700;font-stretch:normal;font-size:4.40973px;line-height:1.25;font-family:Roboto;-inkscape-font-specification:'Roboto, Bold';font-variant-ligatures:normal;font-variant-caps:normal;font-variant-numeric:normal;font-variant-east-asian:normal;fill:#35192d;fill-opacity:.325532;stroke-width:.264582" x="208.002" y="134.356" transform="matrix(1 0 0 1 -31.622 -56.605)"><tspan style="font-style:normal;font-variant:normal;font-weight:700;font-stretch:normal;font-size:4.40973px;font-family:Roboto;-inkscape-font-specification:'Roboto, Bold';font-variant-ligatures:normal;font-variant-caps:normal;font-variant-numeric:normal;font-variant-east-asian:normal;fill:#35192d;fill-opacity:.325532;stroke-width:.264582" x="208.002" y="134.356">$Entry with metrics</tspan></text><path style="opacity:.675944;fill:#ffd42a;fill-opacity:1;stroke-width:6.76038;stroke-linecap:square" transform="rotate(-90 -44.113 -12.492)" d="M-121.656 175.884h7.408v32.993h-7.408z"/><path style="opacity:.675944;fill:#ffd42a;fill-opacity:1;stroke-width:7.75751;stroke-linecap:square" transform="rotate(-90 -44.113 -12.492)" d="M-111.602 175.884h6.35v50.684h-6.35z"/><path style="fill:#35192d;fill-opacity:.323404;stroke:none;stroke-width:.196662;stroke-linecap:square;stroke-dasharray:none;stroke-opacity:1" d="M181.969 111.602h41.424v2.646h-41.424z" transform="matrix(1 0 0 1 -31.622 -56.605)"/><path style="opacity:.675944;fill:#f0f;fill-opacity:1;stroke-width:1.69836;stroke-linecap:square" transform="rotate(-90 -44.113 -12.492)" d="M-114.248 223.393h2.646v3.175h-2.646z"/><path style="opacity:.675944;fill:#f0f;fill-opacity:1;stroke-width:1.7351;stroke-linecap:square" transform="rotate(-90 -44.113 -12.492)" d="M-114.248 175.884h2.646v6.085h-2.646z"/><path style="fill:#35192d;fill-opacity:.323404;stroke:none;stroke-width:.148857;stroke-linecap:square;stroke-dasharray:none;stroke-opacity:1" d="M181.969 121.656h23.733v2.646h-23.733z" transform="matrix(1 0 0 1 -31.622 -56.605)"/><path style="opacity:.675944;fill:#f0f;fill-opacity:1;stroke-width:1.69836;stroke-linecap:square" transform="rotate(-90 -44.113 -12.492)" d="M-124.302 205.702h2.646v3.175h-2.646z"/><path style="opacity:.675944;fill:#f0f;fill-opacity:1;stroke-width:1.7351;stroke-linecap:square" transform="rotate(-90 -44.113 -12.492)" d="M-124.302 175.884h2.646v6.085h-2.646z"/><path style="opacity:.675944;fill:#ffd42a;fill-opacity:1;stroke-width:6.69069;stroke-linecap:square" transform="rotate(-90 -44.113 -12.492)" d="M-131.71 175.884h7.408V208.2h-7.408z"/><path style="fill:#35192d;fill-opacity:.323404;stroke:none;stroke-width:.14672;stroke-linecap:square;stroke-dasharray:none;stroke-opacity:1" d="M181.969 131.71h23.056v2.646h-23.056z" transform="matrix(1 0 0 1 -31.622 -56.605)"/><path style="opacity:.675944;fill:#f0f;fill-opacity:1;stroke-width:1.69836;stroke-linecap:square" transform="rotate(-90 -44.113 -12.492)" d="M-134.356 205.025h2.646v3.175h-2.646z"/><path style="opacity:.675944;fill:#f0f;fill-opacity:1;stroke-width:1.7351;stroke-linecap:square" transform="rotate(-90 -44.113 -12.492)" d="M-134.356 175.884h2.646v6.085h-2.646z"/><text xml:space="preserve" style="font-style:normal;font-variant:normal;font-weight:700;font-stretch:normal;font-size:5.64445px;line-height:1.25;font-family:Roboto;-inkscape-font-specification:'Roboto, Bold';font-variant-ligatures:normal;font-variant-caps:normal;font-variant-numeric:normal;font-variant-east-asian:normal;fill:#35192d;fill-opacity:.325532;stroke-width:.264582" x="148.963" y="114.248" transform="matrix(1 0 0 1 -31.622 -56.605)"><tspan style="font-style:normal;font-variant:normal;font-weight:700;font-stretch:normal;font-size:5.64445px;font-family:Roboto;-inkscape-font-specification:'Roboto, Bold';font-variant-ligatures:normal;font-variant-caps:normal;font-variant-numeric:normal;font-variant-east-asian:normal;fill:#35192d;fill-opacity:.325532;stroke-width:.264582" x="148.963" y="114.248">First Thing</tspan></text><text xml:space="preserve" style="font-style:normal;font-variant:normal;font-weight:700;font-stretch:normal;font-size:5.64445px;line-height:1.25;font-family:Roboto;-inkscape-font-specification:'Roboto, Bold';font-variant-ligatures:normal;font-variant-caps:normal;font-variant-numeric:normal;font-variant-east-asian:normal;fill:#35192d;fill-opacity:.325532;stroke-width:.264582" x="147.086" y="134.356" transform="matrix(1 0 0 1 -31.622 -56.605)"><tspan style="font-style:normal;font-variant:normal;font-weight:700;font-stretch:normal;font-size:5.64445px;font-family:Roboto;-inkscape-font-specification:'Roboto, Bold';font-variant-ligatures:normal;font-variant-caps:normal;font-variant-numeric:normal;font-variant-east-asian:normal;fill:#35192d;fill-opacity:.325532;stroke-width:.264582" x="147.086" y="134.356">Third Thing</tspan></text><text xml:space="preserve" style="font-style:normal;font-variant:normal;font-weight:700;font-stretch:normal;font-size:5.64445px;line-height:1.25;font-family:Roboto;-inkscape-font-specification:'Roboto, Bold';font-variant-ligatures:normal;font-variant-caps:normal;font-variant-numeric:normal;font-variant-east-asian:normal;fill:#35192d;fill-opacity:.325532;stroke-width:.264582" x="141.422" y="124.302" transform="matrix(1 0 0 1 -31.622 -56.605)"><tspan style="font-style:normal;font-variant:normal;font-weight:700;font-stretch:normal;font-size:5.64445px;font-family:Roboto;-inkscape-font-specification:'Roboto, Bold';font-variant-ligatures:normal;font-variant-caps:normal;font-variant-numeric:normal;font-variant-east-asian:normal;fill:#35192d;fill-opacity:.325532;stroke-width:.264582" x="141.422" y="124.302">Second Thing</tspan></text><text xml:space="preserve" style="font-style:italic;font-variant:normal;font-weight:400;font-stretch:normal;font-size:2.82223px;line-height:1.25;font-family:Roboto;-inkscape-font-specification:'Roboto, Italic';font-variant-ligatures:normal;font-variant-caps:normal;font-variant-numeric:normal;font-variant-east-asian:normal;fill:#861486;fill-opacity:1;stroke-width:.264582" x="182.985" y="113.689" transform="matrix(1 0 0 1 -31.622 -56.605)"><tspan style="font-style:italic;font-variant:normal;font-weight:400;font-stretch:normal;font-size:2.82223px;font-family:Roboto;-inkscape-font-specification:'Roboto, Italic';font-variant-ligatures:normal;font-variant-caps:normal;font-variant-numeric:normal;font-variant-east-asian:normal;fill:#861486;fill-opacity:1;stroke-width:.264582" x="182.985" y="113.689">bar spacing</tspan></text><text xml:space="preserve" style="font-style:italic;font-variant:normal;font-weight:400;font-stretch:normal;font-size:2.82223px;line-height:1.25;font-family:Roboto;-inkscape-font-specification:'Roboto, Italic';font-variant-ligatures:normal;font-variant-caps:normal;font-variant-numeric:normal;font-variant-east-asian:normal;fill:#861486;fill-opacity:1;stroke-width:.264582" x="182.985" y="123.743" transform="matrix(1 0 0 1 -31.622 -56.605)"><tspan style="font-style:italic;font-variant:normal;font-weight:400;font-stretch:normal;font-size:2.82223px;font-family:Roboto;-inkscape-font-specification:'Roboto, Italic';font-variant-ligatures:normal;font-variant-caps:normal;font-variant-numeric:normal;font-variant-east-asian:normal;fill:#861486;fill-opacity:1;stroke-width:.264582" x="182.985" y="123.743">bar spacing</tspan></text><text xml:space="preserve" style="font-style:italic;font-variant:normal;font-weight:400;font-stretch:normal;font-size:2.82223px;line-height:1.25;font-family:Roboto;-inkscape-font-specification:'Roboto, Italic';font-variant-ligatures:normal;font-variant-caps:normal;font-variant-numeric:normal;font-variant-east-asian:normal;fill:#861486;fill-opacity:1;stroke-width:.264582" x="182.985" y="133.797" transform="matrix(1 0 0 1 -31.622 -56.605)"><tspan style="font-style:italic;font-variant:normal;font-weight:400;font-stretch:normal;font-size:2.82223px;font-family:Roboto;-inkscape-font-specification:'Roboto, Italic';font-variant-ligatures:normal;font-variant-caps:normal;font-variant-numeric:normal;font-variant-east-asian:normal;fill:#861486;fill-opacity:1;stroke-width:.264582" x="182.985" y="133.797">bar spacing</tspan></text><text xml:space="preserve" style="font-style:italic;font-variant:normal;font-weight:400;font-stretch:normal;font-size:2.82223px;line-height:1.25;font-family:Roboto;-inkscape-font-specification:'Roboto, Italic';font-variant-ligatures:normal;font-variant-caps:normal;font-variant-numeric:normal;font-variant-east-asian:normal;fill:#584c1c;fill-opacity:1;stroke-width:.264582" x="184.474" y="118.675" transform="matrix(1 0 0 1 -31.622 -56.605)"><tspan style="font-style:italic;font-variant:normal;font-weight:400;font-stretch:normal;font-size:2.82223px;font-family:Roboto;-inkscape-font-specification:'Roboto, Italic';font-variant-ligatures:normal;font-variant-caps:normal;font-variant-numeric:normal;font-variant-east-asian:normal;fill:#584c1c;fill-opacity:1;stroke-width:.264582" x="184.474" y="118.675">item spacing</tspan></text><text xml:space="preserve" style="font-style:italic;font-variant:normal;font-weight:400;font-stretch:normal;font-size:2.82223px;line-height:1.25;font-family:Roboto;-inkscape-font-specification:'Roboto, Italic';font-variant-ligatures:normal;font-variant-caps:normal;font-variant-numeric:normal;font-variant-east-asian:normal;fill:#431c38;fill-opacity:.706383;stroke-width:.264582" x="153.136" y="140.99" transform="matrix(1 0 0 1 -31.622 -56.605)"><tspan style="font-style:italic;font-variant:normal;font-weight:400;font-stretch:normal;font-size:2.82223px;font-family:Roboto;-inkscape-font-specification:'Roboto, Italic';font-variant-ligatures:normal;font-variant-caps:normal;font-variant-numeric:normal;font-variant-east-asian:normal;fill:#431c38;fill-opacity:.706383;stroke-width:.264582" x="153.136" y="140.99">Titles use &quot;Open Sans&quot; font whereas everything else uses &quot;Roboto&quot; font</tspan></text><text xml:space="preserve" style="font-style:italic;font-variant:normal;font-weight:400;font-stretch:normal;font-size:2.82223px;line-height:1.25;font-family:Roboto;-inkscape-font-specification:'Roboto, Italic';font-variant-ligatures:normal;font-variant-caps:normal;font-variant-numeric:normal;font-variant-east-asian:normal;fill:#584c1c;fill-opacity:1;stroke-width:.264582" x="184.136" y="128.729" transform="matrix(1 0 0 1 -31.622 -56.605)"><tspan style="font-style:italic;font-variant:normal;font-weight:400;font-stretch:normal;font-size:2.82223px;font-family:Roboto;-inkscape-font-specification:'Roboto, Italic';font-variant-ligatures:normal;font-variant-caps:normal;font-variant-numeric:normal;font-variant-east-asian:normal;fill:#584c1c;fill-opacity:1;stroke-width:.264582" x="184.136" y="128.729">item spacing</tspan></text><text xml:space="preserve" style="font-style:italic;font-variant:normal;font-weight:400;font-stretch:normal;font-size:2.82223px;line-height:1.25;font-family:Roboto;-inkscape-font-specification:'Roboto, Italic';font-variant-ligatures:normal;font-variant-caps:normal;font-variant-numeric:normal;font-variant-east-asian:normal;fill:#584c1c;fill-opacity:1;stroke-width:.264582" x="193.719" y="109.191" transform="matrix(1 0 0 1 -31.622 -56.605)"><tspan style="font-style:italic;font-variant:normal;font-weight:400;font-stretch:normal;font-size:2.82223px;font-family:Roboto;-inkscape-font-specification:'Roboto, Italic';font-variant-ligatures:normal;font-variant-caps:normal;font-variant-numeric:normal;font-variant-east-asian:normal;fill:#584c1c;fill-opacity:1;stroke-width:.264582" x="193.719" y="109.191">title spacing</tspan></text></g></svg>