<svg height="384" viewBox="0 0 504 288" width="672" xmlns="http://www.w3.org/2000/svg" xmlns:xlink="http://www.w3.org/1999/xlink"><defs><style>*{stroke-linecap:butt;stroke-linejoin:round}</style></defs><g id="figure_1"><path d="M0 288h504V0H0z" style="fill:#fff" id="patch_1"/><g id="axes_1"><path d="M63 256.32h390.6V34.56H63z" style="fill:#fff" id="patch_2"/><g id="matplotlib.axis_1"><g id="xtick_1"><g id="line2d_1"><defs><path d="M0 0v3.5" id="m9605c1258f" style="stroke:#000;stroke-width:.8"/></defs><use style="stroke:#000;stroke-width:.8" x="80.755" xlink:href="#m9605c1258f" y="256.32"/></g><g transform="matrix(.1 0 0 -.1 68.03 270.918)" id="text_1"><defs><path d="M794 531h1031v3560L703 3866v575l1116 225h631V531h1031V0H794v531z" id="DejaVuSans-31" transform="scale(.01563)"/><path d="M703 97v575q238-113 481-172 244-59 479-59 625 0 954 420 330 420 377 1277-181-269-460-413-278-144-615-144-700 0-1108 423-408 424-408 1159 0 718 425 1152 425 435 1131 435 810 0 1236-621 427-620 427-1801 0-1103-524-1761Q2575-91 1691-91q-238 0-482 47Q966 3 703 97zm1256 1978q425 0 673 290 249 291 249 798 0 503-249 795-248 292-673 292t-673-292q-248-292-248-795 0-507 248-798 248-290 673-290z" id="DejaVuSans-39" transform="scale(.01563)"/><path d="M2113 2584q-425 0-674-291-248-290-248-796 0-503 248-796 249-292 674-292t673 292q248 293 248 796 0 506-248 796-248 291-673 291zm1253 1979v-575q-238 112-480 171-242 60-480 60-625 0-955-422-329-422-376-1275 184 272 462 417 279 145 613 145 703 0 1111-427 408-426 408-1160 0-719-425-1154Q2819-91 2113-91q-810 0-1238 620-428 621-428 1799 0 1106 525 1764t1409 658q238 0 480-47t505-140z" id="DejaVuSans-36" transform="scale(.01563)"/><path d="M2034 4250q-487 0-733-480-245-479-245-1442 0-959 245-1439 246-480 733-480 491 0 736 480 246 480 246 1439 0 963-246 1442-245 480-736 480zm0 500q785 0 1199-621 414-620 414-1801 0-1178-414-1799Q2819-91 2034-91q-784 0-1198 620-414 621-414 1799 0 1181 414 1801 414 621 1198 621z" id="DejaVuSans-30" transform="scale(.01563)"/></defs><use xlink:href="#DejaVuSans-31"/><use x="63.623" xlink:href="#DejaVuSans-39"/><use x="127.246" xlink:href="#DejaVuSans-36"/><use x="190.869" xlink:href="#DejaVuSans-30"/></g></g><g id="xtick_2"><use style="stroke:#000;stroke-width:.8" x="140.939" xlink:href="#m9605c1258f" y="256.32" id="line2d_2"/><g transform="matrix(.1 0 0 -.1 128.214 270.918)" id="text_2"><defs><path d="M525 4666h3000v-269L1831 0h-659l1594 4134H525v532z" id="DejaVuSans-37" transform="scale(.01563)"/></defs><use xlink:href="#DejaVuSans-31"/><use x="63.623" xlink:href="#DejaVuSans-39"/><use x="127.246" xlink:href="#DejaVuSans-37"/><use x="190.869" xlink:href="#DejaVuSans-30"/></g></g><g id="xtick_3"><use style="stroke:#000;stroke-width:.8" x="201.124" xlink:href="#m9605c1258f" y="256.32" id="line2d_3"/><g transform="matrix(.1 0 0 -.1 188.4 270.918)" id="text_3"><defs><path d="M2034 2216q-450 0-708-241-257-241-257-662 0-422 257-663 258-241 708-241t709 242q260 243 260 662 0 421-258 662-257 241-711 241zm-631 268q-406 100-633 378-226 279-226 679 0 559 398 884 399 325 1092 325 697 0 1094-325t397-884q0-400-227-679-226-278-629-378 456-106 710-416 255-309 255-755 0-679-414-1042Q2806-91 2034-91q-771 0-1186 362-414 363-414 1042 0 446 256 755 257 310 713 416zm-231 997q0-362 226-565 227-203 636-203 407 0 636 203 230 203 230 565 0 363-230 566-229 203-636 203-409 0-636-203-226-203-226-566z" id="DejaVuSans-38" transform="scale(.01563)"/></defs><use xlink:href="#DejaVuSans-31"/><use x="63.623" xlink:href="#DejaVuSans-39"/><use x="127.246" xlink:href="#DejaVuSans-38"/><use x="190.869" xlink:href="#DejaVuSans-30"/></g></g><g id="xtick_4"><use style="stroke:#000;stroke-width:.8" x="261.309" xlink:href="#m9605c1258f" y="256.32" id="line2d_4"/><g transform="matrix(.1 0 0 -.1 248.584 270.918)" id="text_4"><use xlink:href="#DejaVuSans-31"/><use x="63.623" xlink:href="#DejaVuSans-39"/><use x="127.246" xlink:href="#DejaVuSans-39"/><use x="190.869" xlink:href="#DejaVuSans-30"/></g></g><g id="xtick_5"><use style="stroke:#000;stroke-width:.8" x="321.494" xlink:href="#m9605c1258f" y="256.32" id="line2d_5"/><g transform="matrix(.1 0 0 -.1 308.77 270.918)" id="text_5"><defs><path d="M1228 531h2203V0H469v531q359 372 979 998 621 627 780 809 303 340 423 576 121 236 121 464 0 372-261 606-261 235-680 235-297 0-627-103-329-103-704-313v638q381 153 712 231 332 78 607 78 725 0 1156-363 431-362 431-968 0-288-108-546-107-257-392-607-78-91-497-524-418-433-1181-1211z" id="DejaVuSans-32" transform="scale(.01563)"/></defs><use xlink:href="#DejaVuSans-32"/><use x="63.623" xlink:href="#DejaVuSans-30"/><use x="127.246" xlink:href="#DejaVuSans-30"/><use x="190.869" xlink:href="#DejaVuSans-30"/></g></g><g id="xtick_6"><use style="stroke:#000;stroke-width:.8" x="381.679" xlink:href="#m9605c1258f" y="256.32" id="line2d_6"/><g transform="matrix(.1 0 0 -.1 368.954 270.918)" id="text_6"><use xlink:href="#DejaVuSans-32"/><use x="63.623" xlink:href="#DejaVuSans-30"/><use x="127.246" xlink:href="#DejaVuSans-31"/><use x="190.869" xlink:href="#DejaVuSans-30"/></g></g><g id="xtick_7"><use style="stroke:#000;stroke-width:.8" x="441.864" xlink:href="#m9605c1258f" y="256.32" id="line2d_7"/><g transform="matrix(.1 0 0 -.1 429.139 270.918)" id="text_7"><use xlink:href="#DejaVuSans-32"/><use x="63.623" xlink:href="#DejaVuSans-30"/><use x="127.246" xlink:href="#DejaVuSans-32"/><use x="190.869" xlink:href="#DejaVuSans-30"/></g></g></g><g id="matplotlib.axis_2"><g id="ytick_1"><g id="line2d_8"><defs><path d="M0 0h-3.5" id="m5409dd1f74" style="stroke:#000;stroke-width:.8"/></defs><use style="stroke:#000;stroke-width:.8" x="63" xlink:href="#m5409dd1f74" y="251.517"/></g><g transform="matrix(.1 0 0 -.1 24.233 255.317)" id="text_8"><defs><path d="M684 794h660V0H684v794z" id="DejaVuSans-2e" transform="scale(.01563)"/><path d="M691 4666h2478v-532H1269V2991q137 47 274 70 138 23 276 23 781 0 1237-428 457-428 457-1159 0-753-469-1171Q2575-91 1722-91q-294 0-599 50Q819 9 494 109v635q281-153 581-228t634-75q541 0 856 284 316 284 316 772 0 487-316 771-315 285-856 285-253 0-505-56-251-56-513-175v2344z" id="DejaVuSans-35" transform="scale(.01563)"/><path d="M4653 2053q-272 0-427-231-154-231-154-644 0-406 154-639 155-233 427-233 266 0 420 233 155 233 155 639 0 410-155 642-154 233-420 233zm0 397q494 0 784-344 291-343 291-928 0-584-292-927-292-342-783-342-500 0-791 342-290 343-290 927 0 588 292 930t789 342zM1428 4353q-269 0-424-233-154-232-154-639 0-412 153-644 153-231 425-231t426 231q155 232 155 644 0 403-156 637-156 235-425 235zm2822 397h500L1831-91h-500l2919 4841zm-2822 0q494 0 787-342 294-342 294-927 0-590-292-931t-789-341q-497 0-786 342-289 343-289 930 0 582 290 925 291 344 785 344z" id="DejaVuSans-25" transform="scale(.01563)"/></defs><use xlink:href="#DejaVuSans-31"/><use x="63.623" xlink:href="#DejaVuSans-32"/><use x="127.246" xlink:href="#DejaVuSans-2e"/><use x="159.033" xlink:href="#DejaVuSans-35"/><use x="222.656" xlink:href="#DejaVuSans-25"/></g></g><g id="ytick_2"><use style="stroke:#000;stroke-width:.8" x="63" xlink:href="#m5409dd1f74" y="226.769" id="line2d_9"/><g transform="matrix(.1 0 0 -.1 24.233 230.568)" id="text_9"><use xlink:href="#DejaVuSans-31"/><use x="63.623" xlink:href="#DejaVuSans-35"/><use x="127.246" xlink:href="#DejaVuSans-2e"/><use x="159.033" xlink:href="#DejaVuSans-30"/><use x="222.656" xlink:href="#DejaVuSans-25"/></g></g><g id="ytick_3"><use style="stroke:#000;stroke-width:.8" x="63" xlink:href="#m5409dd1f74" y="202.02" id="line2d_10"/><g transform="matrix(.1 0 0 -.1 24.233 205.82)" id="text_10"><use xlink:href="#DejaVuSans-31"/><use x="63.623" xlink:href="#DejaVuSans-37"/><use x="127.246" xlink:href="#DejaVuSans-2e"/><use x="159.033" xlink:href="#DejaVuSans-35"/><use x="222.656" xlink:href="#DejaVuSans-25"/></g></g><g id="ytick_4"><use style="stroke:#000;stroke-width:.8" x="63" xlink:href="#m5409dd1f74" y="177.271" id="line2d_11"/><g transform="matrix(.1 0 0 -.1 24.233 181.07)" id="text_11"><use xlink:href="#DejaVuSans-32"/><use x="63.623" xlink:href="#DejaVuSans-30"/><use x="127.246" xlink:href="#DejaVuSans-2e"/><use x="159.033" xlink:href="#DejaVuSans-30"/><use x="222.656" xlink:href="#DejaVuSans-25"/></g></g><g id="ytick_5"><use style="stroke:#000;stroke-width:.8" x="63" xlink:href="#m5409dd1f74" y="152.523" id="line2d_12"/><g transform="matrix(.1 0 0 -.1 24.233 156.322)" id="text_12"><use xlink:href="#DejaVuSans-32"/><use x="63.623" xlink:href="#DejaVuSans-32"/><use x="127.246" xlink:href="#DejaVuSans-2e"/><use x="159.033" xlink:href="#DejaVuSans-35"/><use x="222.656" xlink:href="#DejaVuSans-25"/></g></g><g id="ytick_6"><use style="stroke:#000;stroke-width:.8" x="63" xlink:href="#m5409dd1f74" y="127.774" id="line2d_13"/><g transform="matrix(.1 0 0 -.1 24.233 131.573)" id="text_13"><use xlink:href="#DejaVuSans-32"/><use x="63.623" xlink:href="#DejaVuSans-35"/><use x="127.246" xlink:href="#DejaVuSans-2e"/><use x="159.033" xlink:href="#DejaVuSans-30"/><use x="222.656" xlink:href="#DejaVuSans-25"/></g></g><g id="ytick_7"><use style="stroke:#000;stroke-width:.8" x="63" xlink:href="#m5409dd1f74" y="103.025" id="line2d_14"/><g transform="matrix(.1 0 0 -.1 24.233 106.825)" id="text_14"><use xlink:href="#DejaVuSans-32"/><use x="63.623" xlink:href="#DejaVuSans-37"/><use x="127.246" xlink:href="#DejaVuSans-2e"/><use x="159.033" xlink:href="#DejaVuSans-35"/><use x="222.656" xlink:href="#DejaVuSans-25"/></g></g><g id="ytick_8"><use style="stroke:#000;stroke-width:.8" x="63" xlink:href="#m5409dd1f74" y="78.277" id="line2d_15"/><g transform="matrix(.1 0 0 -.1 24.233 82.076)" id="text_15"><defs><path d="M2597 2516q453-97 707-404 255-306 255-756 0-690-475-1069Q2609-91 1734-91q-293 0-604 58T488 141v609q262-153 574-231 313-78 654-78 593 0 904 234t311 681q0 413-289 645-289 233-804 233h-544v519h569q465 0 712 186t247 536q0 359-255 551-254 193-729 193-260 0-557-57-297-56-653-174v562q360 100 674 150t592 50q719 0 1137-327 419-326 419-882 0-388-222-655t-631-370z" id="DejaVuSans-33" transform="scale(.01563)"/></defs><use xlink:href="#DejaVuSans-33"/><use x="63.623" xlink:href="#DejaVuSans-30"/><use x="127.246" xlink:href="#DejaVuSans-2e"/><use x="159.033" xlink:href="#DejaVuSans-30"/><use x="222.656" xlink:href="#DejaVuSans-25"/></g></g><g id="ytick_9"><use style="stroke:#000;stroke-width:.8" x="63" xlink:href="#m5409dd1f74" y="53.528" id="line2d_16"/><g transform="matrix(.1 0 0 -.1 24.233 57.327)" id="text_16"><use xlink:href="#DejaVuSans-33"/><use x="63.623" xlink:href="#DejaVuSans-32"/><use x="127.246" xlink:href="#DejaVuSans-2e"/><use x="159.033" xlink:href="#DejaVuSans-35"/><use x="222.656" xlink:href="#DejaVuSans-25"/></g></g><g transform="matrix(0 -.1 -.1 0 18.153 192.81)" id="text_17"><defs><path d="M603 3500h575V0H603v3500zm0 1363h575v-729H603v729z" id="DejaVuSans-69" transform="scale(.01563)"/><path d="M628 4666h2950v-532H1259V2753h2222v-531H1259V531h2375V0H628v4666z" id="DejaVuSans-45" transform="scale(.01563)"/><path d="M3597 1894v-281H953q38-594 358-905t892-311q331 0 642 81t618 244V178Q3153 47 2828-22t-659-69q-838 0-1327 487-489 488-489 1320 0 859 464 1363 464 505 1252 505 706 0 1117-455 411-454 411-1235zm-575 169q-6 471-264 752-258 282-683 282-481 0-770-272t-333-766l2050 4z" id="DejaVuSans-65" transform="scale(.01563)"/><path d="M3122 3366v-538q-244 135-489 202t-495 67q-560 0-870-355-309-354-309-995t309-996q310-354 870-354 250 0 495 67t489 202V134Q2881 22 2623-34q-257-57-548-57-791 0-1257 497-465 497-465 1341 0 856 470 1346 471 491 1290 491 265 0 518-55 253-54 491-163z" id="DejaVuSans-63" transform="scale(.01563)"/><path d="M1172 4494v-994h1184v-447H1172V1153q0-428 117-550t477-122h590V0h-590q-666 0-919 248-253 249-253 905v1900H172v447h422v994h578z" id="DejaVuSans-74" transform="scale(.01563)"/><path d="M2631 2963q-97 56-211 82-114 27-251 27-488 0-749-317t-261-911V0H581v3500h578v-544q182 319 472 473 291 155 707 155 59 0 131-8 72-7 159-23l3-590z" id="DejaVuSans-72" transform="scale(.01563)"/><path d="M603 4863h575V0H603v4863z" id="DejaVuSans-6c" transform="scale(.01563)"/><path d="M2375 4863v-479h-550q-309 0-430-125-120-125-120-450v-309h947v-447h-947V0H697v3053H147v447h550v244q0 584 272 851 272 268 862 268h544z" id="DejaVuSans-66" transform="scale(.01563)"/><path d="M2194 1759q-697 0-966-159t-269-544q0-306 202-486 202-179 548-179 479 0 768 339t289 901v128h-572zm1147 238V0h-575v531q-197-318-491-470T1556-91q-537 0-855 302-317 302-317 808 0 590 395 890 396 300 1180 300h807v57q0 397-261 614t-733 217q-300 0-585-72-284-72-546-216v532q315 122 612 182 297 61 578 61 760 0 1135-394 375-393 375-1193z" id="DejaVuSans-61" transform="scale(.01563)"/><path d="M1959 3097q-462 0-731-361t-269-989q0-628 267-989 268-361 733-361 460 0 728 362 269 363 269 988 0 622-269 986-268 364-728 364zm0 487q750 0 1178-488 429-487 429-1349 0-859-429-1349Q2709-91 1959-91q-753 0-1180 489-426 490-426 1349 0 862 426 1349 427 488 1180 488z" id="DejaVuSans-6f" transform="scale(.01563)"/><path d="M3513 2113V0h-575v2094q0 497-194 743-194 247-581 247-466 0-735-297-269-296-269-809V0H581v3500h578v-544q207 316 486 472 280 156 646 156 603 0 912-373 310-373 310-1098z" id="DejaVuSans-6e" transform="scale(.01563)"/><path d="M2841 2188q203-69 395-294t386-619L4263 0h-679l-596 1197q-232 469-449 622t-592 153h-688V0H628v4666h1425q800 0 1194-335 394-334 394-1009 0-441-205-732-205-290-595-402zM1259 4147V2491h794q456 0 689 211t233 620q0 409-233 617t-689 208h-794z" id="DejaVuSans-52" transform="scale(.01563)"/></defs><use xlink:href="#DejaVuSans-45"/><use x="63.184" xlink:href="#DejaVuSans-6c"/><use x="90.967" xlink:href="#DejaVuSans-65"/><use x="152.49" xlink:href="#DejaVuSans-63"/><use x="207.471" xlink:href="#DejaVuSans-74"/><use x="246.68" xlink:href="#DejaVuSans-72"/><use x="287.793" xlink:href="#DejaVuSans-69"/><use x="315.576" xlink:href="#DejaVuSans-66"/><use x="350.781" xlink:href="#DejaVuSans-69"/><use x="378.564" xlink:href="#DejaVuSans-63"/><use x="433.545" xlink:href="#DejaVuSans-61"/><use x="494.824" xlink:href="#DejaVuSans-74"/><use x="534.033" xlink:href="#DejaVuSans-69"/><use x="561.816" xlink:href="#DejaVuSans-6f"/><use x="622.998" xlink:href="#DejaVuSans-6e"/><use x="686.377" xlink:href="#DejaVuSans-20"/><use x="718.164" xlink:href="#DejaVuSans-52"/><use x="785.396" xlink:href="#DejaVuSans-61"/><use x="846.676" xlink:href="#DejaVuSans-74"/><use x="885.885" xlink:href="#DejaVuSans-65"/></g></g><path clip-path="url(#p3ffcaa9800)" d="m80.755 246.24 6.018-4.424 6.019-4.002 6.018-4.287 6.019-4.432 6.018-3.077 6.018-4.214 6.019-4.088 6.018-5.229 6.019-6.401 6.018-4.436 6.019-5.806 6.018-5.922 6.019-5.674 6.018-3.878 6.019-10.144 6.018-1.19 6.019-4.847 6.018-1.984 6.019-3.294 6.018-10.256 6.019-11.662 6.018-3.06 6.019-7.895 6.018-3.053 6.019-4.563 6.018-4.315 6.019-1.634 6.018-.415 6.019-.574 6.018-7.437 6.019-5.194 6.018 4.227 6.019-4.615 6.018-1.6 6.019-1.235 6.018 1.064 6.019-2.051 6.018-9.733 6.019.604 6.018-2.987 6.019-5.724 6.018-1.547 6.019-1.55 6.018 2.038 6.019-9.286 6.018-3.002 6.019-3.198 6.018-4.246 6.019-3.965 6.018-1.942 6.019-1.733 6.018-3.732 6.019 6.694 6.018.43 6.018-2.516 6.019-.411 6.018 4.291 6.019-.004 6.018 1.168" style="fill:none;stroke:#333;stroke-linecap:square;stroke-width:1.5" id="line2d_17"/><path d="M63 256.32V34.56" style="fill:none;stroke:#000;stroke-linecap:square;stroke-linejoin:miter;stroke-width:.8" id="patch_3"/><path d="M453.6 256.32V34.56" style="fill:none;stroke:#000;stroke-linecap:square;stroke-linejoin:miter;stroke-width:.8" id="patch_4"/><path d="M63 256.32h390.6" style="fill:none;stroke:#000;stroke-linecap:square;stroke-linejoin:miter;stroke-width:.8" id="patch_5"/><path d="M63 34.56h390.6" style="fill:none;stroke:#000;stroke-linecap:square;stroke-linejoin:miter;stroke-width:.8" id="patch_6"/><g transform="matrix(.12 0 0 -.12 155.452 28.56)" id="text_18"><defs><path d="M3513 2113V0h-575v2094q0 497-194 743-194 247-581 247-466 0-735-297-269-296-269-809V0H581v4863h578V2956q207 316 486 472 280 156 646 156 603 0 912-373 310-373 310-1098z" id="DejaVuSans-68" transform="scale(.01563)"/><path d="M556 4666h635V1831q0-750 271-1080 272-329 882-329 606 0 878 329 272 330 272 1080v2835h634V1753q0-912-452-1378Q3225-91 2344-91q-885 0-1337 466-451 466-451 1378v2913z" id="DejaVuSans-55" transform="scale(.01563)"/><path d="M2906 2969v1894h575V0h-575v525q-181-312-458-464-276-152-664-152-634 0-1033 506-398 507-398 1332t398 1331q399 506 1033 506 388 0 664-152 277-151 458-463zM947 1747q0-634 261-995t717-361q456 0 718 361 263 361 263 995t-263 995q-262 361-718 361t-717-361q-261-361-261-995z" id="DejaVuSans-64" transform="scale(.01563)"/><path d="M3425 4513v-616q-359 172-678 256-319 85-616 85-515 0-795-200t-280-569q0-310 186-468 186-157 705-254l381-78q706-135 1042-474t336-907q0-679-455-1029Q2797-91 1919-91q-331 0-705 75-373 75-773 222v650q384-215 753-325 369-109 725-109 540 0 834 212 294 213 294 607 0 343-211 537t-692 291l-385 75q-706 140-1022 440-315 300-315 835 0 619 436 975t1201 356q329 0 669-60 341-59 697-177z" id="DejaVuSans-53" transform="scale(.01563)"/><path d="M2834 3397v-544q-243 125-506 187-262 63-544 63-428 0-642-131t-214-394q0-200 153-314t616-217l197-44q612-131 870-370t258-667q0-488-386-773Q2250-91 1575-91q-281 0-586 55T347 128v594q319-166 628-249 309-82 613-82 406 0 624 139 219 139 219 392 0 234-158 359-157 125-692 241l-200 47q-534 112-772 345-237 233-237 639 0 494 350 762 350 269 994 269 318 0 599-47 282-46 519-140z" id="DejaVuSans-73" transform="scale(.01563)"/></defs><use xlink:href="#DejaVuSans-45"/><use x="63.184" xlink:href="#DejaVuSans-6c"/><use x="90.967" xlink:href="#DejaVuSans-65"/><use x="152.49" xlink:href="#DejaVuSans-63"/><use x="207.471" xlink:href="#DejaVuSans-74"/><use x="246.68" xlink:href="#DejaVuSans-72"/><use x="287.793" xlink:href="#DejaVuSans-69"/><use x="315.576" xlink:href="#DejaVuSans-66"/><use x="350.781" xlink:href="#DejaVuSans-69"/><use x="378.564" xlink:href="#DejaVuSans-63"/><use x="433.545" xlink:href="#DejaVuSans-61"/><use x="494.824" xlink:href="#DejaVuSans-74"/><use x="534.033" xlink:href="#DejaVuSans-69"/><use x="561.816" xlink:href="#DejaVuSans-6f"/><use x="622.998" xlink:href="#DejaVuSans-6e"/><use x="686.377" xlink:href="#DejaVuSans-20"/><use x="718.164" xlink:href="#DejaVuSans-69"/><use x="745.947" xlink:href="#DejaVuSans-6e"/><use x="809.326" xlink:href="#DejaVuSans-20"/><use x="841.113" xlink:href="#DejaVuSans-74"/><use x="880.322" xlink:href="#DejaVuSans-68"/><use x="943.701" xlink:href="#DejaVuSans-65"/><use x="1005.225" xlink:href="#DejaVuSans-20"/><use x="1037.012" xlink:href="#DejaVuSans-55"/><use x="1110.205" xlink:href="#DejaVuSans-6e"/><use x="1173.584" xlink:href="#DejaVuSans-69"/><use x="1201.367" xlink:href="#DejaVuSans-74"/><use x="1240.576" xlink:href="#DejaVuSans-65"/><use x="1302.1" xlink:href="#DejaVuSans-64"/><use x="1365.576" xlink:href="#DejaVuSans-20"/><use x="1397.363" xlink:href="#DejaVuSans-53"/><use x="1460.84" xlink:href="#DejaVuSans-74"/><use x="1500.049" xlink:href="#DejaVuSans-61"/><use x="1561.328" xlink:href="#DejaVuSans-74"/><use x="1600.537" xlink:href="#DejaVuSans-65"/><use x="1662.061" xlink:href="#DejaVuSans-73"/></g></g></g><defs><clipPath id="p3ffcaa9800"><path d="M63 34.56h390.6v221.76H63z"/></clipPath></defs></svg>