<svg height="384" viewBox="0 0 504 288" width="672" xmlns="http://www.w3.org/2000/svg" xmlns:xlink="http://www.w3.org/1999/xlink"><defs><style>*{stroke-linecap:butt;stroke-linejoin:round}</style></defs><g id="figure_1"><path d="M0 288h504V0H0z" style="fill:#fff" id="patch_1"/><g id="axes_1"><path d="M63 256.32h390.6V34.56H63z" style="fill:#fff" id="patch_2"/><g id="matplotlib.axis_1"><g id="xtick_1"><g id="line2d_1"><defs><path d="M0 0v3.5" id="m2337e01a2a" style="stroke:#000;stroke-width:.8"/></defs><use style="stroke:#000;stroke-width:.8" x="80.755" xlink:href="#m2337e01a2a" y="256.32"/></g><g transform="matrix(.1 0 0 -.1 68.03 270.918)" id="text_1"><defs><path d="M794 531h1031v3560L703 3866v575l1116 225h631V531h1031V0H794v531z" id="DejaVuSans-31" transform="scale(.01563)"/><path d="M703 97v575q238-113 481-172 244-59 479-59 625 0 954 420 330 420 377 1277-181-269-460-413-278-144-615-144-700 0-1108 423-408 424-408 1159 0 718 425 1152 425 435 1131 435 810 0 1236-621 427-620 427-1801 0-1103-524-1761Q2575-91 1691-91q-238 0-482 47Q966 3 703 97zm1256 1978q425 0 673 290 249 291 249 798 0 503-249 795-248 292-673 292t-673-292q-248-292-248-795 0-507 248-798 248-290 673-290z" id="DejaVuSans-39" transform="scale(.01563)"/><path d="M2113 2584q-425 0-674-291-248-290-248-796 0-503 248-796 249-292 674-292t673 292q248 293 248 796 0 506-248 796-248 291-673 291zm1253 1979v-575q-238 112-480 171-242 60-480 60-625 0-955-422-329-422-376-1275 184 272 462 417 279 145 613 145 703 0 1111-427 408-426 408-1160 0-719-425-1154Q2819-91 2113-91q-810 0-1238 620-428 621-428 1799 0 1106 525 1764t1409 658q238 0 480-47t505-140z" id="DejaVuSans-36" transform="scale(.01563)"/><path d="M2034 4250q-487 0-733-480-245-479-245-1442 0-959 245-1439 246-480 733-480 491 0 736 480 246 480 246 1439 0 963-246 1442-245 480-736 480zm0 500q785 0 1199-621 414-620 414-1801 0-1178-414-1799Q2819-91 2034-91q-784 0-1198 620-414 621-414 1799 0 1181 414 1801 414 621 1198 621z" id="DejaVuSans-30" transform="scale(.01563)"/></defs><use xlink:href="#DejaVuSans-31"/><use x="63.623" xlink:href="#DejaVuSans-39"/><use x="127.246" xlink:href="#DejaVuSans-36"/><use x="190.869" xlink:href="#DejaVuSans-30"/></g></g><g id="xtick_2"><use style="stroke:#000;stroke-width:.8" x="140.939" xlink:href="#m2337e01a2a" y="256.32" id="line2d_2"/><g transform="matrix(.1 0 0 -.1 128.214 270.918)" id="text_2"><defs><path d="M525 4666h3000v-269L1831 0h-659l1594 4134H525v532z" id="DejaVuSans-37" transform="scale(.01563)"/></defs><use xlink:href="#DejaVuSans-31"/><use x="63.623" xlink:href="#DejaVuSans-39"/><use x="127.246" xlink:href="#DejaVuSans-37"/><use x="190.869" xlink:href="#DejaVuSans-30"/></g></g><g id="xtick_3"><use style="stroke:#000;stroke-width:.8" x="201.124" xlink:href="#m2337e01a2a" y="256.32" id="line2d_3"/><g transform="matrix(.1 0 0 -.1 188.4 270.918)" id="text_3"><defs><path d="M2034 2216q-450 0-708-241-257-241-257-662 0-422 257-663 258-241 708-241t709 242q260 243 260 662 0 421-258 662-257 241-711 241zm-631 268q-406 100-633 378-226 279-226 679 0 559 398 884 399 325 1092 325 697 0 1094-325t397-884q0-400-227-679-226-278-629-378 456-106 710-416 255-309 255-755 0-679-414-1042Q2806-91 2034-91q-771 0-1186 362-414 363-414 1042 0 446 256 755 257 310 713 416zm-231 997q0-362 226-565 227-203 636-203 407 0 636 203 230 203 230 565 0 363-230 566-229 203-636 203-409 0-636-203-226-203-226-566z" id="DejaVuSans-38" transform="scale(.01563)"/></defs><use xlink:href="#DejaVuSans-31"/><use x="63.623" xlink:href="#DejaVuSans-39"/><use x="127.246" xlink:href="#DejaVuSans-38"/><use x="190.869" xlink:href="#DejaVuSans-30"/></g></g><g id="xtick_4"><use style="stroke:#000;stroke-width:.8" x="261.309" xlink:href="#m2337e01a2a" y="256.32" id="line2d_4"/><g transform="matrix(.1 0 0 -.1 248.584 270.918)" id="text_4"><use xlink:href="#DejaVuSans-31"/><use x="63.623" xlink:href="#DejaVuSans-39"/><use x="127.246" xlink:href="#DejaVuSans-39"/><use x="190.869" xlink:href="#DejaVuSans-30"/></g></g><g id="xtick_5"><use style="stroke:#000;stroke-width:.8" x="321.494" xlink:href="#m2337e01a2a" y="256.32" id="line2d_5"/><g transform="matrix(.1 0 0 -.1 308.77 270.918)" id="text_5"><defs><path d="M1228 531h2203V0H469v531q359 372 979 998 621 627 780 809 303 340 423 576 121 236 121 464 0 372-261 606-261 235-680 235-297 0-627-103-329-103-704-313v638q381 153 712 231 332 78 607 78 725 0 1156-363 431-362 431-968 0-288-108-546-107-257-392-607-78-91-497-524-418-433-1181-1211z" id="DejaVuSans-32" transform="scale(.01563)"/></defs><use xlink:href="#DejaVuSans-32"/><use x="63.623" xlink:href="#DejaVuSans-30"/><use x="127.246" xlink:href="#DejaVuSans-30"/><use x="190.869" xlink:href="#DejaVuSans-30"/></g></g><g id="xtick_6"><use style="stroke:#000;stroke-width:.8" x="381.679" xlink:href="#m2337e01a2a" y="256.32" id="line2d_6"/><g transform="matrix(.1 0 0 -.1 368.954 270.918)" id="text_6"><use xlink:href="#DejaVuSans-32"/><use x="63.623" xlink:href="#DejaVuSans-30"/><use x="127.246" xlink:href="#DejaVuSans-31"/><use x="190.869" xlink:href="#DejaVuSans-30"/></g></g><g id="xtick_7"><use style="stroke:#000;stroke-width:.8" x="441.864" xlink:href="#m2337e01a2a" y="256.32" id="line2d_7"/><g transform="matrix(.1 0 0 -.1 429.139 270.918)" id="text_7"><use xlink:href="#DejaVuSans-32"/><use x="63.623" xlink:href="#DejaVuSans-30"/><use x="127.246" xlink:href="#DejaVuSans-32"/><use x="190.869" xlink:href="#DejaVuSans-30"/></g></g></g><g id="matplotlib.axis_2"><g id="ytick_1"><g id="line2d_8"><defs><path d="M0 0h-3.5" id="me1a076245f" style="stroke:#000;stroke-width:.8"/></defs><use style="stroke:#000;stroke-width:.8" x="63" xlink:href="#me1a076245f" y="223.267"/></g><g transform="matrix(.1 0 0 -.1 33.773 227.066)" id="text_8"><defs><path d="M4653 2053q-272 0-427-231-154-231-154-644 0-406 154-639 155-233 427-233 266 0 420 233 155 233 155 639 0 410-155 642-154 233-420 233zm0 397q494 0 784-344 291-343 291-928 0-584-292-927-292-342-783-342-500 0-791 342-290 343-290 927 0 588 292 930t789 342zM1428 4353q-269 0-424-233-154-232-154-639 0-412 153-644 153-231 425-231t426 231q155 232 155 644 0 403-156 637-156 235-425 235zm2822 397h500L1831-91h-500l2919 4841zm-2822 0q494 0 787-342 294-342 294-927 0-590-292-931t-789-341q-497 0-786 342-289 343-289 930 0 582 290 925 291 344 785 344z" id="DejaVuSans-25" transform="scale(.01563)"/></defs><use xlink:href="#DejaVuSans-31"/><use x="63.623" xlink:href="#DejaVuSans-30"/><use x="127.246" xlink:href="#DejaVuSans-25"/></g></g><g id="ytick_2"><use style="stroke:#000;stroke-width:.8" x="63" xlink:href="#me1a076245f" y="184.526" id="line2d_9"/><g transform="matrix(.1 0 0 -.1 33.773 188.326)" id="text_9"><use xlink:href="#DejaVuSans-32"/><use x="63.623" xlink:href="#DejaVuSans-30"/><use x="127.246" xlink:href="#DejaVuSans-25"/></g></g><g id="ytick_3"><use style="stroke:#000;stroke-width:.8" x="63" xlink:href="#me1a076245f" y="145.786" id="line2d_10"/><g transform="matrix(.1 0 0 -.1 33.773 149.585)" id="text_10"><defs><path d="M2597 2516q453-97 707-404 255-306 255-756 0-690-475-1069Q2609-91 1734-91q-293 0-604 58T488 141v609q262-153 574-231 313-78 654-78 593 0 904 234t311 681q0 413-289 645-289 233-804 233h-544v519h569q465 0 712 186t247 536q0 359-255 551-254 193-729 193-260 0-557-57-297-56-653-174v562q360 100 674 150t592 50q719 0 1137-327 419-326 419-882 0-388-222-655t-631-370z" id="DejaVuSans-33" transform="scale(.01563)"/></defs><use xlink:href="#DejaVuSans-33"/><use x="63.623" xlink:href="#DejaVuSans-30"/><use x="127.246" xlink:href="#DejaVuSans-25"/></g></g><g id="ytick_4"><use style="stroke:#000;stroke-width:.8" x="63" xlink:href="#me1a076245f" y="107.045" id="line2d_11"/><g transform="matrix(.1 0 0 -.1 33.773 110.844)" id="text_11"><defs><path d="M2419 4116 825 1625h1594v2491zm-166 550h794V1625h666v-525h-666V0h-628v1100H313v609l1940 2957z" id="DejaVuSans-34" transform="scale(.01563)"/></defs><use xlink:href="#DejaVuSans-34"/><use x="63.623" xlink:href="#DejaVuSans-30"/><use x="127.246" xlink:href="#DejaVuSans-25"/></g></g><g id="ytick_5"><use style="stroke:#000;stroke-width:.8" x="63" xlink:href="#me1a076245f" y="68.304" id="line2d_12"/><g transform="matrix(.1 0 0 -.1 33.773 72.104)" id="text_12"><defs><path d="M691 4666h2478v-532H1269V2991q137 47 274 70 138 23 276 23 781 0 1237-428 457-428 457-1159 0-753-469-1171Q2575-91 1722-91q-294 0-599 50Q819 9 494 109v635q281-153 581-228t634-75q541 0 856 284 316 284 316 772 0 487-316 771-315 285-856 285-253 0-505-56-251-56-513-175v2344z" id="DejaVuSans-35" transform="scale(.01563)"/></defs><use xlink:href="#DejaVuSans-35"/><use x="63.623" xlink:href="#DejaVuSans-30"/><use x="127.246" xlink:href="#DejaVuSans-25"/></g></g><g transform="matrix(0 -.1 -.1 0 27.694 192.81)" id="text_13"><defs><path d="M603 3500h575V0H603v3500zm0 1363h575v-729H603v729z" id="DejaVuSans-69" transform="scale(.01563)"/><path d="M628 4666h2950v-532H1259V2753h2222v-531H1259V531h2375V0H628v4666z" id="DejaVuSans-45" transform="scale(.01563)"/><path d="M3597 1894v-281H953q38-594 358-905t892-311q331 0 642 81t618 244V178Q3153 47 2828-22t-659-69q-838 0-1327 487-489 488-489 1320 0 859 464 1363 464 505 1252 505 706 0 1117-455 411-454 411-1235zm-575 169q-6 471-264 752-258 282-683 282-481 0-770-272t-333-766l2050 4z" id="DejaVuSans-65" transform="scale(.01563)"/><path d="M3122 3366v-538q-244 135-489 202t-495 67q-560 0-870-355-309-354-309-995t309-996q310-354 870-354 250 0 495 67t489 202V134Q2881 22 2623-34q-257-57-548-57-791 0-1257 497-465 497-465 1341 0 856 470 1346 471 491 1290 491 265 0 518-55 253-54 491-163z" id="DejaVuSans-63" transform="scale(.01563)"/><path d="M1172 4494v-994h1184v-447H1172V1153q0-428 117-550t477-122h590V0h-590q-666 0-919 248-253 249-253 905v1900H172v447h422v994h578z" id="DejaVuSans-74" transform="scale(.01563)"/><path d="M2631 2963q-97 56-211 82-114 27-251 27-488 0-749-317t-261-911V0H581v3500h578v-544q182 319 472 473 291 155 707 155 59 0 131-8 72-7 159-23l3-590z" id="DejaVuSans-72" transform="scale(.01563)"/><path d="M603 4863h575V0H603v4863z" id="DejaVuSans-6c" transform="scale(.01563)"/><path d="M2375 4863v-479h-550q-309 0-430-125-120-125-120-450v-309h947v-447h-947V0H697v3053H147v447h550v244q0 584 272 851 272 268 862 268h544z" id="DejaVuSans-66" transform="scale(.01563)"/><path d="M2194 1759q-697 0-966-159t-269-544q0-306 202-486 202-179 548-179 479 0 768 339t289 901v128h-572zm1147 238V0h-575v531q-197-318-491-470T1556-91q-537 0-855 302-317 302-317 808 0 590 395 890 396 300 1180 300h807v57q0 397-261 614t-733 217q-300 0-585-72-284-72-546-216v532q315 122 612 182 297 61 578 61 760 0 1135-394 375-393 375-1193z" id="DejaVuSans-61" transform="scale(.01563)"/><path d="M1959 3097q-462 0-731-361t-269-989q0-628 267-989 268-361 733-361 460 0 728 362 269 363 269 988 0 622-269 986-268 364-728 364zm0 487q750 0 1178-488 429-487 429-1349 0-859-429-1349Q2709-91 1959-91q-753 0-1180 489-426 490-426 1349 0 862 426 1349 427 488 1180 488z" id="DejaVuSans-6f" transform="scale(.01563)"/><path d="M3513 2113V0h-575v2094q0 497-194 743-194 247-581 247-466 0-735-297-269-296-269-809V0H581v3500h578v-544q207 316 486 472 280 156 646 156 603 0 912-373 310-373 310-1098z" id="DejaVuSans-6e" transform="scale(.01563)"/><path d="M2841 2188q203-69 395-294t386-619L4263 0h-679l-596 1197q-232 469-449 622t-592 153h-688V0H628v4666h1425q800 0 1194-335 394-334 394-1009 0-441-205-732-205-290-595-402zM1259 4147V2491h794q456 0 689 211t233 620q0 409-233 617t-689 208h-794z" id="DejaVuSans-52" transform="scale(.01563)"/></defs><use xlink:href="#DejaVuSans-45"/><use x="63.184" xlink:href="#DejaVuSans-6c"/><use x="90.967" xlink:href="#DejaVuSans-65"/><use x="152.49" xlink:href="#DejaVuSans-63"/><use x="207.471" xlink:href="#DejaVuSans-74"/><use x="246.68" xlink:href="#DejaVuSans-72"/><use x="287.793" xlink:href="#DejaVuSans-69"/><use x="315.576" xlink:href="#DejaVuSans-66"/><use x="350.781" xlink:href="#DejaVuSans-69"/><use x="378.564" xlink:href="#DejaVuSans-63"/><use x="433.545" xlink:href="#DejaVuSans-61"/><use x="494.824" xlink:href="#DejaVuSans-74"/><use x="534.033" xlink:href="#DejaVuSans-69"/><use x="561.816" xlink:href="#DejaVuSans-6f"/><use x="622.998" xlink:href="#DejaVuSans-6e"/><use x="686.377" xlink:href="#DejaVuSans-20"/><use x="718.164" xlink:href="#DejaVuSans-52"/><use x="785.396" xlink:href="#DejaVuSans-61"/><use x="846.676" xlink:href="#DejaVuSans-74"/><use x="885.885" xlink:href="#DejaVuSans-65"/></g></g><path clip-path="url(#pb286a273e4)" d="m80.755 202.96 6.018-4.588 6.019-3.157 6.018-2.924 6.019-1.888 6.018-1.88 6.018-1.651 6.019-1.567 6.018-1.91 6.019-2.58 6.018-1.127 6.019-3.11 6.018-2.66 6.019-4.33 6.018.134 6.019 4.225 6.018-6.307 6.019-2.616 6.018-2.918 6.019-.753 6.018-.533 6.019-1.57 6.018 3.446 6.019-3.73 6.018-3.608 6.019-2.439 6.018-4.225 6.019-.907 6.018.907 6.019-.926 6.018-5.1 6.019-1.453 6.018 2.89 6.019-2.254 6.018 1.364 6.019.463 6.018-3.377 6.019-4.23 6.018-5.03 6.019.767 6.018-1.616 6.019-6.291 6.018-1.934 6.019-1.847 6.018 2.93 6.019-3.75 6.018-1.102 6.019-1.656 6.018-2.536 6.019-4.083 6.018-2.516 6.019 1.188 6.018 2.793 6.019.34 6.018-1.689 6.018-1.173 6.019 1.508 6.018 1.959 6.019-2.827 6.018 1.327" style="fill:none;stroke:#333;stroke-linecap:square;stroke-opacity:.5" id="line2d_13"/><path clip-path="url(#pb286a273e4)" d="m80.755 246.069 6.018.171 6.019-.933 6.018-3.068 6.019-.998 6.018-2.48 6.018.943 6.019 1.003 6.018-1.329 6.019 2.837 6.018-.286 6.019-1.28 6.018.568 6.019-4.415 6.018-1.29 6.019-2.534 6.018-.04 6.019 1.171 6.018 1.576 6.019-1.058 6.018-1.415 6.019-5.652 6.018 8.103 6.019.05 6.018 1.216 6.019-2.7 6.018 1.25 6.019.299 6.018.594 6.019 1.883 6.018-.314 6.019.732 6.018.476 6.019-.322 6.018-.864 6.019 2.305 6.018-.235 6.019-.595 6.018-.71 6.019-.833 6.018.466 6.019-.85 6.018-.146 6.019-.423 6.018.385 6.019.187 6.018-2.875 6.019-1.538 6.018-3.23 6.019-.261 6.018.105 6.019-.285 6.018-1.01 6.019-1.054 6.018.49 6.018 1.015 6.019-.948 6.018.099 6.019 1.344 6.018 1.455" style="fill:none;stroke:#333;stroke-linecap:square;stroke-opacity:.5" id="line2d_14"/><path clip-path="url(#pb286a273e4)" d="m80.755 190.336 6.018-.549 6.019-2.047 6.018-.335 6.019-.316 6.018-.87 6.018-2.596 6.019-1.529 6.018 2.128 6.019-4.777 6.018-4.872 6.019-3.386 6.018-2.419 6.019-1.072 6.018-4.794 6.019-6.879 6.018.297 6.019 1.414 6.018-1.882 6.019-3.307 6.018-7.752 6.019-3.683 6.018 1.98 6.019-2.643 6.018-.913 6.019-6.875 6.018-2.316 6.019-8.175 6.018-2.04 6.019-.896 6.018-1.447 6.019-.55 6.018-1.624 6.019-.23 6.018-1.249 6.019 1.247 6.018-1.277 6.019-3.645 6.018 2.847 6.019.417 6.018-3.322 6.019-1.769 6.018-1.661 6.019-1.292 6.018-1.167 6.019-1.39 6.018-3.374 6.019-8.008 6.018-1.701 6.019-3.867 6.018 8.092 6.019.018 6.018-3.92 6.019.862 6.018-.305 6.018.212 6.019 1.308 6.018 2.019 6.019-.34 6.018 2.364" style="fill:none;stroke:#333;stroke-linecap:square;stroke-opacity:.5" id="line2d_15"/><path clip-path="url(#pb286a273e4)" d="m80.755 218.083 6.018 1.844 6.019-3.58 6.018-2.256 6.019-2.581 6.018-6.068 6.018-.726 6.019-.957 6.018-1.968 6.019-1.038 6.018-1.414 6.019-4.606 6.018-2.166 6.019 1.458 6.018-2.044 6.019-6.22 6.018-4.618 6.019-4.88 6.018-3.643 6.019-4.207 6.018-8.32 6.019 8.242 6.018.776 6.019-3.338 6.018-5.47 6.019 1.951 6.018-.015 6.019-8.845 6.018 6.482 6.019 4.494 6.018-8.851 6.019-5.783 6.018 3.697 6.019-2.741 6.018.362 6.019-1.018 6.018-2.575 6.019-.205 6.018-5.345 6.019.653 6.018-1.008 6.019-5.37 6.018.39 6.019-3.996 6.018-2.757 6.019-4.451 6.018-1.814 6.019.718 6.018.41 6.019.353 6.018-4.068 6.019 1.003 6.018-3.978 6.019 4.544 6.018.804 6.018-5.857 6.019-.318 6.018.862 6.019-2.807 6.018 1.801" style="fill:none;stroke:#333;stroke-linecap:square;stroke-opacity:.5" id="line2d_16"/><path clip-path="url(#pb286a273e4)" d="m80.755 207.15 6.018-2.264 6.019-.476 6.018-.96 6.019-1.735 6.018-2.01 6.018-2.372 6.019-1.528 6.018-1.383 6.019-1.178 6.018-2.533 6.019-1.051 6.018-3.795 6.019-.389 6.018 1.852 6.019-6.62 6.018-2.041 6.019.849 6.018-.546 6.019-.264 6.018-1.362 6.019-4.27 6.018-1.263 6.019.59 6.018-1.163 6.019-1.503 6.018-1.977 6.019 2.425 6.018-.986 6.019 1.9 6.018-2.857 6.019-.345 6.018-2.41 6.019-.925 6.018.358 6.019.79 6.018-1.031 6.019-2.699 6.018-.057 6.019.62 6.018-2.71 6.019-1.219 6.018 5.787 6.019-4.8 6.018 1.05 6.019-1.711 6.018-2.3 6.019-.334 6.018-4.032 6.019-.597 6.018-1.328 6.019-1.478 6.018-2.059 6.019.543 6.018-1.885 6.018 1.85 6.019 3.703 6.018 1.508 6.019 2.23 6.018.998" style="fill:none;stroke:#333;stroke-linecap:square;stroke-opacity:.5" id="line2d_17"/><path clip-path="url(#pb286a273e4)" d="m80.755 224.356 6.018.51 6.019-1.603 6.018-4.238 6.019-.802 6.018-1.288 6.018-2.43 6.019-1.33 6.018.868 6.019-2.414 6.018-2.228 6.019-3.328 6.018-.366 6.019-1.42 6.018-4.923 6.019-4.022 6.018-.756 6.019-3.157 6.018-2.91 6.019-4.309 6.018-4.492 6.019-13.972 6.018 2.284 6.019-2.076 6.018-1.87 6.019-3.422 6.018-3.088 6.019-2.662 6.018-.691 6.019-1.047 6.018 1.068 6.019 3.277 6.018-1.125 6.019 3.15 6.018-4.553 6.019.135 6.018-.379 6.019-3.267 6.018.14 6.019-.773 6.018-.899 6.019 5.348 6.018-4.049 6.019-1.212 6.018 1.65 6.019-.972 6.018-1.945 6.019-1.005 6.018-1.596 6.019.756 6.018-.185 6.019-4.219 6.018-3.198 6.019 3.2 6.018 1.364 6.018-1.048 6.019-4.044 6.018.518 6.019.508 6.018 3.374" style="fill:none;stroke:#333;stroke-linecap:square;stroke-opacity:.5" id="line2d_18"/><path clip-path="url(#pb286a273e4)" d="m80.755 213.961 6.018-1.976 6.019-1.954 6.018-2.833 6.019-2.463 6.018-3.926 6.018-2.05 6.019-3.657 6.018-3.475 6.019-4.199 6.018-2.276 6.019-5.11 6.018-2.03 6.019-2.381 6.018-.892 6.019-1.39 6.018 2.12 6.019-1.766 6.018-.167 6.019-3.814 6.018-3.921 6.019-10.45 6.018 1.841 6.019-5.618 6.018 3.664 6.019-.55 6.018-2.24 6.019-1.764 6.018-.522 6.019.386 6.018-4.332 6.019.189 6.018 4.96 6.019-2.438 6.018-2.676 6.019-2.395 6.018 3.77 6.019-1.452 6.018-5.113 6.019 2.895 6.018.853 6.019-4.523 6.018-3.962 6.019 8.07 6.018.256 6.019-7.528 6.018-2.805 6.019-6.236 6.018 1.86 6.019 3.948 6.018-2.34 6.019-2.254 6.018-1.111 6.019 1.887 6.018 2.898 6.018.322 6.019-3.207 6.018 4.271 6.019 1.63 6.018.645" style="fill:none;stroke:#333;stroke-linecap:square;stroke-opacity:.5" id="line2d_19"/><path clip-path="url(#pb286a273e4)" d="m80.755 225.671 6.018-1.912 6.019-.428 6.018-2.613 6.019-4.525 6.018-1.484 6.018-5.258 6.019-5.608 6.018-5.952 6.019-1.359 6.018-3.482 6.019-.7 6.018-2.334 6.019-.924 6.018-3.356 6.019-1.494 6.018.48 6.019-2.207 6.018-3.451 6.019 3.19 6.018.407 6.019-8.338 6.018-2.001 6.019-3.042 6.018-.637 6.019-3.715 6.018-6.807 6.019 1.977 6.018-4.558 6.019-3.841 6.018 1.59 6.019-1.789 6.018 2.609 6.019-5.318 6.018-4.32 6.019-2.857 6.018 3.8 6.019-5.14 6.018-4.177 6.019 4.077 6.018-.042 6.019-6.883 6.018.056 6.019-8.38 6.018 2.689 6.019.625 6.018 1.101 6.019-.863 6.018.343 6.019-10.198 6.018-.59 6.019 11.144 6.018-1.42 6.019.75 6.018.162 6.018-.135 6.019 1.047 6.018 1.104 6.019 1.886 6.018 2.506" style="fill:none;stroke:#333;stroke-linecap:square;stroke-opacity:.5" id="line2d_20"/><path clip-path="url(#pb286a273e4)" d="m80.755 188.855 6.018-6.23 6.019-.972 6.018-4.423 6.019-.63 6.018 7.072 6.018-.905 6.019 1.883 6.018-6.89 6.019-.416 6.018-1.886 6.019-5.844 6.018-7.833 6.019-4.43 6.018-2.128 6.019-10.605 6.018-3.4 6.019-5.907 6.018-6.999 6.019-9.43 6.018-7.894 6.019-4.641 6.018 9.512 6.019-8.695 6.018-2.173 6.019-6.564 6.018 1.125 6.019-8.381 6.018-6.304 6.019.452 6.018 1.022 6.019-.395 6.018 2.74 6.019.588 6.018-2.991 6.019 2.054 6.018.569 6.019-1.674 6.018-6.932 6.019 2.111 6.018 2.47 6.019-8.711 6.018-.13 6.019-.725 6.018-.584 6.019-7.053 6.018-7.69 6.019-3.285 6.018-3.203 6.019 5.887 6.018-3.543 6.019-1.893 6.018-7.28 6.019 5.762 6.018 3.244 6.018-3.036 6.019-6.341 6.018-.465 6.019 1.131 6.018-2.326" style="fill:none;stroke:#333;stroke-linecap:square;stroke-opacity:.5" id="line2d_21"/><path clip-path="url(#pb286a273e4)" d="m80.755 193.404 6.018-2.953 6.019-1.094 6.018-3.572 6.019-4.075 6.018-3.244 6.018-5.585 6.019-5.303 6.018-2.826 6.019-4.694 6.018-3.253 6.019-3.885 6.018-3.475 6.019-2.526 6.018-3.14 6.019-2.644 6.018 2.318 6.019.293 6.018-2.019 6.019 2.12 6.018-1.248 6.019-4.647 6.018-3.249 6.019-2.45 6.018-4.346 6.019-2.012 6.018-2.481 6.019-2.392 6.018-.495 6.019.618 6.018-3.345 6.019-4.6 6.018 2.325 6.019-4.331 6.018-1.236 6.019-1.057 6.018-.336 6.019-1.783 6.018-5.202 6.019 2.641 6.018-.99 6.019-4.599 6.018-3.1 6.019-4.74 6.018 5.065 6.019-2.056 6.018-.417 6.019-4.25 6.018-2.374 6.019-5.227 6.018 3.577 6.019-1.418 6.018-.848 6.019 1.603 6.018-1.456 6.018-1.009 6.019 1.47 6.018 1.233 6.019-.193 6.018-4.168" style="fill:none;stroke:#333;stroke-linecap:square;stroke-opacity:.5" id="line2d_22"/><path clip-path="url(#pb286a273e4)" d="m80.755 205.486 6.018-2.105 6.019-2.15 6.018-.942 6.019-1.452 6.018-3.117 6.018-2.073 6.019-.78 6.018-4.192 6.019-3.593 6.018-4.347 6.019-1.022 6.018-1.067 6.019-1.23 6.018-2.8 6.019-4.771 6.018-2.139 6.019-1.886 6.018-.324 6.019 3.24 6.018-5.273 6.019-3.722 6.018-1.233 6.019 1.025 6.018-4.086 6.019-2.444 6.018-6.845 6.019.25 6.018.702 6.019.168 6.018-5.214 6.019-2.256 6.018-.24 6.019-.17 6.018.031 6.019.67 6.018.933 6.019-2.122 6.018-8.371 6.019-1.3 6.018-2.07 6.019-3.253 6.018-1.235 6.019 1.105 6.018.088 6.019-2.372 6.018-3.793 6.019-3.255 6.018-4.044 6.019 3.3 6.018.612 6.019-.815 6.018-3.49 6.019 3.692 6.018-2.387 6.018-.07 6.019-3.87 6.018 3.885 6.019-3.146 6.018-1.839" style="fill:none;stroke:#333;stroke-linecap:square;stroke-opacity:.5" id="line2d_23"/><path clip-path="url(#pb286a273e4)" d="m80.755 217.237 6.018-.371 6.019-10.4 6.018-4.596 6.019-1.057 6.018-.88 6.018 2.07 6.019 5.15 6.018-1.768 6.019-3.037 6.018-3.7 6.019-2.01 6.018-4.14 6.019-2.575 6.018-8.062 6.019-1.702 6.018-2.07 6.019 1.854 6.018-1.022 6.019 3.255 6.018.087 6.019-13.029 6.018-5.674 6.019.111 6.018 4.43 6.019 5.7 6.018-6.517 6.019-1.953 6.018 8.625 6.019 3.024 6.018-.416 6.019-9.994 6.018 1.852 6.019-7.638 6.018 2.336 6.019-3.416 6.018-7.19 6.019-3.644 6.018 1.193 6.019-3.147 6.018-2.077 6.019-2.533 6.018 4.873 6.019.717 6.018 1.43 6.019 5.435 6.018.542 6.019 3.16 6.018-20.573 6.019 2.832 6.018 10.035 6.019 2.427 6.018 1.681 6.019 3.121 6.018-2.032 6.018.931 6.019 1.215 6.018 3.994 6.019-.804 6.018-.778" style="fill:none;stroke:#333;stroke-linecap:square;stroke-opacity:.5" id="line2d_24"/><path clip-path="url(#pb286a273e4)" d="m80.755 165.41 6.018-4.268 6.019.39 6.018-4.709 6.019.528 6.018.371 6.018-3.922 6.019-1.864 6.018-3.4 6.019-4.19 6.018.668 6.019.63 6.018-1.552 6.019.38 6.018-5.234 6.019 7.544 6.018-5.5 6.019-1.149 6.018 6.087 6.019-4.585 6.018-9.916 6.019-21.137 6.018-.61 6.019.925 6.018-2.382 6.019.73 6.018.242 6.019-1.526 6.018-1.062 6.019 7.781 6.018 1.866 6.019 2.489 6.018-5.829 6.019 7.298 6.018-3.666 6.019 6.076 6.018-4.497 6.019-3.234 6.018 3.074 6.019 2.926 6.018 2.214 6.019.13 6.018 1.31 6.019-11.401 6.018 5.447 6.019 2.717 6.018-2.454 6.019-2.137 6.018-2.004 6.019-2.624 6.018 5.612 6.019-3.562 6.018-4.869 6.019 1.624 6.018 4.568 6.018 5.185 6.019-.057 6.018-.042 6.019.07 6.018.992" style="fill:none;stroke:#333;stroke-linecap:square;stroke-opacity:.5" id="line2d_25"/><path clip-path="url(#pb286a273e4)" d="m80.755 217.492 6.018-1.73 6.019-1.935 6.018-2.14 6.019-1.613 6.018-.742 6.018-2.36 6.019-.516 6.018-3.06 6.019-1.705 6.018-3.045 6.019-2.854 6.018-1.273 6.019-3.825 6.018-.483 6.019-1.009 6.018.407 6.019-2.49 6.018-1.799 6.019-3.162 6.018-5.17 6.019-3.69 6.018-1.244 6.019-2.442 6.018-.922 6.019-2.05 6.018-3.044 6.019-1.324 6.018 1.517 6.019-1.58 6.018-2.268 6.019-2.922 6.018 3.133 6.019-1.843 6.018-2.687 6.019-.942 6.018 2.459 6.019-1.493 6.018-6.484 6.019 3.886 6.018-1.514 6.019-4.629 6.018-1.608 6.019 2.598 6.018-1.12 6.019-.478 6.018-2.213 6.019-.334 6.018 1.237 6.019-.023 6.018-3.115 6.019 1.083 6.018-4.396 6.019 6.52 6.018 2.434 6.018-2.383 6.019-1.903 6.018 2.187 6.019-.807 6.018 1.606" style="fill:none;stroke:#333;stroke-linecap:square;stroke-opacity:.5" id="line2d_26"/><path clip-path="url(#pb286a273e4)" d="m80.755 224.226 6.018-1.716 6.019-2.793 6.018-1.25 6.019-1.077 6.018-1.788 6.018-1.807 6.019-2.67 6.018-2.639 6.019-2.395 6.018-.594 6.019-2.814 6.018.281 6.019-4.591 6.018-1.997 6.019-6.806 6.018-4.796 6.019-2.315 6.018 1.604 6.019-.82 6.018-4.414 6.019-1.634 6.018-4.641 6.019-3.436 6.018 6.28 6.019-5.069 6.018-2.368 6.019.18 6.018-1.473 6.019-.357 6.018-2.527 6.019-4.794 6.018-.392 6.019-1.974 6.018-2.989 6.019-1.316 6.018.995 6.019-1.097 6.018-4.025 6.019-1.04 6.018 2.169 6.019-3.89 6.018-.78 6.019 4.323 6.018-3.23 6.019-4.146 6.018-1.692 6.019-.117 6.018 1.03 6.019.218 6.018-1.84 6.019-1.025 6.018-2.966 6.019 5.361 6.018-.009 6.018-.788 6.019-1.235 6.018 1.104 6.019-.44 6.018 1.283" style="fill:none;stroke:#333;stroke-linecap:square;stroke-opacity:.5" id="line2d_27"/><path clip-path="url(#pb286a273e4)" d="m80.755 216.95 6.018-2.63 6.019-.892 6.018-2.141 6.019-2.276 6.018-1.831 6.018 1.412 6.019.222 6.018-2.582 6.019-1.96 6.018-2.374 6.019-2.81 6.018-2.16 6.019-.43 6.018-2.3 6.019-2.647 6.018-.689 6.019-4.227 6.018-6.904 6.019 4.646 6.018-5.909 6.019-6.46 6.018.089 6.019-6.317 6.018 5.635 6.019-3.908 6.018-2.057 6.019-1.916 6.018 1.105 6.019-3.484 6.018-1.624 6.019-.754 6.018 1.053 6.019.16 6.018.097 6.019-.247 6.018 1.832 6.019-4.468 6.018-2.537 6.019 2.571 6.018-3.22 6.019-3.642 6.018-1.258 6.019-1.272 6.018 5.783 6.019-2.15 6.018.627 6.019 1.389 6.018 4.254 6.019 4.698 6.018-.686 6.019.144 6.018-4.856 6.019 3.473 6.018.065 6.018-2.197 6.019-1.032 6.018 1.378 6.019-.867 6.018.924" style="fill:none;stroke:#333;stroke-linecap:square;stroke-opacity:.5" id="line2d_28"/><path clip-path="url(#pb286a273e4)" d="m80.755 225.267 6.018-2.711 6.019-2.105 6.018-4.29 6.019-1.85 6.018 3.17 6.018-.928 6.019-3.96 6.018-.175 6.019-1.346 6.018-1.467 6.019-.07 6.018-.369 6.019-3.466 6.018-1.15 6.019-5.15 6.018 1.168 6.019-2.365 6.018-1.478 6.019 5.341 6.018-10.668 6.019-6.955 6.018 1.231 6.019-5.019 6.018 5.826 6.019-1.35 6.018-3.972 6.019 1.364 6.018-.308 6.019-2.023 6.018-1.686 6.019-3.406 6.018 2.31 6.019-3.076 6.018-.343 6.019-5.007 6.018-.158 6.019-3.659 6.018-6.772 6.019 2.774 6.018-5.518 6.019-4.986 6.018.997 6.019 3.873 6.018-2.943 6.019-11.443 6.018.973 6.019 5.212 6.018-3.293 6.019 1.835 6.018-4.23 6.019-2.417 6.018-1.915 6.019 4.56 6.018 1.834 6.018-1.285 6.019-3.9 6.018-.375 6.019 1.489 6.018 1.491" style="fill:none;stroke:#333;stroke-linecap:square;stroke-opacity:.5" id="line2d_29"/><path clip-path="url(#pb286a273e4)" d="m80.755 148.938 6.018-.336 6.019 5.178 6.018 3.546 6.019 1.965 6.018 4.191 6.018.701 6.019 5.225 6.018-4.29 6.019 3.164 6.018.882 6.019-5.643 6.018-5.795 6.019-3.15 6.018-.222 6.019-14.044 6.018-1.392 6.019-1.61 6.018 8.442 6.019-.061 6.018-3.95 6.019-6.632 6.018 3.601 6.019 1.222 6.018-4.205 6.019.614 6.018-.214 6.019.756 6.018-.804 6.019-2.148 6.018-7.437 6.019-4.434 6.018-.127 6.019.943 6.018-4.147 6.019 1.858 6.018-3.105 6.019.895 6.018-1.672 6.019 1.32 6.018.415 6.019-.646 6.018-.727 6.019-1.445 6.018 3.289 6.019-3.204 6.018.355 6.019-3.432 6.018-4.37 6.019 1.58 6.018-2.203 6.019 1.392 6.018-1.88 6.019 2.742 6.018 5.725 6.018 1.173 6.019.644 6.018.176 6.019-.705 6.018.179" style="fill:none;stroke:#333;stroke-linecap:square;stroke-opacity:.5" id="line2d_30"/><path clip-path="url(#pb286a273e4)" d="m80.755 240.318 6.018-.693 6.019-3.651 6.018 1.093 6.019-.56 6.018-3.279 6.018-1.745 6.019.012 6.018-2.251 6.019-.24 6.018-1.245 6.019-2.008 6.018-2.223 6.019.176 6.018.331 6.019-.437 6.018 1.193 6.019-.328 6.018-1.416 6.019-2.19 6.018-3.551 6.019-3.366 6.018-3.439 6.019-1.716 6.018-3.268 6.019-3.533 6.018 4.055 6.019 1.122 6.018-.212 6.019.698 6.018-2.58 6.019-.718 6.018 1.312 6.019-1.301 6.018.01 6.019-1.568 6.018.548 6.019.724 6.018-5.512 6.019-.788 6.018 2.66 6.019-2.983 6.018-1.617 6.019-1.286 6.018 1.777 6.019-.662 6.018 2.761 6.019 2.25 6.018-.196 6.019-2.891 6.018-3.74 6.019-.817 6.018-.89 6.019-2.48 6.018-3.647 6.018-1.449 6.019 2.465 6.018 3.36 6.019-1.69 6.018 1.708" style="fill:none;stroke:#333;stroke-linecap:square;stroke-opacity:.5" id="line2d_31"/><path clip-path="url(#pb286a273e4)" d="m80.755 222.439 6.018-.062 6.019-3.725 6.018-.853 6.019-2.413 6.018-6.865 6.018.235 6.019 1.728 6.018-2.814 6.019-.753 6.018-.295 6.019 5.688 6.018-.918 6.019-2.86 6.018-6.336 6.019-6.679 6.018 4.66 6.019-1.212 6.018-5.492 6.019-4.833 6.018 2.479 6.019-.67 6.018 3.934 6.019-12.01 6.018 3.61 6.019-.64 6.018.786 6.019-5.885 6.018 4.98 6.019-2.1 6.018-9.582 6.019 2.052 6.018 1.962 6.019-2.854 6.018 4.272 6.019-5.547 6.018 3.999 6.019-4.591 6.018-2.422 6.019-.109 6.018 4.957 6.019-7.514 6.018 6.489 6.019-4.14 6.018-.315 6.019.994 6.018-3.673 6.019 7.875 6.018 2.311 6.019-5.537 6.018-.897 6.019.924 6.018-4.888 6.019.544 6.018-.993 6.018 3.078 6.019-4.022 6.018.188 6.019-8.863 6.018 4.275" style="fill:none;stroke:#333;stroke-linecap:square;stroke-opacity:.5" id="line2d_32"/><path clip-path="url(#pb286a273e4)" d="m80.755 220.509 6.018-2.822 6.019-.246 6.018-2.265 6.019-2.015 6.018-2.627 6.018-3.91 6.019-4.057 6.018-3.042 6.019-2.83 6.018-4.326 6.019-2.674 6.018-2.053 6.019-1.105 6.018-3.568 6.019-5.328 6.018-1.784 6.019-5.922 6.018-.797 6.019 2.128 6.018-8.083 6.019-4.237 6.018-1.722 6.019-3.409 6.018 1.842 6.019-5.677 6.018-5.24 6.019-1.538 6.018-3.193 6.019-1.278 6.018-4.837 6.019-4.403 6.018-.693 6.019-2.136 6.018-1.33 6.019-1.63 6.018 1.898 6.019 2.299 6.018-3.923 6.019 1.036 6.018-.354 6.019-3.011 6.018-6.415 6.019-1.283 6.018 7.285 6.019-.707 6.018.645 6.019-2.653 6.018.793 6.019.588 6.018-3.136 6.019-1.403 6.018-.073 6.019 2.134 6.018 1.674 6.018-.446 6.019-2.866 6.018.695 6.019-1.9 6.018-.691" style="fill:none;stroke:#333;stroke-linecap:square;stroke-opacity:.5" id="line2d_33"/><path clip-path="url(#pb286a273e4)" d="m80.755 223.194 6.018-1.403 6.019-1.005 6.018-3.146 6.019-1.25 6.018 1.25 6.018-3.488 6.019-.875 6.018-2.394 6.019-2.894 6.018-1.583 6.019-2.763 6.018-2.281 6.019-3.326 6.018-2.173 6.019-2.443 6.018-.224 6.019-1.208 6.018-2.448 6.019-10.727 6.018-4.996 6.019-4.675 6.018.678 6.019-4.383 6.018 1.334 6.019-.653 6.018.23 6.019-4.032 6.018-3.858 6.019.13 6.018-2.463 6.019-1.664 6.018 4.558 6.019-.551 6.018-1.39 6.019-2.03 6.018.145 6.019-1.79 6.018-3.875 6.019-.087 6.018 1.16 6.019-2.951 6.018-1.376 6.019-6.642 6.018-1.468 6.019-1.935 6.018-3.034 6.019-.678 6.018.873 6.019-1.965 6.018-1.307 6.019 1.6 6.018-2.696 6.019 6.394 6.018 2.681 6.018.977 6.019-.988 6.018 2.667 6.019 1.417 6.018 3.925" style="fill:none;stroke:#333;stroke-linecap:square;stroke-opacity:.5" id="line2d_34"/><path clip-path="url(#pb286a273e4)" d="m80.755 212.752 6.018-.325 6.019-1.721 6.018-2.038 6.019-2.605 6.018-1.76 6.018-1.759 6.019-1.067 6.018-2.392 6.019-2.29 6.018-2.397 6.019-2.35 6.018-.977 6.019-3.262 6.018-.439 6.019.436 6.018-3.048 6.019-5.61 6.018.307 6.019-1.001 6.018 2.027 6.019-4.034 6.018-.338 6.019-4.894 6.018-2.488 6.019-.077 6.018-1.662 6.019-3.858 6.018 1.907 6.019.663 6.018 1.356 6.019-4.775 6.018 2.516 6.019-4.429 6.018-3.276 6.019.607 6.018 1.841 6.019-1.128 6.018-4.992 6.019 2.12 6.018-.89 6.019-1.66 6.018-.44 6.019-2.9 6.018 1.049 6.019-2.207 6.018-3.648 6.019-2.324 6.018-.415 6.019-.621 6.018-2.68 6.019.034 6.018-4.419 6.019 8.76 6.018 1.49 6.018-2.476 6.019-3.22 6.018 2.674 6.019 1.305 6.018 2.835" style="fill:none;stroke:#333;stroke-linecap:square;stroke-opacity:.5" id="line2d_35"/><path clip-path="url(#pb286a273e4)" d="m80.755 221.69 6.018-2.762 6.019-1.078 6.018-2.893 6.019-1.168 6.018-.535 6.018-1.907 6.019-4.19 6.018-3.098 6.019-.656 6.018-3.184 6.019-.533 6.018-1.458 6.019-.96 6.018-.828 6.019-4.217 6.018-1.634 6.019-2.315 6.018-3.244 6.019-4.393 6.018-7.701 6.019-8.589 6.018 3.312 6.019-5.612 6.018-1.085 6.019-.498 6.018-1.193 6.019-7.58 6.018-1.186 6.019 2.516 6.018-1.584 6.019-1.717 6.018 3.659 6.019-.797 6.018-1.619 6.019.462 6.018 2.846 6.019-3.504 6.018-4.201 6.019 3.872 6.018-1.376 6.019-3.586 6.018 1.493 6.019 3.178 6.018-.465 6.019-4.228 6.018-3.135 6.019.816 6.018.051 6.019.408 6.018-2.309 6.019-1.712 6.018-1.547 6.019 3.667 6.018 3.18 6.018-4.254 6.019 1.706 6.018.399 6.019 2.118 6.018.53" style="fill:none;stroke:#333;stroke-linecap:square;stroke-opacity:.5" id="line2d_36"/><path clip-path="url(#pb286a273e4)" d="m80.755 218.176 6.018-2.762 6.019-3.741 6.018-1.54 6.019-1.296 6.018-6.192 6.018.58 6.019-3.31 6.018-.879 6.019-2.163 6.018-1.231 6.019-1.642 6.018-2.11 6.019-4.854 6.018-1.766 6.019-4.11 6.018-3.86 6.019-1.497 6.018-.516 6.019 3.222 6.018-8.67 6.019-2.284 6.018 1.22 6.019-2.28 6.018-.708 6.019-5.327 6.018-2.044 6.019.188 6.018 2.28 6.019-.755 6.018-2.226 6.019-.596 6.018 1.78 6.019-3.757 6.018-3.985 6.019-1.016 6.018-2.316 6.019-1.362 6.018-7.737 6.019 5.738 6.018-2.898 6.019-8.954 6.018 1.303 6.019 3.133 6.018-1.015 6.019-3.233 6.018.988 6.019-1.847 6.018-5.362 6.019-1.642 6.018-5.431 6.019-2.158 6.018.782 6.019-4.099 6.018-.314 6.018-.196 6.019-2.959 6.018 3.298 6.019-2.633 6.018 2.139" style="fill:none;stroke:#333;stroke-linecap:square;stroke-opacity:.5" id="line2d_37"/><path clip-path="url(#pb286a273e4)" d="m80.755 220.035 6.018-1.737 6.019-1.826 6.018-3.311 6.019-1.906 6.018-.96 6.018-5.981 6.019-1.624 6.018-1.608 6.019-2.273 6.018-1.866 6.019-2.576 6.018-.922 6.019-2.314 6.018-.708 6.019-5.793 6.018.99 6.019-3.84 6.018-3.552 6.019-3.617 6.018-11.679 6.019-4.295 6.018 1.665 6.019-7.62 6.018.81 6.019-.353 6.018-4.449 6.019-2.434 6.018.666 6.019.101 6.018-3.288 6.019-2.973 6.018 3.881 6.019-.374 6.018-1.227 6.019-.813 6.018 1.047 6.019-1.721 6.018-2.846 6.019 2.6 6.018-10.374 6.019 1.282 6.018-2.142 6.019 1.623 6.018 1.108 6.019-5.73 6.018-2.807 6.019-4.604 6.018-.737 6.019-.01 6.018-4.63 6.019-1.324 6.018-3.269 6.019 3.441 6.018 3.864 6.018-2.08 6.019 1.236 6.018.78 6.019-.69 6.018 1.334" style="fill:none;stroke:#333;stroke-linecap:square;stroke-opacity:.5" id="line2d_38"/><path clip-path="url(#pb286a273e4)" d="m80.755 195.55 6.018 2.258 6.019-1.61 6.018-.944 6.019-2.654 6.018-8.224 6.018-5.153 6.019-1.134 6.018-3.662 6.019-4.745 6.018 2.746 6.019 1.604 6.018 1.716 6.019 8.154 6.018-8.007 6.019.505 6.018-4.09 6.019-1.936 6.018-1.339 6.019.378 6.018-6.713 6.019-8.066 6.018.247 6.019 6.87 6.018-27.332 6.019 5.3 6.018-7.25 6.019 4.85 6.018-.428 6.019 2.433 6.018-1.025 6.019-.965 6.018.825 6.019 7.692 6.018-.998 6.019 4.008 6.018-1.652 6.019 7.668 6.018-12.31 6.019 8.587 6.018-6.48 6.019 11.629 6.018-5.41 6.019-.494 6.018 5.02 6.019 1.06 6.018 2.161 6.019-5.858 6.018-1.68 6.019-.115 6.018-1.316 6.019-.376 6.018-2.649 6.019 1.2 6.018-.829 6.018-1.321 6.019 1.666 6.018-.312 6.019 2.565 6.018-1.174" style="fill:none;stroke:#333;stroke-linecap:square;stroke-opacity:.5" id="line2d_39"/><path clip-path="url(#pb286a273e4)" d="m80.755 218.37 6.018-2.816 6.019-1.886 6.018-3.166 6.019-1.539 6.018-4.041 6.018 5.303 6.019-.562 6.018-5.434 6.019-6.844 6.018-1.52 6.019-2.27 6.018 4.019 6.019-3.345 6.018-2.05 6.019-2.84 6.018.673 6.019-1.713 6.018-4.069 6.019-3.228 6.018-8.605 6.019-7.337 6.018 3.068 6.019-4.672 6.018-3.513 6.019-1.774 6.018-4.955 6.019.866 6.018 1.309 6.019-2.146 6.018-1.89 6.019-2.647 6.018 2.708 6.019-.026 6.018-1.61 6.019-.321 6.018 2.284 6.019-3.183 6.018.048 6.019-.06 6.018-7.034 6.019-2.512 6.018-2.486 6.019.845 6.018 2.037 6.019-3.905 6.018 1.542 6.019 1.757 6.018 3.538 6.019-1.077 6.018 7.02 6.019.064 6.018-5.862 6.019 3.062 6.018 2.56 6.018.011 6.019-1.156 6.018-.307 6.019 2.351 6.018 1.711" style="fill:none;stroke:#333;stroke-linecap:square;stroke-opacity:.5" id="line2d_40"/><path clip-path="url(#pb286a273e4)" d="m80.755 183.297 6.018-5.184 6.019.797 6.018-3.803 6.019-3.367 6.018-.182 6.018-8.555 6.019-2.88 6.018 5.827 6.019-4.74 6.018 1.838 6.019-.274 6.018-3.044 6.019-3.03 6.018-3.842 6.019 3.07 6.018 3.832 6.019-1.144 6.018-.78 6.019-11.071 6.018-2.823 6.019-1.016 6.018-1.279 6.019 5.344 6.018-5.655 6.019-3.145 6.018-3.154 6.019-.518 6.018-.505 6.019.843 6.018-4.527 6.019 1.352 6.018-3.742 6.019 1.268 6.018.26 6.019-.068 6.018-.382 6.019-8.436 6.018-.3 6.019-1.394 6.018-3.672 6.019-.274 6.018-6.945 6.019 1.343 6.018 1.702 6.019-1.378 6.018-1.16 6.019-7.156 6.018-6.152 6.019-7.123 6.018 14.175 6.019-3.027 6.018-6.706 6.019 4.5 6.018 1.35 6.018-6.987 6.019 6.37 6.018 4.422 6.019-.94 6.018 3.888" style="fill:none;stroke:#333;stroke-linecap:square;stroke-opacity:.5" id="line2d_41"/><path clip-path="url(#pb286a273e4)" d="m80.755 215.274 6.018.29 6.019-.183 6.018-1.273 6.019-3.797 6.018-4.637 6.018 1.56 6.019-4.487 6.018-3.506 6.019.677 6.018-2.15 6.019-1.451 6.018-3.477 6.019-4.364 6.018-3.42 6.019-2.767 6.018 2.976 6.019-.931 6.018-4.164 6.019-11.705 6.018-1.57 6.019-5.267 6.018 1.434 6.019-2.35 6.018 1.304 6.019-4.847 6.018 1.737 6.019 1.841 6.018-5.632 6.019-3.18 6.018-.955 6.019-3.012 6.018.943 6.019 2.337 6.018-1.107 6.019.605 6.018 3.194 6.019-.426 6.018-.523 6.019-2.787 6.018 3.428 6.019-2.836 6.018 2.744 6.019-2.887 6.018 2.162 6.019-4.76 6.018-5.117 6.019-1.059 6.018-.2 6.019 1.687 6.018-1.689 6.019-.602 6.018-3.827 6.019 5.574 6.018 4.132 6.018.265 6.019-2.486 6.018 5.106 6.019.064 6.018 1.358" style="fill:none;stroke:#333;stroke-linecap:square;stroke-opacity:.5" id="line2d_42"/><path clip-path="url(#pb286a273e4)" d="m80.755 217.6 6.018-1.898 6.019-.071 6.018-1.97 6.019-2.728 6.018-3.403 6.018-1.833 6.019.079 6.018-2.286 6.019-3.588 6.018-1.69 6.019-3.258 6.018-.23 6.019-3.572 6.018-2.757 6.019-1.73 6.018 3.512 6.019-4.313 6.018-2.276 6.019-.512 6.018-1.303 6.019-.718 6.018 2.936 6.019-2.594 6.018 1.078 6.019-3.696 6.018-.843 6.019-1.222 6.018-4.182 6.019.562 6.018-2.88 6.019-1.51 6.018 5.372 6.019-3.12 6.018 3.178 6.019-.814 6.018-.153 6.019 1.79 6.018-4.513 6.019.817 6.018-2.371 6.019-5.249 6.018-.592 6.019-1.197 6.018.175 6.019-1.778 6.018-1.828 6.019 2.05 6.018-1.03 6.019-2.972 6.018-8.742 6.019 2.808 6.018-2.57 6.019 2.89 6.018 1.804 6.018-4.898 6.019-2.076 6.018.252 6.019 1.581 6.018-1.965" style="fill:none;stroke:#333;stroke-linecap:square;stroke-opacity:.5" id="line2d_43"/><path clip-path="url(#pb286a273e4)" d="m80.755 227.972 6.018-1.318 6.019.712 6.018-3.062 6.019-3.55 6.018 5.949 6.018-1.1 6.019.537 6.018-.269 6.019-3.966 6.018-.26 6.019-2.756 6.018-.53 6.019-5.198 6.018-.192 6.019 1.131 6.018 1.105 6.019-6.812 6.018-2.37 6.019-3.024 6.018-1.347 6.019-1.628 6.018-.858 6.019 1.212 6.018-15.238 6.019-7.249 6.018-2.34 6.019 2.519 6.018 1.348 6.019.008 6.018 6.137 6.019-2.335 6.018-2.383 6.019-.668 6.018-6.845 6.019-4.421 6.018-.648 6.019 3.877 6.018-4.5 6.019 1.236 6.018-.62 6.019.236 6.018-2.672 6.019-.438 6.018.896 6.019-3.756 6.018-2.815 6.019-.497 6.018-4.661 6.019-3.528 6.018-2.394 6.019.003 6.018-1.093 6.019 1.172 6.018 1.281 6.018-.003 6.019-.96 6.018 1.92 6.019-1.919 6.018 1.642" style="fill:none;stroke:#333;stroke-linecap:square;stroke-opacity:.5" id="line2d_44"/><path clip-path="url(#pb286a273e4)" d="m80.755 210.581 6.018-1.04 6.019-3.823 6.018-1.793 6.019-2.035 6.018.783 6.018-.523 6.019-1.65 6.018-1.684 6.019-2.567 6.018-1.662 6.019-2.758 6.018-2.438 6.019-2.16 6.018-2.457 6.019-3.453 6.018 3.736 6.019-2.88 6.018-1.596 6.019-5.823 6.018-2.83 6.019-6.785 6.018-2.357 6.019-8.666 6.018-.755 6.019 2.518 6.018-.7 6.019-.635 6.018-3.294 6.019-1.59 6.018-1.047 6.019-2.092 6.018 3.428 6.019-.737 6.018-2.72 6.019 1.784 6.018 3.422 6.019 1.66 6.018-3.933 6.019-.833 6.018.008 6.019-5.064 6.018-2.39 6.019 6.53 6.018 1.833 6.019-6.973 6.018-1.887 6.019-2.36 6.018.863 6.019-2.26 6.018 1.765 6.019-3.35 6.018-5.319 6.019.744 6.018 4.475 6.018-1.407 6.019-1.402 6.018 2.706 6.019 1.332 6.018.16" style="fill:none;stroke:#333;stroke-linecap:square;stroke-opacity:.5" id="line2d_45"/><path clip-path="url(#pb286a273e4)" d="m80.755 193.09 6.018-.77 6.019-2.575 6.018-3.193 6.019-6.641 6.018.614 6.018-.725 6.019-4.616 6.018-5.263 6.019-4.119 6.018-3.365 6.019-2.98 6.018-1.352 6.019-5.927 6.018-2.512 6.019-4.44 6.018.15 6.019-2.168 6.018-.96 6.019 2.324 6.018-9.185 6.019-5.824 6.018 3.043 6.019-1.709 6.018-.445 6.019-1.372 6.018-3.185 6.019-2.724 6.018.586 6.019-2.94 6.018-2.776 6.019-4.624 6.018 3.543 6.019-2.499 6.018.503 6.019.58 6.018.358 6.019-2.287 6.018-3.302 6.019-.684 6.018.762 6.019-2.544 6.018-3.26 6.019 2.87 6.018-1.051 6.019-1.34 6.018-1.052 6.019-4.24 6.018 2.956 6.019-5.702 6.018 1.448 6.019-1.148 6.018-1.992 6.019-.967 6.018-1.373 6.018-1.377 6.019.836 6.018.896 6.019-1.549 6.018.463" style="fill:none;stroke:#333;stroke-linecap:square;stroke-opacity:.5" id="line2d_46"/><path clip-path="url(#pb286a273e4)" d="m80.755 238.107 6.018-1.745 6.019-.219 6.018-1.23 6.019-1.459 6.018-2.582 6.018-7.19 6.019-.916 6.018-1.887 6.019-2.967 6.018-4.584 6.019-1.883 6.018-3.681 6.019-5.506 6.018-1.435 6.019 1.779 6.018-2.942 6.019-3.947 6.018-4.605 6.019-1.775 6.018-4.258 6.019-1.025 6.018-6.29 6.019 1.96 6.018-3.557 6.019 8.567 6.018 2.805 6.019 2.51 6.018-4.645 6.019 3.478 6.018-.934 6.019-.189 6.018 2.68 6.019-2.37 6.018-.273 6.019-.173 6.018-3.391 6.019 1.695 6.018-2.031 6.019-2.058 6.018-1.353 6.019 1.95 6.018-4.593 6.019-2.073 6.018.32 6.019-1.63 6.018-1.772 6.019-.504 6.018-2.5 6.019-3.747 6.018 5.687 6.019 3.96 6.018-2.149 6.019-1.015 6.018-4.552 6.018-4.416 6.019-6.439 6.018-.189 6.019 1.967 6.018-3.232" style="fill:none;stroke:#333;stroke-linecap:square;stroke-opacity:.5" id="line2d_47"/><path clip-path="url(#pb286a273e4)" d="m80.755 198.318 6.018-2.963 6.019.249 6.018-1.36 6.019.066 6.018 2.272 6.018 1.33 6.019-2.988 6.018-1.744 6.019-1.637 6.018-1.145 6.019-4.463 6.018-2.445 6.019-5.576 6.018.291 6.019-2.2 6.018-2.135 6.019-6.455 6.018 2.424 6.019-2.048 6.018.444 6.019-3.394 6.018 1.141 6.019-6.455 6.018-7.466 6.019-3.425 6.018-.935 6.019-1.885 6.018.73 6.019-2.91 6.018-4.775 6.019-2.813 6.018 1.966 6.019-1.347 6.018-1.344 6.019-.88 6.018 2.672 6.019-.394 6.018-4.137 6.019 1.57 6.018.111 6.019-.617 6.018.169 6.019 3.071 6.018-.573 6.019-3.996 6.018.4 6.019-2.725 6.018.327 6.019-.171 6.018-2.604 6.019-1.722 6.018-3.187 6.019 4.592 6.018 3.506 6.018-1.702 6.019-2.71 6.018 1.689 6.019-.319 6.018-.736" style="fill:none;stroke:#333;stroke-linecap:square;stroke-opacity:.5" id="line2d_48"/><path clip-path="url(#pb286a273e4)" d="m80.755 223.11 6.018-2.034 6.019 2.198 6.018-.309 6.019-1.137 6.018-5.03 6.018-6.25 6.019-1.084 6.018-.307 6.019-3.698 6.018-1.842 6.019-2.386 6.018-5.606 6.019-3.677 6.018-.854 6.019-.933 6.018 2.334 6.019-2.825 6.018-2.131 6.019 2.486 6.018-12.698 6.019-6.226 6.018 1.167 6.019-3.025 6.018 3.238 6.019-3.876 6.018-4.81 6.019 3.305 6.018-.613 6.019 3.229 6.018-8.517 6.019 2.264 6.018 3.995 6.019-1.333 6.018-1.087 6.019-2.438 6.018-.074 6.019-2.232 6.018-7.507 6.019 1.384 6.018-2.325 6.019 1.34 6.018-3.297 6.019.162 6.018-1.983 6.019-2.28 6.018.41 6.019-.176 6.018-1.54 6.019-3.251 6.018-.222 6.019-4.37 6.018-.108 6.019 2.915 6.018 1.654 6.018-3.806 6.019-.425 6.018 3.77 6.019-3.057 6.018-2.698" style="fill:none;stroke:#333;stroke-linecap:square;stroke-opacity:.5" id="line2d_49"/><path clip-path="url(#pb286a273e4)" d="m80.755 166.555 6.018-1.41 6.019-1.399 6.018-.173 6.019-3.404 6.018-3.653 6.018-.072 6.019-4.117 6.018.502 6.019-1.68 6.018-1.708 6.019-.46 6.018 3.038 6.019-4.015 6.018-6.874 6.019-5.962 6.018-3.616 6.019 2.44 6.018 2.925 6.019-4.345 6.018-2.91 6.019-.132 6.018 5.571 6.019-1.504 6.018-5.916 6.019 4.343 6.018.576 6.019-3.109 6.018 1.428 6.019-6.512 6.018-5.417 6.019 2.457 6.018 1.444 6.019-2.72 6.018.773 6.019-1.553 6.018-2.373 6.019 1.071 6.018 6.18 6.019 1.17 6.018-9.908 6.019 1.16 6.018 1.345 6.019-2.855 6.018-2.063 6.019 1.82 6.018-.348 6.019-3.997 6.018-3.804 6.019.018 6.018.285 6.019.137 6.018-2.98 6.019-.108 6.018.44 6.018-3.305 6.019 2.38 6.018-.469 6.019-.762 6.018-2.562" style="fill:none;stroke:#333;stroke-linecap:square;stroke-opacity:.5" id="line2d_50"/><path clip-path="url(#pb286a273e4)" d="m80.755 222.172 6.018-2.972 6.019-.968 6.018-.85 6.019-1.244 6.018-1.53 6.018-2.535 6.019-2.51 6.018-2.782 6.019-4.31 6.018-1.31 6.019-3.374 6.018-1.85 6.019-3.215 6.018-2.363 6.019-2.429 6.018.962 6.019-3.393 6.018-1.586 6.019-.118 6.018-4.267 6.019-5.007 6.018-5.442 6.019-1.662 6.018 1.592 6.019-3.377 6.018-3.914 6.019.612 6.018-.77 6.019-.223 6.018-3.303 6.019-3.274 6.018 2.96 6.019-1.286 6.018-.601 6.019-1.118 6.018-.195 6.019-1.326 6.018-6.514 6.019 2.381 6.018.746 6.019-3.918 6.018-2.019 6.019 1.033 6.018-1.2 6.019-3.115 6.018-2.137 6.019-2.831 6.018.318 6.019-4.949 6.018-.077 6.019.004 6.018-.204 6.019 5.967 6.018 3.654 6.018-2.39 6.019-3.552 6.018 2.191 6.019.281 6.018-1.092" style="fill:none;stroke:#333;stroke-linecap:square;stroke-opacity:.5" id="line2d_51"/><path clip-path="url(#pb286a273e4)" d="m80.755 228.244 6.018-5.749 6.019-.89 6.018-2.044 6.019-3.528 6.018-5.291 6.018-3.257 6.019 1.939 6.018-4.396 6.019-.836 6.018-.508 6.019-1.08 6.018-3.744 6.019-6.03 6.018-1.088 6.019-1.065 6.018-2.707 6.019 2.51 6.018-5.455 6.019-6.246 6.018-8.12 6.019-3.663 6.018 2.423 6.019-1.575 6.018 1.782 6.019 4.54 6.018-2.822 6.019-.3 6.018-1.087 6.019-4.853 6.018-1.787 6.019 2.601 6.018 10.404 6.019-21.063 6.018 16.766 6.019-5.223 6.018-3.934 6.019-3.149 6.018 1.877 6.019-3.762 6.018-13.084 6.019-2.407 6.018-2.882 6.019 4.962 6.018-2.589 6.019-6.462 6.018-1.666 6.019-5.21 6.018.55 6.019 3.772 6.018-2.711 6.019-5.863 6.018-1.095 6.019 8.256 6.018 6.687 6.018-1.045 6.019-9.316 6.018.435 6.019 5.696 6.018.463" style="fill:none;stroke:#333;stroke-linecap:square;stroke-opacity:.5" id="line2d_52"/><path clip-path="url(#pb286a273e4)" d="m80.755 184.576 6.018-5.631 6.019 1.285 6.018-2.25 6.019-5.773 6.018 4.238 6.018 1.091 6.019-4.417 6.018-2.76 6.019-2.517 6.018-1.965 6.019-3.017 6.018-8.628 6.019-3.694 6.018-2.441 6.019-2.902 6.018 6.216 6.019-3.222 6.018-4.623 6.019-1.337 6.018-3.622 6.019-6.805 6.018-6.55 6.019-.387 6.018-2.546 6.019-2.369 6.018-.96 6.019-2.698 6.018 4.448 6.019-1.818 6.018-1.727 6.019-.847 6.018-1.543 6.019-1.331 6.018-.739 6.019-1.435 6.018-.518 6.019 1.64 6.018-3.792 6.019-1.162 6.018-3.126 6.019-.547 6.018-2.313 6.019 2.146 6.018 4.16 6.019-5.214 6.018 1.607 6.019-4.24 6.018-.671 6.019 2.272 6.018-3.156 6.019-.481 6.018.693 6.019 1.385 6.018-1.956 6.018 2.408 6.019 2.985 6.018 1.979 6.019-4.44 6.018-.974" style="fill:none;stroke:#333;stroke-linecap:square;stroke-opacity:.5" id="line2d_53"/><path clip-path="url(#pb286a273e4)" d="m80.755 223.172 6.018-2.377 6.019-1.647 6.018-1.576 6.019-1.126 6.018-3.367 6.018-.767 6.019-1.752 6.018-.957 6.019-1.177 6.018-1.296 6.019-2.277 6.018-1.3 6.019-3.127 6.018-4.019 6.019-8.075 6.018.859 6.019-1.655 6.018-1.888 6.019-5.336 6.018-6.411 6.019-3.576 6.018 3.014 6.019-7.98 6.018-.504 6.019 1.31 6.018-.288 6.019-.545 6.018-3.624 6.019 2.57 6.018 2.684 6.019-6.884 6.018 4.248 6.019-.23 6.018-.823 6.019-1.835 6.018.955 6.019-5.052 6.018-1.335 6.019.804 6.018 1.231 6.019-7.476 6.018 4.145 6.019-.01 6.018 1.884 6.019-.407 6.018-.97 6.019.906 6.018 3.315 6.019 2.373 6.018.777 6.019-2.718 6.018-1.067 6.019-.203 6.018-.407 6.018.991 6.019-.844 6.018-.063 6.019-1.334 6.018-.387" style="fill:none;stroke:#333;stroke-linecap:square;stroke-opacity:.5" id="line2d_54"/><path clip-path="url(#pb286a273e4)" d="m80.755 128.144 6.018 2.689 6.019-.902 6.018-.608 6.019-.35 6.018 2.956 6.018 2.983 6.019-.196 6.018 3.599 6.019-.63 6.018-1.679 6.019 1.318 6.018.201 6.019-2.716 6.018-2.464 6.019-10.319 6.018.096 6.019.186 6.018 4.032 6.019 1.437 6.018-6.371 6.019 1.774 6.018 3.877 6.019-3.115 6.018.92 6.019 3.868 6.018 1.47 6.019-2.736 6.018-.971 6.019-.162 6.018-5.564 6.019-2.364 6.018 3.163 6.019.337 6.018-.959 6.019 2.186 6.018-1.781 6.019-.38 6.018-2.092 6.019.809 6.018-1.645 6.019.198 6.018-1.472 6.019 2.286 6.018-1.32 6.019-2.376 6.018-.586 6.019-3.135 6.018-.35 6.019.475 6.018-1.695 6.019.425 6.018-1.478 6.019 3.108 6.018-.314 6.018-.858 6.019.191 6.018 1.084 6.019-2.523 6.018-.023" style="fill:none;stroke:#333;stroke-linecap:square;stroke-opacity:.5" id="line2d_55"/><path clip-path="url(#pb286a273e4)" d="m80.755 235.274 6.018-1.08 6.019-2.699 6.018-1.879 6.019-1.895 6.018-2.002 6.018-1.49 6.019-1.449 6.018-1.713 6.019-3.192 6.018-1.573 6.019-1.63 6.018-2.763 6.019.97 6.018-2.287 6.019-5.551 6.018-.617 6.019-2.066 6.018-.897 6.019.996 6.018-3.625 6.019-3.577 6.018-5.854 6.019-2.547 6.018-1.772 6.019-1.226 6.018-.09 6.019.969 6.018 1.714 6.019.37 6.018-2.553 6.019-.94 6.018 1.513 6.019-2.672 6.018-.17 6.019-.465 6.018 1.008 6.019.413 6.018-3.742 6.019-1.82 6.018-2.005 6.019-1.383 6.018 1.39 6.019-2.035 6.018.902 6.019-7.975 6.018-1.264 6.019.529 6.018-5.584 6.019-2.809 6.018 2.785 6.019-2.992 6.018 3.326 6.019 2.63 6.018-2.875 6.018.347 6.019.173 6.018.634 6.019.708 6.018.324" style="fill:none;stroke:#333;stroke-linecap:square;stroke-opacity:.5" id="line2d_56"/><path clip-path="url(#pb286a273e4)" d="m80.755 224.15 6.018-3.2 6.019-.786 6.018-2.738 6.019 2.309 6.018 5.52 6.018-1.896 6.019-1.103 6.018-.29 6.019-1.14 6.018-2.312 6.019-.682 6.018-2.843 6.019-2.838 6.018-.376 6.019-4.346 6.018 3.111 6.019-8.414 6.018-3.195 6.019-2.306 6.018-4.726 6.019-12.026 6.018-5.426 6.019-1.093 6.018 5.268 6.019-2.71 6.018-5.08 6.019-4.57 6.018 4.662 6.019-.898 6.018-2.603 6.019 2.044 6.018-6.22 6.019 2.577 6.018-3.793 6.019 4.71 6.018-2.599 6.019-.46 6.018 1.701 6.019-6.697 6.018.408 6.019-4.545 6.018-3.364 6.019-1.107 6.018 1.788 6.019 1.744 6.018-3.408 6.019-5.757 6.018-3.734 6.019-1.523 6.018-.25 6.019 2.436 6.018-4.32 6.019 2.498 6.018-2.427 6.018-.104 6.019 1.504 6.018 1.306 6.019-.127 6.018 1.83" style="fill:none;stroke:#333;stroke-linecap:square;stroke-opacity:.5" id="line2d_57"/><path clip-path="url(#pb286a273e4)" d="m80.755 219.85 6.018-.627 6.019-2.7 6.018-3.47 6.019-6.036 6.018 1.967 6.018-1.546 6.019-10.87 6.018-2.276 6.019-5.007 6.018-3.512 6.019-5.499 6.018-3.537 6.019-.555 6.018-4.231 6.019 3.517 6.018-1 6.019 4.696 6.018-1.996 6.019-9.218 6.018-9.736 6.019 1.622 6.018-6.335 6.019 3.674 6.018-.297 6.019 6.513 6.018 2.59 6.019-2.43 6.018-2.44 6.019-5.13 6.018-16.318 6.019 6.088 6.018-.685 6.019-3.634 6.018-1.746 6.019-3.497 6.018 3.129 6.019 2.289 6.018-8.685 6.019-6.182 6.018 9.797 6.019 1.473 6.018-.24 6.019 8.131 6.018 1.036 6.019-5.544 6.018-.81 6.019-3.745 6.018-4.436 6.019 13.683 6.018-2.828 6.019-2.188 6.018-19.68 6.019 6.21 6.018 3.297 6.018 1.302 6.019-4.943 6.018 1.072 6.019 1.838 6.018.787" style="fill:none;stroke:#333;stroke-linecap:square;stroke-opacity:.5" id="line2d_58"/><path clip-path="url(#pb286a273e4)" d="m80.755 217.13 6.018-3.856 6.019-2.971 6.018-1.546 6.019-3.428 6.018-2.022 6.018-2.249 6.019-4.063 6.018-5.337 6.019-5.628 6.018-1.057 6.019-1.59 6.018-2.917 6.019-5.048 6.018-3.227 6.019-5.8 6.018-2.086 6.019-1.272 6.018-1.14 6.019 1.582 6.018-5.879 6.019-6.335 6.018-1.908 6.019-.83 6.018 1.254 6.019-1.873 6.018-4.89 6.019-.593 6.018-.968 6.019-2.981 6.018 1.543 6.019-3.678 6.018-.603 6.019-3.267 6.018.144 6.019-.457 6.018-.43 6.019.149 6.018-3.236 6.019.224 6.018.301 6.019-3.51 6.018-3.914 6.019 2.933 6.018 1.645 6.019-.448 6.018-.497 6.019-2.85 6.018-3.526 6.019-4.52 6.018-.972 6.019-1.73 6.018-.71 6.019.565 6.018 1.3 6.018-2.57 6.019-1.654 6.018-.177 6.019-2.66 6.018-2.896" style="fill:none;stroke:#333;stroke-linecap:square;stroke-opacity:.5" id="line2d_59"/><path clip-path="url(#pb286a273e4)" d="m80.755 155.777 6.018-.775 6.019-.871 6.018-3.098 6.019-1.041 6.018-1.068 6.018-.743 6.019-3.313 6.018 1.98 6.019-6.316 6.018-.094 6.019 1.198 6.018-7.437 6.019 3.538 6.018-6.636 6.019 1.722 6.018-4.58 6.019 6.336 6.018-6.169 6.019-2.23 6.018-4.805 6.019-11.345 6.018 2.29 6.019-5.58 6.018 5.661 6.019 3.33 6.018 4.642 6.019.937 6.018-3.23 6.019 1.642 6.018-2.445 6.019-3.104 6.018 7.677 6.019-1.842 6.018 4.521 6.019 1.133 6.018-1.628 6.019-1.805 6.018-.856 6.019-.614 6.018-.618 6.019 14.043 6.018-4.978 6.019-4.482 6.018 1.269 6.019-3.362 6.018 4.558 6.019-3.402 6.018-3.113 6.019-5.379 6.018-2.034 6.019-2.214 6.018-.746 6.019.925 6.018-.787 6.018 2.37 6.019 6.362 6.018-3.574 6.019 1.63 6.018.023" style="fill:none;stroke:#333;stroke-linecap:square;stroke-opacity:.5" id="line2d_60"/><path clip-path="url(#pb286a273e4)" d="m80.755 215.149 6.018.401 6.019-2.959 6.018-.303 6.019-.538 6.018-2.208 6.018-1.64 6.019-3.369 6.018-.6 6.019-5.426 6.018.7 6.019-2.368 6.018.898 6.019-3.118 6.018-2.292 6.019-1.142 6.018-1.673 6.019-4.399 6.018-2.935 6.019-3.31 6.018-4.198 6.019-6.56 6.018-2.284 6.019-4.237 6.018 3.276 6.019-6.392 6.018 1.666 6.019-.35 6.018.398 6.019.96 6.018-8.066 6.019-7.37 6.018 1.278 6.019.848 6.018 2.636 6.019-5.032 6.018-5.202 6.019-.869 6.018 3.372 6.019-5.766 6.018.858 6.019-.94 6.018.622 6.019-6.876 6.018 1.323 6.019-5.142 6.018-5.253 6.019-2.583 6.018-2.663 6.019 4.036 6.018.801 6.019 1.044 6.018.493 6.019 1.212 6.018-.23 6.018-.54 6.019-.173 6.018-.134 6.019 5.412 6.018.998" style="fill:none;stroke:#333;stroke-linecap:square;stroke-opacity:.5" id="line2d_61"/><path clip-path="url(#pb286a273e4)" d="m80.755 213.323 6.018-.538 6.019-1.254 6.018-2.165 6.019-1.607 6.018-1.149 6.018-1.176 6.019-1.182 6.018-2.619 6.019-1.364 6.018-1.26 6.019-3.047 6.018-5.537 6.019-1.14 6.018-1.13 6.019-2.357 6.018-2.043 6.019-.171 6.018-.396 6.019-3.947 6.018-.54 6.019-5.108 6.018-.072 6.019-2.323 6.018-8.524 6.019-1.027 6.018-7.86 6.019 2.367 6.018 1.11 6.019-.665 6.018-4.027 6.019-.987 6.018.055 6.019-.258 6.018-1.48 6.019-.703 6.018 2.798 6.019-2.064 6.018-5.04 6.019 3.36 6.018-.869 6.019-1.663 6.018-.562 6.019-2.05 6.018.23 6.019.033 6.018-4.899 6.019-.306 6.018 1.567 6.019-1.903 6.018-1.361 6.019-.609 6.018-4.706 6.019 6.231 6.018 3.06 6.018-3.593 6.019-2.851 6.018 2.38 6.019 1.92 6.018-.066" style="fill:none;stroke:#333;stroke-linecap:square;stroke-opacity:.5" id="line2d_62"/><path clip-path="url(#pb286a273e4)" d="m80.755 245.207 6.018.06 6.019-5.935 6.018-5.812 6.019-2.697 6.018-13.22 6.018-3.842 6.019-.663 6.018 1.13 6.019.536 6.018 6.415 6.019.061 6.018-.324 6.019-4.682 6.018-4.01 6.019-4.828 6.018.609 6.019-1.035 6.018-2.243 6.019-1.383 6.018-6.735 6.019-4.559 6.018-3.46 6.019-8.901 6.018-9.304 6.019-4.108 6.018-2.376 6.019 2.642 6.018-2.275 6.019.57 6.018-.224 6.019-2.706 6.018 8.355 6.019-4.784 6.018 1.78 6.019 2.957 6.018.426 6.019-2.554 6.018 2.503 6.019-.17 6.018-3.952 6.019-2.104 6.018.634 6.019 2.046 6.018-4.322 6.019-2.982 6.018-1.048 6.019 5.274 6.018-4.404 6.019-1.977 6.018-.108 6.019 1.345 6.018 1.407 6.019-2.584 6.018-1.223 6.018-4.712 6.019 1.967 6.018 4.677 6.019 3.714 6.018-2.484" style="fill:none;stroke:#333;stroke-linecap:square;stroke-opacity:.5" id="line2d_63"/><path clip-path="url(#pb286a273e4)" d="m80.755 211.517 6.018-1.732 6.019-1.566 6.018-1.677 6.019-1.735 6.018-1.204 6.018-1.649 6.019-1.6 6.018-2.046 6.019-2.505 6.018-1.736 6.019-2.272 6.018-2.318 6.019-2.22 6.018-1.518 6.019-3.97 6.018-.465 6.019-1.897 6.018-.777 6.019-1.289 6.018-4.013 6.019-4.564 6.018-1.198 6.019-3.09 6.018-1.194 6.019-1.786 6.018-1.689 6.019-.639 6.018-.162 6.019-.225 6.018-2.91 6.019-2.033 6.018 1.654 6.019-1.806 6.018-.626 6.019-.483 6.018.416 6.019-.803 6.018-3.808 6.019.236 6.018-1.169 6.019-2.24 6.018-.606 6.019-.606 6.018.798 6.019-3.635 6.018-1.174 6.019-1.252 6.018-1.661 6.019-1.552 6.018-.76 6.019-.678 6.018-1.46 6.019 2.619 6.018.168 6.018-.984 6.019-.161 6.018 1.68 6.019-.003 6.018.458" style="fill:none;stroke:#000;stroke-linecap:square;stroke-width:5" id="line2d_64"/><path d="M63 256.32V34.56" style="fill:none;stroke:#000;stroke-linecap:square;stroke-linejoin:miter;stroke-width:.8" id="patch_3"/><path d="M453.6 256.32V34.56" style="fill:none;stroke:#000;stroke-linecap:square;stroke-linejoin:miter;stroke-width:.8" id="patch_4"/><path d="M63 256.32h390.6" style="fill:none;stroke:#000;stroke-linecap:square;stroke-linejoin:miter;stroke-width:.8" id="patch_5"/><path d="M63 34.56h390.6" style="fill:none;stroke:#000;stroke-linecap:square;stroke-linejoin:miter;stroke-width:.8" id="patch_6"/><g transform="matrix(.12 0 0 -.12 153.77 28.56)" id="text_14"><defs><path d="M3513 2113V0h-575v2094q0 497-194 743-194 247-581 247-466 0-735-297-269-296-269-809V0H581v4863h578V2956q207 316 486 472 280 156 646 156 603 0 912-373 310-373 310-1098z" id="DejaVuSans-68" transform="scale(.01563)"/><path d="M556 4666h635V1831q0-750 271-1080 272-329 882-329 606 0 878 329 272 330 272 1080v2835h634V1753q0-912-452-1378Q3225-91 2344-91q-885 0-1337 466-451 466-451 1378v2913z" id="DejaVuSans-55" transform="scale(.01563)"/><path d="M3425 4513v-616q-359 172-678 256-319 85-616 85-515 0-795-200t-280-569q0-310 186-468 186-157 705-254l381-78q706-135 1042-474t336-907q0-679-455-1029Q2797-91 1919-91q-331 0-705 75-373 75-773 222v650q384-215 753-325 369-109 725-109 540 0 834 212 294 213 294 607 0 343-211 537t-692 291l-385 75q-706 140-1022 440-315 300-315 835 0 619 436 975t1201 356q329 0 669-60 341-59 697-177z" id="DejaVuSans-53" transform="scale(.01563)"/><path d="M2906 2969v1894h575V0h-575v525q-181-312-458-464-276-152-664-152-634 0-1033 506-398 507-398 1332t398 1331q399 506 1033 506 388 0 664-152 277-151 458-463zM947 1747q0-634 261-995t717-361q456 0 718 361 263 361 263 995t-263 995q-262 361-718 361t-717-361q-261-361-261-995z" id="DejaVuSans-64" transform="scale(.01563)"/><path d="M2834 3397v-544q-243 125-506 187-262 63-544 63-428 0-642-131t-214-394q0-200 153-314t616-217l197-44q612-131 870-370t258-667q0-488-386-773Q2250-91 1575-91q-281 0-586 55T347 128v594q319-166 628-249 309-82 613-82 406 0 624 139 219 139 219 392 0 234-158 359-157 125-692 241l-200 47q-534 112-772 345-237 233-237 639 0 494 350 762 350 269 994 269 318 0 599-47 282-46 519-140z" id="DejaVuSans-73" transform="scale(.01563)"/></defs><use xlink:href="#DejaVuSans-45"/><use x="63.184" xlink:href="#DejaVuSans-6c"/><use x="90.967" xlink:href="#DejaVuSans-65"/><use x="152.49" xlink:href="#DejaVuSans-63"/><use x="207.471" xlink:href="#DejaVuSans-74"/><use x="246.68" xlink:href="#DejaVuSans-72"/><use x="287.793" xlink:href="#DejaVuSans-69"/><use x="315.576" xlink:href="#DejaVuSans-66"/><use x="350.781" xlink:href="#DejaVuSans-69"/><use x="378.564" xlink:href="#DejaVuSans-63"/><use x="433.545" xlink:href="#DejaVuSans-61"/><use x="494.824" xlink:href="#DejaVuSans-74"/><use x="534.033" xlink:href="#DejaVuSans-69"/><use x="561.816" xlink:href="#DejaVuSans-6f"/><use x="622.998" xlink:href="#DejaVuSans-6e"/><use x="686.377" xlink:href="#DejaVuSans-20"/><use x="718.164" xlink:href="#DejaVuSans-69"/><use x="745.947" xlink:href="#DejaVuSans-6e"/><use x="809.326" xlink:href="#DejaVuSans-20"/><use x="841.113" xlink:href="#DejaVuSans-74"/><use x="880.322" xlink:href="#DejaVuSans-68"/><use x="943.701" xlink:href="#DejaVuSans-65"/><use x="1005.225" xlink:href="#DejaVuSans-20"/><use x="1037.012" xlink:href="#DejaVuSans-55"/><use x="1110.205" xlink:href="#DejaVuSans-53"/><use x="1173.682" xlink:href="#DejaVuSans-20"/><use x="1205.469" xlink:href="#DejaVuSans-61"/><use x="1266.748" xlink:href="#DejaVuSans-6e"/><use x="1330.127" xlink:href="#DejaVuSans-64"/><use x="1393.604" xlink:href="#DejaVuSans-20"/><use x="1425.391" xlink:href="#DejaVuSans-53"/><use x="1488.867" xlink:href="#DejaVuSans-74"/><use x="1528.076" xlink:href="#DejaVuSans-61"/><use x="1589.355" xlink:href="#DejaVuSans-74"/><use x="1628.564" xlink:href="#DejaVuSans-65"/><use x="1690.088" xlink:href="#DejaVuSans-73"/></g></g></g><defs><clipPath id="pb286a273e4"><path d="M63 34.56h390.6v221.76H63z"/></clipPath></defs></svg>