<svg height="288" viewBox="0 0 504 216" width="672" xmlns="http://www.w3.org/2000/svg" xmlns:xlink="http://www.w3.org/1999/xlink"><defs><style>*{stroke-linecap:butt;stroke-linejoin:round}</style></defs><g id="figure_1"><path d="M0 216h504V0H0z" fill="#fff" id="patch_1"/><g id="axes_1"><path d="M50.4 194.4h403.2v-162H50.4z" fill="#fff" id="patch_2"/><path clip-path="url(#p8d3fe4ba26)" d="M383.04 179.673h66.528v-58.91H383.04z" fill="#aaa" id="patch_3"/><path clip-path="url(#p8d3fe4ba26)" d="M366.912 106.036h66.528V47.127h-66.528z" fill="#aaa" id="patch_4"/><g id="matplotlib.axis_2"><g id="ytick_1"><g id="line2d_1"><defs><path d="M0 0h-3.5" id="m71514778c8" stroke="#000" stroke-width=".8"/></defs><use x="50.4" xlink:href="#m71514778c8" y="150.218" stroke="#000" stroke-width=".8"/></g><g transform="matrix(.1 0 0 -.1 13.594 154.017)" id="text_1"><defs><path d="M628 4666h631V2753h2294v1913h631V0h-631v2222H1259V0H628v4666z" id="DejaVuSans-48" transform="scale(.01563)"/><path d="M2188 4044l-857-2322h1716l-859 2322zm-357 622h716L4325 0h-656l-425 1197H1141L716 0H50l1781 4666z" id="DejaVuSans-41" transform="scale(.01563)"/><path d="M213 4666h637l981-3944 978 3944h710l981-3944 978 3944h641L4947 0h-794l-984 4050L2175 0h-794L213 4666z" id="DejaVuSans-57" transform="scale(.01563)"/><path d="M-19 4666h3947v-532H2272V0h-634v4134H-19v532z" id="DejaVuSans-54" transform="scale(.01563)"/></defs><use xlink:href="#DejaVuSans-48"/><use x="75.195" xlink:href="#DejaVuSans-41"/><use x="138.104" xlink:href="#DejaVuSans-57"/><use x="236.98" xlink:href="#DejaVuSans-54"/></g></g><g id="ytick_2"><use x="50.4" xlink:href="#m71514778c8" y="76.582" stroke="#000" stroke-width=".8" id="line2d_2"/><g transform="matrix(.1 0 0 -.1 14.91 80.381)" id="text_2"><defs><path d="M1831 0L50 4666h659L2188 738l1481 3928h656L2547 0h-716z" id="DejaVuSans-56" transform="scale(.01563)"/></defs><use xlink:href="#DejaVuSans-56"/><use x="62.033" xlink:href="#DejaVuSans-41"/><use x="124.941" xlink:href="#DejaVuSans-57"/><use x="223.818" xlink:href="#DejaVuSans-54"/></g></g></g><path clip-path="url(#p8d3fe4ba26)" d="M50.4 187.036V39.764" fill="none" stroke="#000" stroke-linecap="square" stroke-opacity=".3" id="line2d_3"/><path clip-path="url(#p8d3fe4ba26)" d="M151.2 187.036V39.764" fill="none" stroke="#000" stroke-linecap="square" stroke-opacity=".3" id="line2d_4"/><path clip-path="url(#p8d3fe4ba26)" d="M252 187.036V39.764" fill="none" stroke="#000" stroke-linecap="square" stroke-opacity=".3" id="line2d_5"/><path clip-path="url(#p8d3fe4ba26)" d="M352.8 187.036V39.764" fill="none" stroke="#000" stroke-linecap="square" stroke-opacity=".3" id="line2d_6"/><path clip-path="url(#p8d3fe4ba26)" d="M453.6 187.036V39.764" fill="none" stroke="#000" stroke-linecap="square" stroke-opacity=".3" id="line2d_7"/><g id="text_3"><g transform="matrix(.1 0 0 -.1 350.784 146.384)"><defs><path d="M794 531h1031v3560L703 3866v575l1116 225h631V531h1031V0H794v531z" id="DejaVuSans-31" transform="scale(.01563)"/><path d="M2113 2584q-425 0-674-291-248-290-248-796 0-503 248-796 249-292 674-292t673 292q248 293 248 796 0 506-248 796-248 291-673 291zm1253 1979v-575q-238 112-480 171-242 60-480 60-625 0-955-422-329-422-376-1275 184 272 462 417 279 145 613 145 703 0 1111-427 408-426 408-1160 0-719-425-1154Q2819-91 2113-91q-810 0-1238 620-428 621-428 1799 0 1106 525 1764t1409 658q238 0 480-47t505-140z" id="DejaVuSans-36" transform="scale(.01563)"/><path d="M684 794h660V0H684v794z" id="DejaVuSans-2e" transform="scale(.01563)"/><path d="M691 4666h2478v-532H1269V2991q137 47 274 70 138 23 276 23 781 0 1237-428 457-428 457-1159 0-753-469-1171Q2575-91 1722-91q-294 0-599 50Q819 9 494 109v635q281-153 581-228t634-75q541 0 856 284 316 284 316 772 0 487-316 771-315 285-856 285-253 0-505-56-251-56-513-175v2344z" id="DejaVuSans-35" transform="scale(.01563)"/></defs><use xlink:href="#DejaVuSans-31"/><use x="63.623" xlink:href="#DejaVuSans-36"/><use x="127.246" xlink:href="#DejaVuSans-2e"/><use x="159.033" xlink:href="#DejaVuSans-35"/></g><g transform="matrix(.1 0 0 -.1 350.784 157.582)"><defs><path d="M2119 409v2675q-460-56-716-409t-256-928q0-578 256-931t716-407zm1190 2957v-538q-231 128-444 194-212 66-424 75l-3-2700q218 16 432 81 214 66 439 188V134q-203-93-417-148t-454-77v-887h-319v900Q1366-16 952 464T538 1747q0 806 414 1284t1167 547v897h319l3-897q228-12 442-64 214-51 426-148z" id="DejaVuSans-a2" transform="scale(.01563)"/><path d="M1625 4666h531L531-594H0l1625 5260z" id="DejaVuSans-2f" transform="scale(.01563)"/><path d="M581 4863h578V1991l1716 1509h734L1753 1863 3688 0h-750L1159 1709V0H581v4863z" id="DejaVuSans-6b" transform="scale(.01563)"/><path d="M3513 2113V0h-575v2094q0 497-194 743-194 247-581 247-466 0-735-297-269-296-269-809V0H581v4863h578V2956q207 316 486 472 280 156 646 156 603 0 912-373 310-373 310-1098z" id="DejaVuSans-68" transform="scale(.01563)"/></defs><use xlink:href="#DejaVuSans-a2"/><use x="63.623" xlink:href="#DejaVuSans-2f"/><use x="97.314" xlink:href="#DejaVuSans-6b"/><use x="155.225" xlink:href="#DejaVuSans-57"/><use x="254.102" xlink:href="#DejaVuSans-68"/></g></g><g id="text_4"><g transform="matrix(.1 0 0 -.1 455.616 146.384)"><defs><path d="M703 97v575q238-113 481-172 244-59 479-59 625 0 954 420 330 420 377 1277-181-269-460-413-278-144-615-144-700 0-1108 423-408 424-408 1159 0 718 425 1152 425 435 1131 435 810 0 1236-621 427-620 427-1801 0-1103-524-1761Q2575-91 1691-91q-238 0-482 47Q966 3 703 97zm1256 1978q425 0 673 290 249 291 249 798 0 503-249 795-248 292-673 292t-673-292q-248-292-248-795 0-507 248-798 248-290 673-290z" id="DejaVuSans-39" transform="scale(.01563)"/><path d="M2034 2216q-450 0-708-241-257-241-257-662 0-422 257-663 258-241 708-241t709 242q260 243 260 662 0 421-258 662-257 241-711 241zm-631 268q-406 100-633 378-226 279-226 679 0 559 398 884 399 325 1092 325 697 0 1094-325t397-884q0-400-227-679-226-278-629-378 456-106 710-416 255-309 255-755 0-679-414-1042Q2806-91 2034-91q-771 0-1186 362-414 363-414 1042 0 446 256 755 257 310 713 416zm-231 997q0-362 226-565 227-203 636-203 407 0 636 203 230 203 230 565 0 363-230 566-229 203-636 203-409 0-636-203-226-203-226-566z" id="DejaVuSans-38" transform="scale(.01563)"/></defs><use xlink:href="#DejaVuSans-31"/><use x="63.623" xlink:href="#DejaVuSans-39"/><use x="127.246" xlink:href="#DejaVuSans-2e"/><use x="159.033" xlink:href="#DejaVuSans-38"/></g><g transform="matrix(.1 0 0 -.1 455.616 157.582)"><use xlink:href="#DejaVuSans-a2"/><use x="63.623" xlink:href="#DejaVuSans-2f"/><use x="97.314" xlink:href="#DejaVuSans-6b"/><use x="155.225" xlink:href="#DejaVuSans-57"/><use x="254.102" xlink:href="#DejaVuSans-68"/></g></g><g id="text_5"><g transform="matrix(.1 0 0 -.1 334.656 72.748)"><defs><path d="M525 4666h3000v-269L1831 0h-659l1594 4134H525v532z" id="DejaVuSans-37" transform="scale(.01563)"/></defs><use xlink:href="#DejaVuSans-31"/><use x="63.623" xlink:href="#DejaVuSans-35"/><use x="127.246" xlink:href="#DejaVuSans-2e"/><use x="159.033" xlink:href="#DejaVuSans-37"/></g><g transform="matrix(.1 0 0 -.1 334.656 83.945)"><use xlink:href="#DejaVuSans-a2"/><use x="63.623" xlink:href="#DejaVuSans-2f"/><use x="97.314" xlink:href="#DejaVuSans-6b"/><use x="155.225" xlink:href="#DejaVuSans-57"/><use x="254.102" xlink:href="#DejaVuSans-68"/></g></g><g id="text_6"><g transform="matrix(.1 0 0 -.1 439.488 72.748)"><defs><path d="M2034 4250q-487 0-733-480-245-479-245-1442 0-959 245-1439 246-480 733-480 491 0 736 480 246 480 246 1439 0 963-246 1442-245 480-736 480zm0 500q785 0 1199-621 414-620 414-1801 0-1178-414-1799Q2819-91 2034-91q-784 0-1198 620-414 621-414 1799 0 1181 414 1801 414 621 1198 621z" id="DejaVuSans-30" transform="scale(.01563)"/></defs><use xlink:href="#DejaVuSans-31"/><use x="63.623" xlink:href="#DejaVuSans-39"/><use x="127.246" xlink:href="#DejaVuSans-2e"/><use x="159.033" xlink:href="#DejaVuSans-30"/></g><g transform="matrix(.1 0 0 -.1 439.488 83.945)"><use xlink:href="#DejaVuSans-a2"/><use x="63.623" xlink:href="#DejaVuSans-2f"/><use x="97.314" xlink:href="#DejaVuSans-6b"/><use x="155.225" xlink:href="#DejaVuSans-57"/><use x="254.102" xlink:href="#DejaVuSans-68"/></g></g><g transform="matrix(.12 0 0 -.12 96.105 26.4)" id="text_7"><defs><path d="M628 4666h631V531h2272V0H628v4666z" id="DejaVuSans-4c" transform="scale(.01563)"/><path d="M3597 1894v-281H953q38-594 358-905t892-311q331 0 642 81t618 244V178Q3153 47 2828-22t-659-69q-838 0-1327 487-489 488-489 1320 0 859 464 1363 464 505 1252 505 706 0 1117-455 411-454 411-1235zm-575 169q-6 471-264 752-258 282-683 282-481 0-770-272t-333-766l2050 4z" id="DejaVuSans-65" transform="scale(.01563)"/><path d="M191 3500h609L1894 563l1094 2937h609L2284 0h-781L191 3500z" id="DejaVuSans-76" transform="scale(.01563)"/><path d="M603 4863h575V0H603v4863z" id="DejaVuSans-6c" transform="scale(.01563)"/><path d="M603 3500h575V0H603v3500zm0 1363h575v-729H603v729z" id="DejaVuSans-69" transform="scale(.01563)"/><path d="M353 3500h2731v-525L922 459h2162V0H275v525l2163 2516H353v459z" id="DejaVuSans-7a" transform="scale(.01563)"/><path d="M2906 2969v1894h575V0h-575v525q-181-312-458-464-276-152-664-152-634 0-1033 506-398 507-398 1332t398 1331q399 506 1033 506 388 0 664-152 277-151 458-463zM947 1747q0-634 261-995t717-361q456 0 718 361 263 361 263 995t-263 995q-262 361-718 361t-717-361q-261-361-261-995z" id="DejaVuSans-64" transform="scale(.01563)"/><path d="M4122 4306v-665q-319 297-680 443-361 147-767 147-800 0-1225-489t-425-1414q0-922 425-1411t1225-489q406 0 767 147t680 444V359q-331-225-702-338-370-112-782-112-1060 0-1670 648-609 649-609 1771 0 1125 609 1773 610 649 1670 649 418 0 788-111 371-111 696-333z" id="DejaVuSans-43" transform="scale(.01563)"/><path d="M1959 3097q-462 0-731-361t-269-989q0-628 267-989 268-361 733-361 460 0 728 362 269 363 269 988 0 622-269 986-268 364-728 364zm0 487q750 0 1178-488 429-487 429-1349 0-859-429-1349Q2709-91 1959-91q-753 0-1180 489-426 490-426 1349 0 862 426 1349 427 488 1180 488z" id="DejaVuSans-6f" transform="scale(.01563)"/><path d="M2834 3397v-544q-243 125-506 187-262 63-544 63-428 0-642-131t-214-394q0-200 153-314t616-217l197-44q612-131 870-370t258-667q0-488-386-773Q2250-91 1575-91q-281 0-586 55T347 128v594q319-166 628-249 309-82 613-82 406 0 624 139 219 139 219 392 0 234-158 359-157 125-692 241l-200 47q-534 112-772 345-237 233-237 639 0 494 350 762 350 269 994 269 318 0 599-47 282-46 519-140z" id="DejaVuSans-73" transform="scale(.01563)"/><path d="M1172 4494v-994h1184v-447H1172V1153q0-428 117-550t477-122h590V0h-590q-666 0-919 248-253 249-253 905v1900H172v447h422v994h578z" id="DejaVuSans-74" transform="scale(.01563)"/><path d="M2375 4863v-479h-550q-309 0-430-125-120-125-120-450v-309h947v-447h-947V0H697v3053H147v447h550v244q0 584 272 851 272 268 862 268h544z" id="DejaVuSans-66" transform="scale(.01563)"/><path d="M628 4666h2950v-532H1259V2753h2222v-531H1259V531h2375V0H628v4666z" id="DejaVuSans-45" transform="scale(.01563)"/><path d="M3122 3366v-538q-244 135-489 202t-495 67q-560 0-870-355-309-354-309-995t309-996q310-354 870-354 250 0 495 67t489 202V134Q2881 22 2623-34q-257-57-548-57-791 0-1257 497-465 497-465 1341 0 856 470 1346 471 491 1290 491 265 0 518-55 253-54 491-163z" id="DejaVuSans-63" transform="scale(.01563)"/><path d="M2631 2963q-97 56-211 82-114 27-251 27-488 0-749-317t-261-911V0H581v3500h578v-544q182 319 472 473 291 155 707 155 59 0 131-8 72-7 159-23l3-590z" id="DejaVuSans-72" transform="scale(.01563)"/><path d="M2059-325q-243-625-475-815-231-191-618-191H506v481h338q237 0 368 113 132 112 291 531l103 262L191 3500h609L1894 763l1094 2737h609L2059-325z" id="DejaVuSans-79" transform="scale(.01563)"/><path d="M269 3500h575l719-2731 715 2731h678l719-2731 716 2731h575L4050 0h-678l-753 2869L1863 0h-679L269 3500z" id="DejaVuSans-77" transform="scale(.01563)"/><path d="M628 4666h941l1190-3175 1197 3175h941V0h-616v4097L3078 897h-634L1241 4097V0H628v4666z" id="DejaVuSans-4d" transform="scale(.01563)"/><path d="M2194 1759q-697 0-966-159t-269-544q0-306 202-486 202-179 548-179 479 0 768 339t289 901v128h-572zm1147 238V0h-575v531q-197-318-491-470T1556-91q-537 0-855 302-317 302-317 808 0 590 395 890 396 300 1180 300h807v57q0 397-261 614t-733 217q-300 0-585-72-284-72-546-216v532q315 122 612 182 297 61 578 61 760 0 1135-394 375-393 375-1193z" id="DejaVuSans-61" transform="scale(.01563)"/><path d="M544 1381v2119h575V1403q0-497 193-746 194-248 582-248 465 0 735 297 271 297 271 810v1984h575V0h-575v538q-209-319-486-474-276-155-642-155-603 0-916 375-312 375-312 1097zm1447 2203z" id="DejaVuSans-75" transform="scale(.01563)"/><path d="M3513 2113V0h-575v2094q0 497-194 743-194 247-581 247-466 0-735-297-269-296-269-809V0H581v3500h578v-544q207 316 486 472 280 156 646 156 603 0 912-373 310-373 310-1098z" id="DejaVuSans-6e" transform="scale(.01563)"/><path d="M2906 1791q0 625-258 968-257 344-723 344-462 0-720-344-258-343-258-968 0-622 258-966t720-344q466 0 723 344 258 344 258 966zm575-1357q0-893-397-1329-396-436-1215-436-303 0-572 45t-522 139v559q253-137 500-202 247-66 503-66 566 0 847 295t281 892v285q-178-310-456-463T1784 0Q1141 0 747 490 353 981 353 1791q0 812 394 1302 394 491 1037 491 388 0 666-153t456-462v531h575V434z" id="DejaVuSans-67" transform="scale(.01563)"/></defs><use xlink:href="#DejaVuSans-4c"/><use x="53.963" xlink:href="#DejaVuSans-65"/><use x="115.486" xlink:href="#DejaVuSans-76"/><use x="174.666" xlink:href="#DejaVuSans-65"/><use x="236.189" xlink:href="#DejaVuSans-6c"/><use x="263.973" xlink:href="#DejaVuSans-69"/><use x="291.756" xlink:href="#DejaVuSans-7a"/><use x="344.246" xlink:href="#DejaVuSans-65"/><use x="405.77" xlink:href="#DejaVuSans-64"/><use x="469.246" xlink:href="#DejaVuSans-20"/><use x="501.033" xlink:href="#DejaVuSans-43"/><use x="570.857" xlink:href="#DejaVuSans-6f"/><use x="632.039" xlink:href="#DejaVuSans-73"/><use x="684.139" xlink:href="#DejaVuSans-74"/><use x="723.348" xlink:href="#DejaVuSans-20"/><use x="755.135" xlink:href="#DejaVuSans-6f"/><use x="816.316" xlink:href="#DejaVuSans-66"/><use x="851.521" xlink:href="#DejaVuSans-20"/><use x="883.309" xlink:href="#DejaVuSans-45"/><use x="946.492" xlink:href="#DejaVuSans-6c"/><use x="974.275" xlink:href="#DejaVuSans-65"/><use x="1035.799" xlink:href="#DejaVuSans-63"/><use x="1090.779" xlink:href="#DejaVuSans-74"/><use x="1129.988" xlink:href="#DejaVuSans-72"/><use x="1171.102" xlink:href="#DejaVuSans-69"/><use x="1198.885" xlink:href="#DejaVuSans-63"/><use x="1253.865" xlink:href="#DejaVuSans-69"/><use x="1281.648" xlink:href="#DejaVuSans-74"/><use x="1320.857" xlink:href="#DejaVuSans-79"/><use x="1380.037" xlink:href="#DejaVuSans-20"/><use x="1411.824" xlink:href="#DejaVuSans-77"/><use x="1493.611" xlink:href="#DejaVuSans-69"/><use x="1521.395" xlink:href="#DejaVuSans-74"/><use x="1560.604" xlink:href="#DejaVuSans-68"/><use x="1623.982" xlink:href="#DejaVuSans-20"/><use x="1655.77" xlink:href="#DejaVuSans-4d"/><use x="1742.049" xlink:href="#DejaVuSans-61"/><use x="1803.328" xlink:href="#DejaVuSans-74"/><use x="1842.537" xlink:href="#DejaVuSans-75"/><use x="1905.916" xlink:href="#DejaVuSans-72"/><use x="1944.779" xlink:href="#DejaVuSans-65"/><use x="2006.303" xlink:href="#DejaVuSans-20"/><use x="2038.09" xlink:href="#DejaVuSans-54"/><use x="2082.174" xlink:href="#DejaVuSans-65"/><use x="2143.697" xlink:href="#DejaVuSans-63"/><use x="2198.678" xlink:href="#DejaVuSans-68"/><use x="2262.057" xlink:href="#DejaVuSans-6e"/><use x="2325.436" xlink:href="#DejaVuSans-6f"/><use x="2386.617" xlink:href="#DejaVuSans-6c"/><use x="2414.4" xlink:href="#DejaVuSans-6f"/><use x="2475.582" xlink:href="#DejaVuSans-67"/><use x="2539.059" xlink:href="#DejaVuSans-79"/></g></g></g><defs><clipPath id="p8d3fe4ba26"><path d="M50.4 32.4h403.2v162H50.4z"/></clipPath></defs></svg>