<svg width="410" height="470" viewBox="0 0 108.479 124.354" xmlns="http://www.w3.org/2000/svg"><text xml:space="preserve" style="font-style:normal;font-weight:400;font-size:18.0034px;line-height:1.25;font-family:sans-serif;opacity:.6222664;fill:#f60;fill-opacity:1;stroke:none;stroke-width:.264583" x="5.43" y="68.424"><tspan x="5.43" y="68.424" style="font-style:italic;font-variant:normal;font-weight:700;font-stretch:normal;font-family:rOBOTO;-inkscape-font-specification:'rOBOTO Bold Italic';fill:#f60;stroke-width:.264583">410p x 470p</tspan></text><g style="fill:#fff;stroke-width:1.5166;stroke-dasharray:none"><path d="M32.788 118.293h10.536v-16.354h57.573v16.354h10.537L72.11 140.71z" fill="#e7e6e6" style="fill:#fff;stroke:#000;stroke-width:1.5166;stroke-linecap:square;stroke-dasharray:none;stroke-opacity:1" transform="translate(-3.066 12.811) scale(.78531)" fill-rule="evenodd" stroke-miterlimit="8" color="#000"/></g><text xml:space="preserve" style="font-style:normal;font-variant:normal;font-weight:700;font-stretch:normal;font-size:5.57389px;line-height:1.25;font-family:Calibri;-inkscape-font-specification:'Calibri, Bold';font-variant-ligatures:normal;font-variant-caps:normal;font-variant-numeric:normal;font-variant-east-asian:normal;text-align:center;text-anchor:middle;white-space:pre;inline-size:40.0032;display:inline;fill:#000;fill-opacity:1;stroke:none;stroke-width:.264583" x="22.371" y="55.411" transform="translate(31.303 45.136)"><tspan x="22.371" y="55.411">149 million tons<tspan y="55.411"> </tspan></tspan><tspan x="22.371" y="62.378">of CO   reduction<tspan y="62.378"> </tspan></tspan><tspan x="22.371" y="69.346">annually</tspan></text><text xml:space="preserve" style="font-style:normal;font-variant:normal;font-weight:700;font-stretch:normal;font-size:5.57389px;line-height:1.25;font-family:Calibri;-inkscape-font-specification:'Calibri, Bold';font-variant-ligatures:normal;font-variant-caps:normal;font-variant-numeric:normal;font-variant-east-asian:normal;text-align:center;text-anchor:middle;white-space:pre;inline-size:36.0271;display:inline;fill:#000;fill-opacity:1;stroke:none;stroke-width:.40577" x="22.371" y="55.411" transform="translate(33.18 72.865) scale(.65205)"><tspan x="22.371" y="55.411">2</tspan></text><text x=".426" y="8.093" font-family="Calibri" font-size="10.583" font-weight="bold" stroke-width=".265" style="line-height:1.25;fill:#000;fill-opacity:1" xml:space="preserve"><tspan x=".426" y="8.093" style="fill:#000;fill-opacity:1">Industrial Heat Recovery</tspan></text><path style="fill:#000;fill-opacity:1;stroke-width:.0467217" d="M29.216 65.944c-.263-.029-.106-.15.566-.438.368-.159.778-.344.91-.413.22-.115.284-.125.84-.133.477-.007.623-.024.716-.086.148-.099.308-.104.27-.01-.023.057.031.069.324.069.425 0 .66.04.639.108-.009.028-.194.137-.413.242a23.25 22.126 0 0 0-.836.428l-.438.237-1.222.005a35.45 35.45 0 0 1-1.356-.01zm1.252-.168c.013-.012-.184-.023-.44-.023-.268 0-.462.02-.462.045 0 .045.854.024.902-.022zm1.345.004c-.04-.036-.741-.055-.882-.024-.087.02.063.034.379.037.288.003.514-.003.503-.013zm-1.024-.168c.037-.056-.748-.053-.84.004-.049.03.07.043.371.042.243-.002.455-.022.47-.045zm1.328-.005c.032-.02-.178-.035-.468-.035-.368 0-.505.013-.455.045.083.053.833.045.923-.01zm-.95-.18c.055-.046-.155-.05-.607-.01-.178.017-.323.047-.323.068 0 .05.87-.004.93-.057zm1.272.007c.05-.03-.084-.045-.419-.045-.295 0-.49.017-.49.045 0 .06.813.06.91 0zm-.91-.18c0-.05-.79-.039-.844.011-.018.018.164.032.406.032.246 0 .439-.019.439-.043zm1.27-.002c.019-.03-.136-.046-.429-.046-.273 0-.457.018-.457.046 0 .027.174.045.428.045.235 0 .441-.02.458-.045zm-1.054-.137c.062-.025-.051-.038-.324-.036-.231.001-.432.02-.446.042-.033.05.643.046.77-.006zm1.042-.033a2.746 2.613 0 0 0-.408 0c-.111.01-.02.017.204.017.224 0 .316-.008.204-.017zm.155.831a2.598 2.473 0 0 0-.18-.043c-.167-.035-.165-.078.006-.174.108-.06.203-.071.448-.05.185.017.41.005.554-.027l.241-.055-.115-.163c-.144-.202-.15-.46-.016-.741l.097-.205-.108-.084a2.292 2.292 0 0 0-.86-.392c-.209-.051-.305-.09-.235-.096.112-.009.11-.011-.024-.04-.079-.017-.154-.018-.167-.003a.317.317 0 0 1-.108.057c-.142.05-.264.3-.3.615-.021.2-.047.278-.073.233-.055-.094.016-.555.106-.685a.484.484 0 0 0 .077-.148c.002-.022.031-.06.066-.083.044-.028.028-.033-.047-.012-.176.047-.781-.023-.74-.086.018-.029-.02-.02-.085.021-.144.09-.253.378-.215.572a.98.98 0 0 0 .145.307l.117.164h-.145c-.128 0-.158-.027-.259-.239-.099-.208-.108-.269-.069-.464.057-.283.14-.405.383-.557.19-.12.203-.121 1.04-.122.752 0 .884.011 1.152.1.557.185.732.34 1.134 1.004.18.297.231.427.231.58 0 .264-.09.35-.51.478-.189.058-.376.14-.415.183-.114.124-.888.23-1.126.155zm1.422-.568c.124-.032.234-.081.245-.11.012-.028-.057-.168-.152-.31-.318-.476-.533-.459-.57.046-.023.29.088.552.199.47.03-.02.155-.064.278-.096zm-.397-1.05c-.244-.2-1-.51-1-.412 0 .02.072.05.162.066.212.038.709.275.82.392.047.05.097.081.11.069.012-.012-.029-.064-.092-.115zm11.324 1.423c-.036-.022-.052-.172-.045-.444.012-.447-.04-2.253-.086-3.053a141.655 134.81 0 0 1-.078-1.732 79.963 79.963 0 0 0-.073-1.573 65.596 65.596 0 0 0-.188-2.096 7.361 7.005 0 0 1-.049-.365 28.133 28.133 0 0 0-.626-3.327c-.323-1.215-.81-2.02-1.398-2.313-.404-.202-.726-.263-1.353-.257-2.543-.003-5.61 1.392-6.308 2.79-.487.976.425 2.33 1.25 3.348.673.788.77.906.788.95.034.083.109.035.08-.051-.018-.053-.01-.092.02-.092.029 0 .052-.03.052-.068 0-.038-.043-.068-.096-.068-.053 0-.096-.021-.096-.046 0-.066.107-.056.223.021.055.037.113.054.13.038.052-.05.033-.187-.03-.212-.032-.013.014-.011.103.003.125.021.157.012.14-.037-.013-.035-.07-.07-.127-.078-.121-.018-.132-.066-.032-.145.091-.073.306-.022.346.08.016.044.07.128.118.189.05.062.077.146.06.194-.02.062-.003.084.068.084.054 0 .111.022.129.048.05.078.412-.002.566-.125.125-.1.146-.103.22-.04.123.107.152.034.037-.092-.09-.099-.108-.103-.18-.042-.09.078-.19.09-.19.023 0-.025.017-.046.04-.046.022 0 .064-.051.095-.114.03-.062.088-.114.13-.114.085 0 .357-.265.357-.349 0-.03-.043-.068-.096-.084-.052-.016-.096-.058-.096-.093 0-.047-.038-.057-.143-.037-.111.021-.144.011-.144-.045 0-.076-.18-.193-.227-.148-.015.015-.025.099-.021.188.004.106-.024.186-.082.233-.07.057-.08.104-.051.23.028.118.02.163-.03.181-.115.042-.211-.022-.211-.142 0-.085-.032-.122-.122-.143-.13-.031-.245-.2-.262-.383-.017-.192-.005-.215.146-.275.123-.048.285-.242.285-.34 0-.026-.215-.003-.437.047-.092.022-.18-.005-.328-.098-.166-.105-.271-.132-.597-.152-.237-.016-.428-.052-.478-.09-.072-.058-.103-.056-.25.02-.143.073-.173.076-.21.02-.08-.119-.05-.155.256-.32.846-.458 1.716-.685 2.62-.685.746.001 1.37.118 2.107.394.397.149 1.255.723 1.598 1.07.318.32.732.879.928 1.252.488.929.673 2.368.442 3.446-.223 1.039-.677 1.836-1.48 2.595a4.913 4.913 0 0 1-1.8 1.084c-.963.323-2.217.368-3.185.113-.327-.086-.957-.33-.957-.372 0-.017.042-.056.095-.087.08-.047.152-.034.46.083.202.076.376.129.388.118.011-.011 0-.058-.024-.105-.09-.164-.154-.413-.182-.702a11.89 11.315 0 0 0-.05-.43 3.53 3.53 0 0 1 .029-1.04c.06-.3.058-.313-.048-.42a.606.606 0 0 0-.209-.14c-.17-.048-.316-.208-.316-.343 0-.07-.043-.232-.096-.359-.115-.279-.122-.489-.019-.597.1-.105.047-.195-.076-.132a.436.436 0 0 1-.158.046c-.08 0-.273-.152-.273-.215 0-.024-.053-.067-.117-.095-.106-.046-.113-.066-.073-.199.042-.14.032-.159-.182-.34-.153-.128-.232-.17-.243-.127-.03.125-.1.06-.25-.231-.128-.247-.15-.333-.13-.523.013-.137.002-.234-.028-.243-.028-.01-.005-.077.055-.157a.568.568 0 0 0 .105-.19c0-.026.065-.117.144-.203a.825.825 0 0 0 .144-.185c0-.017.035-.106.079-.2a1.74 1.74 0 0 0 .092-.23c.024-.11.05-.1.225.084.105.112.145.182.103.182-.037 0-.068.017-.068.038 0 .02-.065.038-.144.038-.079 0-.15.01-.156.02-.007.01-.062.104-.122.21-.108.19-.108.19-.01.24.134.069.121.177-.029.231-.088.032-.145.03-.191-.007-.052-.04-.066-.036-.066.022 0 .04.027.074.06.075.04 0 .035.015-.013.045-.063.04-.063.05 0 .09.062.039.06.045-.012.046-.069 0-.082.038-.076.217.006.166.013.182.028.068.023-.182.084-.189.176-.02.038.071.104.156.145.19.06.046.064.073.02.123-.045.052-.02.1.129.245.101.099.207.18.235.179.027 0-.004-.041-.07-.09-.111-.083-.113-.09-.022-.09.063-.001.1-.034.105-.092.004-.05-.013-.092-.038-.092-.024 0-.045-.033-.045-.074 0-.154.131.03.158.222.015.105.061.214.103.243.107.075.092.122-.028.086-.09-.027-.1-.017-.074.074.016.058.009.129-.017.158-.03.035-.01.07.064.107.06.03.13.1.155.155.025.055.09.108.142.117.092.016.092.013.01-.073-.046-.05-.071-.121-.056-.16.016-.039.005-.084-.023-.1-.082-.05-.058-.129.03-.097.043.016.097.003.118-.03.06-.09.048-.138-.03-.11-.038.014-.083.006-.098-.018-.016-.024-.003-.044.027-.044.032 0 .043-.031.026-.073-.02-.051-.009-.066.04-.049a.074.07 0 0 0 .094-.04.11.11 0 0 1 .092-.066c.037 0 .105-.04.153-.09.084-.089.083-.092-.004-.09a.39.39 0 0 0-.185.068c-.126.09-.301.084-.352-.013-.077-.15-.016-.42.123-.542.088-.076.111-.121.07-.137-.068-.027-.08-.153-.014-.153.024 0 .058.041.075.091.032.096.096.12.14.051.015-.022-.005-.066-.044-.096-.04-.031-.059-.075-.043-.099.035-.055.162.044.162.127 0 .115.303.046.318-.072.003-.026.009-.06.012-.074.004-.015.072.026.153.09.175.141.337.168.23.04-.062-.075-.06-.075.054-.005.068.042.113.108.104.152-.01.049.008.07.048.057.035-.012.058-.067.051-.122-.007-.055.008-.088.033-.074.024.015.058.005.075-.02.016-.026-.004-.047-.045-.047-.04 0-.075-.02-.075-.045 0-.025.022-.046.048-.046.026 0 .048-.02.048-.046 0-.027-.05-.034-.12-.018-.103.025-.116.016-.088-.056.017-.047.014-.07-.007-.05-.022.018-.066.012-.097-.013-.043-.033-.055-.016-.045.069.007.063-.008.127-.034.142-.05.03-1.446-1.31-1.912-1.856-2.216-2.591-1.124-3.906 1.537-5.33 1.053-.564 2.528-.97 4.23-1.27 1.847-.327 3.047-.392 3.536-.193.214.087.512.37.644.611.038.069.079.274.09.456.055.904.158 13.305.125 15.086-.005.26-.044.31-.18.228zM39.72 64.29c.745-.137 1.032-.248 1.373-.53.798-.66 1.219-1.569 1.29-2.786l.033-.54-.168-.177a1.907 1.907 0 0 1-.22-.273c-.083-.152-.06-.485.043-.59a.383.383 0 0 0 .098-.183c.017-.172-.007-.3-.05-.274-.025.014-.059.005-.076-.02-.016-.026.001-.058.04-.072.06-.022.06-.055.002-.24-.094-.303-.527-1.1-.858-1.578-.262-.377-.387-.509-.907-.953-.217-.185-.305-.16-.223.065.072.197.07.214-.045.272-.081.041-.127.03-.265-.07-.237-.173-.358-.305-.35-.386a.3.3 0 0 0-.005-.104.865.824 0 0 1-.041-.196c-.007-.076-.515-.31-.864-.4-.124-.031-.22-.085-.232-.13-.012-.042-.047-.086-.08-.098-.103-.038-.322.025-.352.1a.357.357 0 0 1-.104.13c-.046.034-.053.056-.018.057a.11.104 0 0 0 .087-.044c.047-.072.407-.057.407.017 0 .037.074.073.18.09.233.035.63.218.632.292.001.033-.057.056-.141.056-.2 0-.18.075.03.113.121.022.159.045.123.079a.12.113 0 0 0-.025.11c.015.038-.006.063-.051.063-.043 0-.077-.02-.077-.045 0-.025-.089-.046-.197-.046-.177 0-.195-.01-.171-.096.04-.148-.042-.3-.178-.324-.172-.031-.19.007-.051.11.118.09.17.356.07.356a.048.046 0 0 1-.048-.046c0-.025-.032-.045-.072-.045-.04 0-.072.018-.072.04 0 .023-.075.084-.167.135-.121.069-.159.117-.139.176.086.253.133.325.24.372.064.028.139.097.165.154.041.09.044.086.019-.032-.022-.106-.005-.15.083-.214.095-.07.102-.093.052-.171-.037-.058-.042-.102-.012-.12.026-.014.047-.066.047-.115 0-.103.026-.107.232-.038.083.027.15.078.15.113 0 .036.022.064.049.064.026 0 .048-.02.048-.045 0-.082.152-.048.176.04.013.046.088.13.166.185.12.084.133.112.082.17-.05.057-.041.083.053.15l.113.081-.128.08c-.1.063-.142.068-.197.024-.09-.07-.195-.017-.124.064.027.032.035.07.018.087-.017.017.004.03.048.03.145 0 .085.244-.08.328-.056.028-.21.06-.34.07-.132.01-.251.034-.265.055-.014.02-.068.046-.12.055a.144.144 0 0 0-.112.12c-.008.056-.043.101-.078.101s-.062.052-.062.122c0 .123-.119.243-.24.243a.666.666 0 0 0-.206.07c-.154.076-.192.246-.077.348.07.062.05.236-.022.194-.024-.014-.033-.041-.021-.06.012-.019-.024-.033-.08-.031-.08.003-.11-.032-.138-.154-.042-.193-.166-.287-.333-.252-.082.017-.147.002-.187-.045-.106-.121-.327-.086-.483.077-.14.145-.19.366-.095.422.026.015.111-.004.19-.043.171-.084.434-.093.434-.014 0 .03-.086.132-.193.224-.157.137-.188.19-.164.28.022.085.004.13-.074.182-.068.045-.098.106-.087.176.013.093.038.105.183.091a.54.54 0 0 0 .276-.12c.115-.11.429-.175.518-.11.029.023.075.016.107-.014.03-.029.071-.037.09-.019.02.019.005.052-.033.074-.038.023-.059.047-.046.055.187.115.249.13.317.076.057-.045.08-.044.111.005a.166.158 0 0 1 .015.123c-.015.038.011.06.071.06.052 0 .122.032.155.07.043.049.107.061.218.041.227-.04.328.006.422.193.082.164.082.167-.04.287-.13.129-.151.185-.074.185.027 0 .048-.031.048-.069 0-.037.033-.068.074-.068.133 0 .463.187.488.277.02.07.067.088.234.088.141 0 .24.028.3.085.05.047.152.105.228.13.111.034.14.072.152.202.012.143-.007.173-.192.293-.275.178-.322.24-.324.432-.002.26-.232.453-.539.453-.253 0-.585.278-.547.458.031.15-.043.225-.218.225-.142 0-.169.04-.081.124.064.061-.079.268-.21.302-.046.012-.083.063-.083.114 0 .05-.025.099-.056.109-.04.013-.042.054-.007.152a.37.37 0 0 1 .012.225c-.032.077-.038.079-.041.011-.002-.043-.027-.08-.055-.08-.03 0-.038-.038-.02-.092.017-.052.008-.121-.021-.154-.04-.045-.034-.075.02-.118.06-.047.062-.07.013-.128-.051-.06-.048-.066.023-.041.07.025.084.003.084-.146 0-.133.022-.18.09-.198.073-.018.087-.06.078-.22-.014-.236.069-.344.21-.272.124.063.149.06.149-.015 0-.035.043-.074.097-.087.053-.014.091-.051.084-.083-.007-.033.019-.06.057-.061.093-.003.121-.147.046-.233-.032-.037-.042-.083-.021-.1.02-.019.047-.008.059.023.025.067.3.078.3.011 0-.025.022-.045.048-.045.027 0 .048.03.048.068 0 .038.024.069.053.069.03 0 .04-.031.026-.069-.017-.041 0-.068.041-.068.043 0 .058.027.04.073-.022.053-.006.069.06.057.052-.01.107-.079.134-.17.04-.13.032-.165-.046-.222-.088-.063-.086-.065.027-.034.098.027.11.022.06-.027-.08-.08-.076-.136.007-.106.037.014.08.005.096-.02.015-.023-.004-.055-.044-.069-.039-.014-.07-.053-.07-.085 0-.036.014-.04.036-.013.056.074.154.075.154.002 0-.04.029-.056.073-.04.052.02.064.005.042-.05-.017-.041-.06-.065-.097-.052-.036.013-.065.004-.065-.02 0-.067.102-.053.196.028.047.04.108.06.136.044.079-.047.06-.116-.033-.12-.072-.002-.07-.008.012-.041.085-.034.078-.042-.059-.07-.088-.02-.166-.07-.182-.119-.017-.05-.073-.085-.133-.085-.084.001-.09.01-.035.044.04.023.057.055.04.07-.039.038-.23-.058-.23-.114 0-.024-.032-.031-.072-.017-.04.015-.071.055-.071.09 0 .073-.077.085-.12.018-.016-.025-.007-.046.02-.046a.05.048 0 0 0 .052-.048c0-.026-.022-.036-.048-.02-.027.015-.048-.004-.048-.043 0-.075-.125-.1-.152-.03-.009.023-.044.012-.078-.023-.052-.053-.038-.063.088-.063.085 0 .142-.022.133-.05-.021-.058-.032-.058-.281-.018-.127.02-.217.011-.265-.027-.054-.043-.085-.044-.127-.004-.089.084-.132.062-.122-.06.01-.108.085-.168.085-.069 0 .097.082.038.158-.114.059-.117.064-.16.021-.163-.046-.003-.046-.009 0-.027a.103.103 0 0 0 .06-.09c0-.037-.018-.056-.042-.042-.024.014-.055-.005-.07-.043-.015-.037-.055-.066-.09-.064-.048.003-.048.008.001.027.05.019.05.037.003.09-.037.044-.041.08-.012.1.062.039.075.235.016.235-.025 0-.045-.051-.045-.114s-.023-.114-.051-.114c-.03 0-.038-.039-.02-.091.036-.11-.014-.116-.16-.019-.11.073-.248.06-.248-.024 0-.025.033-.034.072-.02.098.037.09-.028-.012-.102-.112-.08-.159-.079-.125.005.02.05.006.061-.05.041-.042-.015-.076-.059-.076-.096 0-.045-.028-.059-.077-.04-.056.02-.07.008-.05-.041.03-.077-.042-.096-.089-.024a.111.106 0 0 1-.087.045c-.035 0-.039-.013-.009-.034.084-.058.069-.128-.027-.128-.05 0-.092.017-.092.039 0 .02-.022.025-.049.01-.026-.016-.063.009-.08.054a.365.347 0 0 1-.103.133c-.039.027-.055.073-.036.102.02.031.004.053-.04.053-.113 0-.09-.125.045-.264.098-.1.107-.126.046-.139-.06-.012-.064-.029-.02-.08.068-.077.046-.08-.126-.017-.071.025-.116.06-.1.075.018.016-.012.058-.065.093-.053.036-.083.085-.067.11.016.025-.005.082-.049.127-.081.086-.134.414-.066.414.022 0 .04.042.04.093 0 .05.028.102.062.115.042.015.058.086.048.206-.012.15.008.203.112.295.081.072.16.103.216.086.057-.017.088-.004.088.038 0 .035.055.124.121.197.081.088.112.163.092.223-.145.453-.167.768-.052.742.032-.007.058.008.058.033s-.025.04-.056.034c-.073-.016-.119.216-.063.316.024.042.032.106.018.141-.015.035.008.092.05.125.058.046.062.068.017.095-.046.027-.046.049.001.104.04.045.046.095.017.143-.044.077.048.516.12.566.02.014.036.066.036.115 0 .114.28.198.838.251.481.046.716.03 1.389-.094zm-1.98-.93c.014-.037.035-.068.046-.068.01 0 .019.03.019.068 0 .038-.021.069-.047.069-.025 0-.034-.031-.019-.069zm-.438-.342c-.017-.025-.008-.045.018-.045s.061.02.078.045c.016.026.008.046-.019.046a.106.106 0 0 1-.077-.046zm.862-.41a.106.106 0 0 1 .077-.045c.027 0 .035.02.019.045a.106.106 0 0 1-.078.046c-.026 0-.034-.02-.018-.046zm.407-.227c0-.061.085-.1.116-.052.015.023-.005.053-.044.068-.04.014-.072.007-.072-.016zm-1.223-.095c-.018-.026-.022-.058-.01-.07.013-.012.036.01.052.048.032.08.005.095-.043.022zm2.013-.225c-.016-.025-.008-.045.018-.045.027 0 .062.02.078.045.016.025.008.046-.018.046a.107.107 0 0 1-.078-.046zm-.407-.068c-.049-.056-.046-.068.018-.068.043 0 .078.03.078.068 0 .038-.008.068-.018.068-.01 0-.045-.03-.078-.068zm-1.509-.068a.106.106 0 0 1 .078-.046c.026 0 .035.02.018.046a.106.106 0 0 1-.077.045c-.027 0-.035-.02-.019-.045zm1.748-.069c0-.037.021-.068.047-.068.025 0 .034.03.019.068-.016.038-.036.069-.047.069-.01 0-.019-.031-.019-.069zm-1.772-.068c0-.025.023-.046.051-.046.028 0 .037.02.021.046-.016.025-.039.045-.05.045-.012 0-.022-.02-.022-.045zm-.02-.176c-.02-.032-.024-.07-.009-.086.043-.04.09.02.067.086-.016.046-.028.046-.058 0zm1.017-.038c.035-.013.076-.011.092.004s-.012.026-.063.024c-.056-.002-.067-.013-.029-.027zm.823-.009c0-.04.144-.111.173-.084.008.008-.027.039-.08.07-.05.03-.092.037-.092.014zm-.646-.096c-.017-.025-.008-.046.018-.046.027 0 .061.02.078.046.016.025.008.045-.019.045a.107.107 0 0 1-.077-.045zm-.704-.122c.035-.014.076-.012.092.003s-.012.025-.063.024c-.055-.002-.067-.013-.029-.028zm1.425-.047c-.026-.065-.02-.07.027-.026.033.031.048.068.033.082-.015.014-.042-.011-.06-.056zm.117-.06c0-.024.022-.045.048-.045a.048.046 0 0 1 0 .091.048.046 0 0 1-.048-.045zm-2.3-.09a.048.046 0 0 1 .097 0 .047.047 0 0 1-.048.045.048.046 0 0 1-.048-.045zm1.63-.046c0-.025.02-.046.045-.046.024 0 .058.021.074.046.017.025-.004.046-.045.046-.041 0-.074-.021-.074-.046zm-1.964-.113c0-.036.044-.049.12-.035.065.012.12.038.12.056 0 .02-.055.035-.12.035-.066 0-.12-.025-.12-.056zm1.676-.07c-.079-.048-.066-.054.138-.062.092-.004.13.013.114.051-.027.068-.151.074-.252.012zm-.647-.181c.017-.026.04-.046.051-.046.012 0 .021.02.021.046 0 .025-.022.045-.05.045-.028 0-.038-.02-.022-.045zm-1.071-.308c.014-.087-.011-.12-.05-.062-.033.05-.053.043-.096-.034-.049-.087-.043-.096.055-.086.06.006.124.031.144.056.051.067.044.16-.011.16-.026 0-.045-.016-.043-.034zm1.121-.054c-.015-.023-.005-.055.022-.071.026-.016.048.003.048.042 0 .08-.029.092-.07.029zm-.313-.23c0-.026.023-.047.05-.047.029 0 .038.021.022.046-.016.025-.04.046-.05.046-.012 0-.022-.021-.022-.046zm1.293-.272c0-.023.022-.055.048-.07.026-.016.048.003.048.042s-.022.071-.048.071c-.026 0-.048-.02-.048-.043zm.102-.219c-.066-.118-.019-.254.076-.22a.455.455 0 0 0 .09.026c.044 0 .016.124-.046.205-.063.083-.067.082-.12-.01zm.09-.103c0-.025-.01-.045-.021-.045-.012 0-.035.02-.051.045-.017.025-.007.046.021.046s.05-.02.05-.046zm2.468.094c-.042-.065.011-.14.1-.14.042 0 .066.033.057.077-.018.091-.114.13-.157.063zm-2.745-.347c-.059-.039-.106-.093-.106-.12 0-.032.021-.031.065.004.036.028.096.044.132.035.036-.009.049-.007.028.004-.02.011-.013.049.018.084.074.085-.004.081-.137-.007zm.277.026c0-.025.021-.046.048-.046a.048.046 0 0 1 0 .091.048.046 0 0 1-.048-.045zm-1.461-.046c.016-.025.06-.045.099-.045.038 0 .069.02.069.045 0 .025-.045.046-.099.046-.054 0-.085-.021-.069-.046zm.311-.07c0-.078.155-.293.195-.27.025.015.034.047.019.07-.015.023.038.042.119.042.08 0 .146.02.146.046 0 .025.033.045.072.045.04 0 .072.021.072.046 0 .064-.132.057-.154-.007-.015-.04-.057-.04-.18 0-.171.057-.289.068-.289.028zm-.434-.066a.941.941 0 0 1-.304-.167c-.173-.137-.177-.145-.077-.175.073-.022.137-.003.21.061a.7.7 0 0 0 .303.124c.236.036.31.139.12.164a.916.916 0 0 1-.252-.007zm.323-.259c-.05-.047-.038-.197.016-.197.026 0 .047.018.047.041 0 .024.013.075.03.114.029.072-.033.1-.093.042zm4.112-.302c-.02-.045-.024-.094-.008-.11.049-.046.088.019.065.108-.02.08-.022.08-.057.002zm-3.953-3.45c0-.026.034-.046.075-.046.04 0 .061.02.045.045-.017.026-.05.046-.075.046a.046.046 0 0 1-.045-.046zm.103 8.198c-.1-.036-.122-.017-.086.074.025.06.041.062.097.014.058-.051.056-.064-.011-.088zm.318-.368c.113.02.122.015.068-.047-.134-.154-.37-.092-.265.07.022.034.038.034.05.002.009-.026.075-.037.147-.024zm4.533-.435a.815.815 0 0 1 .075-.195c.03-.053.042-.128.027-.166-.027-.069.063-.257.223-.465.065-.084.072-.127.03-.2-.071-.128-.017-.39.107-.517.149-.15.092-.263-.112-.222-.192.038-.287.112-.144.112.056 0 .116-.02.132-.045.017-.025.05-.046.075-.046.077 0 .05.12-.047.202-.118.102-.178.415-.097.508.049.056.032.105-.099.277-.1.134-.156.26-.153.348a.63.63 0 0 1-.066.268c-.039.071-.06.13-.046.13.013 0 .002.056-.026.125-.045.113-.042.118.026.054a.372.372 0 0 0 .095-.168zm-3.876-.194c.037-.058-.074-.058-.168 0-.059.036-.052.044.033.045.058 0 .118-.02.135-.045zm4.094-1.636c0-.07-.14-.153-.215-.125-.108.04-.216-.016-.216-.111 0-.086-.132-.18-.248-.178-.035.001-.007.047.061.103a.59.59 0 0 1 .157.186c.023.061.065.079.15.063.068-.012.143.005.173.04.061.07.138.083.138.023zm-.766-.6c0-.052-.02-.082-.046-.067-.025.015-.033.057-.019.094.038.094.065.083.065-.027zm-.068-.18c.097 0 .084-.08-.023-.134-.067-.034-.106-.028-.152.024-.05.057-.048.067.007.056.047-.01.066.023.06.1-.005.066 0 .08.015.034.014-.044.055-.08.093-.08zm-5.056-.273a.048.046 0 0 0-.048-.046.048.046 0 0 0-.048.046.048.046 0 0 0 .096 0zm5.007-.171c-.084-.076-.086-.076-.057.004a.499.499 0 0 1 .03.134c0 .035.018.034.058-.004.046-.043.039-.072-.03-.134zm.29-.604a1.816 1.729 0 0 1 .095-.258.741.741 0 0 0 .064-.273c-.004-.151-.024-.114-.165.303a2.284 2.284 0 0 1-.174.393.619.619 0 0 0-.087.182c.003.075.24-.232.267-.347zm-7.197-.252c-.04-.101-.107-.08-.078.024.014.05.043.08.065.066.022-.012.028-.054.014-.09zm2.072-.224c-.017-.064-.061-.117-.1-.117-.056 0-.054.024.013.134.093.156.13.148.087-.018zm6.307.02c.027-.099-.038-.127-.079-.034-.016.038-.065.013-.142-.074-.112-.126-.13-.13-.392-.099-.155.018-.256.05-.232.072.023.023.13.018.248-.01.2-.048.21-.045.335.093.149.165.227.18.262.052zm-6.702-.25c.016-.038.01-.069-.013-.069-.022 0-.067.031-.1.069-.048.055-.046.068.013.068.04 0 .085-.031.1-.068zm.953-.01c.02-.01.036-.112.036-.225 0-.169.018-.211.096-.23.052-.014.095-.043.095-.065 0-.061-.156-.045-.255.026-.066.048-.122.052-.227.017-.13-.043-.195-.129-.098-.129.023 0 .056-.036.072-.08.016-.043.042-.105.058-.137.015-.031-.003-.056-.043-.056-.038 0-.082.042-.096.094a.182.182 0 0 1-.118.118c-.068.017-.086.052-.07.133.012.06.036.113.053.115.016.003.106.011.198.019.222.017.232.022.12.068l-.096.039.096.005c.088.004.089.008.011.051-.088.049-.116.179-.038.179.025 0 .067-.036.092-.08.026-.044.062-.064.081-.046.045.042-.068.171-.15.171a.122.116 0 0 0-.094.048c-.028.043.18.018.277-.034zm4.73-.013c0-.025-.033-.046-.072-.046-.04 0-.072-.02-.072-.045a.048.046 0 0 0-.048-.046c-.134 0 .003.137.18.18.006.002.011-.018.011-.043zm.304-.069c.072-.068.091-.114.147-.353.016-.069.054-.125.084-.125.088 0 .23.143.23.232 0 .097.077.153.12.087.016-.025.012-.046-.01-.046s-.064-.06-.093-.132c-.077-.195-.229-.258-.347-.146-.057.055-.083.125-.068.182.018.064-.02.137-.12.232-.082.078-.116.138-.08.138.036 0 .098-.031.137-.069zm.458-.07c-.035-.02-.086-.024-.114-.007-.03.017-.015.037.034.046.046.009.085.04.088.07.002.032.013.029.03-.01.014-.034-.004-.079-.038-.1zm-.14-.092c0-.023-.022-.043-.048-.043-.026 0-.048.032-.048.071 0 .04.022.059.048.043.026-.015.048-.047.048-.07zm-.766-.063c0-.036-.022-.078-.048-.094-.027-.015-.048.014-.048.066 0 .052.021.094.048.094.026 0 .048-.03.048-.066zm-7.088-.088c0-.01-.054-.028-.12-.04s-.12-.004-.12.018c0 .021.054.039.12.039s.12-.008.12-.017zm7.206-.302c.093 0 .137-.16.074-.272-.034-.061-.1-.093-.194-.093-.166 0-.182-.045-.045-.126.08-.048.088-.074.043-.153a.356.356 0 0 1-.03-.211.394.394 0 0 0-.067-.257c-.118-.184-.114-.223.016-.183.096.028.1.024.042-.043-.091-.105-.142-.093-.177.04a.307.292 0 0 0 .04.216c.1.147.147.58.063.58-.088 0-.128.115-.062.177.03.029.104.052.166.052.17 0 .195.133.044.238-.072.05-.126.131-.125.187.002.09.008.088.073-.026.04-.07.102-.126.139-.126zm-4.74.091c.016-.025-.004-.045-.045-.045-.041 0-.075.02-.075.045 0 .025.02.046.045.046.025 0 .059-.02.075-.046zm-.004-.278c-.048-.075-.116-.042-.116.056 0 .08.012.087.07.04.04-.03.06-.074.046-.096zm-.164-.246c-.033-.038-.081-.068-.108-.068-.026 0-.021.03.012.068.033.038.081.069.108.069.026 0 .021-.03-.012-.069zm4.433-.057c.161-.122.218-.294.117-.353-.027-.016-.048-.078-.048-.14 0-.06-.018-.11-.04-.11-.023 0-.067-.055-.098-.122-.094-.194-.15-.07-.17.375-.023.537-.018.545.239.35zm-.192-.09c.02-.07.033-.24.028-.377l-.008-.25.096.113a.42.42 0 0 1 .096.214c.001.055.023.113.05.128.046.027-.195.296-.266.296-.018 0-.016-.056.004-.125zm-6.253.053c0-.036-.02-.065-.044-.065-.025 0-.042.04-.038.088.008.1.082.079.082-.023zm6.055-.184c.115-.042.09-.1-.034-.077-.101.019-.108.007-.09-.166.018-.184.07-.239.123-.128.015.031.022.016.015-.035-.007-.05-.043-.09-.082-.09-.048 0-.082.071-.104.224-.044.292-.014.34.172.272zm-1.815-.668c-.026-.19-.063-.264-.184-.364-.194-.16-1.013-.56-1.22-.597-.234-.042-.144.04.12.109.126.033.37.128.54.21l.312.15.008.217c.007.19.031.237.187.367.099.081.2.148.224.148.026 0 .031-.101.012-.24zm1.117.014c.02-.138-.12-.254-.216-.178-.068.053-.087.23-.03.284.074.07.23.004.246-.106zm-.213-.029c.016-.04.029-.08.029-.09 0-.011.022-.02.048-.02.026 0 .048.041.048.091 0 .053-.032.091-.077.091-.05 0-.067-.025-.048-.072zm1.359-.056c.011-.032-.01-.043-.054-.028-.052.02-.076-.009-.087-.102-.017-.138-.183-.217-.183-.087 0 .04-.018.072-.038.072-.068 0-.154-.107-.154-.191 0-.046-.025-.083-.055-.083-.087 0-.376-.225-.376-.293 0-.034-.03-.073-.068-.087-.154-.056.058.265.231.35.095.046.172.11.172.14 0 .03.062.112.138.18.132.121.138.122.163.032.038-.138.114-.114.148.047.028.136.123.165.163.05zm-3.39-.1c0-.025-.059-.043-.131-.04l-.132.004.12.036.131.041c.007.003.012-.016.012-.041zm1.276-.216a.929.884 0 0 1 .1-.224c.15-.22-.15-.702-.48-.77-.173-.036-.231.01-.063.051.166.04.377.233.456.417.056.13.051.17-.038.345-.11.217-.126.306-.054.306.026 0 .062-.056.08-.125zm-2.21-.002c.137-.037.192-.106.194-.243 0-.096-.02-.12-.106-.114-.1.005-.103.012-.033.112.085.124.09.115-.123.184-.144.046-.177.041-.266-.039-.057-.05-.129-.092-.16-.092-.032 0 .013.061.099.136.091.08.186.124.228.108a2.35 2.35 0 0 1 .168-.052zm.79-.12c-.263-.13-.526-.19-.526-.121 0 .027.061.05.136.05.076 0 .175.04.223.09.053.056.145.09.235.09.147-.003.147-.004-.067-.11zm-.862-.025c.105-.063.014-.121-.239-.154-.213-.028-.214-.028-.084.04.073.039.132.09.132.114 0 .056.098.056.191 0zm-.574-.123c0-.059.177-.131.275-.113.053.01.084-.08.066-.188-.004-.02.026-.047.066-.062.04-.014.072-.047.072-.072 0-.028-.127-.04-.327-.029a1.574 1.574 0 0 0-.658.172c-.183.084-.338.158-.345.163-.046.034.063.157.149.168.266.036.702.012.702-.04zm3.783-.288c0-.05-.008-.092-.018-.092-.01 0-.03.042-.043.092-.014.05-.005.09.018.09.024 0 .043-.04.043-.09zm-.182-.101c-.035-.033-.057-.036-.057-.007 0 .06.057.114.089.084.013-.013-.001-.048-.032-.078zm-2.46-.168c.022-.142.158-.176.667-.17.46.006.592-.034.24-.072-.3-.033-.731-.006-.846.053-.055.028-.1.087-.1.131a.233.233 0 0 1-.06.14c-.049.05-.047.057.012.04.04-.01.078-.066.087-.122zm-.185-.002c.075-.132.06-.185-.05-.185-.112 0-.38.136-.38.192 0 .057.048.043.2-.06.16-.109.234-.082.146.052-.033.05-.038.09-.012.09s.069-.04.096-.088zM30.26 64.29c-.275-.2-.9-.586-1.317-.816-1.793-.985-2.421-1.757-2.256-2.772.083-.513.358-.972.853-1.425.708-.648 1.307-.974 1.307-.71 0 .034-.185.204-.412.377-.484.37-.876.81-1.058 1.185-.106.219-.134.352-.15.711-.019.419-.012.46.128.743.081.165.226.392.323.504.44.512 1.606 1.03 2.607 1.158a12.816 12.196 0 0 1 .513.074c.114.022.151.11.047.11a.766.766 0 0 0-.237.115.488.488 0 0 0-.228.294c-.05.173-.028.262.133.56.038.072-.07.026-.253-.108zm4.743-.211c-.263-.016-.409-.067-.409-.145 0-.017.138-.022.306-.012.18.01.343-.003.395-.033.07-.04-.004-.05-.342-.042-.418.01-.439.005-.681-.147-.138-.086-.244-.177-.236-.202.008-.025.135-.101.283-.169.263-.12.288-.123 1.241-.128 1.22-.006 1.141-.01 1.141.057 0 .065-.2.188-.874.538-.257.133-.467.259-.467.28 0 .02-.016.033-.036.028a4.72 4.72 0 0 0-.321-.025zm.577-.343c.02-.018-.13-.033-.334-.033-.204 0-.36.015-.348.034.029.044.635.044.682 0zm-.83-.157a.85.81 0 0 0-.24 0c-.072.01-.024.02.108.02s.191-.008.132-.02zm.958 0a2.746 2.613 0 0 0-.408 0c-.112.01-.02.017.204.017.224 0 .315-.008.204-.018zm.418-.132c0-.01-.167-.014-.37-.01-.36.007-.363.009-.108.034.25.025.478.014.478-.024zm-1.422-.022c-.038-.036-.078-.037-.141-.001-.078.043-.071.049.053.05.103 0 .127-.012.088-.049zm.358.019a.526.5 0 0 0-.192-.001c-.06.01-.022.02.083.02.106.001.154-.008.109-.02zm.214-.09a.185.176 0 0 0-.12 0c-.032.013-.005.023.06.023.066 0 .093-.01.06-.023zm.72-.002a.852.81 0 0 0-.24 0c-.073.01-.025.019.107.019s.192-.008.133-.02zm-1.27-.644c-.185-.02-.643-.691-.901-1.32-.299-.726-.394-1.26-.364-2.038a4.848 4.848 0 0 1 .991-2.78c.255-.332.32-.375.417-.282.074.07.07.084-.044.201-.722.74-1.207 2.148-1.117 3.249.08.994.404 1.891.939 2.604.132.176.233.334.225.35-.008.017-.074.024-.146.017zm-2.023-2.064c-.36-.38-1.138-1.05-1.926-1.66-1.46-1.16-4.226-3.048-4.228-4.943-.001-1.265 1.187-2.566 3.499-3.706 4.005-1.977 11.599-3.475 23.775-3.475 2.6 0 3.397-.019 6.73.118 12.38.599 18.558 3.6 18.558 6.378 0 2.394-3.686 5.42-10.896 6.334-.277.027-.573.058-.659.068-.144.018-.155.01-.155-.114 0-.148-.012-.143.574-.228 4.185-.715 9.388-3.307 9.428-5.81.03-1.948-4.27-3.87-6.817-4.638-1.075-.32-1.944-.515-3.425-.766l-1.053-.18a44.592 44.592 0 0 0-1.692-.247 143.166 136.248 0 0 1-2.044-.207c-.484-.056-2.043-.204-2.85-.272-.712-.06-2.917-.138-4.478-.16-1.792-.023-4.717.053-7.016.183-1.759.1-1.872.134-2.49.181-9.412.716-17.176 3.823-17.176 6.378 0 .708.547 1.449 1.183 1.768 1.042.521 2.873.618 4.208.212.39-.119.575-.165.546-.09-.01.021-.13.125-.27.23-.44.33-.953 1.095-1.177 1.757-.2.592-.32 1.76-.229 2.223.03.144.106.39.172.545.066.155.112.288.104.296-.01.008-.097-.07-.196-.176zm2.993.014c0-.047.103-.146.153-.146.02 0 .038.041.038.091 0 .061-.032.092-.096.092-.052 0-.095-.017-.095-.037zm-.168-1.832c-.017-.025-.007-.046.021-.046s.05.02.05.046c0 .025-.01.045-.02.045-.012 0-.035-.02-.051-.045zm.12-.255c0-.037.06-.055.162-.05.195.01.184.058-.018.087-.095.013-.145 0-.145-.037zm-.144-.155c0-.026.023-.046.05-.046.029 0 .038.02.022.046-.016.025-.04.045-.05.045-.013 0-.022-.02-.022-.045zm.452-.096c-.014-.023.018-.04.072-.04.054 0 .099-.023.099-.05 0-.026.023-.034.052-.017.037.022.037.045 0 .08-.068.064-.189.08-.222.027zm.683-.207c-.051-.049.013-.105.088-.078.038.014.058.044.043.066-.03.048-.088.053-.131.012zm.134-.199c.016-.025.04-.045.05-.045.012 0 .022.02.022.045 0 .025-.023.046-.05.046-.029 0-.038-.02-.022-.046zm-.368-.213c.035-.013.076-.012.092.004.016.015-.013.026-.063.024-.056-.002-.067-.013-.03-.028zm-.997-.17a.076.072 0 0 1 .076-.073c.042 0 .067.025.057.055-.03.084-.133.098-.133.018zm.575.021c0-.023.022-.055.048-.07.026-.016.048.003.048.042 0 .04-.022.071-.048.071-.027 0-.048-.019-.048-.043zm.383-.048c0-.025.033-.046.072-.046.04 0 .072.021.072.046 0 .025-.033.046-.072.046-.04 0-.072-.021-.072-.046zm1.894-.079a.127.12 0 0 1 .027-.122c.042-.037.05-.03.027.03-.036.098.03.104.112.011.032-.037.089-.068.125-.068.118 0 .07.073-.098.149-.15.068-.165.068-.193 0zm-2.134-.195a.048.046 0 0 1 .096 0 .047.047 0 0 1-.048.046.048.046 0 0 1-.048-.046zm.719-.139c0-.026.022-.035.048-.02.026.016.048.037.048.048 0 .011-.022.02-.048.02a.048.048 0 0 1-.048-.048zm.311.003c-.016-.025.004-.046.045-.046a.073.07 0 0 0 .075-.068c0-.038.022-.069.05-.069.033 0 .034.028.002.086-.027.047-.035.098-.018.114.017.016-.004.028-.047.028-.042 0-.09-.02-.106-.045zm-.427-.176c-.02-.032-.024-.07-.009-.086.043-.04.09.02.067.086-.017.046-.028.046-.058 0zm.241-.086c.046-.18.067-.185.067-.02 0 .08-.022.145-.05.145-.028 0-.035-.05-.017-.125zm-.388-.057a.105.105 0 0 1 .077-.046c.026 0 .035.021.018.046a.106.106 0 0 1-.077.046c-.027 0-.035-.021-.018-.046zm.812-.003c-.018-.027-.02-.06-.006-.073.034-.033.127.025.127.079 0 .058-.082.054-.121-.006zm.337.003a.09.085 0 0 1 .013-.099c.032-.03.06-.028.083.008a.09.085 0 0 1-.013.1c-.032.03-.06.027-.083-.009zm-1.27-.16c-.033-.039-.052-.075-.042-.08.22-.12.234-.124.234-.06a.101.101 0 0 1-.06.088c-.046.017-.045.024.003.026.035.002.05.024.034.05-.042.064-.099.056-.169-.024zm.336.022c-.062-.04-.06-.055.021-.114.107-.077.189-.028.143.085-.035.088-.064.092-.164.029zm.431-.024c0-.118.119-.43.16-.418.085.028.09.29.006.37-.076.072-.166.098-.166.048zm.266-.016a.053.05 0 0 1 .017-.07.053.05 0 0 1 .074.016.053.05 0 0 1-.018.07.053.05 0 0 1-.073-.016zm-1.176-.186c0-.026.023-.046.051-.046.028 0 .037.02.02.046-.015.025-.038.045-.05.045-.011 0-.02-.02-.02-.045zm.31-.139c-.046-.07.036-.14.112-.095.05.03.048.047-.008.092-.052.04-.079.041-.103.003zm.36-.088c0-.057.17-.144.21-.107.041.04-.064.151-.143.151-.037 0-.066-.02-.066-.044zm.45-.147c-.04-.061.071-.126.215-.127.092 0 .103.011.058.062-.073.085-.236.123-.274.064zm-1.54-.043c-.032-.032-.059-.084-.059-.117 0-.032-.021-.06-.048-.06a.048.046 0 0 1-.048-.045c0-.068.124-.055.19.02.031.037.05.11.041.163-.012.078-.027.085-.075.039zm.947.01c0-.057.288-.191.341-.16.073.043.046.095-.08.15-.147.063-.261.068-.261.01zm-.344-.08c.034-.013.076-.012.091.004.016.015-.012.026-.062.024-.056-.002-.067-.013-.03-.028zm-.316-.16c.024-.068.133-.106.133-.046 0 .025-.034.057-.076.073-.046.017-.068.007-.057-.027zm.548-.022c-.06-.057-.032-.116.043-.089.042.016.061.008.045-.018-.017-.024.015-.045.069-.045.111 0 .126.047.041.128-.064.06-.149.07-.198.024zm8.788-5.667a1.133 1.133 0 0 1-.127-.205c-.128-.242-.453-.548-.68-.64-.395-.16-1.506-.131-2.96.075-.342.049-.652.099-.687.11-.036.013-.208.052-.383.087a4.394 4.394 0 0 0-.403.095c-.046.018-.084.011-.084-.014 1.57-.699 8.149-1.723 14.793-1.666 4.502.038 9.044.554 12.04 2.075-.042.01-1.537.06-9.674.06-5.368-.002-10.22.008-10.782.022-.562.013-1.036.014-1.053 0z"/><g aria-label="URBAN" style="font-style:italic;font-size:19.484px;line-height:1.25;font-family:Calibri;-inkscape-font-specification:'Calibri, Italic';font-variant-ligatures:none;text-align:center;letter-spacing:.926042px;word-spacing:0;text-anchor:middle;fill:#000;fill-opacity:1;stroke-width:.264583"><path d="M75.461 329.998v-6.707q0-.857.38-1.285.39-.428 1.019-.428.656 0 1.037.428.39.428.39 1.285v6.859q0 1.17.257 1.96.266.78.932 1.218.666.428 1.865.428 1.655 0 2.34-.876.685-.884.685-2.673v-6.916q0-.866.38-1.285.381-.428 1.019-.428.637 0 1.027.428.4.419.4 1.285v6.707q0 1.636-.324 2.73-.314 1.094-1.199 1.922-.76.704-1.77 1.027-1.008.324-2.359.324-1.607 0-2.768-.343-1.16-.352-1.893-1.075-.733-.732-1.075-1.864-.343-1.142-.343-2.721z" style="font-style:normal;font-family:'Arial Rounded MT Bold';-inkscape-font-specification:'Arial Rounded MT Bold, ';fill:#000;fill-opacity:1" transform="matrix(.27152 0 0 .2584 25.993 -31.901)"/><path d="M94.499 329.716h-.99v4.54q0 .897-.39 1.32-.39.425-1.017.425-.676 0-1.047-.444-.371-.443-.371-1.3v-10.874q0-.925.41-1.34.408-.414 1.322-.414h4.595q.951 0 1.626.086.676.077 1.218.328.657.28 1.16.8.505.52.762 1.215.266.684.266 1.455 0 1.581-.884 2.526-.876.944-2.664 1.34.751.404 1.436 1.195.685.79 1.218 1.687.542.887.837 1.61.305.713.305.983 0 .28-.181.559-.171.27-.476.424-.304.164-.704.164-.475 0-.799-.232-.323-.221-.561-.568-.229-.347-.628-1.022l-1.132-1.909q-.61-1.05-1.094-1.6-.476-.55-.97-.752-.495-.202-1.247-.202zm1.617-5.938H93.51v3.885h2.53q1.018 0 1.713-.174.694-.183 1.056-.607.37-.434.37-1.186 0-.588-.294-1.031-.295-.453-.818-.675-.495-.212-1.95-.212zm15.67 11.985h-4.262q-.923 0-1.323-.416-.39-.426-.39-1.345v-10.663q0-.938.4-1.345.409-.416 1.313-.416h4.519q.998 0 1.731.126.733.126 1.313.484.495.3.875.764.38.455.58 1.016.2.552.2 1.17 0 2.13-2.093 3.116 2.75.89 2.75 3.464 0 1.19-.6 2.149-.599.948-1.617 1.403-.637.27-1.465.387-.828.106-1.931.106zm-.21-6.299h-2.94v4.141h3.036q2.863 0 2.863-2.1 0-1.073-.742-1.557t-2.217-.484zm-2.94-5.728v3.667h2.588q1.056 0 1.627-.203.58-.203.885-.774.238-.407.238-.91 0-1.074-.752-1.422-.751-.358-2.293-.358z" style="font-style:normal;font-family:'Arial Rounded MT Bold';-inkscape-font-specification:'Arial Rounded MT Bold, ';fill:#000;fill-opacity:1;stroke-width:.264583" transform="matrix(.27152 0 0 .2584 25.993 -31.901)"/><path d="m129.701 334.184-.666-1.75h-5.67l-.666 1.788q-.39 1.046-.666 1.417-.276.362-.904.362-.532 0-.942-.39-.409-.39-.409-.885 0-.285.096-.59.095-.304.313-.847l3.568-9.057.362-.932q.218-.552.456-.913.248-.362.638-.58.4-.229.98-.229.59 0 .98.228.4.22.637.571.247.352.409.761.171.4.428 1.075l3.644 9q.428 1.028.428 1.494 0 .485-.41.894-.399.4-.97.4-.332 0-.57-.124-.238-.114-.4-.314-.162-.21-.352-.628zm-5.594-3.872h4.167l-2.102-5.756zm15.198-7.04 5.432 8.22v-8.297q0-.808.343-1.208.352-.409.942-.409.609 0 .96.41.353.399.353 1.207v10.97q0 1.836-1.523 1.836-.38 0-.685-.114-.304-.105-.57-.343-.267-.238-.495-.552-.228-.323-.457-.656l-5.299-8.125v8.173q0 .799-.37 1.208-.372.409-.952.409-.6 0-.961-.41-.362-.418-.362-1.207v-10.76q0-.685.153-1.075.18-.429.599-.695.419-.276.904-.276.38 0 .647.124.276.123.475.333.21.21.419.542.219.333.447.695z" style="font-style:normal;font-family:'Arial Rounded MT Bold';-inkscape-font-specification:'Arial Rounded MT Bold, ';fill:#000;fill-opacity:1" transform="matrix(.27152 0 0 .2584 25.993 -31.901)"/><path style="opacity:1;fill:#000;fill-opacity:1;stroke-width:.799999;stroke-linecap:square;paint-order:fill markers stroke" d="M90.684 321.629h1.731v1.64h-1.731z" transform="matrix(.27152 0 0 .2584 25.993 -31.901)"/><path style="font-style:italic;font-size:19.484px;line-height:1.25;font-family:Calibri;-inkscape-font-specification:'Calibri, Italic';font-variant-ligatures:none;text-align:center;letter-spacing:.926042px;word-spacing:0;text-anchor:middle;fill:#000;fill-opacity:1;stroke-width:.799999;stroke-linecap:square;paint-order:fill markers stroke" d="M105.811 321.578h1.731v14.185h-1.731z" transform="matrix(.27152 0 0 .2584 25.993 -31.901)"/></g><g aria-label="CRUISE" style="font-style:italic;font-size:19.484px;line-height:1.25;font-family:Calibri;-inkscape-font-specification:'Calibri, Italic';font-variant-ligatures:none;text-align:center;letter-spacing:-.132292px;word-spacing:0;text-anchor:middle;fill:#000;fill-opacity:1;stroke-width:.264583"><path d="M87.59 349.897q0 .666-.333 1.446-.324.771-1.028 1.523-.704.742-1.798 1.208-1.094.466-2.55.466-1.103 0-2.007-.21-.904-.209-1.646-.646-.732-.447-1.35-1.17-.553-.657-.943-1.466-.39-.818-.59-1.74-.19-.923-.19-1.96 0-1.684.486-3.016.494-1.332 1.408-2.274.913-.951 2.14-1.446t2.616-.495q1.694 0 3.016.676 1.323.675 2.027 1.674.704.99.704 1.874 0 .486-.343.857-.342.37-.828.37-.542 0-.818-.256-.266-.257-.6-.885-.55-1.037-1.302-1.55-.743-.514-1.837-.514-1.74 0-2.778 1.322-1.027 1.322-1.027 3.758 0 1.627.457 2.711.456 1.075 1.293 1.608.838.533 1.96.533 1.218 0 2.055-.6.847-.608 1.275-1.779.18-.551.447-.894.267-.352.856-.352.505 0 .866.352.362.352.362.875z" style="font-style:normal;font-family:'Arial Rounded MT Bold';-inkscape-font-specification:'Arial Rounded MT Bold, ';fill:#000;fill-opacity:1" transform="matrix(.27152 0 0 .2584 25.993 -31.901)"/><path d="M93.793 348.233h-.989v4.556q0 .9-.39 1.325-.39.426-1.018.426-.675 0-1.046-.445t-.371-1.306v-10.911q0-.929.409-1.345.409-.416 1.322-.416h4.595q.951 0 1.627.087.675.078 1.218.33.656.28 1.16.802.505.522.761 1.219.267.687.267 1.46 0 1.587-.885 2.535-.875.948-2.664 1.344.752.407 1.437 1.2.685.793 1.218 1.693.542.89.837 1.615.304.716.304.987 0 .28-.18.56-.172.272-.476.426-.305.165-.704.165-.476 0-.8-.232-.323-.223-.56-.57-.23-.35-.629-1.026l-1.132-1.916q-.609-1.054-1.094-1.605-.476-.552-.97-.755-.495-.203-1.247-.203zm1.618-5.959h-2.607v3.899h2.53q1.019 0 1.713-.174.695-.184 1.056-.61.371-.435.371-1.19 0-.59-.295-1.035-.295-.454-.818-.677-.495-.213-1.95-.213z" style="font-style:normal;font-family:'Arial Rounded MT Bold';-inkscape-font-specification:'Arial Rounded MT Bold, ';fill:#000;fill-opacity:1;stroke-width:.264583" transform="matrix(.27152 0 0 .2584 25.993 -31.901)"/><path style="font-style:italic;font-size:19.484px;line-height:1.25;font-family:Calibri;-inkscape-font-specification:'Calibri, Italic';font-variant-ligatures:none;text-align:center;letter-spacing:.926042px;word-spacing:0;text-anchor:middle;fill:#000;fill-opacity:1;stroke-width:.799999;stroke-linecap:square;paint-order:fill markers stroke" d="M89.978 340.117h1.731v1.64h-1.731z" transform="matrix(.27152 0 0 .2584 25.993 -31.901)"/><path d="M104.21 348.537v-6.707q0-.856.366-1.285.376-.428.981-.428.633 0 1 .428.376.429.376 1.285v6.86q0 1.17.248 1.959.257.78.899 1.218.642.428 1.797.428 1.596 0 2.257-.875.66-.885.66-2.674v-6.916q0-.866.367-1.285.367-.428.981-.428.615 0 .99.428.386.419.386 1.285v6.707q0 1.636-.312 2.73-.303 1.094-1.156 1.922-.733.704-1.706 1.028-.972.323-2.274.323-1.55 0-2.67-.343-1.118-.352-1.824-1.075-.706-.732-1.037-1.864-.33-1.142-.33-2.721z" style="font-style:normal;font-family:'Arial Rounded MT Bold';-inkscape-font-specification:'Arial Rounded MT Bold, ';fill:#000;fill-opacity:1;stroke-width:.264583" transform="matrix(.27152 0 0 .2584 25.993 -31.901)"/><path d="M118.179 352.818V341.83q0-.857.39-1.285.39-.428 1.008-.428.638 0 1.028.428.4.419.4 1.285v10.988q0 .866-.4 1.294-.39.428-1.028.428-.609 0-1.008-.428-.39-.438-.39-1.294zm16.45-2.702q0 1.265-.657 2.274-.647 1.008-1.902 1.58-1.256.57-2.978.57-2.065 0-3.406-.78-.951-.561-1.55-1.494-.59-.942-.59-1.826 0-.514.351-.876.362-.37.914-.37.447 0 .751.285.314.285.533.846.266.666.57 1.114.315.447.876.742.561.285 1.475.285 1.256 0 2.036-.58.79-.59.79-1.465 0-.695-.429-1.123-.418-.438-1.094-.666-.666-.228-1.788-.485-1.504-.352-2.522-.818-1.008-.476-1.607-1.285-.59-.818-.59-2.026 0-1.151.628-2.046.628-.894 1.817-1.37 1.189-.485 2.797-.485 1.284 0 2.217.324.941.314 1.56.846.618.524.904 1.104.285.58.285 1.132 0 .504-.362.913-.352.4-.884.4-.486 0-.742-.238-.248-.247-.543-.799-.38-.79-.913-1.227-.533-.447-1.712-.447-1.094 0-1.77.485-.666.476-.666 1.151 0 .419.228.723.229.304.628.523.4.22.809.343.41.123 1.35.361 1.18.276 2.132.61.96.332 1.627.808.675.476 1.046 1.208.38.723.38 1.78z" style="font-style:normal;font-family:'Arial Rounded MT Bold';-inkscape-font-specification:'Arial Rounded MT Bold, ';fill:#000;fill-opacity:1" transform="matrix(.27152 0 0 .2584 25.993 -31.901)"/><path d="M146.396 342.333h-6.504v3.483h5.989q.66 0 .981.3.33.29.33.774 0 .484-.32.794-.32.3-.991.3h-5.989v4.035h6.727q.68 0 1.021.319.35.31.35.832 0 .503-.35.823-.34.31-1.02.31h-7.846q-.942 0-1.36-.417-.409-.416-.409-1.345v-10.663q0-.619.185-1.006.185-.397.574-.57.398-.185 1.01-.185h7.622q.69 0 1.02.31.34.3.34.793 0 .503-.34.813-.33.3-1.02.3z" style="font-style:normal;font-family:'Arial Rounded MT Bold';-inkscape-font-specification:'Arial Rounded MT Bold, ';fill:#000;fill-opacity:1;stroke-width:.264583" transform="matrix(.27152 0 0 .2584 25.993 -31.901)"/><path style="font-style:italic;font-size:19.484px;line-height:1.25;font-family:Calibri;-inkscape-font-specification:'Calibri, Italic';font-variant-ligatures:none;text-align:center;letter-spacing:.926042px;word-spacing:0;text-anchor:middle;fill:#000;fill-opacity:1;stroke-width:.799999;stroke-linecap:square;paint-order:fill markers stroke" d="M137.005 340.117h1.731v14.185h-1.731z" transform="matrix(.27152 0 0 .2584 25.993 -31.901)"/></g><g aria-label="SHIP" style="font-style:italic;font-size:19.484px;line-height:1.25;font-family:Calibri;-inkscape-font-specification:'Calibri, Italic';font-variant-ligatures:none;text-align:center;letter-spacing:7.9375px;word-spacing:0;text-anchor:middle;fill:#000;fill-opacity:1;stroke-width:.264583"><path d="M86.426 368.655q0 1.266-.657 2.274-.647 1.009-1.903 1.58-1.255.57-2.977.57-2.065 0-3.406-.78-.952-.561-1.55-1.494-.59-.941-.59-1.826 0-.514.351-.875.362-.372.914-.372.447 0 .751.286.314.285.533.847.266.666.57 1.113.315.447.876.742.561.285 1.475.285 1.255 0 2.035-.58.79-.59.79-1.465 0-.695-.428-1.123-.419-.438-1.094-.666-.666-.228-1.789-.485-1.503-.352-2.52-.818-1.01-.476-1.609-1.285-.59-.818-.59-2.026 0-1.151.628-2.045.628-.895 1.818-1.37 1.189-.486 2.797-.486 1.284 0 2.216.324.942.314 1.56.847.619.523.904 1.103.286.58.286 1.132 0 .505-.362.914-.352.4-.885.4-.485 0-.742-.239-.247-.247-.542-.799-.38-.79-.913-1.227-.533-.447-1.713-.447-1.094 0-1.77.485-.665.476-.665 1.151 0 .419.228.723.229.305.628.523.4.22.809.343.409.124 1.35.361 1.18.276 2.132.61.96.332 1.627.808.675.476 1.046 1.208.38.723.38 1.78zm13.179-8.286v3.996h6.098v-3.996q0-.856.381-1.284.39-.429 1.018-.429.637 0 1.027.429.4.418.4 1.284v10.988q0 .866-.4 1.294-.4.428-1.027.428-.637 0-1.018-.428-.38-.438-.38-1.294v-4.69h-6.099v4.69q0 .866-.4 1.294-.399.428-1.027.428-.637 0-1.018-.428-.38-.438-.38-1.294V360.37q0-.856.37-1.284.381-.429 1.028-.429.638 0 1.028.429.4.418.4 1.284zm21.865 10.988V360.37q0-.856.39-1.284.39-.429 1.01-.429.637 0 1.027.429.4.418.4 1.284v10.988q0 .866-.4 1.294-.39.428-1.028.428-.609 0-1.008-.428-.39-.438-.39-1.294z" style="font-style:normal;font-family:'Arial Rounded MT Bold';-inkscape-font-specification:'Arial Rounded MT Bold, ';fill:#000;fill-opacity:1" transform="matrix(.27152 0 0 .2584 25.993 -31.901)"/><path d="M142.628 367.343h-2.588v3.994q0 .857-.4 1.3-.4.442-1.008.442-.638 0-1.028-.433-.39-.443-.39-1.29V360.48q0-.943.428-1.347.429-.404 1.36-.404h3.626q1.607 0 2.473.25.856.24 1.475.799.628.558.951 1.366.324.809.324 1.82 0 2.155-1.313 3.272-1.313 1.107-3.91 1.107zm-.685-6.468h-1.903v4.312h1.903q.999 0 1.664-.212.676-.212 1.028-.693t.352-1.26q0-.934-.542-1.521-.61-.626-2.502-.626z" style="font-style:normal;font-family:'Arial Rounded MT Bold';-inkscape-font-specification:'Arial Rounded MT Bold, ';fill:#000;fill-opacity:1;stroke-width:.264583" transform="matrix(.27152 0 0 .2584 25.993 -31.901)"/><path style="font-style:italic;font-size:19.484px;line-height:1.25;font-family:Calibri;-inkscape-font-specification:'Calibri, Italic';font-variant-ligatures:none;text-align:center;letter-spacing:.926042px;word-spacing:0;text-anchor:middle;fill:#000;fill-opacity:1;stroke-width:.799999;stroke-linecap:square;paint-order:fill markers stroke" d="M137.214 358.729h1.731v1.64h-1.731z" transform="matrix(.27152 0 0 .2584 25.993 -31.901)"/></g><g aria-label="ANALYSIS" transform="matrix(.57206 0 0 .54442 -197.428 -344.564)" style="font-size:3.83967px;line-height:1.3;font-family:'Arial Rounded MT Bold';-inkscape-font-specification:'Arial Rounded MT Bold, Normal';font-variant-ligatures:none;letter-spacing:0;word-spacing:0;white-space:pre;shape-inside:url(#rect12816-2);fill:#000;fill-opacity:1;stroke-width:.033227"><path d="m464.918 747.645-.131-.345h-1.118l-.13.353q-.078.206-.132.28-.055.07-.178.07-.105 0-.186-.077-.08-.076-.08-.174 0-.056.018-.116.02-.06.062-.167l.703-1.785.072-.184q.043-.108.09-.18.048-.07.125-.114.079-.045.193-.045.117 0 .193.045.08.043.126.113.049.069.08.15.034.078.085.211l.718 1.774q.084.202.084.294 0 .096-.08.177-.079.078-.191.078-.066 0-.113-.024-.047-.023-.079-.062-.031-.041-.069-.124zm-1.102-.763h.82l-.414-1.134zm3.107-1.387 1.07 1.62v-1.635q0-.16.068-.238.07-.08.185-.08.12 0 .19.08.07.078.07.238v2.162q0 .361-.3.361-.076 0-.136-.022-.06-.02-.112-.068-.053-.046-.098-.108l-.09-.13-1.044-1.6v1.61q0 .157-.073.238-.073.08-.188.08-.118 0-.189-.08-.071-.083-.071-.238v-2.12q0-.136.03-.213.035-.084.118-.136.082-.055.178-.055.075 0 .128.025.054.024.093.065.041.041.083.107zm4.176 2.15-.131-.345h-1.118l-.131.353q-.077.206-.131.28-.055.07-.178.07-.105 0-.186-.077-.08-.076-.08-.174 0-.056.018-.116.019-.06.062-.167l.703-1.785.071-.184q.043-.108.09-.18.049-.07.126-.114.079-.045.193-.045.116 0 .193.045.079.043.126.113.048.069.08.15.034.078.085.211l.718 1.774q.084.202.084.294 0 .096-.08.177-.08.078-.192.078-.065 0-.112-.024-.047-.023-.079-.062-.032-.041-.07-.124zm-1.103-.763h.822l-.415-1.134zm2.928-1.383v2h1.128q.135 0 .207.066.073.065.073.165t-.072.165q-.07.062-.208.062h-1.344q-.182 0-.262-.081-.08-.08-.08-.26v-2.117q0-.17.076-.253.077-.085.2-.085.126 0 .203.085.079.082.079.253zm2.179 2.165v-.872l-.671-1.04q-.088-.14-.126-.22-.035-.078-.035-.137 0-.095.073-.164.075-.07.183-.07.115 0 .173.066.06.063.178.257l.514.834.519-.834.079-.13q.032-.052.07-.097.038-.047.085-.071.047-.025.115-.025.105 0 .174.07.071.067.071.157 0 .073-.035.146-.036.073-.122.203l-.688 1.055v.872q0 .17-.079.255-.079.084-.2.084-.124 0-.201-.082-.077-.084-.077-.257zm4.056-.532q0 .249-.13.448-.127.198-.374.31-.248.113-.587.113-.407 0-.671-.153-.188-.11-.306-.295-.116-.185-.116-.36 0-.1.07-.172.07-.073.18-.073.087 0 .147.056.062.056.105.167.053.131.113.22.062.087.172.145.11.057.29.057.248 0 .402-.115.156-.116.156-.288 0-.137-.085-.222-.082-.086-.215-.13-.132-.046-.353-.097-.296-.069-.497-.16-.198-.094-.317-.254-.116-.161-.116-.4 0-.226.124-.402.124-.177.358-.27.234-.096.551-.096.253 0 .437.064.186.062.308.167.121.103.178.217.056.115.056.223 0 .1-.071.18-.07.079-.175.079-.095 0-.146-.047-.049-.049-.107-.157-.075-.156-.18-.242-.105-.088-.337-.088-.216 0-.349.095-.131.094-.131.227 0 .083.045.143.045.06.123.103.08.043.16.067.08.025.266.071.233.055.42.12.19.066.32.16.134.093.207.238.075.142.075.35zm.771.532V745.5q0-.17.077-.253.077-.085.199-.085.125 0 .202.085.079.082.079.253v2.165q0 .17-.079.255-.077.084-.202.084-.12 0-.199-.084-.077-.086-.077-.255zm3.544-.532q0 .249-.13.448-.127.198-.374.31-.248.113-.587.113-.407 0-.671-.153-.188-.11-.306-.295-.116-.185-.116-.36 0-.1.07-.172.07-.073.18-.073.088 0 .148.056.061.056.105.167.052.131.112.22.062.087.173.145.11.057.29.057.248 0 .401-.115.156-.116.156-.288 0-.137-.084-.222-.083-.086-.216-.13-.131-.046-.353-.097-.296-.069-.496-.16-.2-.094-.317-.254-.116-.161-.116-.4 0-.226.123-.402.124-.177.358-.27.235-.096.552-.096.253 0 .436.064.186.062.308.167.122.103.178.217.056.115.056.223 0 .1-.071.18-.07.079-.174.079-.096 0-.147-.047-.048-.049-.106-.157-.075-.156-.18-.242-.105-.088-.338-.088-.216 0-.349.095-.13.094-.13.227 0 .083.044.143.045.06.124.103t.16.067q.08.025.265.071.233.055.42.12.19.066.321.16.133.093.206.238.075.142.075.35z" style="letter-spacing:.276281px;fill:#000;fill-opacity:1"/><path style="opacity:1;fill:#000;fill-opacity:1;stroke-width:.379713;stroke-linecap:square;paint-order:fill markers stroke" d="M472.367 747.687h.386v.27h-.386z"/></g><g aria-label="SOLUTIONS" transform="matrix(.52206 0 0 .54442 -174.25 -341.702)" style="font-size:3.83967px;line-height:1.3;font-family:'Arial Rounded MT Bold';-inkscape-font-specification:'Arial Rounded MT Bold, Normal';font-variant-ligatures:none;letter-spacing:0;word-spacing:0;white-space:pre;shape-inside:url(#rect12816-2-5);fill:#000;fill-opacity:1;stroke-width:.0347816"><path d="M465.248 747.132q0 .249-.13.448-.127.198-.374.31-.248.113-.587.113-.407 0-.671-.153-.188-.11-.306-.295-.116-.185-.116-.36 0-.1.07-.172.07-.073.18-.073.087 0 .147.056.062.056.105.167.053.131.113.22.062.087.172.145.11.057.29.057.248 0 .402-.115.156-.116.156-.288 0-.137-.085-.222-.082-.086-.215-.13-.132-.046-.353-.097-.296-.069-.497-.16-.198-.094-.317-.254-.116-.161-.116-.4 0-.226.124-.402.124-.177.358-.27.234-.096.551-.096.253 0 .437.064.186.062.308.167.121.103.178.217.056.115.056.223 0 .1-.071.18-.07.079-.175.079-.095 0-.146-.047-.049-.049-.107-.157-.075-.156-.18-.242-.105-.088-.337-.088-.216 0-.349.095-.131.094-.131.227 0 .083.045.143.045.06.124.103.078.043.159.067.08.025.266.071.233.055.42.12.19.066.32.16.134.093.207.238.075.142.075.35zm1.682-1.971q.427 0 .733.175.307.172.465.493.157.318.157.75 0 .318-.086.579-.086.26-.259.452-.172.19-.423.292-.252.101-.576.101-.323 0-.578-.103-.254-.105-.425-.294-.17-.19-.259-.456-.086-.266-.086-.575 0-.317.09-.581.092-.265.264-.45.173-.186.42-.283.248-.1.563-.1zm.79 1.414q0-.302-.097-.523-.097-.222-.279-.334-.18-.114-.414-.114-.167 0-.31.063-.14.062-.243.182-.102.12-.162.308-.058.185-.058.418 0 .234.058.423.06.19.167.315.109.124.248.186.14.062.307.062.214 0 .392-.107.18-.107.285-.33.107-.223.107-.55zm1.587-1.076v2h1.129q.135 0 .206.066.073.065.073.165t-.071.165q-.072.062-.208.062h-1.345q-.181 0-.262-.081-.079-.08-.079-.26v-2.117q0-.17.075-.253.077-.085.2-.085.126 0 .203.085.079.082.079.253z" style="fill:#000;fill-opacity:1"/><path style="font-size:3.83967px;line-height:1.3;font-family:'Arial Rounded MT Bold';-inkscape-font-specification:'Arial Rounded MT Bold, Normal';font-variant-ligatures:none;letter-spacing:0;word-spacing:0;white-space:pre;shape-inside:url(#rect12816-2);fill:#000;fill-opacity:1;stroke-width:.397478;stroke-linecap:square;paint-order:fill markers stroke" d="M468.75 747.675h.341v.281h-.341z"/><path d="M470.893 746.82v-1.32q0-.17.075-.253.077-.085.2-.085.13 0 .205.085.077.084.077.253v1.351q0 .231.05.387.053.153.184.24.131.084.368.084.326 0 .46-.173.136-.174.136-.526V745.5q0-.171.075-.253.075-.085.2-.085.126 0 .203.085.079.082.079.253v1.321q0 .323-.064.538-.062.216-.236.38-.15.138-.349.202-.199.063-.465.063-.317 0-.545-.067-.23-.07-.374-.212-.144-.144-.211-.367-.068-.225-.068-.537zm4.698-1.153h-.607v1.997q0 .173-.077.257-.077.082-.199.082-.123 0-.202-.084-.077-.084-.077-.255v-1.997h-.608q-.142 0-.211-.062-.07-.063-.07-.166 0-.107.072-.17.073-.061.21-.061h1.77q.144 0 .213.064.071.063.071.166 0 .104-.07.167-.072.062-.215.062zm.638 1.997V745.5q0-.17.077-.253.077-.085.198-.085.126 0 .203.085.079.082.079.253v2.165q0 .17-.079.255-.077.084-.203.084-.12 0-.198-.084-.077-.086-.077-.255zm2.388-2.503q.428 0 .733.175.308.172.465.493.158.318.158.75 0 .318-.086.579-.086.26-.259.452-.173.19-.424.292-.251.101-.575.101-.323 0-.578-.103-.255-.105-.425-.294-.171-.19-.26-.456-.085-.266-.085-.575 0-.317.09-.581.092-.265.264-.45.173-.186.42-.283.248-.1.562-.1zm.792 1.414q0-.302-.098-.523-.097-.222-.28-.334-.18-.114-.414-.114-.166 0-.309.063-.14.062-.244.182-.1.12-.16.308-.059.185-.059.418 0 .234.058.423.06.19.167.315.109.124.247.186.141.062.308.062.214 0 .392-.107.18-.107.285-.33.107-.223.107-.55zm1.766-1.08 1.07 1.62v-1.635q0-.16.068-.238.07-.08.185-.08.12 0 .19.08.07.078.07.238v2.162q0 .361-.3.361-.076 0-.136-.022-.06-.02-.112-.068-.053-.046-.098-.108l-.09-.13-1.044-1.6v1.61q0 .157-.073.238-.073.08-.188.08-.118 0-.19-.08-.07-.083-.07-.238v-2.12q0-.136.03-.213.035-.084.118-.136.082-.055.178-.055.075 0 .127.025.055.024.094.065.041.041.083.107zm4.28 1.637q0 .249-.13.448-.127.198-.374.31-.248.113-.587.113-.407 0-.671-.153-.188-.11-.306-.295-.116-.185-.116-.36 0-.1.07-.172.07-.073.18-.073.087 0 .147.056.062.056.105.167.053.131.113.22.062.087.172.145.11.057.29.057.248 0 .402-.115.156-.116.156-.288 0-.137-.085-.222-.082-.086-.215-.13-.132-.046-.353-.097-.296-.069-.497-.16-.198-.094-.317-.254-.116-.161-.116-.4 0-.226.124-.402.124-.177.358-.27.234-.096.551-.096.253 0 .437.064.186.062.308.167.121.103.178.217.056.115.056.223 0 .1-.071.18-.07.079-.175.079-.095 0-.146-.047-.049-.049-.107-.157-.075-.156-.18-.242-.105-.088-.337-.088-.216 0-.349.095-.131.094-.131.227 0 .083.045.143.045.06.124.103.078.043.159.067.08.025.266.071.233.055.42.12.19.066.32.16.134.093.207.238.075.142.075.35z" style="fill:#000;fill-opacity:1"/></g><path style="fill:#000;fill-opacity:1;stroke-width:.211903;stroke-linecap:square;paint-order:fill markers stroke" d="M78.668 57.484a.643.612 0 0 0-.642.611.643.612 0 0 0 .642.612.643.612 0 0 0 .643-.612.643.612 0 0 0-.643-.611zm0 .12a.517.492 0 0 1 .518.491.517.492 0 0 1-.518.492.517.492 0 0 1-.517-.492.517.492 0 0 1 .517-.492z"/><g style="font-size:3.34591px;line-height:1.25;font-family:'Arial Rounded MT Bold';-inkscape-font-specification:'Arial Rounded MT Bold, Normal';font-variant-ligatures:none;text-align:center;letter-spacing:0;word-spacing:0;text-anchor:middle;fill:#000;fill-opacity:1;stroke-width:.264583"><path d="M173.096 388.59h-.17v.77c0 .1-.022.175-.067.223a.228.228 0 0 1-.175.072.223.223 0 0 1-.18-.075c-.042-.05-.063-.124-.063-.22v-2.137l1.086-.004c.11 0 .202.005.28.015a.695.695 0 0 1 .408.19.666.666 0 0 1 .176.453c0 .179-.05.321-.152.428-.1.107-.252.183-.457.227a.887.887 0 0 1 .247.203c.078.09.148.185.209.286.062.1.11.19.144.273.035.08.052.136.052.166a.17.17 0 0 1-.031.095.202.202 0 0 1-.082.072.254.254 0 0 1-.12.028.232.232 0 0 1-.138-.04.371.371 0 0 1-.096-.096 4.615 4.615 0 0 1-.108-.173l-.195-.324a1.736 1.736 0 0 0-.187-.27.456.456 0 0 0-.167-.128.575.575 0 0 0-.214-.035zm.278-1.006h-.448v.658h.435c.116 0 .214-.01.294-.03a.33.33 0 0 0 .18-.102.296.296 0 0 0 .065-.201.305.305 0 0 0-.192-.29c-.056-.023-.168-.035-.334-.035z" style="fill:#000;fill-opacity:1" transform="matrix(.27152 0 0 .2584 20.605 -48.73)" aria-label="R"/></g><g style="font-size:4.56936px;line-height:1.25;font-family:'Arial Rounded MT Bold';-inkscape-font-specification:'Arial Rounded MT Bold, Normal';font-variant-ligatures:none;text-align:center;letter-spacing:0;word-spacing:0;text-anchor:middle;fill:#000;fill-opacity:1;stroke-width:.264583"><path d="M189.827 411.412q0 .114-.069.243-.067.13-.207.248-.139.116-.35.188-.213.07-.478.07-.565 0-.882-.327-.316-.33-.316-.884 0-.374.145-.662.145-.288.42-.444.274-.159.655-.159.237 0 .433.07.198.069.335.178.138.11.21.234.073.123.073.23 0 .11-.083.185-.08.076-.196.076-.076 0-.127-.038-.05-.04-.112-.127-.111-.17-.234-.254-.12-.085-.308-.085-.27 0-.435.212-.165.21-.165.576 0 .171.042.316.043.143.123.246.08.1.194.154.114.051.25.051.183 0 .312-.085.132-.084.233-.258.055-.103.12-.161.065-.058.158-.058.112 0 .186.085.073.084.073.18z" style="fill:#000;fill-opacity:1" transform="matrix(.27152 0 0 .2584 27.44 -48.086)" aria-label="c"/></g><path style="fill:#000;fill-opacity:1;stroke-width:.211903;stroke-linecap:square;paint-order:fill markers stroke" d="M67.697 51.03a.643.612 0 0 0-.643.612.643.612 0 0 0 .643.611.643.612 0 0 0 .642-.611.643.612 0 0 0-.642-.612zm0 .12a.517.492 0 0 1 .517.492.517.492 0 0 1-.517.492.517.492 0 0 1-.518-.492.517.492 0 0 1 .518-.493z"/><text xml:space="preserve" style="font-weight:700;font-size:5.28949px;line-height:1.25;font-family:Calibri;-inkscape-font-specification:'Calibri, Bold';fill:#000;fill-opacity:1;stroke-width:.264581" x="69.182" y="20.039"><tspan style="fill:#000;fill-opacity:1;stroke-width:.264581" x="69.182" y="20.039">$ 2 Billion</tspan></text><text xml:space="preserve" style="font-weight:700;font-size:5.28949px;line-height:1;font-family:Calibri;-inkscape-font-specification:'Calibri, Bold';fill:#000;fill-opacity:1;stroke-width:.264581" x="49.877" y="34.522"><tspan x="49.877" y="34.522">$1.1 Billion USD annually </tspan><tspan x="49.877" y="39.811">       (over a 10 year period)</tspan></text><text xml:space="preserve" style="font-weight:700;font-size:6.35097px;line-height:1.25;font-family:Calibri;-inkscape-font-specification:'Calibri, Bold';fill:#000;fill-opacity:1;stroke-width:.264581" x=".491" y="20.525"><tspan style="fill:#000;fill-opacity:1;stroke-width:.264581" x=".491" y="20.525">Benefits</tspan></text><text xml:space="preserve" style="font-weight:700;font-size:6.35097px;line-height:1.25;font-family:Calibri;-inkscape-font-specification:'Calibri, Bold';fill:#000;fill-opacity:1;stroke-width:.264581" x="8.089" y="34.872"><tspan style="fill:#000;fill-opacity:1;stroke-width:.264581" x="8.089" y="34.872">Costs</tspan></text><path style="fill:#000;fill-opacity:1;stroke:#000;stroke-width:.352778;stroke-linecap:square;stroke-dasharray:none;stroke-opacity:1" d="M24.16 16.68h42.921v3.413H24.16zM24.16 31.162h23.56v3.413H24.16z"/><text xml:space="preserve" style="font-style:normal;font-variant:normal;font-weight:400;font-stretch:normal;font-size:4.93889px;line-height:1.25;font-family:Roboto;-inkscape-font-specification:'Roboto, Normal';font-variant-ligatures:normal;font-variant-caps:normal;font-variant-numeric:normal;font-variant-east-asian:normal;white-space:pre;inline-size:52.7643;display:inline;fill:#000;fill-opacity:1;stroke:none;stroke-width:.264583" x="196.1" y="122.86" transform="translate(-170.244 -51.561)"><tspan x="196.1" y="122.86">urbancruiseship.org   
</tspan><tspan x="196.1" y="129.034">Exhibit constructed by
</tspan><tspan x="196.1" y="135.207">Richard Burd 1-17-2023</tspan></text><g><path style="opacity:.675944;fill:#ff9000;fill-opacity:1;stroke-width:2;stroke-linecap:square" d="M6.328 154.15h2.646v2.646H6.328z" transform="rotate(-90 -34.224 119.927)"/><path style="opacity:.675944;fill:#ffcd67;fill-opacity:1;stroke-width:2;stroke-linecap:square" d="M8.974 154.15h2.646v2.646H8.974z" transform="rotate(-90 -34.224 119.927)"/><path style="opacity:.675944;fill:#ff9000;fill-opacity:1;stroke-width:2;stroke-linecap:square" d="M11.62 154.15h2.646v2.646H11.62z" transform="rotate(-90 -34.224 119.927)"/><path style="opacity:.675944;fill:#ffcd67;fill-opacity:1;stroke-width:2;stroke-linecap:square" d="M14.265 154.15h2.646v2.646h-2.646z" transform="rotate(-90 -34.224 119.927)"/><path style="opacity:.675944;fill:#ff9000;fill-opacity:1;stroke-width:2;stroke-linecap:square" d="M16.911 154.15h2.646v2.646h-2.646z" transform="rotate(-90 -34.224 119.927)"/><path style="opacity:.675944;fill:#ffcd67;fill-opacity:1;stroke-width:2;stroke-linecap:square" d="M19.557 154.15h2.646v2.646h-2.646z" transform="rotate(-90 -34.224 119.927)"/><path style="opacity:.675944;fill:#ff9000;fill-opacity:1;stroke-width:2;stroke-linecap:square" d="M22.203 154.15h2.646v2.646h-2.646z" transform="rotate(-90 -34.224 119.927)"/><path style="opacity:.675944;fill:#ffcd67;fill-opacity:1;stroke-width:2;stroke-linecap:square" d="M24.849 154.15h2.646v2.646h-2.646z" transform="rotate(-90 -34.224 119.927)"/><path style="opacity:.675944;fill:#ff9000;fill-opacity:1;stroke-width:2;stroke-linecap:square" d="M27.495 154.15h2.646v2.646h-2.646z" transform="rotate(-90 -34.224 119.927)"/><path style="opacity:.675944;fill:#ffcd67;fill-opacity:1;stroke-width:2;stroke-linecap:square" d="M30.14 154.15h2.646v2.646H30.14z" transform="rotate(-90 -34.224 119.927)"/><g><path style="opacity:.675944;fill:#c7ff00;stroke-width:2;stroke-linecap:square" d="M6.328 154.15h2.646v2.646H6.328z" transform="rotate(-90 -47.453 106.697)"/><path style="opacity:.675944;fill:#f9ff67;fill-opacity:1;stroke-width:2;stroke-linecap:square" d="M8.974 154.15h2.646v2.646H8.974z" transform="rotate(-90 -47.453 106.697)"/><path style="opacity:.675944;fill:#c7ff00;stroke-width:2;stroke-linecap:square" d="M11.62 154.15h2.646v2.646H11.62z" transform="rotate(-90 -47.453 106.697)"/><path style="opacity:.675944;fill:#f9ff67;fill-opacity:1;stroke-width:2;stroke-linecap:square" d="M14.265 154.15h2.646v2.646h-2.646z" transform="rotate(-90 -47.453 106.697)"/><path style="opacity:.675944;fill:#c7ff00;stroke-width:2;stroke-linecap:square" d="M16.911 154.15h2.646v2.646h-2.646z" transform="rotate(-90 -47.453 106.697)"/><path style="opacity:.675944;fill:#f9ff67;fill-opacity:1;stroke-width:2;stroke-linecap:square" d="M19.557 154.15h2.646v2.646h-2.646z" transform="rotate(-90 -47.453 106.697)"/><path style="opacity:.675944;fill:#c7ff00;stroke-width:2;stroke-linecap:square" d="M22.203 154.15h2.646v2.646h-2.646z" transform="rotate(-90 -47.453 106.697)"/><path style="opacity:.675944;fill:#f9ff67;fill-opacity:1;stroke-width:2;stroke-linecap:square" d="M24.849 154.15h2.646v2.646h-2.646z" transform="rotate(-90 -47.453 106.697)"/><path style="opacity:.675944;fill:#c7ff00;stroke-width:2;stroke-linecap:square" d="M27.495 154.15h2.646v2.646h-2.646z" transform="rotate(-90 -47.453 106.697)"/><path style="opacity:.675944;fill:#f9ff67;fill-opacity:1;stroke-width:2;stroke-linecap:square" d="M30.14 154.15h2.646v2.646H30.14z" transform="rotate(-90 -47.453 106.697)"/></g><g><path style="opacity:.675944;fill:#c7ff00;stroke-width:2;stroke-linecap:square" d="M6.328 154.15h2.646v2.646H6.328z" transform="rotate(-90 -20.994 133.156)"/><path style="opacity:.675944;fill:#f9ff67;fill-opacity:1;stroke-width:2;stroke-linecap:square" d="M8.974 154.15h2.646v2.646H8.974z" transform="rotate(-90 -20.994 133.156)"/><path style="opacity:.675944;fill:#c7ff00;stroke-width:2;stroke-linecap:square" d="M11.62 154.15h2.646v2.646H11.62z" transform="rotate(-90 -20.994 133.156)"/><path style="opacity:.675944;fill:#f9ff67;fill-opacity:1;stroke-width:2;stroke-linecap:square" d="M14.265 154.15h2.646v2.646h-2.646z" transform="rotate(-90 -20.994 133.156)"/><path style="opacity:.675944;fill:#c7ff00;stroke-width:2;stroke-linecap:square" d="M16.911 154.15h2.646v2.646h-2.646z" transform="rotate(-90 -20.994 133.156)"/><path style="opacity:.675944;fill:#f9ff67;fill-opacity:1;stroke-width:2;stroke-linecap:square" d="M19.557 154.15h2.646v2.646h-2.646z" transform="rotate(-90 -20.994 133.156)"/><path style="opacity:.675944;fill:#c7ff00;stroke-width:2;stroke-linecap:square" d="M22.203 154.15h2.646v2.646h-2.646z" transform="rotate(-90 -20.994 133.156)"/><path style="opacity:.675944;fill:#f9ff67;fill-opacity:1;stroke-width:2;stroke-linecap:square" d="M24.849 154.15h2.646v2.646h-2.646z" transform="rotate(-90 -20.994 133.156)"/><path style="opacity:.675944;fill:#c7ff00;stroke-width:2;stroke-linecap:square" d="M27.495 154.15h2.646v2.646h-2.646z" transform="rotate(-90 -20.994 133.156)"/><path style="opacity:.675944;fill:#f9ff67;fill-opacity:1;stroke-width:2;stroke-linecap:square" d="M30.14 154.15h2.646v2.646H30.14z" transform="rotate(-90 -20.994 133.156)"/></g><g><path style="opacity:.675944;fill:#ff9000;fill-opacity:1;stroke-width:2;stroke-linecap:square" d="M6.328 154.15h2.646v2.646H6.328z" transform="rotate(-90 -60.682 93.468)"/><path style="opacity:.675944;fill:#ffcd67;fill-opacity:1;stroke-width:2;stroke-linecap:square" d="M8.974 154.15h2.646v2.646H8.974z" transform="rotate(-90 -60.682 93.468)"/><path style="opacity:.675944;fill:#ff9000;fill-opacity:1;stroke-width:2;stroke-linecap:square" d="M11.62 154.15h2.646v2.646H11.62z" transform="rotate(-90 -60.682 93.468)"/><path style="opacity:.675944;fill:#ffcd67;fill-opacity:1;stroke-width:2;stroke-linecap:square" d="M14.265 154.15h2.646v2.646h-2.646z" transform="rotate(-90 -60.682 93.468)"/><path style="opacity:.675944;fill:#ff9000;fill-opacity:1;stroke-width:2;stroke-linecap:square" d="M16.911 154.15h2.646v2.646h-2.646z" transform="rotate(-90 -60.682 93.468)"/><path style="opacity:.675944;fill:#ffcd67;fill-opacity:1;stroke-width:2;stroke-linecap:square" d="M19.557 154.15h2.646v2.646h-2.646z" transform="rotate(-90 -60.682 93.468)"/><path style="opacity:.675944;fill:#ff9000;fill-opacity:1;stroke-width:2;stroke-linecap:square" d="M22.203 154.15h2.646v2.646h-2.646z" transform="rotate(-90 -60.682 93.468)"/><path style="opacity:.675944;fill:#ffcd67;fill-opacity:1;stroke-width:2;stroke-linecap:square" d="M24.849 154.15h2.646v2.646h-2.646z" transform="rotate(-90 -60.682 93.468)"/><path style="opacity:.675944;fill:#ff9000;fill-opacity:1;stroke-width:2;stroke-linecap:square" d="M27.495 154.15h2.646v2.646h-2.646z" transform="rotate(-90 -60.682 93.468)"/><path style="opacity:.675944;fill:#ffcd67;fill-opacity:1;stroke-width:2;stroke-linecap:square" d="M30.14 154.15h2.646v2.646H30.14z" transform="rotate(-90 -60.682 93.468)"/></g><g><path style="opacity:.675944;fill:#3489ff;fill-opacity:1;stroke-width:2;stroke-linecap:square" d="M-83.608 144.198h2.646v2.646h-2.646z" transform="rotate(-90 -58.34 85.857)"/><path style="opacity:.675944;fill:#34ffe4;fill-opacity:1;stroke-width:2;stroke-linecap:square" d="M-80.963 144.198h2.646v2.646h-2.646z" transform="rotate(-90 -58.34 85.857)"/><path style="opacity:.675944;fill:#3489ff;fill-opacity:1;stroke-width:2;stroke-linecap:square" d="M-88.9 144.198h2.646v2.646H-88.9z" transform="rotate(-90 -58.34 85.857)"/><path style="opacity:.675944;fill:#34ffe4;fill-opacity:1;stroke-width:2;stroke-linecap:square" d="M-86.254 144.198h2.646v2.646h-2.646z" transform="rotate(-90 -58.34 85.857)"/><path style="opacity:.675944;fill:#3489ff;fill-opacity:1;stroke-width:2;stroke-linecap:square" d="M-94.192 144.198h2.646v2.646h-2.646z" transform="rotate(-90 -58.34 85.857)"/><path style="opacity:.675944;fill:#34ffe4;fill-opacity:1;stroke-width:2;stroke-linecap:square" d="M-91.546 144.198h2.646v2.646h-2.646zM-96.838 144.198h2.646v2.646h-2.646z" transform="rotate(-90 -58.34 85.857)"/></g><g><path style="opacity:.675944;fill:#ff9000;fill-opacity:1;stroke-width:2;stroke-linecap:square" d="M6.328 154.15h2.646v2.646H6.328z" transform="rotate(-90 18.693 67.01)"/><path style="opacity:.675944;fill:#ffcd67;fill-opacity:1;stroke-width:2;stroke-linecap:square" d="M8.974 154.15h2.646v2.646H8.974z" transform="rotate(-90 18.693 67.01)"/><path style="opacity:.675944;fill:#ff9000;fill-opacity:1;stroke-width:2;stroke-linecap:square" d="M11.62 154.15h2.646v2.646H11.62z" transform="rotate(-90 18.693 67.01)"/><path style="opacity:.675944;fill:#ffcd67;fill-opacity:1;stroke-width:2;stroke-linecap:square" d="M14.265 154.15h2.646v2.646h-2.646z" transform="rotate(-90 18.693 67.01)"/><path style="opacity:.675944;fill:#ff9000;fill-opacity:1;stroke-width:2;stroke-linecap:square" d="M16.911 154.15h2.646v2.646h-2.646z" transform="rotate(-90 18.693 67.01)"/><path style="opacity:.675944;fill:#ffcd67;fill-opacity:1;stroke-width:2;stroke-linecap:square" d="M19.557 154.15h2.646v2.646h-2.646z" transform="rotate(-90 18.693 67.01)"/><path style="opacity:.675944;fill:#ff9000;fill-opacity:1;stroke-width:2;stroke-linecap:square" d="M22.203 154.15h2.646v2.646h-2.646z" transform="rotate(-90 18.693 67.01)"/><path style="opacity:.675944;fill:#ffcd67;fill-opacity:1;stroke-width:2;stroke-linecap:square" d="M24.849 154.15h2.646v2.646h-2.646z" transform="rotate(-90 18.693 67.01)"/><path style="opacity:.675944;fill:#ff9000;fill-opacity:1;stroke-width:2;stroke-linecap:square" d="M27.495 154.15h2.646v2.646h-2.646z" transform="rotate(-90 18.693 67.01)"/><path style="opacity:.675944;fill:#ffcd67;fill-opacity:1;stroke-width:2;stroke-linecap:square" d="M30.14 154.15h2.646v2.646H30.14z" transform="rotate(-90 18.693 67.01)"/><g><path style="opacity:.675944;fill:#c7ff00;stroke-width:2;stroke-linecap:square" d="M6.328 154.15h2.646v2.646H6.328z" transform="rotate(-90 5.464 53.78)"/><path style="opacity:.675944;fill:#f9ff67;fill-opacity:1;stroke-width:2;stroke-linecap:square" d="M8.974 154.15h2.646v2.646H8.974z" transform="rotate(-90 5.464 53.78)"/><path style="opacity:.675944;fill:#c7ff00;stroke-width:2;stroke-linecap:square" d="M11.62 154.15h2.646v2.646H11.62z" transform="rotate(-90 5.464 53.78)"/><path style="opacity:.675944;fill:#f9ff67;fill-opacity:1;stroke-width:2;stroke-linecap:square" d="M14.265 154.15h2.646v2.646h-2.646z" transform="rotate(-90 5.464 53.78)"/><path style="opacity:.675944;fill:#c7ff00;stroke-width:2;stroke-linecap:square" d="M16.911 154.15h2.646v2.646h-2.646z" transform="rotate(-90 5.464 53.78)"/><path style="opacity:.675944;fill:#f9ff67;fill-opacity:1;stroke-width:2;stroke-linecap:square" d="M19.557 154.15h2.646v2.646h-2.646z" transform="rotate(-90 5.464 53.78)"/><path style="opacity:.675944;fill:#c7ff00;stroke-width:2;stroke-linecap:square" d="M22.203 154.15h2.646v2.646h-2.646z" transform="rotate(-90 5.464 53.78)"/><path style="opacity:.675944;fill:#f9ff67;fill-opacity:1;stroke-width:2;stroke-linecap:square" d="M24.849 154.15h2.646v2.646h-2.646z" transform="rotate(-90 5.464 53.78)"/><path style="opacity:.675944;fill:#c7ff00;stroke-width:2;stroke-linecap:square" d="M27.495 154.15h2.646v2.646h-2.646z" transform="rotate(-90 5.464 53.78)"/><path style="opacity:.675944;fill:#f9ff67;fill-opacity:1;stroke-width:2;stroke-linecap:square" d="M30.14 154.15h2.646v2.646H30.14z" transform="rotate(-90 5.464 53.78)"/></g><g><path style="opacity:.675944;fill:#c7ff00;stroke-width:2;stroke-linecap:square" d="M6.328 154.15h2.646v2.646H6.328z" transform="rotate(-90 31.922 80.24)"/><path style="opacity:.675944;fill:#f9ff67;fill-opacity:1;stroke-width:2;stroke-linecap:square" d="M8.974 154.15h2.646v2.646H8.974z" transform="rotate(-90 31.922 80.24)"/><path style="opacity:.675944;fill:#c7ff00;stroke-width:2;stroke-linecap:square" d="M11.62 154.15h2.646v2.646H11.62z" transform="rotate(-90 31.922 80.24)"/><path style="opacity:.675944;fill:#f9ff67;fill-opacity:1;stroke-width:2;stroke-linecap:square" d="M14.265 154.15h2.646v2.646h-2.646z" transform="rotate(-90 31.922 80.24)"/><path style="opacity:.675944;fill:#c7ff00;stroke-width:2;stroke-linecap:square" d="M16.911 154.15h2.646v2.646h-2.646z" transform="rotate(-90 31.922 80.24)"/><path style="opacity:.675944;fill:#f9ff67;fill-opacity:1;stroke-width:2;stroke-linecap:square" d="M19.557 154.15h2.646v2.646h-2.646z" transform="rotate(-90 31.922 80.24)"/><path style="opacity:.675944;fill:#c7ff00;stroke-width:2;stroke-linecap:square" d="M22.203 154.15h2.646v2.646h-2.646z" transform="rotate(-90 31.922 80.24)"/><path style="opacity:.675944;fill:#f9ff67;fill-opacity:1;stroke-width:2;stroke-linecap:square" d="M24.849 154.15h2.646v2.646h-2.646z" transform="rotate(-90 31.922 80.24)"/><path style="opacity:.675944;fill:#c7ff00;stroke-width:2;stroke-linecap:square" d="M27.495 154.15h2.646v2.646h-2.646z" transform="rotate(-90 31.922 80.24)"/><path style="opacity:.675944;fill:#f9ff67;fill-opacity:1;stroke-width:2;stroke-linecap:square" d="M30.14 154.15h2.646v2.646H30.14z" transform="rotate(-90 31.922 80.24)"/></g><g><path style="opacity:.675944;fill:#ff9000;fill-opacity:1;stroke-width:2;stroke-linecap:square" d="M6.328 154.15h2.646v2.646H6.328z" transform="rotate(-90 -7.765 40.552)"/><path style="opacity:.675944;fill:#ffcd67;fill-opacity:1;stroke-width:2;stroke-linecap:square" d="M8.974 154.15h2.646v2.646H8.974z" transform="rotate(-90 -7.765 40.552)"/><path style="opacity:.675944;fill:#ff9000;fill-opacity:1;stroke-width:2;stroke-linecap:square" d="M11.62 154.15h2.646v2.646H11.62z" transform="rotate(-90 -7.765 40.552)"/><path style="opacity:.675944;fill:#ffcd67;fill-opacity:1;stroke-width:2;stroke-linecap:square" d="M14.265 154.15h2.646v2.646h-2.646z" transform="rotate(-90 -7.765 40.552)"/><path style="opacity:.675944;fill:#ff9000;fill-opacity:1;stroke-width:2;stroke-linecap:square" d="M16.911 154.15h2.646v2.646h-2.646z" transform="rotate(-90 -7.765 40.552)"/><path style="opacity:.675944;fill:#ffcd67;fill-opacity:1;stroke-width:2;stroke-linecap:square" d="M19.557 154.15h2.646v2.646h-2.646z" transform="rotate(-90 -7.765 40.552)"/><path style="opacity:.675944;fill:#ff9000;fill-opacity:1;stroke-width:2;stroke-linecap:square" d="M22.203 154.15h2.646v2.646h-2.646z" transform="rotate(-90 -7.765 40.552)"/><path style="opacity:.675944;fill:#ffcd67;fill-opacity:1;stroke-width:2;stroke-linecap:square" d="M24.849 154.15h2.646v2.646h-2.646z" transform="rotate(-90 -7.765 40.552)"/><path style="opacity:.675944;fill:#ff9000;fill-opacity:1;stroke-width:2;stroke-linecap:square" d="M27.495 154.15h2.646v2.646h-2.646z" transform="rotate(-90 -7.765 40.552)"/><path style="opacity:.675944;fill:#ffcd67;fill-opacity:1;stroke-width:2;stroke-linecap:square" d="M30.14 154.15h2.646v2.646H30.14z" transform="rotate(-90 -7.765 40.552)"/></g><g><path style="opacity:.675944;fill:#3489ff;fill-opacity:1;stroke-width:2;stroke-linecap:square" d="M-83.608 144.198h2.646v2.646h-2.646z" transform="rotate(-90 -5.424 32.94)"/><path style="opacity:.675944;fill:#34ffe4;fill-opacity:1;stroke-width:2;stroke-linecap:square" d="M-80.963 144.198h2.646v2.646h-2.646z" transform="rotate(-90 -5.424 32.94)"/><path style="opacity:.675944;fill:#3489ff;fill-opacity:1;stroke-width:2;stroke-linecap:square" d="M-88.9 144.198h2.646v2.646H-88.9z" transform="rotate(-90 -5.424 32.94)"/><path style="opacity:.675944;fill:#34ffe4;fill-opacity:1;stroke-width:2;stroke-linecap:square" d="M-86.254 144.198h2.646v2.646h-2.646z" transform="rotate(-90 -5.424 32.94)"/><path style="opacity:.675944;fill:#3489ff;fill-opacity:1;stroke-width:2;stroke-linecap:square" d="M-94.192 144.198h2.646v2.646h-2.646z" transform="rotate(-90 -5.424 32.94)"/><path style="opacity:.675944;fill:#34ffe4;fill-opacity:1;stroke-width:2;stroke-linecap:square" d="M-91.546 144.198h2.646v2.646h-2.646zM-96.838 144.198h2.646v2.646h-2.646z" transform="rotate(-90 -5.424 32.94)"/></g></g><g><path style="opacity:.675944;fill:#ff9000;fill-opacity:1;stroke-width:2;stroke-linecap:square" d="M6.328 154.15h2.646v2.646H6.328z" transform="rotate(-180 42.852 78.398)"/><path style="opacity:.675944;fill:#ffcd67;fill-opacity:1;stroke-width:2;stroke-linecap:square" d="M8.974 154.15h2.646v2.646H8.974z" transform="rotate(-180 42.852 78.398)"/><path style="opacity:.675944;fill:#ff9000;fill-opacity:1;stroke-width:2;stroke-linecap:square" d="M11.62 154.15h2.646v2.646H11.62z" transform="rotate(-180 42.852 78.398)"/><path style="opacity:.675944;fill:#ffcd67;fill-opacity:1;stroke-width:2;stroke-linecap:square" d="M14.265 154.15h2.646v2.646h-2.646z" transform="rotate(-180 42.852 78.398)"/><path style="opacity:.675944;fill:#ff9000;fill-opacity:1;stroke-width:2;stroke-linecap:square" d="M16.911 154.15h2.646v2.646h-2.646z" transform="rotate(-180 42.852 78.398)"/><path style="opacity:.675944;fill:#ffcd67;fill-opacity:1;stroke-width:2;stroke-linecap:square" d="M19.557 154.15h2.646v2.646h-2.646z" transform="rotate(-180 42.852 78.398)"/><path style="opacity:.675944;fill:#ff9000;fill-opacity:1;stroke-width:2;stroke-linecap:square" d="M22.203 154.15h2.646v2.646h-2.646z" transform="rotate(-180 42.852 78.398)"/><path style="opacity:.675944;fill:#ffcd67;fill-opacity:1;stroke-width:2;stroke-linecap:square" d="M24.849 154.15h2.646v2.646h-2.646z" transform="rotate(-180 42.852 78.398)"/><path style="opacity:.675944;fill:#ff9000;fill-opacity:1;stroke-width:2;stroke-linecap:square" d="M27.495 154.15h2.646v2.646h-2.646z" transform="rotate(-180 42.852 78.398)"/><path style="opacity:.675944;fill:#ffcd67;fill-opacity:1;stroke-width:2;stroke-linecap:square" d="M30.14 154.15h2.646v2.646H30.14z" transform="rotate(-180 42.852 78.398)"/><g><path style="opacity:.675944;fill:#c7ff00;stroke-width:2;stroke-linecap:square" d="M6.328 154.15h2.646v2.646H6.328z" transform="rotate(-180 29.622 78.398)"/><path style="opacity:.675944;fill:#f9ff67;fill-opacity:1;stroke-width:2;stroke-linecap:square" d="M8.974 154.15h2.646v2.646H8.974z" transform="rotate(-180 29.622 78.398)"/><path style="opacity:.675944;fill:#c7ff00;stroke-width:2;stroke-linecap:square" d="M11.62 154.15h2.646v2.646H11.62z" transform="rotate(-180 29.622 78.398)"/><path style="opacity:.675944;fill:#f9ff67;fill-opacity:1;stroke-width:2;stroke-linecap:square" d="M14.265 154.15h2.646v2.646h-2.646z" transform="rotate(-180 29.622 78.398)"/><path style="opacity:.675944;fill:#c7ff00;stroke-width:2;stroke-linecap:square" d="M16.911 154.15h2.646v2.646h-2.646z" transform="rotate(-180 29.622 78.398)"/><path style="opacity:.675944;fill:#f9ff67;fill-opacity:1;stroke-width:2;stroke-linecap:square" d="M19.557 154.15h2.646v2.646h-2.646z" transform="rotate(-180 29.622 78.398)"/><path style="opacity:.675944;fill:#c7ff00;stroke-width:2;stroke-linecap:square" d="M22.203 154.15h2.646v2.646h-2.646z" transform="rotate(-180 29.622 78.398)"/><path style="opacity:.675944;fill:#f9ff67;fill-opacity:1;stroke-width:2;stroke-linecap:square" d="M24.849 154.15h2.646v2.646h-2.646z" transform="rotate(-180 29.622 78.398)"/><path style="opacity:.675944;fill:#c7ff00;stroke-width:2;stroke-linecap:square" d="M27.495 154.15h2.646v2.646h-2.646z" transform="rotate(-180 29.622 78.398)"/><path style="opacity:.675944;fill:#f9ff67;fill-opacity:1;stroke-width:2;stroke-linecap:square" d="M30.14 154.15h2.646v2.646H30.14z" transform="rotate(-180 29.622 78.398)"/></g><g><path style="opacity:.675944;fill:#c7ff00;stroke-width:2;stroke-linecap:square" d="M6.328 154.15h2.646v2.646H6.328z" transform="rotate(-180 56.08 78.398)"/><path style="opacity:.675944;fill:#f9ff67;fill-opacity:1;stroke-width:2;stroke-linecap:square" d="M8.974 154.15h2.646v2.646H8.974z" transform="rotate(-180 56.08 78.398)"/><path style="opacity:.675944;fill:#c7ff00;stroke-width:2;stroke-linecap:square" d="M11.62 154.15h2.646v2.646H11.62z" transform="rotate(-180 56.08 78.398)"/><path style="opacity:.675944;fill:#f9ff67;fill-opacity:1;stroke-width:2;stroke-linecap:square" d="M14.265 154.15h2.646v2.646h-2.646z" transform="rotate(-180 56.08 78.398)"/><path style="opacity:.675944;fill:#c7ff00;stroke-width:2;stroke-linecap:square" d="M16.911 154.15h2.646v2.646h-2.646z" transform="rotate(-180 56.08 78.398)"/><path style="opacity:.675944;fill:#f9ff67;fill-opacity:1;stroke-width:2;stroke-linecap:square" d="M19.557 154.15h2.646v2.646h-2.646z" transform="rotate(-180 56.08 78.398)"/><path style="opacity:.675944;fill:#c7ff00;stroke-width:2;stroke-linecap:square" d="M22.203 154.15h2.646v2.646h-2.646z" transform="rotate(-180 56.08 78.398)"/><path style="opacity:.675944;fill:#f9ff67;fill-opacity:1;stroke-width:2;stroke-linecap:square" d="M24.849 154.15h2.646v2.646h-2.646z" transform="rotate(-180 56.08 78.398)"/><path style="opacity:.675944;fill:#c7ff00;stroke-width:2;stroke-linecap:square" d="M27.495 154.15h2.646v2.646h-2.646z" transform="rotate(-180 56.08 78.398)"/><path style="opacity:.675944;fill:#f9ff67;fill-opacity:1;stroke-width:2;stroke-linecap:square" d="M30.14 154.15h2.646v2.646H30.14z" transform="rotate(-180 56.08 78.398)"/></g><g><path style="opacity:.675944;fill:#ff9000;fill-opacity:1;stroke-width:2;stroke-linecap:square" d="M6.328 154.15h2.646v2.646H6.328z" transform="rotate(-180 16.393 78.398)"/><path style="opacity:.675944;fill:#ffcd67;fill-opacity:1;stroke-width:2;stroke-linecap:square" d="M8.974 154.15h2.646v2.646H8.974z" transform="rotate(-180 16.393 78.398)"/><path style="opacity:.675944;fill:#ff9000;fill-opacity:1;stroke-width:2;stroke-linecap:square" d="M11.62 154.15h2.646v2.646H11.62z" transform="rotate(-180 16.393 78.398)"/><path style="opacity:.675944;fill:#ffcd67;fill-opacity:1;stroke-width:2;stroke-linecap:square" d="M14.265 154.15h2.646v2.646h-2.646z" transform="rotate(-180 16.393 78.398)"/><path style="opacity:.675944;fill:#ff9000;fill-opacity:1;stroke-width:2;stroke-linecap:square" d="M16.911 154.15h2.646v2.646h-2.646z" transform="rotate(-180 16.393 78.398)"/><path style="opacity:.675944;fill:#ffcd67;fill-opacity:1;stroke-width:2;stroke-linecap:square" d="M19.557 154.15h2.646v2.646h-2.646z" transform="rotate(-180 16.393 78.398)"/><path style="opacity:.675944;fill:#ff9000;fill-opacity:1;stroke-width:2;stroke-linecap:square" d="M22.203 154.15h2.646v2.646h-2.646z" transform="rotate(-180 16.393 78.398)"/><path style="opacity:.675944;fill:#ffcd67;fill-opacity:1;stroke-width:2;stroke-linecap:square" d="M24.849 154.15h2.646v2.646h-2.646z" transform="rotate(-180 16.393 78.398)"/><path style="opacity:.675944;fill:#ff9000;fill-opacity:1;stroke-width:2;stroke-linecap:square" d="M27.495 154.15h2.646v2.646h-2.646z" transform="rotate(-180 16.393 78.398)"/><path style="opacity:.675944;fill:#ffcd67;fill-opacity:1;stroke-width:2;stroke-linecap:square" d="M30.14 154.15h2.646v2.646H30.14z" transform="rotate(-180 16.393 78.398)"/></g></g><g><path style="opacity:.675944;fill:#ff9000;fill-opacity:1;stroke-width:2;stroke-linecap:square" d="M6.328 154.15h2.646v2.646H6.328z" transform="rotate(-180 42.852 139.252)"/><path style="opacity:.675944;fill:#ffcd67;fill-opacity:1;stroke-width:2;stroke-linecap:square" d="M8.974 154.15h2.646v2.646H8.974z" transform="rotate(-180 42.852 139.252)"/><path style="opacity:.675944;fill:#ff9000;fill-opacity:1;stroke-width:2;stroke-linecap:square" d="M11.62 154.15h2.646v2.646H11.62z" transform="rotate(-180 42.852 139.252)"/><path style="opacity:.675944;fill:#ffcd67;fill-opacity:1;stroke-width:2;stroke-linecap:square" d="M14.265 154.15h2.646v2.646h-2.646z" transform="rotate(-180 42.852 139.252)"/><path style="opacity:.675944;fill:#ff9000;fill-opacity:1;stroke-width:2;stroke-linecap:square" d="M16.911 154.15h2.646v2.646h-2.646z" transform="rotate(-180 42.852 139.252)"/><path style="opacity:.675944;fill:#ffcd67;fill-opacity:1;stroke-width:2;stroke-linecap:square" d="M19.557 154.15h2.646v2.646h-2.646z" transform="rotate(-180 42.852 139.252)"/><path style="opacity:.675944;fill:#ff9000;fill-opacity:1;stroke-width:2;stroke-linecap:square" d="M22.203 154.15h2.646v2.646h-2.646z" transform="rotate(-180 42.852 139.252)"/><path style="opacity:.675944;fill:#ffcd67;fill-opacity:1;stroke-width:2;stroke-linecap:square" d="M24.849 154.15h2.646v2.646h-2.646z" transform="rotate(-180 42.852 139.252)"/><path style="opacity:.675944;fill:#ff9000;fill-opacity:1;stroke-width:2;stroke-linecap:square" d="M27.495 154.15h2.646v2.646h-2.646z" transform="rotate(-180 42.852 139.252)"/><path style="opacity:.675944;fill:#ffcd67;fill-opacity:1;stroke-width:2;stroke-linecap:square" d="M30.14 154.15h2.646v2.646H30.14z" transform="rotate(-180 42.852 139.252)"/><g><path style="opacity:.675944;fill:#c7ff00;stroke-width:2;stroke-linecap:square" d="M6.328 154.15h2.646v2.646H6.328z" transform="rotate(-180 29.622 139.252)"/><path style="opacity:.675944;fill:#f9ff67;fill-opacity:1;stroke-width:2;stroke-linecap:square" d="M8.974 154.15h2.646v2.646H8.974z" transform="rotate(-180 29.622 139.252)"/><path style="opacity:.675944;fill:#c7ff00;stroke-width:2;stroke-linecap:square" d="M11.62 154.15h2.646v2.646H11.62z" transform="rotate(-180 29.622 139.252)"/><path style="opacity:.675944;fill:#f9ff67;fill-opacity:1;stroke-width:2;stroke-linecap:square" d="M14.265 154.15h2.646v2.646h-2.646z" transform="rotate(-180 29.622 139.252)"/><path style="opacity:.675944;fill:#c7ff00;stroke-width:2;stroke-linecap:square" d="M16.911 154.15h2.646v2.646h-2.646z" transform="rotate(-180 29.622 139.252)"/><path style="opacity:.675944;fill:#f9ff67;fill-opacity:1;stroke-width:2;stroke-linecap:square" d="M19.557 154.15h2.646v2.646h-2.646z" transform="rotate(-180 29.622 139.252)"/><path style="opacity:.675944;fill:#c7ff00;stroke-width:2;stroke-linecap:square" d="M22.203 154.15h2.646v2.646h-2.646z" transform="rotate(-180 29.622 139.252)"/><path style="opacity:.675944;fill:#f9ff67;fill-opacity:1;stroke-width:2;stroke-linecap:square" d="M24.849 154.15h2.646v2.646h-2.646z" transform="rotate(-180 29.622 139.252)"/><path style="opacity:.675944;fill:#c7ff00;stroke-width:2;stroke-linecap:square" d="M27.495 154.15h2.646v2.646h-2.646z" transform="rotate(-180 29.622 139.252)"/><path style="opacity:.675944;fill:#f9ff67;fill-opacity:1;stroke-width:2;stroke-linecap:square" d="M30.14 154.15h2.646v2.646H30.14z" transform="rotate(-180 29.622 139.252)"/></g><g><path style="opacity:.675944;fill:#c7ff00;stroke-width:2;stroke-linecap:square" d="M6.328 154.15h2.646v2.646H6.328z" transform="rotate(-180 56.08 139.252)"/><path style="opacity:.675944;fill:#f9ff67;fill-opacity:1;stroke-width:2;stroke-linecap:square" d="M8.974 154.15h2.646v2.646H8.974z" transform="rotate(-180 56.08 139.252)"/><path style="opacity:.675944;fill:#c7ff00;stroke-width:2;stroke-linecap:square" d="M11.62 154.15h2.646v2.646H11.62z" transform="rotate(-180 56.08 139.252)"/><path style="opacity:.675944;fill:#f9ff67;fill-opacity:1;stroke-width:2;stroke-linecap:square" d="M14.265 154.15h2.646v2.646h-2.646z" transform="rotate(-180 56.08 139.252)"/><path style="opacity:.675944;fill:#c7ff00;stroke-width:2;stroke-linecap:square" d="M16.911 154.15h2.646v2.646h-2.646z" transform="rotate(-180 56.08 139.252)"/><path style="opacity:.675944;fill:#f9ff67;fill-opacity:1;stroke-width:2;stroke-linecap:square" d="M19.557 154.15h2.646v2.646h-2.646z" transform="rotate(-180 56.08 139.252)"/><path style="opacity:.675944;fill:#c7ff00;stroke-width:2;stroke-linecap:square" d="M22.203 154.15h2.646v2.646h-2.646z" transform="rotate(-180 56.08 139.252)"/><path style="opacity:.675944;fill:#f9ff67;fill-opacity:1;stroke-width:2;stroke-linecap:square" d="M24.849 154.15h2.646v2.646h-2.646z" transform="rotate(-180 56.08 139.252)"/><path style="opacity:.675944;fill:#c7ff00;stroke-width:2;stroke-linecap:square" d="M27.495 154.15h2.646v2.646h-2.646z" transform="rotate(-180 56.08 139.252)"/><path style="opacity:.675944;fill:#f9ff67;fill-opacity:1;stroke-width:2;stroke-linecap:square" d="M30.14 154.15h2.646v2.646H30.14z" transform="rotate(-180 56.08 139.252)"/></g><g><path style="opacity:.675944;fill:#ff9000;fill-opacity:1;stroke-width:2;stroke-linecap:square" d="M6.328 154.15h2.646v2.646H6.328z" transform="rotate(-180 16.393 139.252)"/><path style="opacity:.675944;fill:#ffcd67;fill-opacity:1;stroke-width:2;stroke-linecap:square" d="M8.974 154.15h2.646v2.646H8.974z" transform="rotate(-180 16.393 139.252)"/><path style="opacity:.675944;fill:#ff9000;fill-opacity:1;stroke-width:2;stroke-linecap:square" d="M11.62 154.15h2.646v2.646H11.62z" transform="rotate(-180 16.393 139.252)"/><path style="opacity:.675944;fill:#ffcd67;fill-opacity:1;stroke-width:2;stroke-linecap:square" d="M14.265 154.15h2.646v2.646h-2.646z" transform="rotate(-180 16.393 139.252)"/><path style="opacity:.675944;fill:#ff9000;fill-opacity:1;stroke-width:2;stroke-linecap:square" d="M16.911 154.15h2.646v2.646h-2.646z" transform="rotate(-180 16.393 139.252)"/><path style="opacity:.675944;fill:#ffcd67;fill-opacity:1;stroke-width:2;stroke-linecap:square" d="M19.557 154.15h2.646v2.646h-2.646z" transform="rotate(-180 16.393 139.252)"/><path style="opacity:.675944;fill:#ff9000;fill-opacity:1;stroke-width:2;stroke-linecap:square" d="M22.203 154.15h2.646v2.646h-2.646z" transform="rotate(-180 16.393 139.252)"/><path style="opacity:.675944;fill:#ffcd67;fill-opacity:1;stroke-width:2;stroke-linecap:square" d="M24.849 154.15h2.646v2.646h-2.646z" transform="rotate(-180 16.393 139.252)"/><path style="opacity:.675944;fill:#ff9000;fill-opacity:1;stroke-width:2;stroke-linecap:square" d="M27.495 154.15h2.646v2.646h-2.646z" transform="rotate(-180 16.393 139.252)"/><path style="opacity:.675944;fill:#ffcd67;fill-opacity:1;stroke-width:2;stroke-linecap:square" d="M30.14 154.15h2.646v2.646H30.14z" transform="rotate(-180 16.393 139.252)"/></g></g></g></svg>